<svg id="Слой_1" data-name="Слой 1" xmlns="http://www.w3.org/2000/svg" width="144mm" height="77.22mm" viewBox="0 0 408.19 218.89">
  <defs>
    <style>
      .cls-1, .cls-3 {
        fill: none;
      }

      .cls-2 {
        fill: #fff;
      }

      .cls-3 {
        stroke: #fff;
        stroke-miterlimit: 10;
      }
    </style>
  </defs>
  <title>VIRTINA каталог 02</title>
  <g>
    <path class="cls-1" d="M347,65.46a4.89,4.89,0,0,1,2.72.51l-12.33.37v77l3.17-.29V66.59l.36,0,.3,1.44,11.46-1.14V62.47l-6.27.86,0,.2,3.36.29-.06.48L343.85,64c0,.5,0,.85.08,1.25C345,65.35,346,65.39,347,65.46Z"/>
    <path class="cls-1" d="M349.33,62.1l-5.43-.54V63l5.45-.74Z"/>
    <path class="cls-1" d="M343.17,60.92l-2.37-.3v4.89h2.37Z"/>
    <path class="cls-1" d="M284.94,130.18l8.67-.47V84l-8.67-.58Z"/>
    <path class="cls-1" d="M340.08,60.61l-57.93,6.28v4.28l57.93-5.53Z"/>
    <path class="cls-1" d="M294.42,84.08a2.38,2.38,0,0,0-.29.51,3.07,3.07,0,0,0,0,.68v44.32l.52.15a7.19,7.19,0,0,0,.22-1.27q0-21.6,0-43.21a1.92,1.92,0,0,0,0-.68C294.78,84.39,294.57,84.25,294.42,84.08Z"/>
    <path class="cls-1" d="M367.38,64.13l-1.93-.26V68.5h1.93Z"/>
    <path class="cls-1" d="M368,65.41l2.78-.27C368.89,64.48,368,64.6,368,65.41Z"/>
    <path class="cls-1" d="M375.62,69.46v-4.1l-4.83.44,0,.23,2.64.35c0,.16,0,.31,0,.47L368,66.5v1.21l4.87.49c0,.16,0,.31-.05.47q-1.94-.15-3.87-.27c-.3,0-.8-.08-.86,0-.42.87-1.17.53-1.78.51s-1.08.18-.76,1.09Z"/>
    <path class="cls-1" d="M362.34,63.42l-6-.63V64.1l6-.51Z"/>
    <path class="cls-1" d="M356.79,64.69,361,65c0,.18,0,.36,0,.53l-4.62-.24V66.5l4.64.42a2.64,2.64,0,0,1,0,.29l-11.29.36V142h-.43v-5.18h-8.09v6.27l20.4-1.55v-4.74h-8.13V142l-.34,0V67.8l.32,0c.08.52.16,1,.26,1.64l11.06-1V63.82l-8,.69Z"/>
    <path class="cls-1" d="M355.78,62.66l-2.56-.18v4.36h2.56Z"/>
    <path class="cls-1" d="M271.2,67.18l0-.29-6.44.67,0,.23Z"/>
    <path class="cls-1" d="M99.18,74.4l-4.6.84v61.51l4.6.57Z"/>
    <path class="cls-1" d="M372.9,70v65.55c0,1.28,0,2.57,0,3.85a2.4,2.4,0,0,1-.24.76l-.34-.07v-2.7h-6.79v3.82l21-1.59V71.14l-2.53.23v68.09l-.33,0c-.08-.42-.16-.83-.27-1.43h-6.72c-.06.68-.12,1.38-.18,2.08l-.41,0V70Z"/>
    <path class="cls-1" d="M305.41,84.87v44.21l1.29-.1c0-.33.06-.55.06-.78q0-21.16,0-42.34C306.78,84.77,306.28,84.68,305.41,84.87Z"/>
    <path class="cls-1" d="M308,107V86.24a3.45,3.45,0,0,0,0-.79c0-.18-.22-.32-.34-.48-.13.14-.32.26-.38.43a2.13,2.13,0,0,0,0,.67v41.74a1.29,1.29,0,0,0,0,.34c.1.28.23.55.35.83a5.16,5.16,0,0,0,.39-.78,2.2,2.2,0,0,0,0-.68Z"/>
    <path class="cls-1" d="M316.71,86.23c-.18-.29-.45-.71-.72-.73-2.44-.21-4.9-.34-7.47-.51v43.92c2.29-.11,4.51-.28,6.73-.29,1.14,0,1.52-.31,1.52-1.53,0-13.4,0-26.79,0-40.19C316.74,86.67,316.82,86.39,316.71,86.23Z"/>
    <path class="cls-1" d="M295.42,129.61l9.36-.47V84.74l-9.36-.63Z"/>
    <path class="cls-1" d="M329.75,84.68l-46.7-3.14v51.14l46.7-2.48Zm-2.2,43.89q-21.32,1.08-42.61,2.22c-.15,0-.3,0-.54,0v-48l43.9,2.93c0,5,0,9.75,0,14.56q.09,13.56.28,27.13C328.6,128.2,328.42,128.52,327.55,128.57Z"/>
    <path class="cls-1" d="M318,86.13c0-.18-.22-.33-.33-.49a2.22,2.22,0,0,0-.4.54,2.13,2.13,0,0,0,0,.67v40.39a3.49,3.49,0,0,0,0,.79c0,.14.21.25.32.37.14-.14.35-.26.39-.42a3.86,3.86,0,0,0,0-.9V86.92A3.47,3.47,0,0,0,318,86.13Z"/>
    <path class="cls-1" d="M318.52,85.65v42.77l9.46-.53c-.14-14-.27-27.75-.41-41.63Z"/>
    <path class="cls-1" d="M297.47,153.8c11.28-1.14,22.59-2,33.89-3,.29,0,.58-.1.86-.15a3.3,3.3,0,0,0-1.36-.43,73.58,73.58,0,0,0-8.19-.93c-3,0-6,.44-8.93.69l-23.05,2-10.5.92v.16c.56.06,1.12.14,1.68.19C287.07,153.72,292.21,154.33,297.47,153.8Z"/>
    <path class="cls-1" d="M334,151l-9.53.8-22.84,2c-2.91.24-5.81.47-8.71.76-.31,0-.84.36-.86.58-.09,1.15,0,2.31,0,3.58l42-4.46Z"/>
    <path class="cls-1" d="M336.61,70.64v-1.3l-1.09.08-9,.79-18.64,1.62c-.72.06-.93.37-.68,1.21Z"/>
    <path class="cls-1" d="M336.07,74.49c.27,0,.49-.51.74-.79l-.26-.3c-2.39.21-4.78.4-7.16.64-.25,0-.46.41-.69.63L329,75C331.35,74.85,333.71,74.71,336.07,74.49Z"/>
    <path class="cls-1" d="M335.75,68.83c.7-.06,1.05-.3.95-1-.05-.37,0-.74-.07-1.22l-42,4v1.81l.65,0,19.43-1.69Q325.25,69.75,335.75,68.83Z"/>
    <path class="cls-1" d="M336.63,71.24l-18.27,1.49v1.55l18.34-1.52C336.67,72.17,336.65,71.77,336.63,71.24Z"/>
    <path class="cls-1" d="M334.5,151.82l73-6.19v-7L218.11,153v9.47l59.33-5.8V152.7c2.23-.18,4.34-.35,6.44-.54,11.95-1,23.9-2,35.84-3.12a30.07,30.07,0,0,1,8.68.39c2,.39,3.94.61,6,.91C334.4,150.78,334.44,151.25,334.5,151.82Z"/>
    <path class="cls-1" d="M389.24,66.62,388,66.45v3.94h1.26Z"/>
    <path class="cls-1" d="M291.32,160.6c-5.08-.71-10.16-1.47-15.24-2.21-1.52-.22-3-.4-4.63-.6v4l20.9,3.06c0-1.1-.05-2.08,0-3.05C292.42,161,292.12,160.71,291.32,160.6Z"/>
    <path class="cls-1" d="M278.68,157c2.85.34,5.69.74,8.54,1.1,1.4.18,2.81.34,4.34.52,0-1.09-.05-2,0-3s-.25-1.11-1.07-1.17c-2.22-.16-4.43-.42-6.65-.63l-6-.55c0,1.06,0,1.93,0,2.79C277.8,156.72,278.08,156.92,278.68,157Z"/>
    <path class="cls-1" d="M291.38,165.14c-4.49-.62-9-1.31-13.45-2-3.92-.57-7.82-1.47-12-.31l26.55,3.79C292.65,165.64,292.28,165.26,291.38,165.14Z"/>
    <path class="cls-1" d="M278.5,157.42a22.43,22.43,0,0,0-3.47.1l0,.31,16.74,2.42.21-.4c-.38-.28-.74-.77-1.16-.83C286.74,158.44,282.62,157.88,278.5,157.42Z"/>
    <path class="cls-1" d="M378.21,65.78V67l4.28-.83Z"/>
    <path class="cls-1" d="M403.31,138.2l-16-.64v2l16.05-1.23Z"/>
    <path class="cls-1" d="M372.21,136.71V72.41l-6.72.56v63.74Z"/>
    <path class="cls-1" d="M377.71,69c0-.92,0-1.86,0-2.8,0-.78-.3-1-1.12-.82,0,1,0,2,0,3C376.63,69.19,376.65,69.19,377.71,69Z"/>
    <path class="cls-1" d="M372.24,70.1l-6.77.38v2l6.77-.57Z"/>
    <path class="cls-1" d="M349.09,72.4l-8,.53v1.43l8-.57Z"/>
    <path class="cls-1" d="M382.88,69a4.18,4.18,0,0,1-.7.16c-1.5.14-2.93-.52-4.57.25-1.05.5-1,.89-1,1.84l10.57-.6V66.52L380,67v.19l2.86.32c0,.17,0,.33-.05.49l-4.62-.28-.05.52,4.72.5C382.87,68.82,382.88,68.93,382.88,69Z"/>
    <path class="cls-1" d="M383.44,137.33v-66l-6.77.39v65.6Z"/>
    <path class="cls-1" d="M341.13,70.44V72.5l7.94-.54V69.85Z"/>
    <path class="cls-1" d="M349.07,136.1V74.23l-7.91.56V136.1Z"/>
    <path class="cls-1" d="M349,67.83l-8,.8c0,.53.05.91.07,1.36,2.34-.16,4.55-.32,6.77-.46C349.3,69.44,349.3,69.44,349,67.83Z"/>
    <path class="cls-1" d="M353.54,136.09h8v-65l-8,.63c0,.55.06.94.08,1.36l7.28-.51c0,.13,0,.26,0,.39-2,.15-4,.36-6,.43-1.09,0-1.44.37-1.44,1.53q.06,29.86,0,59.72Z"/>
    <path class="cls-1" d="M362.33,69.13v72.34l2.37-.19V68.89Z"/>
    <path class="cls-1" d="M361.61,69.17l-8,.67v1.44l8-.62Z"/>
    <path class="cls-1" d="M194.35,72.61l-3-.17v65.73l3-.18Z"/>
    <path class="cls-1" d="M190.59,72.36l-15-1.06v67.64l15-.74Z"/>
    <path class="cls-1" d="M211.19,73.87H210v63.31h1.15Z"/>
    <path class="cls-1" d="M227.74,72.11l-72.3-5.28V143l72.3-3.71Zm-1.89,65-69.74,3.44V69.33l69.74,4.92Z"/>
    <path class="cls-1" d="M175.08,137.43V72.85c0-1.78-.13-1.88-2-1.57v67.77l2-.09Z"/>
    <path class="cls-1" d="M172.52,71.08,156.73,70v69.91l15.79-.78Z"/>
    <path class="cls-1" d="M209.34,73.68l-14.25-1V138l14.25-.7Z"/>
    <path class="cls-1" d="M225.24,74.8,212,73.86v63.29l13.29-.66Z"/>
    <path class="cls-1" d="M10.87,125.39v-36c-1.07-.14-1.41.26-1.4,1.31q0,16.72,0,33.46C9.49,125.47,9.49,125.47,10.87,125.39Z"/>
    <path class="cls-1" d="M11.38,123.83c0,1.91,0,1.91,2,2.17V88.79l-2,.38v34.66Z"/>
    <path class="cls-1" d="M131.12,165.12q-31.5-6.66-63-13.38L8.72,139.09.6,137.39a13.27,13.27,0,0,1,0,1.91c-.2,1.28.39,1.71,1.58,2q62,15.93,123.9,31.94c2,.51,3.93,1,6,1.52,0-.48.08-.81.08-1.13,0-2.43,0-4.85,0-7.27C132.17,165.58,131.9,165.28,131.12,165.12Z"/>
    <path class="cls-1" d="M132.66,174.82,197.78,168v-8.25l-65.12,5.63Z"/>
    <path class="cls-1" d="M265.21,162.36c1.8-.12,3.59-.37,5.41-.57v-4.18L218.1,162.9v8.51l7.28-.77,35.75-3.71c2.84-.3,2.87-.32,2.83-3.17C263.94,162.8,264.22,162.43,265.21,162.36Z"/>
    <path class="cls-1" d="M330,160.93l-23.77,2.85-13.31,1.6c-.08,1,.35,1.25,1.17,1.13,1.79-.25,3.6-.45,5.4-.67L323.17,163l23.76-2.85,8.15-1v-.31c-2.57,0-5.16-.2-7.7,0C341.57,159.47,335.8,160.24,330,160.93Z"/>
    <path class="cls-1" d="M293.29,171l25-3,23.31-2.83c5.7-.7,11.41-1.37,17.11-2.09.3,0,.78-.41.8-.66.09-1,0-2,0-3.16l-66.22,7.93Z"/>
    <path class="cls-1" d="M293.42,160.36c5-.57,9.92-1.1,14.88-1.64l24.22-2.65,9-1v-.17a2.6,2.6,0,0,0-.62-.11c-3.24,0-6.51-.1-9.73.21-12.07,1.19-24.13,2.53-36.19,3.81-.95.1-1.9.24-2.86.37C292.27,160.05,292.55,160.47,293.42,160.36Z"/>
    <path class="cls-1" d="M329,160.63c5.75-.69,11.49-1.37,17.24-2.08.28,0,.74-.35.76-.56.08-1,0-2,0-3.08l-54.19,5.91V165l12.5-1.49Z"/>
    <path class="cls-1" d="M334.53,152.24v2.15h12.92v3l3.74-.36L372,154.84l23.13-2.39c3.87-.4,7.75-.78,11.62-1.2.28,0,.76-.28.77-.45.06-1.56,0-3.13,0-4.74Z"/>
    <path class="cls-1" d="M93.13,135.84a7,7,0,0,0,.66.78l.23-.21V75.49c-1.12-.24-.9.54-.9,1.09q0,29.42,0,58.82C93.12,135.55,93.06,135.74,93.13,135.84Z"/>
    <path class="cls-1" d="M216.58,152.85c-4.53-.55-9.06-1.15-13.59-1.72-1.47-.19-3-.34-4.53-.51,0,2.85,0,5.5,0,8.13,0,.25.55.64.89.71,3.49.62,7,1.2,10.49,1.79l7.72,1.26c0-2.94,0-5.77,0-8.59C217.63,153.11,217.32,152.93,216.58,152.85Z"/>
    <path class="cls-1" d="M198.49,167.41c0,.25.44.65.73.71,2.67.53,5.34,1,8,1.49l10.29,1.85V163l-19.07-3.19C198.46,162.43,198.44,164.92,198.49,167.41Z"/>
    <path class="cls-1" d="M264.66,167.21l28,3.92v-3.85l-28-4Z"/>
    <path class="cls-1" d="M220.16,152.23c7.39-.62,14.79-1.13,22.18-1.69L265,148.82l22.53-1.68,22.63-1.73q11.25-.85,22.52-1.68c1.34-.1,2.67-.23,4-.35v-6.56c-.74,0-1.34,0-1.94,0l-27.32,1.31-25.74,1.27c-3.32.16-6.65.49-10,.44-5.69-.09-11.38-.4-17.07-.64-2-.09-4-.25-6-.32-1.69,0-3.38,0-5.22,0V140c0,2.24,0,4.47,0,6.7,0,.65-.16,1-.88,1-1,0-2.11.14-3.17.21l-31,2.13c-1.72.12-3.44.27-5.16.4a38.55,38.55,0,0,0,5.06.8C212.2,151.55,216.11,152.56,220.16,152.23Z"/>
    <path class="cls-1" d="M13.91,125.83c.07.19.31.32.65.63V88.65l-.39-.08a5.18,5.18,0,0,0-.28,1.21q0,17.63,0,35.26A2.29,2.29,0,0,0,13.91,125.83Z"/>
    <path class="cls-1" d="M100.93,51.78l-.07-.25L95.35,53l.06.25Z"/>
    <path class="cls-1" d="M100.39,71.26,69.52,76.8v59l30.87,4ZM99.72,138l-27.88-3.63V78.85l27.88-5.2Z"/>
    <path class="cls-1" d="M110.2,49.28a30.1,30.1,0,0,0-4.62,1c-.31.08-.61.2-.91.31l.06.2Z"/>
    <path class="cls-1" d="M77.48,133.24c0,.19-.06.41,0,.56a8,8,0,0,0,.62.82l.31-.22v-56c-1.29-.15-.93.73-.93,1.27Q77.47,106.47,77.48,133.24Z"/>
    <path class="cls-1" d="M72.38,132.51v1.32l4.61.61V78.54c-1.14.2-2.2.45-3.27.55s-1.37.58-1.37,1.66Q72.41,106.63,72.38,132.51Z"/>
    <path class="cls-1" d="M85,133.29c0,.19-.06.41,0,.56a7.86,7.86,0,0,0,.62.89l.3-.21V77c-1.24-.12-.93.72-.93,1.29Q85,105.78,85,133.29Z"/>
    <path class="cls-1" d="M79,134.7l13.65,1.79V75.61c-1.63.3-3.17.71-4.74.84-1.33.12-1.52.72-1.52,1.9q.06,27.65,0,55.29v1.55l-1.88-.3V77.12c-1.59.29-3,.62-4.49.8-.92.11-1.14.51-1.14,1.39q0,27.07,0,54.16C78.91,133.87,79,134.26,79,134.7Z"/>
    <path class="cls-1" d="M15.14,90V124.8c0,1.79,0,1.79,1.93,1.84V88.22C15.16,88.17,15.14,88.19,15.14,90Z"/>
    <path class="cls-1" d="M35.77,144.42,42,145.74V133.19l-6.27-1.05Z"/>
    <path class="cls-1" d="M38.9,129.69l3.14.55V84.58l-3.14.55Z"/>
    <path class="cls-1" d="M19.48,85.7c-3.81.72-7.56,1.48-11.32,2.12C7.2,88,7,88.34,7,89.27,7,99,7,108.72,7,118.45c0,2.61,0,5.22,0,7.83,0,.85.24,1.2,1.09,1.31,1.28.16,2.53.47,3.79.7l7.73,1.44v-2c-3.18-.62-6.29-1.27-9.41-1.8-.94-.16-1.12-.54-1.12-1.4q0-17.09,0-34.17c0-.38,0-.75,0-1.17,3.21-.62,6.35-1.29,9.51-1.82C19.83,87.14,19.77,86.58,19.48,85.7Z"/>
    <path class="cls-1" d="M18.88,88.85q0,18.56,0,37.12a2.31,2.31,0,0,0,0,.79c.07.19.32.33.68.68V87.79l-.44-.17A6,6,0,0,0,18.88,88.85Z"/>
    <path class="cls-1" d="M17.68,126.53c.06.2.33.33.68.65V88l-.45-.15a7.24,7.24,0,0,0-.27,1.34q0,18.22,0,36.43A2.69,2.69,0,0,0,17.68,126.53Z"/>
    <path class="cls-1" d="M41.94,82.08c-1.63.28-3.26.64-4.9.81-1,.11-1.35.49-1.35,1.55q.06,23,0,45.95a4.15,4.15,0,0,0,0,.79c.05.2.17.51.31.53,2,.37,4,.69,6,1v-2a17.89,17.89,0,0,0-2.43-.44c-1,0-1.21-.46-1.21-1.41q0-21.45,0-42.9V84.82l2.21-.44C42.3,84.06,42.36,84,41.94,82.08Z"/>
    <path class="cls-2" d="M228.41,138.43V71.57L154.88,66.2v77.29c1,0,2,0,2.89,0,5.33-.26,10.65-.55,16-.82l23.92-1.22q14.64-.75,29.26-1.5C228.4,139.86,228.41,139.89,228.41,138.43Zm-73,4.57V66.83l72.3,5.28v67.18Z"/>
    <path class="cls-2" d="M282.46,133.31l47.93-2.55V84.13L282.46,80.9Zm.59-51.77,46.7,3.14V130.2l-46.7,2.48Z"/>
    <path class="cls-2" d="M71.84,134.38,99.72,138V73.65l-27.88,5.2ZM94.58,75.24l4.6-.84v62.92l-4.6-.57Zm-.56.25v60.92l-.23.21a7,7,0,0,1-.66-.78c-.07-.1,0-.29,0-.44q0-29.41,0-58.82C93.12,76,92.9,75.25,94,75.49ZM85.91,77v57.57l-.3.21a7.86,7.86,0,0,1-.62-.89c-.08-.15,0-.37,0-.56q0-27.52,0-55C85,77.68,84.67,76.84,85.91,77Zm-5.89,1c1.46-.18,2.9-.51,4.49-.8v57.77l1.88.3v-1.55q0-27.64,0-55.29c0-1.18.19-1.78,1.52-1.9,1.57-.13,3.11-.54,4.74-.84v60.88L79,134.7c0-.44-.06-.83-.06-1.23q0-27.07,0-54.16C78.88,78.43,79.1,78,80,77.92Zm-1.59.5v56l-.31.22a8,8,0,0,1-.62-.82c-.08-.15,0-.37,0-.56q0-26.78,0-53.55C77.5,79.15,77.14,78.27,78.43,78.42Zm-4.71.67c1.07-.1,2.13-.35,3.27-.55v55.9l-4.61-.61v-1.32q0-25.89,0-51.76C72.35,79.67,72.62,79.18,73.72,79.09Z"/>
    <path class="cls-2" d="M156.11,140.5l69.74-3.44V74.25l-69.74-4.92ZM212,73.86l13.29.94v61.69l-13.29.66Zm-1.91,0h1.15v63.31H210Zm-14.95-1.19,14.25,1v63.6l-14.25.7Zm-3.77-.24,3,.17V138l-3,.18ZM175.6,71.3l15,1.06V138.2l-15,.74Zm-2.48,0c1.83-.31,2-.21,2,1.57V139l-2,.09ZM156.73,70l15.79,1.12v68l-15.79.78Z"/>
    <path class="cls-2" d="M328.3,85.71l-43.9-2.93v48c.24,0,.39,0,.54,0q21.3-1.12,42.61-2.22c.87,0,1.05-.37,1-1.17q-.18-13.58-.28-27.13C328.27,95.46,328.3,90.66,328.3,85.71Zm-34.69,44-8.67.47V83.41l8.67.58Zm1.26-44.45q0,21.6,0,43.21a7.19,7.19,0,0,1-.22,1.27l-.52-.15V85.27a3.07,3.07,0,0,1,0-.68,2.38,2.38,0,0,1,.29-.51c.15.17.36.31.43.5A1.92,1.92,0,0,1,294.87,85.26Zm9.91,43.88-9.36.47V84.11l9.36.63Zm2-.94c0,.23,0,.45-.06.78l-1.29.1V84.87c.87-.19,1.37-.1,1.36,1Q306.74,107,306.76,128.2Zm1.22,0a5.16,5.16,0,0,1-.39.78c-.12-.28-.25-.55-.35-.83a1.29,1.29,0,0,1,0-.34V86.07a2.13,2.13,0,0,1,0-.67c.06-.17.25-.29.38-.43.12.16.3.3.34.48a3.45,3.45,0,0,1,0,.79v41.28A2.2,2.2,0,0,1,308,128.2Zm8.79-1.11c0,1.22-.38,1.52-1.52,1.53-2.22,0-4.44.18-6.73.29V85c2.57.17,5,.3,7.47.51.27,0,.54.44.72.73s0,.44,0,.67C316.74,100.3,316.72,113.69,316.77,127.09ZM318,107v20.08a3.86,3.86,0,0,1,0,.9c0,.16-.25.28-.39.42-.11-.12-.29-.23-.32-.37a3.49,3.49,0,0,1,0-.79V86.85a2.13,2.13,0,0,1,0-.67,2.22,2.22,0,0,1,.4-.54c.11.16.29.31.33.49a3.47,3.47,0,0,1,0,.79Zm.53,21.42V85.65l9.05.61c.14,13.88.27,27.67.41,41.63Z"/>
    <path class="cls-1" d="M368,65.41l2.78-.27C368.89,64.48,368,64.6,368,65.41Z"/>
    <path class="cls-1" d="M383.44,137.33v-66l-6.77.39v65.6Z"/>
    <path class="cls-1" d="M362.33,69.13v72.34l2.37-.19V68.89Z"/>
    <path class="cls-1" d="M372.9,70v65.55c0,1.28,0,2.57,0,3.85a2.4,2.4,0,0,1-.24.76l-.34-.07v-2.7h-6.79v3.82l21-1.59V71.14l-2.53.23v68.09l-.33,0c-.08-.42-.16-.83-.27-1.43h-6.72c-.06.68-.12,1.38-.18,2.08l-.41,0V70Z"/>
    <path class="cls-1" d="M372.21,136.71V72.41l-6.72.56v63.74Z"/>
    <path class="cls-1" d="M378.21,65.78V67l4.28-.83Z"/>
    <path class="cls-1" d="M372.24,70.1l-6.77.38v2l6.77-.57Z"/>
    <path class="cls-1" d="M403.31,138.2l-16-.64v2l16.05-1.23Z"/>
    <path class="cls-1" d="M382.88,69a4.18,4.18,0,0,1-.7.16c-1.5.14-2.93-.52-4.57.25-1.05.5-1,.89-1,1.84l10.57-.6V66.52L380,67v.19l2.86.32c0,.17,0,.33-.05.49l-4.62-.28-.05.52,4.72.5C382.87,68.82,382.88,68.93,382.88,69Z"/>
    <path class="cls-1" d="M349.33,62.1l-5.43-.54V63l5.45-.74Z"/>
    <path class="cls-1" d="M343.17,60.92l-2.37-.3v4.89h2.37Z"/>
    <path class="cls-1" d="M367.38,64.13l-1.93-.26V68.5h1.93Z"/>
    <path class="cls-1" d="M340.08,60.61l-57.93,6.28v4.28l57.93-5.53Z"/>
    <path class="cls-1" d="M347,65.46a4.89,4.89,0,0,1,2.72.51l-12.33.37v77l3.17-.29V66.59l.36,0,.3,1.44,11.46-1.14V62.47l-6.27.86,0,.2,3.36.29-.06.48L343.85,64c0,.5,0,.85.08,1.25C345,65.35,346,65.39,347,65.46Z"/>
    <path class="cls-1" d="M355.78,62.66l-2.56-.18v4.36h2.56Z"/>
    <path class="cls-1" d="M356.79,64.69,361,65c0,.18,0,.36,0,.53l-4.62-.24V66.5l4.64.42a2.64,2.64,0,0,1,0,.29l-11.29.36V142h-.43v-5.18h-8.09v6.27l20.4-1.55v-4.74h-8.13V142l-.34,0V67.8l.32,0c.08.52.16,1,.26,1.64l11.06-1V63.82l-8,.69Z"/>
    <path class="cls-1" d="M375.62,69.46v-4.1l-4.83.44,0,.23,2.64.35c0,.16,0,.31,0,.47L368,66.5v1.21l4.87.49c0,.16,0,.31-.05.47q-1.94-.15-3.87-.27c-.3,0-.8-.08-.86,0-.42.87-1.17.53-1.78.51s-1.08.18-.76,1.09Z"/>
    <path class="cls-1" d="M362.34,63.42l-6-.63V64.1l6-.51Z"/>
    <path class="cls-1" d="M377.71,69c0-.92,0-1.86,0-2.8,0-.78-.3-1-1.12-.82,0,1,0,2,0,3C376.63,69.19,376.65,69.19,377.71,69Z"/>
    <path class="cls-1" d="M334,151l-9.53.8-22.84,2c-2.91.24-5.81.47-8.71.76-.31,0-.84.36-.86.58-.09,1.15,0,2.31,0,3.58l42-4.46Z"/>
    <path class="cls-1" d="M297.47,153.8c11.28-1.14,22.59-2,33.89-3,.29,0,.58-.1.86-.15a3.3,3.3,0,0,0-1.36-.43,73.58,73.58,0,0,0-8.19-.93c-3,0-6,.44-8.93.69l-23.05,2-10.5.92v.16c.56.06,1.12.14,1.68.19C287.07,153.72,292.21,154.33,297.47,153.8Z"/>
    <path class="cls-1" d="M334.5,151.82l73-6.19v-7L218.11,153v9.47l59.33-5.8V152.7c2.23-.18,4.34-.35,6.44-.54,11.95-1,23.9-2,35.84-3.12a30.07,30.07,0,0,1,8.68.39c2,.39,3.94.61,6,.91C334.4,150.78,334.44,151.25,334.5,151.82Z"/>
    <path class="cls-1" d="M278.68,157c2.85.34,5.69.74,8.54,1.1,1.4.18,2.81.34,4.34.52,0-1.09-.05-2,0-3s-.25-1.11-1.07-1.17c-2.22-.16-4.43-.42-6.65-.63l-6-.55c0,1.06,0,1.93,0,2.79C277.8,156.72,278.08,156.92,278.68,157Z"/>
    <path class="cls-1" d="M336.61,70.64v-1.3l-1.09.08-9,.79-18.64,1.62c-.72.06-.93.37-.68,1.21Z"/>
    <path class="cls-1" d="M278.5,157.42a22.43,22.43,0,0,0-3.47.1l0,.31,16.74,2.42.21-.4c-.38-.28-.74-.77-1.16-.83C286.74,158.44,282.62,157.88,278.5,157.42Z"/>
    <path class="cls-1" d="M389.24,66.62,388,66.45v3.94h1.26Z"/>
    <path class="cls-1" d="M361.61,69.17l-8,.67v1.44l8-.62Z"/>
    <path class="cls-1" d="M291.38,165.14c-4.49-.62-9-1.31-13.45-2-3.92-.57-7.82-1.47-12-.31l26.55,3.79C292.65,165.64,292.28,165.26,291.38,165.14Z"/>
    <path class="cls-1" d="M291.32,160.6c-5.08-.71-10.16-1.47-15.24-2.21-1.52-.22-3-.4-4.63-.6v4l20.9,3.06c0-1.1-.05-2.08,0-3.05C292.42,161,292.12,160.71,291.32,160.6Z"/>
    <path class="cls-1" d="M349.07,136.1V74.23l-7.91.56V136.1Z"/>
    <path class="cls-1" d="M349,67.83l-8,.8c0,.53.05.91.07,1.36,2.34-.16,4.55-.32,6.77-.46C349.3,69.44,349.3,69.44,349,67.83Z"/>
    <path class="cls-1" d="M341.13,70.44V72.5l7.94-.54V69.85Z"/>
    <path class="cls-1" d="M353.54,136.09h8v-65l-8,.63c0,.55.06.94.08,1.36l7.28-.51c0,.13,0,.26,0,.39-2,.15-4,.36-6,.43-1.09,0-1.44.37-1.44,1.53q.06,29.86,0,59.72Z"/>
    <path class="cls-1" d="M349.09,72.4l-8,.53v1.43l8-.57Z"/>
    <path class="cls-1" d="M336.63,71.24l-18.27,1.49v1.55l18.34-1.52C336.67,72.17,336.65,71.77,336.63,71.24Z"/>
    <path class="cls-1" d="M336.07,74.49c.27,0,.49-.51.74-.79l-.26-.3c-2.39.21-4.78.4-7.16.64-.25,0-.46.41-.69.63L329,75C331.35,74.85,333.71,74.71,336.07,74.49Z"/>
    <path class="cls-1" d="M335.75,68.83c.7-.06,1.05-.3.95-1-.05-.37,0-.74-.07-1.22l-42,4v1.81l.65,0,19.43-1.69Q325.25,69.75,335.75,68.83Z"/>
    <path class="cls-1" d="M264.66,167.21l28,3.92v-3.85l-28-4Z"/>
    <path class="cls-1" d="M131.12,165.12q-31.5-6.66-63-13.38L8.72,139.09.6,137.39a13.27,13.27,0,0,1,0,1.91c-.2,1.28.39,1.71,1.58,2q62,15.93,123.9,31.94c2,.51,3.93,1,6,1.52,0-.48.08-.81.08-1.13,0-2.43,0-4.85,0-7.27C132.17,165.58,131.9,165.28,131.12,165.12Z"/>
    <path class="cls-1" d="M132.66,174.82,197.78,168v-8.25l-65.12,5.63Z"/>
    <path class="cls-1" d="M216.58,152.85c-4.53-.55-9.06-1.15-13.59-1.72-1.47-.19-3-.34-4.53-.51,0,2.85,0,5.5,0,8.13,0,.25.55.64.89.71,3.49.62,7,1.2,10.49,1.79l7.72,1.26c0-2.94,0-5.77,0-8.59C217.63,153.11,217.32,152.93,216.58,152.85Z"/>
    <path class="cls-1" d="M198.49,167.41c0,.25.44.65.73.71,2.67.53,5.34,1,8,1.49l10.29,1.85V163l-19.07-3.19C198.46,162.43,198.44,164.92,198.49,167.41Z"/>
    <path class="cls-1" d="M13.91,125.83c.07.19.31.32.65.63V88.65l-.39-.08a5.18,5.18,0,0,0-.28,1.21q0,17.63,0,35.26A2.29,2.29,0,0,0,13.91,125.83Z"/>
    <path class="cls-1" d="M11.38,123.83c0,1.91,0,1.91,2,2.17V88.79l-2,.38v34.66Z"/>
    <path class="cls-1" d="M10.87,125.39v-36c-1.07-.14-1.41.26-1.4,1.31q0,16.72,0,33.46C9.49,125.47,9.49,125.47,10.87,125.39Z"/>
    <path class="cls-1" d="M293.42,160.36c5-.57,9.92-1.1,14.88-1.64l24.22-2.65,9-1v-.17a2.6,2.6,0,0,0-.62-.11c-3.24,0-6.51-.1-9.73.21-12.07,1.19-24.13,2.53-36.19,3.81-.95.1-1.9.24-2.86.37C292.27,160.05,292.55,160.47,293.42,160.36Z"/>
    <path class="cls-1" d="M220.16,152.23c7.39-.62,14.79-1.13,22.18-1.69L265,148.82l22.53-1.68,22.63-1.73q11.25-.85,22.52-1.68c1.34-.1,2.67-.23,4-.35v-6.56c-.74,0-1.34,0-1.94,0l-27.32,1.31-25.74,1.27c-3.32.16-6.65.49-10,.44-5.69-.09-11.38-.4-17.07-.64-2-.09-4-.25-6-.32-1.69,0-3.38,0-5.22,0V140c0,2.24,0,4.47,0,6.7,0,.65-.16,1-.88,1-1,0-2.11.14-3.17.21l-31,2.13c-1.72.12-3.44.27-5.16.4a38.55,38.55,0,0,0,5.06.8C212.2,151.55,216.11,152.56,220.16,152.23Z"/>
    <path class="cls-1" d="M330,160.93l-23.77,2.85-13.31,1.6c-.08,1,.35,1.25,1.17,1.13,1.79-.25,3.6-.45,5.4-.67L323.17,163l23.76-2.85,8.15-1v-.31c-2.57,0-5.16-.2-7.7,0C341.57,159.47,335.8,160.24,330,160.93Z"/>
    <path class="cls-1" d="M293.29,171l25-3,23.31-2.83c5.7-.7,11.41-1.37,17.11-2.09.3,0,.78-.41.8-.66.09-1,0-2,0-3.16l-66.22,7.93Z"/>
    <path class="cls-1" d="M334.53,152.24v2.15h12.92v3l3.74-.36L372,154.84l23.13-2.39c3.87-.4,7.75-.78,11.62-1.2.28,0,.76-.28.77-.45.06-1.56,0-3.13,0-4.74Z"/>
    <path class="cls-1" d="M265.21,162.36c1.8-.12,3.59-.37,5.41-.57v-4.18L218.1,162.9v8.51l7.28-.77,35.75-3.71c2.84-.3,2.87-.32,2.83-3.17C263.94,162.8,264.22,162.43,265.21,162.36Z"/>
    <path class="cls-1" d="M15.14,90V124.8c0,1.79,0,1.79,1.93,1.84V88.22C15.16,88.17,15.14,88.19,15.14,90Z"/>
    <path class="cls-1" d="M329,160.63c5.75-.69,11.49-1.37,17.24-2.08.28,0,.74-.35.76-.56.08-1,0-2,0-3.08l-54.19,5.91V165l12.5-1.49Z"/>
    <path class="cls-1" d="M110.2,49.28a30.1,30.1,0,0,0-4.62,1c-.31.08-.61.2-.91.31l.06.2Z"/>
    <path class="cls-1" d="M100.93,51.78l-.07-.25L95.35,53l.06.25Z"/>
    <path class="cls-1" d="M17.68,126.53c.06.2.33.33.68.65V88l-.45-.15a7.24,7.24,0,0,0-.27,1.34q0,18.22,0,36.43A2.69,2.69,0,0,0,17.68,126.53Z"/>
    <path class="cls-1" d="M271.2,67.18l0-.29-6.44.67,0,.23Z"/>
    <path class="cls-1" d="M100.39,71.26,69.52,76.8v59l30.87,4Z"/>
    <path class="cls-1" d="M35.77,144.42,42,145.74V133.19l-6.27-1.05Z"/>
    <path class="cls-1" d="M18.88,88.85q0,18.56,0,37.12a2.31,2.31,0,0,0,0,.79c.07.19.32.33.68.68V87.79l-.44-.17A6,6,0,0,0,18.88,88.85Z"/>
    <path class="cls-1" d="M38.9,129.69l3.14.55V84.58l-3.14.55Z"/>
    <path class="cls-1" d="M19.48,85.7c-3.81.72-7.56,1.48-11.32,2.12C7.2,88,7,88.34,7,89.27,7,99,7,108.72,7,118.45c0,2.61,0,5.22,0,7.83,0,.85.24,1.2,1.09,1.31,1.28.16,2.53.47,3.79.7l7.73,1.44v-2c-3.18-.62-6.29-1.27-9.41-1.8-.94-.16-1.12-.54-1.12-1.4q0-17.09,0-34.17c0-.38,0-.75,0-1.17,3.21-.62,6.35-1.29,9.51-1.82C19.83,87.14,19.77,86.58,19.48,85.7Z"/>
    <path class="cls-1" d="M35.72,130.39a4.15,4.15,0,0,0,0,.79c.05.2.17.51.31.53,2,.37,4,.69,6,1v-2a17.89,17.89,0,0,0-2.43-.44c-1,0-1.21-.46-1.21-1.41q0-21.45,0-42.9V84.82l2.21-.44c1.7-.32,1.76-.42,1.34-2.3-1.63.28-3.26.64-4.9.81-1,.11-1.35.49-1.35,1.55Q35.75,107.41,35.72,130.39Z"/>
    <path class="cls-1" d="M86.12,55.76l5.48-1.49L91.53,54l-5.21,1.39-.27.07Z"/>
    <path class="cls-1" d="M86.32,55.42l-.27.07Z"/>
    <path class="cls-1" d="M378.21,65.78V67l4.28-.83Z"/>
    <path class="cls-1" d="M403.31,138.2l-16-.64v2l16.05-1.23Z"/>
    <path class="cls-1" d="M382.88,69a4.18,4.18,0,0,1-.7.16c-1.5.14-2.93-.52-4.57.25-1.05.5-1,.89-1,1.84l10.57-.6V66.52L380,67v.19l2.86.32c0,.17,0,.33-.05.49l-4.62-.28-.05.52,4.72.5C382.87,68.82,382.88,68.93,382.88,69Z"/>
    <path class="cls-1" d="M383.44,137.33v-66l-6.77.39v65.6Z"/>
    <path class="cls-1" d="M372.21,136.71V72.41l-6.72.56v63.74Z"/>
    <path class="cls-1" d="M377.71,69c0-.92,0-1.86,0-2.8,0-.78-.3-1-1.12-.82,0,1,0,2,0,3C376.63,69.19,376.65,69.19,377.71,69Z"/>
    <path class="cls-1" d="M361.61,69.17l-8,.67v1.44l8-.62Z"/>
    <path class="cls-1" d="M372.24,70.1l-6.77.38v2l6.77-.57Z"/>
    <path class="cls-1" d="M362.33,69.13v72.34l2.37-.19V68.89Z"/>
    <path class="cls-1" d="M355.78,62.66l-2.56-.18v4.36h2.56Z"/>
    <path class="cls-1" d="M362.34,63.42l-6-.63V64.1l6-.51Z"/>
    <path class="cls-1" d="M349.33,62.1l-5.43-.54V63l5.45-.74Z"/>
    <path class="cls-1" d="M347,65.46a4.89,4.89,0,0,1,2.72.51l-12.33.37v77l3.17-.29V66.59l.36,0,.3,1.44,11.46-1.14V62.47l-6.27.86,0,.2,3.36.29-.06.48L343.85,64c0,.5,0,.85.08,1.25C345,65.35,346,65.39,347,65.46Z"/>
    <path class="cls-1" d="M375.62,69.46v-4.1l-4.83.44,0,.23,2.64.35c0,.16,0,.31,0,.47L368,66.5v1.21l4.87.49c0,.16,0,.31-.05.47q-1.94-.15-3.87-.27c-.3,0-.8-.08-.86,0-.42.87-1.17.53-1.78.51s-1.08.18-.76,1.09Z"/>
    <path class="cls-1" d="M367.38,64.13l-1.93-.26V68.5h1.93Z"/>
    <path class="cls-1" d="M368,65.41l2.78-.27C368.89,64.48,368,64.6,368,65.41Z"/>
    <path class="cls-1" d="M356.79,64.69,361,65c0,.18,0,.36,0,.53l-4.62-.24V66.5l4.64.42a2.64,2.64,0,0,1,0,.29l-11.29.36V142h-.43v-5.18h-8.09v6.27l20.4-1.55v-4.74h-8.13V142l-.34,0V67.8l.32,0c.08.52.16,1,.26,1.64l11.06-1V63.82l-8,.69Z"/>
    <path class="cls-1" d="M372.9,70v65.55c0,1.28,0,2.57,0,3.85a2.4,2.4,0,0,1-.24.76l-.34-.07v-2.7h-6.79v3.82l21-1.59V71.14l-2.53.23v68.09l-.33,0c-.08-.42-.16-.83-.27-1.43h-6.72c-.06.68-.12,1.38-.18,2.08l-.41,0V70Z"/>
    <path class="cls-1" d="M336.61,70.64v-1.3l-1.09.08-9,.79-18.64,1.62c-.72.06-.93.37-.68,1.21Z"/>
    <path class="cls-1" d="M297.47,153.8c11.28-1.14,22.59-2,33.89-3,.29,0,.58-.1.86-.15a3.3,3.3,0,0,0-1.36-.43,73.58,73.58,0,0,0-8.19-.93c-3,0-6,.44-8.93.69l-23.05,2-10.5.92v.16c.56.06,1.12.14,1.68.19C287.07,153.72,292.21,154.33,297.47,153.8Z"/>
    <path class="cls-1" d="M278.68,157c2.85.34,5.69.74,8.54,1.1,1.4.18,2.81.34,4.34.52,0-1.09-.05-2,0-3s-.25-1.11-1.07-1.17c-2.22-.16-4.43-.42-6.65-.63l-6-.55c0,1.06,0,1.93,0,2.79C277.8,156.72,278.08,156.92,278.68,157Z"/>
    <path class="cls-1" d="M334,151l-9.53.8-22.84,2c-2.91.24-5.81.47-8.71.76-.31,0-.84.36-.86.58-.09,1.15,0,2.31,0,3.58l42-4.46Z"/>
    <path class="cls-1" d="M278.5,157.42a22.43,22.43,0,0,0-3.47.1l0,.31,16.74,2.42.21-.4c-.38-.28-.74-.77-1.16-.83C286.74,158.44,282.62,157.88,278.5,157.42Z"/>
    <path class="cls-1" d="M3.15,78l-1.77.48Z"/>
    <path class="cls-1" d="M291.38,165.14c-4.49-.62-9-1.31-13.45-2-3.92-.57-7.82-1.47-12-.31l26.55,3.79C292.65,165.64,292.28,165.26,291.38,165.14Z"/>
    <path class="cls-1" d="M334.5,151.82l73-6.19v-7L218.11,153v9.47l59.33-5.8V152.7c2.23-.18,4.34-.35,6.44-.54,11.95-1,23.9-2,35.84-3.12a30.07,30.07,0,0,1,8.68.39c2,.39,3.94.61,6,.91C334.4,150.78,334.44,151.25,334.5,151.82Z"/>
    <path class="cls-1" d="M389.24,66.62,388,66.45v3.94h1.26Z"/>
    <path class="cls-1" d="M291.32,160.6c-5.08-.71-10.16-1.47-15.24-2.21-1.52-.22-3-.4-4.63-.6v4l20.9,3.06c0-1.1-.05-2.08,0-3.05C292.42,161,292.12,160.71,291.32,160.6Z"/>
    <path class="cls-1" d="M353.54,136.09h8v-65l-8,.63c0,.55.06.94.08,1.36l7.28-.51c0,.13,0,.26,0,.39-2,.15-4,.36-6,.43-1.09,0-1.44.37-1.44,1.53q.06,29.86,0,59.72Z"/>
    <path class="cls-1" d="M349.07,136.1V74.23l-7.91.56V136.1Z"/>
    <path class="cls-1" d="M349.09,72.4l-8,.53v1.43l8-.57Z"/>
    <path class="cls-1" d="M341.13,70.44V72.5l7.94-.54V69.85Z"/>
    <path class="cls-1" d="M349,67.83l-8,.8c0,.53.05.91.07,1.36,2.34-.16,4.55-.32,6.77-.46C349.3,69.44,349.3,69.44,349,67.83Z"/>
    <path class="cls-1" d="M335.75,68.83c.7-.06,1.05-.3.95-1-.05-.37,0-.74-.07-1.22l-42,4v1.81l.65,0,19.43-1.69Q325.25,69.75,335.75,68.83Z"/>
    <path class="cls-1" d="M343.17,60.92l-2.37-.3v4.89h2.37Z"/>
    <path class="cls-1" d="M336.63,71.24l-18.27,1.49v1.55l18.34-1.52C336.67,72.17,336.65,71.77,336.63,71.24Z"/>
    <path class="cls-1" d="M336.07,74.49c.27,0,.49-.51.74-.79l-.26-.3c-2.39.21-4.78.4-7.16.64-.25,0-.46.41-.69.63L329,75C331.35,74.85,333.71,74.71,336.07,74.49Z"/>
    <path class="cls-1" d="M17.68,126.53c.06.2.33.33.68.65V88l-.45-.15a7.24,7.24,0,0,0-.27,1.34q0,18.22,0,36.43A2.69,2.69,0,0,0,17.68,126.53Z"/>
    <path class="cls-1" d="M131.12,165.12q-31.5-6.66-63-13.38L8.72,139.09.6,137.39a13.27,13.27,0,0,1,0,1.91c-.2,1.28.39,1.71,1.58,2q62,15.93,123.9,31.94c2,.51,3.93,1,6,1.52,0-.48.08-.81.08-1.13,0-2.43,0-4.85,0-7.27C132.17,165.58,131.9,165.28,131.12,165.12Z"/>
    <path class="cls-1" d="M132.66,174.82,197.78,168v-8.25l-65.12,5.63Z"/>
    <path class="cls-1" d="M198.49,167.41c0,.25.44.65.73.71,2.67.53,5.34,1,8,1.49l10.29,1.85V163l-19.07-3.19C198.46,162.43,198.44,164.92,198.49,167.41Z"/>
    <path class="cls-1" d="M10.87,125.39v-36c-1.07-.14-1.41.26-1.4,1.31q0,16.72,0,33.46C9.49,125.47,9.49,125.47,10.87,125.39Z"/>
    <path class="cls-1" d="M13.91,125.83c.07.19.31.32.65.63V88.65l-.39-.08a5.18,5.18,0,0,0-.28,1.21q0,17.63,0,35.26A2.29,2.29,0,0,0,13.91,125.83Z"/>
    <path class="cls-1" d="M216.58,152.85c-4.53-.55-9.06-1.15-13.59-1.72-1.47-.19-3-.34-4.53-.51,0,2.85,0,5.5,0,8.13,0,.25.55.64.89.71,3.49.62,7,1.2,10.49,1.79l7.72,1.26c0-2.94,0-5.77,0-8.59C217.63,153.11,217.32,152.93,216.58,152.85Z"/>
    <path class="cls-1" d="M11.38,123.83c0,1.91,0,1.91,2,2.17V88.79l-2,.38v34.66Z"/>
    <path class="cls-1" d="M293.29,171l25-3,23.31-2.83c5.7-.7,11.41-1.37,17.11-2.09.3,0,.78-.41.8-.66.09-1,0-2,0-3.16l-66.22,7.93Z"/>
    <path class="cls-1" d="M329,160.63c5.75-.69,11.49-1.37,17.24-2.08.28,0,.74-.35.76-.56.08-1,0-2,0-3.08l-54.19,5.91V165l12.5-1.49Z"/>
    <path class="cls-1" d="M220.16,152.23c7.39-.62,14.79-1.13,22.18-1.69L265,148.82l22.53-1.68,22.63-1.73q11.25-.85,22.52-1.68c1.34-.1,2.67-.23,4-.35v-6.56c-.74,0-1.34,0-1.94,0l-27.32,1.31-25.74,1.27c-3.32.16-6.65.49-10,.44-5.69-.09-11.38-.4-17.07-.64-2-.09-4-.25-6-.32-1.69,0-3.38,0-5.22,0V140c0,2.24,0,4.47,0,6.7,0,.65-.16,1-.88,1-1,0-2.11.14-3.17.21l-31,2.13c-1.72.12-3.44.27-5.16.4a38.55,38.55,0,0,0,5.06.8C212.2,151.55,216.11,152.56,220.16,152.23Z"/>
    <path class="cls-1" d="M330,160.93l-23.77,2.85-13.31,1.6c-.08,1,.35,1.25,1.17,1.13,1.79-.25,3.6-.45,5.4-.67L323.17,163l23.76-2.85,8.15-1v-.31c-2.57,0-5.16-.2-7.7,0C341.57,159.47,335.8,160.24,330,160.93Z"/>
    <path class="cls-1" d="M15.14,90V124.8c0,1.79,0,1.79,1.93,1.84V88.22C15.16,88.17,15.14,88.19,15.14,90Z"/>
    <path class="cls-1" d="M265.21,162.36c1.8-.12,3.59-.37,5.41-.57v-4.18L218.1,162.9v8.51l7.28-.77,35.75-3.71c2.84-.3,2.87-.32,2.83-3.17C263.94,162.8,264.22,162.43,265.21,162.36Z"/>
    <path class="cls-1" d="M264.66,167.21l28,3.92v-3.85l-28-4Z"/>
    <path class="cls-1" d="M293.42,160.36c5-.57,9.92-1.1,14.88-1.64l24.22-2.65,9-1v-.17a2.6,2.6,0,0,0-.62-.11c-3.24,0-6.51-.1-9.73.21-12.07,1.19-24.13,2.53-36.19,3.81-.95.1-1.9.24-2.86.37C292.27,160.05,292.55,160.47,293.42,160.36Z"/>
    <path class="cls-1" d="M340.08,60.61l-57.93,6.28v4.28l57.93-5.53Z"/>
    <path class="cls-1" d="M18.88,88.85q0,18.56,0,37.12a2.31,2.31,0,0,0,0,.79c.07.19.32.33.68.68V87.79l-.44-.17A6,6,0,0,0,18.88,88.85Z"/>
    <path class="cls-1" d="M100.39,71.26,69.52,76.8v59l30.87,4Z"/>
    <path class="cls-1" d="M271.2,67.18l0-.29-6.44.67,0,.23Z"/>
    <path class="cls-1" d="M35.77,144.42,42,145.74V133.19l-6.27-1.05Z"/>
    <path class="cls-1" d="M38.9,129.69l3.14.55V84.58l-3.14.55Z"/>
    <path class="cls-1" d="M19.48,85.7c-3.81.72-7.56,1.48-11.32,2.12C7.2,88,7,88.34,7,89.27,7,99,7,108.72,7,118.45c0,2.61,0,5.22,0,7.83,0,.85.24,1.2,1.09,1.31,1.28.16,2.53.47,3.79.7l7.73,1.44v-2c-3.18-.62-6.29-1.27-9.41-1.8-.94-.16-1.12-.54-1.12-1.4q0-17.09,0-34.17c0-.38,0-.75,0-1.17,3.21-.62,6.35-1.29,9.51-1.82C19.83,87.14,19.77,86.58,19.48,85.7Z"/>
    <path class="cls-1" d="M35.72,130.39a4.15,4.15,0,0,0,0,.79c.05.2.17.51.31.53,2,.37,4,.69,6,1v-2a17.89,17.89,0,0,0-2.43-.44c-1,0-1.21-.46-1.21-1.41q0-21.45,0-42.9V84.82l2.21-.44c1.7-.32,1.76-.42,1.34-2.3-1.63.28-3.26.64-4.9.81-1,.11-1.35.49-1.35,1.55Q35.75,107.41,35.72,130.39Z"/>
    <path class="cls-1" d="M334.53,152.24v2.15h12.92v3l3.74-.36L372,154.84l23.13-2.39c3.87-.4,7.75-.78,11.62-1.2.28,0,.76-.28.77-.45.06-1.56,0-3.13,0-4.74Z"/>
    <path class="cls-1" d="M.57,135.73c0,.94.26,1.31,1.19,1.49,3.48.69,6.94,1.46,10.42,2.19L19.57,141V130.18c-4-.75-7.85-1.54-11.75-2.21-1-.17-1.28-.51-1.27-1.51q0-18.78,0-37.57V87.72l13-2.47v-11l-1,.21C13,76,7.42,77.45,1.84,78.92a8.57,8.57,0,0,1-1.44.13,14.25,14.25,0,0,1,.19,1.74Q.61,108.26.57,135.73Z"/>
    <path class="cls-1" d="M21.33,141.37c2.34.41,4.65,1,7,1.48l6.89,1.43V70c-4.77,1.28-9.43,2.56-14.11,3.77-.81.21-1,.57-1,1.33,0,3,0,5.9,0,8.85q0,27.93,0,55.85C20.11,140.74,20.3,141.19,21.33,141.37Z"/>
    <path class="cls-1" d="M35.71,82.69c2-.33,3.84-.65,5.7-.93.67-.1.7-.52.7-1.05,0-2.91,0-5.81,0-8.72V68.16c-2,.54-3.94,1-5.8,1.6a1.23,1.23,0,0,0-.58,1c0,2.68,0,5.36,0,8Z"/>
    <path class="cls-1" d="M43.67,146.12c6.25,1.28,12.49,2.65,18.74,4l6.39,1.33V61.08c-.26,0-.52.06-.76.12q-12.27,3.28-24.53,6.55A1.08,1.08,0,0,0,42.56,69c.08,4.65.15,9.3.15,14q0,30.89-.15,61.76C42.56,145.56,42.74,145.93,43.67,146.12Z"/>
    <path d="M.79,78.45,0,78.64s0,.08,0,.13L1,78.51Z"/>
    <path class="cls-1" d="M382.88,69a4.18,4.18,0,0,1-.7.16c-1.5.14-2.93-.52-4.57.25-1.05.5-1,.89-1,1.84l10.57-.6V66.52L380,67v.19l2.86.32c0,.17,0,.33-.05.49l-4.62-.28-.05.52,4.72.5C382.87,68.82,382.88,68.93,382.88,69Z"/>
    <path class="cls-1" d="M377.71,69c0-.92,0-1.86,0-2.8,0-.78-.3-1-1.12-.82,0,1,0,2,0,3C376.63,69.19,376.65,69.19,377.71,69Z"/>
    <path class="cls-1" d="M368,65.41l2.78-.27C368.89,64.48,368,64.6,368,65.41Z"/>
    <path class="cls-1" d="M372.9,70v65.55c0,1.28,0,2.57,0,3.85a2.4,2.4,0,0,1-.24.76l-.34-.07v-2.7h-6.79v3.82l21-1.59V71.14l-2.53.23v68.09l-.33,0c-.08-.42-.16-.83-.27-1.43h-6.72c-.06.68-.12,1.38-.18,2.08l-.41,0V70Z"/>
    <path class="cls-1" d="M383.44,137.33v-66l-6.77.39v65.6Z"/>
    <path class="cls-1" d="M372.24,70.1l-6.77.38v2l6.77-.57Z"/>
    <path class="cls-1" d="M372.21,136.71V72.41l-6.72.56v63.74Z"/>
    <path class="cls-1" d="M378.21,65.78V67l4.28-.83Z"/>
    <path class="cls-1" d="M340.08,60.61l-57.93,6.28v4.28l57.93-5.53Z"/>
    <path class="cls-1" d="M356.79,64.69,361,65c0,.18,0,.36,0,.53l-4.62-.24V66.5l4.64.42a2.64,2.64,0,0,1,0,.29l-11.29.36V142h-.43v-5.18h-8.09v6.27l20.4-1.55v-4.74h-8.13V142l-.34,0V67.8l.32,0c.08.52.16,1,.26,1.64l11.06-1V63.82l-8,.69Z"/>
    <path class="cls-1" d="M349.33,62.1l-5.43-.54V63l5.45-.74Z"/>
    <path class="cls-1" d="M347,65.46a4.89,4.89,0,0,1,2.72.51l-12.33.37v77l3.17-.29V66.59l.36,0,.3,1.44,11.46-1.14V62.47l-6.27.86,0,.2,3.36.29-.06.48L343.85,64c0,.5,0,.85.08,1.25C345,65.35,346,65.39,347,65.46Z"/>
    <path class="cls-1" d="M343.17,60.92l-2.37-.3v4.89h2.37Z"/>
    <path class="cls-1" d="M362.33,69.13v72.34l2.37-.19V68.89Z"/>
    <path class="cls-1" d="M375.62,69.46v-4.1l-4.83.44,0,.23,2.64.35c0,.16,0,.31,0,.47L368,66.5v1.21l4.87.49c0,.16,0,.31-.05.47q-1.94-.15-3.87-.27c-.3,0-.8-.08-.86,0-.42.87-1.17.53-1.78.51s-1.08.18-.76,1.09Z"/>
    <path class="cls-1" d="M362.34,63.42l-6-.63V64.1l6-.51Z"/>
    <path class="cls-1" d="M367.38,64.13l-1.93-.26V68.5h1.93Z"/>
    <path class="cls-1" d="M403.31,138.2l-16-.64v2l16.05-1.23Z"/>
    <path class="cls-1" d="M297.47,153.8c11.28-1.14,22.59-2,33.89-3,.29,0,.58-.1.86-.15a3.3,3.3,0,0,0-1.36-.43,73.58,73.58,0,0,0-8.19-.93c-3,0-6,.44-8.93.69l-23.05,2-10.5.92v.16c.56.06,1.12.14,1.68.19C287.07,153.72,292.21,154.33,297.47,153.8Z"/>
    <path class="cls-1" d="M336.61,70.64v-1.3l-1.09.08-9,.79-18.64,1.62c-.72.06-.93.37-.68,1.21Z"/>
    <path class="cls-1" d="M334,151l-9.53.8-22.84,2c-2.91.24-5.81.47-8.71.76-.31,0-.84.36-.86.58-.09,1.15,0,2.31,0,3.58l42-4.46Z"/>
    <path class="cls-1" d="M334.5,151.82l73-6.19v-7L218.11,153v9.47l59.33-5.8V152.7c2.23-.18,4.34-.35,6.44-.54,11.95-1,23.9-2,35.84-3.12a30.07,30.07,0,0,1,8.68.39c2,.39,3.94.61,6,.91C334.4,150.78,334.44,151.25,334.5,151.82Z"/>
    <path class="cls-1" d="M278.68,157c2.85.34,5.69.74,8.54,1.1,1.4.18,2.81.34,4.34.52,0-1.09-.05-2,0-3s-.25-1.11-1.07-1.17c-2.22-.16-4.43-.42-6.65-.63l-6-.55c0,1.06,0,1.93,0,2.79C277.8,156.72,278.08,156.92,278.68,157Z"/>
    <path class="cls-1" d="M291.32,160.6c-5.08-.71-10.16-1.47-15.24-2.21-1.52-.22-3-.4-4.63-.6v4l20.9,3.06c0-1.1-.05-2.08,0-3.05C292.42,161,292.12,160.71,291.32,160.6Z"/>
    <path class="cls-1" d="M389.24,66.62,388,66.45v3.94h1.26Z"/>
    <path class="cls-1" d="M291.38,165.14c-4.49-.62-9-1.31-13.45-2-3.92-.57-7.82-1.47-12-.31l26.55,3.79C292.65,165.64,292.28,165.26,291.38,165.14Z"/>
    <path class="cls-1" d="M278.5,157.42a22.43,22.43,0,0,0-3.47.1l0,.31,16.74,2.42.21-.4c-.38-.28-.74-.77-1.16-.83C286.74,158.44,282.62,157.88,278.5,157.42Z"/>
    <path class="cls-1" d="M335.75,68.83c.7-.06,1.05-.3.95-1-.05-.37,0-.74-.07-1.22l-42,4v1.81l.65,0,19.43-1.69Q325.25,69.75,335.75,68.83Z"/>
    <path class="cls-1" d="M349.07,136.1V74.23l-7.91.56V136.1Z"/>
    <path class="cls-1" d="M349,67.83l-8,.8c0,.53.05.91.07,1.36,2.34-.16,4.55-.32,6.77-.46C349.3,69.44,349.3,69.44,349,67.83Z"/>
    <path class="cls-1" d="M341.13,70.44V72.5l7.94-.54V69.85Z"/>
    <path class="cls-1" d="M353.54,136.09h8v-65l-8,.63c0,.55.06.94.08,1.36l7.28-.51c0,.13,0,.26,0,.39-2,.15-4,.36-6,.43-1.09,0-1.44.37-1.44,1.53q.06,29.86,0,59.72Z"/>
    <path class="cls-1" d="M361.61,69.17l-8,.67v1.44l8-.62Z"/>
    <path class="cls-1" d="M336.63,71.24l-18.27,1.49v1.55l18.34-1.52C336.67,72.17,336.65,71.77,336.63,71.24Z"/>
    <path class="cls-1" d="M336.07,74.49c.27,0,.49-.51.74-.79l-.26-.3c-2.39.21-4.78.4-7.16.64-.25,0-.46.41-.69.63L329,75C331.35,74.85,333.71,74.71,336.07,74.49Z"/>
    <path class="cls-1" d="M349.09,72.4l-8,.53v1.43l8-.57Z"/>
    <path class="cls-1" d="M355.78,62.66l-2.56-.18v4.36h2.56Z"/>
    <path class="cls-1" d="M132.66,174.82,197.78,168v-8.25l-65.12,5.63Z"/>
    <path class="cls-1" d="M131.12,165.12q-31.5-6.66-63-13.38L8.72,139.09.6,137.39a13.27,13.27,0,0,1,0,1.91c-.2,1.28.39,1.71,1.58,2q62,15.93,123.9,31.94c2,.51,3.93,1,6,1.52,0-.48.08-.81.08-1.13,0-2.43,0-4.85,0-7.27C132.17,165.58,131.9,165.28,131.12,165.12Z"/>
    <path class="cls-1" d="M198.49,167.41c0,.25.44.65.73.71,2.67.53,5.34,1,8,1.49l10.29,1.85V163l-19.07-3.19C198.46,162.43,198.44,164.92,198.49,167.41Z"/>
    <path class="cls-1" d="M.57,135.73c0,.94.26,1.31,1.19,1.49,3.48.69,6.94,1.46,10.42,2.19L19.57,141V130.18c-4-.75-7.85-1.54-11.75-2.21-1-.17-1.28-.51-1.27-1.51q0-18.78,0-37.57V87.72l13-2.47v-11l-1,.21C13,76,7.42,77.45,1.84,78.92a8.57,8.57,0,0,1-1.44.13,14.25,14.25,0,0,1,.19,1.74Q.61,108.26.57,135.73Z"/>
    <path class="cls-1" d="M13.91,125.83c.07.19.31.32.65.63V88.65l-.39-.08a5.18,5.18,0,0,0-.28,1.21q0,17.63,0,35.26A2.29,2.29,0,0,0,13.91,125.83Z"/>
    <path class="cls-1" d="M15.14,90V124.8c0,1.79,0,1.79,1.93,1.84V88.22C15.16,88.17,15.14,88.19,15.14,90Z"/>
    <path class="cls-1" d="M11.38,123.83c0,1.91,0,1.91,2,2.17V88.79l-2,.38v34.66Z"/>
    <path class="cls-1" d="M10.87,125.39v-36c-1.07-.14-1.41.26-1.4,1.31q0,16.72,0,33.46C9.49,125.47,9.49,125.47,10.87,125.39Z"/>
    <path class="cls-1" d="M216.58,152.85c-4.53-.55-9.06-1.15-13.59-1.72-1.47-.19-3-.34-4.53-.51,0,2.85,0,5.5,0,8.13,0,.25.55.64.89.71,3.49.62,7,1.2,10.49,1.79l7.72,1.26c0-2.94,0-5.77,0-8.59C217.63,153.11,217.32,152.93,216.58,152.85Z"/>
    <path class="cls-1" d="M293.29,171l25-3,23.31-2.83c5.7-.7,11.41-1.37,17.11-2.09.3,0,.78-.41.8-.66.09-1,0-2,0-3.16l-66.22,7.93Z"/>
    <path class="cls-1" d="M329,160.63c5.75-.69,11.49-1.37,17.24-2.08.28,0,.74-.35.76-.56.08-1,0-2,0-3.08l-54.19,5.91V165l12.5-1.49Z"/>
    <path class="cls-1" d="M330,160.93l-23.77,2.85-13.31,1.6c-.08,1,.35,1.25,1.17,1.13,1.79-.25,3.6-.45,5.4-.67L323.17,163l23.76-2.85,8.15-1v-.31c-2.57,0-5.16-.2-7.7,0C341.57,159.47,335.8,160.24,330,160.93Z"/>
    <path class="cls-1" d="M334.53,152.24v2.15h12.92v3l3.74-.36L372,154.84l23.13-2.39c3.87-.4,7.75-.78,11.62-1.2.28,0,.76-.28.77-.45.06-1.56,0-3.13,0-4.74Z"/>
    <path class="cls-1" d="M220.16,152.23c7.39-.62,14.79-1.13,22.18-1.69L265,148.82l22.53-1.68,22.63-1.73q11.25-.85,22.52-1.68c1.34-.1,2.67-.23,4-.35v-6.56c-.74,0-1.34,0-1.94,0l-27.32,1.31-25.74,1.27c-3.32.16-6.65.49-10,.44-5.69-.09-11.38-.4-17.07-.64-2-.09-4-.25-6-.32-1.69,0-3.38,0-5.22,0V140c0,2.24,0,4.47,0,6.7,0,.65-.16,1-.88,1-1,0-2.11.14-3.17.21l-31,2.13c-1.72.12-3.44.27-5.16.4a38.55,38.55,0,0,0,5.06.8C212.2,151.55,216.11,152.56,220.16,152.23Z"/>
    <path class="cls-1" d="M293.42,160.36c5-.57,9.92-1.1,14.88-1.64l24.22-2.65,9-1v-.17a2.6,2.6,0,0,0-.62-.11c-3.24,0-6.51-.1-9.73.21-12.07,1.19-24.13,2.53-36.19,3.81-.95.1-1.9.24-2.86.37C292.27,160.05,292.55,160.47,293.42,160.36Z"/>
    <path class="cls-1" d="M265.21,162.36c1.8-.12,3.59-.37,5.41-.57v-4.18L218.1,162.9v8.51l7.28-.77,35.75-3.71c2.84-.3,2.87-.32,2.83-3.17C263.94,162.8,264.22,162.43,265.21,162.36Z"/>
    <path class="cls-1" d="M264.66,167.21l28,3.92v-3.85l-28-4Z"/>
    <path class="cls-1" d="M100.39,71.26,69.52,76.8v59l30.87,4Z"/>
    <path class="cls-1" d="M17.68,126.53c.06.2.33.33.68.65V88l-.45-.15a7.24,7.24,0,0,0-.27,1.34q0,18.22,0,36.43A2.69,2.69,0,0,0,17.68,126.53Z"/>
    <path class="cls-1" d="M43.67,146.12c6.25,1.28,12.49,2.65,18.74,4l6.39,1.33V61.08c-.26,0-.52.06-.76.12q-12.27,3.28-24.53,6.55A1.08,1.08,0,0,0,42.56,69c.08,4.65.15,9.3.15,14q0,30.89-.15,61.76C42.56,145.56,42.74,145.93,43.67,146.12Z"/>
    <path class="cls-1" d="M35.71,82.69c2-.33,3.84-.65,5.7-.93.67-.1.7-.52.7-1.05,0-2.91,0-5.81,0-8.72V68.16c-2,.54-3.94,1-5.8,1.6a1.23,1.23,0,0,0-.58,1c0,2.68,0,5.36,0,8Z"/>
    <path class="cls-1" d="M271.2,67.18l0-.29-6.44.67,0,.23Z"/>
    <path class="cls-1" d="M21.33,141.37c2.34.41,4.65,1,7,1.48l6.89,1.43V70c-4.77,1.28-9.43,2.56-14.11,3.77-.81.21-1,.57-1,1.33,0,3,0,5.9,0,8.85q0,27.93,0,55.85C20.11,140.74,20.3,141.19,21.33,141.37Z"/>
    <path class="cls-1" d="M38.9,129.69l3.14.55V84.58l-3.14.55Z"/>
    <path class="cls-1" d="M35.77,144.42,42,145.74V133.19l-6.27-1.05Z"/>
    <path class="cls-1" d="M19.48,85.7c-3.81.72-7.56,1.48-11.32,2.12C7.2,88,7,88.34,7,89.27,7,99,7,108.72,7,118.45c0,2.61,0,5.22,0,7.83,0,.85.24,1.2,1.09,1.31,1.28.16,2.53.47,3.79.7l7.73,1.44v-2c-3.18-.62-6.29-1.27-9.41-1.8-.94-.16-1.12-.54-1.12-1.4q0-17.09,0-34.17c0-.38,0-.75,0-1.17,3.21-.62,6.35-1.29,9.51-1.82C19.83,87.14,19.77,86.58,19.48,85.7Z"/>
    <path class="cls-1" d="M18.88,88.85q0,18.56,0,37.12a2.31,2.31,0,0,0,0,.79c.07.19.32.33.68.68V87.79l-.44-.17A6,6,0,0,0,18.88,88.85Z"/>
    <path class="cls-1" d="M35.72,130.39a4.15,4.15,0,0,0,0,.79c.05.2.17.51.31.53,2,.37,4,.69,6,1v-2a17.89,17.89,0,0,0-2.43-.44c-1,0-1.21-.46-1.21-1.41q0-21.45,0-42.9V84.82l2.21-.44c1.7-.32,1.76-.42,1.34-2.3-1.63.28-3.26.64-4.9.81-1,.11-1.35.49-1.35,1.55Q35.75,107.41,35.72,130.39Z"/>
    <path class="cls-1" d="M69.43,150.8c0,.82.47.87,1.06,1l54.1,11.52,7.44,1.55V44.13a4.28,4.28,0,0,0-.44.06Q101,52.38,70.39,60.56c-.81.22-1,.59-1,1.33,0,4.39,0,8.79,0,13.18,0,.33,0,.66.07,1.11L101,70.55v70l-31.46-4.08a3.15,3.15,0,0,0-.11.51C69.45,141.57,69.46,146.19,69.43,150.8Z"/>
    <path class="cls-1" d="M334.5,151.82l73-6.19v-7L218.11,153v9.47l59.33-5.8V152.7c2.23-.18,4.34-.35,6.44-.54,11.95-1,23.9-2,35.84-3.12a30.07,30.07,0,0,1,8.68.39c2,.39,3.94.61,6,.91C334.4,150.78,334.44,151.25,334.5,151.82Z"/>
    <path class="cls-1" d="M334,151l-9.53.8-22.84,2c-2.91.24-5.81.47-8.71.76-.31,0-.84.36-.86.58-.09,1.15,0,2.31,0,3.58l42-4.46Z"/>
    <path class="cls-1" d="M335.75,68.83c.7-.06,1.05-.3.95-1-.05-.37,0-.74-.07-1.22l-42,4v1.81l.65,0,19.43-1.69Q325.25,69.75,335.75,68.83Z"/>
    <path class="cls-1" d="M372.24,70.1l-6.77.38v2l6.77-.57Z"/>
    <path class="cls-1" d="M297.47,153.8c11.28-1.14,22.59-2,33.89-3,.29,0,.58-.1.86-.15a3.3,3.3,0,0,0-1.36-.43,73.58,73.58,0,0,0-8.19-.93c-3,0-6,.44-8.93.69l-23.05,2-10.5.92v.16c.56.06,1.12.14,1.68.19C287.07,153.72,292.21,154.33,297.47,153.8Z"/>
    <path class="cls-1" d="M291.38,165.14c-4.49-.62-9-1.31-13.45-2-3.92-.57-7.82-1.47-12-.31l26.55,3.79C292.65,165.64,292.28,165.26,291.38,165.14Z"/>
    <path class="cls-1" d="M278.5,157.42a22.43,22.43,0,0,0-3.47.1l0,.31,16.74,2.42.21-.4c-.38-.28-.74-.77-1.16-.83C286.74,158.44,282.62,157.88,278.5,157.42Z"/>
    <path class="cls-1" d="M278.68,157c2.85.34,5.69.74,8.54,1.1,1.4.18,2.81.34,4.34.52,0-1.09-.05-2,0-3s-.25-1.11-1.07-1.17c-2.22-.16-4.43-.42-6.65-.63l-6-.55c0,1.06,0,1.93,0,2.79C277.8,156.72,278.08,156.92,278.68,157Z"/>
    <path class="cls-1" d="M361.61,69.17l-8,.67v1.44l8-.62Z"/>
    <path class="cls-1" d="M349,67.83l-8,.8c0,.53.05.91.07,1.36,2.34-.16,4.55-.32,6.77-.46C349.3,69.44,349.3,69.44,349,67.83Z"/>
    <path class="cls-1" d="M336.63,71.24l-18.27,1.49v1.55l18.34-1.52C336.67,72.17,336.65,71.77,336.63,71.24Z"/>
    <path class="cls-1" d="M291.32,160.6c-5.08-.71-10.16-1.47-15.24-2.21-1.52-.22-3-.4-4.63-.6v4l20.9,3.06c0-1.1-.05-2.08,0-3.05C292.42,161,292.12,160.71,291.32,160.6Z"/>
    <path class="cls-1" d="M362.33,69.13v72.34l2.37-.19V68.89Z"/>
    <path class="cls-1" d="M353.54,136.09h8v-65l-8,.63c0,.55.06.94.08,1.36l7.28-.51c0,.13,0,.26,0,.39-2,.15-4,.36-6,.43-1.09,0-1.44.37-1.44,1.53q.06,29.86,0,59.72Z"/>
    <path class="cls-1" d="M336.07,74.49c.27,0,.49-.51.74-.79l-.26-.3c-2.39.21-4.78.4-7.16.64-.25,0-.46.41-.69.63L329,75C331.35,74.85,333.71,74.71,336.07,74.49Z"/>
    <path class="cls-1" d="M349.09,72.4l-8,.53v1.43l8-.57Z"/>
    <path class="cls-1" d="M341.13,70.44V72.5l7.94-.54V69.85Z"/>
    <path class="cls-1" d="M349.07,136.1V74.23l-7.91.56V136.1Z"/>
    <path class="cls-1" d="M336.61,70.64v-1.3l-1.09.08-9,.79-18.64,1.62c-.72.06-.93.37-.68,1.21Z"/>
    <path class="cls-1" d="M131.12,165.12q-31.5-6.66-63-13.38L8.72,139.09.6,137.39a13.27,13.27,0,0,1,0,1.91c-.2,1.28.39,1.71,1.58,2q62,15.93,123.9,31.94c2,.51,3.93,1,6,1.52,0-.48.08-.81.08-1.13,0-2.43,0-4.85,0-7.27C132.17,165.58,131.9,165.28,131.12,165.12Z"/>
    <path class="cls-1" d="M38.9,129.69l3.14.55V84.58l-3.14.55Z"/>
    <path class="cls-1" d="M35.72,130.39a4.15,4.15,0,0,0,0,.79c.05.2.17.51.31.53,2,.37,4,.69,6,1v-2a17.89,17.89,0,0,0-2.43-.44c-1,0-1.21-.46-1.21-1.41q0-21.45,0-42.9V84.82l2.21-.44c1.7-.32,1.76-.42,1.34-2.3-1.63.28-3.26.64-4.9.81-1,.11-1.35.49-1.35,1.55Q35.75,107.41,35.72,130.39Z"/>
    <path class="cls-1" d="M35.77,144.42,42,145.74V133.19l-6.27-1.05Z"/>
    <path class="cls-1" d="M100.39,71.26,69.52,76.8v59l30.87,4Z"/>
    <path class="cls-1" d="M69.43,150.8c0,.82.47.87,1.06,1l54.1,11.52,7.44,1.55V44.13a4.28,4.28,0,0,0-.44.06Q101,52.38,70.39,60.56c-.81.22-1,.59-1,1.33,0,4.39,0,8.79,0,13.18,0,.33,0,.66.07,1.11L101,70.55v70l-31.46-4.08a3.15,3.15,0,0,0-.11.51C69.45,141.57,69.46,146.19,69.43,150.8Z"/>
    <path class="cls-1" d="M43.67,146.12c6.25,1.28,12.49,2.65,18.74,4l6.39,1.33V61.08c-.26,0-.52.06-.76.12q-12.27,3.28-24.53,6.55A1.08,1.08,0,0,0,42.56,69c.08,4.65.15,9.3.15,14q0,30.89-.15,61.76C42.56,145.56,42.74,145.93,43.67,146.12Z"/>
    <path class="cls-1" d="M389.24,66.62,388,66.45v3.94h1.26Z"/>
    <path class="cls-1" d="M21.33,141.37c2.34.41,4.65,1,7,1.48l6.89,1.43V70c-4.77,1.28-9.43,2.56-14.11,3.77-.81.21-1,.57-1,1.33,0,3,0,5.9,0,8.85q0,27.93,0,55.85C20.11,140.74,20.3,141.19,21.33,141.37Z"/>
    <path class="cls-1" d="M35.71,82.69c2-.33,3.84-.65,5.7-.93.67-.1.7-.52.7-1.05,0-2.91,0-5.81,0-8.72V68.16c-2,.54-3.94,1-5.8,1.6a1.23,1.23,0,0,0-.58,1c0,2.68,0,5.36,0,8Z"/>
    <path class="cls-1" d="M10.87,125.39v-36c-1.07-.14-1.41.26-1.4,1.31q0,16.72,0,33.46C9.49,125.47,9.49,125.47,10.87,125.39Z"/>
    <path class="cls-1" d="M13.91,125.83c.07.19.31.32.65.63V88.65l-.39-.08a5.18,5.18,0,0,0-.28,1.21q0,17.63,0,35.26A2.29,2.29,0,0,0,13.91,125.83Z"/>
    <path class="cls-1" d="M11.38,123.83c0,1.91,0,1.91,2,2.17V88.79l-2,.38v34.66Z"/>
    <path class="cls-1" d="M.57,135.73c0,.94.26,1.31,1.19,1.49,3.48.69,6.94,1.46,10.42,2.19L19.57,141V130.18c-4-.75-7.85-1.54-11.75-2.21-1-.17-1.28-.51-1.27-1.51q0-18.78,0-37.57V87.72l13-2.47v-11l-1,.21C13,76,7.42,77.45,1.84,78.92a8.57,8.57,0,0,1-1.44.13,14.25,14.25,0,0,1,.19,1.74Q.61,108.26.57,135.73Z"/>
    <path class="cls-1" d="M15.14,90V124.8c0,1.79,0,1.79,1.93,1.84V88.22C15.16,88.17,15.14,88.19,15.14,90Z"/>
    <path class="cls-1" d="M18.88,88.85q0,18.56,0,37.12a2.31,2.31,0,0,0,0,.79c.07.19.32.33.68.68V87.79l-.44-.17A6,6,0,0,0,18.88,88.85Z"/>
    <path class="cls-1" d="M19.48,85.7c-3.81.72-7.56,1.48-11.32,2.12C7.2,88,7,88.34,7,89.27,7,99,7,108.72,7,118.45c0,2.61,0,5.22,0,7.83,0,.85.24,1.2,1.09,1.31,1.28.16,2.53.47,3.79.7l7.73,1.44v-2c-3.18-.62-6.29-1.27-9.41-1.8-.94-.16-1.12-.54-1.12-1.4q0-17.09,0-34.17c0-.38,0-.75,0-1.17,3.21-.62,6.35-1.29,9.51-1.82C19.83,87.14,19.77,86.58,19.48,85.7Z"/>
    <path class="cls-1" d="M17.68,126.53c.06.2.33.33.68.65V88l-.45-.15a7.24,7.24,0,0,0-.27,1.34q0,18.22,0,36.43A2.69,2.69,0,0,0,17.68,126.53Z"/>
    <path class="cls-1" d="M198.49,167.41c0,.25.44.65.73.71,2.67.53,5.34,1,8,1.49l10.29,1.85V163l-19.07-3.19C198.46,162.43,198.44,164.92,198.49,167.41Z"/>
    <path class="cls-1" d="M132.66,174.82,197.78,168v-8.25l-65.12,5.63Z"/>
    <path class="cls-1" d="M216.58,152.85c-4.53-.55-9.06-1.15-13.59-1.72-1.47-.19-3-.34-4.53-.51,0,2.85,0,5.5,0,8.13,0,.25.55.64.89.71,3.49.62,7,1.2,10.49,1.79l7.72,1.26c0-2.94,0-5.77,0-8.59C217.63,153.11,217.32,152.93,216.58,152.85Z"/>
    <path class="cls-1" d="M271.2,67.18l0-.29-6.44.67,0,.23Z"/>
    <path class="cls-1" d="M220.16,152.23c7.39-.62,14.79-1.13,22.18-1.69L265,148.82l22.53-1.68,22.63-1.73q11.25-.85,22.52-1.68c1.34-.1,2.67-.23,4-.35v-6.56c-.74,0-1.34,0-1.94,0l-27.32,1.31-25.74,1.27c-3.32.16-6.65.49-10,.44-5.69-.09-11.38-.4-17.07-.64-2-.09-4-.25-6-.32-1.69,0-3.38,0-5.22,0V140c0,2.24,0,4.47,0,6.7,0,.65-.16,1-.88,1-1,0-2.11.14-3.17.21l-31,2.13c-1.72.12-3.44.27-5.16.4a38.55,38.55,0,0,0,5.06.8C212.2,151.55,216.11,152.56,220.16,152.23Z"/>
    <path class="cls-1" d="M293.42,160.36c5-.57,9.92-1.1,14.88-1.64l24.22-2.65,9-1v-.17a2.6,2.6,0,0,0-.62-.11c-3.24,0-6.51-.1-9.73.21-12.07,1.19-24.13,2.53-36.19,3.81-.95.1-1.9.24-2.86.37C292.27,160.05,292.55,160.47,293.42,160.36Z"/>
    <path class="cls-1" d="M334.53,152.24v2.15h12.92v3l3.74-.36L372,154.84l23.13-2.39c3.87-.4,7.75-.78,11.62-1.2.28,0,.76-.28.77-.45.06-1.56,0-3.13,0-4.74Z"/>
    <path class="cls-1" d="M293.29,171l25-3,23.31-2.83c5.7-.7,11.41-1.37,17.11-2.09.3,0,.78-.41.8-.66.09-1,0-2,0-3.16l-66.22,7.93Z"/>
    <path class="cls-1" d="M265.21,162.36c1.8-.12,3.59-.37,5.41-.57v-4.18L218.1,162.9v8.51l7.28-.77,35.75-3.71c2.84-.3,2.87-.32,2.83-3.17C263.94,162.8,264.22,162.43,265.21,162.36Z"/>
    <path class="cls-1" d="M330,160.93l-23.77,2.85-13.31,1.6c-.08,1,.35,1.25,1.17,1.13,1.79-.25,3.6-.45,5.4-.67L323.17,163l23.76-2.85,8.15-1v-.31c-2.57,0-5.16-.2-7.7,0C341.57,159.47,335.8,160.24,330,160.93Z"/>
    <path class="cls-1" d="M264.66,167.21l28,3.92v-3.85l-28-4Z"/>
    <path class="cls-1" d="M329,160.63c5.75-.69,11.49-1.37,17.24-2.08.28,0,.74-.35.76-.56.08-1,0-2,0-3.08l-54.19,5.91V165l12.5-1.49Z"/>
    <path class="cls-1" d="M377.71,69c0-.92,0-1.86,0-2.8,0-.78-.3-1-1.12-.82,0,1,0,2,0,3C376.63,69.19,376.65,69.19,377.71,69Z"/>
    <path class="cls-1" d="M368,65.41l2.78-.27C368.89,64.48,368,64.6,368,65.41Z"/>
    <path class="cls-1" d="M372.21,136.71V72.41l-6.72.56v63.74Z"/>
    <path class="cls-1" d="M372.9,70v65.55c0,1.28,0,2.57,0,3.85a2.4,2.4,0,0,1-.24.76l-.34-.07v-2.7h-6.79v3.82l21-1.59V71.14l-2.53.23v68.09l-.33,0c-.08-.42-.16-.83-.27-1.43h-6.72c-.06.68-.12,1.38-.18,2.08l-.41,0V70Z"/>
    <path class="cls-1" d="M367.38,64.13l-1.93-.26V68.5h1.93Z"/>
    <path class="cls-1" d="M378.21,65.78V67l4.28-.83Z"/>
    <path class="cls-1" d="M383.44,137.33v-66l-6.77.39v65.6Z"/>
    <path class="cls-1" d="M375.62,69.46v-4.1l-4.83.44,0,.23,2.64.35c0,.16,0,.31,0,.47L368,66.5v1.21l4.87.49c0,.16,0,.31-.05.47q-1.94-.15-3.87-.27c-.3,0-.8-.08-.86,0-.42.87-1.17.53-1.78.51s-1.08.18-.76,1.09Z"/>
    <path class="cls-1" d="M382.88,69a4.18,4.18,0,0,1-.7.16c-1.5.14-2.93-.52-4.57.25-1.05.5-1,.89-1,1.84l10.57-.6V66.52L380,67v.19l2.86.32c0,.17,0,.33-.05.49l-4.62-.28-.05.52,4.72.5C382.87,68.82,382.88,68.93,382.88,69Z"/>
    <path class="cls-1" d="M349.33,62.1l-5.43-.54V63l5.45-.74Z"/>
    <path class="cls-1" d="M347,65.46a4.89,4.89,0,0,1,2.72.51l-12.33.37v77l3.17-.29V66.59l.36,0,.3,1.44,11.46-1.14V62.47l-6.27.86,0,.2,3.36.29-.06.48L343.85,64c0,.5,0,.85.08,1.25C345,65.35,346,65.39,347,65.46Z"/>
    <path class="cls-1" d="M343.17,60.92l-2.37-.3v4.89h2.37Z"/>
    <path class="cls-1" d="M403.31,138.2l-16-.64v2l16.05-1.23Z"/>
    <path class="cls-1" d="M355.78,62.66l-2.56-.18v4.36h2.56Z"/>
    <path class="cls-1" d="M362.34,63.42l-6-.63V64.1l6-.51Z"/>
    <path class="cls-1" d="M356.79,64.69,361,65c0,.18,0,.36,0,.53l-4.62-.24V66.5l4.64.42a2.64,2.64,0,0,1,0,.29l-11.29.36V142h-.43v-5.18h-8.09v6.27l20.4-1.55v-4.74h-8.13V142l-.34,0V67.8l.32,0c.08.52.16,1,.26,1.64l11.06-1V63.82l-8,.69Z"/>
    <path class="cls-1" d="M340.08,60.61l-57.93,6.28v4.28l57.93-5.53Z"/>
    <path class="cls-1" d="M205.18,149.63q12.51-.85,25-1.74l12.59-.89v-.93q0-44.73,0-89.47c0-.93-.33-1.1-1.16-1.18-5.31-.51-10.61-1.09-15.92-1.64l-23.13-2.43-20.43-2.13-23-2.41-20.65-2.16-5.83-.59V164.93l65.16-5.64v-1.2c0-2.35,0-4.7,0-7,0-.86.28-1.08,1.11-1.1C201,149.91,203.1,149.78,205.18,149.63Z"/>
    <path class="cls-1" d="M278.68,157c2.85.34,5.69.74,8.54,1.1,1.4.18,2.81.34,4.34.52,0-1.09-.05-2,0-3s-.25-1.11-1.07-1.17c-2.22-.16-4.43-.42-6.65-.63l-6-.55c0,1.06,0,1.93,0,2.79C277.8,156.72,278.08,156.92,278.68,157Z"/>
    <path class="cls-1" d="M334,151l-9.53.8-22.84,2c-2.91.24-5.81.47-8.71.76-.31,0-.84.36-.86.58-.09,1.15,0,2.31,0,3.58l42-4.46Z"/>
    <path class="cls-1" d="M297.47,153.8c11.28-1.14,22.59-2,33.89-3,.29,0,.58-.1.86-.15a3.3,3.3,0,0,0-1.36-.43,73.58,73.58,0,0,0-8.19-.93c-3,0-6,.44-8.93.69l-23.05,2-10.5.92v.16c.56.06,1.12.14,1.68.19C287.07,153.72,292.21,154.33,297.47,153.8Z"/>
    <path class="cls-1" d="M334.5,151.82l73-6.19v-7L218.11,153v9.47l59.33-5.8V152.7c2.23-.18,4.34-.35,6.44-.54,11.95-1,23.9-2,35.84-3.12a30.07,30.07,0,0,1,8.68.39c2,.39,3.94.61,6,.91C334.4,150.78,334.44,151.25,334.5,151.82Z"/>
    <path class="cls-1" d="M131.12,165.12q-31.5-6.66-63-13.38L8.72,139.09.6,137.39a13.27,13.27,0,0,1,0,1.91c-.2,1.28.39,1.71,1.58,2q62,15.93,123.9,31.94c2,.51,3.93,1,6,1.52,0-.48.08-.81.08-1.13,0-2.43,0-4.85,0-7.27C132.17,165.58,131.9,165.28,131.12,165.12Z"/>
    <path class="cls-1" d="M278.5,157.42a22.43,22.43,0,0,0-3.47.1l0,.31,16.74,2.42.21-.4c-.38-.28-.74-.77-1.16-.83C286.74,158.44,282.62,157.88,278.5,157.42Z"/>
    <path class="cls-1" d="M.57,135.73c0,.94.26,1.31,1.19,1.49,3.48.69,6.94,1.46,10.42,2.19L19.57,141V130.18c-4-.75-7.85-1.54-11.75-2.21-1-.17-1.28-.51-1.27-1.51q0-18.78,0-37.57V87.72l13-2.47v-11l-1,.21C13,76,7.42,77.45,1.84,78.92a8.57,8.57,0,0,1-1.44.13,14.25,14.25,0,0,1,.19,1.74Q.61,108.26.57,135.73Z"/>
    <path class="cls-1" d="M291.32,160.6c-5.08-.71-10.16-1.47-15.24-2.21-1.52-.22-3-.4-4.63-.6v4l20.9,3.06c0-1.1-.05-2.08,0-3.05C292.42,161,292.12,160.71,291.32,160.6Z"/>
    <path class="cls-1" d="M291.38,165.14c-4.49-.62-9-1.31-13.45-2-3.92-.57-7.82-1.47-12-.31l26.55,3.79C292.65,165.64,292.28,165.26,291.38,165.14Z"/>
    <path class="cls-1" d="M336.61,70.64v-1.3l-1.09.08-9,.79-18.64,1.62c-.72.06-.93.37-.68,1.21Z"/>
    <path class="cls-1" d="M341.13,70.44V72.5l7.94-.54V69.85Z"/>
    <path class="cls-1" d="M361.61,69.17l-8,.67v1.44l8-.62Z"/>
    <path class="cls-1" d="M349,67.83l-8,.8c0,.53.05.91.07,1.36,2.34-.16,4.55-.32,6.77-.46C349.3,69.44,349.3,69.44,349,67.83Z"/>
    <path class="cls-1" d="M353.54,136.09h8v-65l-8,.63c0,.55.06.94.08,1.36l7.28-.51c0,.13,0,.26,0,.39-2,.15-4,.36-6,.43-1.09,0-1.44.37-1.44,1.53q.06,29.86,0,59.72Z"/>
    <path class="cls-1" d="M349.07,136.1V74.23l-7.91.56V136.1Z"/>
    <path class="cls-1" d="M336.63,71.24l-18.27,1.49v1.55l18.34-1.52C336.67,72.17,336.65,71.77,336.63,71.24Z"/>
    <path class="cls-1" d="M349.09,72.4l-8,.53v1.43l8-.57Z"/>
    <path class="cls-1" d="M336.07,74.49c.27,0,.49-.51.74-.79l-.26-.3c-2.39.21-4.78.4-7.16.64-.25,0-.46.41-.69.63L329,75C331.35,74.85,333.71,74.71,336.07,74.49Z"/>
    <path class="cls-1" d="M335.75,68.83c.7-.06,1.05-.3.95-1-.05-.37,0-.74-.07-1.22l-42,4v1.81l.65,0,19.43-1.69Q325.25,69.75,335.75,68.83Z"/>
    <path class="cls-1" d="M43.67,146.12c6.25,1.28,12.49,2.65,18.74,4l6.39,1.33V61.08c-.26,0-.52.06-.76.12q-12.27,3.28-24.53,6.55A1.08,1.08,0,0,0,42.56,69c.08,4.65.15,9.3.15,14q0,30.89-.15,61.76C42.56,145.56,42.74,145.93,43.67,146.12Z"/>
    <path class="cls-1" d="M100.39,71.26,69.52,76.8v59l30.87,4Z"/>
    <path class="cls-1" d="M38.9,129.69l3.14.55V84.58l-3.14.55Z"/>
    <path class="cls-1" d="M35.72,130.39a4.15,4.15,0,0,0,0,.79c.05.2.17.51.31.53,2,.37,4,.69,6,1v-2a17.89,17.89,0,0,0-2.43-.44c-1,0-1.21-.46-1.21-1.41q0-21.45,0-42.9V84.82l2.21-.44c1.7-.32,1.76-.42,1.34-2.3-1.63.28-3.26.64-4.9.81-1,.11-1.35.49-1.35,1.55Q35.75,107.41,35.72,130.39Z"/>
    <path class="cls-1" d="M35.71,82.69c2-.33,3.84-.65,5.7-.93.67-.1.7-.52.7-1.05,0-2.91,0-5.81,0-8.72V68.16c-2,.54-3.94,1-5.8,1.6a1.23,1.23,0,0,0-.58,1c0,2.68,0,5.36,0,8Z"/>
    <path class="cls-1" d="M264.75,67.79l6.45-.61V67.1l-6.45.63Z"/>
    <path class="cls-1" d="M389.24,66.62,388,66.45v3.94h1.26Z"/>
    <path class="cls-1" d="M69.43,150.8c0,.82.47.87,1.06,1l54.1,11.52,7.44,1.55V44.13a4.28,4.28,0,0,0-.44.06Q101,52.38,70.39,60.56c-.81.22-1,.59-1,1.33,0,4.39,0,8.79,0,13.18,0,.33,0,.66.07,1.11L101,70.55v70l-31.46-4.08a3.15,3.15,0,0,0-.11.51C69.45,141.57,69.46,146.19,69.43,150.8Z"/>
    <path class="cls-1" d="M13.91,125.83c.07.19.31.32.65.63V88.65l-.39-.08a5.18,5.18,0,0,0-.28,1.21q0,17.63,0,35.26A2.29,2.29,0,0,0,13.91,125.83Z"/>
    <path class="cls-1" d="M15.14,90V124.8c0,1.79,0,1.79,1.93,1.84V88.22C15.16,88.17,15.14,88.19,15.14,90Z"/>
    <path class="cls-1" d="M35.77,144.42,42,145.74V133.19l-6.27-1.05Z"/>
    <path class="cls-1" d="M10.87,125.39v-36c-1.07-.14-1.41.26-1.4,1.31q0,16.72,0,33.46C9.49,125.47,9.49,125.47,10.87,125.39Z"/>
    <path class="cls-1" d="M11.38,123.83c0,1.91,0,1.91,2,2.17V88.79l-2,.38v34.66Z"/>
    <path class="cls-1" d="M17.68,126.53c.06.2.33.33.68.65V88l-.45-.15a7.24,7.24,0,0,0-.27,1.34q0,18.22,0,36.43A2.69,2.69,0,0,0,17.68,126.53Z"/>
    <path class="cls-1" d="M18.88,88.85q0,18.56,0,37.12a2.31,2.31,0,0,0,0,.79c.07.19.32.33.68.68V87.79l-.44-.17A6,6,0,0,0,18.88,88.85Z"/>
    <path class="cls-1" d="M21.33,141.37c2.34.41,4.65,1,7,1.48l6.89,1.43V70c-4.77,1.28-9.43,2.56-14.11,3.77-.81.21-1,.57-1,1.33,0,3,0,5.9,0,8.85q0,27.93,0,55.85C20.11,140.74,20.3,141.19,21.33,141.37Z"/>
    <path class="cls-1" d="M19.48,85.7c-3.81.72-7.56,1.48-11.32,2.12C7.2,88,7,88.34,7,89.27,7,99,7,108.72,7,118.45c0,2.61,0,5.22,0,7.83,0,.85.24,1.2,1.09,1.31,1.28.16,2.53.47,3.79.7l7.73,1.44v-2c-3.18-.62-6.29-1.27-9.41-1.8-.94-.16-1.12-.54-1.12-1.4q0-17.09,0-34.17c0-.38,0-.75,0-1.17,3.21-.62,6.35-1.29,9.51-1.82C19.83,87.14,19.77,86.58,19.48,85.7Z"/>
    <path class="cls-1" d="M198.49,167.41c0,.25.44.65.73.71,2.67.53,5.34,1,8,1.49l10.29,1.85V163l-19.07-3.19C198.46,162.43,198.44,164.92,198.49,167.41Z"/>
    <path class="cls-1" d="M343.17,60.92l-2.37-.3v4.89h2.37Z"/>
    <path class="cls-1" d="M205.18,149.63q12.51-.85,25-1.74l12.59-.89v-.93q0-44.73,0-89.47c0-.93-.33-1.1-1.16-1.18-5.31-.51-10.61-1.09-15.92-1.64l-23.13-2.43-20.43-2.13-23-2.41-20.65-2.16-5.83-.59V164.93l65.16-5.64v-1.2c0-2.35,0-4.7,0-7,0-.86.28-1.08,1.11-1.1C201,149.91,203.1,149.78,205.18,149.63Z"/>
    <path class="cls-1" d="M216.58,152.85c-4.53-.55-9.06-1.15-13.59-1.72-1.47-.19-3-.34-4.53-.51,0,2.85,0,5.5,0,8.13,0,.25.55.64.89.71,3.49.62,7,1.2,10.49,1.79l7.72,1.26c0-2.94,0-5.77,0-8.59C217.63,153.11,217.32,152.93,216.58,152.85Z"/>
    <path class="cls-1" d="M362.33,69.13v72.34l2.37-.19V68.89Z"/>
    <path class="cls-1" d="M265.21,162.36c1.8-.12,3.59-.37,5.41-.57v-4.18L218.1,162.9v8.51l7.28-.77,35.75-3.71c2.84-.3,2.87-.32,2.83-3.17C263.94,162.8,264.22,162.43,265.21,162.36Z"/>
    <path class="cls-1" d="M340.08,60.61l-57.93,6.28v4.28l57.93-5.53Z"/>
    <path class="cls-1" d="M132.66,174.82,197.78,168v-8.25l-65.12,5.63Z"/>
    <path class="cls-1" d="M330,160.93l-23.77,2.85-13.31,1.6c-.08,1,.35,1.25,1.17,1.13,1.79-.25,3.6-.45,5.4-.67L323.17,163l23.76-2.85,8.15-1v-.31c-2.57,0-5.16-.2-7.7,0C341.57,159.47,335.8,160.24,330,160.93Z"/>
    <path class="cls-1" d="M334.53,152.24v2.15h12.92v3l3.74-.36L372,154.84l23.13-2.39c3.87-.4,7.75-.78,11.62-1.2.28,0,.76-.28.77-.45.06-1.56,0-3.13,0-4.74Z"/>
    <path class="cls-1" d="M264.66,167.21l28,3.92v-3.85l-28-4Z"/>
    <path class="cls-1" d="M293.42,160.36c5-.57,9.92-1.1,14.88-1.64l24.22-2.65,9-1v-.17a2.6,2.6,0,0,0-.62-.11c-3.24,0-6.51-.1-9.73.21-12.07,1.19-24.13,2.53-36.19,3.81-.95.1-1.9.24-2.86.37C292.27,160.05,292.55,160.47,293.42,160.36Z"/>
    <path class="cls-1" d="M293.29,171l25-3,23.31-2.83c5.7-.7,11.41-1.37,17.11-2.09.3,0,.78-.41.8-.66.09-1,0-2,0-3.16l-66.22,7.93Z"/>
    <path class="cls-1" d="M329,160.63c5.75-.69,11.49-1.37,17.24-2.08.28,0,.74-.35.76-.56.08-1,0-2,0-3.08l-54.19,5.91V165l12.5-1.49Z"/>
    <path class="cls-1" d="M220.16,152.23c7.39-.62,14.79-1.13,22.18-1.69L265,148.82l22.53-1.68,22.63-1.73q11.25-.85,22.52-1.68c1.34-.1,2.67-.23,4-.35v-6.56c-.74,0-1.34,0-1.94,0l-27.32,1.31-25.74,1.27c-3.32.16-6.65.49-10,.44-5.69-.09-11.38-.4-17.07-.64-2-.09-4-.25-6-.32-1.69,0-3.38,0-5.22,0V140c0,2.24,0,4.47,0,6.7,0,.65-.16,1-.88,1-1,0-2.11.14-3.17.21l-31,2.13c-1.72.12-3.44.27-5.16.4a38.55,38.55,0,0,0,5.06.8C212.2,151.55,216.11,152.56,220.16,152.23Z"/>
    <path class="cls-1" d="M382.88,69a4.18,4.18,0,0,1-.7.16c-1.5.14-2.93-.52-4.57.25-1.05.5-1,.89-1,1.84l10.57-.6V66.52L380,67v.19l2.86.32c0,.17,0,.33-.05.49l-4.62-.28-.05.52,4.72.5C382.87,68.82,382.88,68.93,382.88,69Z"/>
    <path class="cls-1" d="M377.71,69c0-.92,0-1.86,0-2.8,0-.78-.3-1-1.12-.82,0,1,0,2,0,3C376.63,69.19,376.65,69.19,377.71,69Z"/>
    <path class="cls-1" d="M347,65.46a4.89,4.89,0,0,1,2.72.51l-12.33.37v77l3.17-.29V66.59l.36,0,.3,1.44,11.46-1.14V62.47l-6.27.86,0,.2,3.36.29-.06.48L343.85,64c0,.5,0,.85.08,1.25C345,65.35,346,65.39,347,65.46Z"/>
    <path class="cls-1" d="M372.9,70v65.55c0,1.28,0,2.57,0,3.85a2.4,2.4,0,0,1-.24.76l-.34-.07v-2.7h-6.79v3.82l21-1.59V71.14l-2.53.23v68.09l-.33,0c-.08-.42-.16-.83-.27-1.43h-6.72c-.06.68-.12,1.38-.18,2.08l-.41,0V70Z"/>
    <path class="cls-1" d="M403.31,138.2l-16-.64v2l16.05-1.23Z"/>
    <path class="cls-1" d="M372.24,70.1l-6.77.38v2l6.77-.57Z"/>
    <path class="cls-1" d="M372.21,136.71V72.41l-6.72.56v63.74Z"/>
    <path class="cls-1" d="M368,65.41l2.78-.27C368.89,64.48,368,64.6,368,65.41Z"/>
    <path class="cls-1" d="M378.21,65.78V67l4.28-.83Z"/>
    <path class="cls-1" d="M383.44,137.33v-66l-6.77.39v65.6Z"/>
    <path class="cls-1" d="M355.78,62.66l-2.56-.18v4.36h2.56Z"/>
    <path class="cls-1" d="M362.34,63.42l-6-.63V64.1l6-.51Z"/>
    <path class="cls-1" d="M349.33,62.1l-5.43-.54V63l5.45-.74Z"/>
    <path class="cls-1" d="M367.38,64.13l-1.93-.26V68.5h1.93Z"/>
    <path class="cls-1" d="M356.79,64.69,361,65c0,.18,0,.36,0,.53l-4.62-.24V66.5l4.64.42a2.64,2.64,0,0,1,0,.29l-11.29.36V142h-.43v-5.18h-8.09v6.27l20.4-1.55v-4.74h-8.13V142l-.34,0V67.8l.32,0c.08.52.16,1,.26,1.64l11.06-1V63.82l-8,.69Z"/>
    <path class="cls-1" d="M375.62,69.46v-4.1l-4.83.44,0,.23,2.64.35c0,.16,0,.31,0,.47L368,66.5v1.21l4.87.49c0,.16,0,.31-.05.47q-1.94-.15-3.87-.27c-.3,0-.8-.08-.86,0-.42.87-1.17.53-1.78.51s-1.08.18-.76,1.09Z"/>
    <path class="cls-1" d="M244.42,138.12c1.47,0,3,.14,4.42.21l6.38.28V69.29l-11.77-.92V82.45l11.26.63a10.45,10.45,0,0,0-.37,1.9q0,25.89-.05,51.78a6.92,6.92,0,0,1,0,1,1.82,1.82,0,0,1-.29.55l-.26-.07V83.61l-10.34-.53v52.29c0,.57,0,1.14,0,1.7C243.29,137.89,243.66,138.11,244.42,138.12Z"/>
    <path class="cls-1" d="M271.38,67.77l-15.45,1.5v69.14l15.45.84Z"/>
    <path class="cls-1" d="M243.59,67.77l8.95.69v-.17l-9-.62Z"/>
    <polygon class="cls-2" points="255.98 68.58 256.24 68.55 255.98 68.53 255.98 68.58"/>
    <polygon class="cls-2" points="256.43 68.56 256.43 68.53 256.24 68.55 256.43 68.56"/>
    <path class="cls-1" d="M291.38,165.14c-4.49-.62-9-1.31-13.45-2-3.92-.57-7.82-1.47-12-.31l26.55,3.79C292.65,165.64,292.28,165.26,291.38,165.14Z"/>
    <path class="cls-1" d="M334.5,151.82l73-6.19v-7L218.11,153v9.47l59.33-5.8V152.7c2.23-.18,4.34-.35,6.44-.54,11.95-1,23.9-2,35.84-3.12a30.07,30.07,0,0,1,8.68.39c2,.39,3.94.61,6,.91C334.4,150.78,334.44,151.25,334.5,151.82Z"/>
    <path class="cls-1" d="M334,151l-9.53.8-22.84,2c-2.91.24-5.81.47-8.71.76-.31,0-.84.36-.86.58-.09,1.15,0,2.31,0,3.58l42-4.46Z"/>
    <path class="cls-1" d="M291.32,160.6c-5.08-.71-10.16-1.47-15.24-2.21-1.52-.22-3-.4-4.63-.6v4l20.9,3.06c0-1.1-.05-2.08,0-3.05C292.42,161,292.12,160.71,291.32,160.6Z"/>
    <path class="cls-1" d="M336.61,70.64v-1.3l-1.09.08-9,.79-18.64,1.62c-.72.06-.93.37-.68,1.21Z"/>
    <path class="cls-1" d="M297.47,153.8c11.28-1.14,22.59-2,33.89-3,.29,0,.58-.1.86-.15a3.3,3.3,0,0,0-1.36-.43,73.58,73.58,0,0,0-8.19-.93c-3,0-6,.44-8.93.69l-23.05,2-10.5.92v.16c.56.06,1.12.14,1.68.19C287.07,153.72,292.21,154.33,297.47,153.8Z"/>
    <path class="cls-1" d="M278.5,157.42a22.43,22.43,0,0,0-3.47.1l0,.31,16.74,2.42.21-.4c-.38-.28-.74-.77-1.16-.83C286.74,158.44,282.62,157.88,278.5,157.42Z"/>
    <path class="cls-1" d="M278.68,157c2.85.34,5.69.74,8.54,1.1,1.4.18,2.81.34,4.34.52,0-1.09-.05-2,0-3s-.25-1.11-1.07-1.17c-2.22-.16-4.43-.42-6.65-.63l-6-.55c0,1.06,0,1.93,0,2.79C277.8,156.72,278.08,156.92,278.68,157Z"/>
    <path class="cls-1" d="M335.75,68.83c.7-.06,1.05-.3.95-1-.05-.37,0-.74-.07-1.22l-42,4v1.81l.65,0,19.43-1.69Q325.25,69.75,335.75,68.83Z"/>
    <path class="cls-1" d="M353.54,136.09h8v-65l-8,.63c0,.55.06.94.08,1.36l7.28-.51c0,.13,0,.26,0,.39-2,.15-4,.36-6,.43-1.09,0-1.44.37-1.44,1.53q.06,29.86,0,59.72Z"/>
    <path class="cls-1" d="M349,67.83l-8,.8c0,.53.05.91.07,1.36,2.34-.16,4.55-.32,6.77-.46C349.3,69.44,349.3,69.44,349,67.83Z"/>
    <path class="cls-1" d="M361.61,69.17l-8,.67v1.44l8-.62Z"/>
    <path class="cls-1" d="M336.63,71.24l-18.27,1.49v1.55l18.34-1.52C336.67,72.17,336.65,71.77,336.63,71.24Z"/>
    <path class="cls-1" d="M341.13,70.44V72.5l7.94-.54V69.85Z"/>
    <path class="cls-1" d="M362.33,69.13v72.34l2.37-.19V68.89Z"/>
    <path class="cls-1" d="M349.09,72.4l-8,.53v1.43l8-.57Z"/>
    <path class="cls-1" d="M349.07,136.1V74.23l-7.91.56V136.1Z"/>
    <path class="cls-1" d="M336.07,74.49c.27,0,.49-.51.74-.79l-.26-.3c-2.39.21-4.78.4-7.16.64-.25,0-.46.41-.69.63L329,75C331.35,74.85,333.71,74.71,336.07,74.49Z"/>
    <path class="cls-1" d="M35.72,130.39a4.15,4.15,0,0,0,0,.79c.05.2.17.51.31.53,2,.37,4,.69,6,1v-2a17.89,17.89,0,0,0-2.43-.44c-1,0-1.21-.46-1.21-1.41q0-21.45,0-42.9V84.82l2.21-.44c1.7-.32,1.76-.42,1.34-2.3-1.63.28-3.26.64-4.9.81-1,.11-1.35.49-1.35,1.55Q35.75,107.41,35.72,130.39Z"/>
    <path class="cls-1" d="M38.9,129.69l3.14.55V84.58l-3.14.55Z"/>
    <path class="cls-1" d="M35.71,82.69c2-.33,3.84-.65,5.7-.93.67-.1.7-.52.7-1.05,0-2.91,0-5.81,0-8.72V68.16c-2,.54-3.94,1-5.8,1.6a1.23,1.23,0,0,0-.58,1c0,2.68,0,5.36,0,8Z"/>
    <path class="cls-1" d="M35.77,144.42,42,145.74V133.19l-6.27-1.05Z"/>
    <path class="cls-1" d="M100.39,71.26,69.52,76.8v59l30.87,4Z"/>
    <path class="cls-1" d="M43.67,146.12c6.25,1.28,12.49,2.65,18.74,4l6.39,1.33V61.08c-.26,0-.52.06-.76.12q-12.27,3.28-24.53,6.55A1.08,1.08,0,0,0,42.56,69c.08,4.65.15,9.3.15,14q0,30.89-.15,61.76C42.56,145.56,42.74,145.93,43.67,146.12Z"/>
    <path class="cls-1" d="M69.43,150.8c0,.82.47.87,1.06,1l54.1,11.52,7.44,1.55V44.13a4.28,4.28,0,0,0-.44.06Q101,52.38,70.39,60.56c-.81.22-1,.59-1,1.33,0,4.39,0,8.79,0,13.18,0,.33,0,.66.07,1.11L101,70.55v70l-31.46-4.08a3.15,3.15,0,0,0-.11.51C69.45,141.57,69.46,146.19,69.43,150.8Z"/>
    <path class="cls-1" d="M389.24,66.62,388,66.45v3.94h1.26Z"/>
    <path class="cls-1" d="M21.33,141.37c2.34.41,4.65,1,7,1.48l6.89,1.43V70c-4.77,1.28-9.43,2.56-14.11,3.77-.81.21-1,.57-1,1.33,0,3,0,5.9,0,8.85q0,27.93,0,55.85C20.11,140.74,20.3,141.19,21.33,141.37Z"/>
    <path class="cls-1" d="M18.88,88.85q0,18.56,0,37.12a2.31,2.31,0,0,0,0,.79c.07.19.32.33.68.68V87.79l-.44-.17A6,6,0,0,0,18.88,88.85Z"/>
    <path class="cls-1" d="M10.87,125.39v-36c-1.07-.14-1.41.26-1.4,1.31q0,16.72,0,33.46C9.49,125.47,9.49,125.47,10.87,125.39Z"/>
    <path class="cls-1" d="M11.38,123.83c0,1.91,0,1.91,2,2.17V88.79l-2,.38v34.66Z"/>
    <path class="cls-1" d="M.57,135.73c0,.94.26,1.31,1.19,1.49,3.48.69,6.94,1.46,10.42,2.19L19.57,141V130.18c-4-.75-7.85-1.54-11.75-2.21-1-.17-1.28-.51-1.27-1.51q0-18.78,0-37.57V87.72l13-2.47v-11l-1,.21C13,76,7.42,77.45,1.84,78.92a8.57,8.57,0,0,1-1.44.13,14.25,14.25,0,0,1,.19,1.74Q.61,108.26.57,135.73Z"/>
    <path class="cls-1" d="M19.48,85.7c-3.81.72-7.56,1.48-11.32,2.12C7.2,88,7,88.34,7,89.27,7,99,7,108.72,7,118.45c0,2.61,0,5.22,0,7.83,0,.85.24,1.2,1.09,1.31,1.28.16,2.53.47,3.79.7l7.73,1.44v-2c-3.18-.62-6.29-1.27-9.41-1.8-.94-.16-1.12-.54-1.12-1.4q0-17.09,0-34.17c0-.38,0-.75,0-1.17,3.21-.62,6.35-1.29,9.51-1.82C19.83,87.14,19.77,86.58,19.48,85.7Z"/>
    <path class="cls-1" d="M13.91,125.83c.07.19.31.32.65.63V88.65l-.39-.08a5.18,5.18,0,0,0-.28,1.21q0,17.63,0,35.26A2.29,2.29,0,0,0,13.91,125.83Z"/>
    <path class="cls-1" d="M15.14,90V124.8c0,1.79,0,1.79,1.93,1.84V88.22C15.16,88.17,15.14,88.19,15.14,90Z"/>
    <path class="cls-1" d="M131.12,165.12q-31.5-6.66-63-13.38L8.72,139.09.6,137.39a13.27,13.27,0,0,1,0,1.91c-.2,1.28.39,1.71,1.58,2q62,15.93,123.9,31.94c2,.51,3.93,1,6,1.52,0-.48.08-.81.08-1.13,0-2.43,0-4.85,0-7.27C132.17,165.58,131.9,165.28,131.12,165.12Z"/>
    <path class="cls-1" d="M17.68,126.53c.06.2.33.33.68.65V88l-.45-.15a7.24,7.24,0,0,0-.27,1.34q0,18.22,0,36.43A2.69,2.69,0,0,0,17.68,126.53Z"/>
    <path class="cls-1" d="M372.9,70v65.55c0,1.28,0,2.57,0,3.85a2.4,2.4,0,0,1-.24.76l-.34-.07v-2.7h-6.79v3.82l21-1.59V71.14l-2.53.23v68.09l-.33,0c-.08-.42-.16-.83-.27-1.43h-6.72c-.06.68-.12,1.38-.18,2.08l-.41,0V70Z"/>
    <path class="cls-1" d="M265.21,162.36c1.8-.12,3.59-.37,5.41-.57v-4.18L218.1,162.9v8.51l7.28-.77,35.75-3.71c2.84-.3,2.87-.32,2.83-3.17C263.94,162.8,264.22,162.43,265.21,162.36Z"/>
    <path class="cls-1" d="M198.49,167.41c0,.25.44.65.73.71,2.67.53,5.34,1,8,1.49l10.29,1.85V163l-19.07-3.19C198.46,162.43,198.44,164.92,198.49,167.41Z"/>
    <path class="cls-1" d="M220.16,152.23c7.39-.62,14.79-1.13,22.18-1.69L265,148.82l22.53-1.68,22.63-1.73q11.25-.85,22.52-1.68c1.34-.1,2.67-.23,4-.35v-6.56c-.74,0-1.34,0-1.94,0l-27.32,1.31-25.74,1.27c-3.32.16-6.65.49-10,.44-5.69-.09-11.38-.4-17.07-.64-2-.09-4-.25-6-.32-1.69,0-3.38,0-5.22,0V140c0,2.24,0,4.47,0,6.7,0,.65-.16,1-.88,1-1,0-2.11.14-3.17.21l-31,2.13c-1.72.12-3.44.27-5.16.4a38.55,38.55,0,0,0,5.06.8C212.2,151.55,216.11,152.56,220.16,152.23Z"/>
    <path class="cls-1" d="M340.08,60.61l-57.93,6.28v4.28l57.93-5.53Z"/>
    <path class="cls-1" d="M216.58,152.85c-4.53-.55-9.06-1.15-13.59-1.72-1.47-.19-3-.34-4.53-.51,0,2.85,0,5.5,0,8.13,0,.25.55.64.89.71,3.49.62,7,1.2,10.49,1.79l7.72,1.26c0-2.94,0-5.77,0-8.59C217.63,153.11,217.32,152.93,216.58,152.85Z"/>
    <path class="cls-1" d="M132.66,174.82,197.78,168v-8.25l-65.12,5.63Z"/>
    <path class="cls-1" d="M271.38,67.77l-15.45,1.5v69.14l15.45.84Z"/>
    <path class="cls-1" d="M244.42,138.12c1.47,0,3,.14,4.42.21l6.38.28V69.29l-11.77-.92V82.45l11.26.63a10.45,10.45,0,0,0-.37,1.9q0,25.89-.05,51.78a6.92,6.92,0,0,1,0,1,1.82,1.82,0,0,1-.29.55l-.26-.07V83.61l-10.34-.53v52.29c0,.57,0,1.14,0,1.7C243.29,137.89,243.66,138.11,244.42,138.12Z"/>
    <path class="cls-1" d="M205.18,149.63q12.51-.85,25-1.74l12.59-.89v-.93q0-44.73,0-89.47c0-.93-.33-1.1-1.16-1.18-5.31-.51-10.61-1.09-15.92-1.64l-23.13-2.43-20.43-2.13-23-2.41-20.65-2.16-5.83-.59V164.93l65.16-5.64v-1.2c0-2.35,0-4.7,0-7,0-.86.28-1.08,1.11-1.1C201,149.91,203.1,149.78,205.18,149.63Z"/>
    <path class="cls-1" d="M334.53,152.24v2.15h12.92v3l3.74-.36L372,154.84l23.13-2.39c3.87-.4,7.75-.78,11.62-1.2.28,0,.76-.28.77-.45.06-1.56,0-3.13,0-4.74Z"/>
    <path class="cls-1" d="M330,160.93l-23.77,2.85-13.31,1.6c-.08,1,.35,1.25,1.17,1.13,1.79-.25,3.6-.45,5.4-.67L323.17,163l23.76-2.85,8.15-1v-.31c-2.57,0-5.16-.2-7.7,0C341.57,159.47,335.8,160.24,330,160.93Z"/>
    <path class="cls-1" d="M264.66,167.21l28,3.92v-3.85l-28-4Z"/>
    <path class="cls-1" d="M293.42,160.36c5-.57,9.92-1.1,14.88-1.64l24.22-2.65,9-1v-.17a2.6,2.6,0,0,0-.62-.11c-3.24,0-6.51-.1-9.73.21-12.07,1.19-24.13,2.53-36.19,3.81-.95.1-1.9.24-2.86.37C292.27,160.05,292.55,160.47,293.42,160.36Z"/>
    <path class="cls-1" d="M372.24,70.1l-6.77.38v2l6.77-.57Z"/>
    <path class="cls-1" d="M329,160.63c5.75-.69,11.49-1.37,17.24-2.08.28,0,.74-.35.76-.56.08-1,0-2,0-3.08l-54.19,5.91V165l12.5-1.49Z"/>
    <path class="cls-1" d="M293.29,171l25-3,23.31-2.83c5.7-.7,11.41-1.37,17.11-2.09.3,0,.78-.41.8-.66.09-1,0-2,0-3.16l-66.22,7.93Z"/>
    <path class="cls-1" d="M383.44,137.33v-66l-6.77.39v65.6Z"/>
    <path class="cls-1" d="M382.88,69a4.18,4.18,0,0,1-.7.16c-1.5.14-2.93-.52-4.57.25-1.05.5-1,.89-1,1.84l10.57-.6V66.52L380,67v.19l2.86.32c0,.17,0,.33-.05.49l-4.62-.28-.05.52,4.72.5C382.87,68.82,382.88,68.93,382.88,69Z"/>
    <path class="cls-1" d="M377.71,69c0-.92,0-1.86,0-2.8,0-.78-.3-1-1.12-.82,0,1,0,2,0,3C376.63,69.19,376.65,69.19,377.71,69Z"/>
    <path class="cls-1" d="M367.38,64.13l-1.93-.26V68.5h1.93Z"/>
    <path class="cls-1" d="M375.62,69.46v-4.1l-4.83.44,0,.23,2.64.35c0,.16,0,.31,0,.47L368,66.5v1.21l4.87.49c0,.16,0,.31-.05.47q-1.94-.15-3.87-.27c-.3,0-.8-.08-.86,0-.42.87-1.17.53-1.78.51s-1.08.18-.76,1.09Z"/>
    <path class="cls-1" d="M372.21,136.71V72.41l-6.72.56v63.74Z"/>
    <path class="cls-1" d="M403.31,138.2l-16-.64v2l16.05-1.23Z"/>
    <path class="cls-1" d="M378.21,65.78V67l4.28-.83Z"/>
    <path class="cls-1" d="M368,65.41l2.78-.27C368.89,64.48,368,64.6,368,65.41Z"/>
    <path class="cls-1" d="M347,65.46a4.89,4.89,0,0,1,2.72.51l-12.33.37v77l3.17-.29V66.59l.36,0,.3,1.44,11.46-1.14V62.47l-6.27.86,0,.2,3.36.29-.06.48L343.85,64c0,.5,0,.85.08,1.25C345,65.35,346,65.39,347,65.46Z"/>
    <path class="cls-1" d="M349.33,62.1l-5.43-.54V63l5.45-.74Z"/>
    <path class="cls-1" d="M343.17,60.92l-2.37-.3v4.89h2.37Z"/>
    <path class="cls-1" d="M355.78,62.66l-2.56-.18v4.36h2.56Z"/>
    <path class="cls-1" d="M362.34,63.42l-6-.63V64.1l6-.51Z"/>
    <path class="cls-1" d="M356.79,64.69,361,65c0,.18,0,.36,0,.53l-4.62-.24V66.5l4.64.42a2.64,2.64,0,0,1,0,.29l-11.29.36V142h-.43v-5.18h-8.09v6.27l20.4-1.55v-4.74h-8.13V142l-.34,0V67.8l.32,0c.08.52.16,1,.26,1.64l11.06-1V63.82l-8,.69Z"/>
    <path class="cls-1" d="M336.63,74.93l-8.18.52c-.05-.51-.08-.87-.13-1.35L317.74,75c0-.75-.06-1.41-.1-2.14l-11.17.87c0-.61-.05-1.06-.09-1.68l-12.46,1.06V70.65l-12.47,1.18V68.31l-9.31-.57v71.52l64.49-3.11Z"/>
    <path class="cls-1" d="M272.21,67.14l6.89.4,0-.18L272.22,67Z"/>
    <path class="cls-2" d="M408.21,138l-20.91-.87v-66l2.36-.33V66.38c-4.32-.54-8.54-1-12.76-1.58s-8.22-1.13-12.34-1.61c-5.63-.66-11.27-1.23-16.91-1.84-1.16-.13-2.53.06-3.44-.49a6.87,6.87,0,0,0-4.26-.81c-3.77.28-7.53.78-11.29,1.19l-22.22,2.41c-7.33.8-14.67,1.53-22,2.43-1,.12-2,.28-3.05.41l0,1-2.29-.12,0,.18-6.89-.4V67l-.51,0v.07l-.53,0v.08l-6.45.61v-.06l-8.31.8v0h-.19l-.26,0s-3.44-.18-3.44-.12l-8.95-.69v-.1h-.13l.06-.89-.14,0V56.21a.84.84,0,0,1,.08-.37v-.93h-.05V55L136.54,43.85l-4.27-.4L70.52,59.94c-1.19.33-2.38.64-3.57,1l-4.61,1.23h0L3.15,78l-1.77.48a.84.84,0,0,1-.42,0L0,78.77a3,3,0,0,0,0,.54q0,30.38,0,60.75c0,1.06.37,1.39,1.31,1.64q64.83,16.7,129.64,33.44a6.67,6.67,0,0,0,2.68.24c3.74-.51,7.51-.84,11.27-1.24l24.83-2.63c7.67-.81,15.34-1.65,23-2.4a30.67,30.67,0,0,1,7-.22c4.41.57,8.78,1.56,13.17,2.33a23.85,23.85,0,0,0,5.47.7c4.41-.27,8.8-.86,13.21-1.32,7.67-.8,15.33-1.72,23-2.36,3.52-.29,6.95-1.16,10.63-.46,6.75,1.29,13.61,2.07,20.43,2.94,2.95.37,5.86,1.24,8.88.78,1.72-.26,3.45-.45,5.18-.66l27.15-3.27,25.68-3.12,7.49-.94v-5.07H347.55c0-.16,0-.32,0-.48l60.68-6.27ZM388,66.45l1.26.17v3.77H388Zm-318.41,70L101,140.52v-70L69.52,76.18c0-.45-.07-.78-.07-1.11,0-4.39,0-8.79,0-13.18,0-.74.15-1.11,1-1.33Q101,52.4,131.59,44.19a4.28,4.28,0,0,1,.44-.06V164.87l-7.44-1.55L70.49,151.8c-.59-.13-1.07-.18-1.06-1,0-4.61,0-9.23,0-13.85A3.15,3.15,0,0,1,69.57,136.44Zm0-.62v-59l30.87-5.54v68.58ZM42.56,69a1.08,1.08,0,0,1,.95-1.25Q55.78,64.5,68,61.2c.24-.06.5-.08.76-.12v90.35l-6.39-1.33c-6.25-1.33-12.49-2.7-18.74-4-.93-.19-1.11-.56-1.11-1.41q.11-30.89.15-61.76C42.71,78.3,42.64,73.65,42.56,69Zm-6.83,1.74a1.23,1.23,0,0,1,.58-1c1.86-.58,3.76-1.06,5.8-1.6V72c0,2.91,0,5.81,0,8.72,0,.53,0,1-.7,1.05-1.86.28-3.71.6-5.7.93V78.78C35.71,76.1,35.68,73.42,35.73,70.74ZM37,82.89c1.64-.17,3.27-.53,4.9-.81.42,1.88.36,2-1.34,2.3l-2.21.44V86q0,21.45,0,42.9c0,1,.23,1.36,1.21,1.41a17.89,17.89,0,0,1,2.43.44v2c-2-.34-4-.66-6-1-.14,0-.26-.33-.31-.53a4.15,4.15,0,0,1,0-.79q0-23,0-45.95C35.69,83.38,36,83,37,82.89Zm5,1.69v45.66l-3.14-.55V85.13Zm0,48.61v12.55l-6.27-1.32V132.14ZM20.13,84c0-3,0-5.9,0-8.85,0-.76.17-1.12,1-1.33,4.68-1.21,9.34-2.49,14.11-3.77v74.28l-6.89-1.43c-2.33-.5-4.64-1.07-7-1.48-1-.18-1.22-.63-1.22-1.57Q20.14,111.87,20.13,84Zm-1.5,3.39c-3.16.53-6.3,1.2-9.51,1.82,0,.42,0,.79,0,1.17q0,17.08,0,34.17c0,.86.18,1.24,1.12,1.4,3.12.53,6.23,1.18,9.41,1.8v2l-7.73-1.44c-1.26-.23-2.51-.54-3.79-.7-.85-.11-1.11-.46-1.09-1.31.06-2.61,0-5.22,0-7.83C7,108.72,7,99,7,89.27c0-.93.23-1.28,1.19-1.45,3.76-.64,7.51-1.4,11.32-2.12C19.77,86.58,19.83,87.14,18.63,87.34Zm.95.45v39.65c-.36-.35-.61-.49-.68-.68a2.31,2.31,0,0,1,0-.79q0-18.56,0-37.12a6,6,0,0,1,.26-1.23ZM17.64,89.2a7.24,7.24,0,0,1,.27-1.34l.45.15v39.17c-.35-.32-.62-.45-.68-.65a2.69,2.69,0,0,1-.05-.9Q17.63,107.42,17.64,89.2Zm-.57-1v38.42c-1.93,0-1.93,0-1.93-1.84V90C15.14,88.19,15.16,88.17,17.07,88.22Zm-3.18,1.56a5.18,5.18,0,0,1,.28-1.21l.39.08v37.81c-.34-.31-.58-.44-.65-.63a2.29,2.29,0,0,1,0-.79Q13.88,107.42,13.89,89.78Zm-.53-1V126c-2-.26-2-.26-2-2.17V89.17ZM9.47,90.67c0-1,.33-1.45,1.4-1.31v36c-1.38.08-1.38.08-1.38-1.26Q9.49,107.39,9.47,90.67ZM1.84,78.92C7.42,77.45,13,76,18.59,74.46l1-.21v11l-13,2.47v1.17q0,18.8,0,37.57c0,1,.27,1.34,1.27,1.51,3.9.67,7.79,1.46,11.75,2.21V141l-7.39-1.55c-3.48-.73-6.94-1.5-10.42-2.19-.93-.18-1.19-.55-1.19-1.49q0-27.46,0-54.94A14.25,14.25,0,0,0,.4,79.05,8.57,8.57,0,0,0,1.84,78.92Zm130.29,94.73c0,.32,0,.65-.08,1.13-2.06-.52-4-1-6-1.52q-61.95-16-123.9-31.94C1,141,.38,140.58.58,139.3a13.27,13.27,0,0,0,0-1.91l8.12,1.7,59.42,12.65q31.49,6.7,63,13.38c.78.16,1,.46,1,1.26C132.1,168.8,132.13,171.22,132.13,173.65Zm160.24-11.83c-.07,1,0,2,0,3.05l-20.9-3.06v-4c1.59.2,3.11.38,4.63.6,5.08.74,10.16,1.5,15.24,2.21C292.12,160.71,292.42,161,292.37,161.82Zm.14,4.84L266,162.87c4.15-1.16,8.05-.26,12,.31,4.48.65,9,1.34,13.45,2C292.28,165.26,292.65,165.64,292.51,166.66Zm-.72-6.41-16.74-2.42,0-.31a22.43,22.43,0,0,1,3.47-.1c4.12.46,8.24,1,12.34,1.6.42.06.78.55,1.16.83Zm-14-7,6,.55c2.22.21,4.43.47,6.65.63.82.06,1.13.34,1.07,1.17s0,1.88,0,3c-1.53-.18-2.94-.34-4.34-.52-2.85-.36-5.69-.76-8.54-1.1-.6-.07-.88-.27-.85-.91C277.86,155.22,277.84,154.35,277.84,153.29Zm2.35-.39,10.5-.92,23.05-2c3-.25,5.95-.72,8.93-.69a73.58,73.58,0,0,1,8.19.93,3.3,3.3,0,0,1,1.36.43c-.28,0-.57.12-.86.15-11.3,1-22.61,1.83-33.89,3-5.26.53-10.4-.08-15.59-.55-.56-.05-1.12-.13-1.68-.19ZM292,158.72c0-1.27-.05-2.43,0-3.58,0-.22.55-.55.86-.58,2.9-.29,5.8-.52,8.71-.76l22.84-2L334,151v3.23Zm36.42-9.29a30.07,30.07,0,0,0-8.68-.39c-11.94,1.09-23.89,2.09-35.84,3.12-2.1.19-4.21.36-6.44.54v3.92l-59.33,5.8V153l189.36-14.29v7l-73,6.19c-.06-.57-.1-1-.14-1.48C332.34,150,330.36,149.82,328.4,149.43Zm-20.55-77.6,18.64-1.62,9-.79,1.09-.08v1.3L307.17,73C306.92,72.2,307.13,71.89,307.85,71.83Zm-12.55.52-.65,0V70.58l42-4c0,.48,0,.85.07,1.22.1.74-.25,1-.95,1q-10.51.9-21,1.83Zm23.06.38,18.27-1.49c0,.53,0,.93.07,1.52l-18.34,1.52Zm11,1.31c2.38-.24,4.77-.43,7.16-.64l.26.3c-.25.28-.47.77-.74.79-2.36.22-4.72.36-7.08.52l-.29-.34C328.93,74.45,329.14,74.07,329.39,74Zm11.72.32V72.93l8-.53v1.39Zm8-.13V136.1h-7.91V74.79Zm-7.94-1.73V70.44l7.94-.59V72Zm6.77-3c-2.22.14-4.43.3-6.77.46,0-.45,0-.83-.07-1.36l8-.8C349.3,69.44,349.3,69.44,347.9,69.53Zm5.61,5.4c0-1.16.35-1.49,1.44-1.53,2-.07,4-.28,6-.43,0-.13,0-.26,0-.39l-7.28.51c0-.42-.05-.81-.08-1.36l8-.63v65h-8v-1.44Q353.54,104.79,353.51,74.93Zm.14-3.65V69.84l8-.67v1.49Zm8.68,70.19V69.13l2.37-.24v72.39Zm3.14-68.94v-2l6.77-.38V72Zm6.74-.12v64.3h-6.72V73Zm15.06,65.15,16,.64v.17l-16.05,1.23Zm-9.06-71.78,4.28.43-4.28.83Zm0,1.91,4.62.28c0-.16,0-.32.05-.49L380,67.16V67l7.23-.45v4.17l-10.57.6c0-1-.09-1.34,1-1.84,1.64-.77,3.07-.11,4.57-.25a4.18,4.18,0,0,0,.7-.16c0-.11,0-.22,0-.33l-4.72-.5Zm5.25,3.65v66h-6.77V71.73Zm-6.84-6c.82-.2,1.15,0,1.12.82,0,.94,0,1.88,0,2.8-1.06.23-1.08.23-1.1-.6C376.58,67.35,376.6,66.34,376.6,65.34Zm-.11,74.8c.06-.7.12-1.4.18-2.08h6.72c.11.6.19,1,.27,1.43l.33,0V71.37l2.53-.23v68.51l-21,1.59v-3.82h6.79v2.7l.34.07a2.4,2.4,0,0,0,.24-.76c0-1.28,0-2.57,0-3.85V70h3.18v70.08Zm-5.67-75-2.78.27C368,64.6,368.89,64.48,370.82,65.14Zm-5.37-1.27,1.93.26V68.5h-1.93ZM366.3,69c.61,0,1.36.36,1.78-.51.06-.12.56-.06.86,0q1.94.12,3.87.27c0-.16,0-.31.05-.47L368,67.71V66.5l5.42.35c0-.16,0-.31,0-.47L370.81,66l0-.23,4.83-.44v4.1L365.54,70C365.22,69.13,365.55,68.93,366.3,69Zm-1.57-5.13v4.64l-11.06,1c-.1-.61-.18-1.12-.26-1.64l-.32,0V142l.34,0v-5.22h8.13v4.74l-20.4,1.55v-6.27h8.09V142h.43V67.57L361,67.21a2.64,2.64,0,0,0,0-.29l-4.64-.42V65.31l4.62.24c0-.17,0-.35,0-.53l-4.2-.33v-.18Zm-8.39-1,6,.63v.17l-6,.51Zm-3.12-.31,2.56.18v4.18h-2.56Zm-9.32-.92,5.43.54,0,.2L343.9,63Zm5.82,2.74.06-.48-3.36-.29,0-.2,6.27-.86v4.39L341.2,68l-.3-1.44-.36,0v76.5l-3.17.29v-77L349.7,66a4.89,4.89,0,0,0-2.72-.51c-1-.07-2-.11-3.05-.17,0-.4-.05-.75-.08-1.25Zm-8.92-3.68,2.37.3v4.59H340.8Zm-58.65,6.27,57.93-6.28v5l-57.93,5.53Zm-10,.85,9.31.57v3.52l12.47-1.18v2.41L306.38,72c0,.62.06,1.07.09,1.68l11.17-.87c0,.73.07,1.39.1,2.14l10.58-.85c.05.48.08.84.13,1.35l8.18-.52v61.22l-64.49,3.11Zm-16.21,1.53,15.45-1.5v71.48l-15.45-.84Zm-12.56,67.8c0-.56,0-1.13,0-1.7V83.08l10.34.53v54.65l.26.07a1.82,1.82,0,0,0,.29-.55,6.92,6.92,0,0,0,0-1q0-25.89.05-51.78a10.45,10.45,0,0,1,.37-1.9l-11.26-.63V68.37l11.77.92v69.32l-6.38-.28c-1.47-.07-3-.18-4.42-.21C243.66,138.11,243.29,137.89,243.37,137.07ZM197.78,168l-65.12,6.85v-9.47l65.12-5.63Zm.05-16.92c0,2.34,0,4.69,0,7v1.2l-65.16,5.64V44.06l5.83.59,20.65,2.16,23,2.41,20.43,2.13,23.13,2.43c5.31.55,10.61,1.13,15.92,1.64.83.08,1.16.25,1.16,1.18q0,44.75,0,89.47V147l-12.59.89q-12.51.88-25,1.74c-2.08.15-4.16.28-6.24.32C198.11,150,197.81,150.19,197.83,151.05Zm19.7,20.41-10.29-1.85c-2.68-.48-5.35-1-8-1.49-.29-.06-.72-.46-.73-.71-.05-2.49,0-5,0-7.65L217.53,163Zm.07-9-7.72-1.26c-3.5-.59-7-1.17-10.49-1.79-.34-.07-.88-.46-.89-.71-.07-2.63,0-5.28,0-8.13,1.58.17,3.06.32,4.53.51,4.53.57,9.06,1.17,13.59,1.72.74.08,1,.26,1,1.07C217.57,156.74,217.6,159.57,217.6,162.51Zm-9.38-11.32a38.55,38.55,0,0,1-5.06-.8c1.72-.13,3.44-.28,5.16-.4l31-2.13c1.06-.07,2.12-.19,3.17-.21.72,0,.89-.33.88-1,0-2.23,0-4.46,0-6.7v-1.09c1.84,0,3.53,0,5.22,0,2,.07,4,.23,6,.32,5.69.24,11.38.55,17.07.64,3.32.05,6.65-.28,10-.44l25.74-1.27,27.32-1.31c.6,0,1.2,0,1.94,0v6.56c-1.33.12-2.66.25-4,.35q-11.26.84-22.52,1.68l-22.63,1.73L265,148.82l-22.63,1.72c-7.39.56-14.79,1.07-22.18,1.69C216.11,152.56,212.2,151.55,208.22,151.19Zm52.91,15.74-35.75,3.71-7.28.77V162.9l52.52-5.29v4.18c-1.82.2-3.61.45-5.41.57-1,.07-1.27.44-1.25,1.4C264,166.61,264,166.63,261.13,166.93Zm31.58,4.2-28-3.92v-3.92l28,4Zm-.62-11.94c1-.13,1.91-.27,2.86-.37,12.06-1.28,24.12-2.62,36.19-3.81,3.22-.31,6.49-.16,9.73-.21a2.6,2.6,0,0,1,.62.11v.17l-9,1-24.22,2.65c-5,.54-9.92,1.07-14.88,1.64C292.55,160.47,292.27,160.05,292.09,159.19Zm.74,1.63L347,154.91c0,1.08,0,2.09,0,3.08,0,.21-.48.52-.76.56-5.75.71-11.49,1.39-17.24,2.08l-23.65,2.84L292.83,165Zm66.64,1.6c0,.25-.5.62-.8.66-5.7.72-11.41,1.39-17.11,2.09L318.25,168l-25,3v-3.84l66.22-7.93C359.51,160.4,359.56,161.42,359.47,162.42Zm-4.4-3.54v.31l-8.15,1L323.17,163l-23.66,2.82c-1.8.22-3.61.42-5.4.67-.82.12-1.25-.1-1.17-1.13l13.31-1.6L330,160.93c5.78-.69,11.55-1.46,17.35-2C349.91,158.68,352.5,158.88,355.07,158.88Zm52.4-8.08c0,.17-.49.42-.77.45-3.87.42-7.75.8-11.62,1.2L372,154.84,351.19,157l-3.74.36v-3H334.53v-2.15l73-6.18C407.51,147.67,407.53,149.24,407.47,150.8Z"/>
    <line class="cls-3" x1="0.21" y1="79.21" x2="9.4" y2="76.69"/>
  </g>
</svg>
