<svg id="Слой_1" data-name="Слой 1" xmlns="http://www.w3.org/2000/svg" width="144mm" height="77.22mm" viewBox="0 0 408.19 218.89">
  <defs>
    <style>
      .cls-1 {
        fill: #fff;
      }
    </style>
  </defs>
  <title>VIRTINA каталог 02</title>
  <g>
    <path class="cls-1" d="M335.09,179.24a1.63,1.63,0,0,0-.14.29c-.21,2-.21,1.95-2.25,2.13q-15.79,1.38-31.58,2.79-6,.53-11.92,1a4.42,4.42,0,0,1-1.31-.13,21.48,21.48,0,0,1-2.88-.79c-4.7-1.84-9.54-1.44-14.41-1.07-7.37.55-14.75,1-22.12,1.48l-25.67,1.69-21.46,1.41-25.88,1.71q-10.84.7-21.68,1.41c-8.52.55-17,1-25.55,1.74a62.28,62.28,0,0,1-15.19-.95c-9.6-1.49-19.21-2.91-28.81-4.35L55.65,183.3,29.7,179.39l-11.91-1.81v-1.26q.32-53.56.6-107.12c0-1,.36-1.29,1.27-1.61,3.51-1.26,7-2.64,10.42-4.05q45.81-18.66,91.61-37.38c1.75-.71,3.45-.13,5.11.13,5.83.93,11.63,2,17.44,3.07q23,4.16,46.07,8.34c.69.13,1.39.22,2.06.4a13.13,13.13,0,0,0,7.7-.21c1-.33,2.31.11,3.46.31q27.83,5.07,55.64,10.16,23.35,4.28,46.72,8.55l49.24,9c1.93.35,3.84.75,5.77,1,.76.11,1,.4,1,1.13,0,3,0,6.06,0,9.1v1.3l7.68,1.33q10,1.7,20,3.35c.63.1.94.33.86,1a4.85,4.85,0,0,0,0,.66v86.8l-28.32,1.74v4.44ZM315.66,71.15c0,.57,0,1,0,1.52l.3,82.39c0,3.14.05,6.28.05,9.42,0,.62.13.93.84,1,4.24.27,8.48.6,12.72.89,1.75.12,3.51.21,5.37.32V174l26.51-1.27V67.47L201.15,38.2V53.37ZM82.17,162.8V75.07c-4.49.72-8.57,3.22-13.34,2.58V72.6c-.45.13-.8.21-1.14.32-3.52,1.09-7,2.24-10.58,3.24a21.34,21.34,0,0,1-3.84.39c0-1.71,0-3.15,0-4.59,0-.79.26-1.1,1-1.29s1.68-.55,2.52-.84Q85.39,60.2,114,50.55a9,9,0,0,0,1-.5l-.12-.3c-.41.12-.82.22-1.22.35q-32.77,11-65.57,22c-1.3.44-2.66.68-4.12,1v90.6ZM199.75,167l75.54-2.49V79L199.75,68.26ZM18.23,172.25,37,174.75l27.57,3.64q12.19,1.61,24.38,3.24l26.14,3.47a45.83,45.83,0,0,0,10.14.7c3.38-.32,6.78-.42,10.18-.61q12.78-.7,25.57-1.41c10-.55,19.92-1.13,29.89-1.68l25.79-1.42q16.88-.93,33.76-1.9,14.94-.84,29.89-1.64c1.17-.06,2.33-.16,3.61-.25v-3.46l31.68-2v-4.05l-4.92.24-37.1,1.63-46.63,2.13-49.29,2.22-49.4,2.21a49.25,49.25,0,0,1-6.75.2c-7.54-.71-15.06-1.62-22.58-2.45l-25-2.79-25-2.74c-9-1-18.06-2-27.09-3-1.15-.12-1.35-.49-1.35-1.54q0-47.07,0-94.14V68c-1.31-.09-1.67.43-1.67,1.63q-.26,50.67-.57,101.35ZM43.5,65.56l-1.1.37c-4.55,1.72-9.1,3.45-13.67,5.13a1.47,1.47,0,0,0-1.17,1.64q0,45.29,0,90.57v1.29l15.92.8ZM283.63,177.67v-.18c-.88,0-1.77,0-2.65,0q-9.24.5-18.48,1l-25.36,1.4-30.33,1.7L181.35,183,151,184.73c-7.38.42-14.76.86-22.14,1.24a65.56,65.56,0,0,1-8.63.19c-4.19-.34-8.35-1.08-12.52-1.63L78.4,180.67,50.5,177l-26-3.47-6.19-.79v4.54L29.84,179,56.78,183l28.81,4.36c9.64,1.45,19.27,2.93,28.92,4.33,3.31.49,6.59,1.34,10,1,1.76-.19,3.54-.27,5.31-.39q16-1,32.08-2.08,17.7-1.15,35.4-2.35l32.08-2.08,43.7-2.87c1.83-.12,3.66-.27,5.57-.41v-4.18ZM275.8,79v83.91a3.26,3.26,0,0,0,0,1c.08.25.34.6.55.61,1.46.13,2.93.18,4.55.26-.15-23.25-.3-46.4-.44-69.64l29.86-2.92v74.24l5.26.27c-.13-31.71-.26-63.28-.39-95Zm106,22.32V157l-19.67.53v15.41l27.74-1.69V83.65L362,78.93a3.28,3.28,0,0,0-.09.54q0,9.38,0,18.74c0,.63.26.83.84.89q5.94.66,11.89,1.36ZM313.72,71.55l0-.29-12.13-1.88L271,64.65Q254.3,62,237.56,59.43c-10.84-1.69-21.68-3.32-32.5-5.08a16.83,16.83,0,0,0-8.25.37c-3.19,1.05-6.47,1.79-9.71,2.67l-4.43,1.19V65.4L192,66.73V65.41c0-2.52,0-5,0-7.54,0-.36.14-1,.35-1,2.31-.7,4.66-1.32,7.2-2v13l5.54.78,32,4.57c11.37,1.61,22.73,3.24,34.11,4.82a18.81,18.81,0,0,0,5.47.35c9-1.53,18-3.27,27-4.93ZM24.8,164.74v.2l3.51.37,21.15,2.35,21,2.33,23.13,2.56c7,.78,14.09,1.6,21.15,2.33,3.15.32,6.32.59,9.49.66,2.69.05,5.39-.22,8.08-.34L158.82,174l32.78-1.48,26.59-1.19,27.47-1.24,22.48-1,22-1,21.7-1a14.38,14.38,0,0,0-2.6-.35q-11.13-.65-22.25-1.26c-4-.22-8-.61-12-.54-9.34.17-18.69.58-28,.88l-43.77,1.41c-1.14,0-2.27.12-3.41.19l-.1,2.44h-7.67l-.11-2h-9.18v2.43h-7.65l-.12-1.89H163.7v2.26H156c0-.64,0-1.19,0-1.74.08-.81-.19-1.09-1-1.12-1.92,0-3.84-.24-5.76-.36l-5.07-.28v4.39h-7.73c0-1.32,0-2.58,0-3.82,0-.86-.25-1.16-1.1-1.2-2.77-.13-5.54-.32-8.3-.49l-4.19-.26v6.22h-7.75c0-1.86-.06-3.67,0-5.47.06-1.08-.33-1.33-1.36-1.39-6.5-.36-13-.84-19.48-1.22-4.9-.28-9.81-.72-14.72-.66-11.42.14-22.83.54-34.25.83-.4,0-.8,0-1.23.07l-.17,1.63ZM82.71,74.79v88l5.23.33v-69c.39-.11.68-.2,1-.26q12.46-2.59,24.94-5.16c.9-.18,1.25-.5,1.25-1.49,0-6.8,0-13.6,0-20.4,0-.38,0-.76-.08-1.25ZM175,167.91V64.74l-9.43-1.34V167.91Zm-52.77,3.71V35.38c-2,.66-3.76,1.31-5.57,1.8-1,.27-1.23.72-1.23,1.7q0,65.75,0,131.48v1.26ZM182.79,65.85V167.29H192V68.84a2.72,2.72,0,0,0,0-1c-.12-.31-.4-.73-.66-.77C188.49,66.63,185.64,66.25,182.79,65.85ZM143.5,171.21V39.74c-2.05.65-3.83,1.26-5.64,1.75-.89.24-1.1.69-1.1,1.56q0,63.48,0,127c0,.39,0,.77.06,1.19Zm12.87-.89h6.77V42.76c-2,.61-3.77,1.22-5.58,1.69A1.34,1.34,0,0,0,156.35,46q0,61.53,0,123.06Zm25.86-.37V45.81c-2,.59-3.78,1.19-5.61,1.63-1,.24-1.14.72-1.14,1.62q0,59.82,0,119.65V170Zm10.2-.37c2,0,3.85-.06,5.69,0,1,0,1.3-.25,1.3-1.29q-.16-55.77-.29-111.54V55.38c-1.89.51-3.58,1-5.3,1.41-1.08.24-1.44.68-1.43,1.85q0,54.71,0,109.43ZM20.89,72.64c.51-.18.89-.3,1.26-.45L102.5,41.27Q112,37.63,121.39,34c.35-.14.85-.51.86-.78.07-2.21,0-4.42,0-6.76-.5.18-.87.3-1.24.45l-80.85,33c-6.15,2.51-12.3,5-18.44,7.55-.34.14-.81.51-.83.8C20.84,69.64,20.89,71.07,20.89,72.64ZM152.51,84.07c-2.44.47-4.86,1-7.3,1.39-1.06.16-1.24.6-1.24,1.58q.1,33.93.14,67.86a3,3,0,0,0,0,1c.08.24.38.58.58.58,2.54,0,5.08,0,7.79,0ZM309.84,166.4V92.66l-5.81.55c-7.24.71-14.48,1.45-21.73,2.11-1.12.1-1.44.42-1.44,1.57q.27,33.37.46,66.75c0,.36,0,.71.06,1.15ZM21,73.42v90.8h6.16V72.47a20.41,20.41,0,0,1-3,.91A20.65,20.65,0,0,1,21,73.42Zm134.93,94.1V53.78c-.38.08-.67.13-.95.21-3.3.95-6.58,1.93-9.9,2.83-.89.24-1.12.64-1.11,1.53C144,66,144,73.58,144,81.19v1.18l10.19-2.1v81.2l-9.94-.43v5.73ZM122.71,89.88v1.17l.09,63.3a2,2,0,0,0,0,.77c.13.27.4.67.61.67,2.1.05,4.19,0,6.46,0V88.49Zm-7.8-.94a3.35,3.35,0,0,0-.63,0c-8.23,1.72-16.46,3.46-24.7,5.13-1,.21-1.25.6-1.25,1.59q0,33.09,0,66.17v1.3l11.58.74v-5.28l15.13.65v-1.94c0-1.41,0-1.42-1.45-1.44h-4.28V92.06l4.26-.86C115.25,90.87,115.29,90.82,114.91,88.94Zm255.23,13.51-8.05-.87V155h8.05ZM115.05,41c-.48.16-.82.27-1.16.4L70.47,57.29Q57.69,62,44.92,66.7c-.37.14-.89.53-.91.83-.1,1.54,0,3.09,0,4.73.46-.14.81-.24,1.15-.36L94,54.9q10-3.49,20.06-7c.36-.13.91-.47.92-.73C115.08,45.14,115.05,43.12,115.05,41Zm0,50.42c-1.42.27-2.68.61-4,.73s-1.38.62-1.38,1.7q0,30,0,60.09a4.16,4.16,0,0,0,0,1c.05.19.29.48.45.48,1.61,0,3.22,0,4.84,0Zm21.31-32c-.34.08-.58.13-.82.2-3.93,1.14-7.85,2.31-11.8,3.4-.85.23-1,.64-1,1.47,0,7.05,0,14.11,0,21.17v1.18L136.31,84ZM115.05,50.7c-.54.15-.86.23-1.17.34l-41,13.81q-9.07,3-18.15,6.12c-.37.12-1,.42-1,.68-.1,1.37-.05,2.76-.05,4.25.52-.14.88-.21,1.22-.32L96.27,62.44q8.91-2.84,17.82-5.69c.36-.11.9-.46.92-.72C115.09,54.3,115.05,52.57,115.05,50.7Zm50,117.42V90.8c0-8.94,0-17.89,0-26.83a1.21,1.21,0,0,1,1.09-1.41c2.72-.69,5.42-1.46,8.14-2.15a.9.9,0,0,0,.81-1.06c0-1.84,0-3.69,0-5.54v-5.6l-1.09.28c-3.08.89-6.15,1.83-9.26,2.64a1.37,1.37,0,0,0-1.25,1.62q.17,57,.25,114V168Zm-28.8-12V87.24a23.45,23.45,0,0,1-2.71.5c-1,.07-1.3.51-1.3,1.53q0,32.76,0,65.54v1.28ZM199.35,39.42v.49c-2.57-1.24-4.87-.12-7.25.7L199,41.92a.64.64,0,0,1-.63.25c-2-.35-4-.63-6-1.09a6.85,6.85,0,0,0-4.16.43v2.76l10.76,2a1,1,0,0,1-.86.26c-1.35-.24-2.69-.51-4-.74-3.48-.59-7-1.85-10.46-.08a.57.57,0,0,1-.22.07c-.7.07-.84.49-.83,1.14,0,3.48,0,7,0,10.42a7.33,7.33,0,0,0,.07.77c.22,0,.36,0,.5-.09,5.52-1.48,11-3,16.57-4.43a1,1,0,0,0,.92-1.22c0-4.43,0-8.87,0-13.3a9,9,0,0,0-.09-.93l-3,.81ZM69.26,77.26c.61-.16,1.11-.28,1.6-.42L89.32,71.4q12.35-3.65,24.71-7.31c.38-.11,1-.49,1-.76.09-1.65,0-3.31,0-5.08l-1.3.38-19,5.89q-12.26,3.8-24.51,7.62c-.37.11-.91.51-.93.8C69.2,74.33,69.26,75.73,69.26,77.26ZM362,101.13l8.57,1v53.42H362.1v1.57l19.32-.52a7.83,7.83,0,0,0,.09-.84q0-26.55,0-53.1c0-.76-.25-1-1-1.08-3.63-.38-7.26-.84-10.89-1.25L362,99.43ZM334.44,167h-3.12v11l-42.2,3.43v3.58c1.56-.13,3-.23,4.49-.36q20-1.74,39.95-3.49c.8-.06,1-.37,1-1.1,0-4.06,0-8.12,0-12.19C334.5,167.66,334.47,167.41,334.44,167ZM122.76,89.43c2.16-.41,4.22-.81,6.29-1.19,1.43-.27,1.43-.27,1.43,1.24q-.1,32.86-.23,65.73c0,.36,0,.72,0,1.11h-7.3v3.34l13.47.59c0-1,0-1.83,0-2.66s-.3-1-1-1c-1.13,0-2.26,0-3.42,0V87.66c1.25-.25,2.44-.52,3.64-.71.58-.1.85-.32.81-.93s0-1,0-1.63l-13.62,2.84ZM21.81,72.79l.06.32a26.65,26.65,0,0,0,3-.36c1.14-.26,2-1.26,3-1.66,5.09-2.15,10.32-4,15.5-5.93a2,2,0,0,1,.5-.12c.42,1.06,1,.27,1.48.11q34.32-12.78,68.63-25.61c.79-.29,1.3-.59,1.17-1.53a.93.93,0,0,1,.35-.79c2.32-.81,4.66-1.57,7-2.36l.27,1.38,4.19-1.59-.08-.27c-2,.14-3.86-.59-5.88.19Q73.13,53.05,25.25,71.44C24.1,71.88,23,72.34,21.81,72.79ZM122.63,44.71a2.25,2.25,0,0,0,.32.07q10.52-3.63,21-7.27a.86.86,0,0,0,.48-.59c0-2.24,0-4.47,0-6.84L141,31.36l2.11.51-.07.29L141.92,32a5,5,0,0,0-1.95-.22c-2.23.71-4.4,1.58-6.89,2.51L142.73,36l0,.31c-.32,0-.65,0-1-.09-2.95-.51-5.89-1-8.83-1.55a2.27,2.27,0,0,0-1.07,0c-2.85,1-5.69,2.07-8.52,3.15-.27.1-.64.47-.64.72C122.6,40.66,122.63,42.68,122.63,44.71ZM290.42,179.42l35.68-2.91V173l-35.68,2.39ZM162.38,39.6l-.06.36-2.41-.4c-2.62-.46-5.24-1.31-7.85-1.25-2,0-4.06,1.21-6.09,1.88s-2.09.71-2.08,2.94v4.14c6.68-2.14,13.11-4.18,19.53-6.26.24-.08.58-.41.59-.63,0-2,0-4.05,0-6.23l-2.47.85,1.62.49,0,.3c-3.67-1.15-6.55,1.26-9.8,2.15ZM144,85.28l7.54-1.45c1.53-.29,1.53-.28,1.53,1.24q-.11,35.46-.22,70.93c0,.36,0,.72,0,1h-8.66v3.58l9.6.43V80.76l-9.74,2ZM361.57,173.1,335,174.37v4.45l26.58-1.42ZM180.94,42.84l0,.28a3,3,0,0,1-.6,0c-2.25-.38-4.5-.8-6.76-1.15a16.64,16.64,0,0,0-4.46-.47,26.32,26.32,0,0,0-5,1.48c-.25.08-.61.33-.61.51-.05,2,0,3.93,0,6,6.39-1.89,12.57-3.71,18.75-5.55.2-.06.49-.31.5-.47,0-1.83,0-3.65,0-5.59l-2.08.5,1.28.5c-4-.81-7.4,1.46-11.12,1.84l0,.33ZM330.88,177.32V166.88l-14.76-1.08v5.63l10.48.92v4.15ZM122.65,53.83c.2,0,.24.06.27.05q6.48-2,13-4.07a.73.73,0,0,0,.46-.51c0-1.9,0-3.8,0-5.85-4.52,1.53-8.85,3-13.16,4.46a1.07,1.07,0,0,0-.54.8C122.62,50.4,122.65,52.09,122.65,53.83Zm13.72-2.21c-4.51,1.39-8.8,2.72-13.08,4.06-.24.08-.58.34-.59.53,0,1.74,0,3.49,0,5.38,4.53-1.34,8.87-2.62,13.2-3.93a.86.86,0,0,0,.47-.61C136.39,55.29,136.37,53.54,136.37,51.62Zm0,114.65c0-1.63,0-3.1,0-4.56,0-.83-.25-1.09-1.06-1.11-3.8-.13-7.59-.32-11.39-.48-.35,0-.7,0-1.06,0v5.28ZM115,159.72l-14.59-.65V164l14.59.92Zm28.94-104.4c4-1.18,7.76-2.29,11.53-3.43.2-.06.48-.32.48-.49,0-1.9,0-3.8,0-5.86-4,1.24-7.78,2.42-11.57,3.62a.86.86,0,0,0-.44.63C143.91,51.56,143.92,53.33,143.92,55.32Zm-98.64,17,.09.31c1-.32,2-.63,3-1l65.57-22c.7-.24,1.52-.38,1-1.52Zm69.6-32.67L43.94,66.12l.13.37c.33-.1.67-.2,1-.32l53.2-19.53,15.89-5.84C114.64,40.62,115.32,40.54,114.88,39.62Zm209,133.08v-.28c-3.28-.17-6.56-.58-9.82-.44-8.05.35-16.09,1-24.13,1.46l-4.46.32,0,.38a36,36,0,0,0,5.7.71c4-.09,8-.48,11.95-.75Zm-34.45,7.84.17.47,39.84-3.23v-.48c-1.65-.08-3.31-.31-5-.23-3.2.17-6.4.51-9.6.77-7.94.66-15.89,1.29-23.83,2A5.69,5.69,0,0,0,289.46,180.54ZM128.07,26.83l-5.31-.63v7.48l5.31.41Zm60.08,13c2.52,1.18,4.64-.15,6.88-.79l-25.49-4.63v2.18c2.94.53,5.8,1.09,8.67,1.56a5.16,5.16,0,0,0,2.38-.12c2.52-.88,5-.31,7.56,0ZM114.89,57,55.5,75.82l.08.29c.53-.12,1.07-.21,1.58-.37L96.79,63.45q8.67-2.7,17.34-5.37C114.61,57.93,115.32,57.89,114.89,57ZM288.57,181.43l-9.43-2.52c-.47,3.46-.42,3.54,2.63,4.37l.2.07,6.6,1.71ZM149.73,37.51c0-2.17,0-4.19,0-6.21a.9.9,0,0,0-.58-.62c-1.36-.26-2.74-.45-4.17-.67v7.23Zm-1.33.59,0-.38A17.72,17.72,0,0,0,144,38c-6.84,2.25-13.61,4.68-20.42,7-.88.31-1.2.72-.83,1.71,2.42-.81,4.87-1.5,7.22-2.44A57,57,0,0,0,137,41.55a17.08,17.08,0,0,1,7.49-2.16C145.78,39.32,147.08,38.55,148.4,38.1ZM169,40.76V34.64L164.46,34c0,2.17,0,4.19,0,6.21,0,.2.31.55.48.55C166.28,40.78,167.59,40.76,169,40.76ZM143.72,29.9l0-.21L128.67,27c-.34,2.08-.34,2.1,1.41,2.43q4.72.88,9.47,1.74a2.09,2.09,0,0,0,1-.07C141.59,30.71,142.65,30.29,143.72,29.9ZM128.6,33.54c1.26.18,2.61.74,3.77.47A59.88,59.88,0,0,0,139,31.65l0-.19L128.6,29.55ZM71.46,77.1l.07.3c.61-.12,1.22-.2,1.82-.37L101,69.13q6.54-1.86,13.08-3.75c.45-.14,1.21-.1.84-1.09Zm78.83-46.22c-.36,2.09-.36,2.1,1.46,2.44,2.28.42,4.6.72,6.84,1.29,2.08.52,3.74-.42,5.54-1.22ZM187.64,43.8V38.26l-4.36-.4V43.8Zm-20-2.32-.05-.15a13.14,13.14,0,0,0-3.66.05c-6.43,1.94-12.8,4-19.2,6.06-.73.23-1,.59-.54,1.44,4-1.85,8.38-2.26,12.33-4.38a14.63,14.63,0,0,1,7.47-2C165.14,42.59,166.37,41.86,167.59,41.48Zm18.64,2.88a14.78,14.78,0,0,0-3.72,0c-6.11,1.7-12.17,3.55-18.25,5.33-.72.21-1,.55-.6,1.3Zm-36.08-10.9c0,1.23,0,2.33,0,3.43,0,.19.24.52.4.53a7.39,7.39,0,0,0,2.15,0,26.46,26.46,0,0,0,2.94-1l3.49-1.2,0-.23Zm139.8,146c0-1.26,0-2.4,0-3.53a.76.76,0,0,0-.37-.56c-1.71-.38-3.43-.72-5.3-1.1,0,1.11,0,2.06,0,3a.85.85,0,0,0,.48.61C286.46,178.37,288.15,178.86,290,179.41ZM169.53,40.74l8.21-2,0-.27L169.53,37Zm-2.86,22.14,0,.25L175,64.32V60.64ZM136.5,50.46l-.33-.29c-4.32,1.37-8.63,2.74-12.94,4.15-.28.1-.45.52-.77.92.38.06.46.09.52.07,4.26-1.31,8.53-2.61,12.78-4C136.07,51.25,136.25,50.77,136.5,50.46Zm19.55,2-.26-.26c-3.81,1.13-7.63,2.24-11.43,3.41-.23.07-.33.53-.49.81,4-.88,7.82-2,11.59-3.09C155.72,53.3,155.85,52.81,156.05,52.51Zm133.54,127.3c-4.6-1.8-5.81-1.95-9.51-1.17.38.14.64.26.91.33,2.24.6,4.5,1.14,6.72,1.82C288.73,181.11,289.21,180.76,289.59,179.81Zm-167-117.29.26.32c4.34-1.27,8.68-2.53,13-3.83.25-.08.41-.47.69-.82-.37-.07-.45-.11-.51-.09-4.28,1.25-8.55,2.5-12.81,3.78C123,62,122.8,62.3,122.59,62.52Zm-.07-25.24.31.34,8.48-3.15c-1.38-.3-2.26-.55-3.39.2-1.33.89-3,1.2-4.58,1.82C123,36.62,122.79,37,122.52,37.28ZM136.31,43l-.12-.35L122.7,47.2l.12.38Zm7.66-3,.09.35,6.82-2.3-.11-.33Z"/>
    <path class="cls-1" d="M253.53,160.09l-51.56,1V81.79l51.56,5.47Zm-51.16.56,50.75-1V87.63l-50.75-5.39Z"/>
    <path class="cls-1" d="M307.66,163.32l-14.32-.63V107.34l14.79-.77C308,125.52,307.82,144.32,307.66,163.32Zm-.41-.43c.15-18.72.31-37.25.46-55.88l-13.94.72v54.56Z"/>
    <path class="cls-1" d="M282.82,107.87l8.32-.4v55h-8C283,144.21,282.93,126.11,282.82,107.87Zm.63.39V162h7.29V107.9Z"/>
    <path class="cls-1" d="M282.73,104.88c0-2.52,0-4.91,0-7.3,0-.22.59-.57.93-.61,3.71-.4,7.42-.76,11.14-1.12,4.19-.41,8.38-.8,12.57-1.2.21,0,.43,0,.71,0V103Zm.41-.44,24.55-1.81V95l-5.62.54c-6.07.59-12.13,1.18-18.19,1.81a1,1,0,0,0-.71.69C283.12,100.13,283.14,102.2,283.14,104.44Z"/>
    <path class="cls-1" d="M108.68,92.19v63.38H100V93.85Zm-.44.5c-2.23.43-4.39.92-6.58,1.23-1,.15-1.21.57-1.21,1.5q0,29.22-.16,58.42v1.32h7.95Z"/>
    <path class="cls-1" d="M98,108.52v53.2l-7.22-.48v-1.35q0-24.45,0-48.9c0-1,.17-1.43,1.26-1.54C94,109.25,96,108.85,98,108.52Zm-.44,52.76V109l-6.28,1v50.84Z"/>
    <path class="cls-1" d="M90.88,95.61l7.56-1.42v1.86c0,3.32,0,6.64,0,10,0,.75-.23,1-1,1.11-1.83.22-3.64.54-5.47.81-.35,0-.71,0-1.12.07Zm7.08-.9c-2.1.39-4.09.72-6.07,1.15a1.17,1.17,0,0,0-.62.9c-.07,1.47,0,2.95,0,4.43v6.42l6.72-1Z"/>
    <path class="cls-1" d="M379.58,155.21h-8.13v-53l8.13.86Zm-7.72-52.54V154.8h7.39V104.91a2,2,0,0,0,0-.77c-.16-.29-.42-.72-.68-.75C376.36,103.11,374.15,102.91,371.86,102.67Z"/>
    <path class="cls-1" d="M203.35,84.84l15.17,1.61v71.8H203.35Zm.41.47v72.52h14.33c0-.46.07-.71.07-1q0-34.53,0-69.05c0-.82-.27-1.06-1.06-1.13-2.61-.23-5.21-.55-7.82-.82Z"/>
    <path class="cls-1" d="M235.35,158H219.89V86.61l15.46,1.59Zm-.44-.43v-69l-14.62-1.5v70.48Z"/>
    <path class="cls-1" d="M236.81,88.42l7.78.8c1.79.19,3.59.44,5.39.57.82,0,1.06.33,1.05,1.13,0,4,0,8.06,0,12.09v54.61H236.81Zm.42,69h1.14c3.66-.07,7.32-.18,11-.2,1,0,1.29-.29,1.29-1.31q0-32.22,0-64.43c0-.39-.05-.77-.08-1.19l-13.31-1.41Z"/>
  </g>
</svg>
