<svg id="Layer_1" data-name="Layer 1" xmlns="http://www.w3.org/2000/svg" xmlns:xlink="http://www.w3.org/1999/xlink" viewBox="0 0 1110 600"><defs><style>.cls-1{fill:#fff;}.cls-2,.cls-4{fill:none;}.cls-2,.cls-4,.cls-5,.cls-6{stroke:#fff;}.cls-3{mask:url(#mask);}.cls-4,.cls-5{stroke-width:1.26px;}.cls-6{stroke-miterlimit:10;stroke-width:2px;}</style><mask id="mask" x="161.96" y="148.44" width="789.83" height="308.15" maskUnits="userSpaceOnUse"><g id="mask-2"><path id="path-1" class="cls-1" d="M245.51,161.74l645.58-13.3q8.83,56.82,17.52,78.71c.66,1.67,3.92,6.71.58,9.56q-1,.84-7.78.79a6,6,0,0,1-2.57.52c-1.52-.23-2.78-1.23-3.59-.52q-1.85,1.63-1.37,5.68-1.85,10.33-1.23,13.3a8.35,8.35,0,0,0,2.6,4.71c1,.73,2.3.23,2.7,1.19,1.07,2.63,2,5.09,3.15,5.36.4.1,1.06-.41,2-1.52l.67,9.3a4.81,4.81,0,0,1-.67,3.08,17.93,17.93,0,0,1-3.91,3q-.35,5.65.36,6.57c.47.61,1.66.35,3.55-.79l2.9,19.52,45.79-5.35V456.59H163.46q-4.71-134.59,5.35-159.2c.29-.72.35,1,2,1.05s2.76,1.32,4.05,3.08A70.72,70.72,0,0,1,180.41,312a9.43,9.43,0,0,0,2.37-.3,6.37,6.37,0,0,0,2.25-1.56c.91-.76.58-2.94,1.88-2.33.55.26,1.13,1.41,1.83,1.36.93-.07,2-1.39,2.76-1.36,2.17.1,1.34,1.53,2.89,3.1a2.92,2.92,0,0,0,3.94.18c.24-.35.89-1,1.69-1.92.32-.35.35,1.62,1.55,1.74s3.39-1.62,3.72-2,1.25-3.58.82-4.27c-.32-.53-1.85,1.36-2,.71-.22-.83.58-2.19.77-2.65.41-1-1.28-.34-1.24-1.33,0-.46-1-1.91,1.11-2.59,1.57-.51,5.19.11,5.89-1.61-.19-1.23,1.16-20.37.43-21.35a7.08,7.08,0,0,0-2.77-1.59,14.93,14.93,0,0,0-2.81-.48l-.18-2.28-4.12-.77.59-3.38L200,264.59a24.35,24.35,0,0,0,5.48-2.2,7,7,0,0,0,2.55-2.88l17.66-22.8,3-14.37Z"/></g></mask></defs><title>дом 12</title><g id="dom1"><g id="деревья-_-дерево2" data-name="деревья-/-дерево2"><g id="дерево2"><path id="Path-15" class="cls-2" d="M1009.85,405.38s-2.12-9.21-1.84-13.36a89.86,89.86,0,0,1,1.43-9c.4-3.71.27-2.53-1-6.57-.5-1.53.73-13.53.86-16.25s-.92-10.52-.86-11.48c.13-2.22-.9-8.17-1.26-10.37-1.09-6.63,2-12.29,1.26-16.11s0-10.63-.11-10.77"/><path id="Path-21" class="cls-2" d="M992.23,409.39s2.09-8.11,2.51-9.49-.26-5.94,0-6.75c.69-2.17.12-4.56.42-8.26s-1.26-11.06,0-14.24,0-3.56,0-8.12-.73-12.06-.73-13.24a6.83,6.83,0,0,1,.73-3.26c.54-1.07.34-7.35,0-10.71a64.1,64.1,0,0,1-.42-6.82"/><path id="Path-24" class="cls-2" d="M1008,293.9c-.41-1.34.56-3.93.68-6.13s.11-8.36.42-9.3c.47-1.42-.69-4.35-.41-5s-.95-.76-1.73,0-1.41.56-1.44.43c-.17-.56-.89,0-.89,0s-.73-.34-1,0,.07,1.33,0,1.6a7,7,0,0,1-1.29,2.4c-.37.4-1.8.8-2.55,1.47s-.46.8-.5,1.22c-.08,1-.63,1.77-.42,2.63s1.2,1.65.92,2.84c-.56,2.37.67,6.49.21,6.38s-.55-1.33-1-2-2-2.34-1.91-3.51-1.42-4.57-1.42-4.57"/><path id="Path-23" class="cls-2" d="M1005.22,316.06c.26,1.41,4.1-7.32,7.62-8.65,1.9-.72,3.48-3,4.49-3.88s3.15-1.51,4.31-2.46c2-1.66,4.51-1.73,6.43-2.68,1.09-.55,6-1.84,9.75-3.14a23,23,0,0,0,4.88-2.07,4.15,4.15,0,0,1-1.08-1c-.36-.56-.46-1.37-.55-1.33a61.27,61.27,0,0,1-7.41,2.68,24,24,0,0,0-6.43,2.42c-2.2,1.34-2.87-.06-3.49.49s-3.81,1.73-4.27,2.49a2.46,2.46,0,0,1-1.55.95,42.14,42.14,0,0,1-5.74,1.94,5.69,5.69,0,0,0-3.32,2.05s.8-4.82,2.21-5.47,3.7-3.51,3.7-3.51,2.51-.53,3.21-1.46,2.62-4,3.51-4.36,7.89-7.08,8.41-8.12-1.22,1-1.53-.75-1.69-2-.85-3.13.24-1.92-.24-2.62-1-.22-1.23.41-.22,1.66-1.47,2.3-1.7.76-2.09,2.27-.16,1.7-1.6,3.21a27.37,27.37,0,0,1-4.32,3.29c-1.17.87-3.34,3.81-4.42,4.13s-2.36,0-3.3,1.6a6.78,6.78,0,0,0-1,2.79"/><path id="Path-43" class="cls-2" d="M994.79,332.22c-.36-1.55-5.52-6.87-10.48-11s-3.68-2.92-5.18-3.85c-2.75-1.71-3.45-3.42-4.22-4.27s-1.61-1-1.81-1.34c-.36-.63-6.52-2.61-8.39-4.12s-6.66-5.88-9.06-7c-.32-.16,2-1.67,2-1.67a8.31,8.31,0,0,0,1.52-1.31c.21-.39.79-2.37.79-2.37s2.43,1.69,4.72,3.35a24.26,24.26,0,0,1,3.21,2.68,2.09,2.09,0,0,0,0-2.68,4.67,4.67,0,0,1-1.08-3,2.57,2.57,0,0,0,2.43-.77c1.16-1.16,0,.15,0,1.1,0,.55,1.58,2.06,2,3a10.77,10.77,0,0,1,.32,2.94,4.48,4.48,0,0,0,1.57,2.3c1.4,1.24,3.84,1.33,4.43,2.35.78,1.35,3.48,3.2,5.77,4.68,1.16.75,4.86-4.37,5.5-3.93"/><path id="Path-44" class="cls-2" d="M973,292.19a1.35,1.35,0,0,1-.26.62s.14,2.82,1.18,3.64,2.73-.05,2.76,0-.72,2.5.6,3.6,1.14-1.23,1.46-1.23c.59,0,0,2.15,1.7,2.72s2.6-.27,3.44,0c2.25.76,2.07,1.31,2.38,1.61"/><path id="Path-45" class="cls-2" d="M1058.45,252s2,1.57,1.35,3.1-.83,2.14-.42,2.83,3.1,2,1.76,2.05-3.87-.4-3.74.3,2.39,2.64,2.19,3.62-3.59-.2-3.31.58,2,2.29,1,3.34.29,4-.35,4.72-4.45-1.41-5-.7-.84,1-.42,1.7,2.87-.06,2.19,1.32-4.5,2.59-5.34,3.62-3.37.08-3.7.74-.2,2.1-1,2.22-2.69.26-2.69.26a2.55,2.55,0,0,1-1.47,1,2.51,2.51,0,0,1-2.33-.33,6.31,6.31,0,0,1-1.2-2.24c-.49-.91-1.22.52-1.52.12s.2-1.49,0-1.49-2,1.19-3.1.35.46.26-.53-.82-3.8.65-2.31-2.25c.52-1-.67-.21-1.15-.34s-.49-.52.16-1.88a12.08,12.08,0,0,1-2.64,1.82c-1.6.65-4.76.39-4.41-.55.62-1.65,0-2.37,0-2.37s-5.15.82-4.68-2.29.22-2.36.6-3.3,4.21-3.43,5-4.44-1.13-3.56,1.73-4.16a14.57,14.57,0,0,1,1.48,0"/><path id="Path-47" class="cls-2" d="M912.61,228.58a1.88,1.88,0,0,1-1.87,1.18c-1.5,0-1.26,2.16-1.36,3.86s-1.12,1.71-2,1-1.34,1-1.13,2.81c.1.8.2,1.26-.2,1.39a3.14,3.14,0,0,1-2-.52,8.67,8.67,0,0,0-2.66-1.28c-1-.36-2.69,3.64-4,3s.73-2.45,0-3c-2-1.5-4.2,1.7-3.38,3,.38.61.64,3,0,3.37s-.77-1-1.31-1.19a4.68,4.68,0,0,0-2.68,0c-.93.38-2.85,2.87-2.29,4.2.88,2,2.49,1.33,2.75,1.46s-2.5,1.53-.46,4,3.49,1.11,4,.84,1.19.24.79.82-2.95,1.63-2.09,3,2.86.52,3.21,1-1.28,2.11-.39,3.55a2.58,2.58,0,0,0,2.68,1.08c.26,0-1.06,4.58,2.15,5.49s2.24-2.38,3.06-2,.68,2.47,2.61,2.88,3.42-4.85,4.32-4.51,2.27,6.61,6.35,4.88,3-6.46,3-6.46"/><path id="Path-48" class="cls-2" d="M980.33,285.51a8.42,8.42,0,0,0,.51,3.54c.3.67,1.37.56,2.21.65a7.87,7.87,0,0,1,2.14.49c.39.29,1.83,1,1.25,2.11s1.14,1.95,2.67,0c1.06-1.36.7-2.6,1.88-2.6s1.9-.74,2.2-.65c.57.16,2.79.77,2.95,0s-1.16-1.34-.94-1.72c.95-1.62-2.07-4.91-1.37-4.91a2.53,2.53,0,0,0,2.07-.45,7.79,7.79,0,0,1,1.61-.84c1.35-1-2.83-2.34,1.13-2.31.18,0,.06,1.14.54,1s2.46-1.65,2.72-1.71c.42-.09,2.3-2.81,1.82-3.42-.34-.44-.3-.84.19-.92s.94.33,1.23,0,.23.21.85.38c.29.07,1.39-1.37,2-1.3s1.16,1.7,1.77,1.84c2,.46-1.41-4.26-1.41-4.68s1.39,1.85,2.92,1.65,2.23-2.39,2.44-2.08c.49.71,1.84,3,2.59,1.48"/><path id="Path-49" class="cls-2" d="M961.82,221.63s1.76-1.23,1.66-2.51,0-2.11-.17-3.43-1-1.41-1.53-1.39-1.37,1.39-1.52.92-.2-3.11-.69-4.08-2.05-1.94-2.65-1.16-.89,1.85-1.22,1.74.42-1.1-.1-2.19-1.19-.45-2.74-.19-2.77.21-2.86.82c-.06.43.3,1.38.22,2.06s-.23,1-.51.94a4.78,4.78,0,0,1-3.48-2.71c-.88-1.89-1.33-2.25-1.81-2.21s-.63.67-.73,1.33a9.12,9.12,0,0,1-.18,1.59c-.27.26-.54,0-1.12-.56s-1.89,1.16-1.38,2-1.31-.41-1.64,1.19,1.13,1.27.55,2.32-1.27,1.87-.5,2.57,1.57,1.35,1.8,1.6-.65,1-.65,1-1.13.75-1.59-.2-.63-2-1.06-2.27-1.3.12-2.36.85a4.49,4.49,0,0,0-1.61,2.21"/><path id="Path-50" class="cls-2" d="M1040.53,282.44c-.9.85,1,1.49,1,1.49s.53.84-1.5,2.09c-1,.61.61,3.06.63,3.39a12,12,0,0,0,.88,2.33,3.07,3.07,0,0,1,.28.42c.06.12,1.05.55,1.1,1,.19,1.73-.66,1.23-.53,1.48s-.47,1.6.54,2.26,1.25.55,1.54,1.6-1.76,4.8-.94,5.92a2.67,2.67,0,0,0,2.2,1.34c1.28.14,3.06-.35,3.41-.9.63-1,1-.1.95,0s-.45,1,.05,1.18,1.37-.42,1.93-.28,1.76.59,1.56,1.45-.69,2.71,1,3.83,1.9-1.65,2.12-1.71-.5,2.42,1,3.25,3.7-.15,4.5-.83.49-2.86.49-3.24.54.37,1.06.3,1.65.52,1.36-.8-.7-2.24,0-2.88,2.57.84,4.84,1.59,1.65-1.92,1.36-2.61-1-2.21-.69-2.8,2.55.55,3.35-.84-1.87-2.59-1.29-2.73,2.75.07,3.25-.31.61-1.37.84-1.47,3.18.68,4.36.19,2.2-2.61,0-3,6.56.54,5.45-1.35c-.65-1.11,1.83-3.38.76-3.49s2.24-1.22,1.2-2.31a18.85,18.85,0,0,0-3.25-2.65c-.77-.47-2,.41-.89-.93s-2.46-.78-2.46-.78"/><path id="Path-51" class="cls-2" d="M1088,285.48c.43.4,2.57-.06,3.18-1.09s-1-1.33,0-2.56c.57-.68,1.84-1.15,3.09-1.94s-1.15-2.2-1-2.8c.3-1.36,2.41-.79,3-1.8s2.08,1,3.59-.26,2.71-2.78,1.84-3.76c-.64-.72-1.5-.85-1.51-1.42s0-1.14.31-1.24c.92-.36,2,.47,2.87,0s.34-1.12.45-1.2c.84-.64.33-1.84,1.13-2.75s1.72-1.2,1.48-2.05-2.84-1.25-2.61-1.67,1.47-.95,1.13-2.17-1.77-.69-3.24-.55-2.28,2.49-2.21,2.15-1,2.28-.78.58,1.5-3,1.14-3.89-2.1.65-3,.73,0-1.27-1.52-1.59c-3.39-.71-.59,2.27-2,3s-1.39.34-.6-.42c.17-.16-1.28-.71-1.34-.91-.16-.54-.92-1.07-1.46-.81-.74.36-1.78,4.45-2.39,3.31s-2.25.11-2.94,1.26-.27-2.2-1.22-1.9-.79-1.71-1.67-1.82-.86-2.83-2.36-1.47-2.65,2.18-3.15,1.09-.47-.86,1-1.54,5.06-1.39,3.59-2.66"/><path id="Path-52" class="cls-2" d="M917.37,235a6.33,6.33,0,0,1-3.21-.36c-1.24-.46-1.12-1.13-1.23-1.71-.29-1.64,1.23-3.45,1.51-4.1s-1.88.34-2.86.25-1.56-.64-1.64-1.13c-.05-.31.07.34-.94.75s-1.19-2-2.18-1.63-3.51-1.63-2.14-2.3.85-1.12.12-1.35-1.08,1.36-3,1.59-6.28-3.78-3.57-4.21c.75-.11.51-.52.51-.52s-3.06-3.09,2.85-3.3c2.48-.09,6.49.11,6.35.13s-7.4-1-7.59-2.21,2.05-1,2-1.11-1.94-.66-2.29-1.63c-.26-.69,0-1.27,1.06-1.7s3.32-.34,2.91-.46a5.3,5.3,0,0,1-1.45-.72,4.26,4.26,0,0,0-1.42-.84c-1.92-.73-3.09-.16-3.79-1s-.1-1.23-.37-1.38-3.35-.59-3.4-2.89,1.36-3,2.83-3a5.05,5.05,0,0,1,3.46,2c.36.51.76.57,1,.29s-.18-1.13.67-1.26c2.41-.38.45-1.28,1.62-2.7s3.44.38,2.79-.67-.71-3.53,2-3.52c1.29,0-1.06-.17-1.24-1.31s2.68-1.5,2.33-1.67a1.52,1.52,0,0,1,1.18-2.64c2.53-.19-2-.57-2.61-2.56s-.46-4.4,1.9-4.81,7.06,2.24,7.51,4.27,1.7-1.4,1.7-1.4.54-.58,1.86.18-.8-2.05,1.08-2.05,2.73,1,2.76.25-.77-3,.59-3.44,3.52,0,3.13,3.39,1.3-.33,1.3-.33a4.69,4.69,0,0,1,4.1-1.09c2.46.53,2.75-1.52,3.88-.55s0,2.45.81,2.3.72-1.61,1.46-1.51c.35,0,7.69-1.69,5,5-.95,2.35-3.76,4.48-2,5.85.21.16-3,1.88-3,4.13s1.58-1.18,3,0-.31,4,0,4.2c.75.46.24-6.25,3.1-6.25s4.44,3.54,4.59,3c1.14-4.18,5.6-1.7,5.79-1.61,1,.48,1.18-.16,1.27-1.09s1.24-.9,2.26-.49-.62-1.14-.55-1.78,1.46.09.92-.63-2.77-3.62-1.34-6,3,.34,5.1.58,2.79-6.33,2.77-6.83-1.27-1.86-.35-2.22a2.16,2.16,0,0,1,2.25.7c.54.49.2-2.34,1.83-2.9s2.48,1,2.86,3.37c.14.88.36-2.85,1.26-3s1.36,1.22,2.24.71.15-.69.36-1.44,1.87-.61,2.27-.05-1.09-2.15-.78-2.6,1.36-.09,1.3-.44a10.22,10.22,0,0,0-.51-.92.85.85,0,0,1,0-.94c.41-.42,2,.13,1.94-.31,0-.2-1.09-.44-1.7-.94a1.12,1.12,0,0,1,.26-1.89c.8-.35.82-.8,1.42-1.13s.87.67,1.7.31.07-1.17.75-1.45.18.58,1.74.6,1.18-1.41,2.35-1.49,1.29.85,1.17,1.39-.46,1.39-.63,2,.7-1.13,1.12-1.41,1-.39,1,.07.06.76.68.73.94-.82,1.78-.28a1.72,1.72,0,0,1,.87,2.19c-.4.82-1.22,1.4-.6,1.07s1-.34,1.33,1-.73,1.27-.34,1.32,1.84-1.31,2.81-.9,1,1,1.46,1.2-.5-1.79.26-2.28a2.35,2.35,0,0,1,2.55.4c.51.5,0-2.46.63-2.87s1.68-.07,1.78.3c.14.55.65.84,3.94.45s2.8-3,2.53-2.41-.59,1-.21.77.78-1.28,1.53-1.1a1.63,1.63,0,0,1,1.23.56,1.49,1.49,0,0,1,.26,1.65,3.14,3.14,0,0,0,0,2.5,2.25,2.25,0,0,1,1.87,2.74c-.48,2.19.88-1.27,2.23-.08a3.69,3.69,0,0,1,1.08,3.1c0,.3,2.57-2.19,4.08-1.79s1.21,1.68,1.86,2.32-.08-2.6,1.67-1.74,4.29-.43,3,2.22.39-1.25,1.76-1,1.62,1.79,1.71.93.9-2.18,2.13-1.89c.44.11,1.72.85,1.83,1.74,0,.4.54,1.89.18,2.66s-1.57,1.28-1.54,1.29c1.16.36,2.69-1.23,3.09-.49s-.68,1-1,1.5.58,1.24.82,1.36a.79.79,0,0,1,.21,1.34c-.69.66-1.63.63-1.35.86s2.58-1,3.06-.48,0,1.17.41,1.12c.23,0,.77-1,1.45-1s1.48.81,1.7.52c.43-.6.13-2.81.38-3s1.45-.42,1.61-.06-1-1.25-.64-1.78,1.22-.32,1.64-.33-1.76-2.69-.08-3,2.51-1.6,2.85-.45.72,1.25.92.9-.46-1,.29-1.48,3.86.09,4.56,1.49a3.47,3.47,0,0,1,.32,2c-.19.57-1.82,2.31-1.86,3.31-.06,1.43,1.13,1.17,1.25,1.66s-.89,1.16-1.16,1.26a.49.49,0,0,0-.26.73c.19.34.78-.1.91,1s-.43,1.82.58,2,1.86-1.62,3-1.8,2.14.09,2,1a10,10,0,0,1-1.64,2.83s-1.39,1.34-.18.81,1.64-1.21,2.93-1.74,1.29,1.83,1.81,1.54-.12-2.13,1.68-2.06,1.77,2.12,1.63,2.75,1.75-4.31,2.53-4.92,3.26-1.11,3,.36-.73,2.22-.13,1.59,1.18-1.79,2.09-1.23.61,2.3.5,3.16,1.83.31,1.83.31,2.13-.25,2.21,1.12-.41,1-2,2.17-.82,1.72-.3,2-2.45.19-2,1,1.77.47,1.79,1.19-.43,1.57.31,2.05,1-1.16,1.77-1.94,2.36.47,1.92,1-1.25,2.47-.13,2.58,1.91.35,2.14-.54.8-1.83,1.39-1.12,1.29,1.11,1.42.46.27-2.19,1-2.93,1.78-.9,3.31-.52a1.65,1.65,0,0,1,1.3,2.32c-.33.63-.37,1.61-.19,1.25s2.3-2.48,3.06-.49-.75,2.12-1.3,2.3-.54.48.1.62,2-.84,2.53,1-2.69,1.4-2,2.58,2.18.53,3.46.73,3.9.68,3.61,2.68-2.73,1-2.67,1.39,1.2.5,1,.83-2.12.43-2.23,1,1.09.37,1.62.61,1.53,7.48.87,8.31-3.55,1.17-3,1.08,4.89.63,5.26,2.44-4.14.36-3.81.86a3.78,3.78,0,0,0,1.58.92c.09,0,2.53,1.12,1.7,2.43s-2.06.43-2.43.69,3.11,2.62,2.4,4.14a2.1,2.1,0,0,1-.88,1,2.52,2.52,0,0,1-1.66-.24c-.68-.36-1.24-1.74-2.07-1.61s-.22,2.47-1.44,2.17c-.52-.13-1.51,0-2.06-1.11s-.06-3.67-.54-3.41c-.83.46-2.06-.79-2.22-.13s.34,2-.56,1.74-1.79-.86-1.65-.1.07,3.16.59,3.62,2.27.69,1.89,1.74-3.62.71-3.6.86,5,1.44,4.44,2.9-.24,1.88-2.73,1.8-3.13,1.83-3.09,2.11,1.66-.86,2.5,0c.25.26.07-.14.59.82s0,4.71-2.36,4.51c-2.8-.23-2.86.11-4.43.75"/><path id="Path-56" class="cls-2" d="M915.91,269.19c-2.33.11,1,2.1,1.21,3.89s-2.63.19-3.46-1-1.68,1.73-1.17,2.75-4.15,1.29-4.35,1.29-3.54-1-5.82,0c-1,.46,1.12,1.57.76,2.38s-3.94,2.22-3.94,3c0,1.34-.51,3.54.66,3.16s2.74-2.39,2.52-1.91c-.36.78-2.35,3.84-1.5,5s2.49-1.19,2.78-1.13-2.08,2.71-1.28,4.93,4-1.37,4.11-1.13-2.57,3-1.88,3.27,2.78-.27,2.83,0-1.43.66-2,1.07a1.41,1.41,0,0,0-.46,1.79c.37.47,1.27.21,1.51.44s-1,2.26,0,2.84,3.43-2,3.52-2.84-1.09,3,0,2.84.79-.93,1.39-.85a5.58,5.58,0,0,1,2.06.85c.81.47-.7.69,0,2.1a4.52,4.52,0,0,0,2.81,2.5c1.41.57,1.69-1.66,2-1.78s1.24,1.85,1.79,1.13a30,30,0,0,0,3.07-6.79c1-3,.26,2.92,1,2s2.56.29,2.69-2.52.7-1.55,1.13-.77,1.9,3.32,3.2,2,.78-2.76,1.37-2-1.62,4.55,1.46,3.28,1.79-2.17,2.73-2.11-1,2.73,1.1,2.81,4.78,1.24,5.14-1.37,1-2.9,1.67-2.17-1.32.92.22,3.33,1.18,4.27,3.41,3.09,5.42-1.31,4-3.31.92,2.2,3,1.47c.6-.21.56-.74,1-1s2.45-1.36,2.72-2c.38-.85,1.65-2.51.38-3.56s.69-2.34,2.41-2.82,4.08-2,4,1.17-.09,2.91.87,2.84c.63,0,.91.58,1.69.32s1.09-1,1.75-1.27c1.92-.77,3.71-1.88,2.74-3s-3.42-2.32-2.63-3,1.47.56,2.86.63,5.64,1.26,6-.6-1-2.17,0-3,1.94.47,1.68-1.28a27.16,27.16,0,0,1-.28-2.71"/><path id="Path-57" class="cls-2" d="M987.74,246.28s-.22-5,3-4a2.55,2.55,0,0,1,1.43,1.62c.06,1,.59-.92,1.67-.67s.78,3,1.74,3.55,2.69-1.46,3.23-1,.63,1.47.82,2.85.65-3,2.53-3.54,3.08,1.13,4.07.19,1.53-1.31,2.49-1.19,1.76.39,1.12,1.83.95-2.91,3.37-3.07,3,1.15,1.73,4.3"/><path id="Path-59" class="cls-2" d="M1051.64,209.13s2.41-2,3-1a1.75,1.75,0,0,1,0,2.21c-.44.7,1.45-2.11,2.37-1.24s.47,2.38,0,3,.92-1.77,2.39-1.25,1.19-.55,1.19-.55a2.13,2.13,0,0,1,1.71-2.21c1.8-.32,3.91,1.46,3.15,3.28s.55,1.34.55,2.13-2.34,2-2.33,2.8,1.7,0,2.33,0a1.11,1.11,0,0,1,.79,1.61c-.41.65-.89.94-1.33,1.73s2.29,0,2.55,1.41-.41,1.61-.82,2.14c-.08.11-1.13,1.73-1.19,1.81l1-1.11s3.1-1.56,3.73-.42,0,1.21-.71,1.53.22.74.71,1.11,1.61,3.53-1.31,4a13.15,13.15,0,0,1-4,.26"/><path id="Path-60" class="cls-2" d="M996,201c2.09-1.54,1.55,1.93,4.76,2.82s-.71,1.26-.39,3.8,2.63.8,1.84,1.84,1.19,2.24,3.45,2,.76,3,1.9,1.34.61,4.35,1.56,2,2.63,1.5,2.63,2.33,1.1-1.85,2.4-2.65,2.75.24,3.33,1.55.32-1,2.32-.51,1.42,2.09,1.73,1.61-.59-5.37,1.72-5.47,3.38-.43,3.7.61-.51,3-.25,3.25,1.31-2,2.06-1a4.13,4.13,0,0,1,.31,4c-.64,1.39-.31.73-.31.73s.86-.9,1.51-.47.28,1.49.24,2.53-.72,1.22-.54,1.37c.47.42,2-3.73,2.93-3,.48.37,1.69-.11,2.24.22s.42,1.44.26,1.9c-.31.93,2-2,3-.5s-1,5.51-1,5.51"/><path id="Path-60-2" data-name="Path-60" class="cls-2" d="M936.36,254.62A4.11,4.11,0,0,1,939,253a2.31,2.31,0,0,1,2.32,2.29c.13,1.17.61-.62,2.29.54s.67,2.05,1.11,1.83,1.08-4.08,3.24-3.25,3.24,1,3.22,1.88-1.38,1.93-1.22,2.23,1.81-.9,2.21.06a2.64,2.64,0,0,1-.94,3c-1,.75-.51.4-.51.4s1.06-.31,1.53.25-.2,1.18-.54,1.92-1,.58-.92.76c.31.49,3-1.89,3.61-1,.33.46,1.59.58,2,1s-.06,1.19-.34,1.46c-.58.55,2.43-.63,2.93.82s-2.62,3.56-2.62,3.56"/><path id="Path-61" class="cls-2" d="M1026,211.3l-.62-1.65s4.09-3.62-1-2.06S1023,205,1021,204.2s2.14-3.22.76-4.61-.81-4-.81-4,.21,2.73-.39,3a2.33,2.33,0,0,1-2.7-1.27c-.73-1.29,0,3.75-1.25,3.62s-2.52-1.9-3.25-1.29-.14,3.36-1.6,3-2.1,1.06-2.78.47,0-2.53-1.8-3.17-3.63,3.13-5.36,1.65c-.74-.62-.59-.63-.73-1.65-.26-2-.56-2.16,0-3.4s1.06-2.43.68-3.55"/><path id="Path-62" class="cls-2" d="M1002.34,410c-2.6.2-5.59-.38-6.26-.92-.9-.75-5.53,1.25-7,.59s.74-3.82.74-3.82-2.4,3.32-2.56,3.82c-.06.2-1,.35-1-1.28s2.19-5.72,2.19-5.72-3.88,7-3.88,6.41-6.68-5.67-6.68-5.67,3.9,3.89,3.74,5-1.49,0-1.49,0l-4.25-1.43s3.32,1.29,3.24,2.71-3,.22-3.24.44c-.8.69-1.83-.68-3.26-1a4.27,4.27,0,0,0-2.82.59,18.29,18.29,0,0,1-3.82.44c-1.45,0-3-3.15-3-3.15s.53,2,0,2.71.42.3,0,.44c-1.12.38-3.17-2.39-3.17-2.39s.47,3.6-.71,3.19-4.67,0-3.92-.8-2.23.8-2.89.8h-.91s-.82,1.58-1.8.73-17.63.14-19.4,0a35.93,35.93,0,0,0-6.32-.12c-5.1.09-9.56.41-9.56.41"/><path id="Path-63" class="cls-2" d="M1012.91,405.43c0-.38.75,0,1.15-.76a23.47,23.47,0,0,0,.88-3.59,8,8,0,0,1,0,4c-.6,2,0,2.29,0,2.29a8,8,0,0,1,2.47-3.76,28.51,28.51,0,0,0,4.25-4.61s-1.79,4.2-3.78,5.64a2.3,2.3,0,0,0-.47,3.67c.5.25.8.3,1.52-.4a18.17,18.17,0,0,0,1.94-2.83s-1.13,3.49,0,3.23,2.1-.4,2.1-.4-1.56,1.24,0,1.24a37.63,37.63,0,0,1,6,.39,30.82,30.82,0,0,0,3.09.68,11.07,11.07,0,0,0,2.5.33c1.09,0,1.82-1.4,1.82-1.4a5.52,5.52,0,0,0,1.18.78,1.79,1.79,0,0,0,1.92-.39c.84-.79.67,2,2.15,1a10.47,10.47,0,0,1,3.14-1.4s-.94,1.08,0,1.4a16,16,0,0,0,2.91.74,36.58,36.58,0,0,1,8.25,0,45.66,45.66,0,0,1,5.78,1.37,28.78,28.78,0,0,0,4.58.27"/><path id="Path-64" class="cls-2" d="M990.14,310.14s-3.86,1.83-2.57,4.15,5.7,5.34,5.7,5.34"/><path id="Path-65" class="cls-2" d="M993.86,323.52s-1.13-3.19-.29-4.31a4.73,4.73,0,0,0,0-4.2,7.29,7.29,0,0,0-1.29-2.33c-1.07-1.13-2.4-2.27-2.17-3.19.16-.69-.32-1.1-.63-1.6s-1-1.5-1.35-1.54c-.64-.07-1.92-3.14-2.42-4.67a16.57,16.57,0,0,1,0-2.94,15.52,15.52,0,0,0-.29-3.5c-.27-.91-.84-1.31-1.38-2.26s-.44-2.32-.61-3.21"/><path id="Path-66" class="cls-2" d="M990.65,289.91l2.5-.59a21.57,21.57,0,0,0,1.68,3.13c.47.47.68,2,.74,3s1,2.87,1.63,4.44.53,10.61,0,10.61c-.21,0-.17-.74-1.3-4.28-.42-1.31-1-1.67-1.77-3.87a19.58,19.58,0,0,1-.94-4.26,17.75,17.75,0,0,0-1.72-3.19,1.89,1.89,0,0,1,0-2.07c.4-.42.33-1-.16-1.6A3.49,3.49,0,0,1,990.65,289.91Z"/><path id="Path-67" class="cls-2" d="M1008.6,398.89c0,1.52,2,2.47,2.9,3.78s.54,2,2.53,4.05,3.91,2.65,4.26,2.39"/><path id="Path-68" class="cls-2" d="M988.12,204.15s2.16.54,2.8,0a.86.86,0,0,0,.11-1.39c-1.27-1,.82.45,1.84.64s2.17.08,1.59-.85-.42-1.29-.42-1.41,1.71,1.62,1.71.66,1.46-1.83,0-3,1.69,0,2.58-.12.6-.79.28-1.59.23.17,1.12.17a2.73,2.73,0,0,0,1.26-.66,2.66,2.66,0,0,0,.5-1.12"/><path id="Path-69" class="cls-2" d="M1006.7,212.12s1-1.8.47-2.51-2.13-2.36-2.13-3a2.7,2.7,0,0,0-1.54-1.91c-.58-.16-1.15-2.69-1.15-2.69"/><path id="Path-70" class="cls-2" d="M1013,215.19s-.33-2.93.67-4a21.08,21.08,0,0,0,2.76-4.09c.28-.64,3.11-8.64,3.11-8.64"/><path id="Path-71" class="cls-2" d="M1005.22,200.65s-.38,2.86.37,3.69,3.06,2.12,3.06,2.88,1.91,2.74,1.91,3.31.32,1.4.48,1a27,27,0,0,0,1.46-2.95,9.57,9.57,0,0,1,1.57-3c.42-.31,2.56-4,2.3-4.46"/></g></g><g id="дом1"><g class="cls-3"><polygon id="Path-25" class="cls-4" points="463.49 227.88 463.41 372.83 601.38 365.74 601.38 237.94 463.49 227.88"/><polygon id="Path-25-2" data-name="Path-25" class="cls-4" points="465.77 233.77 465.77 366.94 596.66 360.47 596.66 243.01 465.77 233.77"/><polyline id="Path-26" class="cls-4" points="629.68 206.67 629.68 380.33 544.78 386.23 544.78 421.15"/><path id="Path-27" class="cls-4" d="M171,251.64l249.36-66.85,210.06,22"/><polyline class="cls-4" points="226.06 235.12 170.95 249.88 170.95 251.71 170.95 298.53 170.95 368.65 420.31 432.94 544.57 419.85 581.43 426.55 669.78 417.3"/><polygon id="Path-28" class="cls-4" points="300.67 246.91 360.81 236.13 360.81 366.94 300.67 359.12 300.67 246.91"/><polygon id="Path-28-2" data-name="Path-28" class="cls-4" points="306.57 251.69 358.45 242.02 358.45 362.23 306.57 355.43 306.57 251.69"/><polyline id="Path-29" class="cls-4" points="629.68 230.74 653.02 232.59 684.02 229.6 702.79 230.74 702.79 229.27"/><path id="Path-30" class="cls-4" d="M653.27,232.73V364.1l30.66,1.66-.18-136.92"/><path id="Path-31" class="cls-4" d="M629.68,258.52l22.41,1.18"/><polyline id="Path-32" class="cls-4" points="629.68 363.4 651.01 364.47 653.27 364.58"/><path id="Path-33" class="cls-4" d="M650.35,259.7l-.06,103.71"/><path id="Path-34" class="cls-4" d="M683.93,365.76l122.64-5.89"/><polygon id="Path-35" class="cls-4" points="669.78 418.4 723.21 425.87 850.2 410.45 850.2 402.3 723.21 417.48 669.78 409.86 669.78 418.4"/><polygon id="Path-35-2" data-name="Path-35" class="cls-4" points="682.75 408.05 723.82 414.08 827.8 401.68 827.8 394.05 723.54 405.49 682.75 399.55 682.75 408.05"/><polygon id="Path-35-3" data-name="Path-35" class="cls-4" points="695.72 399.02 722.29 402.3 803.03 394.34 803.03 386.98 722.19 393.8 695.72 391.22 695.72 399.02"/><polyline id="Path-22" class="cls-4" points="801.85 385.8 801.92 393.84 826.46 394.38 826.46 401.76 850.2 402.12 850.2 410.55"/><polyline id="Path" class="cls-4" points="851.38 402.03 827.06 401.78 827.06 394.63 802.29 394.07 802.18 386.57 782.44 383.44 694.99 390.91 694.99 398.89 682.21 399.88 682.21 408.11 669.78 409.37"/><polyline id="Path-36" class="cls-4" points="721.66 394.05 721.66 402.72 723.22 406.26 723.22 414.45 724.02 417.47 724.02 425.87"/><polyline id="Path-37" class="cls-4" points="544.78 385.87 581.67 390.53 941 363.4 941 388.12 826.68 399.94"/><path id="Path-38" class="cls-4" d="M801.85,389.33,941,377.55"/><polyline id="Path-39" class="cls-4" points="682.75 399.28 581.53 409.5 544.72 403.34 420.41 414.08 170.95 361.05"/><path id="Path-40" class="cls-4" d="M581.92,390.51V427"/><path id="Rectangle-42" class="cls-4" d="M206.84,347.28,206.63,264l-23.22,4.38v74.43Z"/><path id="Rectangle-42-2" data-name="Rectangle-42" class="cls-4" d="M206.76,342.56l.08-75-18.71,3.59V339Z"/><rect id="Rectangle-46" class="cls-1" x="205.15" y="267.95" width="1.18" height="74.25"/><rect id="Rectangle-46-2" data-name="Rectangle-46" class="cls-1" x="202.79" y="267.95" width="1.18" height="74.25"/><rect id="Rectangle-46-3" data-name="Rectangle-46" class="cls-1" x="198.08" y="269.13" width="1.18" height="71.89"/><rect id="Rectangle-46-4" data-name="Rectangle-46" class="cls-1" x="195.72" y="270.3" width="1.18" height="70.71"/><rect id="Rectangle-46-5" data-name="Rectangle-46" class="cls-1" x="192.18" y="270.3" width="1.18" height="69.53"/><rect id="Rectangle-46-6" data-name="Rectangle-46" class="cls-1" x="191" y="270.3" width="1.18" height="69.53"/><path id="Rectangle-42-3" data-name="Rectangle-42" class="cls-4" d="M237.66,259.13V351l12.82,2.17V257Z"/><path id="Rectangle-42-4" data-name="Rectangle-42" class="cls-4" d="M243.56,262.92v84.31l6.92,1.24v-86.8Z"/><path id="Rectangle-43" class="cls-4" d="M316.67,250.22V356.55l2.2.23V249.87Z"/><path id="Rectangle-43-2" data-name="Rectangle-43" class="cls-4" d="M330.82,246.73V356.47l2.2.28V246.35Z"/><path id="Rectangle-43-3" data-name="Rectangle-43" class="cls-4" d="M346.15,244.45V360l2.2.3V244Z"/><polyline id="Rectangle-33" class="cls-1" points="902.13 361.05 942.19 362.7 942.15 363.63 902.16 361.97"/><path id="Rectangle-10" class="cls-4" d="M422.68,433.45h-1.06V184.39"/><rect id="Rectangle-10-2" data-name="Rectangle-10" class="cls-4" x="208.18" y="243.87" width="1.06" height="124.77"/><rect id="Rectangle-10-3" data-name="Rectangle-10" class="cls-4" x="237.66" y="234.44" width="1.06" height="140.09"/><rect id="Rectangle-10-4" data-name="Rectangle-10" class="cls-4" x="250.63" y="230.9" width="1.06" height="145.98"/><rect id="Rectangle-10-5" data-name="Rectangle-10" class="cls-4" x="301.34" y="217.94" width="1.06" height="170.73"/><rect id="Rectangle-12" class="cls-1" x="806.57" y="227.88" width="1.18" height="144.95"/><rect id="Rectangle-12-2" data-name="Rectangle-12" class="cls-1" x="813.65" y="227.88" width="1.18" height="144.95"/><rect id="Rectangle-12-3" data-name="Rectangle-12" class="cls-1" x="830.16" y="230.23" width="1.18" height="140.24"/><rect id="Rectangle-12-4" data-name="Rectangle-12" class="cls-1" x="837.23" y="230.23" width="1.18" height="140.24"/><rect id="Rectangle-12-5" data-name="Rectangle-12" class="cls-1" x="853.74" y="232.59" width="1.18" height="136.7"/><rect id="Rectangle-12-6" data-name="Rectangle-12" class="cls-1" x="859.64" y="232.59" width="1.18" height="136.7"/><rect id="Rectangle-12-7" data-name="Rectangle-12" class="cls-1" x="873.79" y="233.77" width="1.18" height="133.17"/><rect id="Rectangle-12-8" data-name="Rectangle-12" class="cls-1" x="880.86" y="233.77" width="1.18" height="133.17"/><rect id="Rectangle-12-9" data-name="Rectangle-12" class="cls-1" x="895.01" y="236.13" width="1.18" height="129.63"/><path id="Rectangle-47" class="cls-4" d="M837.9,220.37v9.2h5.74v-8.64Z"/><path id="Rectangle-47-2" data-name="Rectangle-47" class="cls-4" d="M860.41,222.74l-.1,9.1,4.56.07v-8.63Z"/><path id="Rectangle-47-3" data-name="Rectangle-47" class="cls-4" d="M882.8,225.11l-.08,7.92,3.37.06v-7.54Z"/><path id="Rectangle-47-4" data-name="Rectangle-47" class="cls-4" d="M902.84,227.46l-.08,7.93,3.38.06v-7.54Z"/><rect id="Rectangle-49" class="cls-1" x="828.37" y="209.43" width="1.18" height="18.87" transform="translate(524.66 1020.41) rotate(-84)"/><rect id="Rectangle-49-2" data-name="Rectangle-49" class="cls-1" x="850.2" y="213.36" width="1.18" height="15.33" transform="translate(542.06 1044.06) rotate(-84)"/><rect id="Rectangle-49-3" data-name="Rectangle-49" class="cls-1" x="872.6" y="216.9" width="1.18" height="15.33" transform="translate(558.61 1069.51) rotate(-84)"/><polygon id="Rectangle-49-4" data-name="Rectangle-49" class="cls-1" points="886.84 225.52 903.25 227.28 903.14 228.42 886.72 226.66 886.84 225.52"/><path id="Rectangle-48" class="cls-4" d="M867,226.38l14.36,6.37v-7.68Zm-1.22-.54,1.22.54-1.43.13-.06-.66h.67v.6h-.67Z"/><path id="Rectangle-48-2" data-name="Rectangle-48" class="cls-4" d="M888.41,228.65l14.19,6.44v-7.66ZM887,228l1.38.62-1.59.14-.06-.66h.67v.51h-.67Z"/><rect id="Rectangle-12-10" data-name="Rectangle-12" class="cls-1" x="900.91" y="236.13" width="1.18" height="129.63"/><rect id="Rectangle-45" class="cls-1" x="496.43" y="234.95" width="1.18" height="130.81"/><rect id="Rectangle-45-2" data-name="Rectangle-45" class="cls-1" x="501.14" y="236.13" width="1.18" height="128.46"/><rect id="Rectangle-45-3" data-name="Rectangle-45" class="cls-1" x="530.63" y="238.49" width="1.18" height="124.92"/><rect id="Rectangle-45-4" data-name="Rectangle-45" class="cls-1" x="537.7" y="238.49" width="1.18" height="124.92"/><rect id="Rectangle-45-5" data-name="Rectangle-45" class="cls-1" x="566" y="240.84" width="1.18" height="121.38"/><rect id="Rectangle-45-6" data-name="Rectangle-45" class="cls-1" x="569.54" y="240.84" width="1.18" height="121.38"/><path id="Rectangle-44" class="cls-4" d="M704.64,255.7v97.58l89.47-4.76V261.73Z"/><rect id="Rectangle-45-7" data-name="Rectangle-45" class="cls-1" x="725.2" y="259.7" width="1.18" height="88.39"/><rect id="Rectangle-45-8" data-name="Rectangle-45" class="cls-1" x="727.56" y="259.7" width="1.18" height="88.39"/><rect id="Rectangle-45-9" data-name="Rectangle-45" class="cls-1" x="746.43" y="262.06" width="1.18" height="86.03"/><rect id="Rectangle-45-10" data-name="Rectangle-45" class="cls-1" x="752.32" y="262.06" width="1.18" height="84.85"/><rect id="Rectangle-45-11" data-name="Rectangle-45" class="cls-1" x="768.83" y="263.23" width="1.18" height="82.5"/><rect id="Rectangle-45-12" data-name="Rectangle-45" class="cls-1" x="771.19" y="263.23" width="1.18" height="82.5"/><rect id="Rectangle-45-13" data-name="Rectangle-45" class="cls-1" x="749.97" y="262.06" width="1.18" height="84.85"/><path id="Rectangle-44-2" data-name="Rectangle-44" class="cls-4" d="M708.18,259.23v89.33l82.39-4.35-.75-79.51Z"/><rect id="Rectangle-14" class="cls-1" x="824.87" y="220.55" width="1.18" height="11.79" transform="translate(556.16 1038.93) rotate(-87)"/><rect id="Rectangle-14-2" data-name="Rectangle-14" class="cls-1" x="824.87" y="217.01" width="1.18" height="11.79" transform="translate(559.69 1035.58) rotate(-87)"/><rect id="Rectangle-14-3" data-name="Rectangle-14" class="cls-1" x="847.23" y="224.08" width="1.18" height="9.43" transform="translate(560.4 1058.57) rotate(-86)"/><rect id="Rectangle-14-4" data-name="Rectangle-14" class="cls-1" x="847.23" y="220.54" width="1.18" height="9.43" transform="translate(563.93 1055.29) rotate(-86)"/><polygon id="Rectangle-14-5" data-name="Rectangle-14" class="cls-1" points="865.59 230.24 875 230.93 874.92 232.07 865.56 231.35 865.59 230.24"/><polygon id="Rectangle-14-6" data-name="Rectangle-14" class="cls-1" points="865.67 226.71 876.17 227.53 876.1 228.62 865.51 227.81 865.67 226.71"/><rect id="Rectangle-14-7" data-name="Rectangle-14" class="cls-1" x="889.68" y="228.74" width="1.18" height="7.08" transform="translate(596.42 1104.16) rotate(-86)"/><rect id="Rectangle-14-8" data-name="Rectangle-14" class="cls-1" x="889.68" y="226.38" width="1.18" height="7.08" transform="translate(598.77 1101.97) rotate(-86)"/><path id="Path-2" class="cls-4" d="M903.27,236.13,882,237.31"/><path id="Path-3" class="cls-4" d="M875,238.49l-14.15,1.17"/><path id="Path-4" class="cls-4" d="M852.56,239.66l-15.33,1.18"/><polyline id="Path-6" class="cls-4" points="806.57 243.32 791.24 244.38 791.24 240.84"/><path id="Path-7" class="cls-4" d="M882,233.77,860.81,235"/><path id="Path-8" class="cls-4" d="M853.74,236.13l-15.33,1.18"/><path id="Path-9" class="cls-4" d="M831.33,238.49l-17.68,1.17"/><polyline id="Path-10" class="cls-4" points="806.57 240.28 771.19 243.2 771.27 239.66"/><path id="Path-5" class="cls-4" d="M830.16,242l-16.51,1.18"/><polyline id="Path-11" class="cls-4" points="843.61 223.73 860.82 221.99 860.82 231.78 838.41 233.77"/><path id="Path-12" class="cls-4" d="M830.16,233.77,813.65,235"/><polyline id="Path-13" class="cls-4" points="807.75 236.13 749.97 240.84 749.97 237.38"/><path id="Path-16" class="cls-5" d="M895,362.5,882,362"/><path id="Path-17" class="cls-4" d="M860.81,360.76l14.16.58"/><polyline id="Path-2-2" data-name="Path" class="cls-4" points="806.57 232.59 726.38 239.66 726.38 235.66"/><path id="Path-18" class="cls-4" d="M853.74,360.18l-15.33-.62"/><polygon id="Path-3-2" data-name="Path" class="cls-4" points="837.23 219.63 843.13 220.29 843.13 229.06 837.23 229.06 837.23 219.63"/><path id="Path-4-2" data-name="Path" class="cls-4" d="M819.54,222l17.69-2.36"/><path id="Path-19" class="cls-4" d="M813.65,359.49l17.68.76"/><polygon id="Path-20" class="cls-4" points="813.65 216.09 819.54 216.82 819.54 226.7 813.65 226.7 813.65 216.09"/><polyline id="Path-41" class="cls-4" points="813.48 226.74 702.79 237.31 702.79 228.1 813.65 216.09"/></g></g><g id="деревья-_-дерево" data-name="деревья-/-дерево"><g id="дерево"><path id="Path-15-2" data-name="Path-15" class="cls-2" d="M135.28,421.65s-9.35-17.69-8.88-22.08-3.91-7-5.45-11.8-1.77-17.2-3.53-26.19-3.69-10.5-4.54-15,.32-11.82.2-12"/><path id="Path-21-2" data-name="Path-21" class="cls-2" d="M93.46,420s1.1-5.86,1.91-8.42-.88-1.68.82-11.15,2.88-12.12,3.6-13.51.94-8.07,0-13A147.72,147.72,0,0,1,98,358.36a8.08,8.08,0,0,1,.86-3.86c.64-1.26.4-8.7,0-12.67s-.86-4.51-.86-6.46a78.56,78.56,0,0,1,1.19-10.05c.4-1.63-1.19-7.64-1.19-7.64"/><path id="Path-23-2" data-name="Path-23" class="cls-2" d="M107.76,340s14.46-14.69,14.28-15.71,5.44-3.94,6.48-6.86-.32-6.33,1-8.47,14.29-12.26,15.86-16.25,3.26-8.1,3.79-8a20.46,20.46,0,0,1-2.11,0,4,4,0,0,1-1.68,1.5,3.58,3.58,0,0,1-2.13,0,68.84,68.84,0,0,1-4,6c-1.47,1.8-7.56,8.19-7.56,8.19-.2.21-.38.16-.39-.15,0,0-.4-8,0-8.74a20,20,0,0,0,.77-5.56c-.09-.78,2.73-5,2.73-5s.11.05-.73-.24-1.87.08-1.64-.42c.15-.32-1.5,2.87-3.29,6.29s-2.41,4-2.74,5.65c-.39,2,0,4.25,0,6.73a32.08,32.08,0,0,1-1.1,7.75,20.78,20.78,0,0,0-1.11,3.31c-.28.93-2.91,4.41-2.91,5.47a8.05,8.05,0,0,1-.47,2.32s-4,4-5.91,5.81-6.58,5.21-6.58,5.21"/><path id="Path-24-2" data-name="Path-24" class="cls-2" d="M108.64,331.64a8.44,8.44,0,0,0,0-2.71c-.26-1.2-2.17-8.3-2.06-11.55.06-1.71-1-1.53-1-5.89s-.3-12.36.85-16.1c1.41-4.61,13.4-14.71,14.81-15.79s3-1.15,3.67-1.58-2.23-.12-2-.79a14,14,0,0,0-.1-3.21s-2.25.19-2.84.19c-.09,0,.13.45-.26.81s-2.86,2.78-3.79,3.94c-1.47,1.84-2.93,4.3-5.05,6.26s-4.95,3.93-6,3.93-2.67-6.58-2.67-10.48c0-2.27-2.73-3.65-3.84-6.95a32.16,32.16,0,0,1-1.08-8.49,12.71,12.71,0,0,1-2.07-.17c-.64-.17-.7-.27-.7-.27a.93.93,0,0,0-1.31.45s.27.23-.41.11-.18.79-.18.79.28,3.69,1.57,4.93a5.81,5.81,0,0,1,2.1,3.45c.3,1.5,2.64,8.36,2.36,15.83s-1.8,10.52-2.08,13a40.46,40.46,0,0,0,0,6.15"/><path id="Path-43-2" data-name="Path-43" class="cls-2" d="M100.59,321.48s-12.94-19.25-20.16-23.74S73.38,293,73,292.29s-2.46-6.83-4.67-8.62a76,76,0,0,0-11.05-6.44c-.39-.18-1.74-.66-1.74-.66a3.45,3.45,0,0,0,1.07-.93,6.07,6.07,0,0,0,.39-1.52,39.26,39.26,0,0,1,7.39,2.34A33.63,33.63,0,0,1,73,281.75c.15.11.33.44.42.3.4-.61.83-7.1,1.16-11.78s.41-4.81.41-4.81a4.54,4.54,0,0,0,1.11.53,7.1,7.1,0,0,0,1.42,0s-.47,20.18.92,22.59,8.16,5.32,10.4,6.89,7.91,6.88,7.91,6.88"/><path id="Path-44-2" data-name="Path-44" class="cls-2" d="M106.12,296.48v.85a4.55,4.55,0,0,0,1.5,2.53,3.69,3.69,0,0,0,2.62.67c.08.13-1.33,3.87.61,4.81,2.32,1.13,4.67-.86,4.9-.74s-4.41,9.09,3.14,6.46c0,0,.52,3.64,3.59,2.08"/><path id="Path-45-2" data-name="Path-45" class="cls-2" d="M167.74,249.7s2.4,1.86,1.6,3.68-1,2.52-.49,3.35,3.65,2.31,2.07,2.42-4.57-.47-4.42.36,2.82,3.13,2.58,4.29-4.23-.25-3.9.68,2.34,2.7,1.17,3.95.34,4.78-.42,5.59-5.25-1.67-5.91-.83-1,1.19-.49,2,3.39-.08,2.58,1.56-5.32,3.06-6.3,4.29-4,.09-4.38.87-.23,2.49-1.12,2.64-3.17.3-3.17.3a3.06,3.06,0,0,1-1.74,1.19,3,3,0,0,1-2.75-.39,7.59,7.59,0,0,1-1.42-2.66c-.58-1.08-1.44.61-1.79.15s.23-1.77,0-1.77-2.43,1.41-3.67.42.55.3-.62-1-4.49.76-2.73-2.67c.61-1.18-.79-.25-1.35-.4s-.58-.62.19-2.23a14.62,14.62,0,0,1-3.13,2.16c-1.88.76-5.61.46-5.2-.65.72-2,0-2.81,0-2.81s-6.08,1-5.54-2.72.27-2.79.72-3.89,5-4.07,5.9-5.26-1.34-4.22,2-4.92a14.39,14.39,0,0,1,1.74,0"/><path id="Path-46" class="cls-2" d="M118.62,247.39s-3.74,5.59,2.62,4.18c1.92-.42-.86,1.7,0,2.92s1.64.77,3.44,0c1.29-.55-2.49,3,4.06,3,2,0,3.24-1.27,3-1.79s2.83.84,5.08-2.1"/><path id="Path-47-2" data-name="Path-47" class="cls-2" d="M69.52,260.86c-.88.83-1.34,5.53,1.3,5.53s3.35-2.43,3.61-2.62.52,3,4.15,2,2.81-2.83,2.76-3.4a.69.69,0,0,1,1.25-.42c.44.6.42,3.42,2.34,3.17s1.89-2.48,2.55-2.62,1.71,2,3.68,1.78a2.81,2.81,0,0,0,2.41-2.09c.11-.24,4.49,2.82,7,.17s-1.54-3.05-.78-3.67,3,.35,4.34-1.3-3.7-5.14-2.91-5.84,8.24.51,8.24-4-5.65-5.35-5.65-5.35"/><path id="Path-48-2" data-name="Path-48" class="cls-2" d="M26.52,270.42s-2.41,1.83-1.61,3.65a3.11,3.11,0,0,0,2.37,1.63c1,.11,2.51-.46,2.77-.28.46.34-.2,1.38-.88,2.74s1.38,2.42,3,1.21-2.2,3.27,2.46,3.3S40,279.82,39.34,279a1.83,1.83,0,0,1-.07-2.68c.9-1,2.48,2.39,4.66,2.89,2.42.55,2.42-2.49,2.42-3s1.63,1,3.44.78,2.64-1.65,2.89-1.29c.58.85,2.93,1.82,3.83,0s.67-5.8-3-6.08"/><path id="Path-49-2" data-name="Path-49" class="cls-2" d="M60.49,226.16s-2.36-1-3.56,0-2.09,1.36-3.29,2.37a1.59,1.59,0,0,0-.39,2.42c.39.55,2.26.46,1.89.92s-3,2.19-3.6,3.31-.6,3.28.55,3.38,2.41-.32,2.51.09-1.35.29-2.1,1.51.32,1.47,1.57,2.84,2,2.61,2.66,2.31c.46-.21,1.16-1.18,1.9-1.55s1.11-.4,1.25-.1a5.68,5.68,0,0,1-.45,5.21c-1.3,2.09-1.37,2.77-1,3.21s1.07.2,1.79-.12,1.46-.9,1.68-.85c.45.1.38.51.18,1.48s2.36,1.12,2.88.07.44,1.56,2.24.85.52-1.94,1.94-2,2.67.06,2.86-1.16.34-2.43.44-2.81,1.4,0,1.4,0,1.47.63.82,1.7-1.56,1.91-1.56,2.52,1,1.21,2.37,1.79a5.15,5.15,0,0,0,3.21.17"/><path id="Path-50-2" data-name="Path-50" class="cls-2" d="M128.92,315s4.32,1.8,7.25-3.13c.58-1-.26,1.09,2.62,1.09a3,3,0,0,0,2.19-.86,11.81,11.81,0,0,0,1.84-2.12c.21-.27-1.25,2.3.21,2.74s4.07.16,4.51-1.43-.39-3,.4-4,3.33-4.73,3.68-4.61-.35,2,.6,3.26,3.59,2.19,4.91.91.32-4.93.77-5.67,3.32,0,4.75-1.44.95-4,1.53-4.13a3.09,3.09,0,0,0,3-2.87c.2-1.06.57,4.83,3,5.67s3-1.19,3.36-.62-2.67,3-1.45,4.65,2.28-.06,2.55.12-1.21,2.88.21,3,2.27-.5,3.18.42.48,5.42,2,6.08c.91.4,2,0,3.42-.59s2.73-2,2.76-2.75c0-1.43,1.59-.46,1.56-.32s.14,1.28.76,1.18,1.15-1.24,1.81-1.42,2.14-.45,2.44.55.9,3.19,3.27,3.35,3.34-3.25,3.53-3.46.07,2.75,2,2.75,4-2.71,4.44-3.87.17-2.71-.53-2.71a4.42,4.42,0,0,0-2.69,1.73,12.54,12.54,0,0,1,1.22-2.12c.49-.37,1.06-1.9.25-2.22s-1.43-.69-.72-2.51,2.81-.51,5.57-1.08.57-2.95-.15-3.48-2.35-1.66-2.35-2.46,2.94-.95,2.94-2.85-3.45-1.54-2.94-2,2.85-1.57,3.13-2.25-.17-1.76,0-2,3.65-1.18,4.57-2.38.71-4-1.76-3-.38-1.57-2.64-2.85c-1.32-.75-3.27-1.57-4.43-1.05s.76-2.46-.94-2.95a9.7,9.7,0,0,0-3.71-.13c-.37,0,.41-1.48.71-3.49s-3.11-2.5-3.11-2.5"/><path id="Path-51-2" data-name="Path-51" class="cls-2" d="M194.51,263.77c.27.41,1,3.26,8.48-.28,1.7-.8,3-.66,4-2s.52-1.94,1-2.76,1.74,2.07,4,1.52,3.16-2,2.72-3.44-.14-3.22,1.18-3.13,2.92.64,4.14.37,1.28-1.8,2.59-2.38,2.45-.43,2.61-1.45-.45-2.61,0-2.94,1.85-.22,2.09-1.7-.21-2.12-1.86-2.7-3.82-1.07-3.58-1.4a17.17,17.17,0,0,0,2.75-3.2,6.2,6.2,0,0,0,1.16-3.52,3.13,3.13,0,0,0-1.6-2.69c-1-.38-2.24.15-2.74-.19-1.15-.8-.82-1.92-2.82-2.29a15.38,15.38,0,0,0-2.93.24c-1,0-1.84,1.15-1.93-.38s-3.72-1-5-.11"/><path id="Path-52-2" data-name="Path-52" class="cls-2" d="M204.9,230.53a7.45,7.45,0,0,0,3.67-1,1.92,1.92,0,0,0,1.12-2.23c0-2-2.07-3.81-2.51-4.51-.55-.86,2.25.05,3.38-.25s1.71-1,1.71-1.62c0-.37,0,.41,1.22.71s1-2.62,2.25-2.32,3.8-2.55,2.07-3.07-1.2-1.16-.39-1.56,1.51,1.39,3.85,1.29,6.63-5.58,3.39-5.58c-.9,0-.69-.52-.69-.52s3-4.18-3.93-3.33c-2.91.36-7.56,1.33-7.39,1.33s8.45-2.54,8.45-4-2.58-.78-2.58-.92,2.14-1.12,2.37-2.33c.17-.86-.26-1.48-1.55-1.79s-3.94.22-3.48,0a6.43,6.43,0,0,0,1.56-1.1,4.91,4.91,0,0,1,1.5-1.26c2.1-1.21,3.58-.75,4.24-1.83s-.11-1.45.18-1.68,3.8-1.31,3.43-4-2.14-3.26-3.86-3a6,6,0,0,0-3.66,3c-.32.66-.78.8-1.1.52s0-1.36-1-1.36c-2.89,0-.77-1.41-2.4-2.84s-3.93,1.08-3.37-.28.18-4.25-3-3.74c-1.51.24,1.2-.39,1.2-1.76s-3.4-1.25-3-1.53a1.79,1.79,0,0,0-1.86-2.86c-3,.25,2.25-1,2.58-3.48s-.29-5.22-3.11-5.27-7.82,3.93-8,6.39-2.25-1.33-2.25-1.33-.73-.58-2.13.55.55-2.54-1.64-2.18-3,1.61-3.18.8.35-3.61-1.32-3.92-4.1.65-3,4.54-1.59-.14-1.59-.14a5.51,5.51,0,0,0-5-.51c-2.77,1.07-3.5-1.27-4.64.07s.46,2.86-.51,2.84-1.14-1.75-2-1.5-1.48-.31-2.53.43-1.41,0-1.69-1-1.62-.81-2.72-.15.51-1.45.3-2.18-1.68.37-1.19-.57,2.57-4.74.47-7.21-3.48.95-5.84,1.61-3.28.4-3.35-.19,1.15-2.41,0-2.66a2.55,2.55,0,0,0-2.49,1.23c-.55.67-.66-2.69-2.67-3s-2.72,1.58-2.72,4.47c0,1.05-.94-3.27-2-3.26s-1.37,1.68-2.49,1.24-.31-.77-.69-1.61-2.29-.36-2.65.37.87-2.72.43-3.19-1.6.15-1.6-.28c0-.21.31-.72.43-1.16a1,1,0,0,0-.22-1.1c-.56-.42-2.32.53-2.32,0,0-.24,1.18-.71,1.81-1.42a1.32,1.32,0,0,0-.66-2.15c-1-.27-1.1-.79-1.86-1.07s-.89.95-1.93.69-.3-1.36-1.14-1.56-.1.71-1.92,1-1.63-1.43-3-1.3a1.23,1.23,0,0,0-1.1,1.84c.24.61.79,1.53,1.1,2.26s-1-1.19-1.56-1.44-1.3-.26-1.18.27.07.9-.65,1-1.25-.79-2.13,0a2,2,0,0,0-.61,2.72c.61.9,1.68,1.42.9,1.14s-1.2-.21-1.37,1.41,1.08,1.35.64,1.48-2.39-1.19-3.45-.54-1,1.4-1.47,1.68.25-2.19-.74-2.62a2.78,2.78,0,0,0-2.89.94c-.5.69-.43-2.88-1.27-3.24s-2,.23-2,.68c-.06.67-1.76-6.16-5.67-6s-2.67,4.29-2.24,4.92.87,1.09.38.86-1.14-1.35-2-1a1.86,1.86,0,0,0-1.32.88,1.75,1.75,0,0,0,0,2c.66,1.14.69,2.83.44,2.93a2.67,2.67,0,0,0-1.67,3.55c1,2.47-1.26-1.32-2.62.32a4.39,4.39,0,0,0-.69,3.82c0,.36-3.39-2.08-5.08-1.33s-1.1,2.18-1.74,3.05-.39-3.05-2.27-1.72-5.09.29-3.11,3.15-.69-1.39-2.24-.83-1.56,2.39-1.82,1.41-1.46-2.39-2.84-1.82c-.49.21-1.85,1.31-1.81,2.37,0,.48-.28,2.31.28,3.14a4.34,4.34,0,0,0,2,1.22c-1.29.64-3.37-.93-3.7,0s1,1.07,1.38,1.58-.44,1.56-.69,1.74a.93.93,0,0,0,0,1.61c.92.65,2,.43,1.72.76s-3.19-.72-3.65,0,.27,1.36-.27,1.39c-.28,0-1.08-1-1.88-.91s-1.58,1.21-1.88.91c-.61-.61-.68-3.25-1-3.46s-1.78-.22-1.89.22.9-1.64.41-2.2-1.48-.14-2-.07,1.57-3.47-.45-3.47-3.22-1.4-3.41,0-.6,1.59-.9,1.22.35-1.22-.61-1.67-4.49.82-5,2.58a4.12,4.12,0,0,0,0,2.41c.32.64,2.55,2.37,2.78,3.53.34,1.66-1.09,1.58-1.15,2.18s1.25,1.18,1.58,1.25a.58.58,0,0,1,.45.81c-.17.43-.94,0-.88,1.39s.84,2-.31,2.38S49.09,189,47.74,189s-2.48.49-2.14,1.54,2.43,3,2.43,3,1.87,1.31.36.93-2.13-1.12-3.74-1.5-1.16,2.38-1.83,2.14-.25-2.52-2.33-2.1-1.68,2.8-1.4,3.51-2.84-4.72-3.86-5.29-4-.69-3.46,1,1.26,2.46.45,1.83-1.71-1.87-2.67-1-.28,2.8,0,3.78-2.07.7-2.07.7-2.54.1-2.37,1.73.66,1,2.76,2.15,1.28,1.86.73,2.3,2.89-.22,2.54.75-2,.89-1.86,1.72.79,1.76,0,2.46-1.42-1.16-2.42-1.95-2.66,1-2.05,1.54,1.91,2.66.62,3-2.16.76-2.59-.24-1.27-2-1.83-1-1.3,1.53-1.57.8-.71-2.52-1.74-3.24-2.25-.73-4,0a2,2,0,0,0-1.09,3c.5.68.72,1.81.44,1.42s-3.13-2.48-3.65,0,1.27,2.33,1.94,2.45.72.46,0,.74-2.49-.62-2.77,1.66,3.4,1.14,2.77,2.64-2.44,1-3.9,1.51-4.42,1.51-3.72,3.79,3.37.68,3.37,1.14-1.3.8-1,1.15,2.55.12,2.79.77-1.2.63-1.78,1-1.55,1.76-.64,2.61,4.37.7,3.74.7-5.58,1.65-5.68,3.82,4.89-.35,4.6.31-1.58,1.31-1.67,1.37S4.75,239.25,6,240.63s2.48.11,3,.36-3.15,3.63-2,5.28a2.45,2.45,0,0,0,1.21,1.06,3,3,0,0,0,1.9-.58c.72-.55,1.12-2.27,2.11-2.27s.71,2.85,2.08,2.27c.59-.25,1.77-.31,2.2-1.68s-.61-4.3,0-4.08c1.05.38,2.26-1.31,2.57-.57s0,2.39,1,1.93,1.93-1.33,1.91-.42.5,3.71,0,4.34-2.52,1.23-1.89,2.39,4.36.16,4.36.33-3.41.94-2.47,2.56,1.34,1.73,4.23,1.17S29,251.21,29,251.55a9.47,9.47,0,0,1-1.49,2.85c-.81,1.16-.64,3.92,3.26,3a10.38,10.38,0,0,0,5.84-3.93"/><path id="Path-55" class="cls-2" d="M42.39,313.94s-1.78,3.95-1.08,5.53,3.16-.56,3,.27c-.3,2-2.53,8.65-.89,9.82,2.94,2.07,3.14-3.14,3.56-1.88s.24,4.2,2.89,3.95,2.77-2,2.66-2.7,1.4,1.95,3.55,1.52,1.54-2.77,1.54-3.06,1.88.43,2.41-.94,1,2.73,3.37,2.48.3-3.72,1.45-1.82,1.91,4.23,5.63,3.6,2.84-2.22,3.1-3,1.61.81,2.5,0,.52-2.38,1.24-2.6.87,2.63,2.81,2.6,1.75-2.36,2.29-1.93a4.46,4.46,0,0,0,4.22,1.12c2.38-.56,1.87-3.41,2.38-3.84s3,.8,3.74-.42-3-1.7-.94-1.59,6.07,1.74,5-4.91"/><path id="Path-56-2" data-name="Path-56" class="cls-2" d="M15.46,279c-.32,0-11.24,4.39-11.29,9,0,1.8,1.87,2.74,3.72,2.23s6.41-3.6,6.06-2.95c-.57,1.05-5.78,5.56-4.43,7.11s4-1.59,4.43-1.51-3.33,3.64-2,6.64,3.41-1.65,3.55-1.34-1.11,3.83,0,4.23,1.74-.9,1.82-.53.4,1.42-.5,2-1.32,1.78-.74,2.42,2,.28,2.4.6-1.58,3,0,3.82,3.8-1.61,4-2.77-.09,2.94,1.66,2.77,1.26-1.25,2.2-1.15a10.39,10.39,0,0,1,3.29,1.15c1.29.63,1.26.44,2.37,2.34s-.15,3.09,2.1,3.86,2.69-2.24,3.25-2.4,2,2.49,2.86,1.53,3.27-1.85,4.81-5.95"/><path id="Path-57-2" data-name="Path-57" class="cls-2" d="M109.91,213.69s2-5.57,5.1-3.1a3.08,3.08,0,0,1,.85,2.42c-.4,1.17,1.06-.76,2.12,0s-.46,3.62.34,4.67,3.59-.41,4,.32,0,1.9-.36,3.49,2-3,4.34-2.75,2.86,2.59,4.37,2,2.25-.76,3.25-.2,1.75,1.21.41,2.5,2.33-2.76,5.05-1.86,2.76,2.58,0,5.47"/><path id="Path-58" class="cls-2" d="M171.41,235.3s2.57-2.55,4.22-1.13,1.1,3.77.35,5.57-.24.14,1.1-.42,4.11,1.23,2.29,4.17,1.78-2.58,3.49-2.66c.71,0,2.07.58,2.26,1.47s-.76,2.93-.38,2.93c.65,0,3.17-2.23,4-.48a4,4,0,0,1-1.58,5.18c-2,1-2.43.42-2,.72s1.79.34,1.49,1.16a4.78,4.78,0,0,1-1.87,1.92c-.35.15,2.44,1.12,1.91,2.1s-1.41,2.31-5.82,2.6"/><path id="Path-59-2" data-name="Path-59" class="cls-2" d="M169.86,192.39s2.84-2.38,3.57-1.15a2.07,2.07,0,0,1,0,2.62c-.52.83,1.72-2.49,2.8-1.47s.55,2.81,0,3.6,1.09-2.09,2.82-1.48,1.4-.65,1.4-.65a2.55,2.55,0,0,1,2-2.62c2.13-.37,4.61,1.73,3.72,3.89s.64,1.59.64,2.52S184.08,200,184.1,201s2,0,2.74,0a1.32,1.32,0,0,1,.94,1.91c-.48.77-1.06,1.11-1.57,2s2.7,0,3,1.67-.48,1.91-1,2.54c-.1.12-1.34,2-1.41,2.14L188,210s3.67-1.85,4.41-.51,0,1.44-.84,1.82.26.87.84,1.32,1.91,4.17-1.54,4.73a15.42,15.42,0,0,1-4.68.31"/><path id="Path-60-3" data-name="Path-60" class="cls-2" d="M108.28,182.53s.51-2.9,2-3.84,2.89.27,3.57,1.83.38-1.23,2.74-.61,1.68,2.48,2,1.9-.71-6.35,2-6.47,4-.51,4.37.73-.61,3.51-.3,3.84,1.56-2.33,2.43-1.22a4.87,4.87,0,0,1,.37,4.77c-.75,1.65-.37.86-.37.86s1-1.06,1.79-.55.33,1.77.29,3-.86,1.43-.65,1.62c.56.5,2.35-4.41,3.46-3.55.57.45,2-.13,2.65.27s.49,1.7.31,2.24c-.37,1.11,2.35-2.32,3.56-.58s-1.2,6.52-1.2,6.52"/><path id="Path-60-4" data-name="Path-60" class="cls-2" d="M76.47,305.39s-.79,2.18-2.41,2.72a2.72,2.72,0,0,1-3.37-1.85c-.53-1.29-.49.9-2.78.14s-1.42-2.13-1.85-1.73.1,5-2.62,4.76-4-.09-4.27-1.09.93-2.65.66-2.94-1.77,1.62-2.53.65a3.12,3.12,0,0,1,.08-3.74c.91-1.18.46-.61.46-.61s-1.11.69-1.83.21-.16-1.41,0-2.36,1-1,.79-1.17c-.51-.46-2.75,3.12-3.77,2.32-.52-.42-2-.15-2.61-.53s-.32-1.38-.09-1.77c.48-.82-2.55,1.51-3.59,0s1.81-4.9,1.81-4.9"/><path id="Path-61-2" data-name="Path-61" class="cls-2" d="M60.54,203.61s-.58-3.18.09-3.61A2.74,2.74,0,0,1,64,201.16c1,1.43-.47-4.41,1-4.41s3.2,1.92,4,1.11-.25-4,1.51-3.73,2.34-1.51,3.21-.9.31,3,2.51,3.52,3.87-4.14,6.09-2.62c.94.65,2,.94,2.25,2.12.56,2.37-.27,2.21-.78,3.75s-.94,3-.36,4.25"/><path id="Path-62-2" data-name="Path-62" class="cls-2" d="M140.08,422c-3.07.24-6.61-.45-7.39-1.09-3.17-2.62-6.48-1.49-7,0-.26.78-.84-.48-2.76-1.13s-4.44-.42-5.79-.42c-3,0-5.55,2.67-5.55,2.67s-2.56,1.22-4.39.1-3-.94-5.59-.52-3-1.12-3-1.12a4.39,4.39,0,0,1-3,1.64c-1.72,0-1.1-2.77-1.1-2.77A19.9,19.9,0,0,1,90.6,422c-1.32.44-1.42-1-1.42-1.51s-1.65.48-3,0S83.89,423.15,83,423s-2.58-2.11-2.58-2.11L79.87,423s-1,1.87-2.12.86-3.38-2.59-3.38-2.59a2.65,2.65,0,0,1,.27,1.73,3.65,3.65,0,0,0-.27.86l-6.91-2.33A9.91,9.91,0,0,1,69.3,423c.75.82,2.61,3.16,1.27,1.87S61.83,422,61.83,422s1.05,1.59.45,2.25-2.14.67-2.14.67a40.05,40.05,0,0,0-5.3-1c-2.08-.17-1.44-.26-7.46-.15s-11.29.49-11.29.49"/><path id="Path-63-2" data-name="Path-63" class="cls-2" d="M132,414.79a48.77,48.77,0,0,1,5.45-5.32,21.33,21.33,0,0,1,5.66-2.45s-1.58,1-3.93,2.71-3.69,5.25-3.1,5.54,1.82-.29,2.68-1.12a7.78,7.78,0,0,1,1.79-1.28s-1.73,2.71-.4,2.4,2.49-.48,2.49-.48-1.84,1.47,0,1.47a44.47,44.47,0,0,1,7.15.46,36.31,36.31,0,0,0,3.64.81,13.76,13.76,0,0,0,3,.4c1.29,0,2.15-1.67,2.15-1.67a6.41,6.41,0,0,0,1.4.93,2.11,2.11,0,0,0,2.27-.46c1-.93.79,2.4,2.53,1.2a12.48,12.48,0,0,1,3.71-1.67s-1.11,1.29,0,1.67a18.82,18.82,0,0,0,3.44.87,43.22,43.22,0,0,1,9.74,0c2.71.26,5,1.26,6.82,1.63a35.23,35.23,0,0,0,5.42.32"/><path id="Path-54" class="cls-2" d="M13.39,270.76c-4.29,2.88-.27,3.67.48,3.46s-1.49,1.2-.65,2.07,3,.13,3.4.56-1.59-.41-1.43,1.51,3.56,3.13,6.44,2.83"/><path id="Path-53" class="cls-2" d="M22,252.47c-.86.34-5.41,1.13-4.43,3.83.23.66,1.88.08,1.46.64-.78,1-2.27-.39-3.6,1.28-.35.44-.45,1.56,0,1.84.8.5,4.25.16,3.36.48-1.44.51-6.5.79-7.29,2.18s1.31,1.44,1.29,1.53c-.38,1.48-2.87.54-3.27,2.05s2.26,1.42,2.48,1.95-1.39.79-.46,1.59a3.23,3.23,0,0,0,2,1,10.05,10.05,0,0,0,5-.3"/></g></g></g><path class="cls-6" d="M-64.32,353.19H99.32"/><path class="cls-6" d="M115.54,353.2h56"/><path class="cls-6" d="M901.5,353.26H995"/><path class="cls-6" d="M1008.67,353.26l167.33,0"/></svg>