<?xml version="1.0" encoding="utf-8"?>
<!-- Generator: Adobe Illustrator 16.0.0, SVG Export Plug-In . SVG Version: 6.00 Build 0)  -->
<!DOCTYPE svg PUBLIC "-//W3C//DTD SVG 1.1//EN" "http://www.w3.org/Graphics/SVG/1.1/DTD/svg11.dtd">
<svg version="1.1" id="Layer_1" xmlns="http://www.w3.org/2000/svg" xmlns:xlink="http://www.w3.org/1999/xlink" x="0px" y="0px"
	 width="1110px" height="600px" viewBox="1155.5 -56.5 1110 600" enable-background="new 1155.5 -56.5 1110 600"
	 xml:space="preserve">
<title>dom-3-1110@3x</title>
<desc>Created with Sketch.</desc>
<g>
	<g id="Page-1_1_">
		<g id="dom-2-1110">
			<g id="_x32_" transform="translate(-120.000000, -132.000000)">
				<g id="Group_1_" transform="translate(137.000000, 164.000000)">
					<g id="дом2_белый" transform="translate(199.000000, 0.000000)">
						<path id="Path-72" fill="none" stroke="#FFFFFF" d="M1727.489,148.929v21.982l148.588-11.032l104.254,38.786V68.401
							l-104.718-94.193l-464.217,83.293L1281.24,20.883l-118.973,28.063v27.609l118.653-24.166l130.872,31.564
							c0.053,0.013,0.048,0.03-0.012,0.04l-116.195,19.168l-3.318-0.446"/>
						<path id="Path-121" opacity="0.8" fill="none" stroke="#FFFFFF" enable-background="new    " d="M1316.748,121.743v41.052"/>
						<path id="Path-73" fill="none" stroke="#FFFFFF" d="M1875.906-26.045v185.566"/>
						<polyline id="Path-74" fill="none" stroke="#FFFFFF" points="1727.508,149.286 1674.368,134.936 1653.55,136.662 						"/>
						<path id="Path-75" fill="none" stroke="#FFFFFF" d="M1164.141,137.008V76.82l0,0l7.121-0.799l0.393,69.665 M1164.141,142.795
							v-1.362"/>
						<polyline id="Path-75_1_" fill="none" stroke="#FFFFFF" points="1171.509,76.015 1182.156,77.646 1182.156,126.039 						"/>
						<path id="Path-76" fill="none" stroke="#FFFFFF" d="M1272.201,55.426V159.22l9.473-1.029V54.172
							c0-0.277-0.216-0.462-0.482-0.412L1272.201,55.426z"/>
						<path id="Path-76_1_" fill="none" stroke="#FFFFFF" d="M1281.512,53.753c0-0.047,0.031-0.077,0.08-0.065l10.567,2.653v103.155
							l-10.647-1.523"/>
						<path id="Path-77" fill="none" stroke="#FFFFFF" d="M1271.961,99.078l-89.74-18.202"/>
						<polygon id="Path-78" fill="none" stroke="#FFFFFF" points="1350.633,340.944 1350.633,347.94 1361.514,348.63 
							1361.514,357.187 1372.738,357.498 1372.738,364.162 1324.564,368.362 1196.4,360.838 1196.4,353.288 1218.77,352.874 
							1218.77,345.545 1240.962,344.164 1240.962,338.214 1272.943,337.321 1326.236,340.048 						"/>
						<polyline id="Path-79" fill="none" stroke="#FFFFFF" points="1350.738,341.091 1326.73,343.642 1240.838,338.729 						"/>
						<polyline id="Path-80" fill="none" stroke="#FFFFFF" points="1241.18,344.128 1326.404,349.67 1350.992,347.951 						"/>
						<polyline id="Path-81" fill="none" stroke="#FFFFFF" points="1196.407,353.407 1324.03,361.746 1373.006,357.576 						"/>
						<polyline id="Path-82" fill="none" stroke="#FFFFFF" points="1218.67,352.871 1325.145,359.881 1361.646,357.103 						"/>
						<polyline id="Path-83" fill="none" stroke="#FFFFFF" points="1326.588,343.339 1326.588,349.698 1325.309,351.86 
							1325.309,359.787 1324.025,361.587 1324.025,368.618 						"/>
						<polyline id="Path-84" fill="none" stroke="#FFFFFF" points="1218.919,345.468 1325.115,351.879 1361.805,348.605 						"/>
						<polyline id="Path-85" fill="none" stroke="#FFFFFF" points="1184.693,168.945 1282.115,158.246 1412.135,176.538 
							1411.283,321.701 1281.344,327.029 1282.115,158.246 						"/>
						<path id="Rectangle-6" fill="none" stroke="#FFFFFF" d="M1376.007,279.423v5.258l1.54-0.143v-5.004L1376.007,279.423z"/>
						<path id="Rectangle-6_1_" fill="none" stroke="#FFFFFF" d="M1373.314,279.423v5.258l-1.539-0.143v-5.004L1373.314,279.423z"/>
						<path id="Path-86" fill="none" stroke="#FFFFFF" d="M1161.388,190.019v6.886 M1161.388,202.859v4.124 M1161.388,209.832v1.545
							 M1161.388,214.167v2.611 M1161.388,220.382v3.454 M1161.388,232.036v114.456l27.253,1.662v-17.976l92.737-3.29"/>
						<polyline id="Path-87" fill="none" stroke="#FFFFFF" points="1720.399,335.349 1720.399,368.51 1645.787,380.969 
							1372.887,364.09 						"/>
						<polyline id="Path-88" fill="none" stroke="#FFFFFF" points="1196.714,353.292 1188.655,352.918 1188.655,345.083 						"/>
						<polyline id="Path-89" fill="none" stroke="#FFFFFF" points="1720.429,335.731 1645.186,344.161 1188.662,330.427 						"/>
						<path id="Path-90" fill="none" stroke="#FFFFFF" d="M1645.479,344.314v36.722"/>
						<polyline id="Path-91" fill="none" stroke="#FFFFFF" points="1175.789,140.557 1175.789,127.226 1272.211,112.823 
							1272.211,116.251 1179.076,130.289 1179.076,141.751 						"/>
						<path id="Path-92" fill="none" stroke="#FFFFFF" d="M1222.887,123.85l0.369,40.679"/>
						<path id="Path-92_1_" fill="none" stroke="#FFFFFF" d="M1225.426,123.337l0.362,41.065"/>
						<polygon id="Path-93" fill="none" stroke="#FFFFFF" points="1292.191,117.3 1404.936,138.033 1404.936,175.51 
							1407.279,175.836 1407.279,136.067 1292.191,113.571 						"/>
						<polygon id="Path-94" fill="none" stroke="#FFFFFF" points="1180.025,214.383 1180.025,311.595 1258.026,314.072 
							1258.026,208.912 						"/>
						<polygon id="Path-95" fill="none" stroke="#FFFFFF" points="1184.205,217.379 1198.998,216.6 1198.998,308.312 
							1184.205,307.912 						"/>
						<polygon id="Path-95_1_" fill="none" stroke="#FFFFFF" points="1202.869,216.265 1217.663,215.204 1217.621,308.772 
							1202.826,308.312 						"/>
						<polygon id="Path-95_2_" fill="none" stroke="#FFFFFF" points="1222.296,214.928 1237.532,214.017 1237.532,309.469 
							1222.296,309.025 						"/>
						<path id="Path-96" fill="none" stroke="#FFFFFF" d="M1257.954,310.23l-73.817-2.521"/>
						<path id="Path-96_1_" fill="none" stroke="#FFFFFF" d="M1257.653,212.647l-73.255,4.751"/>
						<polygon id="Path-97" fill="none" stroke="#FFFFFF" points="1257.001,212.702 1241.266,213.783 1241.266,309.66 
							1257.001,310.187 						"/>
						<polyline id="Path-98" fill="none" stroke="#FFFFFF" points="1720.677,353.641 1646.063,363.521 1361.964,349.326 						"/>
						<path id="Path-99" fill="none" stroke="#FFFFFF" d="M1240.97,343.08l-52.302-2.045"/>
						<path id="Path-100" fill="none" stroke="#FFFFFF" d="M1161.529,335.731l27.225,1.316"/>
						<path id="Path-101" fill="none" stroke="#FFFFFF" d="M1674.336,134.919v200.293"/>
						<path id="Path-102" fill="none" stroke="#FFFFFF" d="M1927.407,20.734v158.045"/>
						<path id="Path_10_" fill="none" stroke="#FFFFFF" d="M1487.108,168.827l0.088,0.996l-79.26,6.978l-0.088-0.996
							L1487.108,168.827z M1487.196,169.823l-79.26,6.978l-0.088-0.996l79.26-6.978L1487.196,169.823z M1161.35-26.509"/>
						<path id="Path_9_" fill="none" stroke="#FFFFFF" d="M1316.754,117.72l406.753,30.297l76.664-6.749V23.126l-483.417,77.711
							V117.72z"/>
						<path id="Path-102_1_" fill="none" stroke="#FFFFFF" d="M1950.263,41.209v146.449"/>
						<path id="Path-103" fill="none" stroke="#FFFFFF" d="M1752.567,30.849l-0.392,114.939"/>
						<polygon id="Path-104" fill="none" stroke="#FFFFFF" points="1757.267,36.797 1794.512,30.812 1794.512,137.402 
							1757.267,140.526 						"/>
						<path id="Path-105" fill="none" stroke="#FFFFFF" d="M1685.316,41.776v95.747"/>
						<path id="Path-106" fill="none" stroke="#FFFFFF" d="M1581.2,58.181v58.673"/>
						<polyline id="Path-107" fill="none" stroke="#FFFFFF" points="1585.777,118.442 1585.777,61.827 1681.931,45.916 
							1681.931,136.952 						"/>
						<path id="Path-108" fill="none" stroke="#FFFFFF" d="M1603.484,58.885l0.017,65.174"/>
						<path id="Path-109" fill="none" stroke="#FFFFFF" d="M1608.582,58.296v66.707"/>
						<path id="Path-110" fill="none" stroke="#FFFFFF" d="M1629.443,54.797V130.6"/>
						<path id="Path-111" fill="none" stroke="#FFFFFF" d="M1635.259,54.002v78.112"/>
						<path id="Path-112" fill="none" stroke="#FFFFFF" d="M1656.866,50.144v86.345"/>
						<path id="Path-113" fill="none" stroke="#FFFFFF" d="M1662.385,49.215v86.442"/>
						<path id="Path-114" fill="none" stroke="#FFFFFF" d="M1411.805,57.378l0.075,26.754"/>
						<path id="Path-115" fill="none" stroke="#FFFFFF" d="M1350.152,128.1v39.622"/>
						<path id="Path-115_1_" fill="none" stroke="#FFFFFF" d="M1352.652,128.396v39.621"/>
						<path id="Rectangle-2" fill="none" stroke="#FFFFFF" d="M1578.284,132.67l-0.079,12.04l36.209,8.63v-11.244L1578.284,132.67z
							 M1570.039,142.763l0.135-12.208l-35.82-9.344v13.048L1570.039,142.763z"/>
						<path id="Path-116" fill="none" stroke="#FFFFFF" d="M1577.48,332.209l142.802,3.689"/>
						<path id="Path-116_1_" fill="none" stroke="#FFFFFF" d="M1535.956,331.135l34.721,0.897"/>
						<path id="Path-116_2_" fill="none" stroke="#FFFFFF" d="M1496.015,330.103l33.286,0.86"/>
						<polyline id="Path-117" fill="none" stroke="#FFFFFF" points="1486.767,159.826 1486.767,329.885 1489.385,329.955 						"/>
						<path id="Rectangle-2_1_" fill="none" stroke="#FFFFFF" d="M1574.929,116.485v12.422l80.115,20.418v-12.167L1574.929,116.485z
							"/>
						<polyline id="Path-118" fill="none" stroke="#FFFFFF" points="1574.552,116.277 1565.26,117.222 1565.26,129.268 
							1574.805,128.935 						"/>
						<path id="Rectangle-2_2_" fill="none" stroke="#FFFFFF" d="M1528.395,145.807l-4.068-11.985l-29.813-7.032v11.276
							L1528.395,145.807z"/>
						<polyline id="Path-118_1_" fill="none" stroke="#FFFFFF" points="1494.448,126.47 1484.702,127.23 1484.702,138.446 
							1494.448,137.915 						"/>
						<path id="Path-153" opacity="0.8" fill="none" stroke="#FFFFFF" enable-background="new    " d="M1340.938,126.328v39.941"/>
						<path id="Path-154" opacity="0.8" fill="none" stroke="#FFFFFF" enable-background="new    " d="M1369.052,131.433v38.832"/>
						<path id="Rectangle-2_3_" fill="none" stroke="#FFFFFF" d="M1488.902,149.565l-4.422-12.14l-29.751-6.415v11.083
							L1488.902,149.565z"/>
						<polyline id="Path-118_2_" fill="none" stroke="#FFFFFF" points="1454.664,130.703 1446.456,131.869 1446.456,142.699 
							1454.664,142.148 						"/>
						<path id="Path-156" opacity="0.8" fill="none" stroke="#FFFFFF" enable-background="new    " d="M1345.439,127.24v39.721"/>
						<path id="Path-157" opacity="0.8" fill="none" stroke="#FFFFFF" enable-background="new    " d="M1365.105,130.717v39.063"/>
						<polyline id="Path-118_3_" fill="none" stroke="#FFFFFF" points="1534.181,120.913 1524.486,121.739 1524.486,134.579 
							1534.181,134.216 						"/>
						<path id="Rectangle-4" fill="none" stroke="#FFFFFF" d="M1570.696,130.313v210.048h6.618V130.57L1570.696,130.313z"/>
						<path id="Rectangle-4_1_" fill="none" stroke="#FFFFFF" d="M1529.219,135.741v202.926h6.618V135.979L1529.219,135.741z"/>
						<path id="Rectangle-4_2_" fill="none" stroke="#FFFFFF" d="M1496.053,336.795h0.5l-0.5,0.5V336.795z M1489.435,138.963
							v197.832h6.618v-197.6L1489.435,138.963z"/>
						<path id="Rectangle-4_3_" fill="none" stroke="#FFFFFF" d="M1452.189,143.303v192.586h6.618V143.529L1452.189,143.303z"/>
						<path id="Rectangle-4_4_" fill="none" stroke="#FFFFFF" d="M1416.638,146.688v188.025h6.618V146.908L1416.638,146.688z"/>
						<path id="Path-119" fill="none" stroke="#FFFFFF" d="M1570.674,155.556l-34.785-7.956"/>
						<path id="Path-120" fill="none" stroke="#FFFFFF" d="M1321.105,163.775v-41.213 M1321.105,119.29v-17.627l71.832-11.578
							v43.116 M1392.938,135.687v38.103"/>
						<path id="Path-122" fill="none" stroke="#FFFFFF" d="M1281.112,20.853l-0.08,31.518"/>
						<polyline id="Path-123" fill="none" stroke="#FFFFFF" points="1351.807,324.164 1351.807,226.017 1400.055,229.803 
							1400.055,321.973 						"/>
						<path id="Rectangle-3" fill="none" stroke="#FFFFFF" d="M1354.846,229.074v9.657l42.291,2.561v-8.88L1354.846,229.074z"/>
						<path id="Path-124" fill="none" stroke="#FFFFFF" d="M1486.838,169.824l-27.83,2.406"/>
						<path id="Path-124_1_" fill="none" stroke="#FFFFFF" d="M1452.172,172.822l-28.729,2.484"/>
						<path id="Path-124_2_" fill="none" stroke="#FFFFFF" d="M1416.642,175.973l-5.223,0.463"/>
						<path id="Path-125" fill="none" stroke="#FFFFFF" d="M1727.175,170.984l132.145,31.652"/>
						<path id="Path-126" fill="none" stroke="#FFFFFF" d="M1880.479,203.12l23.258-1.187"/>
						<path id="Path-126_1_" fill="none" stroke="#FFFFFF" d="M1922.345,200.985l15.873-0.81"/>
						<path id="Path-126_2_" fill="none" stroke="#FFFFFF" d="M1954.15,199.363l11.876-0.605"/>
						<polyline id="Path-127" fill="none" stroke="#FFFFFF" points="1880.88,336.197 1893.456,334.335 1893.456,202.322 						"/>
						<path id="Path_8_" fill="none" stroke="#FFFFFF" d="M1720.801,359.907l53.451-7.917 M1776.938,351.593l82.416-12.207"/>
						<path id="Rectangle-5" fill="none" stroke="#FFFFFF" d="M1859.344,163.213V365.43l15.929,0.797V162.176L1859.344,163.213z"/>
						<polyline id="Path-129" fill="none" stroke="#FFFFFF" points="1875.599,162.045 1880.852,163.355 1880.852,351.758 						"/>
						<path id="Rectangle-5_1_" fill="none" stroke="#FFFFFF" d="M1904.206,177.135v165.289l14.237,1.146V176.553L1904.206,177.135z
							"/>
						<polyline id="Path-129_1_" fill="none" stroke="#FFFFFF" points="1918.769,176.435 1922.329,177.425 1922.329,343.469 						
							"/>
						<path id="Rectangle-5_2_" fill="none" stroke="#FFFFFF" d="M1938.065,190.678v145.539l13.39,0.791v-146.91L1938.065,190.678z"
							/>
						<polyline id="Path-129_2_" fill="none" stroke="#FFFFFF" points="1951.781,189.979 1954.495,190.969 1954.495,336.911 						
							"/>
						<path id="Rectangle-5_3_" fill="none" stroke="#FFFFFF" d="M1965.999,198.882v131.377l11.697,1.39V198.555L1965.999,198.882z"
							/>
						<polyline id="Path-129_3_" fill="none" stroke="#FFFFFF" points="1978.021,198.444 1980.313,199.358 1980.313,342.824 						
							"/>
						<polyline id="Path-128" fill="none" stroke="#FFFFFF" points="1529.11,200.429 1514.758,201.335 1514.758,315.832 
							1529.21,316.181 						"/>
						<polyline id="Path-128_1_" fill="none" stroke="#FFFFFF" points="1529.312,205.003 1519.703,205.608 1519.703,311.59 
							1529.101,311.696 						"/>
						<path id="Path-130" fill="none" stroke="#FFFFFF" d="M1535.985,316.371l34.674,0.833"/>
						<path id="Path-130_1_" fill="none" stroke="#FFFFFF" d="M1535.975,311.772l34.679,0.465"/>
						<polyline id="Path-131" fill="none" stroke="#FFFFFF" points="1577.383,317.368 1638.338,318.86 1638.338,193.55 
							1577.383,197.395 						"/>
						<polyline id="Path-131_1_" fill="none" stroke="#FFFFFF" points="1577.388,312.316 1634.362,313.032 1634.362,198.385 
							1577.283,201.973 						"/>
						<path id="Path-132" fill="none" stroke="#FFFFFF" d="M1535.917,199.998l34.731-2.195"/>
						<path id="Path-133" fill="none" stroke="#FFFFFF" d="M1535.923,204.552l34.691-2.132"/>
						<path id="Path-134" fill="none" stroke="#FFFFFF" d="M1543.858,204.13v107.633"/>
						<path id="Path-134_1_" fill="none" stroke="#FFFFFF" d="M1547.244,204.13v107.633"/>
						<path id="Path-135" fill="none" stroke="#FFFFFF" d="M1604.164,200.234v112.55"/>
						<path id="Path-135_1_" fill="none" stroke="#FFFFFF" d="M1607.44,200.097v112.63"/>
						<path id="Path-136" fill="none" stroke="#FFFFFF" d="M1720.388,345.844l55.374-6.145 M1777.186,339.541l7.587-0.842
							 M1786.122,338.55l73.217-8.124"/>
						<path id="Path-136_1_" fill="none" stroke="#FFFFFF" d="M1880.789,328.045l12.547-1.392"/>
						<path id="Rectangle-9" fill="none" stroke="#FFFFFF" d="M1743.223,203.919l-47.509-8.765V317.43l47.509-3.277V203.919z"/>
						<path id="Rectangle-9_1_" fill="none" stroke="#FFFFFF" d="M1738.005,206.553l-40.338-7.452v113.83l40.338-2.506V206.553z"/>
						<path id="Path-137" fill="none" stroke="#FFFFFF" d="M1708.594,312.186V201.133"/>
						<path id="Path-137_1_" fill="none" stroke="#FFFFFF" d="M1711.133,312.186V201.133"/>
						<path id="Path-137_2_" fill="none" stroke="#FFFFFF" d="M1725.522,311.34V204.197"/>
						<path id="Path-137_3_" fill="none" stroke="#FFFFFF" d="M1727.648,311.125l0.104-106.676"/>
						<path id="Path-138" fill="none" stroke="#FFFFFF" d="M1794.625,187.172l0.112,115.866 M1794.746,311.825l0.003,2.822
							 M1794.762,328.156l0.009,9.27"/>
						<path id="Path-139" fill="none" stroke="#FFFFFF" d="M1826.049,194.722v139.328"/>
						<polyline id="Path-140" fill="none" stroke="#FFFFFF" points="1859.4,224.766 1848.4,223.216 1848.4,309.261 
							1859.479,308.442 						"/>
						<polyline id="Path-140_1_" fill="none" stroke="#FFFFFF" points="1859.4,227.008 1848.4,225.555 1848.4,306.155 
							1859.479,305.388 						"/>
						<path id="Path-141" fill="none" stroke="#FFFFFF" d="M1853.31,226.427v79.043"/>
						<path id="Path-142" fill="none" stroke="#FFFFFF" d="M1854.669,226.629l0.069,78.88"/>
						<path id="Path-143" fill="none" stroke="#FFFFFF" d="M1452.072,182.53l-28.75-4.251"/>
						<path id="Path-143_1_" fill="none" stroke="#FFFFFF" d="M1416.516,177.272l-4.073-0.602"/>
						<path id="Path-144" fill="none" stroke="#FFFFFF" d="M1459.087,181.971l27.63-2.789"/>
						<path id="Path-145" opacity="0.6" fill="none" stroke="#FFFFFF" enable-background="new    " d="M1420.479,134.85
							l144.909-17.62"/>
						<path id="Path-146" fill="none" stroke="#FFFFFF" d="M1496.097,150.626l33.157,6.833"/>
						<polyline id="Path-146_1_" fill="none" stroke="#FFFFFF" points="1535.932,158.836 1540.018,159.677 1539.959,148.561 						
							"/>
						<path id="Rectangle-2_4_" fill="none" stroke="#FFFFFF" d="M1451.426,152.332l-5.499-12.204l-26.749-5.733v11.225
							L1451.426,152.332z"/>
						<polyline id="Path-118_4_" fill="none" stroke="#FFFFFF" points="1419.112,134.089 1411.468,135.158 1411.468,146.053 
							1419.112,145.533 						"/>
						<path id="Path-146_2_" fill="none" stroke="#FFFFFF" d="M1459.308,153.789l30.156,6.306"/>
						<polyline id="Path-146_3_" fill="none" stroke="#FFFFFF" points="1496.408,161.154 1507.793,163.236 1507.793,152.792 						
							"/>
						<polygon id="Path-147" fill="none" stroke="#FFFFFF" points="1354.811,242.244 1397.121,244.939 1397.121,318.635 
							1354.811,320.719 						"/>
						<path id="Path-148" fill="none" stroke="#FFFFFF" d="M1373.534,243.508v76.115"/>
						<path id="Path-149" fill="none" stroke="#FFFFFF" d="M1375.973,243.721v75.67"/>
						<path id="Path-150" fill="none" stroke="#FFFFFF" d="M1181.525,129.903l41.451,6.232"/>
						<path id="Path-150_1_" fill="none" stroke="#FFFFFF" d="M1225.549,136.522l46.652,7.015"/>
						<polyline id="Path-150_2_" fill="none" stroke="#FFFFFF" points="1292.337,146.564 1300.363,147.771 1300.363,160.73 						
							"/>
						<path id="Path-150_3_" fill="none" stroke="#FFFFFF" d="M1225.401,138.574l46.851,7.044"/>
						<path id="Path-150_4_" fill="none" stroke="#FFFFFF" d="M1178.986,131.596l43.984,6.613"/>
						<polyline id="Path-150_5_" fill="none" stroke="#FFFFFF" points="1292.232,148.623 1297.823,149.463 1297.823,160.472 						
							"/>
						<path id="Path-151" fill="none" stroke="#FFFFFF" d="M1242.834,141.561v20.771"/>
						<path id="Path-151_1_" fill="none" stroke="#FFFFFF" d="M1244.527,141.561v20.771"/>
						<path id="Path-152" opacity="0.8" fill="none" stroke="#FFFFFF" enable-background="new    " d="M1295.484,149.238
							l0.008,10.831"/>
						<path id="Path-152_1_" opacity="0.8" fill="none" stroke="#FFFFFF" enable-background="new    " d="M1295.465,118.013
							l0.019,28.956"/>
						<path id="Path-152_2_" fill="none" stroke="#FFFFFF" d="M1295.455,103.45l0.008,10.629"/>
						<path id="Path-153_1_" fill="none" stroke="#FFFFFF" d="M1340.938,98.555v24.54"/>
						<path id="Path-154_1_" fill="none" stroke="#FFFFFF" d="M1369.052,93.727v34.917"/>
						<polyline id="Path-155" fill="none" stroke="#FFFFFF" points="1345.457,123.944 1345.457,110.847 1364.93,109.354 
							1364.93,127.618 						"/>
						<polygon id="Path-158" fill="none" stroke="#FFFFFF" points="1343.518,99.436 1343.518,105.962 1366.586,103.239 
							1366.586,95.958 						"/>
						<path id="Path-160" fill="none" stroke="#FFFFFF" d="M1461.484,133.642l23.279-2.668"/>
						<path id="Path-161" fill="none" stroke="#FFFFFF" d="M1499.867,129.25l24.735-2.834"/>
						<path id="Path-162" fill="none" stroke="#FFFFFF" d="M1539.906,124.514l25.361-2.908"/>
						<path id="Path-163" fill="none" stroke="#FFFFFF" d="M1540.163,130.584l25.164-3.065"/>
						<path id="Path-164" fill="none" stroke="#FFFFFF" d="M1500.493,135.131l24.159-2.842"/>
						<path id="Path-165" fill="none" stroke="#FFFFFF" d="M1462.396,139.654l22.526-2.783"/>
						<path id="Path-166" fill="none" stroke="#FFFFFF" d="M1446.448,135.564l-18.982,2.046"/>
						<path id="Path-167" fill="none" stroke="#FFFFFF" d="M1446.527,141.466l-18.415,2.045"/>
						<path id="Path-159" fill="none" stroke="#FFFFFF" d="M1411.306,321.79l5.462-0.202"/>
						<path id="Path-168" fill="none" stroke="#FFFFFF" d="M1423.645,320.84l28.363-1.401"/>
						<path id="Path-169" fill="none" stroke="#FFFFFF" d="M1458.942,319.285l28.13,1.013"/>
						<path id="Path-425" fill="none" stroke="#FFFFFF" d="M1875.602,366.327l105.074-23.659"/>
						<path id="Path_7_" fill="none" stroke="#FFFFFF" d="M1880.813,351.404l38.058-7.617"/>
						<path id="Path_6_" fill="none" stroke="#FFFFFF" d="M1921.965,343.183l29.934-5.927"/>
						<path id="Path_5_" fill="none" stroke="#FFFFFF" d="M1954.527,336.735l23.647-4.708"/>
						<path id="Path-427" fill="none" stroke="#FFFFFF" d="M1966.433,330.389l-11.951,2.646"/>
						<path id="Path-428" fill="none" stroke="#FFFFFF" d="M1922.237,339.049l16.053-2.965"/>
						<path id="Path-429" fill="none" stroke="#FFFFFF" d="M1904.407,342.337l-23.779,4.394"/>
					</g>
					<g id="деревья-_x2F_-дерево3" transform="translate(0.000000, 90.000000)">
						<g id="дерево3ё" transform="translate(2.747126, 0.000000)">
							<path id="Path-259" fill="none" stroke="#FFFFFF" d="M1263.292,321.234l0.779-89.92l-0.779-19.895
								c0,0-1.684-12.125-2.337-18.302c-0.21-1.085-0.369-2.602-0.485-4.344 M1260.231,180.638
								c-0.004-5.468,0.275-10.455,0.724-10.598c0.407,0.267,1.677,3.484,1.558,2.388c0.63-1.453,0.622-18.06,1.559-54.111
								c0.594-36.021,2.087-50.806,1.558-54.112c-0.317-0.306-1.358-1.542-1.558-2.388c-0.543-1.201-0.779-5.557-1.559-6.365
								c-0.779-0.81-1.109-3.503-1.558-4.488c-0.448-0.984-1.261-2.475-3.756-4.194c-2.495-1.721-3.483-0.314-5.075-1.249
								c-1.592-0.935-1.683-2.516-2.977-4.246c-1.293-1.729-4.236-3.202-4.441-3.444c-0.206-0.242-0.942-2.865-0.942-2.865"/>
							<path id="Path-260" fill="none" stroke="#FFFFFF" d="M1266.656,186.666c0,0,0.044-7.131-3.944-6.473
								c-3.986,0.658-9.545-1.008-11.539-1.34c-1.994-0.333-6.331-3.426-7.256-3.363c-0.926,0.063-3.803-2.894-5.465-2.894
								c-1.661,0-3.852-5.292-5.514-4.63c-1.661,0.663-5.955-1.591-7.949-1.591s-3.649-1.041-5.311-2.039 M1217.259,165.466
								c-0.456,0,2.274,0.843,2.274,0.843s3.555,0.957,4.087,1.308c0.533,0.351,3.133,0.259,2.688,0.792s-2.41,1.583-2.767,2.027
								c-0.356,0.443-2.669,1.942-3.339,2.818c-0.669,0.877-2.17,2.647-1.932,3.003s2.445-0.355,2.623,0s1.875-2.998,2.674-3
								c0.799-0.003,3.188-1.848,3.975-1.492c0.787,0.355,3.548-1.132,3.992,0.179c0.443,1.311,3.062,3.675,4.037,3.484
								c0.977-0.19,4.951,1.955,6.124,2.951c1.173,0.997,5.889,3.544,5.8,4.077c-0.09,0.533,6.842,1.864,7.553,2.486
								c0.498,0.437,2.445,1.701,5.05,3.556c2.604,1.855,2.657,1.115,3.731,2.447"/>
							<path id="Path-261" fill="none" stroke="#FFFFFF" d="M1226.365,157.914c1.361,0.925,0.437,4.136,1.634,5.303
								s1.364,3.42,0.808,3.873"/>
							<path id="Path-262" fill="none" stroke="#FFFFFF" d="M1228.196,158.832c1.01,0.917,0.784,3.617,2.283,4.87
								c1.5,1.252,2.295,4.305,2.295,4.305"/>
							<path id="Path-263" fill="none" stroke="#FFFFFF" d="M1271.235,215.157c3.252-2.956,0.436-4.435,4.025-6.478
								c1.88-1.069,3.586-2.156,4.623-3.24s1.274-2.016,1.801-2.119c1.105-0.216,5.342-4.135,5.908-7.184s-0.925,6.378-1.813,7.669
								c-0.889,1.291-3.691,5.501-5.005,7.278c-1.314,1.778-1.749,9.222-4.622,9.222"/>
							<path id="Path-264" fill="none" stroke="#FFFFFF" d="M1288.634,317.563c-0.971-1.1-1.857-2.389-2.246-3.723
								c-1.07-3.673-2.455-8.397-2.455-10.968c0-2.571-2.031-32.194-2.031-32.194s-1.325-36.61-2.039-39.915
								c-0.714-3.306-0.243-15.03-0.121-15.963"/>
							<path id="Path-265" fill="none" stroke="#FFFFFF" d="M1278.561,206.543c0,0-1.046-18.484-1.138-20.75
								c-0.091-2.267-1.609-23.291-1.609-23.291"/>
							<path id="Path-266" fill="none" stroke="#FFFFFF" d="M1274.817,154.244c0,0-0.371-43.761,0-45.738
								c0.371-1.977-0.836-12.983-0.836-12.983"/>
							<path id="Path-267" fill="none" stroke="#FFFFFF" d="M1274.214,88.181c0,0,0.04-18.408-0.778-19.475
								c-0.818-1.068-1.114-5.793-2.514-8.52s0-5.438,0.56-7.229c0.559-1.791,3.794-7.025,5.521-7.464s4.55-9.383,5.365-11.518
								s2.06-6.201,2.603-7.269"/>
							<path id="Path-268" fill="none" stroke="#FFFFFF" d="M1271.235,173.512c0,0,4.568-3.788,4.431-11.439
								c-0.138-7.65,13.726-17.323,15.87-19.922c2.144-2.6,8.931-11.015,8.931-11.015l17.021-14.97c0,0,1.932-0.864,4.383-1.297
								c2.451-0.434,5.726-0.003,8.419-0.675c2.692-0.672,6.172-5.445,9.623-6.745"/>
							<path id="Path-269" fill="none" stroke="#FFFFFF" d="M1268.487,163.42c0,0,4.507-8.418,7.299-10.026
								c1.24-0.715,4.672-4.916,9.012-9.417c4.34-4.502,8.61-9.295,12.121-12.417c1.305-1.161,2.689-2.39,4.221-3.716
								c2.586-2.24,5.591-4.76,9.335-7.711c5.96-4.697,8.366-8.446,9.011-9.733s3.381-5.542,6.195-7.606
								c2.814-2.063,5.075-5.436,5.075-5.436"/>
							<path id="Path-270" fill="none" stroke="#FFFFFF" d="M1333.154,106.532c0,0-3.483,0.677-5.359,0.741
								s-1.923,0.568-3.191,1.253c-1.27,0.686-3.122,2.015-3.122,2.015s-1.797,3.332,0,3.332c1.798,0,8.977-1.257,8.977-1.257
								l9.455-5.407"/>
							<path id="Path-271" fill="none" stroke="#FFFFFF" d="M1330.638,97.357c0,0-0.697,1.748-2.245,4.103
								c-1.548,2.354-3.131,3.719-3.131,4.659c0,0.795,1.229-0.077,2.199,0c0.97,0.078,5.126,0.413,5.126,0.413"/>
							<path id="Path-272" fill="none" stroke="#FFFFFF" d="M1246.511,33.131c0,0,1.173,5.129,4.772,5.849
								c3.6,0.721,3.618,2.658,3.618,2.658s3.778,0.113,4.979,1.81c1.201,1.695,1.999,4.208,3.92,5.178s4.529,5.019,3.564,7.442"/>
							<path id="Path-273" fill="none" stroke="#FFFFFF" d="M1267.571,55.151c0,0,0.24-5.895,1.684-6.865
								c1.442-0.971,3.715-4,5.416-5.587c1.699-1.588,4.934-6.976,4.934-6.976l3.535-8.098"/>
							<path id="Path-274" fill="none" stroke="#FFFFFF" d="M1254.938,14.78c0,0-0.291,6.316-0.146,8.954
								c0.146,2.637,2.829,5.375,3.294,6.557c0.466,1.181,1.861,3.85,0.931,5.791s0.054,4.283,0,6.224"/>
							<path id="Path-275" fill="none" stroke="#FFFFFF" d="M1262.993,47.811c0,0,0-3.432-0.813-5.057s-0.563-5.005-0.719-5.581
								c-0.326-1.201,0.471-5.645-0.721-6.308c-1.192-0.663-3.955-5.693-5.197-7.334s-0.652-10.586-0.652-10.586"/>
							<path id="Path-276" fill="none" stroke="#FFFFFF" d="M1270.319,92.304c0,0,1.924-4.208,3.855-4.803
								c1.932-0.596,6.619-0.65,9.518-0.997c2.898-0.348,9.693-2.22,14.885-5.138c5.193-2.917,9.486-6.031,9.486-6.031
								s0.374,0.582,0.699,0.582c0.326-0.002-4.498,3.799-11.1,7.902c-6.603,4.104-5.945,3.772-8.643,4.671
								c-2.698,0.898-6.285,1.031-7.682,1.726c-1.397,0.693-3.117,1.498-4.507,2.088c-1.39,0.591-1.687,2.989-3.566,4.135"/>
							<path id="Path-277" fill="none" stroke="#FFFFFF" d="M1298.088,134.058c0,0-0.954,3.46,0.555,2.893s1.229,2.06,1.229,2.06
								s-1.395,2.61-0.697,2.893c0.697,0.283,1.806,1.412,2.5,0.706s0.832,1.684,0.832,1.684s0.83,1.356,0,2.063
								c-0.832,0.706-3.632-0.246-2.232,1.978c1.4,2.224,0.671,3.455,2.06,3.455s1.787,1.479,2.204,0.739
								c0.416-0.739,0.552,1.177,0.275,1.601c-0.275,0.424-2.787,4.861-1.393,4.861c1.393,0,2.82-0.144,2.82-0.144
								s1.889,2.254,2.305,1.828s2.098-0.02,2.237,0.807c0.139,0.827,0.41,2.021,0.205,2.869s-2.446,0.918-0.558,2.506
								c1.889,1.589,3.592-0.757,3.592-0.757s0.414,3.025-0.144,3.731c-0.558,0.707-0.772,3.545-0.772,3.545
								s-0.121,0.213,0.936,0.106s2.835-0.267,2.835-0.267s0.522-0.127,1.093-0.709c0.57-0.583,3.502-3.818,2.943-4.103
								c-0.557-0.283,3.488-3.116,2.296-4.054c-1.193-0.937-2.538,0.502-3.89,0.72"/>
							<path id="Path-278" fill="none" stroke="#FFFFFF" d="M1323.987,164.337c0,0,1.479-0.321,0.986-1.537
								c-0.494-1.216,2.764,0.787-1.183-2.446c-3.946-3.234-1.36-2.797-1.36-2.797l2.302-0.11c0,0-0.089,0.789,0.457,1.212
								c0.546,0.422,1.373-0.178,1.373-0.178l1.547-1.462c0,0,2.108,1.322,0.28-1.781c-1.827-3.104-0.057-2.56-0.028-2.419
								c0.028,0.142-0.806,2.419,1.269,0.986c2.076-1.433,1.244,1.489,1.244,1.489l0.986,0.281l0.564-2.205
								c0,0,0.195-1.658,0.639-1.752c0.441-0.094,1.313,1.34,1.313,1.34s1.072,1.059,1.213,1.669s0.564,1.44,0.846,1.916
								c0.282,0.476-1.232,1.51-0.001,1.813s2.972,0.105,2.972,0.105s0.969,0.646,1.514,0.422s2.217-1.359,1.791-1.85
								c-0.424-0.49-4.258-2.88-1.094-3.054c3.164-0.175,2.738-2.219,2.738-2.219s0.967-0.285,1.531-0.143
								c0.563,0.143,1.205,1.986,1.722,2.361c0.517,0.374,1.322,0.358,1.868,0.647c0.545,0.289,0.969-0.926,0.969-0.926
								s1.049-2.058,0.789-2.317c-0.26-0.259-0.479-1.977-0.479-1.977s0.976-0.522,1.281-0.428c0.307,0.096,0.83,0.692,0.83,0.692
								s0.943-0.002,1.185-0.001s1.773-0.437,1.773-0.437s1.736,0.281,1.897-0.912c0.16-1.192,0.089-4.042-0.904-3.832
								c-0.993,0.209-2.711-3.645-1.853-3.742c0.859-0.097,0.471,0.062,1.614,0.77c1.143,0.709,1.482,0.765,1.676,0.635
								s2.795-3.803,2.025-4.127s1.723-1.998,0.593-2.885s-0.887-0.903-1.753-1.098c-0.865-0.195-0.126,0.45-1.334-0.26
								c-1.207-0.711-0.848-1.774-0.457-2.35c0.393-0.574,1.65-4.997,0.569-4.788c-1.081,0.21-2.72-0.85-2.979-1.303
								c-0.26-0.454,2.411-0.503,2.695-1.068s0.898-2.305,0.307-2.772s-1.148-0.776-2.51-1.129c-1.36-0.354-0.744-1.386-0.595-1.386
								h1.119c0.644,0,1.112,0.354,1.396,0.563s0,0.805,0.895,0.402s1.213-0.935,1.634-1.25s-6.351-3.482-3.175-5.4
								c3.175-1.918,5.189,2.415,5.189,2.415s1.624-1.064,1.938-2.008c0.315-0.943,4.274-0.789,0.861-3.336
								c-3.413-2.548-3.077-4.098-5.468-3.793c-2.389,0.305-4.453,0.162-5.396-1.313c-0.943-1.477-0.508-0.655-0.934-2.597
								s0.155-2.46,0.155-2.46s0.996,0.219,1.008-0.355c0.012-0.575-1.941-0.486-0.582-1.713s2.368-0.305,3.12,0.348
								s0.294,0.598,1.418,1.699c1.125,1.102,0.295,0.772,1.586,1.431c1.292,0.659,1.979,0.918,3.105,0.063
								c1.126-0.856,3.21-1.88,3.21-3.961c0-2.08-3.837-3.548-4.312-3.663c-1.494-0.362-3.393-2.863-2.56-3.157
								c0.834-0.293,1.468-3.241,1.9-3.193c0.432,0.049,4.946-1.013,4.946-1.013s2.188-0.648,2.527,0.598
								c0.339,1.245,1.627,0.836,2.452,1.463s1.107,0.772,2.185,0.387c1.078-0.387,3.119,0.33,2.147-1.609
								c-0.973-1.939-0.385-4.822-1.544-4.399c-1.158,0.422-3.645-1.131-3.217-1.414c0.429-0.283,4.362,2.291,5.598,1.271
								c1.234-1.021,1.313-2.657,2.672-2.423c1.359,0.233,2.428,1.532,2.309-1.732c-0.119-3.264,0.127-4.684,0.713-4.947
								c0.585-0.264,1.053,0.643,1.623,0.32c0.57-0.32,0.954-2.932-0.334-3.166c-1.289-0.234-2.875,0.115-2.875,0.115
								s-0.211-0.592-0.824-0.354"/>
							<path id="Path-279" fill="none" stroke="#FFFFFF" d="M1384.557,71.547c0,0,2.057-0.152,2.175,1.369
								c0.117,1.521,2.099,1.799,2.572,1.229c0.475-0.572,0.89-0.98,1.672-1.391c0.783-0.408,1.323-0.809,0.662-1.449
								c0.93,0.143,1.893-0.004,2.425-0.004c1.729,0.004,4.175,0.516,3.389-0.688c-0.785-1.203-0.144-4.281-2.508-3.58
								s-3.989-1.023-3.989-1.023s-2.158-1.414-2.397-1.883c-0.239-0.47-1.138-1.178-2.569-0.589
								c-1.431,0.589-2.793-1.224-2.555-1.928c0.236-0.705-1.008-1.98-1.961-1.864c-0.952,0.117-1.925,2.142-3.1,2.835"/>
							<path id="Path-280" fill="none" stroke="#FFFFFF" d="M1380.674,60.656c0,0,1.146-2.479-0.235-2.361
								c-1.382,0.118-3.803,0.662-4.037-0.154c-0.236-0.815,0.523-2.566,0.262-3.161c-0.262-0.594,0.703-0.713,0.703-0.713
								s-0.354-2.855-1.162-2.737s-1.986,0.71-2.458,0.828s0-0.356-0.942-1.308s-1.986-1.188-1.986-1.188s-0.707,0.205-1.178,1.744
								c-0.473,1.538,0.934,1.797,0.467,2.586c-0.467,0.788-1.194,1.77-2.458,1.419c-1.264-0.352-1.382-0.137-1.972,0.811
								c-0.588,0.947-2.291,1.177-2.174,0.588c0.117-0.588-0.135-2.405,0.334-2.881s1.596-0.356-0.709-0.595
								c-2.306-0.238-3.275-0.546-2.806-1.515s-0.257-0.933,1.274-1.545s3.095-0.578,2.313-2.448
								c-0.781-1.87,0.475-2.58-2.172-1.633c-2.645,0.947-3.173,0.257-3.746,1.862c-0.572,1.606-1.558,2.219-2.418,2.219
								c-0.859,0,0.688-1.863,0.688-1.863s0.633-1.809,1.182-2.014c0.549-0.204,2.108-0.699,1.97-1.31
								c-0.139-0.611-1.554-2.581-1.762-2.581s-1.746-0.737-2.302-0.368c-0.555,0.368-1.65-1.064-2.274-0.532
								s2.221-1.414,2.274-2.276c0.055-0.861-0.289-1.358-2.027-1.635s-2.311,0.325-4.021,0.673s-1.89,1.855-2.652,1.236
								s-1.974,0.042-2.181-0.308c-0.209-0.351-0.762-1.503-0.381-1.782c0.381-0.28,0.275-0.631,0.69-0.841s-0.318-1.32,0.966-1.74
								c1.284-0.421,4.061-1.988,3.488-2.86c-0.571-0.872-1.162-1.342-2.583-1.829c-1.421-0.486-2.548,1.895-3.073,1.829"/>
							<path id="Path-281" fill="none" stroke="#FFFFFF" d="M1346.919,30.309c0,0,2.223-0.836,0.705-1.909s-1.883-2.582-2.59-2.465
								c-0.709,0.118-2.123,1.065-2.389,1.765c-0.266,0.7-2.881,1.956-2.529,2.906c0.354,0.95,0.707,1.734-0.002,2.431
								c-0.707,0.697-1.871-0.908-2.225-1.669c-0.354-0.762-1.754-1.387-2.226-1.074s-1.181,2.119-0.591,2.432
								c0.591,0.312,1.76,1.631,1.176,2.787c-0.585,1.156-1.229,4.065-2.111,2.818c-0.882-1.247,0.267-3.412-1.589-3.65
								c-1.855-0.239-2.035-0.274-3.521,0.585c-1.486,0.86-0.794,3.493-2.295,1.454c-1.502-2.039-2.236-4.438-2.236-4.438
								s-0.913-4.222,0.145-4.402c1.057-0.18,1.712,0.001-0.145-2.603c-1.855-2.604,0.145-2.174,0.145-2.174s1.378,2.337,2.092-0.92
								c0.713-3.258-2.729-2.118-3.277-3.106c-0.549-0.989-1.779-2.562,0.24-2.367s0.801-3.934-1.172-3.256
								c-1.972,0.679-2.731,0.22-2.731,0.22l-1.667,0.236c0,0-1.875-1.135-1.654-1.567c0.22-0.432,0.232-0.738,1.313-1.571
								c1.081-0.832,2.234-2.067,1.569-2.86c-0.664-0.793-0.9-1.384-1.892-1.513s-0.263,0.748-1.418,0.374s0.128-1.951,0.128-1.951
								s-0.224-0.354,0.694-0.578c0.918-0.224,1.884-1.174,1.741-2.055c-0.143-0.882,0.684-1.233,1.236-1.394
								c0.553-0.159,1.7-0.09,1.834-0.872c0.133-0.783-0.498-1.861-1.834-2.302c-1.338-0.441-2.277-0.685-2.627-1.134
								c-0.351-0.449,0.549-1.48,0.559-1.93c0.009-0.449-1.233-2.718-2.119-2.837c-0.885-0.12-2.648,0.054-3.094,0.748
								c-0.445,0.693-1.947,0.93-2.074,1.121c-0.127,0.192,0.848-1.658-0.277-2.571c-1.123-0.912-2.863-2.409-3.488-1.563
								s-2.644-0.082-2.707,0.229c-0.063,0.312,1.681-5.71,0.029-5.145c-1.65,0.565-2.356,1.166-3.093,2.281
								c-0.736,1.116-0.751,2.066-0.375,2.351c0.375,0.284,1.247,0.658,0.624,1.253c-0.624,0.595-2.355,0.972-2.768,0.285
								c-0.412-0.688-1.665-2.709-1.665-2.709s-1.511-1.443-2.691-1.621c-1.181-0.177-2.716,0.208-3.666,0.914
								c-0.951,0.707-2.253,1.636-0.96,2.383c1.293,0.748,2.083-0.006,2.493,1.02s0.488,0.966,0.552,1.93
								c0.063,0.965-0.543,1.021-0.925,1.276c-0.381,0.255-2.976-0.929-2.938,0.161c0.037,1.091,0.049,2.241,0.609,2.9
								c0.561,0.658,0.314,1.053,0.742,1.611c0.427,0.559,1.458,2.513,1.96,3.143"/>
							<path id="Path-282" fill="none" stroke="#FFFFFF" d="M1289.549-3.025c0,0-4.874-2.432-7.079-0.938
								c-2.207,1.493-4.014,1.06-4.014,1.864s0.492,2.799,0.246,3.028c-0.246,0.23-1.146-0.029-2.175-0.375
								c-1.028-0.347-2.609-0.139-2.493-1.204c0.115-1.065,1.264-2.8,0.019-3.057c-1.246-0.257-1.958,0.254-2.407-0.001
								c-0.448-0.256,0.646-1.815,1.527-1.815c0.88,0,2.644-2.336,2.644-2.336s0.601-1.632-0.581-2.077
								c-1.183-0.446-1.871-0.384-2.219-0.83c-0.35-0.446,0.779-1.369,0.908-1.699c0.128-0.331,1.516-1.167,1.516-1.167
								s-2.445-4.784-3.119-3.75c-0.676,1.034-1.061,1.149-1.742,1.494c-0.681,0.345-2.383-0.297-3.107,0.722
								c-0.725,1.02-2.086,1.693-1.738,2.482c0.346,0.789,0.29,1.898-0.406,1.908c-0.697,0.01-1.654-1.114-2.002-1.985
								s-0.232-1.519-0.813-1.962s-1.029-0.234-1.494-0.117c-0.464,0.117-1.334,0.43-1.365,2.252
								c-0.03,1.822-0.325,2.211-0.162,3.271c0.162,1.062-1.867,2.879,0.576,2.168c2.445-0.71-0.414,3.186-0.414,3.186
								s-4.074-0.179-3.38-1.332c0.694-1.154,1.063-2.168,0-2.96c-1.063-0.793-3.771,0.396-3.201,0
								c0.569-0.397,1.36-1.917,1.36-2.521s-0.83-3.069-1.408-2.488c-0.578,0.58-2.853-0.227-2.853,0.79s-0.657,0.64-0.657,0.64
								s1.749-4.41,0.657-4.383s-2.201-0.745-3.036,0c-0.834,0.746-1.219,1.157-1.531,1.326c-0.313,0.168,0.123-2.657,0.932-2.491
								s2-1.098,0.6-2.825s-2.514-0.153-2.834,0.164c-0.321,0.318-0.655,0.769-1.104,1.087c-0.449,0.317-1.265,1.164-1.265,1.164"/>
							<path id="Path-283" fill="none" stroke="#FFFFFF" d="M1245.403-20.881c0,0,0.691-3.853-0.551-3.596
								c-0.611,0.127-1.331-1.982-2.002-2.031c-0.67-0.049-2.193,2.007-2.596,2.031c-0.791,0.049,1.048,1.119,0.523,1.432
								c-0.523,0.313-1.51,1.693-1.904,1.208c-0.396-0.484-0.963-2.25-1.029-2.444c-0.065-0.195-1.754-2.289-2.484-1.659
								c-0.73,0.631-2.07-0.013-2.918-0.006c-0.848,0.006-2.531,0.007-2.476,1.129c0.056,1.123-1.021,1.972-0.511,2.782
								s-1.662,1.167-0.074,1.954s2.154,0.25,2.433,1.037s0.722,1.199,0.081,1.512c-0.642,0.313-1.493,0.326-2.305,0.163
								c-0.813-0.163-2.02-0.373-1.01,0.608c1.01,0.98,2.875,1.53,3.368,1.468s1.678,1.271,1.678,1.271s-0.677,1.286,0.713,1.543
								s0.546,0.756,1.709,0.631c1.163-0.126,2.196-0.188,2.196-0.188"/>
							<path id="Path-284" fill="none" stroke="#FFFFFF" d="M1232.774-12.578c0,0-4.155-0.708-3.339,0.788
								c0.817,1.496,1.231,3.284,1.616,3.284s-0.328,1.338-1.391,0.669s-1.629-1.14-2.016-1.14c-0.386,0-2.014-0.164-1.725,0.86
								c0.287,1.025,0.096,1.6,0.384,1.791c0.288,0.19-0.761,1.039-0.761,1.039s-1.447-0.498-1.543-0.769
								c-0.098-0.271-1.229-0.769-1.23-0.385c0,0.385-1.998,1.756-1.324,2.042c0.674,0.287,1.91,1.147,1.91,1.147
								s-0.408,1.027-1.159,0.932c-0.751-0.097-1.19-1.458-2.483-1.531c-1.295-0.073-1.606,1.234-2.646,1.531
								c-1.041,0.297-0.508-2.088-0.508-2.088s-1.156-1.509-1.789-1.648c-0.633-0.141-1.305,0.939-1.787,1.657
								c-0.482,0.719-2.325-0.752-2.325-0.752s-0.843-0.206-1.603-0.172c-0.76,0.035-1.822,0.076-1.822,1.074
								c0,0.997-0.582,2.519-0.291,2.614s0.403,1.435,0.201,1.912c-0.201,0.479-1.443,0.934-0.678,1.805
								c0.768,0.871,0.846,1.158,1.717,1.254c0.873,0.096,1.271,1.254,1.873,1.254c0.603,0,2.316,0.096,2.316,0.096
								s0.629-0.526,1.514-0.526s2.12,0.414,2.12,0.414"/>
							<path id="Path-285" fill="none" stroke="#FFFFFF" d="M1208.338,3.842c0,0-1.271-0.383-2.903,0.616s-1.279,1.682-2.715,1.486
								c-1.437-0.196-2.014,0.194-2.309,0.779c-0.296,0.585-0.198,1.56,0.193,2.146c0.393,0.585-0.197,0.878-0.493,1.268
								s-0.397,0.305-0.198,1.072c0.198,0.767,0.732,1.895,1.77,1.895s1.084,0.389,1.738,0.194c0.652-0.194,0.729,0.864,1.371,1.157
								c0.643,0.293,0.189,0.585-0.592,0.878c-0.779,0.292-1.635,0.366-1.559,0.78c0.078,0.413,0.144,0.804,0.11,1.278
								c-0.032,0.475,1.573,0.555,0.786,1.237c-0.786,0.683-0.473,1.618,0.096,1.716c0.566,0.098,1.457,0.584,2.019,0.292
								s2.372-0.243,2.372-0.243l1.064,0.12c0,0,0.377,0.599-0.958,1.547c-1.335,0.949-1.13,1.387-1.228,1.874
								c-0.1,0.487-0.369,1.073-1.24,0.975c-0.871-0.098-2.172-1.339-3.076-0.038s-0.992,1.106-0.469,2.47
								c0.523,1.362-0.348,2.044-0.393,2.629c-0.043,0.585,0.711,1.534,0.869,1.632c0.157,0.098,1.086,0.391,1.346,0.195
								s2.566-0.663,2.566-0.663s0.252,0.28-0.295,1.438c-0.549,1.157-1.873,0.513-0.591,1.827c1.282,1.313,1.931,0.635,1.931,0.635
								s1.614-1.026,2.483-0.513c0.869,0.513,1.874,0.538,1.653,1.364s-0.224,0.449-0.519,0.938c-0.296,0.487-1.065,1.059,0,1.547
								c1.065,0.487,3.204,0.405,4.634,0.729c1.43,0.323,1.692,1.053,0.538,1.833s-0.719,1.328-0.359,1.645s0.797,0.045,1.627,0.022
								s1.934,0.098,1.517,0.67c-0.418,0.572-0.367,0.558-0.941,1.519c-0.575,0.962-0.807,0.72,0.756,1.157s1.856,0.678,2.529,0.339
								c0.674-0.339,0.834-1.598,1.542-1.283c0.709,0.314,0.647-0.112,1.748,1.507c1.102,1.618,1.795-0.227,1.795-0.227
								s2.089,0.158,2.188,0.73c0.099,0.571-0.591,0.949-0.296,1.534c0.296,0.585,0.22,1.083,0.978,1.181
								c0.759,0.098,1.43,1.666,1.919,0.243c0.49-1.424,0.662-1.414,0.98-2.187c0.318-0.771,1.357-1.148,1.357-1.148
								s-0.365-0.756,0.893,1.168s2.506,1.312,2.506,1.312s0.98-0.02,0.98-0.294s0,0.879,0.098-2.062
								c0.098-2.94,0.988-3.159,0.988-3.159l0.953-0.001c0,0,1.359,0.278,1.457-0.588c0.098-0.865,0.956-0.666,0.172-2.953
								c-0.785-2.287,0.716-4.527,0.716-4.527s1.284-0.486,1.774-0.491c0.49-0.006,1.372,0.051,1.568-0.295
								c0.195-0.346,0.085,0.214,0.868-0.979c0.784-1.193,1.751-1.567,1.751-1.567s1.485-1.242,1.682-1.734
								c0.195-0.493,1.555-0.686,1.555-0.686s2.061-1.014,0.613-2.295s-2.207-1.868-2.207-1.868s-0.764-1.206,0.415-1.442
								c1.179-0.237,0.925-1.526,1.052-1.818c0.127-0.293,0.287-2.1,0.514-2.589s1.35-2.929,1.35-2.929s-0.048-2.065,0.893-2.224
								c0.941-0.157,0.611-1.992,1.857-2.09s2.273-2.091,3.715-2.091s1.516,1.235,1.221,1.663c-0.296,0.428,0,3.238,0,3.238
								s-0.859,0.617,0.482,0.698c1.343,0.082,3.913,0.618,2.368,1.957c-1.545,1.34-2.073,0.295-2.221,1.925
								s-0.171,1.795,0.685,2.117c0.857,0.323,1.572,1.451,1.277,2.146c-0.295,0.695-0.74,1.06-1.008,1.548
								c-0.27,0.487,0.852,2.384,0.852,2.384s-0.181,0.827,0.869,0.413c1.051-0.413,2.777-0.747,2.336,0.255
								s-1.326,1.187-1.131,1.437c0.196,0.251,0.182,0.951,1.344,0.937c1.164-0.015,2.189,0.617,2.484-0.878
								c0.293-1.495,0.234-2.979,1.541-3.041s1.755,0.244,2.415,0.248c0.66,0.005,1.651-0.824,1.675-2.065
								c0.023-1.24-0.256-2.163,0.513-1.82c0.77,0.343,2.878-0.299,2.976-0.915c0.099-0.616,0.586-0.638,1.26-0.48
								c0.672,0.157,0.951,1.622,0.475,1.801c-0.475,0.179-1.753,0.029-1.114,0.878c0.64,0.849-0.847,1.436,1.454,1.338
								c2.3-0.098,1.709-0.047,2.004,1.131c0.296,1.177,1.347,0.556,1.347,0.556s-0.427-0.812,0.979-0.686
								c1.406,0.127,0.831-1.034,0.831,2.104c0,3.137,0.896,0.344,1.176-0.1c0.281-0.442,1.163-0.392,1.163-0.392l1.258,0.802
								c0,0,0.588,1.045,0.295,1.509c-0.295,0.465-0.757,0.315-1.154,0.488c-0.398,0.172-0.126,1.385,1.133,1.166
								c1.26-0.22,1.148-0.393,2.286-0.196c1.137,0.196,1.454,1.064,1.233,1.435c-0.22,0.369,0.134,1.295-0.162,1.397
								c-0.295,0.104-0.59,1.125-1.633,0.791c-1.042-0.333-2.098-0.369-2.479-0.001c-0.379,0.369,1.089,1.64,1.089,1.64
								s0.451,0.504,0.226,0.508c-0.226,0.005-0.635,0.434-0.975,0.434s-1.121-0.528-1.119-0.735
								c0.002-0.206-0.153-0.981-0.891-0.337c-0.737,0.644-0.332,0.07-1.305,0.204c-0.973,0.133-0.876-0.028-1.865-0.726
								c-0.99-0.696-1.377-1.746-1.767-0.987"/>
							<path id="Path-286" fill="none" stroke="#FFFFFF" d="M1279.476,34.453c0,0-0.833-0.79-1.811-0.164
								c-0.977,0.626-0.084,1.464-3.098,1.464s-2.851,0.473-2.522,0.797c0.327,0.324-0.38,1.123-0.71,1.123
								c-0.328,0-0.689-0.438-0.944-0.78s0.77-0.713-0.338-0.872c-1.107-0.16-1.671,0.583-1.425,0.728
								c0.245,0.145-0.061,0.427,0.409,0.961c0.47,0.535-2.161,0.303-1.285,2.254c0.876,1.95,2.144,2.437,2.144,2.437
								s0.812-0.489,1.126-0.245c0.313,0.245-0.616,1.476-0.616,1.476s-1.091-0.07-0.801,0.485c0.291,0.557-0.088-0.092-0.328,0.557
								c-0.239,0.647,1.522,1.303,1.522,1.303"/>
							<path id="Path-287" fill="none" stroke="#FFFFFF" d="M1275.825,47.138c0,0-0.238-0.208,1.471-0.139
								c1.711,0.069,2.396-0.758,2.259,1.306c-0.138,2.064-0.979,2.734,0.201,3.01s0.598,0.947,2.14,0.137
								c1.541-0.811,2.228-0.397,1.952,0.135s-0.765,2.303-1.358,2.854c-0.594,0.55,0.248,0.688,0.804,0.825
								c0.555,0.138,0.549-0.069,1.728-0.034c1.18,0.034,2.311-0.037,2.035,0.926c-0.275,0.964-2.688,0.846-0.859,1.771
								c1.828,0.926,2.445,1.278,2.889-0.246c0.445-1.524,0.648-2.928,1.061-3.085c0.41-0.156,1.313-1.464,1.725-0.415
								c0.412,1.05-1.334,0.273,0.686,2.01c2.021,1.736,4.646,2.75,4.646,2.75s1.815-1.499,2.328-1.756
								c0.512-0.258,0.63-1.703,0.63-1.703s0.235-1.476,1.021-1.259s2.12,1.919,1.06,2.44c-1.06,0.521-1.217,1.301-0.277,1.789
								c0.938,0.488,2.256,0.412,2.256,0.412s1.197,0.012,1.471-0.586s0.686-2.431,0.686-2.431s0.902-0.62,1.862-0.139
								s2.226,0.866,2.637-0.311c0.411-1.176,0.581-1.668,0.29-2.74c-0.29-1.072,3.076-0.145,1.539,1.677
								c-1.539,1.821-1.393,2.835-1.393,2.835s-0.33,0.782,0.531,1.238s1.471,0.987,2.02,0.722s1.627-0.14,1.627-0.14
								s1.096,0.944,0.548,1.495s-2.406-0.275-1.478,0.688c0.93,0.963,6.137,1.974,3.911,1.833
								c-2.225-0.142-1.001,2.309-2.805,2.168c-1.804-0.143-2.972,1.066-2.388,2.031c0.584,0.963,0.297,2.068,0.297,2.068
								s0.576,1.609,0.139,2.172c-0.436,0.561-0.857,1.404-2.17,0.701c-1.314-0.701-2.619-0.215-2.962-0.107
								c-0.344,0.107-1.271-0.311-0.379,1.869c0.891,2.18,0.055,3.021,1.272,2.443c1.217-0.58,0.67,0.959,0.67,0.959
								s0.797,0.783,0.398,1.184c-0.398,0.401-1.068,1.202-1.068,1.202s-0.803,0.4-0.401,0.801c0.401,0.401,1.251,0.866,2.44,0.866
								s1.908-0.068,3.215-0.467c1.308-0.399,2.076-0.804,2.608-0.602s2.981-0.815,2.315,1.068
								c-0.665,1.884,0.689-0.981-2.315,2.566c-0.597,0.704-2.305,0.362-2.778,0.762c-0.473,0.4-1.66,2.001-1.748,2.536
								c-0.107,0.668-2.666,1.582-2.666,1.582s-1.428-3.357-2.599-1.679s-2.636,1.213-2.636,2.107s0.266,1.027-0.798,1.293
								s-0.815-0.814-2.699-0.814s-2.491,1.094-2.491,1.094s-2.834,0.274-2.866-0.003c-0.032-0.276,1.308-2.197,0.1-2.098
								s-1.438-0.327-2.519,0.101c-1.082,0.428-0.357,2.155-1.925,1.027s-2.604-1.016-2.604-1.016"/>
							<path id="Path-288" fill="none" stroke="#FFFFFF" d="M1274.897,128.944c0,0,0.766-1.145,1.275-1.532s0.51-1.936,1.275-1.55
								c0.764,0.386,1.02,1.245,1.02,1.397s0.862,2.106,2.117,1.053c1.254-1.053,2.881,0.497,1.873,1.669
								c-1.006,1.172-1.501,1.829-2.142,2.215c-0.64,0.386-2.052-0.153-0.513,1.639s1.412,1.663,2.525,1.791
								c1.114,0.128,2.086,0.756,2.373-0.518c0.285-1.273,0.03-3.106,0.923-3.01c0.893,0.098,2.581-0.08,2.836-0.666
								s-0.32-2.895-0.16-3.533c0.16-0.64,1.561-0.83,1.433,0.107s0,4.621,0,4.621s-0.732,1.59,0.381,1.398
								c1.114-0.191,4.014-0.191,4.014-0.191"/>
							<path id="Path-289" fill="none" stroke="#FFFFFF" d="M1297.637,130.388c0,0,0.784-1.205,0.522-2.191
								s-0.131-1.973-0.656-2.604s-0.235-2.907-1.186-2.696c-0.949,0.21-2.277-1.344-3.179-1.604s-0.396-1.819-1.675-0.91
								c-1.277,0.91-4.076,1.145-4.32-0.376c-0.245-1.52-0.749-2.591,0.277-2.784c1.027-0.192,3.688-0.063,3.688-0.063
								s0.167-0.172,0.261-2.956s1.307-1.151,1.222-0.575c-0.085,0.575,0.113,2.811,1.563,1.692
								c1.451-1.117,3.554-4.785,3.554-4.785s-0.687-2.246,0.487-2.665c1.174-0.42,2.43-0.42,2.43-0.42l0.898,0.646l1.256,2.127
								l0.504-1.246c0,0-0.351,2.89-0.428,3.131c-0.076,0.242,0.767,1.146-1.179,2.18c-1.944,1.032-2.972,2.939-2.013,3.785
								c0.961,0.846,2.138,1.403,2.138,1.403s-0.421,2.25-1.279,2.033s-1.961,1.454-1.409,2.421
								c0.551,0.967,1.262,1.128,1.387,1.774s1.359,1.538,1.359,1.538"/>
							<path id="Path-290" fill="none" stroke="#FFFFFF" d="M1274.897,118.461c0,0,2.621-1.074,3.006-1.467
								c0.385-0.392,1.281-1.663,0.943-3.373s-0.048-2.641,1.056-3.164c1.104-0.522,1.518,0.35,2.398,0.175s4.03,0.562,2.015-1.957
								c-2.015-2.519-2.355-3.285-1.859-4.345c0.496-1.059,3.193-3.215,3.689-3.59c0.496-0.374,3.09-3.497,2.961-4.655
								c-0.129-1.159,0.015-2.059,1.855-1.029c1.842,1.029,2.594,1.511,2.594,1.511s1.907,0.78,2.403,0.78"/>
							<path id="Path-291" fill="none" stroke="#FFFFFF" d="M1273.981,71.236c0,0,1.041,1.973,2.083-3.191
								c1.041-5.167-4.556-8.525,2.485-8.525c7.04,0,0.936-3.452,2.828-3.452s3.751,2.9,4.086,3.452
								c0.335,0.551,2.582-0.601,3.311,0c0.729,0.6,0-1.624,0,2.729c0,4.354-0.316,1.22-0.906,1.403
								c-0.59,0.185-1.477,0.5-0.738,1.433c0.738,0.936,1.289,1.008,1.467,1.244c0.178,0.234,1.174,1.42,0.587,1.566
								c-0.587,0.148-1.151,0.309-1.233,0.746c-0.082,0.436-0.961,0.418,0.137,1.152c1.097,0.732,2.433,0.014,2.928,0.006
								c0.494-0.006-0.096,0.816,0.142,1.379s1.886,0.848,2.317,0.451c0.431-0.395,1.228-0.951,0.914-1.662
								c-0.313-0.709,0.951-1.037,0.951-1.037s0.99-0.227,1.503,0.662s1.892-0.146,1.966-0.848c0.073-0.701,0.268-0.703,0.896-1.146
								c0.63-0.443,2.688-0.174,2.613,0.58c-0.074,0.752-1.566,0.914-0.147,1.352s1.708,0.086,2.351-0.256
								c0.641-0.344,1.218,0.408,0.996,0.551c-0.221,0.143-0.955,1.135-0.809,1.471c0.146,0.334,2.239,1.287,2.239,1.287"/>
							<path id="Path-292" fill="none" stroke="#FFFFFF" d="M1250.173,77.171c0,0,5.854,2.841,9.025,3.39
								c3.173,0.55,3.92,1.965,4.318,2.031c0.396,0.066,1.309,1.919,1.309,1.919"/>
							<path id="Path-293" fill="none" stroke="#FFFFFF" d="M1233.675,173.675c0,0-2.555-0.74-2.285,0.938
								c0.271,1.677-0.593,2.091,0.27,2.669c0.863,0.578,1.701,0.235,1.858,1.138s-1.54-0.017-0.771,2.02
								c0.771,2.037,0.487,2.993,2.656,2.325c2.168-0.669,2.732-1.928,3.37,0.902s2.058,2.974,2.058,2.974l1.941,0.108
								c0,0,5.106-0.847,1.582,1.138c-3.523,1.984-4.193,2.614-2.887,3.661c1.305,1.047,3.969-0.271,2.982,1.046
								c-0.984,1.316-1.836-0.428-3.249,2.254s-0.055,1.981,0.105,1.582c0.161-0.398,1.106,1.105,0.501,1.535
								c-0.606,0.43-2.555,0.699-0.004,2.381s1.316,2.739,1.316,2.739l-1.324,0.529c0,0-1.188-0.149-0.838,0.646
								c0.349,0.794,0.589,0.529,1.202,1.438c0.612,0.91-1.388,0.529-1.358,1.307c0.029,0.776-1.795-0.578-0.82,1.206
								c0.977,1.784,0.623,1.275,1.881,2.182s2.35-0.766,2.191,0.276c-0.133,0.882,0.908,0.478,0,2.441
								c-0.907,1.964-1.02-0.361-1.25,0.271c-1.497,4.113-2.002,2.534-2.822,3.398c-0.818,0.864,0.918,3.42-1.208,2.354
								c-2.125-1.066-1.837-1.627-1.606-1.99s-0.651-1.819-1.207-1.935c-0.557-0.114-1.719-0.356-2.08-0.931
								c-0.362-0.574-0.438-2.266-1.329-1.922c-0.892,0.343-1.077,1.473-1.417,0.514c-0.341-0.959-0.115-1.072,0.205-1.479
								c0.32-0.408,1.672-1.751,1.672-1.751s1.322-0.913,0.281-2.131s-0.969-1.298-0.371-1.819c0.597-0.521,1.15-0.778,1.432-0.721
								c0.281,0.057,0.922,0.037,0.986-0.658c0.064-0.696-0.453-2.367-0.719-2.482c-0.268-0.115-0.969-2.337-1.965-1.725
								c-0.996,0.611-1.515,1.578-2.375,1.651c-0.859,0.073-2.793-1.118-2.166-1.578s-0.711-2.12-0.355-2.292
								c0.355-0.173,1.254-0.019,0.627-1.19c-0.627-1.173-2.057-0.938-2.057-0.938s-0.695,0.777-0.92,0.857
								c-0.224,0.08-1.747-0.842-1.662-1.858c0.086-1.017-0.221-1.448,0.721-1.805c0.941-0.357,1.322-0.645,1.592-0.816
								c0.27-0.173,2.246-1.938,1.258-2.567c-0.988-0.629-1.025,1.057-3.004,0.363c-1.979-0.694-1.31-0.969-1.252-1.789
								c0.059-0.821,0.094-2.018-0.47-2.075s-0.86,0.016-1.077,0.735c-0.216,0.72,0.174,1.724-0.533,1.994
								c-0.705,0.271-1.869,0.266-2.396-0.322c-0.527-0.587-0.974-3.238-0.974-3.238s-3.659-2.794-3.356-1.787
								s-0.24,1.136-0.449,1.877s-0.908,0.977-0.908,1.411s-2.382-0.751-1.406,1.04c0.977,1.791,1.371,2.918-0.285,3.104
								s-3.736-1.064-2.545,0.978c1.19,2.041,1.332,2.155,1.938,2.341c0.607,0.186,1.368,0.124,1.426,0.841
								c0.059,0.718-1.254,1.262-0.893,2.094c0.359,0.832,1.823,1.813,0.35,2.198c-1.475,0.384-2.743-0.153-3.736-0.391
								c-0.993-0.238-2.176-0.437-2.697-1.808s-0.853-2.32-1.041-2.485c-0.188-0.164-1.639-1.162-1.48-0.222
								c0.157,0.939,0.1,1.328,0.272,1.666s1.246,0.771,1.246,0.771s0.014,0.782-0.175,0.942c-0.188,0.16-0.387,0.47-0.729,0.634
								c-0.342,0.164-0.724,0.319-0.362,0.992c0.362,0.673,1.14,1.272,0.751,1.799c-0.389,0.525-0.014,1.615-0.937,1.07
								c-0.922-0.545-1.574-0.514-1.693-0.392c-0.117,0.122-0.467,0.984-0.385,1.081c0.082,0.096,0.436,0.127,0.41,0.528
								s-1.29,0.827-1.49,0.81c-0.201-0.017-0.76,0.16-0.918,0.071c-0.16-0.088-1.021-1.001-1.104-1.205s-0.33-1.097-0.165-1.268
								s-1.059-1.389-1.516-1.568c-0.458-0.181-1.279-0.718-1.177-1.222c0.102-0.503-0.001-0.896,0.353-1.297
								c0.353-0.4-0.702,2.142-0.702,2.142s0.398,1.176,0.804,1.339c0.404,0.163,0.672,0.511,0.579,0.559s-0.481,0.898-0.933,1.317
								c-0.45,0.419-0.697,0.568-1.057,0.445c-0.36-0.123-2.801-0.648-3.037-0.217c-0.236,0.431-1.501,0.979-1.573-0.563
								c-0.072-1.542-1.212-2.223-1.495-2.363s-2.084,0.87-2.326,0.177c-0.242-0.694,0.297-1.709,0.823-2.522
								s0.496-2.508,0.382-2.798c-0.113-0.291-1.205-0.507-1.828,1.075s-1.801,0.531-1.801,0.531s-1.982-0.135-1.916-0.67
								c0.067-0.534,0.803-1.756,0.067-1.925c-0.735-0.168-2.024,0.053-1.892,1.19s-0.276,1.811-0.477,2.203
								c-0.201,0.393-1.268,0.827-1.685,0.609c-0.417-0.217,0.13,0.105-1.052,0.105s-1.398-0.057-1.466-1.22
								s-0.431-1.791,0.267-2.003c0.697-0.213,1.858-0.15,0.929-1.772c-0.929-1.622-1.089-1.818-0.545-3.013
								c0.545-1.194,1.503-2.267,1.159-2.479s-0.709-1.499,0-1.895c0.708-0.396,3.018,0.325,2.705-1.502s-0.176-2.224,0.713-2.628
								s1.206-1.297,2.784-1.752c1.577-0.455,3.135,0.092,3.395,0.046s0.325-0.38,1.545-1.678c1.221-1.298,1.21-0.748,2.248-1.022"
								/>
							<path id="Path-294" fill="none" stroke="#FFFFFF" d="M1196.146,161.585c0,0,0.08,1.228-1.58,2.917
								c-1.658,1.689-4.041,1.934-3.669,3.264c0.373,1.33,0.573,2.772-0.794,2.229s-1.248-0.635-2.279-1.088
								c-1.03-0.453-1.254-0.935-1.709,0.076c-0.453,1.012-2.232,0.675-2.595,0.299c-0.362-0.375-1.726-0.222-1.704,0.245
								c0.022,0.468,0.139,1.487,0.139,1.487s-0.525,1.463-1.343,1.26s-1.751-1.117-2.113-1.479
								c-0.362-0.363-2.194,0.919-2.194,0.919s-0.083,0.854-1.975,0.707c-1.891-0.146-4.397,1.123-3.582,1.687
								c0.814,0.563,2.908,1.274,0.568,2.007s-3.306,1.521-2.154,1.611c1.15,0.09,1.711,0.18,2.326,0.09
								c0.617-0.09,1.432-0.182,1.432-0.182s1.198-0.386,1.198,0.595c0,0.981,0.881,1.071,0.881,1.071s1.108,0.483,1.456-0.294
								s-0.258-1.568,0.557-1.681c0.815-0.112,1.064,0.642,1.292,0.98s-0.383,0.169-0.094,0.801s1.254,0.585,1.533,0.766
								s2.271-0.08,2.271-0.08"/>
							<path id="Path-295" fill="none" stroke="#FFFFFF" d="M1187.286,117.49c0,0-0.626,3.271-3.745-1.438
								c-3.12-4.711-4.84-6.705-4.646-5.273c0.195,1.432-1.573-1.645-1.573-2.308c0-0.664-0.585-1.813-1.257-2.623
								s-0.049-2.56-1.819-1.936c-1.771,0.623-1.903,1.169-1.903,2.076c0,0.908,0.594,2.993-1.1,2.737
								c-1.692-0.255-2.705,1.925-1.692,2.193c1.014,0.27,0.249,1.104,1.521,1.104c1.271,0,3.393,0.411,1.782,1.187
								s-3.501,0.552-2.642,1.697s1.862,2.022,2.252,2.304c0.39,0.28,0.506,0.776,1.52,0.528s2.525,0.247,2.304,0.758
								s-0.774,2.206-1.539,2.471c-0.765,0.264-3.876-0.296-1.938,0.396c1.938,0.691,4.937,1.928,4.097,2.355
								c-0.842,0.429-0.754,0.232-2.426,0.825c-1.671,0.594-2.492-0.05-2.951,0.726s-1.479-1.501-2.314,0.394
								c-0.836,1.896,0.254,4.135,0.295,4.796c0.04,0.66,4.735,0.514,4.379,2.804c-0.357,2.291-1.346,2.027-1.346,2.027
								s0.188-0.215-0.643,1.929c-0.83,2.144-4.5,0.08-4.631-0.45c-0.133-0.531-0.264-2.385-0.264-2.385l-0.133-1.557
								c0,0-3.604-0.892-4.533,0s-1.662,5.511,0,6.257s2.854,2.032,2.854,2.032s-1.315,0.543-0.658,1.715
								c0.658,1.172,2.596,0.247,2.664,1.568c0.069,1.321-1.462-0.083,0.276,2.261s2.531,2.477,2.633,1.945
								c0.102-0.53,0.705-1.424,1.063-2.069s0.934-1.884,1.307-1.455c0.374,0.429,1.044,2.274,1.044,2.274s-1.003,0.363-1.313,1.254
								c-0.31,0.89-2.101,1.616-0.163,2.177c1.936,0.561,2.165,0.324,3.092,0.162c0.926-0.162,1.454-1.357,1.454-1.357
								s-0.013-3.416,1.145-0.663c1.157,2.752-0.92,3.148-0.46,4.567c0.46,1.418-3.032,1.668-0.707,2.343
								c2.324,0.676,4.041-1.896,5.505-2.119c1.465-0.224,1.066,2.202,1.266,2.161c0.199-0.042,0.771,0.382-1.198,1.7
								c-1.969,1.318-2.299,1.847-1.184,2.111c1.116,0.264-0.092,1.072,1.145,2.737c1.237,1.665,0.914,0.855,1.91,2.309
								c0.994,1.453,1.502,2.561,2.791,1.586c1.291-0.976,1.734-0.004,2.19-1.506s-0.572-3.038,1.487-2.131
								c2.059,0.907-0.324,3.859,2.189,1.93s0.973-3.689,4.809-0.991s-0.043,4.417,3.392,4.417s4.565,0.643,5.251-0.538
								c0.688-1.181,0.967-0.628,2.012,0.279s1.943,0.411,2.074,1.468c0.131,1.058,3.011-0.602,3.779-0.905s1.634,3.54,2.927-0.034
								c0.252-0.697-0.2-1.486,0-1.988c0.199-0.503,2.622-1.707,2.622-1.707l2.83-0.688c0,0,0.521-1.801,0.261-2.579
								s-2.739-0.854-2.915-2.313c-0.176-1.457,0.79-3.677,1.184-4.075"/>
							<path id="Path-296" fill="none" stroke="#FFFFFF" d="M1262.993,154.422c0,0-0.853-1.623-2.352,0.711
								c-1.498,2.334-0.674,3.403-2.496,2.676c-1.824-0.728-3.295-1.828-3.279-0.178c0.014,1.651,0.825,3.858-1.053,3.132
								c-1.879-0.728-0.309-0.842-1.993,0.61c-1.685,1.453-2.87,1.308-3.324,0.654c-0.454-0.654-0.597-1.981-0.597-1.981
								s0.896-0.143,1.123-0.485c0.229-0.344-0.188-1.711-0.655-1.542s-0.872,0.478-1.483,1.252c-0.611,0.775-1.411,1.21-1.411,1.21
								s-0.655-0.529-1.124-1.411c-0.47-0.882,0.608-2.059,0.866-2.616c0.258-0.557,1.822-2.064-0.214-1.313
								c-2.036,0.753-1.037,2.428-2.904,0.496s-1.298-2.719-1.298-2.719s-0.843-1.598,0.228-1.739c1.07-0.143,1.32-1.371,1.32-1.371
								s0.658-4.024-0.727-2.013c-1.385,2.013-1.826,2.336-1.941,2.859c-0.113,0.524,2.138-5.214,2.403-5.9
								c0.265-0.688,1.138-1.031,1.138-1.031s0.771-0.229,2.217-0.458c1.447-0.229,1.762-0.46,2.346-0.23
								c0.585,0.23,1.309,0.74,1.906-0.802c0.597-1.541,1.576-1.814,2.344-1.358c0.766,0.457,1.222-0.004,1.761-0.002
								s1.164-2.895,1.164-2.895s-0.792-1.015-0.442-2.083c0.352-1.068,2.615-2.836,1.529-3.864
								c-1.087-1.027-1.797-2.565-2.024-1.569c-0.227,0.996-2.159-0.141-2.179,1.425c-0.021,1.564-0.865,1.679-0.686,2.135
								s0.543,1.065-0.029,1.75c-0.571,0.685-3.83-1.466-3.83-1.466s-2.157-3.854-2.553-2.068c-0.395,1.784-3.977-1.187-3.55-1.874
								s-1.897,0.15-1.706,1.388c0.191,1.238,0.943,2.599,1.777,2.576c0.832-0.021,6.295-0.319,1.107,1.666
								s-3.896,3.953-3.896,3.953s-1.194-0.701,0.797,0.113c1.991,0.813,2.78-1.076,1.593,2.587s0.937-0.54,0.254,1.732
								c-0.682,2.272-1.385,4.846-2.644,4.728c-1.26-0.118-0.472,1.386-0.235,1.468c0.235,0.081,0.801-0.03-0.116,1.909
								c-0.916,1.939-1.899,2.037-1.899,2.037s0.281,3.167-0.715,0.783c-0.996-2.385-1.624-1.775-1.624,0.996
								c0,2.771-1.556,3.064-1.556,3.064s-0.801,0.032-1.144-0.656s-2.299-1.329-2.299-1.329l-1.029,1.14l-1.569-0.458
								c0,0,0.41,0.68-0.914-0.001c-1.326-0.681-1.854-2.474-2.654-3.007c-0.801-0.532-0.116-1.271-1.145-1.702
								c-1.029-0.432-1.147,0.477-2.39,1.382s0.364,1.143-2.043,1.023c-2.407-0.118-0.441,1.269-3.292,0.283
								c-2.851-0.986-2.395-1.765-2.054-2.227c0.342-0.462,1.556-0.482,1.805-0.688c0.249-0.206,2.599-1.881,0.397-1.913
								c-2.202-0.032-3.136-1.182-3.578-0.909c-0.441,0.271-0.975,1.903-2.544,1.128s-2.695-2.329-2.027-3.356
								c0.669-1.028,1.223-0.349,1.876-1.057c0.652-0.708,1.969,0.019,0.537-2.739s-0.025-3.342-0.025-3.342
								s-0.486-0.157-0.23-1.059c0.256-0.9,0.455-0.874,1.689-1.387c1.236-0.513,2.813,0.199,2.813,0.199s0.404-1.781-1.921-2.239
								s-5.176,0.158-4.957,1.099c0.219,0.941-1.023,1.934-1.367,2.66c-0.343,0.727-2.21,0.782-2.21,0.782s-1.365,0.436-3.804,0.839
								c-2.438,0.402-3.927,0.815-4.437-0.958c-0.51-1.772,1.857-4,1.031-4.211s-1.99-0.16-2.432,0
								c-0.441,0.159-0.045-2.712,0.678-2.677c0.723,0.036,0.979-0.829,0.979-0.829s0.81-1.565-0.257-0.919
								c-1.066,0.646-2.738,2.732-2.738,2.732s-0.787,3.011-2.486,1.023s-2.16-0.554-2.846-0.788
								c-0.686-0.235-3.463-3.443-1.998-3.787s1.949-1.083,1.72-2.458c-0.229-1.374-0.229-1.718,0.341-1.947
								c0.568-0.229,2.33-0.344,2.33-0.344s0.91-1.526,0.455-1.87c-0.455-0.343-3.126-0.629-1.053-1.639
								c0.785-0.383,1.873-0.382,2.762-0.847c0.889-0.466,2.627-1.942,2.967-1.943c0.547,0,1.356,0.683,2.017,0.114
								c0.66-0.569-2.198-1.098,0.087-1.928c2.285-0.829,2.285-1.172,3.082-0.943c0.797,0.228,1.25,0.994,1.478,1.45
								c0.228,0.457,2.049,1.352,2.049,1.352"/>
							<path id="Path-297" fill="none" stroke="#FFFFFF" d="M1188.282,123.048c0,0-0.769-1.223-1.777-1.481
								c-1.008-0.259-1.834-2.162-1.503-2.591c0.331-0.428,0.661-0.514,1.323-0.514s1.282-0.575,1.368-1.077
								c0.085-0.502,0.571-0.491-0.259-1.666s0.258-2.251,0.553-2.442c0.295-0.192,0.738-0.759,0.844-1.943
								c0.105-1.184,1.034-1.898,1.514-1.898c0.48,0,1.326,0.013,2.223,0.289s1.654,1.13,1.643-0.385
								c-0.012-1.516-0.855-2.695,0.65-1.963c1.504,0.733,0.844,0.504,1.761,1.233s0.087,1.672,2.104,1.2
								c2.018-0.471,3.766-1.027,3.766-1.027s3.3,1.444,2.828,2.336c-0.471,0.893-1.525,1.628-0.043,1.893
								c1.482,0.266,1.824,0.27,2.326,0.135c0.503-0.135,1.496,0.082,1.304,0.668c-0.192,0.585,0.651,0.414,1.067,0.414
								c0.417,0,2.068-0.21,2.153-0.713c0.085-0.504,0.256-1.849,0.256-1.849s-0.608-0.81-0.952-0.981
								c-0.344-0.171-1.799-0.99-1.799-0.99s-2.338,0.846-1.531-0.736c0.806-1.582,0.564-2.927,0.686-3.44
								c0.12-0.514-0.086-0.791,0.832-0.876c0.919-0.086,2.865,1.128,1.433-0.429s-3.146-3.097-3.297-3.012
								c-0.151,0.086-2.717,0-2.976,1.506c-0.26,1.506-1.303,2.315-2.012,1.911c-0.707-0.405-1.328-3.79-2.685-3.604
								s-1.286,0.543-1.705,1.372c-0.419,0.83-0.74,1.979-1.831,1.361c-1.09-0.616-1.41-1.873-1.41-1.873s1.096-1.037,0.085-0.855
								s-2.513,0.637-2.002,1.915s0.362,1.569-0.483,1.639c-0.846,0.068,0.41,1.841-1.271,1.968s-3.412,0.845-3.721,1.631
								s-1.604,1.478-2.429,0.341s0.445-1.499,0.444-3.132c0-1.633,4.146-1.004,1.851-2.988c-2.295-1.985-3.524-5.029-2.688-5.147
								c0.837-0.119,3.388-0.13,3.226-0.706c-0.16-0.576,0.492-1.207-0.664-1.771c-1.158-0.565-0.001-0.448-1.896-0.225
								c-1.895,0.225-3.572-0.063-3.094-1.121c0.48-1.057-0.168-4.06,0.771-4.936c0.938-0.875,0.651-1.663,1.856-1.047
								s2.307,1.201,2.307,1.201s2.609-0.014,3.537-1.417s1.886-0.894,2.313-0.064c0.429,0.83,3.144,2.57,2.362,3.388
								c-0.779,0.817-0.625,0.391,1.23,0.646s1.406,0.136,3.514-0.256c2.107-0.391,4.691-1.107,4.814,0.359
								c0.121,1.467,2.724,1.677,3.572,2.461c0.848,0.785,1.549,0.28,2.104-0.604c0.556-0.883,1.783-2.239,2.985-1.72
								s2.408,0.673,2.438,1.891s2.336,2.704,3.538,0.406c1.202-2.297,1.757-1.986,2.993-1.281c1.234,0.704,5.604,2.219,6.238,1.596
								c0.635-0.624,2.792-1.397,2.792-1.397"/>
							<path id="Path-298" fill="none" stroke="#FFFFFF" d="M1261.962,54.987c0,0-3.338-1.838-2.226,2.63s0.286,6.608-0.222,6.095
								c-0.507-0.513-1.11-0.402-1.648-1.155c-0.537-0.753-2.383-0.182-0.9,1.736c1.48,1.917,0.645,2.684-0.099,2.684
								s-0.853-0.385-2.229-0.385c-1.378,0-0.87,2-2.502,2c-1.631,0-2.579-0.305-2.2-0.959c0.378-0.656,3.505-1.17,0.788-2.256
								c-2.719-1.084-2.846-1.328-3.445-0.664c-0.6,0.664,2.441,0.404-1.09,1.662c-3.533,1.258-1.629,2.844-2.991,1.658
								c-1.362-1.184-2.67-1.887-1.325-2.656c1.344-0.77,1.76-3.094,1.76-3.094s0.017-2.568-0.576-2.226
								c-0.594,0.343-1.128,0.492-1.4,1.019c-0.271,0.526-0.727,0.432-1.271,0.479c-0.544,0.047-0.334,2.465-1.519,1.733
								c-1.184-0.732-1.252-1.507-0.98-2.176c0.27-0.669,0.506-1.551,1.215-1.304c0.709,0.248,1.755-0.941,1.755-0.941
								s1.313-4.147,0.186-4.014c-1.128,0.133-3.067,0.195-3.33,0.164s0.614-2.507,0.308-3.286
								c-0.308-0.779-0.584-1.739-1.438-1.568s-1.837,0.906-1.414,1.496c0.423,0.589,0.22,0.914,0.286,1.188
								c0.068,0.274,0.018,0.99,0.009,1.196c-0.009,0.205,0.794,0.368,0.659,0.839c-0.137,0.47,0.633,1.898-0.68,1.882
								c-1.313-0.018-1.77,0.188-1.77,0.188s-0.016-0.876-0.51,0.99s0.142,2.407,0.07,3.01c-0.07,0.603-0.459,1.232-1.06,1.095
								s-1.861-2.889-1.93-3.034c-0.067-0.146-0.194-1.083-0.736-0.542c-0.542,0.542-1.246,0.294-1.924,0.418
								s-1.675,0.349-1.407,1.871c0.269,1.522,1.289,2.593,1.002,2.772c-0.287,0.179-1.084,0.456-1.406,0.228
								c-0.32-0.228-1.156-3.403-1.156-3.403s-0.111-1.307-0.056-1.86s-0.885-2.738-2.026-2.142
								c-1.143,0.598-2.311,2.017-2.445,2.337c-0.137,0.321-1.848,2.53-0.989,1.067s3.109-4.684,3.109-4.684
								s-0.229-3.992-1.175-3.11c-0.945,0.882-2.938,0.674-2.87,1.212c0.067,0.539-1.151,0.932-1.151,1.735s0.271,1.795,0.271,1.795
								l-1.58-3.799c0,0,0.354-0.344,0.625-0.953c0.271-0.61-0.592-2.309-0.608-2.378c-0.017-0.068-1.404-1.695-1.813-1.225
								c-0.408,0.47-0.999,0.171-1.543,0.085c-0.543-0.085-1.39-1.451-1.552,0.137c-0.161,1.589,0.032,1.407-0.196,2.569
								c-0.23,1.163-0.367,1.787,0.69,2.062c1.058,0.273,1.688,0.556,1.756,0.889c0.067,0.334-0.517,1.076-0.788,1.282
								c-0.271,0.205-1.245,0.656-1.728,0.178c-0.483-0.479-2.457-0.979-2.222-0.49c0.234,0.49-2.105,1.957-1.506,2.418
								c0.601,0.461-0.969,3.02,0.465,3.546c1.435,0.527,2.517-0.075,2.517-0.075s0.746,0.603,0,2.58
								c-0.746,1.977-0.226,2.221,0.295,2.532s1.727,2.436,2.347,1.674s0.041-2.08,0.582-2.221s1.789-0.527,1.984-0.334
								c0.193,0.193,1.129-0.449,0.92,0.479c-0.209,0.93-1.785,2.443-1.785,2.443s0.833,1.535-1.249,1.756s-1.747,0.643-3.158,0.32
								c-1.411-0.32-3.487,0.553-2.812,1.494c0.675,0.939,1.519,1.266,1.848,1.557c0.33,0.291-0.063,1.869-0.955,2.203
								c-0.893,0.332-2.143,0.564-1.338,1.461c0.298,0.331,0.004,2.121,0.445,2.708s2.266,0.789,2.477,0.41
								c0.335-0.601,0.663-0.953,0.938-1.15c0.276-0.197,1.017-1.003,1.476,0.074c0.459,1.076,0.301,2.018,0.15,2.419
								c-0.15,0.402-0.519,0.736-0.061,1.069c0.459,0.334,1.072,1.215,1.655,0.88s1.353-0.57,1.747-0.285
								c0.396,0.285,0.486,1.4-0.457,2s-1.074,1.143-1.074,1.143s-1.079-0.076,0.076,0.512c1.156,0.588,1.208,0.898,1.643,0.821
								c0.434-0.078,0.336-0.694,0.927-0.758s1.736-2.4,1.739-0.253c0.003,2.148-1.758,3.656,0.085,3.521s1.71,0.019,2.013-0.833
								c0.303-0.851,0.282-1.976,1.278-1.474c0.997,0.502,0.951,1.933,0.951,1.933s-0.526,0.967,0.372,1.296
								s0.961,0.396,1.358,0.027s1.243,1.535,2.417,0.718c1.174-0.816,0.849-1.684,1.309-3.31c0.459-1.626,2.117-1.195,1.84-0.192
								c-0.276,1.002,0.907,2.062,1.251,1.306c0.343-0.755,0.382-2.021,0.706-2.188c0.324-0.167,1.359,0.841,0.896,1.363
								c-0.464,0.521-0.791,0.694-0.844,1.499s-0.078,1.453-0.078,1.453s-1.063,0.599-0.871,1.496
								c0.19,0.898,1.012,1.052,0.941,2.001s2.472,1.146,0.235,1.859c-2.237,0.714-2.764,0.733-1.534,1.913
								c1.229,1.18,1.262,1.548,2.004,1.645s-1.047,0.888,0.277,2.3c1.324,1.413,3.689,1.169,3.521,0.267s0.691-2.309,1.057-1.776
								c0.366,0.532,0.283,0.649,0.479,1.529c0.195,0.879,0.316,1.343,1.251,1.023c0.935-0.32,1.67-1.178,1.726-2.556
								s1.829-2.94,2.535-2.11c0.706,0.831,0.123,2.12,1.031,1.296c0.906-0.824,1.216-0.7,1.52-2.417
								c0.303-1.717,2.252-1.293,2.251-0.646c0,0.646-0.385,2.515-0.385,2.515s-1.589,1.75-0.794,1.982
								c0.794,0.232,1.525-0.349,2.251-0.174c0.727,0.174,2.234,0.52,3.286,0.927c1.051,0.407,0.986,1.667,1.365-0.534
								s-0.021-2.458,0.378-3.264c0.399-0.806,1.782-1.008,1.858-0.507s0.95,2.579,0.86,2.758c-0.09,0.178,0.245,1.067-0.308,1.308
								c-0.553,0.239-1.23,0.244-0.615,1.055c0.615,0.81,1.428,3.388,2.564,2.999c1.138-0.39,3.018-0.512,3.4-0.256
								s1.91,0.256,1.91,0.256"/>
							<path id="Path-299" fill="none" stroke="#FFFFFF" d="M1222.702,109.285c0,0,4.083,2.749,5.771,1.855
								c1.688-0.894,1.28,1.253,2.728,1.49c1.446,0.237,2.261-0.506,2.991-0.253s2.561-0.062,2.804,0.817
								c0.243,0.878,0.425,1.944,1.134,2.004s1.114-0.741,1.672-0.662c0.557,0.08,1.51,0.137,1.591,0.399s-0.721,0.549-0.163,1.107
								c0.557,0.559,2.213,0.768,2.912,0.748c0.697-0.02,0.484-2.119,1.588-1.06s2.449,1.249,2.773,1.648
								c0.325,0.399,2.857,0.611,3.404,0.306s1.559-0.095,2.521-0.2c0.961-0.105,2.064,0.091,2.479,0.479
								c0.415,0.389,0.82,0.129,1.741,0.388c0.92,0.26,2.154-0.012,2.479-0.199c0.324-0.188,0.949-0.988,0.949-0.988"/>
							<path id="Path-300" fill="none" stroke="#FFFFFF" d="M1222.702,109.568c0.886,0,1.06-0.375,2.158-0.188
								c1.098,0.188,1.433,0.24,2.074-0.279c0.641-0.519,0.396-1.038,1.506-0.519c1.109,0.519,1.354,0.847,1.517,1.427
								s1.474,0.827,1.637,0.413c0.163-0.413,0.081-1.249,0.245-1.544c0.162-0.296,0.886-0.701,1.049-0.239s1.607,1.407,1.118,1.783
								c-0.489,0.377,2.635,0.396,2.553,0.198c-0.083-0.198-0.021-0.424,0.243-0.832c0.265-0.408,2.738,0.643,2.738,0.737
								s-1.345,1.23-0.409,1.479c0.936,0.248,1.271,0.079,1.923-0.653c0.652-0.731,1.658-0.679,1.922-0.013
								c0.265,0.666-0.248,1.119-0.063,1.281c0.184,0.163,0.332,0.676,1.706,0.166s2.116-0.465,2.839-0.781s0.21,2.484,0.943,2.234
								c0.734-0.249,1.049-0.831,2.027-0.748s1.883,0.02,3.074,0.01c1.19-0.01,1.425,0.166,1.179,0.911
								c-0.245,0.745-1.356,1.706,0.558,1.706c1.912,0,1.943-0.375,2.422-0.479s0.197-2.815,1.047-0.104
								c0.852,2.712,1.179,1.112,1.179,1.112s0.712-0.375,1.19-0.188s-0.57,0.755,0.561,1.003c1.13,0.248,2.271-0.168,2.271-0.168"
								/>
							<path id="Path-313" fill="#FFFFFF" d="M1262.359,171.459c0.179,0.179,0.016,0.698,0.376,0.894
								c0.36,0.194,2.302,0.754,2.972,0.612c0.334-0.07-1.917,1.05-2.972,0.271c-1.055-0.778-2.736,0.368-2.459-0.271
								c0.554-1.272,0.568-3.123,0.568-3.123S1261.663,170.765,1262.359,171.459z"/>
							<path id="Path-301" fill="#FFFFFF" d="M1263.909,132.223c0,0,0.013,0.498,1.346,0.811c1.334,0.313,1.013,0.739,1.316,0.864
								c0.303,0.125,1.916,1.077,1.916,1.077s-2.181-0.657-2.672-0.81c-0.491-0.153-1.108,0-1.108,0l-0.791,0.188L1263.909,132.223z
								"/>
							<path id="Path-302" fill="#FFFFFF" d="M1274.823,141.477c0,0-0.643-0.332-1.285,0.366c-0.645,0.698-1.186,0.967-1.514,1.162
								c-0.327,0.195-1.021,0.545-0.983,1.035s0.052,0.616,0,0.834c-0.052,0.217-0.722,1.111-0.722,1.111s0.996-0.456,1.232-0.785
								s0.435-1.041,0.689-1.367c0.256-0.325,1.496-0.505,1.496-0.505l0.854-0.324l0.306-0.024L1274.823,141.477z"/>
							<path id="Path-303" fill="#FFFFFF" d="M1277.645,189.11c0,0-1.286,1.338-2.11,1.683s-1.612,0.937-1.664,1.708
								c-0.053,0.771-0.805,2.114-0.805,2.114s2.06-2.643,2.469-2.729s2.11-0.491,2.11-0.491V189.11z"/>
							<path id="Path-304" fill="#FFFFFF" d="M1262.077,202.873c0,0,0.364,0.291,1.142,0.462c0.777,0.17,0.854,0.456,0.854,0.456
								l0.752,0.917c0,0-1.236-1.148-2.619-0.842L1262.077,202.873z"/>
							<path id="Path-305" fill="#FFFFFF" d="M1263.975,227.646c0,0,1.151,0.587,2.218,0.991c1.068,0.404,0.91,0.848,1.537,1.205
								c0.626,0.358,2.207,1.57,2.207,2.395c0,0.823,0.305,1.498,0.305,1.498l1.909,1.251c0,0-2.556-0.666-2.87-1.454
								c-0.315-0.788-0.281-1.192-1.808-2.166s-3.563-1.358-3.563-1.358L1263.975,227.646z"/>
							<path id="Path-306" fill="#FFFFFF" d="M1281.308,242.327c0,0-0.467,0.438-1.201,0.671c-0.736,0.232-1.986,0.438-2.23,0.592
								s-1.146,0.572-1.146,0.572s1.953-0.475,2.289-0.474c0.164,0,0.76-0.046,1.279-0.099s1.01,0,1.01,0V242.327z"/>
							<path id="Path-307" fill="#FFFFFF" d="M1263.909,248.749c0,0,2.238,0.28,3.417,0.516s2.354,0.538,2.757,1.481
								c0.402,0.942,1.047,1.689,2.436,2.229c1.511,0.588,3.295,0.582,3.295,0.582s-3.295,1.109-4.854,0.529
								c-1.56-0.58-2.881-2.861-4.12-3.197s-2.931,0.203-2.931,0.203V248.749z"/>
							<path id="Path-308" fill="#FFFFFF" d="M1281.308,261.594c0,0-3.636,0.563-4.23,1.475c-0.596,0.913-1.007,1.095-2.318,1.553
								c-0.513,0.18-0.314,0.435-0.929,1.098c-0.614,0.662-3.511,1.38-3.511,1.38s3.872-0.265,4.684-0.662
								c0.811-0.398,1.872-1.31,2.445-1.815c0.574-0.506,1.332-0.873,1.909-0.969c0.576-0.096,1.95-0.336,1.95-0.336V261.594z"/>
							<path id="Path-309" fill="#FFFFFF" d="M1274.897,109.285c0,0-0.242,0.079-1.617,1.165s-1.535,2.156-1.975,2.447
								c-0.441,0.29,1.325-0.6,1.325-0.6s0.87-0.902,1.364-1.04s0.83-0.827,0.83-0.827L1274.897,109.285z"/>
							<path id="Path-310" fill="#FFFFFF" d="M1264.825,99.747c0,0,1.207,0.145,1.363,0.607s0.683,1.062,1.092,1.239
								c0.41,0.179,0.191,0.352,1.266,0.352c1.076,0,1.773-0.236,1.773-0.236s-1.239-0.35-2.158-0.713
								c-0.343-0.136-0.609-1.249-1.084-1.643c-0.476-0.393-2.252-1.078-2.252-1.078V99.747z"/>
							<path id="Path-311" fill="#FFFFFF" d="M1265.74,74.418c0,0,1.737,1.961,2.732,1.756c0.996-0.203,1.847,0.537,1.847,0.537
								s-1.131,0-2.18,0.379c-1.051,0.379-2.399-0.689-2.399-0.689V74.418z"/>
							<path id="Path-312" fill="#FFFFFF" d="M1274.897,124.883c0,0,0.013,0.578-1.01,0.849c-1.023,0.27-1.737,0.987-1.737,0.987
								l2.69-0.422L1274.897,124.883z"/>
							<path id="Path-314" fill="#FFFFFF" d="M1264.067,280.863c0,0,1.854,0.12,1.615,1.645c-0.237,1.524,1.33,2.839,2.289,2.492
								c0.52-0.188,2.552,1.368,2.854,1.992c0.302,0.624,2.239,2.128,2.239,2.128s-0.971-0.779-2.239-1.101
								c-1.269-0.322-2.443-0.471-2.854-0.556c-0.869-0.18-2.018-0.53-2.67-0.819c-0.654-0.289-1.295-0.392-1.332-0.396
								C1263.789,286.222,1264.067,280.863,1264.067,280.863z"/>
							<path id="Path-315" fill="none" stroke="#FFFFFF" d="M1217.208,328.6c0,0,2.441,0,3.207,0.604
								c2.191,1.728-1.607-4.896-1.607-4.896s1.24,0.714,1.963,1.716c1.63,2.265,2.41,2.577,2.41,2.577v-3.142
								c0,0,1.283,3.247,2.114,3.142c0.392-0.049,0.78-3.239,0.78-3.239s1.493,2.296,2.06,2.178
								c0.565-0.118,1.227-2.863,1.227-2.863s0.887,1.646,1.735,2.044c0.85,0.397,0.662-1.881,0.662-1.881s1.959,1.607,1.536,1.081
								s-0.417-3.407-0.417-3.407s1.047,2.504,1.789,3.407c0.74,0.903,1.248-0.2,1.33-0.461c0.082-0.262,0-1.942,0-1.942
								s0.774,1.04,1.139,1.567c0.363,0.527,0.898,1.542,1.249,0.836s0.646-1.081,0.646-1.081s0.164,0.705,0.598,0.62
								c0.432-0.086,0.988-2.813,0.988-2.813s1.021,2.497,1.418,2.715c0.398,0.218,0.832-1.481,0.832-1.481s2.087,1.488,1.859,0.959
								c-0.881-2.05-0.688-2.684-0.688-2.684s0.325,0.917,1.205,1.822c0.879,0.905,1.718,0.698,1.718,0.698s0.581-0.154,0.768-0.698
								s-1.524-5.208-1.524-5.208s2.207,3.489,3.609,4.454s0-2.524,0-2.524s1.912,2.285,2.639,1.813s0-3.743,0-3.743
								s0.982,1.887,1.561,2.383c0.578,0.497,1.176,0.584,1.449,0.794c0.275,0.209,0-2.225,0-2.225s0.816,1.454,1.73,1.874
								c0.545,0.249,1.301,0,1.506-0.52c0.447-1.138-0.436-3.236-1.23-4.743s-3.14-5.949-3.14-5.949s4.405,5.008,5.483,6.456
								s1.632,3.855,2.258,3.754c0.625-0.103,0-5.462,0-5.462s1.169,2.248,0.988,3.527c-0.181,1.278,0.809,2.53,1.08,2.493
								c0.557-0.076,1.542-5.369,1.542-5.369s0.378,6.63,1.278,6.729c0.899,0.101,1.617-4.719,1.617-4.719s0.646,3.406,1.002,3.604
								c0.355,0.198,1.292-7.379,1.292-7.379s1.708,2.608,1.255,4.645c-0.454,2.036,0.389,4.764,1.088,2.933
								c0.055-0.142,0.788-1.036,1.063-2.334c0.121-0.572,0.998-2.057,1.174-3.479c0.176-1.421-0.266-3.538-0.266-3.538
								s0.963,0.945,1.365,3.411c0.403,2.467-0.554,6.069-0.554,6.069l0.981-0.328c0,0,0.832-0.487,1.815-2.136
								s1.382-4.39,1.382-4.39s0.87,6.402,1.541,6.724c0.672,0.32,0.561-3.318,1.11-4.554c0.55-1.236,2.325-3.17,2.325-3.17
								s-1.11,4.011-1.133,5.062c-0.021,1.052,0.643,2.464,0.643,2.464s1.033-0.897,1.344-1.46c0.309-0.562,0.641-2.144,0.641-2.144
								l1.59,2.543c0,0,1.896,0.244,1.401-1.627c-0.493-1.87-0.272-10.321-0.272-10.321s1.004,5.63,1.229,7.944
								s1.724,3.775,2.472,4.004c1.311,0.398,0.487-4.554,0.487-4.554l1.648,4.096c0.204,0.509,0.712,0.622,1.093,0.227
								c0,0,0.705-0.384,1.075-1.964s0.699-5.896,0.699-5.896s1.405,8.907,1.804,9.152c0.396,0.246,1.82-5.269,1.82-5.269
								s0.232,4.337,0.852,4.908c0.62,0.571,2.629-2.104,2.629-2.104s0.092,2.116,0.138,3.013s0.175,1.789,0.989,1.789
								s2.878-3.655,2.878-3.655s-0.168,1.229,0.171,2.075c0.34,0.848,1.013,0.896,1.068,0.973c0.135,0.185,1.609,0.53,1.959-1.976
								c0.348-2.506,1.441-4.313,1.441-4.313s-0.383,4.11-0.165,4.886c0.087,0.312,1.655-2.004,1.655-2.004
								s-0.539,3.795-0.133,3.795c0.678,0,2.709-5.723,2.709-5.723s0.295,2.284,1.015,4.361c0.72,2.078,1.156,1.564,1.156,1.564
								c0.526,0.089,0.983-0.29,1.032-0.839c0,0,0.005-0.54,0.196-1.285c0.19-0.745,1.712-5.467,1.712-5.467
								s-0.316,4.776,0.206,6.783s1.947-0.966,1.947-0.966s0.63,3.529,0.802,2.893c0.076-0.284,1.057-1.026,1.57-2.475
								c0.513-1.449,0.926-2.771,0.926-2.771s0.318,2.308-0.334,4.037c-0.367,0.97,1.988-0.503,1.988-0.503s-0.304,1.16-0.379,1.711
								c-0.074,0.552,0,1.081,0,1.081s0.77-0.591,1.379-0.836s0.985-1.349,0.985-1.349s0,1.181-0.376,1.626
								c-0.376,0.444,0.231,1.085,0.231,1.085l1.428-1.362c0,0,0.128,1.537,0.401,1.362c0.612-0.391,1.74-1.771,1.74-1.771
								s-0.377,1.813-0.218,2.524c0.159,0.71,0.647,0,0.647,0l0.312,1.4"/>
						</g>
					</g>
					<g id="деревья-_x2F_-дерево4" transform="translate(771.000000, 256.000000)">
						<g id="дерево4">
							<path id="Path-319" fill="none" stroke="#FFFFFF" d="M1201.767,126.622c0,0,0.964-33.303,0-37.232
								c-0.965-3.929-2.019-9.611-2.808-13.124s-1.109-14.028-1.109-14.028"/>
							<path id="Path-320" fill="none" stroke="#FFFFFF" d="M1206.54,127.491c0,0-1.271-13.954-1.601-15.294
								c-0.328-1.34,0.039-15.291,0-16.496c-0.038-1.206,0.789-21.357,0.912-27.771c0.123-6.412-0.639-17.857-0.639-17.857
								l-0.03-0.887"/>
							<path id="Path-321" fill="none" stroke="#FFFFFF" d="M1197.85,69.536c0,0,3.384,22.029,4.711,20.464
								c1.328-1.566,2.241-25.152,2.241-25.152"/>
							<path id="Path-322" fill="none" stroke="#FFFFFF" d="M1194.2,35.227c0,0-2.407-3.457-3.759-1.253
								c-1.351,2.203-3.209,2.757-2.354,3.271c0.854,0.515,0.854,1.542-0.347,1.542c-1.202,0-1.865-2.064-3.068-1.032
								s-4.373-0.022-3.264,2.007c1.11,2.029,3.928,2.372,1.964,2.886s-3.536-0.35-3.856-0.175s1.355,0.293-0.533-1.696
								s-4.385,0-4.385,0s-0.812,1.235-0.814,2.434c-0.002,0.563-1.229-0.203-1.907,0c-0.68,0.203-1.022,1.368-1.647,0.895
								c-1.179-0.895-1.331,1.646-0.665,2.331c0.665,0.686,1.628,2.024,2.313,2.024c0.684,0,1.62-1.686,1.62-1.686
								s0.513-1.382,1.368-0.86c0.854,0.521,0.189,2.546,0.189,2.546s0.084,1.683,1.322,0.514c1.238-1.168,1.725-1.8,1.853-0.514
								c0.128,1.287-2.386,2.876,0,3.513s2.831,1.681,3.755,0.467c0.923-1.214-0.107-2.544,0.641-2.338s2.618,1.645,2.013,1.991
								s-1.428,1.634-0.297,1.736c1.131,0.104,1.741,0.41,2.57,0.205c0.83-0.205,2.698-0.913,2.698-1.779s-0.674-3.171,0.4-2.662
								c1.075,0.509,3.076,1.005,2.107,1.692s-1.938,0.955-0.97,1.493c0.97,0.538,1.45,0.554,2.251,0.803
								c0.802,0.248,1.878-0.026,1.878-0.026s-0.445,1.111,0.562,0.796c1.006-0.316,2.207-0.93,2.207-0.93s0.415,0.074,0.208-0.627
								c-0.208-0.701,1.28-0.769,1.28-0.769l0.37,0.556c0,0,1.26,0.089,1.167-0.604s0.093-1.545,0.093-1.545s1.22-0.833,2.101-0.417
								c0.881,0.417,2.139-0.508,2.139-0.508s2.041-0.995,1.021-1.405s0.981-1.729,1.736-0.864s1.055,2.412,1.854,0.975
								c0.799-1.438,4.202-3.036,3.051-4.389c-1.151-1.352-0.035-3.058,1.111-3.053c1.146,0.005,2.294-0.672,1.834-1.845
								c-0.461-1.172-0.436-2.406,0.451-3.053s2.002-1.321,2.231-2.474c0.229-1.153-2.164-5.677-2.424-4.299
								c-0.259,1.378-2.783,0.906-2.993,0.453c-0.211-0.453,3.172-2.306,3.179-2.997c0.007-0.692,0.438-1.614-0.004-2.306
								c-0.44-0.692-3.386,0.904-4.14,0.423c-0.755-0.481-1.811,1.607-1.811,1.607s-1.843-2.699-0.922-2.93
								c0.499-0.124-1.133-0.326-2.123-1.436c-0.991-1.108,0.705-1.971-1.031-2.823c-1.736-0.852-1.403-0.123-3.332,1.484
								c-1.928,1.607-4.879-0.312-4.218,1.893c0.66,2.204-3.301,1.128-3.597,1.781c-0.295,0.653,3.571,2.146,1.786,2.226
								c-1.786,0.08-1.774-0.322-3.36,1.377c-0.523,0.562-2.507,1.977-2.555,2.79c-0.047,0.814,2.251,2.756,2.251,2.756
								L1194.2,35.227z"/>
							<path id="Path-323" fill="none" stroke="#FFFFFF" d="M1201.473,18.606c-0.821,0-2.31-2.084-1.54-3.289
								s2.045-2.953,1.793-3.578c-0.253-0.624-1.938-1.632-2.356-2.555c-0.419-0.923,0.906-0.612,0.906-0.612
								s0.932,1.17,1.064,0.892c0.133-0.279,0.047-1.224-0.509-2.532s-2.354-1.931-2.354-1.931s-1.313-0.597-1.002-1.117
								c0.313-0.521-2.477-5.056-0.524-5.056c1.951,0-2.514-0.207-1.063-2.779c1.451-2.571,3.127-2.07,3.757-2.07
								c0.293,0-3.181-2.366-2.694-3.499c0.485-1.133,3.228-1.861,1.876-2.095s-2.918-1.339-3.474-1.609
								c-0.557-0.27,1.114-2.422,2.139-2.552c1.025-0.129,3.424,0.463,1.712-1.248c-1.712-1.71-1.542-1.789-0.688-2.126
								c0.854-0.338,1.352-3.006,1.556-4.317c0.204-1.311-0.379-4.146,1.046-2.583s1.424,2.766,1.424,2.766s-1.613,2.019-0.807,2.42
								c0.807,0.4,1.505,1.048,2.127,1.048s1.554,0.205,2.477,0.749c0.922,0.543,2.643,2.739,1.321,2.392s-3.292,0.998-2.605,1.929
								s1.255,1.733,1.671,1.629c0.416-0.105,2.161,1.246,2.653,1.038s-0.216,1.241-0.967,1.448
								c-0.752,0.207-1.938,1.438-1.345,2.019s1.331,0.486,2.136,0.243s2.829-1.133,1.414,0.608
								c-1.414,1.741-0.317,2.339-1.262,3.383c-0.943,1.044-0.009,2.041,1.455,2.299c1.463,0.258,3.536,2.072,2.025,2.59
								c-1.511,0.519-2.306,0.201-2.894,0.101c-0.587-0.101,0.139,1.383,0.503,1.383c0.365,0,0.493,0.622,1.442,0.312
								c0.948-0.312,1.207-0.676,2.191-0.338c0.985,0.338,1.387,0.431,1.387,1.732c0,1.303,0.813,2.305,1.854,2.096
								c1.039-0.208,2.559-0.31,2.87,0.414c0.313,0.724,0.995-0.351,1.968,0.187s1.139,1.398,0.569,2.094
								c-0.569,0.696-2.854,0.222-3.167,1.244c-0.313,1.023,1.218,2.021,0.609,2.357c-0.609,0.336-1.6,1.01-2.225,0.905
								s-1.786,0.142-1.474,0.841c0.312,0.698,2.519,1.578,1.259,2.019c-1.259,0.439-1.888,1.112-3.147,1.009
								c-1.259-0.104-3.062-1.107-3.166-1.614c-0.104-0.506-2.212-0.122-2.212,0.746c-0.001,0.868,0.049,2.091,0.111,2.352
								c0.063,0.26,1.158,1.048-0.909,1.048s-0.992,1.08-0.992,1.08"/>
							<path id="Path-324" fill="none" stroke="#FFFFFF" d="M1200.457,15.203c0,0-0.217,1.927-2.417,1.921
								c-2.199-0.006-3.684-1.866-2.311-2.297c1.373-0.432,1.451-2.135,0.726-2.424s-0.659-0.746-1.979-0.747
								c-1.32-0.002-2.256-0.241-1.969,0.692c0.287,0.933-0.36,1.324-0.181,1.901c0.181,0.577-1.881,1.367-1.881,1.16
								c-0.001-0.207-0.144-2.023-0.144-2.023s0.287-1.457,0.574-1.594s0.406-1.57,0.525-2.038c0.119-0.469,0.979-1.223,0.489-2.601
								c-0.135-0.38-0.832-0.288-1.015-0.617c-0.479-0.864,0.896-1.357-0.431-1.797c-0.694-0.229-2.347,3.124-1.881,1.249
								s-0.204-2.393-0.492-1.831c-0.144,0.281-1.241,0.452-1.472,1.292c-0.229,0.839,0.406,2.353,0.762,2.4
								c0.71,0.096,1.451,0.479,1.326,0.945c-0.124,0.467-0.681,3.249-0.681,3.249s-1.443-0.076-1.045,1.064
								c0.169,0.481-0.215,1.065,0,1.718c0.216,0.652,1.146,1.842,0.873,2.167c-0.474,0.563-0.366,0.479-0.098,1.233
								c0.27,0.754,0.098,4.857,0.098,4.857"/>
							<path id="Path-325" fill="none" stroke="#FFFFFF" d="M1187.325,15.866c0,0-2.183,0.435-2.201-1.175s-2.265-2.757-1.313-3.19
								s1.001-1.371,1.157-1.693c0.156-0.323-0.379-1.769-0.379-2.032c0-0.265-0.937-0.046-1.212-0.523
								c-0.276-0.479-1.574-0.667-1.437-1.468c0.137-0.801,0.728-2.169,0.797-2.688c0.068-0.519-0.92-0.894-0.92-0.894
								s-2.018,0.112-1.557,1.426c0.461,1.313-1.03,2.279-0.218,2.779s1.019,1.172,1.019,1.172s-0.552,1.3-1.23,1.391
								s-2.414-0.205-2.276,0.136c0.137,0.34,0.572,1.577,1.189,2.315c0.616,0.737-2.781-0.583-3.093,0.585
								c-0.311,1.168-0.434,1.413,0.475,2.049s1.54,0.581,0.771,1.195c-0.771,0.615-4.063-0.476-2.653,0.82
								c1.408,1.296,1.463,1.39,2.058,1.585c0.596,0.195,1.072-0.061,1.467,0.381c0.394,0.441,0.995,0.83,1.339,0.762
								c0.343-0.067,0.789,1.069,0.395,1.273s-0.952,0.875-1.343,0.807s-1.729,0-1.729,0s-2.189-0.388-2.188,0.623
								c0.002,1.012,0.904,1.027,1.157,1.427s-1.358,0.84-1.898,0.84c-0.541,0-3.834,0.152-3.287,1.646
								c0.547,1.492-0.896,1.697-1.231,1.492s-2.172-0.564-2.395-1.028s-1.744,0.497-1.606,0.964
								c0.137,0.467-0.141,1.256-0.07,1.597c0.07,0.34-0.276,0.349-0.139,0.884c0.139,0.535,0.021,1.113-0.186,1.317
								s-1.359,0.714-1.636,0.646c-0.275-0.068-1.906,0.095-1.154,0.652c0.752,0.559,0.881,1.501,1.018,1.433
								s-0.913,1.076-0.966,1.543c-0.052,0.467-1.437,1.223,0.65,1.223c2.088,0,4.958-0.413,4.682-1.223
								c-0.275-0.81-0.2-1.479,0.976-0.997c1.175,0.483,2.167,0.545,2.913,0.771c0.747,0.227,2.268,0.715,2.35-0.496
								s1.486-2.013,1.86-1.144c0.373,0.869,0.115,1.103,0.274,1.332c0.158,0.229,0.599-0.068,0.599-0.068s1.253-0.359,1.328-1.201
								s0.08-1.979,0.672-1.902c0.593,0.078,0.822,0.102,1.466,0.416s1.302,0.015,1.302,0.015s-0.454-1.456,0.223-1.583
								c0.676-0.128,1.016,0.981,0.907,1.433c-0.108,0.45,0.118,0.637,0.403,0.544c0.285-0.094,3.026,0.211,3.026,0.211
								s0.292,0.325,0.292,1.197c0,0.871,2.084,0.822,2.084,0.822l0.961,0.407c0,0,0.069,0.68,0.344,0.68"/>
							<path id="Path-326" fill="none" stroke="#FFFFFF" d="M1188.635,52.813c0,0-1.464,1.397-1.67,2.376
								c-0.206,0.979,1.412,1.328,1.67,1.328c0.544,0,0.976,1.047,0.488,1.22c-0.488,0.174-0.813,0.724-1.682,0.362
								c-0.869-0.362-1.397-0.933-1.525-0.467c-0.128,0.467,0.281,1.158-0.427,1.1c-0.707-0.059-1.106-0.511-1.516-0.572
								c-0.409-0.061-0.179-0.172-0.981-0.297c-0.804-0.126-1.441,1.055-0.915,1.229c0.527,0.175,0.035,0.506-0.716,0.68
								s-4.332-0.233-3.843,0.556s0.108,1.772,0.457,1.656c0.349-0.117-0.956,0.481-1.408,0.437
								c-0.453-0.044-0.974,0.745-0.736,0.861c0.237,0.115,0.372,1.1-0.49,1.346s-1.621,0.08-1.622,0.479
								c0,0.398-0.579,1.47-0.017,1.527c0.563,0.059-0.753,1.056-0.992,1.454c-0.238,0.398,0.25,0.985,0.629,1.159
								c0.38,0.174-0.145,0.877,0.73,0.818s1.232-0.866,1.232-0.866s0.642-0.776,0.586-0.66c-0.057,0.116,0.313,0.898,0.778,1.029
								c0.467,0.13,1.689,0.256,1.689-0.387s-0.816-1.331,0-1.212c0.815,0.118,1.516,0.208,2.075,0.389
								c0.561,0.181,1.531,0.429,1.23-0.648c-0.3-1.076,2.246-1.241,2.246-1.241s1.492,0.79,1.75,0
								c0.259-0.791,1.24-0.785,1.273-0.393c0.034,0.393,0.155,0.84,0.764,1.086c0.607,0.245,1.119,1.011,1.66,0.158
								c0.541-0.852,0.091-2.092,1.23-0.851c1.14,1.24,0.665,1.641,1.25,1.765s1.312,0.523,1.504,0
								c0.193-0.524-0.077-1.072,0.803-1.072s0.671,1.29,1.464,1.742c0.794,0.453,0.64,0.67,0.892,0s0.385-1.636,0.519-2.436
								c0.133-0.8,0.268-2.223,0.349-2.578s-0.787-1.371,0.08-1.639s1.23,0.147,1.52,0.158s1.296,0.404,1.059,0.803
								s-0.986,0.813-0.237,1.353c0.749,0.541,1.571,0.43,1.876,0.784s1.969-0.416,2.31-0.075c0.341,0.34,0.651,0.071,0.933,0.035
								c0.281-0.035,0.348-0.003,0.741-0.711s0.467-0.734,0.696-1.06c0.23-0.326,0.357-6.47-0.17-5.458
								c-0.526,1.012-0.709-1.297-1.882-0.872s-2.257-2.394-1.823-2.648s2.438-0.738,2.438-0.738s1.024-1.074,0.173-2.104
								c-0.851-1.031-3.28-1.66-3.28-1.66"/>
							<path id="Path-327" fill="none" stroke="#FFFFFF" d="M1205.671,95.3c0,0,7.32-5.194,7.841-8.185
								c0.52-2.99,2.588-17.047,2.588-17.047"/>
							<path id="Path-328" fill="none" stroke="#FFFFFF" d="M1205.671,93.559c0,0,5.594-3.614,6.102-6.425
								c0.507-2.812,3.458-16.196,3.458-16.196"/>
							<path id="Path-329" fill="none" stroke="#FFFFFF" d="M1208.764,64.017c0,0.616-0.543,0.976-0.996,1.065
								c-0.452,0.09-1.627,0.27-1.267,0.808c0.359,0.539-1.811,1.098-0.271,2.176c1.538,1.077,2.802,1.188,2.668,1.907
								s-0.128,0.719,0.594,0.719c0.721,0,1.172,0.256,1.532-0.722s2.543-2.418,1.271-0.404c-1.271,2.015-0.437,2.375,0.285,2.015
								c0.721-0.361,1.227-0.998,2.464-1.106c1.236-0.107,0.563,1.578,2.637,0.66s1.438-0.062,2.236,0.445
								c0.798,0.506,0.573,1.237,1.541,1.075c0.969-0.163,2.145-0.761,2.363-1.141c0.217-0.38-0.37-2.538,0.661-2.243
								s1.766,0.463,2.317,0.379s1.138-2.411,2.361-1.856c1.223,0.554,3.304-0.616,3.304-0.616l1.07-2.561
								c0,0,1.629-0.803,0.279-1.569c-1.35-0.766-5.729-1.285-5.575-0.158c0.153,1.128-2.394-1.203-1.917-2.121
								c0.478-0.918-0.11-2.69-2.487-2.255s-4.997-2.099-6.052-1.832c-0.642,0.162-1.913-0.784-2.739-0.47
								c-0.827,0.313-0.603,1.538-1.126,1.992c-0.339,0.293-1.048-0.676-1.338-0.483c-0.29,0.193-1.058,1.946-1.058,1.946
								s-5.199-0.474-2.6,0.894c0.656,0.346,0.498,0.713,1.087,0.937c0.589,0.223,3.738,0.777,2.786,1.041c-1.273,0.352-2.4,0-2.4,0
								s-1.525-1.022-2.123,0C1207.674,63.56,1208.764,63.401,1208.764,64.017z"/>
							<path id="Path-330" fill="none" stroke="#FFFFFF" d="M1214.742,56.227c0,0-0.387,0.514-1.015,0.199
								c-0.628-0.315-0.99-0.051-1.246,0.314s-1.016,0.464-1.271-0.309c-0.256-0.773-1.821-0.057-2.39,0.03
								c-0.567,0.086-0.942-0.639-1.198-0.922s0.891-0.896-0.476-1.732c-1.365-0.836,0-1.234,0-2.059
								c0-0.823,2.475,0.148,2.411-0.527s-0.291-1.689,0.51-1.756c0.801-0.065,1.271-0.113,1.456-0.819
								c0.184-0.707,0.263-1.125,1.474-1.136c1.211-0.012,1.138-2.193,1.745-2.344c0.608-0.151,1.722,0,1.722,0.849
								c0,0.85,0.909,1.381,1.631,0.643c0.721-0.739,0.524-2.568,1.983-1.491c1.46,1.076,0.694,3.185,1.776,2.344
								c1.082-0.842,3.247-1.858,3.246-0.374c-0.001,1.483,1.458,1.988,0.556,3.301c-0.901,1.312,3.242,0.488,2.526,1.312
								c-0.716,0.824-1.299,0.97-2.19,0.97s-1.967-0.557-1.967,1.089c-0.001,1.645-1.88,2.618-2.612,1.732
								c-0.733-0.885-4.049,1.238-4.042,0.687"/>
						</g>
					</g>
				</g>
			</g>
		</g>
	</g>
	<g>
		<rect x="1155.5" y="294.786" fill="#FFFFFF" width="34.994" height="1"/>
	</g>
	<g>
		<rect x="1261.679" y="294.786" fill="#FFFFFF" width="18.345" height="1"/>
	</g>
	<g>
		<rect x="1296.934" y="294.786" fill="#FFFFFF" width="79.733" height="1"/>
	</g>
	<g>
		<rect x="2197.125" y="294.786" fill="#FFFFFF" width="68.375" height="1"/>
	</g>
	<rect x="1165.5" y="-55.773" fill="none" width="1100" height="599.999"/>
</g>
</svg>
