<?xml version="1.0" encoding="utf-8"?>
<!-- Generator: Adobe Illustrator 16.0.0, SVG Export Plug-In . SVG Version: 6.00 Build 0)  -->
<!DOCTYPE svg PUBLIC "-//W3C//DTD SVG 1.1//EN" "http://www.w3.org/Graphics/SVG/1.1/DTD/svg11.dtd">
<svg version="1.1" id="Layer_1" xmlns="http://www.w3.org/2000/svg" xmlns:xlink="http://www.w3.org/1999/xlink" x="0px" y="0px"
	 width="1110px" height="600px" viewBox="2295.5 -56.5 1110 600" enable-background="new 2295.5 -56.5 1110 600"
	 xml:space="preserve">
<title>dom-3-1110@3x</title>
<desc>Created with Sketch.</desc>
<g>
	<rect x="3358.225" y="294.786" fill="#FFFFFF" width="47.275" height="1"/>
</g>
<g>
	<g id="Page-1_3_">
		<g id="dom-3-1110">
			<g id="dom-3" transform="translate(0.000000, 10.000000)">
				<g id="дом3_белый" transform="translate(394.000000, 0.000000)">
					<path id="Path-318" fill="none" stroke="#FFFFFF" d="M2934.396,83.477l3.488,328.806l-449.024,39.548l-186.54-37.309
						l1.644-191.218 M2304.368,176.062l0.101-11.658 M2304.608,148.252l0.595-69.303l185.013-104.761l445.224,109.488v-1.905
						L2490.216-28.582L2305.203,77.211v2.012"/>
					<path id="Rectangle-78" fill="none" stroke="#FFFFFF" d="M2366.1,120.058v100.14l11.647-2.409V115.363L2366.1,120.058z"/>
					<path id="Rectangle-75" fill="none" stroke="#FFFFFF" d="M2621.762,81.871v122.684l28.813,2.575V87.16L2621.762,81.871z"/>
					<path id="Rectangle-76" fill="none" stroke="#FFFFFF" d="M2657.898,88.535V207.82l24.295,2.195v-117L2657.898,88.535z"/>
					<polyline id="Path-331" fill="none" stroke="#FFFFFF" points="2318.346,207.327 2319.11,107.836 2490.027,24.037 
						2914.737,114.473 2914.737,114.473 2916.326,235.682 2488.737,197.513 2318.146,233.275 2318.161,231.364 					"/>
					<polyline id="Path-332" fill="none" stroke="#FFFFFF" points="2345.215,227.152 2346.294,112.279 2513.511,36.695 
						2900.795,116.753 2901.83,234.189 					"/>
					<path id="Path-333" fill="none" stroke="#FFFFFF" d="M2900.549,116.93l14.141-2.215"/>
					<path id="Path-334" fill="none" stroke="#FFFFFF" d="M2319.346,107.948l27.03,4.261"/>
					<path id="Path-335" fill="none" stroke="#FFFFFF" d="M2513.452,36.285l-0.175,163.22"/>
					<polygon id="Path-336" fill="none" stroke="#FFFFFF" points="2305.397,387.004 2306.07,257.098 2488.65,228.441 
						2856.251,254.242 2856.859,390.816 2489.097,412.732 					"/>
					<polyline id="Path-337" fill="none" stroke="#FFFFFF" points="2302.546,401.226 2489.203,433.348 2937.829,401.099 					"/>
					<path id="Path-338" fill="none" stroke="#FFFFFF" d="M2857.188,390.568l-63.256-3.502l-148.769,6.471 M2633.518,394.044
						l-17.349,0.755 M2604.624,395.301l-18.124,0.788 M2574.809,396.597l-19.281,0.839 M2403.766,263.726l-0.336,120.98
						L2403.766,263.726z"/>
					<path id="Path_12_" fill="none" stroke="#FFFFFF" d="M2543.126,397.975l-1.825,0.08l-19.224-1.786 M2509.772,395.126
						l-106.23-9.868l-98.006,1.518"/>
					<path id="Path-339" fill="none" stroke="#FFFFFF" d="M2306.333,257.098l97.467,6.608l105.866-13.402 M2522.062,248.734
						l19.289-2.441l2.001,0.098 M2555.5,246.983l19.251,0.938 M2586.564,248.498l18.228,0.89 M2616.177,249.942l17.397,0.849
						 M2645.106,251.353l149.258,7.28l61.742-4.056"/>
					<path id="Path-340" fill="none" stroke="#FFFFFF" d="M2794.022,258.596l0.005,128.659"/>
					<path id="Rectangle-72" fill="none" stroke="#FFFFFF" d="M2509.74,233.284v174.602l9.841,0.688V232.929L2509.74,233.284z"/>
					<polyline id="Path-341" fill="none" stroke="#FFFFFF" points="2520.011,408.651 2522.114,408.417 2522.114,233.03 
						2519.898,232.862 					"/>
					<path id="Rectangle-72_1_" fill="none" stroke="#FFFFFF" d="M2543.166,235.985v170.11l9.841,0.67V235.639L2543.166,235.985z"/>
					<polyline id="Path-341_1_" fill="none" stroke="#FFFFFF" points="2553.437,406.848 2555.54,406.621 2555.54,235.736 
						2553.324,235.572 					"/>
					<path id="Rectangle-72_2_" fill="none" stroke="#FFFFFF" d="M2574.785,237.791v166.5l9.39,0.666v-167.51L2574.785,237.791z"/>
					<polyline id="Path-341_2_" fill="none" stroke="#FFFFFF" points="2584.549,405.034 2586.417,404.907 2586.417,237.691 
						2584.549,237.376 					"/>
					<path id="Rectangle-72_3_" fill="none" stroke="#FFFFFF" d="M2604.598,239.591v163.097l9.389,0.653V239.254L2604.598,239.591z"
						/>
					<polyline id="Path-341_3_" fill="none" stroke="#FFFFFF" points="2614.361,403.426 2616.229,403.302 2616.229,239.482 
						2614.361,239.174 					"/>
					<path id="Rectangle-72_4_" fill="none" stroke="#FFFFFF" d="M2633.506,242.292v158.848l9.39,0.637V241.963L2633.506,242.292z"
						/>
					<polyline id="Path-341_4_" fill="none" stroke="#FFFFFF" points="2643.271,401.873 2645.138,401.752 2645.138,242.173 
						2643.271,241.872 					"/>
					<polygon id="Path-344" fill="none" stroke="#FFFFFF" points="2418.486,268.956 2418.009,375.889 2469.326,380.344 
						2469.694,263.635 					"/>
					<path id="Path-344_1_" fill="none" stroke="#FFFFFF" d="M2437.208,373.915l15.315,1.342 M2453.708,375.36l15.638,1.37
						l0.344-109.483l-15.789,1.654 M2452.748,269.022l-15.298,1.603 M2436.401,270.735l-14.339,1.503l0,0l-0.443,100.313
						l14.648,1.282"/>
					<path id="Path-345" fill="none" stroke="#FFFFFF" d="M2509.634,259.47l-37.006,3.815l0,0l-0.458,117.304l37.563,3.283
						 M2522.173,384.96l12.942,1.131l0.175-129.267l-13.213,1.363"/>
					<path id="Path-345_1_" fill="none" stroke="#FFFFFF" d="M2497.054,379.02l12.824,1.149 M2522.153,381.27l11.173,1.002
						l0.16-121.869l-11.285,1.193"/>
					<path id="Path_11_" fill="none" stroke="#FFFFFF" d="M2509.702,262.919l-12.43,1.314 M2495.113,264.461l-19.23,2.034
						l-0.422,110.59l19.716,1.768"/>
					<path id="Path-346" fill="none" stroke="#FFFFFF" d="M2436.046,270.588l-0.216,103.267"/>
					<path id="Path-346_1_" fill="none" stroke="#FFFFFF" d="M2452.308,268.781l-0.224,106.602"/>
					<path id="Rectangle-77" fill="none" stroke="#FFFFFF" d="M2349.838,126.573v97.054l13.455-2.819v-99.63L2349.838,126.573z"/>
					<path id="Path-346_2_" fill="none" stroke="#FFFFFF" d="M2454.356,268.548l-0.224,106.601"/>
					<path id="Path-346_3_" fill="none" stroke="#FFFFFF" d="M2437.854,270.588l-0.217,103.267"/>
					<path id="Path-347" fill="none" stroke="#FFFFFF" d="M2494.784,264.004v115.174"/>
					<path id="Path-347_1_" fill="none" stroke="#FFFFFF" d="M2497.496,263.782v115.152"/>
					<polyline id="Path-342" fill="none" stroke="#FFFFFF" points="2937.852,402.549 2965.263,400.499 2963.83,241.502 
						2936.339,238.915 2936.298,237.219 2963.83,239.858 2963.83,241.502 					"/>
					<path id="Path-343" fill="none" stroke="#FFFFFF" d="M2937.864,391.969l27.375-1.682"/>
					<polyline id="Path-348" fill="none" stroke="#FFFFFF" points="2937.61,370.627 2949.541,369.949 2948.44,276.257 
						2936.659,275.596 					"/>
					<polyline id="Path-348_1_" fill="none" stroke="#FFFFFF" points="2937.41,367.913 2946.831,367.266 2945.963,278.029 
						2936.659,277.401 					"/>
					<polyline id="Path-349" fill="none" stroke="#FFFFFF" points="2797.967,386.979 2797.472,279.096 2844.591,276.802 
						2845.021,389.831 					"/>
					<path id="Rectangle-70" fill="none" stroke="#FFFFFF" d="M2800.743,281.787v11.022l40.449-0.749v-12.121L2800.743,281.787z"/>
					<path id="Rectangle-71" fill="none" stroke="#FFFFFF" d="M2800.971,298.135l0.449,84.812l13.122,0.727v-85.821
						L2800.971,298.135z"/>
					<path id="Rectangle-71_1_" fill="none" stroke="#FFFFFF" d="M2817.8,297.758v86.068l22.489,1.218v-87.802L2817.8,297.758z"/>
					<path id="Path-350" fill="none" stroke="#FFFFFF" d="M2788.078,258.461l0.352,128.764"/>
					<polyline id="Path-351" fill="none" stroke="#FFFFFF" points="2583.514,205.875 2583.514,69.327 2686.967,89.14 
						2686.967,215.13 					"/>
					<path id="Rectangle-74" fill="none" stroke="#FFFFFF" d="M2588.336,75.644V201.51l26.103,2.363V80.472L2588.336,75.644z"/>
					<polyline id="Path-352" fill="none" stroke="#FFFFFF" points="2346.391,124.364 2392.739,105.026 2392.217,217.607 					"/>
					<polyline id="Path-355" fill="none" stroke="#FFFFFF" points="2392.675,109.224 2380.566,114.162 2380.566,217.226 
						2392.223,214.767 					"/>
					<polyline id="Path-354" fill="none" stroke="#FFFFFF" points="2833.204,228.114 2833.204,116.961 2901.052,129.922 					"/>
					<path id="Rectangle-79" fill="none" stroke="#FFFFFF" d="M2835.868,122.06V223.97l16.165,1.448V125.14L2835.868,122.06z"/>
					<path id="Rectangle-80" fill="none" stroke="#FFFFFF" d="M2857.55,126.195v99.73l18.875,1.681v-97.81L2857.55,126.195z"/>
					<path id="Rectangle-81" fill="none" stroke="#FFFFFF" d="M2881.941,130.865v97.23l14.358,1.272v-95.751L2881.941,130.865z"/>
					<path id="Rectangle-82" fill="none" stroke="#FFFFFF" d="M2936.131,197.884l-0.15,1.991l19.137,3.052v36.023l2.162,0.216
						v-37.978L2936.131,197.884z"/>
					<path id="Path-353" fill="none" stroke="#FFFFFF" d="M2935.713,205.241l18.692-2.377"/>
					<path id="Path-353_1_" fill="none" stroke="#FFFFFF" d="M2935.654,203.038l11.854-1.304"/>
					<path id="Path-10_1_" fill="none" stroke="#FFFFFF" d="M2490.155-28.318v52.201"/>
					<path id="Path-11_1_" fill="none" stroke="#FFFFFF" d="M2488.78,197.581v30.756"/>
					<path id="Path-12_1_" fill="none" stroke="#FFFFFF" d="M2489.031,412.721v39.271"/>
				</g>
				<g id="дерево5" transform="translate(29.000000, 87.000000)">
					<path id="Path-356" fill="none" stroke="#FFFFFF" d="M2464.407,331.182c0,0,0.654-3.875,3.383-7.563
						c2.73-3.688,14.504-7,17.197-14.941c2.692-7.94,4.242-39.24,4.485-54.657c0.244-15.417-2.2-43.438-4.485-54.402
						s-17.564-24.224-23.245-26.475c-5.681-2.25-7.306-3.006-14.745-3.006s-21.223-6.354-27.42-13.968
						c-1.176-1.444-4.659-3.196-7.198-3.196c-2.54,0-8.649,0-13.292-0.8c-4.642-0.799-8.551-6.321-8.795-7.295"/>
					<path id="Path-357" fill="none" stroke="#FFFFFF" d="M2467.435,169.696c0,0-8.038-6.279-25.977-6.279
						c-10.641,0-16.951-7.438-16.951-7.438s-6.088-13.006-23.001-18.369"/>
					<path id="Path-358" fill="none" stroke="#FFFFFF" d="M2392.139,144.275c0,0,1.855,4.813,6.41,5.646
						c4.555,0.835,5.866-0.759,14.923,0.697c1.925,0.309,2.338-0.942-1.451-4.871c-3.79-3.929-12.244-7.133-12.244-7.133"/>
					<path id="Path-359" fill="none" stroke="#FFFFFF" d="M2539.278,329.708c0,0-17.62-13.656-22.713-23.84
						c-5.092-10.183-10.882-33.113-10.882-52.575c0-10.394,0,4.601,0-23.548c0-28.147,2.323-36.284,0.989-41.148
						c-1.334-4.865-2.558-7.165-2.906-12.898c-0.35-5.734,0.746-16.108,0.907-17.499c0.162-1.39,0.843-5.426,5.169-13.766"/>
					<path id="Path-360" fill="none" stroke="#FFFFFF" d="M2506.518,188.13c0,0,0.917-10.458,8.306-15.296
						c7.389-4.837,8.685-3.107,13.834-5.55c5.148-2.441,11.028-9.397,20.508-13.198c9.48-3.801,22.982-11.626,23.162-12.53"/>
					<path id="Path-361" fill="none" stroke="#FFFFFF" d="M2503.663,174.504c0,0,0.74-0.816,1.011-1.13
						c1.344-1.561,6.925-5.675,18.524-11.107s24.303-13.811,26.104-17.249s2.522-5.249,2.522-5.249"/>
					<path id="Path-362" fill="none" stroke="#FFFFFF" d="M2553.065,140.44c0,0,0,7.066-2.621,8.028
						c-1.363,0.499,3.065-0.112,8.555-2.488c5.49-2.375,11.496-5.54,11.496-5.54"/>
					<path id="Path-363" fill="none" stroke="#FFFFFF" d="M2492.579,172.723c0,0-3.789-11.628-13.264-17.884
						s-13.887-3.862-17.901-8.201c-4.015-4.34-8.758-20.869-11.181-23.847s-14.045-16.581-14.987-19.868"/>
					<path id="Path-364" fill="none" stroke="#FFFFFF" d="M2429.901,105.634c0,0,8.745,11.717,9.537,15.833
						c0.791,4.116,3.486,13.953,7.117,19.177s9.908,15.48,9.908,15.48s6.305,8.703,10.833,12.751"/>
					<path id="Path-365" fill="none" stroke="#FFFFFF" d="M2442.646,132.959c0,0-4.543-11.596-19.555-15.963"/>
					<path id="Path-366" fill="none" stroke="#FFFFFF" d="M2426.941,110.825c0,0,8.948,3.343,12.272,10.002"/>
					<path id="Path-367" fill="none" stroke="#FFFFFF" d="M2425.409,111.527c0,0,3.396,1.889,6.375,4.113
						c2.978,2.224,5.557,4.797,3.605,3.892c-3.893-1.809-13.701-5.004-13.701-5.004"/>
					<path id="Path-368" fill="none" stroke="#FFFFFF" d="M2491.214,125.651c0,0,0.418,38.104-1.033,41.782"/>
					<path id="Path-369" fill="none" stroke="#FFFFFF" d="M2500.136,133.497c0,0,1.205,18.215,0.018,21.367
						c-1.188,3.153,7.4-17.588,7.4-17.588"/>
					<path id="Path-370" fill="none" stroke="#FFFFFF" d="M2463.517,148.47c0,0,0.946-13.383-0.566-19.005
						c-0.683-2.533-4.049-11.091-5.948-14.441c-1.9-3.35-4.188-6.745-4.444-7.191c-0.644-1.121-0.481-4.012-0.283-4.903"/>
					<path id="Path-371" fill="none" stroke="#FFFFFF" d="M2473.321,151.617c0,0-5.166-1.79-6.145-14.943
						s-0.441-14.289-0.441-17.353s0.341-11.648-2.616-17.695"/>
					<path id="Path-372" fill="none" stroke="#FFFFFF" d="M2454.47,102.051c0,0-0.954,2.795-0.168,3.939
						c0.785,1.144,8.203,8.826,7.814,11.458c-0.224,1.511,1.082-4.602,0.842-9.471c-0.24-4.87-1.751-6.392-1.751-6.392"/>
					<path id="Path-373" fill="none" stroke="#FFFFFF" d="M2449.386,45.86c0,0-2.644-0.698-3.141-4.012
						c-0.496-3.314,4.18-18.299,4.18-18.299"/>
					<path id="Path-374" fill="none" stroke="#FFFFFF" d="M2447.048,48.106c0,0-4.932-2.54-5.18-4.764
						c-0.25-2.224-0.328-5.393-0.801-6.602c-0.475-1.209-2.999-4.162-2.999-4.162"/>
					<path id="Path-375" fill="none" stroke="#FFFFFF" d="M2439.216,31.645c0,0,4.375,5.245,4.49,7.008
						c0.059,0.896,0.887-3.143,2.037-7.256s3.176-8.41,3.176-8.41"/>
					<path id="Path-376" fill="none" stroke="#FFFFFF" d="M2384.603,111.439c0,0-2.266-3.957-5.211-5.187
						c-2.944-1.229-4.92-0.973-4.277-3.283c0.643-2.312-1.002-10.112-1.002-10.112"/>
					<path id="Path-377" fill="none" stroke="#FFFFFF" d="M2381.442,112.258c0,0-2.772-1.079-4.092-1.813
						c-1.318-0.734-2.988-0.788-3.376-1.563c-0.395-0.79-1.241-2.027-1.933-3.381s-1.818-3.976-2.104-4.529
						c-0.484-0.945-6.025-5.434-6.361-5.434"/>
					<path id="Path-378" fill="none" stroke="#FFFFFF" d="M2370.476,87.489c0,0,0.929,4.537,1.316,8.021
						c0.388,3.484,0,3.571,0,3.909c0,0.368-1.552-0.94-3.327-2.481c-1.774-1.54-5.052-4.176-5.052-4.176"/>
					<path id="Path-379" fill="none" stroke="#FFFFFF" d="M2520.347,89.607c0,0,4.514-4.523,6.441-7.109
						c1.928-2.585,4.162-7.109,4.162-7.109"/>
					<path id="Path-380" fill="none" stroke="#FFFFFF" d="M2523.05,90.189c0,0,1.546-1.638,4.057-3.338
						c2.512-1.699,2.43-3.217,4.499-4.142c6.2-2.772,17.6-3.837,17.6-3.837"/>
					<path id="Path-381" fill="none" stroke="#FFFFFF" d="M2533.54,75.441c0,0-0.828,4.195-1.417,4.782
						c-0.269,0.267,2.566-0.956,6.293-1.79c3.726-0.834,10.626-0.836,10.626-0.836"/>
					<path id="Path-382" fill="none" stroke="#FFFFFF" d="M2575.396,91.553l8.825-5.138"/>
					<path id="Path-383" fill="none" stroke="#FFFFFF" d="M2574.319,94.693c0,0,11.199-6.143,11.467-6.813"/>
					<path id="Path-384" fill="none" stroke="#FFFFFF" d="M2608.653,108.047c0,0,10.354,1.244,12.884,0s8.52-2.64,9.995-2.64
						c0.855,0,4.143,0.045,6.632-0.791s3.11-2.112,3.155-2.328"/>
					<path id="Path-385" fill="none" stroke="#FFFFFF" d="M2613.355,103.809c0,0,1.448,0.621,3.661,0.311
						c2.215-0.311,9.771-2.655,12.195-2.975c1.411-0.187,4.146,0.005,6.365,0s3.594-0.592,3.594-0.592"/>
					<path id="Path-386" fill="none" stroke="#FFFFFF" d="M2347.397,149.52c0,0,1.031,6.498,8.6,5.644s4.428-12.878,4.428-12.878
						s4.284,1.228,6.337-0.188"/>
					<path id="Path-387" fill="none" stroke="#FFFFFF" d="M2366.771,141.854c0,0,0.474,2.639,4.293,3.258
						c3.818,0.62,3.794-2.273,3.794-2.273s1.055,3.459,2.982,3.044c0.523-0.113,3.188-2.422,2.738-1.932s0.672,3.388,3.137,2.437
						c0.906-0.35,1.312-1.62,1.479-2.244"/>
					<path id="Path-388" fill="none" stroke="#FFFFFF" d="M2384.685,144.052c0,0,4.964,1.609,8.27,0
						c3.305-1.609,0.635-4.699,0.635-4.699s4.771,0.62,7.121-1.137c2.351-1.758,1.242-4.096,0.521-5.231
						c-0.733-1.155,6.495,3.301,10.302,0.23c3.807-3.071,1.697-8.881,1.697-8.881"/>
					<path id="Path-389" fill="none" stroke="#FFFFFF" d="M2418.124,122.356c0,0,0.033-3.104,1.481-4.1
						c0.655-0.451,2.612-0.036,3.202-1.168s-1.512-3.038-1.512-3.038c-0.387-0.396-0.255-0.747,0.296-0.808
						c0,0,3.198-0.045,4.695-2.085c1.497-2.041,0.198-3.433,0.198-3.433c-0.281-0.469-0.068-0.858,0.482-0.89
						c0,0,2.067,0.045,3.191-0.814c1.124-0.86,2.302-3.856,2.302-3.856c0.215-0.504,0.688-0.582,1.082-0.188
						c0,0,0.702,0.939,2.071,1.378c1.369,0.439,6.071,0.731,6.071,0.731"/>
					<path id="Path-390" fill="none" stroke="#FFFFFF" d="M2445.175,103.948c0,0,1.463,2.362,3.07,1.82
						c1.607-0.541,5.924-4.166,5.924-4.166s1.436,1.218,3.859,1.218s5.439-2.144,5.439-2.144s0.378,0.516,0.688,1.376
						c0.31,0.861,1.115,1.464,1.463,1.896c0.76,0.941,3.333,1.26,3.333,1.26s2.606,0.539,3.725,1.528
						c1.119,0.989,3.108,2.468,4.286,2.23"/>
					<path id="Path-391" fill="none" stroke="#FFFFFF" d="M2482.532,107.116c0,0,7.108,4.331,4.738,7.739
						c-2.369,3.409-1.813,6.541-0.199,6.54c1.614,0,4.047-0.613,3.529,0.405c-0.225,0.439-0.529,2.673,0,3.584
						c0.528,0.91,5.021,2.572,5.021,2.572s2.354,4.507,4.201,5.777s7.768,1.897,7.768,1.897s-0.293,9.53,2.822,9.093
						c0.938-0.132-0.229,3.232-0.456,4.397c-0.105,0.538-1.431,4.878,0.921,7.813s5.554,1.603,6.354,1.73"/>
					<path id="Path-392" fill="none" stroke="#FFFFFF" d="M2531.46,149.827c0,0,7.631,3.333,9.82,0.21
						c2.188-3.123-1.619-5.829-0.696-7.271c0.923-1.442,7.101-3.034,11.468-2.716c4.367,0.319,3.777,2.716,3.777,2.716"/>
					<path id="Path-393" fill="none" stroke="#FFFFFF" d="M2557.694,136.801c0,0,3.035-2.734,5.431-0.944
						c2.395,1.79,1.11,4.261,2.67,4.992c1.561,0.73,3.329-0.979,5.156-0.327c1.828,0.653,0.913,1.703,2.703,2.683
						s3.807,2.066,7.073,0.704c3.266-1.363,3.481-5.745,3.481-5.745"/>
					<path id="Path-394" fill="none" stroke="#FFFFFF" d="M2591.692,135.622c0,0,2.646-2.694,3.262-4.036
						c0.614-1.343,5.623,0.301,6.342,1.535"/>
					<path id="Path-395" fill="none" stroke="#FFFFFF" d="M2603.929,134.324c0,0,0.625,4.906,2.887,5.491"/>
					<path id="Path-396" fill="none" stroke="#FFFFFF" d="M2612.75,137.262c0,0-3.297,5.524-0.653,10.225
						c2.645,4.7,9.67,2.849,9.67,2.849"/>
					<path id="Path-397" fill="none" stroke="#FFFFFF" d="M2621.327,146.108c0,0-0.309,3.689,2.406,6.068
						c2.713,2.379,8.484,5.024,11.578,4.327c4.922-1.11,5.134-4.625,5.134-4.625s2.497,2.585,4.417,0.683
						c1.922-1.902-0.979-4.719-0.979-4.719s1.842-1.846,1.89-3.106c0.047-1.261-1.248-3.45-1.89-4.236
						c-0.302-0.371,0.829-2.037,2.307-2.557c1.479-0.521,3.697,0,3.697,0s2.707,2.623,5.252,0.982s-0.24-4.23-0.24-5.17
						s0.134-2.03,2.536-1.521c2.401,0.509,7.235,1.849,6.662,3.293c-0.574,1.445,0.758,2.416,2.568,2.416
						c1.812,0,2.48-1.904,2.48-1.904c0.249-0.487,0.873-0.719,1.354-0.472c0,0,2.816,0.661,2.345,4.933s-3.248,2.248-2.857,5.228
						c0.39,2.979,6.532,2.744,6.753,2.892"/>
					<path id="Path-398" fill="none" stroke="#FFFFFF" d="M2673.464,148.749c0,0-1.01,5.029,3.924,5.283s4.496-6.348,4.496-6.348
						c0-0.546,0.145-1.418,0.348-1.925c0,0,0.762-2.969,3.864-4.284c3.104-1.315,7.372-0.173,8.181-1.868s0.872-3.222,0.872-3.222
						s4.957,0.272,4.957-4.018c0-1.813-1.235-3.655-2.535-4.79s-1.242-4.18-3.591-5.64c-2.348-1.461-5.732-2.453-8.355-1.777
						c-0.683,0.176-2.849,0.3-4.061-0.676c-1.211-0.976-1.783-2.014-1.783-2.753c0-2.611,3.563-2.154,3.608-4.161
						c0.046-2.007-3.062-1.433-4.688-3.087s-1.85-4.878-1.85-4.878"/>
					<path id="Path-399" fill="none" stroke="#FFFFFF" d="M2673.302,106.754c0,0,5.582-2.205,5.582-5.984
						c0-3.778-6.699-5.964-6.699-5.964c-0.518-0.193-0.736-0.748-0.532-1.259c0,0,1.366-2.067-0.743-3.968
						c-2.108-1.899-9.58,0.421-10.027-2.746c-0.447-3.168-2.115-5.063-3.135-6.204c-1.019-1.141-2.716-2.165-4.578-2.434
						s-4.33,0.423-5.464,0.558c-2.263,0.268-1.095-1.092-2.782-1.092c-1.686,0-2.949,0.534-2.949,0.534"/>
					<path id="Path-400" fill="none" stroke="#FFFFFF" d="M2660.165,84.185c0,0-2.934-7.141,2.354-7.565
						c5.288-0.424,9.333,2.323,11.905,0.038c2.571-2.284,3.344-4.557,1.672-5.054s-5.445-1.741-4.688-2.92
						c0.758-1.18,5.24-3.598,8.207-3.996c2.967-0.399,4.51-5.607-2.565-5.563c-1.575,0.01-2.351,1.249-3.422,1.582
						c-0.455,0.142-2.626-0.189-3.788,0.387c-1.162,0.575-2.47,2.316-3.622,2.315c-2.577-0.002-6.498-5.503-8.009-5.417
						c-1.512,0.085-3.902,1.421-4.544,0.229c-0.643-1.191-0.745-2.563-1.824-2.408s-2.684,2.032-3.854,1.108
						c-1.171-0.923-0.061-6.5-3.187-6.142s-4.428,1.189-6.606,2.199c-2.179,1.011-8.513-2.641-8.668-2.641"/>
					<path id="Path-401" fill="none" stroke="#FFFFFF" d="M2658.099,57.998c0,0,4.07-1.288,2.715-2.91
						c-1.357-1.622-2.951-1.051-3.451-1.693c-0.5-0.642,0.196-4.251,1.182-5.107s1.839-5.268-2.803-5.983
						c-4.642-0.715-8.35,1.873-8.707-1.534s1.715-9.374-0.493-10.63c-2.208-1.255-15.795,0.899-19.053-4.798
						s1.629-7.768,1.04-10.598c-0.588-2.83-4.096-2.985-4.096-4.097s5.246-4.111,4.692-6.986c-0.554-2.876,0.579-3.202,1.627-4.463
						c1.048-1.262,1.188-4.333-2.925-6.23c-4.113-1.898-7.537-1.75-8.57,0.762c-0.448,1.088-2.465,4.073-5.133,4.657
						c-2.669,0.584-4.878,0.812-7.617-1.753c-2.738-2.564-3.523-2.744-8.091-2.521c-2.099,0.103-2.462,3.245-3.786,5.981
						c-1.325,2.737-3.396,6.854-4.245,7.238"/>
					<path id="Path-402" fill="none" stroke="#FFFFFF" d="M2604.808,24.17c0,0-4.334,1.812-4.63-3.137
						c-0.296-4.949-2.065-2.075-3.502-6.026c-1.436-3.95,2.276-4.827-1.2-6.911s-6.312-0.056-8.028,0
						c-4.208,0.136-2.969-4.328-6.639-7.154c-3.671-2.826-9.098-0.876-8.1-7.015c0.998-6.14-3.343-7.177-7.142-5.406
						s-1.723-2.153-4.875-4.823c-3.153-2.67-5.52-3.001-11.073-2.108c-5.554,0.892-4.99-3.488-4.99-3.488s0.538-3.07-2.085-4.693
						s-7.049-3.274-9.666,0.982c-0.837,1.361-4.158-0.982-5.938,1.806s0.053,4.562-0.486,5.734s-2.862-0.174-4.67,1.053
						c-0.738,0.501-0.507,3.685-3.744,4.256c-3.237,0.57-5.947-0.125-9.264-0.904"/>
					<path id="Path-403" fill="none" stroke="#FFFFFF" d="M2509.818-10.603c0,0-0.934-8.58-4.874-10.719
						c-3.941-2.139-5.502,1.684-5.502,1.684s-2.59-3.679-4.798-2.269s-5.577,9.319-7.592,9.319s-6.294-4.604-8.517-3.828
						c-2.223,0.774-2.615,10.468-6.666,12.235c-0.84,0.366-1.65-0.984-2.293-0.656c-0.643,0.327-3.539,3.618-4.529,1.151
						c-1.252-3.111,1.254-7.235,1.05-9.808c-0.204-2.571-0.378-3.517-2.235-5.104c-1.859-1.588-7.082-1.835-10.757-1.042
						c-6.772,1.461-14.714-3.134-17.017-1.032c-2.302,2.102-4.086,5.184-4.086,5.184"/>
					<path id="Path-404" fill="none" stroke="#FFFFFF" d="M2435.294-11.752c0,0-2.687-5.169-5.705-5.728
						c-3.018-0.56-1.084,2.376-2.939,2.604s-0.791-9.438-8.702-10.057s-9.229,5.341-11.603,5.118
						c-2.375-0.223-3.543-6.755-10.135-6.233c-6.59,0.521-10.021,4.788-6.893,8.359c1.416,1.616,2.295,0.111,4.347,2.813
						s-0.514,1.953-1.327,5.571c-0.254,1.133-0.818-0.377-2.172-0.377s-0.117,0.792-0.848,2.904
						c-0.906,2.622-4.064-2.231-3.344-0.842c0.721,1.389,1.385,2.751,0,4.704c-1.384,1.953-5.598,3.101-8.262,1.501
						c-2.663-1.6-4.115-3.423-4.639-4.224c-0.523-0.8-4.774-2.407-3.976,0.757c0.289,1.145,1.417,0.999,1.714,2.381
						c0.298,1.383-2.215,4.047-3.537,5.36c-1.939,1.927-4.107,1.901-4.73,0.688c-0.625-1.213-0.635-6.254-3.018-7.975
						s-7.721,0.222-7.721,0.222s-7.692-7.937-13.532-2.573s6.432,6.841,6.432,6.841s1.893,0.226,0.69,0.358
						c-1.201,0.133-7.909,1.978-6.229,5.095c1.682,3.116,8.931,2.574,7.146,7.626c-1.785,5.052-8.04,2.646-3.848,8.67"/>
					<path id="Path-405" fill="none" stroke="#FFFFFF" d="M2350.313,15.077c0,0,5.045-6.209,16.619,0.3"/>
					<path id="Path-406" fill="none" stroke="#FFFFFF" d="M2353.7,20.181c0,0-13.905-0.52-13.921,4.512s1.066,1.66,1.066,1.66
						s-11.302,2.17-10.286,6.177c1.016,4.008,10.604,3.596,7.723,5.318c-2.881,1.724,0.373,7.247-2.625,9.168
						c-2.996,1.921,2.274,3.544,4.122,4.133c1.848,0.59,5.257,1.964,5.731,3.752c0.475,1.789-4.665,9.823-4.665,9.823"/>
					<path id="Path-407" fill="none" stroke="#FFFFFF" d="M2345.429,55.88c0,0-0.138,1.012-1.051,1.765
						c-0.912,0.753-7.051,5.496-10.508,5.632c-4.9,0.193-5.535,0.946-5.014,2.982c0.52,2.036,3.869,5.288,1.736,8.069
						s-3.484,0.808-3.484-1.11s-5.021-0.046-7.377,5.367c-2.355,5.414-5.957,5.395-4.385,7.957c1.574,2.562,7.832,2.719,5.639,6.25
						s-11.189,4.784-7.975,8.175c3.215,3.39,4.808,1.554,6.169,2.652c1.362,1.098,2.455,2.583,2.008,3.941
						c-0.447,1.359-2.908,1.205-5.382,0.598c-6.131-1.507-17.57,4.32-10.184,12.027c7.389,7.706,1.313,6.546,1.313,6.546
						c-0.547-0.04-1.391,0.125-1.861,0.396c0,0-4.4,1.788-1.93,5.79c2.471,4.003,2.445,4.066,1.535,4.973
						c-0.91,0.905-6.061,6.837,1.135,8.389c7.197,1.553,4.506,2.073,4.506,2.073s-2.35,0.609-1.48,3.506
						c0.869,2.897,8.635,2.945,12.146,1.652"/>
					<path id="Path-408" fill="none" stroke="#FFFFFF" d="M2314.024,154.355c0,0-1.13,6.408,4.451,6.38
						c5.582-0.028,6.938-6.19,9.484-6.501s7.448,3.786,9.226,8.596c1.778,4.81,3.202,0.875,3.202,0.875
						c0.237-0.483,0.441-0.429,0.475,0.128c0,0-0.084,9.797,7.186,7.96c7.27-1.836-1.176-0.251-0.523,2.487
						c0.447,1.876,9.363,1.668,9.363,1.668s-0.318,1.975,1.057,2.314c1.377,0.339,3.686-2.588,3.564,1.422
						c-0.047,1.57-0.709,5.392,0.388,7.687s7.793,4.831,9.292,0c0.854-2.755,0.682-2.179,1.066-1.348
						c0.386,0.831,2.092,2.582,5.174,1.348c3.084-1.234,3.087-3.738,3.087-3.738s0.091-2.456-3.188-4.789s6.264-3.811,6.264-3.811
						s1.036,2.701,3.296,1.808c2.261-0.893,2.599,1.703,6.13,0c3.531-1.702,1.754-3.497,1.754-3.497
						c-0.277-0.462-0.09-0.67,0.436-0.484c0,0,2.838,1.359,5.549,0.146c2.713-1.213,0.137-3.948,0.137-3.948
						c-0.334-0.429-0.211-0.556,0.277-0.308c0,0,4.848,3.015,4.736-1.453c-0.111-4.467,1.584-3.325,4.211-3.467
						c2.628-0.143,6.211-0.213,8.223-2.24c2.011-2.027,2.011-4.435,2.011-4.435"/>
					<path id="Path-409" fill="none" stroke="#FFFFFF" d="M2424.223,155.465c0,0,6.426-1.462,6.489-6.053
						c0.063-4.592,6.404,0,5.766,2.406s3.084,3.787,6.889,1.374c1.419-0.9,2.326-2.943,3.403-3.278s3.979,0.479,6.223,0.595"/>
					<path id="Path-410" fill="none" stroke="#FFFFFF" d="M2470.339,148.693c0,0,4.101,1.157,5.018-2.325
						c0.918-3.483-0.788-5.587-0.788-6.63s2.065,3.196,4.224,2.297c2.158-0.9,1.689-3.452,2.158-2.682
						c0.467,0.771,1.163,2.682,3.031,2.682c1.869,0-0.348-4.012,1.869-4.17c2.216-0.158,5.352,1.488,5.352,1.488"/>
					<path id="Path-411" fill="none" stroke="#FFFFFF" d="M2516.313,154.717c0,0,0,9.444,7.896,6.778
						c7.897-2.665,3.984-7.469,3.984-7.469c-0.293-0.467-0.104-0.735,0.444-0.61c0,0,3.172,0.937,5.079,0.033
						c1.906-0.903,2.434-2.222,2.434-2.222"/>
					<path id="Path-412" fill="none" stroke="#FFFFFF" d="M2532.431,164.885c0,0,7.908-2.882,9.168,1.432
						c1.26,4.313-1.672,6.462,0.114,7.97s4.897,0.067,5.784-0.468s2.083-0.767,2.083,1.562s2.438,2.015,3.138,1.107
						c0.632-0.817,0.898-2.394,4.211-1.978c3.311,0.416,6.065,2.633,7.078,2.957c1.43,0.458,0.434,1.779,2.957,1.601
						s1.334,4.354,6.049,2.84c4.715-1.513,0.703-4.466,1.664-4.729c0.961-0.263,5.567,2.687,6.441,0.444s-2.071-4.027-0.533-5.168
						c1.539-1.142,2.111-3.803,4.847-3.54c1.358,0.13,5.184,1.861,6.982,0.711s0.316-4.336,1.507-6.853
						c1.189-2.516,3.939-2.303,5.514-1.778c1.572,0.524,5.835,2.014,5.311,5.322c-0.525,3.309,2.754,3.397,5.443,1.698
						c2.689-1.698,2.025-5.436,3.161-7.758s9.556-7.71,10.431-7.975"/>
					<path id="Path-413" fill="none" stroke="#FFFFFF" d="M2509.762,82.461c0,0,6.18-4.967,8.514-1.399
						c2.333,3.567-1.077,6.188,1.005,8.174c2.084,1.984,4.836-0.141,6.028,1.144s1.891,4.167,4.437,4.524
						c2.547,0.358,2.019-2.173,2.019-2.173c-0.03-0.542,0.206-0.621,0.544-0.175c0,0,4.348,6.37,7.734,4.594
						c3.386-1.776,7.243-0.182,7.08-2.802c-0.163-2.621,0.697-2.03,2.39-1.96c1.692,0.069,6.45,0.745,9.061-2.741
						c2.61-3.485,1.313-5.08,1.313-5.08"/>
					<path id="Path-414" fill="none" stroke="#FFFFFF" d="M2519.212,79.077c0,0,4.938-0.405,6.686-2.842
						c1.746-2.437,7.221,0.014,9.355-0.475s1.908-2.458,3.461-1.779c1.553,0.68,12.947,1.84,10.375,6.007s4.878,2.174,6.625,2.174
						c1.746-0.001,0.72,3.961,6.407,1.471"/>
					<path id="Path-415" fill="none" stroke="#FFFFFF" d="M2569.929,85.839c0,0,4.635,0.131,5.791,2.51
						c1.155,2.38-1.402,3.801-1.402,6.055c0,1.454,2.223,0.384,2.658,0.826c0,0,0.44,2.359,3.221,3.155
						c2.779,0.797,8.699-1.207,8.699-1.207"/>
					<path id="Path-416" fill="none" stroke="#FFFFFF" d="M2572.103,84.571c0,0,5.203-3.092,8.835-1.546s5.579,7.966,7.924,8.305
						s0.79,1.745,0.79,1.745s-1.836,1.397,0,4.764c1.837,3.365,6.023,2.407,6.023,2.407"/>
					<path id="Path-417" fill="none" stroke="#FFFFFF" d="M2593.501,115.744c0,0,16.366-1.122,15.145-5.489
						c-1.221-4.367,10.938-9.275,7.866-12.688s4.258,3.108,9.587,2.732c5.329-0.377,8.57-2.211,11.969-6.135
						c1.412-1.631,2.217,0,4.758,0s5.193-2.377,5.193-2.377"/>
					<path id="Path-418" fill="none" stroke="#FFFFFF" d="M2607.354,112.877c0,0,3.965,6.831,10.998,5.16
						c7.034-1.672,7.009-5.385,12.32-5.16c5.313,0.226,7.689,3.623,11.35,3.088c3.662-0.535,6.275-0.083,6.207-1.972
						c-0.07-1.889-5.521-5.542-5.084-7.452c0.438-1.909-3.283-7.755-8.548-6.71"/>
					<path id="Path-419" fill="none" stroke="#FFFFFF" d="M2407.257,44.997c0,0,10.098-7.477,19.766-0.448
						c3.652,2.655,3.846,4.021,5.78,2.827c1.935-1.195,1.235-1.709,0.713-2.379s-0.716-3.205,3.425-0.677
						c4.142,2.528,8.971,4.476,11.026,3.678c2.055-0.798,1.88-3.14,1.88-3.14s3.922,1.62,8.022,0.139
						c1.66-0.6,4.032-0.35,5.235-0.963s1.586-2.354,0.469-3.373c-1.879-1.713,4.145,0.98,4.564-1.748s0.584-5.341-5.033-6.892"/>
					<path id="Path-420" fill="none" stroke="#FFFFFF" d="M2456.982,28.07c0,0,10.126-2.456,8.151,4.449"/>
					<path id="Path-421" fill="none" stroke="#FFFFFF" d="M2422.801,39.677c0,0,1.251-7.39,9.769-5.896
						c8.518,1.495,7.728-6.357,7.728-6.357c-0.007-0.554,0.438-1.005,0.987-1.042c0,0,4.152,0.297,6.157-3.884
						c0.758-1.58,0.795,1.269,4.384,1.676c3.59,0.407,5.348-0.604,5.348-0.604"/>
					<path id="Path-422" fill="none" stroke="#FFFFFF" d="M2359.373,112.168c0,0,13.892-2.445,12.772,5.974
						c-0.133,0.997-0.133,0.825-0.133,0.825s3.863-3.773,10.576-2.364"/>
					<path id="Path-423" fill="none" stroke="#FFFFFF" d="M2379.071,114.219c0,0,2.094-3.83,6.837-2.709
						c4.743,1.119,5.777,3.049,7.753,4.161"/>
					<path id="Path-424" fill="none" stroke="#FFFFFF" d="M2390.382,112.818c0,0,0.876-2.109,5.113-0.821
						c4.236,1.288,9.476-2.753,9.476-2.753s10.964-1.786,3.442-7.146c-7.523-5.361-5.608,0.113-6.754,2.394
						c-1.146,2.281-7.011,2.589-4.803-0.804c2.209-3.392-5.742,4.853-6.475,0c-0.732-4.852-0.381-5.296-3.879-6.117
						c-3.498-0.82-3.938-0.442-4.002-1.705s-1.211,3.681-4.646,1.705c-3.435-1.975-5.488-8.714-5.488-8.714
						s-1.262-2.449-4.926-1.273c-3.665,1.175-0.839,2.461-0.839,2.461c0.463,0.295,0.468,0.785-0.005,1.087
						c0,0-3.207,2.31-5.037,1.757c-1.831-0.553,2.613,2.188,2.613,4.683c0,2.495-1.947,5.146-3.526,4.072
						c-0.69-0.47,2.514,2.272,1.257,5.583c-1.257,3.312-7.926,4.771-7.926,4.771"/>
				</g>
			</g>
		</g>
	</g>
	<g>
		<rect x="2295.5" y="294.786" fill="#FFFFFF" width="217.668" height="1"/>
	</g>
	<g>
		<rect x="2535.824" y="294.786" fill="#FFFFFF" width="161.578" height="1"/>
	</g>
	<rect x="2297.689" y="-55.773" fill="none" width="1100" height="600"/>
</g>
</svg>
