<?xml version="1.0" encoding="utf-8"?>
<!-- Generator: Adobe Illustrator 16.0.0, SVG Export Plug-In . SVG Version: 6.00 Build 0)  -->
<!DOCTYPE svg PUBLIC "-//W3C//DTD SVG 1.1//EN" "http://www.w3.org/Graphics/SVG/1.1/DTD/svg11.dtd">
<svg version="1.1" id="Layer_1" xmlns="http://www.w3.org/2000/svg" xmlns:xlink="http://www.w3.org/1999/xlink" x="0px" y="0px"
	 width="1110px" height="600px" viewBox="3439.5 -56.5 1110 600" enable-background="new 3439.5 -56.5 1110 600"
	 xml:space="preserve">
<title>dom-3-1110@3x</title>
<desc>Created with Sketch.</desc>
<g>
	<g id="Page-1_2_">
		<g id="dom-4-1110">
			<g id="home4" transform="translate(30.000000, 115.000000)">
				<g id="дом-4" transform="translate(243.615251, 0.000000)">
					<path id="Combined-Shape" fill="none" stroke="#FFFFFF" d="M4107.582,246.493l56.62-3.034l-0.506-230.825l-336.532-61.596
						l-26.429,7.204 M3983.869,36.688V216.45l-158.859,5.27 M3809.596,222.23l-20.093,0.667 M3774.115,223.407l-20.93,0.694V3.722
						l20.793-5.604 M3788.991-5.928l38.323-10.328l239.748,37.311l0.856,197.236l32.133,2.365l-0.164,23.338l-88.735,6.134
						l-20.695-4.747 M4067.915,221.579l-405.54,18.294L3450.87,216.45v-18.021 M3450.87,17.397v-4.156l-4.254,1.095
						 M3445.491,202.605l-0.242,40.433l217.126,32.792l328.082-21.615v-9.644 M4100.052,220.656l7.33,0.269v30.261l-95.893,7.096
						l-21.032-4.066 M4067.927,218.504l-0.012,12.478l22.123,1.863v8.714l9.85,1.9 M3753.442,3.988l20.648,2.935 M3789.021,9.044
						l20.5,2.914 M3824.472,14.082l159.381,22.649l83.394-15.446 M3451.066,216.237l13.896-0.356 M3499.17,215.002l80.857-2.078
						V28.413 M3579.906,212.925l68.683,4.428 M3664.063,218.35l29.062,1.873 M3708.734,221.229l25.314,1.633 M3749.521,223.859
						l3.713,0.239 M3445.794,232.706l216.023,28.706l339.857-18.947 M4107.697,236.305l56.785-2.728 M4163.773,36.436l59.56,10.075
						v184.026l-59.049,3.598 M4164.124,79.366l41.532,4.832v115.693l-41.532,1.087 M4184.458,86.152l16.501,1.754v108.216
						l-16.501,0.363V86.152z M4164.221,196.939l-0.355-113.091l18,1.956l0.315,110.771L4164.221,196.939z M3830.154,43.405
						l107.337,11.428v151.578l-107.337,2.047V43.405z M3833.077,49.801l31.159,3.318v149.284l-31.159,0.605V49.801z M3867.62,53.495
						l31.788,3.296v144.956l-31.788,0.591V53.495z M3903.071,57.275l28.959,3.093v140.728l-28.959,0.579V57.275z M3995.411,216.721
						l-0.938-145.481l61.518-6.033v155.092 M3999.196,75.311l52.425-5.166l-0.119,16.83l-52.209,3.845L3999.196,75.311z
						 M4000.072,211.294l15.976,0.378V97.114l-16.707,0.869L4000.072,211.294z M4021.157,211.837V96.848l30.256-1.57l-0.961,117.887
						L4021.157,211.837z M3983.846,216.412l84.198,4.771L3983.846,216.412z M3591.97,213.641V69.004l56.677-11.83 M3663.777,54.015
						l29.378-6.132 M3708.125,44.759l21.665-4.521v169.055l-21.166-0.951 M3693.127,207.644l-29.028-1.305 M3648.644,205.645
						l-31.716-1.426v11.053 M3598.009,101.681l14.271-2.292v110.435l-14.271-0.987V101.681z M3598.009,72.26l15.017-2.825V95.26
						l-15.017,2.248V72.26z M3727.362,47.122l-19.018,3.703 M3693.188,53.777l-9.34,1.818v143.334l9.34,0.283 M3708.532,199.677
						l18.366,0.557l0.464-153.111 M3680.06,56.372l-16.271,3.153 M3648.622,62.465l-12.043,2.334v132.605l12.064,0.379
						 M3664.123,198.268l15.426,0.484l0.511-142.381 M3634.629,65.206l-17.362,3.323l-0.392,128.278l17.595,0.527L3634.629,65.206z
						 M3450.89,13.283l212.869-86.921v16.178l-209.107,80.547 M3664.091-73.862l11.898,1.43v16.073l-12.53-0.963 M3710.516-65.907
						l10.579,1.409v15.281l-10.722-0.601 M3751.278-57.628l10.197,1.563v13.985l-10.197-0.465 M3790.366-49.49l10.197,0.998v12.774
						l-10.197-0.465 M3464.934,21.134l34.192-12.867v210.076l-34.192-1.729v-36.311 M3464.934,137.551v-5.752 M3464.934,31.13
						v-9.996l0,0 M4001.116,235.178l66.811-4.197 M4001.675,235.865l12.327,2.547l76.036-5.093 M4001.555,243.994l12.447,2.499
						l76.213-4.935 M4011.489,258.281v-8.153l2.513-3.068l0.268-8.647 M3990.07,244.998l11.484-1.004v-9.086"/>
					<path id="Combined-Shape_1_" fill="none" stroke="#FFFFFF" d="M3827.64-16.209V-49.05V-16.209z M3648.668-49.83l14.833-4.889
						l0.546,286.307h-15.379V-49.83z M3693.209-40.909l14.834-4.719l0.545,276.309h-15.379V-40.909z M3734.115-34.686l14.833-4.579
						l0.546,268.128h-15.379V-34.686z M3774.111-28.446l14.834-4.456l0.545,260.91h-15.379V-28.446z M3809.563-8.803l14.834-4.099
						l0.545,240.001h-15.379V-8.803z M3675.697-72.41l148.896,27.02L3675.697-72.41z M3676.074-66.91l31.027,5.762L3676.074-66.91z
						 M3721.062-58.711l27.95,5.059L3721.062-58.711z M3761.322-51.425l26.907,4.883L3761.322-51.425z M3800.468-44.311
						l23.389,4.228L3800.468-44.311z M3675.962-57.731l30.285,5.374L3675.962-57.731z M3721.075-49.634l26.357,4.767
						L3721.075-49.634z M3761.322-42.334l24.736,4.224L3761.322-42.334z M3800.468-35.22l23.389,4.228L3800.468-35.22z"/>
					<g id="Group-2" transform="translate(15.453206, 7.272727)">
						<path id="Path-2_2_" fill="none" stroke="#FFFFFF" d="M3444.829,17.063l4.608-1.661"/>
						<path id="Path-8_1_" fill="none" stroke="#FFFFFF" d="M3483.756,2.551l149.388-55.862"/>
						<path id="Path-9_1_" fill="none" stroke="#FFFFFF" d="M3648.169-58.919l12.572-4.691"/>
						<path id="Path-13_6_" fill="none" stroke="#FFFFFF" d="M3483.644,16.473l149.67-52.098"/>
						<polyline id="Path-14_2_" fill="none" stroke="#FFFFFF" points="3647.992,-40.771 3694.699,-56.974 3694.699,-73.177 
							3647.992,-55.911 						"/>
						<path id="Path-15_2_" fill="none" stroke="#FFFFFF" d="M3633.267-50.518L3483.652,4.509"/>
						<polyline id="Path-16_1_" fill="none" stroke="#FFFFFF" points="3483.962,16.423 3487.823,16.756 3633.248,-32.202 						"/>
						<path id="Path-17_1_" fill="none" stroke="#FFFFFF" d="M3648.051-36.945l29.715-9.979"/>
						<path id="Path-18_1_" fill="none" stroke="#FFFFFF" d="M3692.467-51.861l13.464-4.574"/>
						<polyline id="Path-19_1_" fill="none" stroke="#FFFFFF" points="3633.247,-30.102 3503.972,13.444 3503.972,24.067 
							3509.872,24.067 3633.247,-14.238 						"/>
						<path id="Path-20_1_" fill="none" stroke="#FFFFFF" d="M3504.31,23.997l129.089-41.051"/>
						<path id="Path-22_1_" fill="none" stroke="#FFFFFF" d="M3648.067-35.124l29.711-10.036"/>
						<polyline id="Path-23_2_" fill="none" stroke="#FFFFFF" points="3692.811,-50.262 3735.631,-64.664 3735.631,-49.711 
							3692.681,-35.987 						"/>
						<path id="Path-24_2_" fill="none" stroke="#FFFFFF" d="M3648.217-21.778l29.588-9.46"/>
						<path id="Path-25_2_" fill="none" stroke="#FFFFFF" d="M3648.06-18.821l29.876-9.287"/>
						<path id="Path-26_1_" fill="none" stroke="#FFFFFF" d="M3692.325-32.575l26.232-8.136"/>
						<path id="Path-27_1_" fill="none" stroke="#FFFFFF" d="M3733.459-45.34l12.7-3.97"/>
						<polyline id="Path-28_2_" fill="none" stroke="#FFFFFF" points="3536.569,15.995 3536.569,26.743 3543.688,26.743 
							3633.101,1.108 						"/>
						<path id="Path-29_1_" fill="none" stroke="#FFFFFF" d="M3537.177,26.727l96.061-28.346"/>
						<path id="Path-30_1_" fill="none" stroke="#FFFFFF" d="M3648.067-5.951l29.846-8.83"/>
						<path id="Path-31_1_" fill="none" stroke="#FFFFFF" d="M3648.063-3.234l29.907-8.728"/>
						<path id="Path-32_2_" fill="none" stroke="#FFFFFF" d="M3692.577-19.101l26.137-7.713"/>
						<path id="Path-32_1_" fill="none" stroke="#FFFFFF" d="M3692.418-16.082l26.41-7.645"/>
						<polyline id="Path-33_1_" fill="none" stroke="#FFFFFF" points="3733.245,-31.118 3774.74,-43.378 3774.74,-56.688 
							3746.453,-49.705 						"/>
						<path id="Path-34_1_" fill="none" stroke="#FFFFFF" d="M3733.411-27.969l25.192-7.269"/>
						<path id="Path-35_3_" fill="none" stroke="#FFFFFF" d="M3773.396-39.5l11.854-3.471"/>
					</g>
				</g>
				<path id="Combined-Shape_2_" fill="none" stroke="#FFFFFF" d="M3577.703,235.682c0.735-7.307,1.009-12.346,0.819-15.116
					c-0.381-5.619-2.553-7.716-2.553-12.611c0-8.534,1.029-12.589-0.93-18.869c-1.306-4.188-4.297-7.771-8.973-10.752
					c-4.491-1.866-7.639-3.432-9.441-4.693c-2.705-1.894-9.598-8.39-12.16-9.591c-2.563-1.2-3.287-2.396-5.198-2.085
					c-1.196,0.194-8.153,4.092-14.22,7.717c-3.623,2.165-7.412,4.867-8.125,4.867 M3597.479,243.247
					c-0.217-10.788-0.547-17.291-0.991-19.507c-0.666-3.323-1.903-3.181-2.764-4.989c-0.574-1.206-0.574-11.131,0-29.776
					c3.914-10.356,7.796-15.823,11.647-16.398c5.775-0.863,15.791-0.442,18.109,0c0.624,0.119,3.771,2.703,7.395,5.735
					c3.869,3.239,8.125,6.463,10.035,7.894 M3607.392,154.65c-2.784,3.561-5.31,5.876-7.576,6.945
					c-3.399,1.604-10.082,4.563-12.259,11.063c-2.177,6.5-0.075,8.333-2.748,6.929s-10.114-5.64-12.618-9.876
					s-4.602-4.497-6.266-9.764c-1.664-5.266-2.996-15.934-1.444-22.829 M3616.911,151.988c-2.768,7.146-5.831,11.119-9.19,11.917
					s-1.299,1.197,6.181,1.197c6.074-0.423,9.412-0.276,10.016,0.439c0.603,0.716,1.79,1.686,3.563,2.911 M3561.111,134.011
					c-0.69,5.759-1.341,10.2-1.952,13.323c-0.917,4.686,4.203,16.344,4.319,17.634c0.116,1.289-12.659-5.063-16.436-11.622
					c-2.517-4.373-4.263-9.254-5.237-14.642 M3531.112,143.746c6.047,7.993,8.504,12.57,7.371,13.73
					c-1.698,1.741-11.264,2.693-21.568,14.964 M3598.472,87.129c-3.832,5.855-5.33,9.544-4.498,11.066
					c1.25,2.282,5.41-0.944,6.014-0.584c0.605,0.36-2.044,1.905-1.021,3.559c1.021,1.653,6.432-0.71,5.255,0.472
					c-1.177,1.181-3.435,6.703-0.532,8.922c1.934,1.479,3.77,0.5,5.508-2.938c1.018,1.917,1.955,2.896,2.814,2.938
					c1.287,0.062,1.742-1.09,2.691-2.938c0.949-1.848-1.305,5.218,1.525,4.667c2.829-0.552,7.334-7.893,6.479-6.28
					c-0.855,1.613-4.748,15.563-1.176,18.039c2.383,1.649,5.188,0.658,8.416-2.976c1.082,1.983,2.123,2.976,3.123,2.976
					c1.502,0,3.975-4.197,3.944-2.976c-0.029,1.222-0.095,4.148,2.629,2.976s1.292,2.998,4.007,4.8
					c2.714,1.803,4.814,0.915,5.42-1.241c0.605-2.157-1.75-5.452-0.869-5.8c0.883-0.349,1.917,4.136,4.798,4.25
					c2.881,0.115,3.235-4.984,3.317-4.984s1.287,7.231,4.57,7.134c3.285-0.098,4.006-3.188,4.33-9.724
					c0.322-6.535,1.846,0.203,4.699,0s1.893-5.508,2.215-4.887c0.322,0.622,4.242,7.063,7.396,5.376
					c2.102-1.124,2.307-3.928,0.613-8.411c2.211,0.478,3.589,0.478,4.133,0c2.077-1.822,0.33-5.021-1.01-6.135
					c-1.318-1.095,7.847,6.352,11.104,3.571s-1.576-6.589-3.597-8.7c-2.021-2.111,4.794,1.766,6.579-0.686s-4.729-6.619-3.453-6.146
					c1.274,0.473,6.6,4.363,8.436-1.033c1.837-5.396-6.498-8.012-5.941-7.893c0.557,0.118,5.561,0.498,5.677-2.108
					c0.116-2.605-5.502-5.024-3.894-4.553c1.609,0.471,9.74,0.647,10.855-3.476s-6.936-3.617-5.306-4.227s8.478-3.764,6.44-6.111
					s-6.44,0.849-4.041-0.809c2.398-1.658,4.057-3.7,2.906-4.88s-3.826-1.78-7.341,0.331c-3.515,2.11,6.569-3.397,6.011-6.99
					c-0.558-3.592-7.586-1.074-6.011-2.026s5.88-5.44,2.957-7.396s-10.278,3.584-10.749,4.118s5.478-5.723,1.176-6.314
					c-4.302-0.591-6.65,3.381-5.244,1.471c1.407-1.91,5.244-5.848,3.697-7.558c-1.031-1.141-2.836-1.141-5.418,0 M3485.939,130.326
					c-2.91,1.965-4.058,3.9-3.444,5.807c0.922,2.858,3.75,1.779,5.146,1.779s-3.84,2.677-2.565,4.98
					c1.274,2.303,3.907,1.74,5.395,1.637c1.487-0.104-2.692,1.624-2.229,3.034c0.464,1.409,7.429,0.493,5.593,0.993
					s-6.124,1.806-5.129,3.844c0.994,2.038,6.461-0.202,6.051,0.276c-0.836,0.976-2.684,3.463-1.296,4.641
					c2.067,1.756,3.61-0.796,4.116-1.308c0.506-0.513-1.463,4.252,1.281,4.128c1.829-0.083,2.98-1.023,3.455-2.82 M3512.874,155.635
					c-2.601,0.482-3.934,1.226-3.997,2.229c-0.097,1.505,5.829,3.849,4.406,3.224s-3.873-0.738-3.873,1.088s2.744,2.983,1.552,2.474
					c-1.193-0.511-6.34-1.268-5.83,1.166c0.508,2.433,6.281,3.6,4.278,3.083s-4.278,1.085-3.474,2.718
					c0.537,1.088,1.773,1.565,3.712,1.434c-1.47,1.791-1.609,3.04-0.42,3.749c1.989,1.186,3.839-1.374,3.839-0.773
					s1.314,2.095,3.134,0.773c1.458-1.06,0.588-3.838,0.588-5.604 M3514.13,177.373c-0.986,1.536-1.041,2.629-0.165,3.278
					c1.314,0.974,3.798-1.155,3.085,0c-0.712,1.154-2.849,3.102-1.237,4.334c1.61,1.232,4.556-1.211,5.021-1.966
					c0.467-0.755-0.552,2.186,0.999,2.451c1.034,0.177,2.119-1.164,3.257-4.022c-0.835,3.949-0.363,5.825,1.414,5.628
					c1.776-0.197,2.769-1.393,2.976-3.585 M3491.177,153.263c-3.063,1.477-4.526,2.817-4.39,4.023
					c0.204,1.81,4.883,1.907,4.153,2.005c-0.729,0.098-4.84,1.847-5.24,3.92c-0.266,1.382,0.648,2.385,2.746,3.007
					c-3.568,2.696-4.857,4.784-3.867,6.265c1.485,2.22,4.531,0.933,6.018-0.398c1.487-1.331-8.837,6.703-6.018,8.586
					c2.82,1.883,6.541-1.043,5.352,0s-4.303,4.133-2.475,6.04c1.217,1.271,3.066,0.764,5.545-1.522
					c-0.609,1.925-0.288,2.915,0.964,2.971c1.878,0.084,3.575-0.762,5.581-3.505c2.005-2.743-2.252,4.964,0.857,6.056
					c3.109,1.091,5.797-2.797,6.152-3.631c0.355-0.835-1.771,4.969,1.622,5.666s4.616-3.505,5.376-4.586
					c0.76-1.08-0.666,2.099,0.627,2.87c1.291,0.771,3.902-2.262,2.999-1.47s-4.304,9.278,0.497,8.914
					c4.8-0.365,7.238-5.011,7.475-6.673c0.235-1.662,0.543,2.712,2.21,2.339s3.144-2.077,3.499-3.43
					c0.355-1.354,0.595,2.468,2.391,2.515c1.795,0.048,3.088-3.762,3.788-4.532c0.438-0.483-0.007,1.977,0.7,2.646
					c0.709,0.671,1.471,0.561,2.065-0.31c1.599-2.337-2.021,7.868,3.343,4.548c5.363-3.321,3.376-8.281,4.013-4.867
					c0.638,3.414,2.719,3.636,3.857,1.865c1.14-1.771,0.146-5.72,0.632-4.416c0.486,1.305,2.871,3.018,3.916,1.714
					c0.696-0.87,1.002-2.054,0.916-3.551c1.74,0.854,2.871,1.027,3.393,0.522c0.78-0.759-0.915-5.444-0.237-4.044
					c0.679,1.401,5.046,2.142,5.973-0.302c0.618-1.629,0.484-3.223-0.399-4.782 M3656.857,52.804
					c-5.131-4.968-7.438-8.378-6.919-10.23c0.777-2.778,4.091-3.956,5.828-1.145c1.736,2.813-3.268-4.834-2.776-6.293
					c0.327-0.974,1.985-1.141,4.973-0.5c-0.864-3.97-0.919-6.481-0.166-7.533c0.753-1.053,2.606-1.053,5.56,0
					c-1.457-7.477-0.97-11.008,1.461-10.594c3.646,0.621,5.369,6.063,5.541,7.155c0.17,1.093-1.973-9.842,1.52-10.947
					c2.328-0.736,4.119-0.363,5.375,1.119c2.071-3.932,4.016-5.422,5.835-4.473c2.729,1.424,1.429,4.816,1.523,6.486
					c0.094,1.671,3.224-2.802,4.724-1.786c1.502,1.016,1.946,3,1.43,5.949s3.088-4.352,5.438-2.492
					c1.566,1.239,2.213,4.05,1.939,8.434c2.281-2.427,4.003-3.189,5.164-2.29c1.16,0.899,1.604,4.061,1.33,9.484
					c1.214-2.124,2.509-2.789,3.885-1.995c2.064,1.19-0.676,9.218,0.831,4.936s6.346-9.901,9.546-7.15
					c3.199,2.751-0.705,10.402-3.652,13.635c-2.945,3.233,4.066-3.938,6.285-2.58c1.479,0.904,1.285,3.03-0.582,6.375
					c2.381-1.227,3.998-1.339,4.854-0.338c1.283,1.502,1.558,5.664-3.693,9.593c-5.25,3.929,3.584-1.814,4.58-1.154
					s0.922,2.457,0.922,3.079c0,0.621,6.723-6.157,9.197-3.079c2.474,3.079-1.045,6.338-2.918,7.215s5.59-2.299,6.006,0.877
					s-4.426,7.705-8.355,10.047c-3.93,2.341,7.318-4.073,9.354-2.668c2.036,1.406,0.741,4.889-2.541,5.843s4.213-0.128,4.196,1.79
					c-0.016,1.918-1.604,4.343-4.196,4.941c-2.592,0.6,4.697,1.351,3.662,4.87c-0.69,2.347-4.97,3.355-12.837,3.025
					c4.973,0.651,6.637,2.013,4.994,4.084c-2.464,3.106-11.211,2.488-7.381,2.522c3.829,0.033,8.291,2.828,9.536,7.323
					s-13.208,0.427-10.122,1.856c3.085,1.429,4.541,3.8,2.973,5.789c-1.568,1.99-9.183-1.014-6.806,0
					c2.377,1.015,6.458,5.18,4.315,8.282c-1.428,2.068-5.359,1.244-11.793-2.473c1.691,2.589,1.808,4.339,0.35,5.251
					c-2.186,1.368-6.653-1.891-4.387-0.132c2.266,1.759,5.989,7.546,2.475,9.567c-3.514,2.021-8.418-4.327-9.141-5.224
					s1.014,2.847-0.887,3.857c-1.902,1.011-4.604,0-5.164-1.011c-0.374-0.674-1.021-0.337-1.939,1.011 M3637.886,152.942
					c-2.747-0.171-3.801,0.404-3.162,1.727c0.96,1.983-4.395,0.062-4.611,1.983c-0.216,1.922,6.508,2.925,3.887,2.927
					c-2.621,0.003-3.887,0.677-3.887,1.701c0,0.682,0.688,1.488,2.064,2.418c-4.834,3.323-6.636,5.384-5.404,6.183
					c1.846,1.197,3.39-0.742,4.219,0c0.828,0.741-1.757,2.138-0.879,2.99c0.879,0.854,3.887,2.233,3.887,1.912s0.51,0.512,0,1.563
					c-0.289,0.599,2.228,3.154,3.643,1.952c1.414-1.201-0.581,2.266,0.948,3.248c1.53,0.981,2.847-2.398,3.038-0.867
					c0.19,1.531-1.667,3.066-1.027,4.929c0.639,1.863,2.704,1.921,4.545,0.961c1.842-0.961-1.66,2.845,0,3.058
					c1.662,0.213,4.758-1.691,6.833-3.058c2.076-1.366-4.61,3.271-3.545,5.069c0.71,1.199,1.893,1.417,3.545,0.655
					c-2.065,4.801-2.065,7.12,0,6.96c3.098-0.241,7.094-6.735,5.355-3.094c-1.739,3.642-3.504,10.063,1.683,10.646
					c5.186,0.582,9.027-12.578,9.457-15.46c0.431-2.883-1.209,9.323,3.169,9.952c4.378,0.63,4.386-3.771,4.566-5.138
					s-0.084,6.014,3.05,6.81c3.135,0.796,4.047-2.409,4.261-5.863c0.214-3.455,0.626,6.146,4.138,5.863
					c2.34-0.188,3.115-2.144,2.322-5.863c1.255,1.496,2.613,2.028,4.075,1.597c2.192-0.648,2.122-5.229,0.673-6.836
					c-1.449-1.607,3.969,4.246,4.968,1.438c0.999-2.81-1.298-9.605-5.864-11.359 M3664.237,124.207
					c-0.252-2.177,0.029-3.406,0.846-3.69c1.223-0.426,3.235-0.758,3.867,2.678c0.631,3.435,1.008,5.252,0.705,3.37
					s1.682-6.737,3.818-4.943s2.08,3.905,2.916,6.513c0.836,2.606,0.631-3.399,2.39-2.671s3.048,7.184,2.517,3.472
					s0.48-9.82,3.695-9.087s4.197,9.499,3.494,12.075s2.311-4.217,4.115-4.217s4.412,1.858,3.444,4.217s1.66-0.417,2.522,1.122
					c0.862,1.538,0.068,4.005,0,4.471s1.705-2.541,2.64-1.519s1.472,2.511,1.177,3.704c-0.294,1.193,4.174-3.862,6.018-2.445
					c1.229,0.944,1.115,3.348-0.342,7.211c3.002-2.096,4.494-1.971,4.479,0.374c-0.023,3.516-5.621,7.637-6.469,8.564
					c-0.85,0.929,6.5-4.738,7.873-2.445c1.374,2.293-1.296,4.528-1.834,4.813c-0.539,0.284,3.34-1.084,3.554,1.738
					s-11.576,7.918-8.162,7.03c3.415-0.887,12.493-2.31,12.405,2.436c-0.089,4.745-5.093,4.697-9.256,5.303
					c-4.162,0.606,6.248,3.083,4.674,6.358c-1.051,2.184-4.746,2.391-11.087,0.621c1.759,2.471,2.014,3.966,0.764,4.485
					c-1.25,0.521-3.808,0.824-7.675,0.911 M3596.093,183.62c1.037,2.56,2.293,2.91,3.766,1.052c1.475-1.859,2.199-2.122,2.178-0.789
					c0.336,1.864,1.066,2.628,2.191,2.291c1.688-0.505,1.594-0.721,2.932-2.554s-1.154,4.312,0.755,4.86
					c1.909,0.55,5.612-2.024,7.036-3.809c1.425-1.785-2.668,5.258,0.373,5.096c3.04-0.162,4.842-3.909,6.244-4.099
					c1.402-0.19-1.273,3.26,0.508,3.184c1.187-0.051,2.252-0.275,3.194-0.675c-2.15,6.51-1.828,9.386,0.967,8.63
					c4.193-1.135,5.921-5.572,6.311-6.949c0.39-1.378,0.911,2.794,2.603,2.333c1.69-0.461,2.258-1.833,2.68-3.116
					s-0.586,3.36,1.722,2.866c1.538-0.33,2.854-1.824,3.949-4.481 M3556.626,113.688c-3.803,6.887-4.855,10.782-3.158,11.688
					s3.361,0.225,4.99-2.041c-0.744,2.319-0.744,3.577,0,3.771c0.745,0.194,1.934,0.194,3.566,0
					c-1.496,6.657-1.199,10.033,0.891,10.127c2.091,0.094,3.59-1.403,4.498-4.49c0.82,2.211,1.846,3.251,3.076,3.12
					c1.846-0.195,3.131-1.751,3.303-3.12c0.171-1.369-0.43,4.751,1.706,5.252c2.137,0.5,4.53-1.198,6.296-5.717
					c1.766-4.52-4.16,15.607,0,16.745s5.262-1.058,6.729-3.545c1.465-2.487,0.144,3.843,2.693,4.114s3.608-3.032,4.084-4.114
					c0.475-1.082,0.223,3.68,1.89,4.114c1.667,0.436,3.628-6.947,3.056-2.584s1.438,10.389,5.425,9.012
					c3.988-1.377,2.126-8.218,1.46-10.542c-0.668-2.324,2.986,5.22,4.976,5.22s1.865-3.07,2.204-3.689
					c0.34-0.619,2.51,8.833,7.09,6.871c4.58-1.963,3.334-10.474,2.405-12.816c-0.929-2.342,2.945,3.961,5.419,3.001
					c2.475-0.96,1.018-3.879,0.531-4.993c-0.486-1.115,6.781,10.507,10.657,5.325s-4.836-10.658-2.489-9.29
					c2.348,1.368,6.281,0.63,4.443-2.363c-1.838-2.992,4.189,2.683,6.082,1.585c1.26-0.731,1.144-2.337-0.351-4.816
					 M3496.882,139.816c-0.523,2.844-0.055,4.083,1.406,3.718c2.191-0.546,3.224-3.294,3.42-4.41
					c0.196-1.115-0.305,3.864,1.321,3.864s1.884-3.852,2.101-2.004c0.219,1.848,2.192,9.929,5.822,9.19
					c3.629-0.739,3.637-6.109,3.022-7.921s2.896,5.322,5.53,4.256c2.635-1.066,1.92-3.523,1.407-4.863
					c-0.512-1.34,6.362,7.282,9.374,4.339c3.012-2.944,0.752-9.417,0-10.414s3.293,3.563,4.82,2.438
					c1.529-1.125,1.602-2.018,1.117-4.71c-0.483-2.691,4.112,8.024,8.146,5.344c2.689-1.787,2.689-4.466,0-8.035
					c3.212-0.819,4.304-2.039,3.274-3.659 M3578.878,53.916c-3.42-2.604-4.502-4.646-3.248-6.127
					c1.881-2.222,7.418-1.717,9.051-0.858s-2.396-4.85-1.313-6.736s3.083-1.74,5.197-0.821c2.115,0.919-3.514-7.185,0-8.879
					c3.514-1.695,5.866-1.05,7.652,2.116c1.787,3.166-2.127-6.762,1.787-8.738c3.914-1.978,5.084,1.107,4.813,2.929
					c-0.271,1.822,1.569-3.675,4.261-3.675c2.689,0,3.572,2.317,3.216,4.109s2.11-2.476,4.013-1.148
					c1.268,0.885,1.739,2.024,1.414,3.417 M3495.925,57.688c1.4-2.077,2.593-2.737,3.576-1.981c1.476,1.134,0.717,5.369-0.617,7.271
					s3.021-4.143,4.904-3.794s1.721,2.068,0.851,3.794s2.312-3.465,4.806-1.842c2.496,1.624-2.916,6.121-2.418,5.828
					s6.102,0,5.48,2.686c-0.414,1.79-1.977,2.636-4.688,2.537 M3549.781,87.808c-2.474,1.518-3.29,2.794-2.448,3.831
					c1.262,1.555,3.95-0.291,6.105-0.521s-2.543,2.223-2.908,3.747c-0.366,1.524,1.876,2.352,3.627,1.094
					c1.752-1.258-3.627,4.111-0.719,5.498c2.909,1.387,5.263-3.269,6.164-5.498c0.9-2.229-2.426,5.771-0.58,6.961
					c1.847,1.189,3.146-1.058,4.38-3.909c1.235-2.851-2.349,7.748,0.61,8.38s3.049-4.357,3.188-5.934
					c0.14-1.577,0.899,4.47,3.011,4.271s1.216-4.133,1.132-4.99s0.813,2.153,2.639,1.24s-0.753-4.068,0-2.967
					s5.235,3.141,5.932,0.869c0.464-1.514-0.333-3.24-2.391-5.179 M3524.417,248.41h25.834v-0.909h-25.834V248.41z
					 M3549.946,247.923c3.724,0.537,8.705,4.188,6.152,0.471c-1.701-2.478-3.1-3.943-4.192-4.398
					c2.344-0.256,4.262,0.389,5.753,1.932c2.238,2.314,4.248,5.77,2.596,1.458c-1.101-2.873-3.883-5.078-8.349-6.614
					c2.403-0.396,4.091-0.28,5.063,0.348c1.46,0.94,4.721,4.015,6.359,5.697c1.697,1.741-1.213-2.215-8.729-11.87
					c5.316,2.019,8.768,4.076,10.355,6.173c1.587,2.097-1.075-1.11-7.986-9.62c7.254,2.068,11.531,5.473,12.834,10.214
					c1.303,4.74,1.303,6.968,0,6.682 M3569.003,239.099c0.342-3.153,0.342-5.424,0-6.812c-0.343-1.388-1.475-3.705-3.396-6.951
					c6.475,3.064,9.42,7.391,8.832,12.979c-0.422,4.017,0.846,2.672,3.078-1.933c0.583-1.201,1.54-3.313,2.871-6.335v10.559
					 M3575.972,249.823l6.684-13.296c-0.797,5.438-1.059,8.52-0.784,9.246s1.994-0.846,5.159-4.718
					c-1.592,6.17-2.042,9.278-1.354,9.326c0.689,0.047,2.781-2.736,6.275-8.351c1.178,3.419,1.694,5.235,1.552,5.448
					c-0.103,0.152,0.949-0.898,1.697-3.731c0.198-0.75,0.319-2.206,0.363-4.368l2.769,5.684c1.089-3.896,2.208-6.612,3.357-8.15
					c1.148-1.537,3.883-3.978,8.201-7.319c-1.24,3.485-2.021,6.063-2.344,7.732c-0.321,1.669-0.321,3.145,0,4.426l8.654-4.839
					c-2.384,2.136-3.954,3.689-4.71,4.662c-3.085,3.966-3.944,6.514-3.944,6.67c0,0.159,2.426-1.157,7.161-1.962
					c1.077-0.184,2.952-0.184,5.621,0c-2.218,1.472-3.593,2.514-4.128,3.125c-0.534,0.611-1.186,1.648-1.952,3.109
					 M3610.634,243.074c11.32-1.306,18.492-1.632,21.516-0.979c3.024,0.653,9.385,1.497,19.08,2.53l6.77-0.755 M3671.64,12.878
					c1.352-1.479,2.182-4.238,0.785-6.084c-1.395-1.846-5.949,3.042-5.221,1.656c0.729-1.386,2.236-5.21,0.98-6.827
					s-7.178,2.096-5.709,0.501c1.47-1.595,5.594-11.846,1.644-12.659c-3.949-0.813-8.989,8.548-8.201,6.879s0.215-4.854-1.744-4.622
					s-5.645,5.642-3.978,2.483c1.668-3.157,2.102-9.561-0.771-9.905c-2.873-0.346-5.539,6.813-5.226,5.656
					c0.313-1.157,0.534-9.979-2.218-10.894s-4.875,7.748-4.422,4.036c0.455-3.711-0.199-7.165-2.269-7.954
					c-1.38-0.526-2.932,0.779-4.656,3.918c-0.857-4.528-2.134-6.909-3.829-7.143c-2.541-0.351-3.515,6.791-3.623,4.295
					s-1.57-5.182-5.348-3.7c-3.775,1.482-1.234,15.188-1.896,12.779c-0.662-2.407-4.666-6.1-7.236-4.977
					c-2.568,1.122,0.623,9.691-0.489,8.022c-1.112-1.67-4.112-7.195-8.517-6.378c-4.404,0.816-2.33,12.723-3.73,7.994
					c-1.401-4.729-3.186-6.323-6.451-6.312c-3.264,0.013-5.592,8.511-5.889,7.276c-0.298-1.234,1.832-12.77-0.656-14.706
					c-2.487-1.937-4.334,7.43-4.307,3.424c0.026-4.006-0.504-6.063-3.318-6.593c-2.813-0.531-3.643,6.017-3.559,3.398
					c0.084-2.617-1.424-4.684-5.325-4.307s-1.653,8.75-2.903,6.925c-1.25-1.824-3.088-6.017-6.241-4.823
					c-2.103,0.795-2.403,3.647-0.903,8.558c-2.855-2.782-5.133-3.337-6.834-1.663c-2.553,2.511,4.797,20.146,3.957,17.644
					c-0.842-2.502-6.297-14.637-14.504-17.176c-5.471-1.692-6.709,1.681-3.713,10.12c-4.771-2.053-7.158-1.329-7.159,2.173
					c-0.002,5.252,7.193,9.82,8.415,11.117c1.221,1.296-4.311-2.899-7.08,0c-1.847,1.932-1.676,4.176,0.511,6.731
					c-2.644-0.378-4.028,0.416-4.154,2.383c-0.188,2.95,9.948,5.739,6.071,4.841c-3.877-0.897-12.523-0.614-14.552,3.83
					c-2.028,4.443-0.591-5.953-2.882-7.646c-2.289-1.693-3.795,3.144-3.927,5.635s-1.434-3.783-3.979-3.942
					s-2.977,9.804-1.969,14.18c1.009,4.376-3.145-7.576-6.77-6.991c-2.416,0.39-3.053,4.027-1.909,10.912
					c-3.633-2.938-5.87-3.459-6.712-1.562c-1.263,2.847,3.581,11.157,2.434,9.441c-1.146-1.716-5.526-2.871-6.908-0.292
					c-1.381,2.578,3.359,10.154,1.48,7.814s-5.822-2.778-7.096-1.077c-1.272,1.701-1.809,2.805,0.549,6.295
					c2.358,3.49-7.055-7.035-9.162-4.336c-2.107,2.7,3.594,14.689,1.703,10.424c-1.891-4.265-7.73-7.101-10.354-5.332
					s1.642,8.209,3.84,10.176c2.199,1.967-7.658-5.249-8.72-2.412c-1.062,2.838,5.241,7.38,5.28,8.949
					c0.038,1.57-5.28-2.621-5.28,1.352c0,1.612,2.979,3.96,1.805,3.086c-2.187-1.627-11.19-3.719-11.413,0
					c-0.176,2.933,1.582,5.339,5.274,7.219c-3.208,0.185-4.653,1.173-4.339,2.967c0.474,2.691,10.908,5.551,8.214,4.991
					s-11.753-1.619-11.85,3.028c-0.064,3.098,2.23,4.704,6.886,4.818c-1.426,1.677-1.174,3.378,0.756,5.103
					c2.896,2.588,11.553-0.453,11.553,0.508s-5.739,6.608-5.081,11.077c0.659,4.469,4.735,2.447,5.909,1.132
					c1.172-1.314-1.836,3.213,0,4.376c1.835,1.162,7.67-2.169,5.385-0.291s-5.278,4.597-2.646,8.311
					c2.631,3.714,6.416-0.238,7.169-3.006c0.753-2.769-0.026,2.039,2.042,2.301s3.684-3.457,3.604-2.301
					c-0.081,1.156-1.084,3.336,2.092,4.303c3.177,0.967,6.875-6.394,6.875-9.607"/>
			</g>
		</g>
	</g>
	<g>
		<rect x="3439.5" y="294.786" fill="#FFFFFF" width="74.25" height="1"/>
	</g>
	<g>
		<rect x="4496.948" y="294.786" fill="#FFFFFF" width="52.552" height="1"/>
	</g>
	<rect x="3444.5" y="-55.774" fill="none" width="1100" height="600"/>
</g>
</svg>
