<?xml version="1.0" encoding="utf-8"?>
<!-- Generator: Adobe Illustrator 16.0.0, SVG Export Plug-In . SVG Version: 6.00 Build 0)  -->
<!DOCTYPE svg PUBLIC "-//W3C//DTD SVG 1.1//EN" "http://www.w3.org/Graphics/SVG/1.1/DTD/svg11.dtd">
<svg version="1.1" id="Layer_1" xmlns="http://www.w3.org/2000/svg" xmlns:xlink="http://www.w3.org/1999/xlink" x="0px" y="0px"
	 width="1110px" height="600px" viewBox="0 -58 1110 600" enable-background="new 0 -58 1110 600" xml:space="preserve">
<title>dom-3-1110@3x</title>
<desc>Created with Sketch.</desc>
<g>
	<rect y="294.786" fill="#FFFFFF" width="138.667" height="1"/>
</g>
<g>
	<rect x="157" y="294.786" fill="#FFFFFF" width="49.935" height="1"/>
</g>
<g>
	<rect x="998.899" y="294.786" fill="#FFFFFF" width="111.101" height="1"/>
</g>
<g>
	<g id="Page-1">
		<g id="dom1-1110">
			<g id="dom1_1_" transform="translate(0.000000, 176.000000)">
				<g id="Group">
					<g id="dom1">
						<g id="деревья-_x2F_-дерево2" transform="translate(832.301012, 0.000000)">
							<g id="дерево2">
								<path id="Path-15" fill="none" stroke="#FFFFFF" d="M167.145,162.171c0,0-2.002-8.698-1.734-12.622
									c0.269-3.924,1.204-7.243,1.345-8.549c0.378-3.5,0.262-2.391-0.975-6.205c-0.469-1.448,0.694-12.786,0.817-15.355
									c0.123-2.568-0.87-9.937-0.817-10.843c0.123-2.099-0.846-7.714-1.188-9.794c-1.027-6.266,1.865-11.611,1.188-15.223
									c-0.677-3.611-0.01-10.038-0.102-10.175"/>
								<path id="Path-21" fill="none" stroke="#FFFFFF" d="M150.5,165.961c0,0,1.97-7.664,2.369-8.969
									c0.4-1.305-0.242-5.609,0-6.372c0.652-2.048,0.112-4.307,0.4-7.801c0.289-3.494-1.194-10.454,0-13.46s0-3.356,0-7.664
									s-0.688-11.395-0.688-12.511s0.178-2.078,0.688-3.084s0.322-6.941,0-10.11c-0.321-3.168-0.4-4.894-0.4-6.449"/>
								<path id="Path-24" fill="none" stroke="#FFFFFF" d="M165.377,56.855c-0.384-1.261,0.529-3.716,0.646-5.787
									c0.116-2.071,0.1-7.902,0.393-8.787c0.444-1.347-0.65-4.108-0.385-4.702c0.215-0.481-0.9-0.724-1.63,0.001
									c-0.729,0.725-1.333,0.537-1.369,0.415c-0.156-0.536-0.835,0-0.835,0s-0.688-0.322-0.971,0.001
									c-0.281,0.322,0.06,1.263-0.001,1.515c-0.035,0.147-0.471,1.448-1.225,2.265c-0.35,0.379-1.7,0.756-2.401,1.396
									c-0.701,0.64-0.438,0.747-0.472,1.152c-0.078,0.942-0.604,1.671-0.401,2.48s1.135,1.562,0.869,2.681
									c-0.532,2.241,0.633,6.13,0.202,6.034s-0.526-1.26-0.947-1.904c-0.421-0.646-1.933-2.207-1.809-3.311
									s-1.337-4.317-1.337-4.317"/>
								<path id="Path-23" fill="none" stroke="#FFFFFF" d="M162.769,77.792c0.253,1.333,3.878-6.917,7.203-8.177
									c1.793-0.68,3.286-2.856,4.236-3.665c0.949-0.809,2.979-1.422,4.078-2.322c1.915-1.569,4.259-1.636,6.07-2.534
									c1.036-0.514,5.662-1.738,9.216-2.958c3.554-1.219,4.606-1.958,4.606-1.958s-0.677-0.435-1.017-0.965
									c-0.339-0.531-0.436-1.296-0.525-1.254c-0.168,0.079-3.856,1.681-6.999,2.53c-3.705,1.003-5.18,1.746-6.068,2.285
									c-2.08,1.263-2.72-0.061-3.297,0.459c-0.576,0.521-3.602,1.639-4.036,2.36c-0.434,0.723-1.464,0.891-1.464,0.891
									s-3.345,1.401-5.426,1.831s-3.137,1.937-3.137,1.937s0.754-4.551,2.09-5.167c1.337-0.616,3.497-3.309,3.497-3.309
									s2.365-0.5,3.034-1.386s2.476-3.801,3.312-4.111c0.837-0.31,7.457-6.697,7.943-7.671c0.485-0.974-1.155,0.901-1.447-0.71
									c-0.293-1.611-1.589-1.854-0.796-2.964c0.793-1.109,0.219-1.809-0.227-2.475c-0.444-0.666-0.943-0.206-1.165,0.39
									c-0.222,0.597-0.212,1.572-1.386,2.171c-1.175,0.599-1.609,0.717-1.978,2.15c-0.367,1.434-0.154,1.608-1.507,3.026
									c-1.353,1.417-2.974,2.302-4.081,3.116s-3.161,3.597-4.183,3.895s-2.229-0.001-3.113,1.512
									c-0.886,1.514-0.943,2.64-0.943,2.64"/>
								<path id="Path-43" fill="none" stroke="#FFFFFF" d="M152.919,93.055c-0.344-1.458-5.218-6.49-9.897-10.389
									c-4.68-3.897-3.484-2.758-4.894-3.634c-2.601-1.616-3.262-3.238-3.986-4.033c-0.726-0.795-1.53-0.952-1.716-1.275
									c-0.336-0.59-6.161-2.462-7.929-3.891s-6.284-5.547-8.552-6.603c-0.307-0.144,1.903-1.575,1.903-1.575
									s1.239-0.87,1.438-1.239c0.199-0.368,0.749-2.233,0.749-2.233s2.29,1.589,4.461,3.16s2.91,2.443,3.026,2.533
									c0.117,0.091,1.015-1.607,0-2.533c-1.014-0.927-1.014-2.844-1.014-2.844s1.193,0.362,2.289-0.73
									c1.096-1.094,0,0.146,0,1.046c0,0.52,1.493,1.942,1.841,2.841c0.349,0.899,0.304,2.775,0.304,2.775s0.16,0.992,1.482,2.17
									c1.322,1.179,3.636,1.263,4.188,2.22c0.738,1.277,3.29,3.026,5.448,4.425c1.097,0.712,4.598-4.13,5.201-3.708"/>
								<path id="Path-44" fill="none" stroke="#FFFFFF" d="M132.353,55.242c0.011,0.232-0.244,0.588-0.244,0.588
									s0.13,2.658,1.111,3.431c0.98,0.772,2.584-0.044,2.609,0c0.059,0.098-0.685,2.368,0.564,3.406
									c1.248,1.039,1.08-1.161,1.378-1.161c0.561,0-0.046,2.031,1.614,2.572c1.661,0.54,2.456-0.264,3.245,0
									c2.129,0.709,1.96,1.229,2.251,1.516"/>
								<path id="Path-45" fill="none" stroke="#FFFFFF" d="M213.06,17.241c0,0,1.916,1.483,1.277,2.934
									c-0.639,1.451-0.791,2.016-0.396,2.676s2.927,1.845,1.661,1.936s-3.656-0.377-3.538,0.283s2.259,2.495,2.068,3.421
									c-0.191,0.926-3.386-0.191-3.126,0.548s1.877,2.156,0.938,3.155s0.271,3.81-0.334,4.459c-0.604,0.648-4.2-1.332-4.727-0.666
									c-0.525,0.666-0.792,0.953-0.396,1.608c0.396,0.654,2.712-0.061,2.063,1.242c-0.649,1.304-4.249,2.446-5.039,3.427
									c-0.789,0.979-3.185,0.068-3.499,0.696c-0.315,0.628-0.188,1.982-0.895,2.101s-2.541,0.244-2.541,0.244
									s-0.316,0.587-1.392,0.945c-0.484,0.162-1.532,0.291-2.2-0.311c-0.668-0.601-1.075-2.02-1.132-2.123
									c-0.468-0.856-1.156,0.492-1.435,0.12c-0.279-0.373,0.188-1.408,0-1.408c-0.188,0-1.944,1.119-2.935,0.329
									c-0.989-0.79,0.44,0.245-0.498-0.772s-3.59,0.608-2.178-2.13c0.483-0.939-0.639-0.202-1.088-0.321
									c-0.45-0.118-0.463-0.488,0.153-1.772c0.12-0.251-0.996,1.105-2.501,1.718c-1.505,0.611-4.492,0.367-4.162-0.519
									c0.58-1.561,0.04-2.244,0.04-2.244s-4.865,0.774-4.427-2.165c0.438-2.939,0.21-2.229,0.569-3.11
									c0.359-0.883,3.981-3.244,4.72-4.197s-1.066-3.363,1.64-3.928c0.491-0.103,1.011,0.052,1.397,0"/>
								<path id="Path-47" fill="none" stroke="#FFFFFF" d="M75.285-4.85c0,0-0.352,1.102-1.769,1.113s-1.186,2.042-1.282,3.643
									s-1.061,1.617-1.915,0.961c-0.854-0.657-1.258,0.972-1.061,2.649c0.09,0.759,0.19,1.197-0.196,1.312
									c-0.386,0.113-1.473-0.164-1.852-0.485c-0.693-0.587-1.488-0.828-2.511-1.209c-0.919-0.343-2.535,3.438-3.781,2.821
									c-1.247-0.617,0.685-2.31-0.002-2.822c-1.896-1.419-3.969,1.601-3.2,2.82c0.366,0.582,0.609,2.803,0.002,3.187
									C57.11,9.522,56.997,8.2,56.483,8.018c-0.347-0.123-1.661-0.359-2.536-0.001c-0.875,0.357-2.688,2.707-2.156,3.962
									c0.824,1.941,2.351,1.256,2.592,1.38c0.241,0.123-2.359,1.45-0.432,3.787c1.928,2.338,3.297,1.048,3.771,0.798
									c0.475-0.251,1.121,0.225,0.744,0.771s-2.786,1.546-1.978,2.874c0.809,1.327,2.71,0.49,3.036,0.931s-1.206,1.992-0.366,3.35
									c0.84,1.356,2.293,1.015,2.534,1.016c0.241,0-1.007,4.329,2.025,5.186s2.122-2.243,2.891-1.903
									c0.769,0.339,0.644,2.329,2.466,2.72s3.235-4.585,4.081-4.259c0.847,0.326,2.145,6.247,5.997,4.612
									c3.854-1.636,2.805-6.104,2.805-6.104"/>
								<path id="Path-48" fill="none" stroke="#FFFFFF" d="M139.258,48.929c0,0-0.157,1.893,0.483,3.345
									c0.281,0.638,1.297,0.528,2.088,0.614c0.79,0.085,1.815,0.317,2.021,0.468c0.366,0.268,1.727,0.9,1.179,1.99
									c-0.548,1.091,1.079,1.843,2.523,0c1.006-1.284,0.66-2.458,1.774-2.458c1.113,0,1.794-0.696,2.081-0.614
									c0.543,0.156,2.633,0.728,2.784,0c0.15-0.728-1.095-1.269-0.887-1.624c0.895-1.529-1.957-4.638-1.294-4.638
									c0.654,0,1.22,0.184,1.959-0.424c0.74-0.608,1.223-0.57,1.518-0.794c1.272-0.965-2.669-2.212,1.064-2.188
									c0.179,0.001,0.063,1.079,0.511,0.986c0.447-0.092,2.331-1.558,2.574-1.611c0.395-0.086,2.171-2.662,1.719-3.239
									c-0.319-0.409-0.281-0.789,0.176-0.862c0.457-0.074,0.892,0.313,1.169,0c0.293-0.333,0.211,0.195,0.802,0.354
									c0.267,0.071,1.309-1.293,1.919-1.225c0.609,0.068,1.094,1.604,1.667,1.733c1.93,0.438-1.334-4.019-1.334-4.421
									c0-0.401,1.314,1.751,2.763,1.56c1.448-0.19,2.101-2.256,2.303-1.961c0.462,0.672,1.735,2.84,2.452,1.393"/>
								<path id="Path-49" fill="none" stroke="#FFFFFF" d="M121.767-11.414c0,0,1.663-1.164,1.569-2.375
									c-0.095-1.21,0-1.992-0.159-3.237c-0.16-1.245-0.906-1.336-1.446-1.313c-0.541,0.022-1.291,1.313-1.438,0.865
									c-0.148-0.447-0.183-2.935-0.646-3.854s-1.938-1.831-2.507-1.097c-0.568,0.734-0.838,1.753-1.152,1.646
									c-0.315-0.106,0.394-1.041-0.092-2.067c-0.485-1.025-1.124-0.426-2.587-0.181c-1.462,0.245-2.615,0.193-2.702,0.776
									c-0.06,0.402,0.283,1.298,0.205,1.946c-0.077,0.648-0.212,0.925-0.477,0.885c-0.854-0.127-2.463-0.784-3.293-2.564
									c-0.829-1.78-1.253-2.125-1.706-2.081c-0.581,0.057-0.599,0.626-0.696,1.25c-0.099,0.624-0.03,1.375-0.163,1.503
									c-0.262,0.251-0.509,0.026-1.065-0.524s-1.78,1.092-1.304,1.904c0.476,0.813-1.237-0.388-1.546,1.126
									s1.069,1.196,0.518,2.189c-0.553,0.992-1.2,1.772-0.468,2.43c0.732,0.656,1.48,1.278,1.694,1.513
									c0.214,0.233-0.611,0.94-0.611,0.94s-1.063,0.711-1.496-0.188c-0.433-0.9-0.604-1.878-1.01-2.142s-1.222,0.11-2.23,0.807
									c-1.008,0.695-1.114,1.313-1.518,2.084"/>
								<path id="Path-50" fill="none" stroke="#FFFFFF" d="M196.129,46.03c-0.849,0.802,0.978,1.412,0.978,1.412
									s0.498,0.789-1.423,1.97c-0.934,0.574,0.578,2.888,0.593,3.199c0,0,0.456,1.647,0.834,2.201
									c0.069,0.102,0.216,0.287,0.267,0.4c0.052,0.113,0.995,0.521,1.042,0.953c0.177,1.634-0.624,1.163-0.505,1.396
									c0.118,0.233-0.445,1.517,0.507,2.142s1.188,0.517,1.456,1.51c0.268,0.993-1.662,4.534-0.886,5.59
									c0.47,0.641,0.861,1.139,2.075,1.267c1.215,0.128,2.893-0.33,3.22-0.855c0.604-0.968,0.977-0.087,0.9,0.001
									c-0.077,0.088-0.421,0.939,0.054,1.117c0.475,0.179,1.29-0.399,1.818-0.26c0.529,0.14,1.665,0.551,1.472,1.362
									s-0.653,2.561,0.929,3.621c1.582,1.062,1.791-1.556,2.006-1.618c0.216-0.063-0.473,2.289,0.893,3.078
									c1.366,0.788,3.495-0.146,4.25-0.784s0.462-2.708,0.462-3.066c-0.001-0.359,0.516,0.349,1.002,0.287
									c0.486-0.061,1.563,0.49,1.285-0.758c-0.276-1.247-0.656-2.115-0.001-2.717c0.654-0.602,2.426,0.786,4.571,1.497
									c2.146,0.712,1.567-1.81,1.286-2.467s-0.97-2.089-0.652-2.639c0.317-0.551,2.416,0.514,3.172-0.795
									c0.756-1.31-1.775-2.444-1.226-2.576c0.549-0.132,2.604,0.063,3.069-0.3c0.466-0.361,0.581-1.288,0.802-1.389
									c0.22-0.101,2.997,0.646,4.111,0.178s2.08-2.464-0.005-2.803c-2.085-0.338,6.194,0.509,5.145-1.277
									c-0.615-1.047,1.734-3.194,0.724-3.298s2.11-1.152,1.131-2.174c-0.98-1.021-2.336-2.067-3.069-2.508
									s-1.849,0.392-0.843-0.876s-2.322-0.738-2.322-0.738"/>
								<path id="Path-51" fill="none" stroke="#FFFFFF" d="M240.965,48.905c0.405,0.375,2.428-0.059,3-1.03
									c0.573-0.972-0.964-1.26,0.001-2.417c0.543-0.65,1.741-1.095,2.926-1.836s-1.089-2.082-0.965-2.645
									c0.285-1.289,2.274-0.748,2.815-1.701c0.541-0.954,1.959,0.91,3.386-0.242s2.563-2.63,1.744-3.553
									c-0.609-0.687-1.423-0.802-1.425-1.348c-0.003-0.546,0.039-1.071,0.293-1.169c0.869-0.337,1.905,0.443,2.711-0.002
									s0.321-1.058,0.417-1.13c0.797-0.607,0.313-1.737,1.069-2.602c0.756-0.864,1.631-1.133,1.406-1.932
									s-2.688-1.186-2.473-1.576c0.215-0.391,1.396-0.904,1.068-2.05c-0.326-1.146-1.674-0.656-3.062-0.52s-2.15,2.346-2.08,2.024
									c0.04-0.183-0.93,2.161-0.741,0.548c0.189-1.614,1.415-2.821,1.079-3.675s-1.99,0.618-2.868,0.692
									c-0.879,0.073,0-1.197-1.433-1.497c-3.204-0.671-0.558,2.143-1.899,2.834c-1.343,0.692-1.317,0.321-0.565-0.402
									c0.157-0.15-1.21-0.666-1.27-0.861c-0.152-0.503-0.866-1.007-1.373-0.761c-0.704,0.341-1.685,4.205-2.262,3.127
									c-0.597-1.115-2.124,0.099-2.779,1.193c-0.654,1.094-0.256-2.078-1.148-1.798c-0.894,0.28-0.745-1.613-1.58-1.721
									s-0.811-2.672-2.229-1.389c-1.419,1.282-2.505,2.062-2.979,1.031c-0.473-1.029-0.439-0.816,0.979-1.459
									c1.419-0.643,4.776-1.313,3.39-2.507"/>
								<path id="Path-52" fill="none" stroke="#FFFFFF" d="M79.78,1.238c-0.813,0.129-1.852,0.104-3.029-0.335
									c-1.177-0.439-1.065-1.065-1.163-1.613c-0.276-1.549,1.159-3.262,1.425-3.876c0.322-0.747-1.775,0.322-2.702,0.232
									c-0.927-0.091-1.48-0.604-1.555-1.069c-0.046-0.293,0.066,0.322-0.881,0.717s-1.124-1.942-2.064-1.548
									c-0.94,0.394-3.317-1.536-2.021-2.165c1.298-0.629,0.804-1.06,0.118-1.278c-0.686-0.22-1.02,1.286-2.884,1.501
									c-1.865,0.214-5.93-3.568-3.374-3.973c0.707-0.112,0.483-0.497,0.483-0.497s-2.892-2.922,2.688-3.119
									c2.345-0.082,6.133,0.105,6.005,0.125c-0.128,0.021-6.993-0.946-7.174-2.086s1.939-0.938,1.921-1.049
									c-0.018-0.111-1.831-0.62-2.168-1.54c-0.24-0.656,0.022-1.205,1.001-1.606s3.141-0.323,2.75-0.436
									c-0.422-0.122-0.972-0.398-1.364-0.677s-0.495-0.477-1.344-0.799c-1.814-0.689-2.925-0.145-3.58-0.916
									c-0.656-0.771-0.095-1.159-0.35-1.299c-0.254-0.139-3.165-0.562-3.214-2.732c-0.05-2.17,1.289-2.841,2.678-2.82
									s2.78,1.194,3.265,1.879c0.34,0.481,0.717,0.531,0.937,0.27c0.22-0.261-0.169-1.067,0.63-1.194
									c2.277-0.36,0.43-1.208,1.536-2.546s3.241,0.361,2.629-0.637s-0.671-3.33,1.89-3.326c1.217,0.002-1.001-0.153-1.172-1.232
									s2.533-1.416,2.201-1.584c-0.333-0.169-1.277-2.31,1.115-2.489c2.393-0.181-1.903-0.539-2.468-2.42
									c-0.564-1.88-0.428-4.155,1.798-4.544c2.225-0.389,6.668,2.119,7.094,4.038c0.427,1.919,1.61-1.329,1.61-1.329
									s0.505-0.548,1.754,0.169c1.249,0.716-0.758-1.937,1.017-1.928s2.58,0.891,2.616,0.235c0.037-0.655-0.731-2.806,0.553-3.257
									c1.283-0.451,3.321-0.004,2.953,3.204s1.236-0.311,1.236-0.311s1.54-1.527,3.865-1.027c2.326,0.501,2.604-1.441,3.672-0.523
									c1.067,0.917-0.001,2.313,0.763,2.178c0.763-0.136,0.68-1.528,1.379-1.431c0.331,0.046,7.262-1.597,4.71,4.757
									c-0.89,2.214-3.548,4.224-1.857,5.52c0.198,0.152-2.854,1.777-2.855,3.902c0,2.125,1.498-1.109,2.854-0.001
									s-0.295,3.799-0.001,3.976c0.712,0.428,0.228-5.909,2.933-5.909c2.706-0.001,4.191,3.341,4.335,2.816
									c1.08-3.951,5.294-1.605,5.467-1.52c0.924,0.454,1.117-0.156,1.199-1.035c0.083-0.879,1.179-0.844,2.135-0.456
									c0.956,0.389-0.584-1.079-0.512-1.687c0.071-0.607,1.377,0.083,0.869-0.595s-2.618-3.417-1.271-5.63
									c1.349-2.213,2.868,0.321,4.817,0.545c1.949,0.225,2.642-5.979,2.618-6.45c-0.023-0.47-1.202-1.754-0.332-2.099
									c0.871-0.345,1.609,0.204,2.125,0.664s0.188-2.205,1.729-2.734s2.344,0.904,2.705,3.183
									c0.131,0.828,0.344-2.692,1.185-2.822c0.842-0.131,1.294,1.156,2.121,0.669c0.827-0.486,0.146-0.648,0.342-1.357
									c0.194-0.709,1.768-0.571,2.146-0.042c0.377,0.53-1.031-2.033-0.744-2.46s1.287-0.081,1.234-0.42
									c-0.026-0.164-0.331-0.526-0.484-0.863c-0.152-0.337-0.163-0.688,0.037-0.892c0.391-0.399,1.896,0.127,1.83-0.29
									c-0.03-0.191-1.023-0.414-1.604-0.893c-0.58-0.479-0.505-1.443,0.248-1.778c0.752-0.335,0.773-0.758,1.34-1.075
									c0.567-0.317,0.822,0.637,1.607,0.301c0.785-0.335,0.066-1.111,0.704-1.372s0.17,0.545,1.646,0.564
									c1.476,0.02,1.112-1.328,2.223-1.403s1.219,0.798,1.103,1.313c-0.117,0.514-0.433,1.305-0.59,1.924
									c-0.158,0.618,0.655-1.071,1.057-1.332c0.401-0.262,0.991-0.366,0.962,0.065c-0.029,0.433,0.058,0.72,0.641,0.692
									s0.887-0.781,1.678-0.267s1.19,1.282,0.821,2.065c-0.37,0.783-1.147,1.328-0.565,1.011s0.919-0.314,1.256,0.943
									c0.337,1.259-0.685,1.2-0.315,1.245c0.369,0.044,1.738-1.239,2.654-0.856c0.917,0.382,0.979,0.974,1.373,1.141
									s-0.469-1.694,0.254-2.157c0.723-0.462,1.927-0.1,2.407,0.377c0.481,0.478-0.026-2.325,0.593-2.709s1.591-0.071,1.678,0.279
									c0.131,0.524,0.618,0.8,3.724,0.429c3.104-0.372,2.646-2.831,2.391-2.274c-0.256,0.556-0.556,0.97-0.197,0.728
									c0.359-0.243,0.735-1.209,1.447-1.043c0.334,0.077,0.712,0.005,1.158,0.53c0.447,0.525,0.451,1.034,0.247,1.554
									c-0.386,0.979-0.197,2.316,0.011,2.368c0.209,0.051,2.226,0.518,1.767,2.585c-0.458,2.068,0.826-1.196,2.107-0.073
									c1.281,1.124,0.975,2.639,1.02,2.925c0.046,0.285,2.425-2.063,3.849-1.685s1.148,1.582,1.758,2.186
									c0.609,0.603-0.07-2.453,1.579-1.64c1.649,0.814,4.056-0.409,2.854,2.095c-1.202,2.504,0.367-1.181,1.66-0.939
									s1.536,1.694,1.616,0.887c0.08-0.807,0.853-2.064,2.015-1.787c0.413,0.1,1.628,0.797,1.729,1.641
									c0.045,0.379,0.508,1.781,0.168,2.509s-1.477,1.212-1.458,1.218c1.099,0.346,2.544-1.154,2.923-0.463
									c0.379,0.69-0.639,0.968-0.892,1.421c-0.253,0.452,0.544,1.174,0.767,1.285c0.222,0.11,0.853,0.632,0.199,1.262
									c-0.652,0.63-1.538,0.595-1.269,0.816c0.27,0.221,2.431-0.968,2.886-0.457c0.454,0.511-0.042,1.105,0.391,1.065
									c0.219-0.02,0.727-0.914,1.371-0.959c0.646-0.045,1.396,0.765,1.598,0.489c0.406-0.559,0.126-2.652,0.359-2.856
									s1.376-0.398,1.521-0.062c0.145,0.338-0.914-1.18-0.603-1.682c0.311-0.501,1.152-0.3,1.555-0.305s-1.669-2.54-0.075-2.792
									c1.594-0.253,2.368-1.51,2.691-0.427c0.322,1.084,0.679,1.181,0.862,0.851c0.183-0.33-0.429-0.919,0.278-1.392
									c0.707-0.472,3.65,0.08,4.308,1.402c0.201,0.405,0.474,1.359,0.301,1.899c-0.174,0.54-1.717,2.184-1.756,3.125
									c-0.057,1.357,1.064,1.112,1.183,1.576s-0.841,1.089-1.095,1.185c-0.254,0.095-0.432,0.38-0.248,0.695
									s0.74-0.101,0.863,0.981c0.122,1.082-0.409,1.719,0.543,1.843c0.953,0.124,1.757-1.53,2.826-1.699
									c1.068-0.17,2.019,0.077,1.888,0.952s-1.55,2.669-1.55,2.669s-1.31,1.267-0.169,0.772c1.142-0.494,1.547-1.146,2.773-1.651
									s1.211,1.733,1.708,1.459s-0.114-2.017,1.583-1.947c1.697,0.07,1.674,2.005,1.542,2.593s1.655-4.071,2.39-4.648
									c0.734-0.578,3.082-1.045,2.857,0.341c-0.226,1.387-0.69,2.103-0.131,1.504c0.56-0.598,1.119-1.688,1.979-1.157
									c0.86,0.532,0.578,2.172,0.473,2.981c-0.106,0.81,1.724,0.292,1.724,0.292s2.02-0.236,2.092,1.064
									c0.072,1.302-0.39,0.911-1.916,2.046c-1.526,1.134-0.778,1.624-0.286,1.906s-2.31,0.182-1.914,0.909
									c0.396,0.728,1.665,0.448,1.686,1.121c0.021,0.672-0.407,1.49,0.298,1.942s0.975-1.094,1.672-1.839
									c0.696-0.745,2.224,0.444,1.812,0.957c-0.413,0.513-1.18,2.334-0.12,2.438s1.8,0.327,2.018-0.513s0.755-1.724,1.313-1.051
									c0.559,0.674,1.22,1.045,1.346,0.434s0.247-2.068,0.965-2.769c0.719-0.7,1.689-0.854,3.126-0.495s1.542,1.597,1.231,2.194
									c-0.31,0.599-0.346,1.522-0.175,1.177c0.17-0.346,2.166-2.344,2.886-0.457s-0.711,1.999-1.223,2.171
									s-0.512,0.455,0.093,0.588s1.889-0.797,2.393,0.965c0.503,1.763-2.545,1.323-1.854,2.429
									c0.69,1.104,2.055,0.508,3.267,0.697c1.212,0.188,3.681,0.636,3.414,2.526c-0.266,1.891-2.582,0.959-2.525,1.317
									s1.128,0.468,0.941,0.782c-0.186,0.314-1.997,0.409-2.105,0.957c-0.108,0.549,1.027,0.345,1.53,0.573
									c0.504,0.229,1.445,7.065,0.827,7.854c-0.617,0.789-3.362,1.099-2.864,1.02c0.498-0.078,4.618,0.597,4.962,2.301
									c0.345,1.704-3.903,0.339-3.594,0.818c0.309,0.479,1.414,0.834,1.494,0.87c0.081,0.036,2.39,1.052,1.603,2.294
									c-0.788,1.242-1.945,0.399-2.295,0.652c-0.351,0.253,2.938,2.469,2.263,3.91c-0.13,0.279-0.418,0.828-0.825,0.989
									c-0.408,0.161-1.212-0.028-1.572-0.223c-0.641-0.345-1.169-1.648-1.952-1.524s-0.207,2.333-1.362,2.049
									c-0.494-0.121-1.431-0.023-1.942-1.048s-0.058-3.468-0.51-3.219c-0.788,0.434-1.953-0.748-2.102-0.125
									c-0.147,0.622,0.321,1.876-0.53,1.641c-0.852-0.236-1.686-0.807-1.557-0.09c0.13,0.716,0.066,2.983,0.558,3.418
									c0.492,0.436,2.14,0.652,1.788,1.649c-0.353,0.996-3.425,0.669-3.403,0.806c0.028,0.174,4.727,1.358,4.191,2.746
									s-0.228,1.775-2.577,1.698s-2.961,1.729-2.919,1.99c0.042,0.263,1.572-0.813,2.36,0c0.238,0.246,0.065-0.135,0.558,0.779
									c0.493,0.914,0.005,4.445-2.224,4.261c-2.646-0.22-2.703,0.097-4.188,0.704"/>
								<path id="Path-56" fill="none" stroke="#FFFFFF" d="M78.402,33.516c-2.206,0.097,0.944,1.978,1.143,3.669
									c0.199,1.691-2.484,0.186-3.271-0.98s-1.587,1.636-1.104,2.596s-3.923,1.218-4.111,1.218c-0.106,0-3.34-0.963-5.495,0
									c-0.983,0.439,1.052,1.481,0.711,2.248s-3.715,2.102-3.722,2.868c-0.011,1.26-0.474,3.338,0.629,2.982
									c1.103-0.354,2.59-2.258,2.382-1.807c-0.34,0.736-2.221,3.635-1.416,4.724c0.805,1.088,2.346-1.119,2.626-1.062
									c0.281,0.058-1.973,2.553-1.21,4.654s3.794-1.292,3.876-1.069s-2.427,2.816-1.769,3.092s2.625-0.259,2.671,0
									c0.047,0.259-1.353,0.623-1.886,1.007s-0.785,1.247-0.439,1.692c0.346,0.444,1.201,0.2,1.423,0.421
									c0.221,0.22-0.941,2.13,0,2.676c0.94,0.547,3.24-1.869,3.334-2.676c0.093-0.808-1.038,2.801,0,2.676
									c1.037-0.125,0.745-0.872,1.307-0.801c0.561,0.072,1.182,0.353,1.948,0.801c0.766,0.448-0.658,0.66,0,1.988
									c0.658,1.327,1.318,1.819,2.654,2.358c1.335,0.54,1.597-1.567,1.927-1.678c0.331-0.11,1.168,1.745,1.695,1.071
									s1.979-3.543,2.894-6.416c0.913-2.874,0.252,2.752,0.908,1.911c0.657-0.841,2.422,0.281,2.541-2.375
									s0.663-1.462,1.067-0.731c0.404,0.731,1.794,3.138,3.022,1.935c1.228-1.203,0.741-2.601,1.298-1.901
									c0.558,0.698-1.532,4.296,1.38,3.099s1.694-2.055,2.579-1.996c0.885,0.06-0.955,2.575,1.034,2.655s4.524,1.174,4.863-1.292
									c0.338-2.466,0.913-2.742,1.575-2.053c0.661,0.689-1.243,0.872,0.209,3.143c1.451,2.271,1.112,4.04,3.221,2.918
									c2.109-1.122,5.122-1.237,3.78-3.119c-1.343-1.882,0.87,2.072,2.839,1.387c0.573-0.2,0.536-0.7,0.979-0.983
									c0.442-0.283,2.308-1.29,2.562-1.856c0.359-0.799,1.567-2.37,0.359-3.358s0.652-2.216,2.279-2.668
									c1.627-0.451,3.86-1.883,3.761,1.104c-0.101,2.987-0.087,2.752,0.822,2.689c0.598-0.042,0.857,0.542,1.598,0.298
									c0.74-0.243,1.028-0.949,1.65-1.198c1.813-0.727,3.503-1.779,2.591-2.799c-0.911-1.02-3.232-2.195-2.487-2.869
									s1.39,0.529,2.704,0.593c1.315,0.063,5.327,1.187,5.636-0.57c0.309-1.758-0.895-2.047-0.032-2.83
									c0.863-0.783,1.827,0.443,1.589-1.206c-0.237-1.648-0.266-2.56-0.266-2.56"/>
								<path id="Path-57" fill="none" stroke="#FFFFFF" d="M146.256,11.873c0,0-0.201-4.716,2.854-3.825
									c0.437,0.128,1.323,0.962,1.355,1.539c0.055,0.989,0.559-0.876,1.572-0.636c1.015,0.24,0.744,2.813,1.65,3.355
									c0.905,0.542,2.541-1.384,3.049-0.957c0.507,0.428,0.595,1.392,0.774,2.691c0.18,1.301,0.614-2.841,2.394-3.339
									s2.901,1.062,3.842,0.176c0.941-0.886,1.44-1.241,2.351-1.128c0.91,0.114,1.661,0.375,1.058,1.731s0.896-2.743,3.183-2.895
									c2.286-0.15,2.816,1.086,1.638,4.055"/>
								<path id="Path-59" fill="none" stroke="#FFFFFF" d="M206.629-23.227c0,0,2.273-1.899,2.854-0.918s0.412,1.422,0,2.087
									c-0.411,0.666,1.378-1.988,2.241-1.169s0.447,2.245,0,2.871c-0.446,0.626,0.875-1.67,2.256-1.179
									c1.38,0.491,1.126-0.523,1.126-0.523s-0.078-1.789,1.621-2.087c1.7-0.298,3.689,1.381,2.975,3.102
									c-0.715,1.72,0.517,1.269,0.517,2.011s-2.208,1.897-2.197,2.644c0.01,0.745,1.604-0.009,2.197,0
									c0.594,0.008,1.129,0.903,0.745,1.521c-0.383,0.619-0.841,0.892-1.256,1.633c-0.415,0.74,2.163,0,2.409,1.334
									c0.247,1.335-0.385,1.521-0.77,2.023c-0.076,0.1-1.072,1.637-1.129,1.705s0.943-1.042,0.943-1.042s2.928-1.478,3.524-0.404
									s-0.031,1.146-0.669,1.446c-0.638,0.301,0.206,0.7,0.669,1.057c0.464,0.356,1.528,3.33-1.231,3.774
									c-2.761,0.444-3.747,0.249-3.747,0.249"/>
								<path id="Path-60" fill="none" stroke="#FFFFFF" d="M154.063-30.876c1.975-1.46,1.467,1.822,4.495,2.658
									c3.027,0.837-0.67,1.194-0.364,3.589s2.479,0.756,1.734,1.738c-0.743,0.981,1.124,2.116,3.26,1.915s0.714,2.874,1.79,1.267
									s0.577,4.104,1.477,1.904s2.482,1.415,2.482,2.2s1.045-1.744,2.274-2.497c1.229-0.752,2.598,0.22,3.144,1.464
									c0.547,1.244,0.303-0.979,2.192-0.489s1.339,1.981,1.637,1.522c0.299-0.458-0.566-5.068,1.622-5.17
									c2.189-0.103,3.189-0.405,3.492,0.583c0.304,0.988-0.48,2.807-0.238,3.064s1.246-1.86,1.946-0.975
									c0.699,0.887,0.902,2.497,0.299,3.813c-0.604,1.314-0.299,0.686-0.299,0.686s0.813-0.849,1.428-0.443
									c0.674,0.443,0.265,1.412,0.232,2.394s-0.684,1.147-0.517,1.295c0.451,0.396,1.881-3.521,2.769-2.831
									c0.457,0.356,1.597-0.104,2.122,0.212c0.524,0.315,0.39,1.363,0.245,1.792c-0.299,0.886,1.878-1.854,2.85-0.468
									c0.973,1.387-0.96,5.208-0.96,5.208"/>
								<path id="Path-60_1_" fill="none" stroke="#FFFFFF" d="M97.723,19.747c0,0,1.086-1.5,2.446-1.56
									c1.361-0.059,2.062,1.061,2.186,2.166s0.576-0.583,2.167,0.506s0.629,1.943,1.043,1.73c0.415-0.212,1.021-3.854,3.067-3.072
									s3.059,0.955,3.037,1.782c-0.022,0.827-1.297,1.824-1.153,2.104c0.145,0.279,1.714-0.848,2.089,0.062
									c0.374,0.909,0.071,2.143-0.885,2.85s-0.484,0.375-0.484,0.375s1.007-0.291,1.449,0.239
									c0.485,0.581-0.187,1.116-0.514,1.808c-0.328,0.691-0.979,0.556-0.87,0.727c0.294,0.46,2.803-1.789,3.409-0.948
									c0.313,0.435,1.502,0.55,1.89,0.981c0.387,0.431-0.057,1.129-0.319,1.38c-0.545,0.519,2.293-0.596,2.766,0.778
									s-2.469,3.358-2.469,3.358"/>
								<path id="Path-61" fill="none" stroke="#FFFFFF" d="M182.396-21.178l-0.593-1.558c0,0,3.864-3.424-0.944-1.949
									s-1.281-2.491-3.213-3.198s2.02-3.043,0.714-4.356c-1.307-1.313-0.765-3.767-0.765-3.767s0.197,2.575-0.369,2.862
									c-0.567,0.287-1.859,0.016-2.551-1.204s0.003,3.545-1.179,3.421s-2.382-1.798-3.068-1.214
									c-0.686,0.584-0.133,3.174-1.512,2.831c-1.38-0.344-1.991,1-2.63,0.448c-0.639-0.553,0.002-2.399-1.705-3.003
									c-1.707-0.603-3.425,2.956-5.062,1.566c-0.698-0.592-0.559-0.6-0.683-1.566c-0.246-1.925-0.531-2.033,0-3.212
									c0.531-1.178,0.995-2.294,0.642-3.349"/>
								<path id="Path-62" fill="none" stroke="#FFFFFF" d="M160.051,166.487c-2.458,0.196-5.285-0.356-5.911-0.871
									c-0.853-0.702-5.227,1.189-6.593,0.562c-1.365-0.628,0.693-3.61,0.693-3.61s-2.263,3.141-2.414,3.61
									c-0.062,0.191-0.986,0.333-0.971-1.21c0.016-1.544,2.066-5.405,2.066-5.405s-3.671,6.615-3.671,6.054
									c0-0.537-6.303-5.357-6.303-5.357s3.68,3.675,3.531,4.709c-0.148,1.033-1.407,0-1.407,0l-4.015-1.351
									c0,0,3.133,1.214,3.063,2.561s-2.812,0.202-3.063,0.417c-0.756,0.645-1.735-0.645-3.084-0.979
									c-1.35-0.334-2.343,0.51-2.66,0.562c-2.06,0.333-2.241,0.417-3.611,0.417c-1.369,0-2.857-2.978-2.857-2.978
									s0.503,1.93,0,2.561s0.403,0.282,0,0.417c-1.054,0.354-2.992-2.262-2.992-2.262s0.446,3.406-0.668,3.019
									s-4.409,0-3.701-0.757c0.709-0.757-2.107,0.757-2.733,0.757c-0.627,0-0.861,0-0.861,0s-0.775,1.488-1.698,0.683
									s-16.661,0.138-18.327,0s-1.153-0.204-5.971-0.115c-4.816,0.089-9.029,0.392-9.029,0.392"/>
								<path id="Path-63" fill="none" stroke="#FFFFFF" d="M170.038,162.219c-0.023-0.354,0.709,0.034,1.083-0.719
									s0.829-3.391,0.829-3.391s0.564,1.883,0,3.81c-0.564,1.928,0,2.157,0,2.157s0.693-2.359,2.339-3.545
									s4.017-4.357,4.017-4.357s-1.693,3.965-3.571,5.326c-1.878,1.36-0.912,3.234-0.445,3.471c0.468,0.236,0.75,0.28,1.437-0.383
									c0.688-0.663,1.825-2.669,1.825-2.669s-1.066,3.298,0,3.052c1.066-0.245,1.992-0.383,1.992-0.383s-1.473,1.172,0,1.172
									s5.018,0.111,5.716,0.367s2.913,0.642,2.913,0.642s1.332,0.34,2.361,0.318s1.718-1.327,1.718-1.327s0.818,0.671,1.118,0.739
									c0.3,0.069,1.023,0.368,1.816-0.372c0.792-0.74,0.635,1.92,2.026,0.96c1.393-0.96,2.966-1.327,2.966-1.327
									s-0.887,1.024,0,1.327c0.887,0.304,2.352,0.698,2.75,0.698s2.791-0.473,7.795,0c2.169,0.205,3.993,1.001,5.458,1.296
									c1.466,0.295,4.332,0.255,4.332,0.255"/>
								<path id="Path-64" fill="none" stroke="#FFFFFF" d="M148.53,72.202c0,0-3.65,1.724-2.434,3.918s5.39,5.039,5.39,5.039"/>
								<path id="Path-65" fill="none" stroke="#FFFFFF" d="M152.042,84.838c0,0-1.071-3.014-0.278-4.075
									c0.793-1.063,0.429-3.564,0-3.961c-0.205-0.189-0.216-1.147-1.22-2.208c-1.003-1.06-2.26-2.145-2.05-3.011
									c0.159-0.655-0.295-1.035-0.59-1.513c-0.296-0.479-0.921-1.411-1.282-1.451c-0.599-0.066-1.805-2.972-2.283-4.416
									c-0.191-0.578,0.03-1.62,0-2.774s-0.021-2.451-0.275-3.308c-0.254-0.856-0.792-1.238-1.301-2.135s-0.417-2.194-0.575-3.03"
									/>
								<path id="Path-66" fill="none" stroke="#FFFFFF" d="M149.004,53.087l2.361-0.556c0,0,1.15,2.507,1.594,2.951
									s0.64,1.924,0.694,2.867c0.054,0.942,0.983,2.71,1.539,4.199s0.502,10.014,0,10.014c-0.197,0-0.159-0.69-1.223-4.039
									c-0.394-1.238-0.968-1.58-1.674-3.66c-0.706-2.081-0.887-3.927-0.887-4.019c0-0.238-1.212-2.495-1.624-3.018
									c-0.411-0.522-0.371-1.566,0-1.956c0.372-0.389,0.311-0.961-0.154-1.506S149.004,53.087,149.004,53.087z"/>
								<path id="Path-67" fill="none" stroke="#FFFFFF" d="M165.965,156.043c0.035,1.436,1.894,2.327,2.743,3.572
									s0.507,1.884,2.384,3.82s3.692,2.51,4.03,2.257"/>
								<path id="Path-68" fill="none" stroke="#FFFFFF" d="M146.614-27.929c0,0,2.046,0.507,2.644,0
									c0.598-0.506,0.404-1.087,0.107-1.319c-1.196-0.937,0.779,0.428,1.742,0.607s2.046,0.079,1.502-0.803
									s-0.398-1.222-0.398-1.331s1.617,1.526,1.617,0.624c0-0.903,1.374-1.729,0-2.785c-1.374-1.056,1.592,0,2.433-0.113
									c0.841-0.114,0.569-0.748,0.264-1.509c-0.306-0.762,0.221,0.167,1.059,0.167c0.375,0,0.945-0.425,1.196-0.623
									s0.426-0.908,0.468-1.064"/>
								<path id="Path-69" fill="none" stroke="#FFFFFF" d="M164.168-20.406c0,0,0.948-1.696,0.45-2.366
									c-0.497-0.67-2.019-2.234-2.019-2.873c0-0.638-0.897-1.65-1.449-1.803c-0.551-0.152-1.087-2.542-1.087-2.542"/>
								<path id="Path-70" fill="none" stroke="#FFFFFF" d="M170.086-17.498c0,0-0.313-2.772,0.632-3.762
									c0.945-0.988,2.354-3.265,2.61-3.867c0.256-0.603,2.936-8.163,2.936-8.163"/>
								<path id="Path-71" fill="none" stroke="#FFFFFF" d="M162.77-31.239c0,0-0.361,2.703,0.353,3.485
									c0.715,0.782,2.885,2.003,2.885,2.727c0,0.725,1.811,2.581,1.811,3.125c0,0.545,0.297,1.322,0.447,0.942
									c0.149-0.38,1.279-2.205,1.38-2.786s1.098-2.563,1.491-2.861s2.418-3.798,2.172-4.215"/>
							</g>
						</g>
						<g id="дом1" transform="translate(149.478078, 0.884848)">
							<g id="Mask">
							</g>
							<defs>
								
									<filter id="Adobe_OpacityMaskFilter" filterUnits="userSpaceOnUse" x="56.827" y="-49.345" width="729.219" height="237.779">
									<feColorMatrix  type="matrix" values="1 0 0 0 0  0 1 0 0 0  0 0 1 0 0  0 0 0 1 0"/>
								</filter>
							</defs>
							<mask maskUnits="userSpaceOnUse" x="56.827" y="-49.345" width="729.219" height="237.779" id="mask-2_1_">
								<g filter="url(#Adobe_OpacityMaskFilter)">
									<path id="path-1_1_" fill="#FFFFFF" d="M127.892-68.879l609.882-12.566c5.566,35.786,11.083,60.572,16.549,74.358
										c0.624,1.573,3.709,6.335,0.55,9.03c-0.62,0.528-3.07,0.779-7.352,0.751c-1.118,0.399-1.926,0.563-2.42,0.488
										c-1.445-0.218-2.626-1.166-3.394-0.488c-1.163,1.025-1.596,2.813-1.298,5.362c-1.16,6.513-1.546,10.699-1.157,12.561
										c0.348,1.664,1.305,3.654,2.455,4.456c0.985,0.687,2.174,0.217,2.547,1.125c1.016,2.476,1.889,4.8,2.979,5.061
										c0.373,0.089,1.004-0.39,1.891-1.436l0.627,8.789c0.042,1.349-0.167,2.318-0.627,2.908
										c-0.459,0.591-1.692,1.524-3.699,2.803c-0.217,3.558-0.103,5.626,0.345,6.204c0.446,0.577,1.564,0.329,3.354-0.744
										l2.736,18.438l43.259-5.048V209.67H50.381c-2.968-84.77-1.286-134.902,5.046-150.398c0.279-0.687,0.332,0.955,1.87,0.984
										c1.539,0.028,2.603,1.247,3.824,2.917c1.257,1.719,3.013,5.02,5.265,9.902c1.099-0.05,1.847-0.145,2.244-0.284
										c1.084-0.38,1.684-1.102,2.129-1.476c0.859-0.722,0.547-2.777,1.771-2.201c0.524,0.246,1.07,1.326,1.73,1.279
										c0.881-0.063,1.891-1.311,2.603-1.279c2.053,0.089,1.266,1.448,2.736,2.927c1.264,1.271,3.271,0.813,3.723,0.167
										c0.227-0.325,0.835-0.98,1.594-1.814c0.299-0.328,0.327,1.534,1.467,1.647c1.045,0.104,3.203-1.534,3.511-1.901
										c0.407-0.486,1.185-3.379,0.78-4.032c-0.309-0.498-1.754,1.281-1.916,0.668c-0.205-0.78,0.551-2.07,0.733-2.505
										c0.382-0.908-1.214-0.321-1.171-1.249c0.021-0.435-0.916-1.807,1.049-2.451c1.479-0.485,4.898,0.107,5.559-1.521
										c-0.178-1.157,1.094-19.241,0.412-20.17c-0.148-0.202-1.131-0.995-2.625-1.501c-0.508-0.171-1.389-0.322-2.646-0.451
										l-0.176-2.153l-3.894-0.726l0.563-3.197l-1.674-2.574c2.416-0.729,4.143-1.422,5.181-2.078
										c1.038-0.655,1.839-1.56,2.403-2.713l16.682-21.542l2.807-13.573L127.892-68.879z"/>
								</g>
							</mask>
							<g mask="url(#mask-2_1_)">
								<g transform="translate(8.844857, 32.739394)">
									<polygon id="Path-25" fill="none" stroke="#FFFFFF" stroke-width="1.2595" points="324.972,-39.139 324.896,97.801 
										455.24,91.101 455.24,-29.637 									"/>
									<polygon id="Path-25_1_" fill="none" stroke="#FFFFFF" stroke-width="1.2595" points="327.124,-33.572 327.124,92.235 
										450.784,86.123 450.784,-24.848 									"/>
									<polyline id="Path-26" fill="none" stroke="#FFFFFF" stroke-width="1.2595" points="481.977,-59.179 481.977,104.881 
										401.765,110.458 401.765,143.448 									"/>
									<polyline id="Path-27" fill="none" stroke="#FFFFFF" stroke-width="1.2595" points="48.612,-16.694 284.183,-79.844 
										483.413,-59.013 483.413,-60.819 284.183,-81.446 100.673,-32.296 48.612,-18.353 48.612,-16.624 48.612,27.606 
										48.612,93.851 284.183,154.581 401.569,142.22 436.395,148.544 519.854,139.805 									"/>
									<polygon id="Path-28" fill="none" stroke="#FFFFFF" stroke-width="1.2595" points="171.158,-21.163 227.974,-31.345 
										227.974,92.235 171.158,84.845 									"/>
									<polygon id="Path-28_1_" fill="none" stroke="#FFFFFF" stroke-width="1.2595" points="176.728,-16.648 225.746,-25.779 
										225.746,87.781 176.728,81.362 									"/>
									<polyline id="Path-29" fill="none" stroke="#FFFFFF" stroke-width="1.2595" points="481.977,-36.433 504.027,-34.685 
										533.308,-37.511 551.047,-36.433 551.047,-37.828 533.308,-39.139 504.027,-36.066 481.977,-38.202 									"/>
									<polyline id="Path-30" fill="none" stroke="#FFFFFF" stroke-width="1.2595" points="504.257,-34.557 504.257,89.551 
										533.223,91.122 533.053,-39.139 									"/>
									<path id="Path-31" fill="none" stroke="#FFFFFF" stroke-width="1.2595" d="M481.977-10.192l21.167,1.113"/>
									<polyline id="Path-32" fill="none" stroke="#FFFFFF" stroke-width="1.2595" points="481.977,88.894 502.123,89.9 
										504.257,90.007 									"/>
									<path id="Path-33" fill="none" stroke="#FFFFFF" stroke-width="1.2595" d="M501.502-9.079l-0.06,97.973"/>
									<path id="Path-34" fill="none" stroke="#FFFFFF" stroke-width="1.2595" d="M533.223,91.122l115.86-5.567"/>
									<polygon id="Path-35" fill="none" stroke="#FFFFFF" stroke-width="1.2595" points="519.854,140.853 570.332,147.901 
										690.303,133.34 690.303,125.634 570.332,139.978 519.854,132.783 									"/>
									<polygon id="Path-35_1_" fill="none" stroke="#FFFFFF" stroke-width="1.2595" points="532.109,131.073 570.913,136.768 
										669.136,125.048 669.136,117.841 570.647,128.648 532.109,123.042 									"/>
									<polygon id="Path-35_2_" fill="none" stroke="#FFFFFF" stroke-width="1.2595" points="544.364,122.538 569.468,125.634 
										645.742,118.117 645.742,111.161 569.366,117.607 544.364,115.17 									"/>
									<polyline id="Path-22" fill="none" stroke="#FFFFFF" stroke-width="1.2595" points="644.627,110.047 644.691,117.642 
										667.87,118.152 667.87,125.125 690.303,125.463 690.303,133.427 									"/>
									<polyline id="Path" fill="none" stroke="#FFFFFF" stroke-width="1.2595" points="691.417,125.382 668.437,125.146 
										668.437,118.391 645.043,117.86 644.94,110.779 626.287,107.821 543.676,114.879 543.676,122.415 531.603,123.35 
										531.603,131.126 519.854,132.314 									"/>
									<polyline id="Path-36" fill="none" stroke="#FFFFFF" stroke-width="1.2595" points="568.872,117.841 568.872,126.034 
										570.345,129.378 570.345,137.115 571.1,139.971 571.1,147.901 									"/>
									<polyline id="Path-37" fill="none" stroke="#FFFFFF" stroke-width="1.2595" points="401.765,110.12 436.619,114.52 
										776.085,88.894 776.085,112.246 668.086,123.408 									"/>
									<path id="Path-38" fill="none" stroke="#FFFFFF" stroke-width="1.2595" d="M644.627,113.388l131.458-11.134"/>
									<polyline id="Path-39" fill="none" stroke="#FFFFFF" stroke-width="1.2595" points="532.109,122.788 436.487,132.438 
										401.708,126.62 284.272,136.768 48.612,86.668 									"/>
									<path id="Path-40" fill="none" stroke="#FFFFFF" stroke-width="1.2595" d="M436.858,114.501v34.513"/>
									<path id="Rectangle-42" fill="none" stroke="#FFFFFF" stroke-width="1.2595" d="M82.516,73.661l-0.205-78.64L60.383-0.835
										v70.313L82.516,73.661z"/>
									<path id="Rectangle-42_1_" fill="none" stroke="#FFFFFF" stroke-width="1.2595" d="M82.436,69.206l0.081-70.842
										l-17.679,3.39v64.078L82.436,69.206z"/>
									<rect id="Rectangle-46" x="80.92" y="-1.286" fill="#FFFFFF" width="1.113" height="70.141"/>
									<rect id="Rectangle-46_1_" x="78.692" y="-1.286" fill="#FFFFFF" width="1.113" height="70.141"/>
									<rect id="Rectangle-46_2_" x="74.235" y="-0.172" fill="#FFFFFF" width="1.115" height="67.913"/>
									<rect id="Rectangle-46_3_" x="72.007" y="0.941" fill="#FFFFFF" width="1.114" height="66.8"/>
									<rect id="Rectangle-46_4_" x="68.665" y="0.941" fill="#FFFFFF" width="1.114" height="65.687"/>
									<rect id="Rectangle-46_5_" x="67.551" y="0.941" fill="#FFFFFF" width="1.114" height="65.687"/>
									<path id="Rectangle-42_2_" fill="none" stroke="#FFFFFF" stroke-width="1.2595" d="M111.629-9.616v86.812l12.108,2.047
										v-90.916L111.629-9.616z"/>
									<path id="Rectangle-42_3_" fill="none" stroke="#FFFFFF" stroke-width="1.2595" d="M117.2-6.037v79.651l6.538,1.168V-7.212
										L117.2-6.037z"/>
									<path id="Rectangle-43" fill="none" stroke="#FFFFFF" stroke-width="1.2595" d="M186.27-18.037V82.422l2.082,0.209V-18.363
										L186.27-18.037z"/>
									<path id="Rectangle-43_1_" fill="none" stroke="#FFFFFF" stroke-width="1.2595" d="M199.639-21.329V82.339l2.082,0.271
										V-21.69L199.639-21.329z"/>
									<path id="Rectangle-43_2_" fill="none" stroke="#FFFFFF" stroke-width="1.2595" d="M214.121-23.482V85.661l2.082,0.285
										V-23.898L214.121-23.482z"/>
									<polyline id="Rectangle-33" fill="#FFFFFF" points="739.355,86.668 777.201,88.23 777.17,89.102 739.385,87.542 									
										"/>
									
										<rect id="Rectangle-10" x="285.42" y="-80.816" fill="none" stroke="#FFFFFF" stroke-width="1.2595" width="1" height="235.881"/>
									
										<rect id="Rectangle-10_1_" x="83.778" y="-24.036" fill="none" stroke="#FFFFFF" stroke-width="1.2595" width="1" height="117.867"/>
									
										<rect id="Rectangle-10_2_" x="111.629" y="-32.942" fill="none" stroke="#FFFFFF" stroke-width="1.2595" width="1" height="132.34"/>
									
										<rect id="Rectangle-10_3_" x="123.883" y="-36.283" fill="none" stroke="#FFFFFF" stroke-width="1.2595" width="1" height="137.907"/>
									
										<rect id="Rectangle-10_4_" x="171.787" y="-48.529" fill="none" stroke="#FFFFFF" stroke-width="1.2595" width="1" height="161.287"/>
									<rect id="Rectangle-12" x="649.083" y="-39.139" fill="#FFFFFF" width="1.114" height="136.94"/>
									<rect id="Rectangle-12_1_" x="655.768" y="-39.139" fill="#FFFFFF" width="1.114" height="136.94"/>
									<rect id="Rectangle-12_2_" x="671.365" y="-36.913" fill="#FFFFFF" width="1.114" height="132.487"/>
									<rect id="Rectangle-12_3_" x="678.049" y="-36.913" fill="#FFFFFF" width="1.113" height="132.487"/>
									<rect id="Rectangle-12_4_" x="693.646" y="-34.685" fill="#FFFFFF" width="1.113" height="129.146"/>
									<rect id="Rectangle-12_5_" x="699.216" y="-34.685" fill="#FFFFFF" width="1.113" height="129.146"/>
									<rect id="Rectangle-12_6_" x="712.584" y="-33.572" fill="#FFFFFF" width="1.114" height="125.807"/>
									<rect id="Rectangle-12_7_" x="719.269" y="-33.572" fill="#FFFFFF" width="1.113" height="125.807"/>
									<rect id="Rectangle-12_8_" x="732.637" y="-31.345" fill="#FFFFFF" width="1.114" height="122.467"/>
									<path id="Rectangle-47" fill="none" stroke="#FFFFFF" stroke-width="1.2595" d="M678.679-46.237v8.695h5.424V-45.7
										L678.679-46.237z"/>
									<path id="Rectangle-47_1_" fill="none" stroke="#FFFFFF" stroke-width="1.2595" d="M699.95-43.996l-0.097,8.6l4.304,0.07
										v-8.16L699.95-43.996z"/>
									<path id="Rectangle-47_2_" fill="none" stroke="#FFFFFF" stroke-width="1.2595" d="M721.095-41.759l-0.076,7.488
										l3.19,0.058v-7.126L721.095-41.759z"/>
									<path id="Rectangle-47_3_" fill="none" stroke="#FFFFFF" stroke-width="1.2595" d="M740.034-39.533l-0.076,7.488
										l3.19,0.058v-7.126L740.034-39.533z"/>
									
										<rect id="Rectangle-49" x="661.305" y="-48.231" transform="matrix(-0.9945 -0.1045 0.1045 -0.9945 1341.7469 -25.029)" fill="#FFFFFF" width="17.825" height="1.114"/>
									
										<rect id="Rectangle-49_1_" x="683.596" y="-46.178" transform="matrix(-0.9945 -0.1045 0.1045 -0.9945 1382.6591 -18.7894)" fill="#FFFFFF" width="14.483" height="1.114"/>
									
										<rect id="Rectangle-49_2_" x="704.762" y="-42.839" transform="matrix(-0.9945 -0.1045 0.1045 -0.9945 1424.5271 -9.9158)" fill="#FFFFFF" width="14.483" height="1.114"/>
									<polygon id="Rectangle-49_3_" fill="#FFFFFF" points="724.915,-41.366 740.423,-39.708 740.31,-38.628 724.802,-40.286 
																			"/>
									<path id="Rectangle-48" fill="none" stroke="#FFFFFF" stroke-width="1.2595" d="M706.193-40.555l13.561,6.015v-7.249
										L706.193-40.555z M705.041-41.066l1.151,0.511l-1.35,0.123l-0.058-0.628h0.253h0.017h0.36v0.57h-0.63L705.041-41.066z"/>
									<path id="Rectangle-48_1_" fill="none" stroke="#FFFFFF" stroke-width="1.2595" d="M726.403-38.409l13.403,6.086v-7.243
										L726.403-38.409z M725.099-39l1.304,0.592l-1.508,0.13l-0.055-0.627l0.63,0.002l-0.002,0.479l-0.629-0.002L725.099-39z"/>
									<rect id="Rectangle-12_9_" x="738.207" y="-31.345" fill="#FFFFFF" width="1.114" height="122.467"/>
									<rect id="Rectangle-45" x="356.089" y="-32.458" fill="#FFFFFF" width="1.114" height="123.58"/>
									<rect id="Rectangle-45_1_" x="360.545" y="-31.345" fill="#FFFFFF" width="1.114" height="121.353"/>
									<rect id="Rectangle-45_2_" x="388.397" y="-29.119" fill="#FFFFFF" width="1.114" height="118.013"/>
									<rect id="Rectangle-45_3_" x="395.081" y="-29.119" fill="#FFFFFF" width="1.113" height="118.013"/>
									<rect id="Rectangle-45_4_" x="421.818" y="-26.892" fill="#FFFFFF" width="1.114" height="114.673"/>
									<rect id="Rectangle-45_5_" x="425.16" y="-26.892" fill="#FFFFFF" width="1.113" height="114.673"/>
									<path id="Rectangle-44" fill="none" stroke="#FFFFFF" stroke-width="1.2595" d="M552.791-12.859v92.183l84.522-4.492
										V-7.155L552.791-12.859z"/>
									<rect id="Rectangle-45_6_" x="572.214" y="-9.079" fill="#FFFFFF" width="1.114" height="83.5"/>
									<rect id="Rectangle-45_7_" x="574.443" y="-9.079" fill="#FFFFFF" width="1.113" height="83.5"/>
									<rect id="Rectangle-45_8_" x="592.267" y="-6.852" fill="#FFFFFF" width="1.114" height="81.273"/>
									<rect id="Rectangle-45_9_" x="597.837" y="-6.852" fill="#FFFFFF" width="1.114" height="80.16"/>
									<rect id="Rectangle-45_10_" x="613.434" y="-5.739" fill="#FFFFFF" width="1.114" height="77.934"/>
									<rect id="Rectangle-45_11_" x="615.662" y="-5.739" fill="#FFFFFF" width="1.114" height="77.934"/>
									<rect id="Rectangle-45_12_" x="595.61" y="-6.852" fill="#FFFFFF" width="1.113" height="80.16"/>
									<path id="Rectangle-44_1_" fill="none" stroke="#FFFFFF" stroke-width="1.2595" d="M556.133-9.519v84.39l77.832-4.112
										l-0.701-75.113L556.133-9.519z"/>
									
										<rect id="Rectangle-14" x="661.339" y="-41.075" transform="matrix(-0.9986 -0.0523 0.0523 -0.9986 1335.0245 -46.0789)" fill="#FFFFFF" width="11.14" height="1.114"/>
									
										<rect id="Rectangle-14_1_" x="661.339" y="-44.415" transform="matrix(-0.9986 -0.0523 0.0523 -0.9986 1335.1995 -52.755)" fill="#FFFFFF" width="11.14" height="1.113"/>
									
										<rect id="Rectangle-14_2_" x="683.619" y="-38.829" transform="matrix(-0.9976 -0.0698 0.0698 -0.9976 1377.1433 -28.4258)" fill="#FFFFFF" width="8.912" height="1.113"/>
									
										<rect id="Rectangle-14_3_" x="683.619" y="-42.169" transform="matrix(-0.9976 -0.0698 0.0698 -0.9976 1377.3765 -35.0974)" fill="#FFFFFF" width="8.912" height="1.113"/>
									<polygon id="Rectangle-14_4_" fill="#FFFFFF" points="704.837,-36.913 713.725,-36.253 713.651,-35.18 704.81,-35.862 
																			"/>
									<polygon id="Rectangle-14_5_" fill="#FFFFFF" points="704.918,-40.247 714.835,-39.466 714.764,-38.442 704.767,-39.206 
																			"/>
									
										<rect id="Rectangle-14_6_" x="724.841" y="-35.567" transform="matrix(-0.9976 -0.0698 0.0698 -0.9976 1457.0339 -19.0833)" fill="#FFFFFF" width="6.684" height="1.113"/>
									
										<rect id="Rectangle-14_7_" x="724.841" y="-37.794" transform="matrix(-0.9976 -0.0698 0.0698 -0.9976 1457.1895 -23.531)" fill="#FFFFFF" width="6.684" height="1.113"/>
									<path id="Path-2" fill="none" stroke="#FFFFFF" stroke-width="1.2595" d="M740.435-31.345l-20.053,1.113"/>
									<path id="Path-3" fill="none" stroke="#FFFFFF" stroke-width="1.2595" d="M713.699-29.119l-13.369,1.113"/>
									<path id="Path-4" fill="none" stroke="#FFFFFF" stroke-width="1.2595" d="M692.532-28.005l-14.482,1.113"/>
									<polyline id="Path-6" fill="none" stroke="#FFFFFF" stroke-width="1.2595" points="649.083,-24.552 634.601,-23.552 
										634.601,-26.892 									"/>
									<path id="Path-7" fill="none" stroke="#FFFFFF" stroke-width="1.2595" d="M720.382-33.572l-20.053,1.113"/>
									<path id="Path-8" fill="none" stroke="#FFFFFF" stroke-width="1.2595" d="M693.646-31.345l-14.483,1.113"/>
									<path id="Path-9" fill="none" stroke="#FFFFFF" stroke-width="1.2595" d="M672.479-29.119l-16.711,1.113"/>
									<polyline id="Path-10" fill="none" stroke="#FFFFFF" stroke-width="1.2595" points="649.083,-27.422 615.662,-24.665 
										615.737,-28.005 									"/>
									<path id="Path-5" fill="none" stroke="#FFFFFF" stroke-width="1.2595" d="M671.365-25.779l-15.597,1.113"/>
									<polyline id="Path-11" fill="none" stroke="#FFFFFF" stroke-width="1.2595" points="684.072,-43.06 700.329,-44.706 
										700.329,-35.451 679.162,-33.572 									"/>
									<path id="Path-12" fill="none" stroke="#FFFFFF" stroke-width="1.2595" d="M671.365-33.572l-15.597,1.113"/>
									<polyline id="Path-13" fill="none" stroke="#FFFFFF" stroke-width="1.2595" points="650.198,-31.345 595.61,-26.892 
										595.61,-30.168 									"/>
									<path id="Path-16" stroke="#FFFFFF" stroke-width="1.2595" d="M732.637,88.041l-12.255-0.519"/>
									<path id="Path-17" fill="none" stroke="#FFFFFF" stroke-width="1.2595" d="M700.329,86.392l13.369,0.552"/>
									<path id="Path_1_" fill="none" stroke="#333333" stroke-width="1.2595" d="M678.049-38.026l-22.281,2.228"/>
									<polyline id="Path_2_" fill="none" stroke="#FFFFFF" stroke-width="1.2595" points="649.083,-34.685 573.328,-28.005 
										573.328,-31.789 									"/>
									<path id="Path-18" fill="none" stroke="#FFFFFF" stroke-width="1.2595" d="M693.646,85.847l-14.483-0.585"/>
									<polygon id="Path_3_" fill="none" stroke="#FFFFFF" stroke-width="1.2595" points="678.049,-46.932 683.619,-46.304 
										683.619,-38.026 678.049,-38.026 									"/>
									<path id="Path_4_" fill="none" stroke="#FFFFFF" stroke-width="1.2595" d="M661.338-44.706l16.711-2.227"/>
									<path id="Path-19" fill="none" stroke="#FFFFFF" stroke-width="1.2595" d="M655.768,85.197l16.711,0.716"/>
									<polygon id="Path-20" fill="none" stroke="#FFFFFF" stroke-width="1.2595" points="655.768,-50.272 661.338,-49.587 
										661.338,-40.252 655.768,-40.252 									"/>
									<polyline id="Path-41" fill="none" stroke="#FFFFFF" stroke-width="1.2595" points="655.61,-40.217 551.047,-30.232 
										551.047,-38.933 655.768,-50.272 									"/>
								</g>
							</g>
						</g>
						<g id="деревья-_x2F_-дерево">
							<g id="дерево">
								<path id="Path-15_1_" fill="none" stroke="#FFFFFF" d="M173.235,177.538c0,0-8.837-16.709-8.392-20.851
									c0.446-4.142-3.69-6.635-5.149-11.15c-1.461-4.516-1.671-16.246-3.334-24.747s-3.484-9.918-4.285-14.192
									c-0.799-4.274,0.295-11.171,0.187-11.332"/>
								<path id="Path-21_1_" fill="none" stroke="#FFFFFF" d="M133.728,175.946c0,0,1.035-5.533,1.806-7.957
									c0.771-2.425-0.833-1.58,0.771-10.535c1.603-8.955,2.719-11.445,3.4-12.763c0.683-1.318,0.887-7.619,0-12.282
									c-0.886-4.664-1.67-13.336-1.67-14.657s0.211-2.46,0.814-3.65c0.603-1.191,0.379-8.217,0-11.967
									c-0.381-3.75-0.814-4.258-0.814-6.1s0.743-7.957,1.123-9.497c0.379-1.541-1.123-7.22-1.123-7.22"/>
								<path id="Path-23_1_" fill="none" stroke="#FFFFFF" d="M147.231,100.44c0,0,13.666-13.882,13.492-14.843
									c-0.175-0.961,5.143-3.728,6.128-6.487s-0.302-5.98,0.985-7.996s13.506-11.581,14.986-15.35
									c1.482-3.769,3.084-7.655,3.583-7.584s-1.997,0-1.997,0s-0.639,1.059-1.586,1.418c-0.946,0.359-2.012,0-2.012,0
									s-2.354,4.014-3.736,5.716c-1.383,1.702-7.134,7.736-7.134,7.736c-0.193,0.203-0.36,0.15-0.374-0.142
									c0,0-0.378-7.589,0.031-8.254c0.41-0.665,0.813-4.505,0.729-5.249s2.575-4.723,2.575-4.723s0.106,0.046-0.686-0.228
									c-0.791-0.273-1.771,0.071-1.549-0.401c0.142-0.299-1.422,2.71-3.108,5.945c-1.687,3.236-2.282,3.763-2.591,5.334
									c-0.365,1.873,0.048,4.016,0,6.364c-0.047,2.349-0.56,6.146-1.037,7.322c-0.849,2.094-0.783,2.246-1.05,3.125
									s-2.745,4.167-2.745,5.165c0,0.997-0.45,2.196-0.45,2.196s-3.737,3.783-5.583,5.488c-1.846,1.704-6.217,4.917-6.217,4.917"
									/>
								<path id="Path-24_1_" fill="none" stroke="#FFFFFF" d="M148.063,92.513c0,0,0.246-1.433,0-2.565
									c-0.244-1.133-2.048-7.837-1.939-10.909c0.057-1.619-0.973-1.449-0.973-5.569s-0.287-11.676,0.797-15.208
									c1.336-4.353,12.666-13.892,13.99-14.918c1.325-1.027,2.818-1.085,3.471-1.491c0.686-0.428-2.107-0.112-1.906-0.742
									s-0.094-3.038-0.094-3.038s-2.125,0.186-2.686,0.186c-0.081,0,0.119,0.423-0.248,0.759
									c-0.366,0.337-2.699,2.627-3.576,3.724c-1.395,1.743-2.771,4.065-4.772,5.912c-2.001,1.848-4.674,3.712-5.708,3.712
									s-2.523-6.209-2.523-9.896c0-2.149-2.574-3.451-3.628-6.567c-1.054-3.117-1.018-8.021-1.018-8.021s-1.351-0.007-1.958-0.163
									s-0.658-0.255-0.658-0.255c-0.486-0.267-0.973-0.045-1.238,0.423c0,0,0.252,0.226-0.385,0.11
									c-0.636-0.115-0.175,0.747-0.175,0.747s0.263,3.482,1.481,4.654s1.695,1.841,1.985,3.259
									c0.29,1.417,2.495,7.902,2.229,14.953c-0.265,7.05-1.697,9.94-1.964,12.266c-0.266,2.324,0.011,5.81,0.011,5.81"/>
								<path id="Path-43_1_" fill="none" stroke="#FFFFFF" d="M140.463,82.908c0,0-12.23-18.182-19.044-22.426
									c-6.814-4.244-6.658-4.452-7.057-5.15c-0.396-0.698-2.328-6.447-4.416-8.139c-2.087-1.691-7.764-4.837-10.441-6.087
									c-0.362-0.169-1.639-0.618-1.639-0.618s0.777-0.444,1.013-0.881s0.363-1.437,0.363-1.437s3.169,0.586,6.979,2.206
									c3.811,1.621,5.707,3.112,8.141,5.003c0.139,0.106,0.307,0.417,0.397,0.28c0.378-0.572,0.782-6.703,1.094-11.123
									s0.39-4.543,0.39-4.543s0.639,0.412,1.047,0.497s1.338,0,1.338,0s-0.445,19.061,0.868,21.342
									c1.313,2.282,7.713,5.024,9.827,6.506c2.113,1.482,7.475,6.498,7.475,6.498"/>
								<path id="Path-44_1_" fill="none" stroke="#FFFFFF" d="M145.683,59.293v0.805c0,0,0.257,1.47,1.416,2.384
									c1.158,0.914,2.449,0.586,2.479,0.638c0.077,0.127-1.256,3.653,0.574,4.546c2.193,1.068,4.416-0.819,4.629-0.703
									c0.215,0.116-4.166,8.585,2.966,6.106c0,0,0.493,3.441,3.394,1.965"/>
								<path id="Path-45_1_" fill="none" stroke="#FFFFFF" d="M203.901,15.1c0,0,2.264,1.757,1.509,3.474s-0.934,2.385-0.467,3.167
									c0.467,0.781,3.456,2.184,1.962,2.291c-1.495,0.107-4.318-0.447-4.178,0.335c0.139,0.781,2.668,2.953,2.441,4.049
									c-0.226,1.096-3.998-0.227-3.691,0.648s2.217,2.552,1.108,3.734s0.321,4.51-0.394,5.277
									c-0.715,0.769-4.961-1.576-5.582-0.788s-0.936,1.129-0.468,1.904c0.468,0.774,3.202-0.072,2.436,1.471
									s-5.019,2.896-5.95,4.056c-0.933,1.159-3.762,0.081-4.133,0.824c-0.373,0.743-0.223,2.347-1.057,2.486
									c-0.834,0.141-3.002,0.289-3.002,0.289s-0.372,0.695-1.642,1.119c-0.573,0.191-1.811,0.344-2.599-0.367
									c-0.789-0.712-1.271-2.392-1.337-2.514c-0.553-1.014-1.365,0.583-1.694,0.142c-0.33-0.441,0.221-1.667,0-1.667
									c-0.223,0-2.297,1.326-3.465,0.391c-1.17-0.936,0.519,0.29-0.59-0.915c-1.107-1.204-4.238,0.721-2.572-2.521
									c0.572-1.111-0.753-0.239-1.284-0.38c-0.53-0.14-0.546-0.578,0.182-2.099c0.142-0.297-1.177,1.309-2.954,2.033
									c-1.776,0.725-5.305,0.436-4.916-0.613c0.686-1.847,0.049-2.656,0.049-2.656s-5.746,0.916-5.229-2.563
									c0.518-3.479,0.248-2.637,0.673-3.682c0.426-1.044,4.702-3.839,5.574-4.968c0.871-1.128-1.26-3.98,1.937-4.648
									c0.58-0.122,1.193,0.062,1.651,0"/>
								<path id="Path-46" fill="none" stroke="#FFFFFF" d="M157.493,12.917c0,0-3.536,5.278,2.473,3.951
									c1.82-0.402-0.805,1.603,0,2.756s1.555,0.729,3.258,0c1.21-0.519-2.355,2.832,3.832,2.832c1.857,0,3.056-1.201,2.803-1.687
									c-0.254-0.485,2.674,0.792,4.803-1.982"/>
								<path id="Path-47_1_" fill="none" stroke="#FFFFFF" d="M111.11,25.647c-0.831,0.782-1.262,5.219,1.229,5.219
									s3.166-2.299,3.411-2.476s0.488,2.788,3.919,1.911c3.43-0.877,2.659-2.673,2.606-3.217
									c-0.054-0.545,0.762-0.962,1.181-0.392c0.42,0.57,0.396,3.227,2.213,2.997c1.816-0.23,1.783-2.345,2.412-2.476
									c0.629-0.13,1.61,1.923,3.473,1.676c1.863-0.247,2.162-1.745,2.273-1.971c0.111-0.227,4.241,2.665,6.572,0.165
									c2.33-2.501-1.459-2.882-0.736-3.467c0.725-0.585,2.83,0.323,4.096-1.229c1.266-1.552-3.492-4.855-2.746-5.52
									c0.744-0.663,7.78,0.477,7.78-3.785s-5.341-5.058-5.341-5.058"/>
								<path id="Path-48_1_" fill="none" stroke="#FFFFFF" d="M70.483,34.674c0,0-2.271,1.728-1.514,3.446
									c0.332,0.755,1.301,1.445,2.234,1.547c0.934,0.101,2.375-0.443,2.618-0.266c0.433,0.316-0.187,1.296-0.833,2.587
									c-0.647,1.291,1.31,2.284,2.813,1.142c1.504-1.142-2.086,3.093,2.322,3.12c4.41,0.028,5.09-2.7,4.479-3.48
									c-0.609-0.781-0.933-1.561-0.074-2.535s2.347,2.265,4.41,2.733c2.279,0.518,2.281-2.35,2.281-2.825s1.542,0.962,3.252,0.736
									c1.71-0.227,2.491-1.561,2.729-1.212c0.545,0.795,2.773,1.713,3.619,0c0.847-1.714,0.629-5.486-2.863-5.746"/>
								<path id="Path-49_1_" fill="none" stroke="#FFFFFF" d="M102.575-7.143c0,0-2.223-0.9-3.36-0.026s-1.974,1.284-3.104,2.245
									s-0.74,1.76-0.37,2.282s2.13,0.436,1.781,0.871c-0.348,0.435-2.788,2.071-3.401,3.124c-0.611,1.052-0.567,3.104,0.526,3.195
									s2.274-0.298,2.372,0.083s-1.284,0.28-1.988,1.424c-0.703,1.143,0.301,1.391,1.484,2.684
									c1.184,1.294,1.875,2.473,2.508,2.183c0.436-0.2,1.104-1.117,1.795-1.459c0.691-0.341,1.053-0.385,1.184-0.097
									c0.423,0.929,0.807,2.951-0.423,4.922s-1.298,2.614-0.964,3.035c0.43,0.541,1.006,0.19,1.687-0.114s1.382-0.856,1.593-0.807
									c0.418,0.098,0.354,0.487,0.167,1.396c-0.188,0.907,2.226,1.063,2.725,0.066c0.499-0.997,0.412,1.478,2.109,0.809
									s0.497-1.833,1.835-1.925c1.339-0.092,2.527,0.049,2.707-1.103c0.18-1.15,0.314-2.293,0.409-2.656s1.325,0,1.325,0
									s1.388,0.597,0.775,1.606c-0.613,1.01-1.472,1.811-1.472,2.384s0.896,1.141,2.233,1.693s2.018,0.26,3.041,0.163"/>
								<path id="Path-50_1_" fill="none" stroke="#FFFFFF" d="M167.222,76.776c0,0,4.081,1.706,6.855-2.95
									c0.548-0.921-0.246,1.023,2.469,1.023c0.984,0,1.333-0.245,2.071-0.804s1.365-1.541,1.74-2.008
									c0.2-0.25-1.183,2.177,0.2,2.593s3.846,0.144,4.258-1.354s-0.363-2.831,0.383-3.796c0.745-0.965,3.143-4.473,3.474-4.353
									s-0.335,1.92,0.563,3.072c0.896,1.151,3.393,2.076,4.64,0.859c1.248-1.217,0.307-4.656,0.729-5.354
									c0.509-0.841,3.14,0,4.489-1.358c1.352-1.358,0.893-3.82,1.446-3.907s2.374-0.101,2.872-2.706
									c0.19-0.999,0.539,4.56,2.809,5.355s2.837-1.123,3.178-0.587c0.342,0.535-2.52,2.83-1.374,4.399s2.157-0.063,2.416,0.106
									s-1.147,2.725,0.196,2.802c1.343,0.077,2.142-0.471,3.002,0.39c0.861,0.859,0.455,5.127,1.873,5.751
									c0.859,0.378,1.908,0.022,3.227-0.564c1.317-0.587,2.586-1.866,2.61-2.599c0.046-1.35,1.505-0.432,1.478-0.296
									c-0.025,0.136,0.125,1.212,0.716,1.113c0.591-0.098,1.083-1.173,1.706-1.343c0.624-0.17,2.027-0.42,2.31,0.525
									c0.282,0.946,0.845,3.011,3.089,3.163c2.244,0.151,3.153-3.076,3.336-3.268c0.184-0.191,0.057,2.593,1.918,2.593
									c1.863,0,3.807-2.555,4.203-3.654c0.395-1.101,0.154-2.563-0.504-2.563s-2.275,0.995-2.543,1.641
									c-0.267,0.645,0.693-1.651,1.155-2.002s1.001-1.796,0.237-2.103c-0.766-0.308-1.354-0.646-0.686-2.37
									c0.668-1.723,2.655-0.479,5.27-1.021c2.615-0.541,0.534-2.782-0.142-3.29c-0.676-0.507-2.226-1.566-2.226-2.318
									c0-0.753,2.775-0.903,2.775-2.692s-3.259-1.454-2.775-1.915c0.484-0.46,2.699-1.478,2.963-2.124s-0.166-1.664,0-1.897
									s3.447-1.112,4.311-2.252c0.863-1.139,0.672-3.757-1.66-2.869c-2.332,0.887-0.363-1.479-2.49-2.688
									c-1.248-0.709-3.094-1.49-4.189-0.998s0.715-2.317-0.891-2.783c-1.605-0.467-3.155-0.122-3.504-0.122
									c-0.35,0,0.393-1.402,0.674-3.297c0.279-1.895-2.939-2.365-2.939-2.365"/>
								<path id="Path-51_1_" fill="none" stroke="#FFFFFF" d="M229.192,28.389c0.256,0.386,0.908,3.082,8.012-0.263
									c1.606-0.757,2.861-0.622,3.809-1.861c0.949-1.239,0.494-1.829,0.966-2.605c0.472-0.775,1.643,1.957,3.744,1.435
									c2.103-0.522,2.986-1.852,2.569-3.252c-0.416-1.4-0.133-3.038,1.115-2.953c1.248,0.084,2.756,0.604,3.913,0.351
									c1.157-0.252,1.202-1.707,2.442-2.256c1.241-0.549,2.313-0.399,2.471-1.368c0.158-0.97-0.426-2.463,0-2.774
									c0.426-0.311,1.748-0.213,1.97-1.605c0.222-1.394-0.2-2.006-1.753-2.553c-1.555-0.548-3.617-1.011-3.382-1.32
									c0.134-0.176,1.587-1.39,2.595-3.026s1.116-2.697,1.098-3.322c-0.025-0.825-0.538-2.187-1.516-2.547
									c-0.977-0.36-2.118,0.142-2.585-0.179c-1.093-0.749-0.772-1.811-2.665-2.163c-0.902-0.169-1.851,0.22-2.773,0.233
									c-0.924,0.015-1.736,1.086-1.816-0.359c-0.082-1.496-3.514-0.954-4.761-0.107"/>
								<path id="Path-52_1_" fill="none" stroke="#FFFFFF" d="M239.001-3.014c0.973,0,2.18-0.22,3.471-0.951
									c1.292-0.731,1.047-1.442,1.061-2.102c0.035-1.861-1.955-3.599-2.379-4.268c-0.514-0.813,2.131,0.049,3.195-0.229
									c1.064-0.277,1.615-0.979,1.615-1.537c0-0.351-0.018,0.39,1.16,0.675c1.178,0.286,0.952-2.479,2.122-2.192
									s3.586-2.41,1.956-2.904c-1.629-0.495-1.133-1.09-0.373-1.474c0.758-0.383,1.426,1.315,3.641,1.221
									c2.215-0.094,6.258-5.269,3.202-5.269c-0.847,0-0.655-0.491-0.655-0.491s2.833-3.951-3.713-3.148
									c-2.75,0.338-7.135,1.258-6.981,1.258s7.983-2.4,7.983-3.767s-2.436-0.737-2.436-0.87c0-0.134,2.021-1.065,2.244-2.203
									c0.159-0.812-0.248-1.404-1.464-1.692s-3.724,0.204-3.288,0c0.469-0.221,1.059-0.646,1.467-1.044
									c0.406-0.397,0.488-0.648,1.419-1.182c1.989-1.143,3.385-0.711,4.008-1.734c0.622-1.023-0.104-1.373,0.167-1.583
									c0.271-0.209,3.588-1.243,3.244-3.789c-0.344-2.547-2.028-3.082-3.645-2.802c-1.615,0.28-3.021,1.911-3.461,2.802
									c-0.307,0.625-0.738,0.753-1.043,0.488s0-1.279-0.954-1.279c-2.724,0-0.726-1.333-2.263-2.692
									c-1.538-1.359-3.715,1.022-3.185-0.258c0.53-1.279,0.167-4.017-2.818-3.539c-1.419,0.228,1.14-0.365,1.14-1.657
									c0-1.293-3.217-1.187-2.861-1.444c0.357-0.259,1.064-2.937-1.76-2.704s2.12-0.982,2.432-3.285
									c0.311-2.303-0.27-4.938-2.937-4.979c-2.667-0.043-7.387,3.712-7.53,6.034c-0.143,2.322-2.123-1.256-2.123-1.256
									s-0.689-0.547-2.014,0.522c-1.325,1.068,0.525-2.404-1.543-2.065s-2.845,1.519-3.008,0.759
									c-0.164-0.759,0.335-3.414-1.246-3.704s-3.875,0.61-2.854,4.292c1.022,3.683-1.5-0.133-1.5-0.133s-2.078-1.502-4.697-0.485
									c-2.621,1.016-3.305-1.203-4.381,0.066c-1.074,1.271,0.429,2.705-0.486,2.688s-1.076-1.661-1.873-1.417
									c-0.797,0.243-1.396-0.296-2.389,0.406c-0.994,0.703-1.332,0.024-1.59-0.987c-0.259-1.013-1.531-0.769-2.574-0.138
									s0.481-1.37,0.285-2.066c-0.195-0.697-1.59,0.352-1.123-0.535c0.467-0.886,2.422-4.479,0.441-6.816
									c-1.981-2.338-3.287,0.906-5.52,1.529c-2.231,0.623-3.098,0.37-3.158-0.184c-0.059-0.555,1.08-2.273,0-2.516
									c-1.079-0.242-1.84,0.537-2.355,1.17c-0.518,0.633-0.627-2.543-2.521-2.877c-1.896-0.333-2.567,1.491-2.567,4.223
									c0,0.991-0.897-3.084-1.903-3.081c-1.006,0.004-1.295,1.592-2.351,1.176s-0.29-0.732-0.649-1.524
									c-0.357-0.793-2.168-0.341-2.51,0.349c-0.343,0.689,0.826-2.568,0.412-3.014c-0.413-0.446-1.516,0.143-1.516-0.263
									c0-0.197,0.289-0.677,0.404-1.099s0.064-0.834-0.208-1.036c-0.529-0.394-2.188,0.5-2.188,0c0-0.229,1.117-0.673,1.705-1.341
									c0.588-0.667,0.323-1.78-0.617-2.032c-0.939-0.252-1.041-0.743-1.762-1.01c-0.72-0.266-0.842,0.897-1.819,0.65
									s-0.282-1.287-1.075-1.474c-0.791-0.187-0.097,0.668-1.815,0.964c-1.718,0.297-1.543-1.346-2.853-1.229
									c-1.309,0.117-1.273,1.159-1.043,1.738s0.745,1.446,1.043,2.14c0.299,0.693-0.962-1.131-1.479-1.361
									c-0.516-0.231-1.224-0.245-1.109,0.255s0.065,0.852-0.619,0.928c-0.686,0.076-1.18-0.748-2.007,0
									c-0.828,0.748-1.151,1.719-0.575,2.565c0.575,0.848,1.582,1.341,0.846,1.077c-0.738-0.264-1.131-0.197-1.291,1.336
									c-0.161,1.533,1.021,1.276,0.598,1.396s-2.256-1.126-3.255-0.51c-0.999,0.617-0.96,1.32-1.39,1.588
									c-0.43,0.269,0.233-2.067-0.695-2.475c-0.928-0.406-2.266,0.239-2.738,0.887s-0.398-2.723-1.192-3.058
									c-0.794-0.334-1.868,0.211-1.905,0.637c-0.056,0.638-1.66-5.821-5.352-5.681c-3.689,0.14-2.521,4.053-2.121,4.655
									c0.401,0.603,0.828,1.03,0.364,0.813s-1.081-1.276-1.881-0.951c-0.375,0.152-0.829,0.138-1.253,0.835s-0.336,1.292,0,1.862
									c0.63,1.072,0.657,2.671,0.424,2.77c-0.234,0.1-2.5,1.018-1.583,3.351s-1.185-1.246-2.472,0.305
									c-1.287,1.55-0.649,3.265-0.649,3.607c0,0.342-3.209-1.963-4.8-1.257s-1.047,2.062-1.646,2.88s-0.371-2.88-2.145-1.623
									c-1.774,1.257-4.807,0.271-2.943,2.977c1.864,2.705-0.646-1.312-2.11-0.791c-1.464,0.521-1.479,2.265-1.721,1.336
									c-0.243-0.929-1.376-2.256-2.681-1.716c-0.464,0.192-1.751,1.232-1.714,2.238c0.017,0.451-0.263,2.176,0.268,2.964
									s1.945,1.144,1.926,1.153c-1.218,0.607-3.181-0.878-3.495,0s0.924,1.014,1.302,1.496c0.379,0.482-0.417,1.473-0.655,1.644
									c-0.239,0.172-0.879,0.897,0,1.513c0.877,0.616,1.904,0.411,1.631,0.72c-0.274,0.308-3.015-0.682-3.451,0
									c-0.436,0.681,0.253,1.284-0.258,1.318c-0.26,0.017-1.018-0.935-1.777-0.867c-0.761,0.066-1.488,1.152-1.773,0.867
									c-0.576-0.577-0.637-3.077-0.946-3.272s-1.679-0.211-1.785,0.21s0.848-1.55,0.392-2.077
									c-0.455-0.528-1.398-0.139-1.869-0.069s1.478-3.278-0.428-3.278c-1.906,0-3.042-1.326-3.219,0
									c-0.176,1.326-0.574,1.506-0.849,1.154c-0.274-0.353,0.33-1.154-0.582-1.575s-4.243,0.77-4.765,2.437
									c-0.16,0.512-0.303,1.677,0,2.276c0.301,0.6,2.406,2.235,2.625,3.328c0.316,1.576-1.036,1.498-1.088,2.062
									c-0.053,0.564,1.181,1.117,1.495,1.182c0.313,0.064,0.574,0.364,0.418,0.768c-0.155,0.403-0.882,0.02-0.825,1.308
									c0.057,1.287,0.794,1.933-0.294,2.254c-1.089,0.321-2.331-1.463-3.609-1.463s-2.341,0.465-2.027,1.463
									c0.314,0.998,2.302,2.833,2.302,2.833s1.762,1.238,0.34,0.872c-1.423-0.367-2.016-1.053-3.54-1.417
									s-1.093,2.251-1.724,2.021c-0.631-0.229-0.239-2.379-2.206-1.983c-1.967,0.396-1.582,2.653-1.319,3.317
									c0.262,0.663-2.684-4.453-3.646-4.992c-0.964-0.539-3.787-0.651-3.27,0.928c0.519,1.579,1.193,2.33,0.43,1.734
									c-0.763-0.596-1.617-1.768-2.522-0.987c-0.905,0.781-0.272,2.646,0,3.573c0.272,0.926-1.957,0.66-1.957,0.66
									s-2.399,0.098-2.243,1.633c0.156,1.534,0.622,0.993,2.613,2.036c1.99,1.043,1.207,1.755,0.686,2.176
									c-0.522,0.421,2.727-0.216,2.4,0.709c-0.327,0.924-1.859,0.832-1.759,1.622s0.751,1.666,0.011,2.326
									c-0.738,0.659-1.338-1.099-2.289-1.841c-0.95-0.741-2.512,0.932-1.936,1.454c0.576,0.523,1.807,2.511,0.59,2.828
									s-2.039,0.716-2.449-0.226c-0.408-0.941-1.198-1.876-1.725-0.985c-0.527,0.891-1.23,1.446-1.49,0.756
									c-0.26-0.691-0.671-2.373-1.638-3.058c-0.967-0.686-2.128-0.686-3.737,0c-1.609,0.685-1.504,2.151-1.031,2.793
									c0.473,0.643,0.685,1.716,0.422,1.344c-0.262-0.373-2.96-2.34-3.451,0c-0.49,2.339,1.199,2.205,1.828,2.312
									c0.628,0.105,0.68,0.438,0,0.704c-0.682,0.268-2.352-0.582-2.612,1.571c-0.262,2.153,3.213,1.075,2.612,2.495
									c-0.602,1.42-2.304,0.975-3.682,1.42c-1.379,0.445-4.176,1.425-3.517,3.586c0.659,2.162,3.188,0.644,3.188,1.073
									s-1.229,0.756-0.953,1.089c0.275,0.332,2.405,0.107,2.633,0.729c0.229,0.621-1.135,0.593-1.68,0.954
									c-0.544,0.36-1.467,1.655-0.601,2.463s4.126,0.662,3.53,0.662s-5.276,1.553-5.363,3.607
									c-0.088,2.056,4.615-0.326,4.344,0.291c-0.272,0.617-1.496,1.237-1.582,1.295c-0.088,0.057-2.594,1.672-1.445,2.979
									c1.147,1.306,2.342,0.105,2.797,0.337c0.455,0.23-2.971,3.431-1.918,4.991c0.204,0.302,0.642,0.891,1.146,1.003
									c0.506,0.113,1.408-0.258,1.793-0.552c0.683-0.521,1.059-2.144,1.995-2.144s0.673,2.689,1.968,2.144
									c0.553-0.232,1.664-0.292,2.072-1.585c0.407-1.293-0.573-4.064,0-3.857c0.999,0.361,2.139-1.236,2.428-0.535
									c0.287,0.7-0.029,2.253,0.922,1.819c0.949-0.433,1.817-1.255,1.799-0.393c-0.02,0.861,0.475,3.5-0.02,4.1
									c-0.492,0.6-2.375,1.158-1.779,2.259c0.595,1.1,4.117,0.147,4.117,0.312c0,0.209-3.218,0.89-2.338,2.412
									c0.881,1.522,1.27,1.637,3.995,1.111s2.752-1.426,2.752-1.111s-0.635,1.602-1.404,2.699
									c-0.769,1.097-0.603,3.697,3.077,2.795c3.68-0.901,5.516-3.716,5.516-3.716"/>
								<path id="Path-55" fill="none" stroke="#FFFFFF" d="M85.48,75.784c0,0-1.679,3.731-1.017,5.227
									c0.662,1.496,2.978-0.528,2.864,0.252c-0.28,1.931-2.385,8.18-0.833,9.277c2.775,1.963,2.96-2.959,3.361-1.775
									c0.402,1.184,0.221,3.974,2.731,3.738c2.511-0.236,2.611-1.868,2.511-2.555c-0.102-0.687,1.32,1.847,3.352,1.434
									s1.459-2.617,1.459-2.883c0-0.265,1.771,0.398,2.275-0.894c0.506-1.292,0.994,2.577,3.186,2.343
									c2.19-0.233,0.281-3.517,1.364-1.718s1.806,3.995,5.321,3.398c3.516-0.598,2.688-2.099,2.928-2.864
									c0.242-0.766,1.523,0.766,2.363,0s0.491-2.244,1.171-2.451s0.819,2.487,2.655,2.451c1.837-0.036,1.65-2.223,2.159-1.818
									c0.509,0.403,1.739,1.576,3.988,1.053c2.25-0.523,1.769-3.22,2.25-3.62c0.481-0.401,2.839,0.753,3.532-0.401
									s-2.799-1.604-0.882-1.503s5.735,1.648,4.706-4.633"/>
								<path id="Path-56_1_" fill="none" stroke="#FFFFFF" d="M60.04,42.813c-0.3,0-10.619,4.143-10.666,8.52
									c-0.018,1.698,1.761,2.585,3.517,2.106s6.052-3.399,5.722-2.792c-0.541,0.993-5.465,5.257-4.184,6.724
									s3.736-1.508,4.184-1.431c0.446,0.078-3.143,3.44-1.928,6.273c1.214,2.833,3.225-1.563,3.355-1.263
									c0.131,0.301-1.049,3.618,0,3.989c1.049,0.372,1.641-0.847,1.715-0.498s0.385,1.338-0.465,1.855s-1.25,1.682-0.699,2.281
									s1.913,0.27,2.266,0.567c0.352,0.297-1.498,2.87,0,3.607c1.498,0.736,3.586-1.521,3.734-2.609
									c0.148-1.088-0.078,2.778,1.574,2.609s1.188-1.176,2.081-1.079s1.882,0.475,3.103,1.079
									c1.221,0.604,1.189,0.421,2.238,2.211s-0.139,2.922,1.988,3.648s2.543-2.114,3.069-2.263s1.86,2.353,2.7,1.444
									c0.839-0.908,3.091-1.749,4.546-5.623"/>
								<path id="Path-57_1_" fill="none" stroke="#FFFFFF" d="M149.265-18.919c0,0,1.866-5.264,4.816-2.933
									c0.422,0.334,1.024,1.643,0.805,2.29c-0.378,1.109,0.999-0.713,2.003,0s-0.431,3.418,0.321,4.414s3.396-0.393,3.762,0.302
									c0.367,0.694,0.037,1.79-0.342,3.297s1.93-2.845,4.098-2.603c2.169,0.242,2.707,2.451,4.129,1.896
									c1.423-0.555,2.127-0.723,3.074-0.194c0.945,0.528,1.652,1.147,0.391,2.368c-1.26,1.222,2.195-2.613,4.766-1.765
									c2.57,0.848,2.604,2.439,0,5.175"/>
								<path id="Path-58" fill="none" stroke="#FFFFFF" d="M207.367,1.499c0,0,2.431-2.413,3.989-1.072
									c1.557,1.342,1.039,3.562,0.324,5.26c-0.714,1.699-0.223,0.136,1.046-0.396c1.27-0.531,3.877,1.162,2.163,3.946
									c-1.713,2.785,1.68-2.445,3.297-2.516c0.672-0.029,1.95,0.547,2.131,1.39c0.18,0.843-0.72,2.77-0.359,2.77
									c0.617,0,2.995-2.11,3.739-0.456s0.368,3.958-1.485,4.889c-1.852,0.93-2.305,0.397-1.895,0.687
									c0.41,0.288,1.688,0.316,1.406,1.092c-0.283,0.774-1.438,1.668-1.766,1.811s2.307,1.06,1.807,1.987
									c-0.502,0.927-1.328,2.187-5.503,2.457"/>
								<path id="Path-59_1_" fill="none" stroke="#FFFFFF" d="M205.897-39.039c0,0,2.687-2.249,3.373-1.087
									c0.686,1.161,0.485,1.684,0,2.471c-0.486,0.787,1.627-2.354,2.646-1.384s0.527,2.657,0,3.398s1.032-1.978,2.663-1.396
									c1.631,0.582,1.33-0.618,1.33-0.618s-0.092-2.118,1.915-2.471c2.008-0.353,4.356,1.635,3.513,3.671
									c-0.845,2.036,0.61,1.502,0.61,2.38c0,0.879-2.607,2.246-2.596,3.129c0.012,0.882,1.895-0.01,2.596,0
									c0.701,0.009,1.332,1.069,0.88,1.802s-0.993,1.055-1.483,1.932s2.555,0,2.846,1.58c0.291,1.579-0.455,1.8-0.91,2.395
									c-0.09,0.117-1.266,1.938-1.332,2.019c-0.067,0.081,1.114-1.234,1.114-1.234s3.458-1.748,4.162-0.478
									s-0.037,1.356-0.79,1.712s0.242,0.828,0.79,1.25c0.547,0.422,1.805,3.941-1.455,4.468s-4.425,0.295-4.425,0.295"/>
								<path id="Path-60_2_" fill="none" stroke="#FFFFFF" d="M147.725-48.352c0,0,0.488-2.744,1.94-3.635
									c1.451-0.891,2.729,0.26,3.375,1.732c0.645,1.472,0.356-1.158,2.588-0.579c2.232,0.579,1.582,2.345,1.934,1.802
									c0.354-0.543-0.668-5.999,1.916-6.12c2.585-0.121,3.767-0.479,4.125,0.69c0.357,1.171-0.568,3.322-0.283,3.628
									c0.286,0.306,1.473-2.202,2.299-1.153s1.066,2.955,0.354,4.512s-0.354,0.812-0.354,0.812s0.961-1.004,1.687-0.525
									c0.796,0.525,0.313,1.672,0.274,2.834c-0.037,1.162-0.808,1.358-0.609,1.533c0.532,0.469,2.221-4.168,3.269-3.351
									c0.541,0.421,1.887-0.123,2.507,0.25c0.619,0.373,0.46,1.613,0.289,2.121c-0.353,1.049,2.219-2.195,3.366-0.554
									c1.147,1.641-1.135,6.164-1.135,6.164"/>
								<path id="Path-60_3_" fill="none" stroke="#FFFFFF" d="M117.673,67.707c0,0-0.745,2.063-2.271,2.573
									c-1.526,0.512-2.685-0.533-3.186-1.75s-0.464,0.852-2.624,0.132c-2.16-0.719-1.347-2.005-1.748-1.628
									c-0.402,0.376,0.094,4.719-2.482,4.497c-2.578-0.222-3.784-0.089-4.028-1.036c-0.244-0.948,0.88-2.499,0.624-2.77
									c-0.254-0.271-1.67,1.522-2.391,0.611c-0.721-0.912-0.777-2.415,0.078-3.531s0.427-0.584,0.427-0.584
									s-1.048,0.658-1.724,0.2c-0.739-0.503-0.15-1.33-0.004-2.224c0.148-0.894,0.932-0.952,0.752-1.111
									c-0.484-0.428-2.601,2.951-3.563,2.192c-0.497-0.392-1.885-0.135-2.465-0.499c-0.579-0.364-0.303-1.304-0.086-1.675
									c0.449-0.768-2.41,1.426-3.393,0.018c-0.984-1.408,1.711-4.627,1.711-4.627"/>
								<path id="Path-61_1_" fill="none" stroke="#FFFFFF" d="M102.628-28.44c0,0-0.55-3.007,0.08-3.415
									c0.631-0.408,2.183-0.249,3.145,1.103c0.963,1.351-0.44-4.173,0.963-4.173c1.402,0,3.02,1.821,3.752,1.049
									c0.734-0.771-0.234-3.753,1.428-3.519c1.662,0.233,2.215-1.425,3.033-0.854s0.295,2.824,2.373,3.323
									c2.08,0.499,3.658-3.903,5.752-2.47c0.893,0.61,1.862,0.883,2.127,2.006c0.527,2.234-0.257,2.081-0.736,3.534
									c-0.479,1.453-0.885,2.824-0.34,4.021"/>
								<path id="Path-62_1_" fill="none" stroke="#FFFFFF" d="M177.769,177.832c-2.903,0.232-6.242-0.422-6.98-1.03
									c-3-2.473-6.12-1.406-6.572,0c-0.237,0.738-0.791-0.453-2.605-1.063c-1.815-0.61-4.197-0.4-5.469-0.4
									c-2.799,0-5.244,2.522-5.244,2.522s-2.412,1.158-4.149,0.1s-2.847-0.888-5.28-0.494c-2.433,0.395-2.883-1.06-2.883-1.06
									s-1.207,1.554-2.824,1.554s-1.031-2.622-1.031-2.622s-2.467,2.076-3.711,2.494c-1.244,0.419-1.343-0.967-1.343-1.426
									s-1.55,0.459-2.866,0c-1.314-0.459-2.127,2.553-2.963,2.449c-0.838-0.103-2.441-1.99-2.441-1.99l-0.516,1.99
									c0,0-0.916,1.762-2.006,0.808c-1.091-0.953-3.19-2.443-3.19-2.443s0.494,0.964,0.247,1.636s-0.247,0.808-0.247,0.808
									l-6.53-2.197c0,0,1.023,0.619,1.734,1.39c0.71,0.771,2.471,2.981,1.197,1.762c-1.274-1.22-8.248-2.757-8.248-2.757
									s0.986,1.504,0.423,2.131c-0.563,0.626-2.026,0.626-2.026,0.626s-3.036-0.791-5.004-0.954
									c-1.967-0.162-1.363-0.24-7.051-0.136c-5.688,0.105-10.664,0.464-10.664,0.464"/>
								<path id="Path-63_1_" fill="none" stroke="#FFFFFF" d="M170.12,171.066c0,0,3.198-3.624,5.142-5.027
									c1.942-1.403,5.354-2.313,5.354-2.313s-1.499,0.942-3.718,2.553c-2.217,1.611-3.483,4.961-2.932,5.24
									c0.553,0.279,1.723-0.273,2.533-1.059c0.813-0.785,1.691-1.21,1.691-1.21s-1.633,2.56-0.373,2.269
									c1.26-0.29,2.354-0.453,2.354-0.453s-1.739,1.387,0,1.387c1.738,0,5.926,0.132,6.75,0.436
									c0.825,0.303,3.441,0.759,3.441,0.759s1.572,0.402,2.789,0.377c1.215-0.025,2.027-1.571,2.027-1.571s0.967,0.795,1.32,0.876
									s1.209,0.436,2.145-0.44s0.75,2.272,2.395,1.136c1.645-1.136,3.502-1.571,3.502-1.571s-1.047,1.213,0,1.571
									c1.047,0.359,2.777,0.826,3.248,0.826c0.47,0,3.297-0.559,9.205,0c2.562,0.243,4.717,1.185,6.447,1.534
									c1.73,0.349,5.115,0.302,5.115,0.302"/>
								<path id="Path-54" fill="none" stroke="#FFFFFF" d="M58.087,34.997c-4.058,2.717-0.259,3.461,0.453,3.266
									c0.711-0.195-1.413,1.138-0.619,1.957c0.793,0.819,2.865,0.125,3.218,0.528c0.352,0.402-1.507-0.383-1.356,1.423
									c0.149,1.806,3.361,2.965,6.081,2.68"/>
								<path id="Path-53" fill="none" stroke="#FFFFFF" d="M66.218,17.718c-0.81,0.323-5.112,1.062-4.189,3.619
									c0.224,0.618,1.779,0.076,1.385,0.603c-0.737,0.985-2.145-0.364-3.399,1.206c-0.333,0.417-0.428,1.476,0,1.744
									c0.753,0.472,4.007,0.149,3.169,0.447c-1.355,0.482-6.143,0.754-6.883,2.065s1.233,1.354,1.211,1.442
									c-0.35,1.398-2.711,0.514-3.083,1.934s2.133,1.345,2.341,1.845c0.209,0.5-1.314,0.747-0.436,1.5
									c0.351,0.302,0.955,0.85,1.889,0.899c0.933,0.05,2.623,0.504,4.699-0.277"/>
							</g>
						</g>
					</g>
					<path id="Path-13_2_" fill="none" stroke="#FFFFFF" d="M829.973,114.554h-14.95"/>
					<path id="Path-13_3_" fill="none" stroke="#FFFFFF" d="M852.973,114.554h-15.95"/>
					<path id="Path-13_4_" fill="none" stroke="#FFFFFF" d="M870.973,114.554h-12.95"/>
					<path id="Path-13_5_" fill="none" stroke="#FFFFFF" d="M890.973,114.554h-12.95"/>
				</g>
			</g>
		</g>
	</g>
	<g>
		<rect x="897.678" y="294.786" fill="#FFFFFF" width="87.542" height="1"/>
	</g>
	<rect x="10.088" y="-55.773" fill="none" width="1100" height="599.999"/>
</g>
</svg>
