<?xml version="1.0" encoding="UTF-8"?>
<svg width="930px" height="500px" viewBox="0 0 930 500" version="1.1" xmlns="http://www.w3.org/2000/svg" xmlns:xlink="http://www.w3.org/1999/xlink">
    <!-- Generator: Sketch 47 (45396) - http://www.bohemiancoding.com/sketch -->
    <title>dom-4-930</title>
    <desc>Created with Sketch.</desc>
    <defs></defs>
    <g id="Page-1" stroke="none" stroke-width="1" fill="none" fill-rule="evenodd">
        <g id="dom-4-930" stroke="#FFFFFF">
            <g id="home4" transform="translate(0.000000, 128.000000)">
                <g id="дом-4" fill-rule="evenodd" transform="translate(208.779896, 0.000000)">
                    <path d="M568.318365,274.658133 L616.841955,272.056888 L616.408873,74.2071854 L327.998674,21.4108504 L305.349031,27.5855256 M462.29607,94.8250881 L462.29607,248.906581 L326.151782,253.423107 M312.942322,253.861325 L295.722337,254.43259 M282.535024,254.870073 L264.598021,255.465125 L264.598021,66.5691823 L282.417833,61.7656369 M295.284025,58.2973994 L328.127037,49.4441689 L533.592926,81.4249176 L534.327278,250.484541 L561.864622,252.511503 L561.724468,272.515923 L485.677878,277.773559 L467.941694,273.704388 M534.323536,253.302928 L186.773269,268.983708 L5.51228619,248.906581 L5.51228619,233.459342 M5.51228619,78.2898954 L5.51228619,74.7278473 L1.86615873,75.6663201 M0.901760806,237.039545 L0.694646595,271.696078 L186.773269,299.804127 L467.941694,281.276743 L467.941694,273.010714 M561.864622,252.511503 L568.147135,252.742148 L568.147135,278.679516 L485.966614,284.761741 L467.941694,281.276743 M534.33373,250.667017 L534.323536,261.361952 L553.283189,262.958861 L553.283189,270.428224 L561.724468,272.056888 M264.81829,66.7968039 L282.514116,69.3118913 M295.308779,71.1303821 L312.877742,73.6274385 M325.691064,75.4485813 L462.281265,94.8619894 L533.750282,81.622811 M5.68029129,248.724309 L17.5882671,248.418319 M46.9052242,247.664985 L116.200719,245.884353 L116.200719,87.732268 M116.096795,245.884988 L174.957996,249.680161 M188.218937,250.535182 L213.125266,252.141059 M226.503035,253.003613 L248.197823,254.40242 M261.458314,255.257412 L264.640411,255.462583 M1.16171032,262.840235 L186.295497,287.445687 L477.555595,271.204943 M568.417373,265.92533 L617.08211,263.587829 M616.474592,94.6095067 L667.517612,103.245609 L667.517612,260.982174 L616.912368,264.065774 M616.775123,131.406407 L652.368378,135.547723 L652.368378,234.713811 L616.775123,235.644801 M634.201334,137.222796 L648.34351,138.726304 L648.34351,231.482248 L634.201334,231.794255 L634.201334,137.222796 Z M616.857794,232.183332 L616.553806,135.248134 L631.97949,136.924704 L632.250005,231.870877 L616.857794,232.183332 Z M330.560992,100.582638 L422.549746,110.377834 L422.549746,240.30185 L330.560992,242.056171 L330.560992,100.582638 Z M333.065606,106.064724 L359.769253,108.908745 L359.769253,236.866553 L333.065606,237.385257 L333.065606,106.064724 Z M362.669407,109.231422 L389.912068,112.056306 L389.912068,236.304217 L362.669407,236.810818 L362.669407,109.231422 Z M393.051556,112.471365 L417.869202,115.121982 L417.869202,235.745943 L393.051556,236.241948 L393.051556,112.471365 Z M472.186957,249.139333 L471.383725,124.440885 L524.104997,119.269807 L524.104997,252.205175 M475.430985,127.930982 L520.359393,123.50312 L520.257843,137.928284 L475.513668,141.224118 L475.430985,127.930982 Z M476.182148,244.487156 L489.87327,244.810578 L489.87327,146.619072 L475.55522,147.363702 L476.182148,244.487156 Z M494.252144,244.952492 L494.252144,146.391018 L520.181068,145.045597 L519.357636,246.090418 L494.252144,244.952492 Z M462.2755,248.873749 L534.433858,252.96285 L462.2755,248.873749 Z M126.435085,246.499443 L126.435085,122.524264 L175.007799,112.38431 M187.974893,109.677322 L213.152212,104.42135 M225.981271,101.743178 L244.5484,97.867137 L244.5484,242.771248 L226.408796,241.955921 M213.128,241.358985 L188.250195,240.240794 M175.004713,239.645445 L147.824019,238.423745 L147.824019,247.897531 M131.61081,150.533529 L143.841741,148.568977 L143.841741,243.227502 L131.61081,242.380626 L131.61081,150.533529 Z M131.61081,125.315721 L144.479834,122.894625 L144.479834,145.030292 L131.61081,146.956821 L131.61081,125.315721 Z M242.467833,103.768818 L226.169442,106.942908 M213.179887,109.472607 L205.175082,111.031533 L205.175082,233.889138 L213.179234,234.131545 M226.330274,234.529828 L242.069921,235.006507 L242.467833,103.768818 M201.928694,111.697278 L187.984733,114.400019 M174.986289,116.919492 L164.66555,118.919948 L164.66555,232.581229 L175.005035,232.905983 M188.271439,233.322671 L201.490724,233.737878 L201.928694,111.697278 M162.994148,119.269158 L148.114663,122.117929 L147.779485,232.069943 L162.857895,232.52201 L162.994148,119.269158 Z M5.52925775,74.7639979 L187.958616,0.260437395 L187.958616,14.1264906 L8.75247973,83.1671154 M188.243756,0.0681858374 L198.440194,1.29427607 L198.440194,15.0708825 L187.701822,14.2453108 M228.030216,6.88660627 L237.095914,8.09428721 L237.095914,21.1923461 L227.907384,20.6773816 M262.963709,13.9823544 L271.70325,15.3221583 L271.70325,27.3090765 L262.963709,26.9111478 M296.461976,20.958572 L305.201517,21.8142411 L305.201517,32.763622 L296.461976,32.3656933 M17.5643194,81.4929848 L46.8674034,70.4637293 L46.8674034,250.528863 L17.5643194,249.046077 L17.5643194,217.922954 M17.5643194,181.278449 L17.5643194,176.34869 M17.5643194,90.0609962 L17.5643194,81.4929848 L17.5643194,81.4929848 M477.076853,264.959481 L534.33373,261.361952 M477.555595,265.548417 L488.119839,267.730774 L553.283189,263.36606 M477.452479,272.515923 L488.119839,274.658133 L553.435022,270.428224 M485.966614,284.761741 L485.966614,277.773559 L488.119839,275.142961 L488.348846,267.730774 M467.609914,273.376203 L477.452479,272.515923 L477.452479,264.727791" id="Combined-Shape"></path>
                    <path d="M328.405973,49.4847077 L328.405973,21.3355881 L328.405973,49.4847077 Z M175.025809,20.6669732 L187.738255,16.4759807 L188.205702,261.881541 L175.025809,261.881541 L175.025809,20.6669732 Z M213.198253,28.3128379 L225.910698,24.2681885 L226.378146,261.104554 L213.198253,261.104554 L213.198253,28.3128379 Z M248.254579,33.6476168 L260.967024,29.7227339 L261.434471,259.546112 L248.254579,259.546112 L248.254579,33.6476168 Z M282.531875,38.9965015 L295.244321,35.1772794 L295.711768,258.813643 L282.531875,258.813643 L282.531875,38.9965015 Z M312.914024,55.8332886 L325.62647,52.3201365 L326.093917,258.034422 L312.914024,258.034422 L312.914024,55.8332886 Z M198.190579,1.31257795 L325.79452,24.4718234 L198.190579,1.31257795 Z M198.513445,6.02672852 L225.104312,10.965077 L198.513445,6.02672852 Z M237.068154,13.0541807 L261.020882,17.3902309 L237.068154,13.0541807 Z M271.571117,19.2995085 L294.631237,23.4849853 L271.571117,19.2995085 Z M305.119379,25.3974446 L325.163513,29.0214021 L305.119379,25.3974446 Z M198.416944,13.8947092 L224.371408,18.5015161 L198.416944,13.8947092 Z M237.079682,20.8347627 L259.667656,24.9206995 L237.079682,20.8347627 Z M271.571117,27.0917163 L292.770314,30.7117723 L271.571117,27.0917163 Z M305.119379,33.1896524 L325.163513,36.8136099 L305.119379,33.1896524 Z" id="Combined-Shape"></path>
                    <g id="Group-2" transform="translate(13.243501, 6.233766)">
                        <path d="M0.33435282,78.0039361 L4.28417267,76.5802371" id="Path-2"></path>
                        <path d="M33.69519,65.5652954 L161.721369,17.682967" id="Path-8"></path>
                        <path d="M174.598681,12.8763136 L185.373058,8.85483486" id="Path-9"></path>
                        <path d="M33.5991003,77.4978608 L161.866999,32.8430256" id="Path-13"></path>
                        <polyline id="Path-14" points="174.446661 28.4315489 214.474717 14.5433166 214.474717 0.655084296 174.446661 15.454853"></polyline>
                        <path d="M161.826632,20.0773529 L33.6064748,67.2438369" id="Path-15"></path>
                        <polyline id="Path-16" points="33.8715682 77.4551448 37.1805155 77.7409614 161.811289 35.7771375"></polyline>
                        <path d="M174.496785,31.7113241 L199.962518,23.1583168" id="Path-17"></path>
                        <path d="M212.561592,18.9258071 L224.100157,15.0056787" id="Path-18"></path>
                        <polyline id="Path-19" points="161.8098 37.5764207 51.0202412 74.90153 51.0202412 84.0069027 56.0771466 84.0069027 161.8098 51.1744266"></polyline>
                        <path d="M51.3095125,83.9471935 L161.940179,48.7600856" id="Path-20"></path>
                        <path d="M174.511123,33.2725515 L199.973736,24.6704393" id="Path-22"></path>
                        <polyline id="Path-23" points="212.856755 20.2963362 249.553424 7.95268288 249.553424 20.7688217 212.745273 32.5328825"></polyline>
                        <path d="M174.639687,44.7112295 L199.996195,36.6034482" id="Path-24"></path>
                        <path d="M174.504281,47.2462939 L200.108096,39.2861711" id="Path-25"></path>
                        <path d="M212.44021,35.4574442 L234.921969,28.483947" id="Path-26"></path>
                        <path d="M247.692681,24.5153364 L258.576385,21.1124146" id="Path-27"></path>
                        <polyline id="Path-28" points="78.9572864 77.087835 78.9572864 86.3007975 85.0583091 86.3007975 161.68493 64.327862"></polyline>
                        <path d="M79.4775482,86.2873982 L161.801824,61.9905454" id="Path-29"></path>
                        <path d="M174.511353,58.2773618 L200.089066,50.708862" id="Path-30"></path>
                        <path d="M174.506879,60.6060321 L200.137861,53.1254158" id="Path-31"></path>
                        <path d="M212.656685,47.0056892 L235.055451,40.3949437" id="Path-32"></path>
                        <path d="M212.520251,49.5940787 L235.153809,43.0415883" id="Path-32"></path>
                        <polyline id="Path-33" points="247.50918 36.7063517 283.070905 26.1970779 283.070905 14.788942 258.82811 20.7747013"></polyline>
                        <path d="M247.651554,39.4045713 L269.241049,33.1748195" id="Path-34"></path>
                        <path d="M281.918564,29.5215641 L292.077712,26.54642" id="Path-35"></path>
                    </g>
                </g>
                <path d="M114.208648,265.391738 C114.838472,259.128605 115.072686,254.809727 114.911291,252.435102 C114.583939,247.618734 112.722783,245.820896 112.722783,241.624956 C112.722783,234.310433 113.605709,230.834747 111.926669,225.451165 C110.807309,221.86211 108.244165,218.790353 104.237237,216.235895 C100.387968,214.635619 97.6906343,213.294573 96.1452363,212.212758 C93.8271393,210.590035 87.9206556,205.021791 85.7241984,203.992392 C83.5277413,202.962992 82.9070484,201.938218 81.2691822,202.204725 C80.2436934,202.371588 74.2813482,205.712392 69.0825113,208.819576 C65.9779908,210.675052 62.7303009,212.991301 62.1196484,212.991301 M131.157438,271.875715 C130.971745,262.628265 130.68855,257.054909 130.307854,255.155646 C129.73681,252.306753 128.677095,252.428708 127.93907,250.878621 C127.447053,249.84523 127.447053,241.337666 127.93907,225.355929 C131.293401,216.47887 134.62061,211.793689 137.920696,211.300385 C142.870826,210.560429 151.45359,210.921537 153.441223,211.300385 C153.975803,211.402277 156.673582,213.617325 159.778287,216.216731 C163.094451,218.99318 166.741907,221.7558 168.378136,222.981904 M139.652026,195.935041 C137.265856,198.987485 135.101638,200.971903 133.159371,201.888296 C130.24597,203.262885 124.518438,205.799624 122.653123,211.371213 C120.787807,216.942802 122.588483,218.514326 120.298063,217.310612 C118.007644,216.106898 111.630747,212.476294 109.484777,208.84503 C107.338807,205.213766 105.54011,204.99044 104.114081,200.47676 C102.688052,195.96308 101.547294,186.818945 102.876694,180.908904 M147.81047,193.653955 C145.438372,199.779514 142.812882,203.184265 139.934,203.868205 C137.055118,204.552146 138.820835,204.894117 145.231151,204.894117 C150.4364,204.532134 153.297364,204.657816 153.814041,205.271164 C154.330718,205.884511 155.348353,206.716126 156.866944,207.766009 M99.9895805,178.244935 C99.397906,183.181328 98.8401472,186.988104 98.3163044,189.665262 C97.53054,193.681 101.91808,203.673946 102.018118,204.779333 C102.118155,205.884719 91.168756,200.440746 87.9329288,194.818029 C85.7757108,191.069552 84.2797089,186.886332 83.4449234,182.268369 M74.2799529,186.588569 C79.4625204,193.44011 81.5684372,197.363339 80.5977033,198.358258 C79.1416025,199.850636 70.9442493,200.666099 62.1130035,211.18373 M132.00695,138.059858 C128.723795,143.079023 127.4392,146.240782 128.153164,147.545135 C129.22411,149.501665 132.788604,146.736077 133.306819,147.045036 C133.825034,147.353995 131.554817,148.678398 132.430818,150.095467 C133.306819,151.512536 137.943072,149.486854 136.934529,150.499327 C135.925987,151.5118 133.990635,156.244693 136.477752,158.146395 C138.13583,159.414195 139.70931,158.574805 141.198193,155.628224 C142.070111,157.27145 142.874095,158.11084 143.610146,158.146395 C144.714221,158.199726 145.104068,157.212374 145.917596,155.628224 C146.731124,154.044074 144.799482,160.100438 147.224263,159.627965 C149.649045,159.155492 153.509866,152.863024 152.776734,154.245624 C152.043602,155.628224 148.706995,167.585642 151.769217,169.707047 C153.810699,171.121318 156.214828,170.271222 158.981604,167.15676 C159.908441,168.856952 160.800637,169.707047 161.658191,169.707047 C162.944521,169.707047 165.063674,166.109304 165.038299,167.15676 C165.012924,168.204216 164.95671,170.712256 167.291244,169.707047 C169.625778,168.701839 168.398548,172.276849 170.724785,173.821482 C173.051023,175.366115 174.850896,174.605924 175.369957,172.757273 C175.889018,170.908622 173.869715,168.08385 174.625468,167.785742 C175.381222,167.487634 176.26796,171.330781 178.736979,171.429149 C181.205998,171.527517 181.509983,167.15676 181.579884,167.15676 C181.649786,167.15676 182.68244,173.355205 185.497043,173.271353 C188.311646,173.187502 188.929997,170.538539 189.207148,164.936947 C189.484299,159.335354 190.78975,165.111115 193.235144,164.936947 C195.680538,164.762778 194.857115,160.215599 195.132895,160.748291 C195.408676,161.280983 198.76889,166.801422 201.471334,165.356204 C203.272963,164.392726 203.448148,161.989456 201.99689,158.146395 C203.892099,158.555834 205.073015,158.555834 205.539637,158.146395 C207.319477,156.584669 205.822791,153.843113 204.67387,152.888624 C203.543994,151.949958 211.398391,158.332467 214.189735,155.94936 C216.981079,153.566254 212.839522,150.301911 211.107165,148.492172 C209.374808,146.682432 215.215292,150.005895 216.745598,147.904907 C218.275903,145.80392 212.69351,142.231218 213.786054,142.63637 C214.878598,143.041521 219.442485,146.376577 221.016273,141.750835 C222.590061,137.125094 215.447145,134.883515 215.923938,134.985313 C216.40073,135.087112 220.689051,135.412426 220.789034,133.17877 C220.889018,130.945114 216.073592,128.871759 217.452298,129.275641 C218.831004,129.679524 225.799167,129.831266 226.755312,126.297043 C227.711456,122.762821 220.811472,123.196495 222.208416,122.673967 C223.60536,122.151438 229.473919,119.448241 227.727855,117.436062 C225.981791,115.423883 222.208416,118.163648 224.264478,116.742444 C226.320541,115.32124 227.740731,113.571032 226.755312,112.559995 C225.769893,111.548958 223.476197,111.03383 220.464247,112.843418 C217.452298,114.653005 226.093631,109.931794 225.615496,106.852493 C225.137362,103.773192 219.114471,105.931587 220.464247,105.115328 C221.814024,104.299069 225.502961,100.45174 222.998487,98.7753963 C220.494013,97.0990522 214.189735,101.847803 213.786054,102.30566 C213.382373,102.763517 218.480713,97.4001147 214.793939,96.893207 C211.107165,96.3862992 209.09477,99.790399 210.300297,98.1533651 C211.505824,96.5163312 214.793939,93.1416475 213.468528,91.6756197 C212.58492,90.6982678 211.037296,90.6982678 208.825656,91.6756197 M35.5664723,175.085781 C33.0727321,176.770076 32.0889607,178.429096 32.6151582,180.06284 C33.4044545,182.513456 35.8287247,181.588074 37.0254483,181.588074 C38.2221719,181.588074 33.7342554,183.882376 34.8267857,185.856894 C35.9193161,187.831413 38.1753668,187.349016 39.4497803,187.259875 C40.7241938,187.170734 37.1429433,188.652448 37.5400846,189.860658 C37.9372259,191.068867 43.9061085,190.28328 42.3331693,190.712097 C40.7602301,191.140915 37.0846481,192.260165 37.9372259,194.006782 C38.7898038,195.753398 43.4745137,193.833587 43.1234062,194.243431 C42.4067732,195.07995 40.8238191,197.211508 42.0126647,198.221484 C43.7839738,199.726289 45.1066308,197.539548 45.5400707,197.100252 C45.9735106,196.660957 44.2870518,200.744891 46.6381736,200.638462 C48.2055882,200.567508 49.1924563,199.761849 49.5987779,198.221484 M58.6502821,196.778734 C56.4209209,197.192965 55.2788352,197.830015 55.2240251,198.689883 C55.14181,199.979685 60.2201776,201.989312 59.0004012,201.453577 C57.7806247,200.917843 55.6811843,200.82042 55.6811843,202.385721 C55.6811843,203.951023 58.0329712,204.943057 57.0108962,204.505818 C55.9888211,204.068579 51.5780188,203.419824 52.0141113,205.505312 C52.4502039,207.5908 57.3971471,208.59066 55.6811843,208.148003 C53.9652214,207.705346 52.0141113,209.078319 52.7040138,210.477377 C53.1639487,211.410082 54.2244065,211.819692 55.8853871,211.706208 C54.626068,213.241085 54.5061337,214.312271 55.525584,214.919765 C57.2304296,215.935688 58.8158307,213.741962 58.8158307,214.256658 C58.8158307,214.771353 59.9423944,216.052622 61.5008944,214.919765 C62.7501543,214.01169 62.0050206,211.629904 62.0050206,210.115951 M59.726238,215.412006 C58.8811304,216.728527 58.8339665,217.665063 59.5847462,218.221614 C60.7109157,219.056439 62.8394701,217.231504 62.2288645,218.221614 C61.6182589,219.211723 59.7871009,220.880633 61.1678405,221.936728 C62.54858,222.992822 65.0717138,220.898674 65.4716663,220.251836 C65.8716189,219.604999 64.9981677,222.124963 66.327598,222.352575 C67.2138848,222.504317 68.1442059,221.355052 69.1185614,218.90478 C68.4034704,222.290215 68.8074386,223.898329 70.3304661,223.729123 C71.8534937,223.559917 72.703433,222.535676 72.880284,220.656398 M40.054774,194.747058 C37.4299115,196.012133 36.1759847,197.161578 36.2929937,198.195394 C36.4685072,199.746117 40.4776059,199.830299 39.8528266,199.913826 C39.2280473,199.997353 35.7046223,201.496784 35.3619755,203.273897 C35.1335443,204.458639 35.9177048,205.317615 37.7144572,205.850826 C34.6571337,208.161926 33.5527158,209.951851 34.4012033,211.220602 C35.6739346,213.123729 38.2838773,212.020363 39.5581569,210.879373 C40.8324366,209.738384 31.9844842,216.624957 34.4012033,218.238795 C36.8179225,219.852632 40.0067467,217.344793 38.9874955,218.238795 C37.9682444,219.132796 35.2999538,221.781504 36.8658359,223.416022 C37.9097573,224.505701 39.4937425,224.0706 41.6177916,222.110718 C41.0957802,223.760827 41.3713767,224.609716 42.4445809,224.657383 C44.0543873,224.728885 45.5085013,224.004456 47.2271516,221.653101 C48.9458019,219.301746 45.2973523,225.907743 47.9621861,226.843234 C50.6270199,227.778725 52.9306261,224.446681 53.235049,223.731093 C53.5394719,223.015506 51.7164859,227.990445 54.6251143,228.588242 C57.5337428,229.186038 58.5815138,225.583674 59.2324254,224.657383 C59.883337,223.731093 58.6617906,226.455641 59.7689501,227.117183 C60.8761097,227.778725 63.113283,225.178359 62.3396803,225.857353 C61.5660775,226.536347 58.6516636,233.81035 62.7653654,233.497814 C66.8790672,233.185279 68.9695313,229.203409 69.1714511,227.778725 C69.3733709,226.354042 69.6364553,230.103368 71.0654836,229.783343 C72.4945119,229.463319 73.7591551,228.003227 74.0640071,226.843234 C74.3688592,225.683242 74.573646,228.958833 76.1123324,228.999309 C77.6510188,229.039785 78.7597188,225.774494 79.3592607,225.11452 C79.7355394,224.700314 79.3533708,226.808289 79.9599494,227.383062 C80.566528,227.957835 81.2192067,227.862955 81.7293896,227.117183 C83.0994136,225.11452 79.9981864,233.861733 84.5941982,231.015157 C89.1902099,228.168581 87.4873276,223.91689 88.0333775,226.843234 C88.5794274,229.769578 90.362957,229.959913 91.3391349,228.442391 C92.3153128,226.924868 91.4645463,223.539507 91.8810828,224.657383 C92.2976192,225.77526 94.3409297,227.243812 95.2363922,226.125936 C95.8333673,225.380684 96.0952293,224.366148 96.0219783,223.082327 C97.5133146,223.814209 98.4821396,223.963514 98.9284532,223.530239 C99.5979236,222.880328 98.144693,218.863968 98.7257961,220.064559 C99.3068993,221.26515 103.050157,221.899736 103.844156,219.805727 C104.373489,218.409721 104.259486,217.043399 103.502145,215.706761 M182.044512,108.639209 C177.647116,104.381073 175.670591,101.458181 176.114939,99.870534 C176.78146,97.4890634 179.620801,96.47913 181.109476,98.8893933 C182.598151,101.299657 178.309184,94.7461835 178.730056,93.4950221 C179.010638,92.6609145 180.431253,92.5180413 182.991901,93.0664024 C182.251596,89.6637058 182.204223,87.5114377 182.849783,86.6095979 C183.495343,85.7077582 185.083365,85.7077582 187.613849,86.6095979 C186.365671,80.201475 186.783141,77.1747534 188.86626,77.5294332 C191.990938,78.0614528 193.468024,82.725654 193.614265,83.6623996 C193.760506,84.5991452 191.923729,75.226265 194.916543,74.279125 C196.911752,73.6476983 198.447568,73.9673482 199.523992,75.2380749 C201.298479,71.8686747 202.965204,70.5907603 204.524166,71.4043315 C206.862609,72.6246884 205.749103,75.5333259 205.829575,76.9647576 C205.910046,78.3961892 208.591878,74.5629789 209.87825,75.4333464 C211.164622,76.3037138 211.545792,78.0047565 211.10312,80.5328723 C210.660448,83.0609881 213.74919,76.8029017 215.762704,78.3961892 C217.105047,79.4583809 217.659155,81.8679614 217.425027,85.6249307 C219.380769,83.5455337 220.855916,82.8913566 221.850469,83.6623996 C222.845021,84.4334426 223.225279,87.1432331 222.991242,91.7917713 C224.031308,89.9709463 225.140991,89.4008778 226.320292,90.0815658 C228.089244,91.1025977 225.741178,97.9831478 227.032131,94.3123172 C228.323084,90.6414865 232.47051,85.8251798 235.212936,88.1834515 C237.955361,90.5417233 234.60839,97.0993148 232.083618,99.870534 C229.558845,102.641753 235.567539,96.4955254 237.469254,97.6588011 C238.737065,98.4343182 238.570729,100.255893 236.970248,103.123524 C239.01071,102.072025 240.397529,101.975349 241.130705,102.833497 C242.230469,104.120718 242.465123,107.688092 237.965151,111.055736 C233.46518,114.423379 241.036343,109.500925 241.890193,110.066539 C242.744043,110.632153 242.680007,112.172394 242.680007,112.70532 C242.680007,113.238247 248.441811,107.427758 250.562112,110.066539 C252.682413,112.70532 249.667034,115.499 248.061403,116.250649 C246.455772,117.002297 252.851517,114.279793 253.208054,117.002297 C253.564591,119.724802 249.415454,123.606507 246.04773,125.613487 C242.680007,127.620466 252.319795,122.122143 254.064858,123.327225 C255.809922,124.532307 254.699693,127.517454 251.887184,128.335321 C249.074676,129.153189 255.497506,128.22541 255.483809,129.869304 C255.470112,131.513197 254.108566,133.591809 251.887184,134.105189 C249.665802,134.618569 255.912572,135.262334 255.025455,138.279455 C254.434043,140.290869 250.766896,141.155193 244.024013,140.872427 C248.285482,141.431249 249.712322,142.598115 248.304531,144.373026 C246.192846,147.035392 238.696507,146.506128 241.97853,146.535057 C245.260553,146.563987 249.084018,148.959147 250.151429,152.812139 C251.21884,156.665131 238.831506,153.178108 241.476115,154.403324 C244.120724,155.62854 245.368019,157.6603 244.024013,159.365666 C242.680007,161.071031 236.154801,158.496318 238.191825,159.365666 C240.228848,160.235013 243.72616,163.804878 241.890193,166.464489 C240.666215,168.237563 237.297254,167.530996 231.78331,164.344789 C233.232601,166.563816 233.332703,168.064143 232.083618,168.845769 C230.20999,170.018208 226.381016,167.22518 228.323084,168.732931 C230.265153,170.240681 233.456275,175.200507 230.444958,176.933086 C227.433641,178.665664 223.230134,173.224849 222.610605,172.456161 C221.991076,171.687473 223.479856,174.895832 221.850469,175.762121 C220.221081,176.62841 217.90567,175.762121 217.425027,174.895832 C217.104599,174.318305 216.550491,174.607068 215.762704,175.762121 M165.785825,194.471265 C163.431183,194.324534 162.527943,194.817873 163.076107,195.951282 C163.898353,197.651396 159.308939,196.004168 159.123885,197.651396 C158.938831,199.298625 164.70133,200.157978 162.454855,200.160348 C160.208379,200.162718 159.123885,200.740391 159.123885,201.617811 C159.123885,202.202757 159.713759,202.893722 160.893508,203.690705 C156.750239,206.539279 155.206045,208.305677 156.260925,208.989897 C157.843245,210.016228 159.166224,208.354018 159.876414,208.989897 C160.586605,209.625777 158.371355,210.822225 159.123885,211.55329 C159.876414,212.284354 162.454855,213.467279 162.454855,213.191963 C162.454855,212.916647 162.891053,213.630602 162.454855,214.532378 C162.206912,215.044963 164.363725,217.236127 165.575787,216.205905 C166.78785,215.175684 165.078443,218.147769 166.389194,218.98915 C167.699945,219.830531 168.82844,216.93408 168.992134,218.246237 C169.155829,219.558394 167.564056,220.874416 168.111831,222.471092 C168.659606,224.067768 170.429715,224.117438 172.007679,223.294265 C173.585643,222.471092 170.584008,225.732443 172.007679,225.91521 C173.43135,226.097976 176.084186,224.465184 177.863313,223.294265 C179.64244,222.123347 173.911557,226.098292 174.825163,227.63975 C175.434234,228.667388 176.446951,228.854456 177.863313,228.200953 C176.093638,232.315914 176.093638,234.304565 177.863313,234.166907 C180.517825,233.96042 183.942734,228.393606 182.452727,231.515242 C180.96272,234.636878 179.449878,240.141416 183.89467,240.63994 C188.339462,241.138464 191.631337,229.85907 192.000108,227.388227 C192.368879,224.917384 190.963781,235.379501 194.715486,235.919132 C198.467191,236.458764 198.47442,232.687414 198.629003,231.515242 C198.783586,230.343071 198.556858,236.669658 201.243084,237.352093 C203.929309,238.034528 204.710259,235.287131 204.89401,232.326024 C205.077762,229.364917 205.430277,237.594999 208.439592,237.352093 C210.445802,237.190156 211.109406,235.5148 210.430405,232.326024 C211.505937,233.608842 212.670053,234.065042 213.922753,233.694622 C215.801803,233.138993 215.74175,229.21285 214.499825,227.83534 C213.257901,226.457829 217.900393,231.47498 218.75698,229.067238 C219.613568,226.659496 217.644767,220.834292 213.730914,219.331313 M188.368691,169.840893 C188.153111,167.975637 188.394657,166.921308 189.093328,166.677905 C190.141336,166.312801 191.866385,166.028585 192.407572,168.972891 C192.948759,171.917198 193.271354,173.474722 193.012394,171.861874 C192.753433,170.249026 194.453942,166.086974 196.284841,167.624816 C198.115741,169.162657 198.067562,170.972369 198.783691,173.206688 C199.499819,175.441007 199.323999,170.292698 200.831592,170.917501 C202.339185,171.542304 203.443614,177.074933 202.988434,173.893444 C202.533254,170.711955 203.400077,165.475697 206.155125,166.104498 C208.910174,166.733299 209.751826,174.246172 209.14971,176.454609 C208.547594,178.663046 211.130516,172.839965 212.676684,172.839965 C214.222852,172.839965 216.457874,174.433006 215.628522,176.454609 C214.79917,178.476211 217.051178,176.097364 217.790256,177.416176 C218.529334,178.734987 217.848679,180.84932 217.790256,181.248719 C217.731832,181.648118 219.251128,179.070278 220.052426,179.946847 C220.853725,180.823415 221.313003,182.098862 221.060861,183.121837 C220.808719,184.144813 224.637294,179.811486 226.217351,181.025526 C227.270723,181.834886 227.173488,183.895149 225.925647,187.206317 C228.497826,185.410602 229.777014,185.51744 229.76321,187.526831 C229.742505,190.540917 224.945881,194.072636 224.218806,194.868522 C223.491731,195.664407 229.789507,190.806875 230.966759,192.772289 C232.144011,194.737703 229.855936,196.65399 229.394544,196.897342 C228.933151,197.140694 232.257209,195.968199 232.440414,198.387036 C232.62362,200.805873 222.519661,205.173694 225.445621,204.413285 C228.37158,203.652875 236.152062,202.433494 236.076486,206.500748 C236.00091,210.568002 231.712547,210.526603 228.144954,211.04626 C224.577361,211.565918 233.498896,213.688453 232.149438,216.495913 C231.249798,218.367554 228.082861,218.544991 222.648625,217.028226 C224.156,219.14579 224.3741,220.427442 223.302925,220.873185 C222.23175,221.318927 220.03933,221.579116 216.725665,221.653753 M129.968884,220.766502 C130.857472,222.960829 131.933227,223.261287 133.196151,221.667877 C134.459075,220.074467 135.080915,219.848954 135.06167,220.991339 C135.350182,222.589654 135.976347,223.244435 136.940165,222.95568 C138.385893,222.522549 138.305808,222.337644 139.452595,220.766502 C140.599382,219.195359 138.463067,224.461988 140.099742,224.932994 C141.736417,225.404 144.908835,223.197369 146.129816,221.667877 C147.350796,220.138385 143.843045,226.174785 146.448969,226.036018 C149.054893,225.897252 150.598933,222.685458 151.800413,222.522549 C153.001893,222.359641 150.709491,225.316808 152.235493,225.251423 C153.252828,225.207834 154.165436,225.015107 154.973319,224.673244 C153.130326,230.252649 153.406615,232.718175 155.802186,232.069822 C159.395542,231.097293 160.876666,227.29394 161.21021,226.113467 C161.543753,224.932994 161.991564,228.508244 163.440472,228.113304 C164.889381,227.718365 165.375478,226.542125 165.73713,225.442336 C166.098781,224.342546 165.23517,228.322925 167.212723,227.898846 C168.531092,227.616126 169.659254,226.335842 170.59721,224.057992 M96.1450308,160.825355 C92.8867831,166.727832 91.9848371,170.06708 93.4391926,170.8431 C94.8935482,171.61912 96.3190906,171.035865 97.7158199,169.093335 C97.0776795,171.08193 97.0776795,172.1595 97.7158199,172.326043 C98.3539603,172.492586 99.372576,172.492586 100.771667,172.326043 C99.489718,178.032684 99.744431,180.926164 101.535806,181.006482 C103.327181,181.086801 104.611964,179.803947 105.390155,177.157919 C106.092771,179.052731 106.971336,179.944268 108.02585,179.832531 C109.607621,179.664924 110.709344,178.331524 110.856388,177.157919 C111.003432,175.984314 110.488223,181.230043 112.319096,181.659223 C114.149969,182.088404 116.201915,180.632421 117.714827,176.759032 C119.227738,172.885642 114.149873,190.13708 117.714827,191.11234 C121.279781,192.0876 122.224383,190.205688 123.480444,188.073934 C124.736506,185.94218 123.603814,191.367914 125.789157,191.600396 C127.9745,191.832878 128.881799,189.001498 129.288892,188.073934 C129.695985,187.14637 129.48033,191.227408 130.908816,191.600396 C132.337301,191.973384 134.01745,185.6451 133.526905,189.385372 C133.036359,193.125645 134.758743,198.290016 138.176568,197.109784 C141.594393,195.929551 139.998551,190.066217 139.427106,188.073934 C138.855661,186.081651 141.986379,192.547566 143.691701,192.547566 C145.397022,192.547566 145.290056,189.915867 145.580957,189.385372 C145.871858,188.854878 147.732024,196.956351 151.657225,195.27462 C155.582427,193.592889 154.513872,186.297393 153.717956,184.289862 C152.92204,182.282331 156.242048,187.684211 158.362644,186.861659 C160.483239,186.039107 159.233997,183.536837 158.81754,182.581516 C158.401084,181.626194 164.62943,191.588008 167.950677,187.14637 C171.271924,182.704733 163.806328,178.010977 165.817963,179.183782 C167.829599,180.356588 171.20085,179.722931 169.625394,177.157919 C168.049938,174.592907 173.216249,179.456946 174.837181,178.516231 C175.917801,177.889087 175.817871,176.513013 174.53739,174.388008 M44.9439681,183.220828 C44.495505,185.657706 44.8973623,186.719951 46.1495401,186.407563 C48.0278069,185.938981 48.9119558,183.583814 49.0803652,182.627479 C49.2487745,181.671144 48.8195821,185.938981 50.2127294,185.938981 C51.6058767,185.938981 51.8267569,182.63785 52.0133896,184.221475 C52.2000223,185.8051 53.8916563,192.73232 57.0022018,192.099059 C60.1127473,191.465797 60.1196596,186.862317 59.5930662,185.309805 C59.0664729,183.757293 62.0752651,189.872116 64.3327206,188.957893 C66.5901762,188.043671 65.9775393,185.937409 65.5386068,184.789053 C65.0996743,183.640697 70.9914873,191.031471 73.5719832,188.507854 C76.1524792,185.984236 74.2164003,180.436677 73.5719832,179.581853 C72.9275662,178.727028 76.3940963,182.635336 77.7036673,181.671144 C79.0132384,180.706952 79.0757635,179.941696 78.6610241,177.634299 C78.2462847,175.326901 82.184738,184.512178 85.6418422,182.214209 C87.9465783,180.68223 87.9465783,178.38646 85.6418422,175.326901 C88.394832,174.624605 89.3302998,173.57933 88.4482454,172.191079 M115.21562,109.592014 C112.285016,107.359983 111.357097,105.609268 112.431861,104.339869 C114.044008,102.43577 118.789088,102.868741 120.188425,103.604305 C121.587763,104.339869 118.13492,99.4473253 119.063786,97.8300833 C119.992652,96.2128413 121.705778,96.3387855 123.517966,97.1264036 C125.330153,97.9140217 120.506357,90.968624 123.517966,89.5156835 C126.529574,88.062743 128.545067,88.6159814 130.076151,91.3299177 C131.607235,94.043854 128.25309,85.5343529 131.607235,83.8397661 C134.961379,82.1451794 135.964584,84.7888857 135.732742,86.3506221 C135.500901,87.9123585 137.077888,83.2005326 139.383661,83.2005326 C141.689434,83.2005326 142.445326,85.1870473 142.140059,86.7229226 C141.834792,88.2587979 143.948758,84.6005651 145.578846,85.7384374 C146.665571,86.4970189 147.069713,87.4734091 146.791272,88.6676081 M44.1239005,112.82551 C45.3244718,111.045146 46.3462069,110.478889 47.189106,111.126739 C48.4534545,112.098514 47.8032498,115.729272 46.6601152,117.359853 C45.5169805,118.990435 49.2496393,113.809036 50.8629699,114.107654 C52.4763005,114.406271 52.337688,115.880991 51.5919143,117.359853 C50.8461406,118.838716 53.5724818,114.389438 55.7108505,115.781174 C57.8492191,117.17291 53.2117389,121.027408 53.6386766,120.776222 C54.0656144,120.525036 58.8677404,120.776222 58.3355148,123.078277 C57.9806978,124.612981 56.6411349,125.337928 54.3168262,125.253118 M90.2794655,138.642471 C88.1594839,139.94325 87.4599359,141.037824 88.1808217,141.926193 C89.2621503,143.258746 91.5668303,141.676618 93.4138094,141.480109 C95.2607884,141.2836 91.2340826,143.385295 90.9208759,144.692087 C90.6076692,145.99888 92.5289787,146.707754 94.0301555,145.629474 C95.5313323,144.551194 90.9208759,149.153678 93.4138094,150.34206 C95.9067428,151.530443 97.9239825,147.540603 98.6960926,145.629474 C99.4682028,143.718345 96.6170829,150.576042 98.1994477,151.595993 C99.7818125,152.615943 100.89495,150.689547 101.952956,148.245563 C103.010963,145.801579 99.9404929,154.88621 102.476055,155.427779 C105.011617,155.969348 105.088433,151.693436 105.208527,150.34206 C105.328621,148.990685 105.978771,154.17322 107.788344,154.002392 C109.597917,153.831564 108.830794,150.460469 108.758669,149.725577 C108.686544,148.990685 109.454939,151.571084 111.020064,150.788356 C112.58519,150.005628 110.375095,147.30124 111.020064,148.245563 C111.665034,149.189886 115.507186,150.936929 116.103691,148.990685 C116.501361,147.693189 115.818367,146.213359 114.054707,144.551194 M68.541976,276.301051 L90.6825088,276.301051 L90.6825088,275.52183 L68.541976,275.52183 L68.541976,276.301051 Z M90.4203611,275.882957 C93.6121898,276.343482 97.8817289,279.472364 95.6939703,276.286797 C94.2354646,274.163086 93.0376884,272.906302 92.1006416,272.516447 C94.1093426,272.297601 95.7529097,272.849505 97.031343,274.17216 C98.948993,276.156142 100.671417,279.117203 99.255986,275.422432 C98.3123652,272.959251 95.9272504,271.069378 92.1006416,269.752813 C94.1602234,269.413557 95.6068826,269.512783 96.4406194,270.05049 C97.6912246,270.857051 100.485375,273.491822 101.890325,274.934044 C103.344348,276.426642 100.850716,273.035258 94.4094266,264.759894 C98.9657362,266.489906 101.923944,268.253438 103.284049,270.05049 C104.644154,271.847543 102.363011,269.099122 96.4406194,261.80523 C102.656078,263.577943 106.322087,266.495991 107.438645,270.559374 C108.555203,274.622757 108.555203,276.531898 107.438645,276.286797 M106.752509,268.320158 C107.046009,265.6175 107.046009,263.671423 106.752509,262.481927 C106.459009,261.29243 105.488771,259.306321 103.841794,256.5236 C109.391075,259.150751 111.914164,262.859079 111.411061,267.648585 C111.049465,271.090958 112.135288,269.938333 114.049307,265.991911 C114.54866,264.962319 115.368736,263.15235 116.509535,260.562004 L116.509535,269.612383 M112.724242,277.511744 L118.452153,266.115523 C117.769505,270.776133 117.545707,273.417941 117.780759,274.040948 C118.015812,274.663955 119.489528,273.315896 122.201907,269.996772 C120.838533,275.285484 120.452024,277.950077 121.042381,277.990551 C121.632739,278.031024 123.425391,275.645377 126.420338,270.833607 C127.429045,273.763839 127.872217,275.32036 127.749856,275.50317 C127.662271,275.634022 128.563421,274.732799 129.204507,272.304949 C129.374211,271.662264 129.478077,270.414101 129.516106,268.560461 L131.88851,273.431973 C132.821827,270.09315 133.780859,267.76467 134.765607,266.446533 C135.750354,265.128397 138.093317,263.036984 141.794495,260.172293 C140.73139,263.160308 140.061988,265.369706 139.78629,266.800487 C139.510592,268.231269 139.510592,269.495841 139.78629,270.594204 L147.203017,266.446533 C145.159703,268.276806 143.814081,269.608628 143.166149,270.441999 C140.522803,273.841877 139.78629,276.025676 139.78629,276.15934 C139.78629,276.295617 141.864843,275.167465 145.922915,274.47749 C146.846695,274.320424 148.452434,274.320424 150.740133,274.47749 C148.840244,275.739495 147.661206,276.632555 147.203017,277.156671 C146.744829,277.680787 146.18701,278.56898 145.529559,279.821251 M142.430688,271.727478 C152.131814,270.608026 158.278209,270.328162 160.869872,270.887889 C163.461535,271.447615 168.912077,272.170479 177.221498,273.056479 L183.022552,272.409383 M194.712326,74.4159459 C195.871271,73.1484828 196.582104,70.7833937 195.386207,69.2015211 C194.19031,67.6196485 190.28737,71.8088274 190.912044,70.6209207 C191.536717,69.433014 192.828145,66.1552681 191.752075,64.7693071 C190.676004,63.3833462 185.600682,66.5653469 186.85969,65.198603 C188.118698,63.8318591 191.652632,55.0453636 188.267877,54.3482116 C184.883122,53.6510597 180.564343,61.6746777 181.239522,60.2442231 C181.9147,58.8137685 181.423557,56.0844211 179.744695,56.2827902 C178.065833,56.4811593 174.907068,61.117952 176.336286,58.4112554 C177.765503,55.7045587 178.137145,50.2162376 175.674494,49.9205255 C173.211844,49.6248133 170.927281,55.7599785 171.19625,54.7687051 C171.465219,53.7774316 171.65386,46.215407 169.295299,45.4319672 C166.936738,44.6485274 165.117331,52.0725553 165.506492,48.8914796 C165.895652,45.7104039 165.335104,42.749705 163.561746,42.0731974 C162.379507,41.6221924 161.049476,42.7417823 159.571651,45.4319672 C158.836576,41.5505105 157.742864,39.5097188 156.290515,39.309592 C154.111992,39.0094017 153.277998,45.1301161 153.184919,42.9907462 C153.091841,40.8513764 151.838973,38.5492929 148.602447,39.8196115 C145.365921,41.0899302 147.544285,52.8368649 146.97651,50.7732769 C146.408735,48.7096888 142.977226,45.5447553 140.775434,46.506961 C138.573642,47.4691666 141.308983,54.81457 140.355633,53.3836685 C139.402284,51.952767 136.831421,47.2165919 133.057146,47.9167516 C129.282871,48.6169112 131.060412,58.8219357 129.859794,54.7687051 C128.659175,50.7154744 127.129763,49.3487005 124.331861,49.359328 C121.533959,49.3699556 119.53927,56.6544148 119.284243,55.5961522 C119.029216,54.5378896 120.854059,44.6506433 118.722224,42.9907462 C116.590389,41.3308491 115.007782,49.359328 115.030807,45.9254523 C115.053831,42.4915766 114.599579,40.7289785 112.187934,40.274295 C109.776289,39.8196115 109.065731,45.4319672 109.138002,43.1879156 C109.210273,40.943864 107.917389,39.1728511 104.573896,39.4962313 C101.230402,39.8196115 103.157736,46.9958696 102.085972,45.4319672 C101.014207,43.8680647 99.4396165,40.274295 96.7370701,41.2971014 C94.9353725,41.9789723 94.6773803,44.4241925 95.9630934,48.6327621 C93.5162189,46.2475295 91.5638358,45.7723157 90.1059441,47.2071206 C87.9191067,49.359328 94.217237,64.4750343 93.496898,62.3302895 C92.7765591,60.1855447 88.1007435,49.7845227 81.0674317,47.6082449 C76.3785571,46.1573931 75.3179428,49.0489082 77.8855887,56.2827902 C73.7961173,54.5228755 71.7508905,55.1434956 71.7499083,58.1446506 C71.7484351,62.6463832 77.9148489,66.5619723 78.9616592,67.6734918 C80.0084696,68.7850114 75.2670987,65.1890659 72.8937729,67.6734918 C71.3115556,69.3297757 71.4575416,71.2532437 73.3317308,73.4438957 C71.0662701,73.1195971 69.8796029,73.8003369 69.7717294,75.4861149 C69.6099191,78.0147819 78.2972948,80.4052071 74.9746022,79.6355213 C71.6519096,78.8658355 64.2419133,79.1089441 62.5035368,82.9181024 C60.7651603,86.7272607 61.9968403,77.8154519 60.0343307,76.3646151 C58.0718212,74.9137784 56.7822605,79.0590973 56.6689322,81.1946874 C56.555604,83.3302774 55.4400054,77.9520889 53.2582383,77.8154519 C51.0764712,77.6788148 50.7067342,86.2184359 51.5712681,89.9696144 C52.435802,93.720793 48.8759754,83.4759413 45.7694414,83.9770047 C43.6984187,84.311047 43.1529928,87.4288474 44.1331635,93.3304059 C41.0199046,90.8113592 39.1025694,90.3652573 38.3811579,91.9921002 C37.2990406,94.4323646 41.4499697,101.555167 40.4669712,100.084419 C39.4839727,98.6136707 35.730647,97.6240658 34.5469695,99.8339906 C33.3632919,102.043915 37.4251782,108.538228 35.8152297,106.532375 C34.2052811,104.526522 30.8250301,104.151033 29.7343921,105.609254 C28.6437541,107.067475 28.1837633,108.013335 30.2047932,111.004842 C32.2258231,113.996349 24.1579575,104.974694 22.3523566,107.288688 C20.5467557,109.602683 25.4318689,119.879246 23.8116873,116.223386 C22.1915057,112.567527 17.187485,110.136417 14.9389824,111.652562 C12.6904798,113.168707 16.3458508,118.68904 18.2303511,120.375032 C20.1148514,122.061024 11.6661612,115.875217 10.7568576,118.307286 C9.84755407,120.739354 15.2487781,124.632716 15.2818031,125.978388 C15.3148281,127.32406 10.7568576,123.731149 10.7568576,127.136429 C10.7568576,128.518552 13.3108062,130.530482 12.3037092,129.781317 C10.4297779,128.387325 2.71290959,126.593701 2.52209578,129.781317 C2.37162904,132.29492 3.87850896,134.357405 7.04273555,135.968772 C4.29398569,136.12689 3.05466587,136.974737 3.32477609,138.512312 C3.72994141,140.818675 12.6721991,143.269776 10.3635243,142.790303 C8.05484941,142.31083 0.291472466,141.402423 0.208488724,145.385661 C0.153166229,148.041153 2.11999285,149.417838 6.10896859,149.515716 C4.88766964,150.953111 5.10394968,152.411094 6.75780871,153.889665 C9.23859726,156.107522 16.6575218,153.500954 16.6575218,154.324579 C16.6575218,155.148204 11.7394589,159.989035 12.3037092,163.819226 C12.8679595,167.649418 16.3621776,165.917014 17.3674161,164.789754 C18.3726546,163.662494 15.794688,167.543205 17.3674161,168.539973 C18.9401442,169.536741 23.9403741,166.681279 21.9825144,168.290812 C20.0246547,169.900345 17.459034,172.231017 19.7139853,175.414441 C21.9689366,178.597865 25.2131548,175.21024 25.8581487,172.83749 C26.5031427,170.464741 25.8351962,174.585661 27.6078028,174.809982 C29.3804094,175.034302 30.7658047,171.846414 30.6963559,172.83749 C30.626907,173.828567 29.7673298,175.696879 32.4894843,176.525801 C35.2116389,177.354723 38.3811579,171.045795 38.3811579,168.290812" id="Combined-Shape"></path>
                <path d="M2.20741261,220.694195 L36.8067302,220.694195" id="Path-63"></path>
                <path d="M876.272429,220.519481 L898.869469,220.519481" id="Path-64"></path>
            </g>
        </g>
    </g>
</svg>