<?xml version="1.0" encoding="UTF-8"?>
<svg width="690px" height="500px" viewBox="0 0 690 500" version="1.1" xmlns="http://www.w3.org/2000/svg" xmlns:xlink="http://www.w3.org/1999/xlink">
    <!-- Generator: Sketch 47 (45396) - http://www.bohemiancoding.com/sketch -->
    <title>dom-4-690</title>
    <desc>Created with Sketch.</desc>
    <defs></defs>
    <g id="Page-1" stroke="none" stroke-width="1" fill="none" fill-rule="evenodd">
        <g id="dom-4-690" stroke="#FFFFFF">
            <g id="home4" transform="translate(-38.000000, 156.000000)">
                <g id="дом-4" fill-rule="evenodd" transform="translate(169.067591, 0.000000)">
                    <path d="M460.217764,222.473088 L499.511617,220.366079 L499.160912,60.1078202 L265.609604,17.3427888 L247.268181,22.3442758 M374.362112,76.8083214 L374.362112,201.614331 L264.114012,205.272716 M253.417142,205.627673 L239.472593,206.090398 M228.793657,206.444759 L214.268475,206.926751 L214.268475,53.9210377 L228.698757,50.0301659 M239.117653,47.2208935 L265.713552,40.0497768 L432.097498,65.9541833 L432.692167,202.892478 L454.991596,204.534318 L454.878101,220.737898 L393.296436,224.996582 L378.933874,221.700554 M432.689137,205.175371 L151.246874,217.876804 L4.46378681,201.614331 L4.46378681,189.102067 M4.46378681,63.4148153 L4.46378681,60.5295563 L1.51119416,61.2897193 M0.73023567,192.002031 L0.562516931,220.073823 L151.246874,242.841343 L378.933874,227.834162 L378.933874,221.138678 M454.991596,204.534318 L460.079104,204.72114 L460.079104,225.730408 L393.530251,230.65701 L378.933874,227.834162 M432.697392,203.040284 L432.689137,211.703181 L448.042449,212.996678 L448.042449,219.046861 L454.878101,220.366079 M214.446847,54.1054111 L228.776726,56.1426319 M239.137699,57.6156095 L253.364845,59.6382251 M263.740929,61.1133508 L374.350124,76.8382114 L432.224922,66.1144769 M4.59983544,201.466691 L14.2427792,201.218839 M37.9833184,200.608638 L94.0980237,199.166326 L94.0980237,71.0631371 M94.0138674,199.16684 L141.679,202.240931 M152.41756,202.933498 L172.586422,204.234258 M183.419588,204.932926 L200.987781,206.06596 M211.725976,206.758504 L214.302802,206.924692 M0.940739837,212.90059 L150.85998,232.831007 L386.719103,219.676004 M460.29794,215.399517 L499.706091,213.506142 M499.21413,76.6337004 L540.548188,83.628943 L540.548188,211.395561 L499.568636,213.893277 M499.457497,106.43919 L528.280511,109.793656 L528.280511,190.118187 L499.457497,190.872289 M513.569044,111.150465 L525.021218,112.368306 L525.021218,187.500621 L513.569044,187.753346 L513.569044,111.150465 Z M499.524443,188.068499 L499.278277,109.550989 L511.769821,110.90901 L511.98888,187.815411 L499.524443,188.068499 Z M267.68454,81.4719366 L342.17599,89.4060457 L342.17599,194.644499 L267.68454,196.065499 L267.68454,81.4719366 Z M269.712749,85.9124262 L291.337059,88.2160831 L291.337059,191.861908 L269.712749,192.282059 L269.712749,85.9124262 Z M293.685571,88.4774514 L315.746369,90.7656082 L315.746369,191.406416 L293.685571,191.816763 L293.685571,88.4774514 Z M318.28869,91.1018053 L338.385738,93.2488055 L338.385738,190.954213 L318.28869,191.355978 L318.28869,91.1018053 Z M382.371641,201.80286 L381.721192,100.797117 L424.41428,96.6085439 L424.41428,204.286192 M384.998618,103.624096 L421.381133,100.037527 L421.298899,111.72191 L385.065573,114.391535 L384.998618,103.624096 Z M385.606901,198.034596 L396.693816,198.296568 L396.693816,118.761449 L385.099221,119.364599 L385.606901,198.034596 Z M400.239779,198.411519 L400.239779,118.576725 L421.236727,117.486934 L420.569921,199.333238 L400.239779,198.411519 Z M374.345455,201.587736 L432.778474,204.899909 L374.345455,201.587736 Z M102.385697,199.664549 L102.385697,99.2446537 L141.71933,91.031291 M152.219936,88.838631 L172.608243,84.5812933 M182.997069,82.4119742 L198.03252,79.272381 L198.03252,196.644711 L183.343274,195.984296 M172.588636,195.500777 L152.442872,194.595043 M141.716831,194.11281 L119.706214,193.123233 L119.706214,200.797 M106.576941,121.932158 L116.48141,120.340871 L116.48141,197.014276 L106.576941,196.328307 L106.576941,121.932158 Z M106.576941,101.505734 L116.99813,99.5446462 L116.99813,117.474536 L106.576941,119.035025 L106.576941,101.505734 Z M196.3477,84.0527425 L183.149448,86.6237558 M172.630654,88.672812 L166.148453,89.9355416 L166.148453,189.450201 L172.630125,189.646552 M183.279688,189.969161 L196.025475,190.355271 L196.3477,84.0527425 M163.519565,90.474795 L152.227904,92.6640154 M141.701912,94.7047883 L133.344294,96.3251581 L133.344294,188.390795 L141.717091,188.653847 M152.460075,188.991363 L163.164902,189.327681 L163.519565,90.474795 M131.990811,96.6080177 L119.941574,98.9155228 L119.67015,187.976653 L131.880475,188.342828 L131.990811,96.6080177 Z M4.47753019,60.5588383 L152.206755,0.21095429 L152.206755,11.4424574 L7.08765878,67.3653635 M152.437658,0.0552305283 L160.694618,1.04836362 L160.694618,12.2074148 L151.998806,11.5387018 M184.656282,5.57815108 L191.997581,6.55637264 L191.997581,17.1658003 L184.556813,16.7486791 M212.945028,11.3257071 L220.022209,12.4109482 L220.022209,22.120352 L212.945028,21.7980297 M240.071545,16.9764433 L247.148725,17.6695353 L247.148725,26.5385338 L240.071545,26.2162115 M14.2233866,66.0093177 L37.9526915,57.0756208 L37.9526915,202.928379 L14.2233866,201.727322 L14.2233866,176.517593 M14.2233866,146.835543 L14.2233866,142.842439 M14.2233866,72.9494069 L14.2233866,66.0093177 L14.2233866,66.0093177 M386.331423,214.617179 L432.697392,211.703181 M386.719103,215.094218 L395.273907,216.861927 L448.042449,213.326508 M386.635601,220.737898 L395.273907,222.473088 L448.165402,219.046861 M393.530251,230.65701 L393.530251,224.996582 L395.273907,222.865799 L395.459355,216.861927 M378.665203,221.434725 L386.635601,220.737898 L386.635601,214.42951" id="Combined-Shape"></path>
                    <path d="M265.93943,40.0826133 L265.93943,17.2818264 L265.93943,40.0826133 Z M141.733914,16.7402483 L152.028309,13.3455444 L152.406842,212.124048 L141.733914,212.124048 L141.733914,16.7402483 Z M172.645526,22.9333987 L182.93992,19.6572327 L183.318454,211.494689 L172.645526,211.494689 L172.645526,22.9333987 Z M201.033741,27.2545696 L211.328135,24.0754145 L211.706669,210.232351 L201.033741,210.232351 L201.033741,27.2545696 Z M228.791107,31.5871662 L239.085501,28.4935963 L239.464034,209.639051 L228.791107,209.639051 L228.791107,31.5871662 Z M253.394226,45.2249637 L263.688621,42.3793106 L264.067154,209.007882 L253.394226,209.007882 L253.394226,45.2249637 Z M160.492482,1.06318814 L263.824706,19.822177 L160.492482,1.06318814 Z M160.753935,4.8816501 L182.286918,8.88171234 L160.753935,4.8816501 Z M191.975102,10.5738863 L211.371749,14.086087 L191.975102,10.5738863 Z M219.915209,15.6326019 L238.589033,19.0228381 L219.915209,15.6326019 Z M247.082211,20.5719302 L263.313723,23.5073357 L247.082211,20.5719302 Z M160.67579,11.2547145 L181.69342,14.986228 L160.67579,11.2547145 Z M191.984437,16.8761578 L210.275922,20.1857666 L191.984437,16.8761578 Z M219.915209,21.9442902 L237.082078,24.8765355 L219.915209,21.9442902 Z M247.082211,26.8836185 L263.313723,29.819024 L247.082211,26.8836185 Z" id="Combined-Shape"></path>
                    <g id="Group-2" transform="translate(10.724437, 5.049351)">
                        <path d="M0.27075512,63.1831883 L3.46927442,62.0299921" id="Path-2"></path>
                        <path d="M27.2859825,53.1078893 L130.960129,14.3232033" id="Path-8"></path>
                        <path d="M141.388031,10.429814 L150.112999,7.17241623" id="Path-9"></path>
                        <path d="M27.2081702,62.7732672 L131.078059,26.6028507" id="Path-13"></path>
                        <polyline id="Path-14" points="141.264927 23.0295546 173.679192 11.7800864 173.679192 0.53061828 141.264927 12.5184309"></polyline>
                        <path d="M131.04537,16.2626558 L27.214142,54.4675079" id="Path-15"></path>
                        <polyline id="Path-16" points="27.4288116 62.7386673 30.1083596 62.9701787 131.032946 28.9794814"></polyline>
                        <path d="M141.305517,25.6861725 L161.927378,18.7582366" id="Path-17"></path>
                        <path d="M172.129965,15.3299037 L181.473764,12.1545998" id="Path-18"></path>
                        <polyline id="Path-19" points="131.03174 30.4369008 41.3156124 60.6702393 41.3156124 68.0455912 45.4106371 68.0455912 131.03174 41.4512856"></polyline>
                        <path d="M41.549861,67.9972268 L131.137319,39.4956694" id="Path-20"></path>
                        <path d="M141.317128,26.9507667 L161.936462,19.9830559" id="Path-22"></path>
                        <polyline id="Path-23" points="172.368985 16.4400323 202.085531 6.44167313 202.085531 16.8227456 172.278708 26.3516349"></polyline>
                        <path d="M141.421237,36.2160959 L161.954649,29.6487931" id="Path-24"></path>
                        <path d="M141.311587,38.269498 L162.045265,31.8217986" id="Path-25"></path>
                        <path d="M172.031672,28.7205298 L190.237145,23.0719971" id="Path-26"></path>
                        <path d="M200.578723,19.8574225 L209.392223,17.1010558" id="Path-27"></path>
                        <polyline id="Path-28" points="63.9387146 62.4411464 63.9387146 69.9036459 68.8792537 69.9036459 130.930622 52.1055682"></polyline>
                        <path d="M64.3600168,69.8927925 L131.025281,50.2123418" id="Path-29"></path>
                        <path d="M141.317314,47.204663 L162.029856,41.0741782" id="Path-30"></path>
                        <path d="M141.31369,49.090886 L162.069369,43.0315868" id="Path-31"></path>
                        <path d="M172.206971,38.0746082 L190.345238,32.7199044" id="Path-32"></path>
                        <path d="M172.096488,40.1712038 L190.424886,34.8636865" id="Path-32"></path>
                        <polyline id="Path-33" points="200.430125 29.7321449 229.227607 21.2196331 229.227607 11.979043 209.596066 16.8275081"></polyline>
                        <path d="M200.545419,31.9177027 L218.028346,26.8716038" id="Path-34"></path>
                        <path d="M228.294455,23.9124669 L236.521218,21.5026002" id="Path-35"></path>
                    </g>
                </g>
                <path d="M92.4848673,214.967307 C92.9948916,209.89417 93.1845558,206.395879 93.0538599,204.472433 C92.7887739,200.571174 91.2816308,199.114925 91.2816308,195.716214 C91.2816308,189.791451 91.9966142,186.976145 90.6369465,182.615443 C89.7305015,179.708309 87.6548966,177.220186 84.4101321,175.151075 C81.2930375,173.854851 79.1087673,172.768604 77.8573215,171.892334 C75.9801528,170.577929 71.1971493,166.067651 69.4184833,165.233837 C67.6398172,164.400024 67.1371872,163.569956 65.8108616,163.785827 C64.9804325,163.920987 60.152193,166.627038 55.9422338,169.143857 C53.4282284,170.646792 50.7982859,172.522953 50.3037864,172.522953 M106.209805,220.219329 C106.059433,212.728895 105.830105,208.214476 105.521822,206.676073 C105.059397,204.36847 104.201252,204.467253 103.603607,203.211683 C103.205178,202.374636 103.205178,195.483509 103.603607,182.538303 C106.319906,175.347885 109.014242,171.552888 111.686615,171.153312 C115.695174,170.553947 122.645399,170.846445 124.254962,171.153312 C124.687858,171.235844 126.872489,173.030034 129.386644,175.135552 C132.072036,177.384476 135.025704,179.622198 136.350704,180.615342 M113.088626,158.707383 C111.156333,161.179862 109.403773,162.787241 107.830948,163.529519 C105.471709,164.642937 100.833618,166.697695 99.323107,171.210682 C97.812596,175.723669 99.2707625,176.996604 97.4160068,176.021596 C95.5612511,175.046588 90.397312,172.105798 88.65953,169.164474 C86.9217481,166.22315 85.465184,166.042257 84.3104016,162.386176 C83.1556192,158.730095 82.2318466,151.323345 83.3083795,146.536212 M119.695242,156.859704 C117.774343,161.821407 115.648251,164.579254 113.316965,165.133246 C110.985679,165.687238 112.415537,165.964235 117.606539,165.964235 C121.82169,165.671028 124.138466,165.772831 124.556865,166.269643 C124.975265,166.766454 125.799333,167.440062 127.029072,168.290467 M80.9704278,144.378397 C80.4912965,148.376876 80.0396298,151.460364 79.6154278,153.628863 C78.9791247,156.88161 82.5321052,164.975897 82.6131144,165.871259 C82.6941236,166.766622 73.8274242,162.357004 71.2070881,157.802604 C69.4601974,154.766337 68.2487521,151.377929 67.5727522,147.637379 M60.1510631,151.136741 C64.3478474,156.686489 66.053195,159.864305 65.2671057,160.670189 C64.0879718,161.879015 57.4498482,162.53954 50.2984055,171.058821 M106.897731,111.828485 C104.239069,115.894008 103.198818,118.455033 103.776978,119.511559 C104.644218,121.096348 107.530705,118.856222 107.95035,119.106479 C108.369994,119.356736 106.531598,120.429502 107.240974,121.577328 C107.95035,122.725154 111.704735,121.084352 110.888028,121.904455 C110.071322,122.724558 108.504096,126.558202 110.518135,128.09858 C111.860828,129.125498 113.135014,128.445592 114.340695,126.058861 C115.046764,127.389874 115.697821,128.06978 116.293867,128.09858 C117.187934,128.141778 117.503628,127.342023 118.162413,126.058861 C118.821199,124.7757 117.256977,129.681355 119.220538,129.298652 C121.184099,128.915948 124.310548,123.81905 123.716866,124.938956 C123.123184,126.058861 120.421237,135.74437 122.90099,137.462708 C124.554159,138.608267 126.500995,137.91969 128.741499,135.396975 C129.492042,136.774131 130.214531,137.462708 130.908969,137.462708 C131.950624,137.462708 133.666691,134.548536 133.646142,135.396975 C133.625594,136.245415 133.580072,138.276927 135.470551,137.462708 C137.36103,136.64849 136.367233,139.544248 138.250994,140.7954 C140.134755,142.046553 141.592272,141.430799 142.012602,139.933391 C142.432931,138.435984 140.797722,136.147918 141.409723,135.906451 C142.021724,135.664984 142.739794,138.777933 144.739178,138.857611 C146.738561,138.937288 146.984725,135.396975 147.04133,135.396975 C147.097936,135.396975 147.934167,140.417716 150.213401,140.349796 C152.492634,140.281876 152.993368,138.136217 153.217802,133.598927 C153.442235,129.061637 154.499375,133.740003 156.479627,133.598927 C158.45988,133.457851 157.793081,129.774635 158.016405,130.206115 C158.239728,130.637596 160.960792,135.109152 163.1492,133.938525 C164.608139,133.158108 164.750002,131.211459 163.574789,128.09858 C165.109509,128.430225 166.065801,128.430225 166.443666,128.09858 C167.88496,126.833582 166.672961,124.612922 165.742577,123.839785 C164.827617,123.079466 171.188018,128.249298 173.448417,126.318982 C175.708816,124.388666 172.35503,121.744548 170.952187,120.278659 C169.549344,118.81277 174.278902,121.504775 175.518126,119.802975 C176.75735,118.101175 172.236791,115.207287 173.121521,115.535459 C174.00625,115.863632 177.702034,118.565027 178.97647,114.818177 C180.250906,111.071326 174.466653,109.255647 174.852755,109.338104 C175.238856,109.420561 178.711489,109.684065 178.792455,107.874803 C178.87342,106.065542 174.973943,104.386125 176.090404,104.71327 C177.206864,105.040414 182.849604,105.163325 183.623879,102.300605 C184.398154,99.4378851 178.810625,99.789161 179.941854,99.3659129 C181.073083,98.9426647 185.825376,96.7530753 184.411433,95.1232102 C182.997491,93.4933451 179.941854,95.7125548 181.60683,94.5613796 C183.271806,93.4102043 184.42186,91.9925361 183.623879,91.1735961 C182.825898,90.3546561 180.968488,89.9374023 178.529446,91.4031683 C176.090404,92.8689344 183.088057,89.0447529 182.700869,86.5505193 C182.313681,84.0562857 177.436412,85.8045856 178.529446,85.1434156 C179.62248,84.4822457 182.609739,81.3659097 180.581645,80.008071 C178.55355,78.6502323 173.448417,82.4967201 173.121521,82.8675844 C172.794624,83.2384487 176.923202,78.8940929 173.937695,78.4834977 C170.952187,78.0729024 169.322572,80.8302232 170.298794,79.5042258 C171.275016,78.1782283 173.937695,75.4447345 172.864392,74.257252 C172.148857,73.4655969 170.895608,73.4655969 169.104647,74.257252 M28.8013257,141.819483 C26.7819232,143.183762 25.9852763,144.527568 26.4113851,145.8509 C27.0505483,147.835899 29.0136948,147.08634 29.982788,147.08634 C30.9518811,147.08634 27.3176172,148.944724 28.202336,150.544084 C29.0870547,152.143445 30.9139789,151.752703 31.9459845,151.680499 C32.9779901,151.608295 30.0779341,152.808483 30.3995346,153.787133 C30.7211351,154.765783 35.5546685,154.129457 34.2809202,154.476799 C33.0071719,154.824141 30.0307273,155.730734 30.7211351,157.145493 C31.411543,158.560253 35.2051679,157.005206 34.9208451,157.33718 C34.3405238,158.01476 33.0586655,159.741321 34.0213792,160.559402 C35.4557652,161.778294 36.5268379,160.007034 36.8778326,159.651204 C37.2288273,159.295375 35.8631521,162.603362 37.7670638,162.517154 C39.0363384,162.459682 39.8354929,161.807098 40.1645276,160.559402 M47.494333,159.390774 C45.6890216,159.726302 44.7641735,160.242312 44.719789,160.938805 C44.6532121,161.983545 48.7656166,163.611342 47.7778554,163.177398 C46.7900943,162.743453 45.0899913,162.66454 45.0899913,163.932434 C45.0899913,165.200328 46.9944416,166.003876 46.1667769,165.649713 C45.3391121,165.295549 41.7672944,164.770057 42.1204372,166.459302 C42.47358,168.148548 46.4795585,168.958434 45.0899913,168.599882 C43.700424,168.24133 42.1204372,169.353438 42.6791124,170.486675 C43.0515625,171.242167 43.9103092,171.573951 45.2553524,171.482028 C44.2355701,172.725279 44.1384486,173.592939 44.9639879,174.085009 C46.3445526,174.907907 47.6283924,173.130989 47.6283924,173.547893 C47.6283924,173.964796 48.5406709,175.002624 49.8027265,174.085009 C50.814363,173.349469 50.2109622,171.420222 50.2109622,170.19392 M48.3656299,174.483725 C47.6812713,175.550107 47.6430785,176.308701 48.2510514,176.759507 C49.1630107,177.435716 50.8866899,175.957518 50.3922284,176.759507 C49.8977669,177.561496 48.414916,178.913313 49.5330232,179.768749 C50.6511304,180.624186 52.6943355,178.927926 53.0182126,178.403987 C53.3420896,177.880049 52.6347787,179.92122 53.7113363,180.105586 C54.4290413,180.228497 55.1824048,179.297592 55.9714268,177.312872 C55.3923542,180.055074 55.7194831,181.357646 56.9528135,181.22059 C58.1861439,181.083533 58.8744151,180.253897 59.0176271,178.731682 M32.4359015,157.745117 C30.3103177,158.769827 29.294902,159.700878 29.3896545,160.538269 C29.5317834,161.794355 32.778306,161.862542 32.2723668,161.930199 C31.7664276,161.997856 28.913198,163.212395 28.6357265,164.651857 C28.4507455,165.611497 29.0857499,166.307268 30.5407395,166.739169 C28.0649537,168.61116 27.1706085,170.060999 27.8577041,171.088688 C28.8883475,172.63022 31.0018494,171.736494 32.0337467,170.812292 C33.0656439,169.888091 25.9006724,175.466215 27.8577041,176.773424 C29.8147359,178.080632 32.3970095,176.049283 31.5716315,176.773424 C30.7462535,177.497565 28.5855021,179.643018 29.8535356,180.966978 C30.6988913,181.849618 31.9815846,181.497186 33.7016154,179.909682 C33.2788966,181.24627 33.5020714,181.93387 34.37114,181.972481 C35.674743,182.030397 36.852268,181.44361 38.2440115,179.539012 C39.635755,177.634414 36.6812819,182.985272 38.8392341,183.74302 C40.9971863,184.500768 42.8626205,181.801811 43.1091387,181.222186 C43.3556569,180.64256 41.8794235,184.67226 44.2347978,185.156476 C46.5901721,185.640691 47.4386452,182.722776 47.965746,181.972481 C48.4928469,181.222186 47.5036524,183.42907 48.4002177,183.964919 C49.2967829,184.500768 51.1084205,182.394471 50.4819658,182.944456 C49.855511,183.494441 47.4954517,189.386383 50.8266808,189.133229 C54.1579099,188.880076 55.8507439,185.654761 56.0142563,184.500768 C56.1777687,183.346774 56.3908114,186.383728 57.5480223,186.124508 C58.7052332,185.865288 59.7293269,184.682614 59.9761926,183.74302 C60.2230584,182.803426 60.3888924,185.456655 61.6349032,185.48944 C62.880914,185.522226 63.7787267,182.87734 64.2642289,182.342761 C64.5689351,182.007254 64.2594593,183.714714 64.7506598,184.18028 C65.2418603,184.645846 65.7703921,184.568993 66.1835324,183.964919 C67.2929623,182.342761 64.7816237,189.428004 68.5034219,187.122277 C72.2252201,184.81655 70.8462452,181.372681 71.2884303,183.74302 C71.7306153,186.113359 73.1748973,186.26753 73.9653951,185.038336 C74.7558929,183.809143 74.0669519,181.067 74.4042583,181.972481 C74.7415648,182.877961 76.3962145,184.067488 77.1213499,183.162008 C77.6047735,182.558354 77.8168264,181.73658 77.7575085,180.696685 C78.9651758,181.28951 79.7497193,181.410446 80.111139,181.059494 C80.6532685,180.533066 79.4764588,177.279814 79.9470296,178.252293 C80.4176003,179.224772 83.4488479,179.738786 84.0918197,178.042639 C84.5204676,176.911874 84.4281486,175.805153 83.8148627,174.722476 M147.41758,87.9977596 C143.856619,84.5486689 142.256052,82.1811266 142.615879,80.8951325 C143.15562,78.9661414 145.454887,78.1480953 146.660399,80.1004085 C147.865911,82.0527218 144.392754,76.7444086 144.733572,75.7309679 C144.960784,75.0553408 146.111181,74.9396135 148.184766,75.383786 C147.585274,72.6276017 147.546912,70.8842645 148.06968,70.1537743 C148.592447,69.4232842 149.878409,69.4232842 151.927566,70.1537743 C150.916806,64.9631947 151.254868,62.5115502 152.941754,62.7988409 C155.472083,63.2297768 156.66821,67.0077797 156.786635,67.7665437 C156.905059,68.5253076 155.417659,60.9332746 157.841205,60.1660912 C159.456903,59.6546356 160.700589,59.9135521 161.572265,60.9428407 C163.009225,58.2136265 164.358919,57.1785158 165.621349,57.8375085 C167.514994,58.8259976 166.613289,61.181994 166.678454,62.3414536 C166.743619,63.5009133 168.915336,60.3960129 169.957025,61.1010106 C170.998715,61.8060082 171.307383,63.1838527 170.948912,65.2316265 C170.590441,67.2794004 173.091669,62.2103504 174.72219,63.5009133 C175.809204,64.3612885 176.257914,66.3130487 176.06832,69.3561939 C177.652058,67.6718823 178.846615,67.1419989 179.651992,67.7665437 C180.45737,68.3910885 180.765298,70.5860188 180.575777,74.3513348 C181.418011,72.8764665 182.31662,72.414711 183.271605,72.9660683 C184.704082,73.7931041 182.802645,79.3663497 183.848044,76.3929769 C184.893443,73.4196041 188.251982,69.5183956 190.472767,71.4285957 C192.693551,73.3387958 189.983213,78.650445 187.938681,80.8951325 C185.894149,83.13982 190.759921,78.1613756 192.299908,79.1036289 C193.326566,79.7317978 193.19187,81.207273 191.895819,83.5300545 C193.548161,82.6783403 194.671191,82.600033 195.264909,83.2951326 C196.155485,84.337782 196.345506,87.2273546 192.70148,89.9551459 C189.057454,92.6829372 195.188496,88.6957494 195.879934,89.1538967 C196.571372,89.612044 196.519516,90.8596388 196.519516,91.2913094 C196.519516,91.7229801 201.185359,87.016484 202.902355,89.1538967 C204.619351,91.2913094 202.177531,93.5541899 200.87731,94.1630254 C199.577088,94.7718609 204.756289,92.5666322 205.045009,94.7718609 C205.333729,96.9770895 201.973805,100.121271 199.24666,101.746924 C196.519516,103.372578 204.325707,98.9189355 205.73884,99.8950521 C207.151972,100.871169 206.252921,103.289138 203.975384,103.95161 C201.697846,104.614083 206.898982,103.862582 206.88789,105.194136 C206.876798,106.52569 205.774233,108.209365 203.975384,108.625203 C202.176534,109.041041 207.235098,109.56249 206.51672,112.006358 C206.037801,113.635604 203.068187,114.335706 197.607877,114.106666 C201.058767,114.559311 202.214205,115.504473 201.074192,116.942151 C199.364173,119.098667 193.293723,118.669963 195.951468,118.693396 C198.609213,118.716829 201.705411,120.656909 202.569789,123.777833 C203.434166,126.898756 193.403043,124.074268 195.544618,125.066692 C197.686193,126.059117 198.696238,127.704843 197.607877,129.086189 C196.519516,130.467535 191.235479,128.382018 192.885037,129.086189 C194.534596,129.790361 197.366679,132.681952 195.879934,134.836236 C194.888771,136.272426 192.160624,135.700107 187.695495,133.119279 C188.869114,134.916691 188.950176,136.131956 187.938681,136.765073 C186.421438,137.714748 183.320778,135.452396 184.893443,136.673674 C186.466108,137.894951 189.050243,141.91241 186.611712,143.315799 C184.173182,144.719188 180.76923,140.312128 180.267542,139.68949 C179.765855,139.066853 180.971452,141.665624 179.651992,142.367318 C178.332533,143.069012 176.45754,142.367318 176.06832,141.665624 C175.808841,141.197827 175.360131,141.431725 174.72219,142.367318 M134.25148,157.521725 C132.344717,157.402872 131.613285,157.802477 132.057181,158.720539 C132.723027,160.097631 129.006571,158.763376 128.856717,160.097631 C128.706862,161.431886 133.373269,162.127962 131.554098,162.129882 C129.734928,162.131801 128.856717,162.599716 128.856717,163.310427 C128.856717,163.784233 129.33439,164.343915 130.289737,164.989471 C126.934565,167.296816 125.684094,168.727598 126.538324,169.281817 C127.819669,170.113144 128.891002,168.766754 129.466106,169.281817 C130.041211,169.796879 128.247327,170.766002 128.856717,171.358165 C129.466106,171.950327 131.554098,172.908496 131.554098,172.68549 C131.554098,172.462484 131.907327,173.040788 131.554098,173.771226 C131.353317,174.18642 133.099879,175.961263 134.081394,175.126783 C135.062908,174.292304 133.67865,176.699693 134.740081,177.381212 C135.801513,178.06273 136.715355,175.716605 136.847913,176.779452 C136.980471,177.8423 135.691471,178.908277 136.135053,180.201584 C136.578635,181.494892 138.012049,181.535125 139.289867,180.868355 C140.567684,180.201584 138.136994,182.843279 139.289867,182.99132 C140.442739,183.13936 142.590976,181.816799 144.031693,180.868355 C145.472409,179.919911 140.831606,183.139617 141.571434,184.388197 C142.064652,185.220584 142.884739,185.372109 144.031693,184.842772 C142.59863,188.17589 142.59863,189.786698 144.031693,189.675195 C146.181287,189.50794 148.954739,184.998821 147.748148,187.527346 C146.541558,190.055872 145.316475,194.514547 148.915817,194.918351 C152.51516,195.322155 155.180883,186.185847 155.479509,184.184464 C155.778136,182.183081 154.640303,190.657396 157.678391,191.094497 C160.716479,191.531598 160.722334,188.476805 160.847513,187.527346 C160.972692,186.577887 160.789091,191.702423 162.964366,192.255196 C165.139641,192.807968 165.772045,190.582576 165.920845,188.184079 C166.069644,185.785583 166.355107,192.451949 168.792016,192.255196 C170.416622,192.124027 170.954002,190.766988 170.404155,188.184079 C171.275108,189.223162 172.217796,189.592684 173.232218,189.292644 C174.753852,188.842584 174.705221,185.662408 173.699525,184.546625 C172.693828,183.430842 176.453266,187.494734 177.146921,185.544463 C177.840576,183.594191 176.246263,178.875776 173.076869,177.658364 M152.538829,137.571123 C152.364255,136.060266 152.559856,135.20626 153.125632,135.009103 C153.974296,134.713369 155.371221,134.483153 155.809469,136.868042 C156.247716,139.252931 156.50895,140.514525 156.299247,139.208118 C156.089543,137.901711 157.466596,134.530449 158.949237,135.776101 C160.431879,137.021752 160.392865,138.487619 160.972777,140.297417 C161.55269,142.107216 161.410313,137.937086 162.631145,138.443176 C163.851977,138.949267 164.74633,143.430695 164.377731,140.85369 C164.009131,138.276684 164.711074,134.035314 166.942081,134.544643 C169.173089,135.053972 169.854649,141.139399 169.367062,142.928233 C168.879476,144.717067 170.971097,140.000371 172.223166,140.000371 C173.475235,140.000371 175.28513,141.290735 174.613531,142.928233 C173.941931,144.565731 175.765581,142.638865 176.364078,143.707102 C176.962575,144.77534 176.411389,146.487949 176.364078,146.811462 C176.316767,147.134976 177.547076,145.046925 178.195958,145.756946 C178.844841,146.466966 179.216759,147.500078 179.012577,148.328688 C178.808395,149.157298 181.908732,145.647303 183.188244,146.630676 C184.041253,147.286258 183.962513,148.955071 182.952026,151.637116 C185.034947,150.182587 186.070819,150.269126 186.059641,151.896733 C186.042874,154.338143 182.158622,157.198835 181.569845,157.843503 C180.981068,158.48817 186.080936,154.553569 187.034261,156.145554 C187.987587,157.73754 186.134729,159.289732 185.761099,159.486847 C185.387469,159.683962 188.079252,158.734241 188.22761,160.693499 C188.375968,162.652757 180.193897,166.190692 182.563306,165.574761 C184.932714,164.958829 191.233261,163.97113 191.17206,167.265606 C191.11086,170.560082 187.638192,170.526548 184.749195,170.947471 C181.860199,171.368393 189.084757,173.087647 187.991981,175.36169 C187.263463,176.877719 184.698913,177.021443 180.29833,175.792863 C181.518986,177.50809 181.695601,178.546228 180.828175,178.907279 C179.96075,179.268331 178.185353,179.479084 175.501985,179.53954 M105.247328,178.820866 C105.966896,180.598271 106.838031,180.841642 107.860732,179.55098 C108.883434,178.260318 109.386992,178.077653 109.371408,179.002985 C109.605042,180.29762 110.112103,180.827992 110.892592,180.594101 C112.063326,180.243265 111.998474,180.093491 112.927129,178.820866 C113.855784,177.548241 112.12582,181.81421 113.451181,182.195725 C114.776542,182.57724 117.345531,180.789869 118.334267,179.55098 C119.323003,178.312092 116.482466,183.201576 118.592713,183.089175 C120.702961,182.976774 121.953307,180.375221 122.926252,180.243265 C123.899197,180.111309 122.042836,182.506615 123.278575,182.453653 C124.102401,182.418345 124.841421,182.262237 125.495636,181.985327 C124.003201,186.504646 124.226936,188.501722 126.166842,187.976556 C129.076701,187.188807 130.276099,184.108092 130.546199,183.151908 C130.816298,182.195725 131.178931,185.091678 132.35224,184.771776 C133.52555,184.451875 133.919186,183.499122 134.212047,182.608292 C134.504908,181.717462 133.805566,184.941569 135.406966,184.598065 C136.474566,184.369062 137.388139,183.332032 138.147685,181.486974 M77.8571551,130.268538 C75.2186631,135.049544 74.4882774,137.754335 75.665998,138.382911 C76.8437187,139.011488 77.9981067,138.539051 79.1291623,136.965601 C78.6124034,138.576364 78.6124034,139.449195 79.1291623,139.584095 C79.6459211,139.718995 80.4707846,139.718995 81.6037526,139.584095 C80.5656448,144.206474 80.7719085,146.550193 82.2225436,146.615251 C83.6731787,146.680309 84.7135815,145.641197 85.3437519,143.497914 C85.9127222,145.032712 86.6241741,145.754857 87.4781076,145.66435 C88.7590079,145.528589 89.6511705,144.448535 89.770245,143.497914 C89.8893194,142.547294 89.4721091,146.796335 90.9547293,147.143971 C92.4373495,147.491607 94.0989925,146.312261 95.3241312,143.174816 C96.5492699,140.03737 92.4372719,154.011035 95.3241312,154.800996 C98.2109905,155.590956 98.9759186,154.066607 99.9930628,152.339887 C101.010207,150.613166 100.092966,155.00801 101.862632,155.196321 C103.632298,155.384631 104.367018,153.091213 104.696678,152.339887 C105.026337,151.58856 104.851702,154.8942 106.008474,155.196321 C107.165245,155.498441 108.525811,150.372531 108.128573,153.402152 C107.731334,156.431773 109.126101,160.614913 111.893817,159.658925 C114.661533,158.702936 113.369238,153.953636 112.906488,152.339887 C112.443739,150.726137 114.978958,155.963528 116.359909,155.963528 C117.740859,155.963528 117.654239,153.831853 117.889807,153.402152 C118.125376,152.972451 119.631717,159.534645 122.8103,158.172442 C125.988884,156.81024 125.12358,150.900889 124.479057,149.274788 C123.834533,147.648688 126.523038,152.024211 128.240272,151.357944 C129.957507,150.691677 128.945884,148.664838 128.608642,147.891028 C128.271401,147.117217 133.315044,155.186286 136.004553,151.58856 C138.694061,147.990833 132.648506,144.188891 134.277505,145.138864 C135.906505,146.088836 138.636506,145.575574 137.360719,143.497914 C136.084933,141.420255 140.268553,145.360126 141.581165,144.598147 C142.45624,144.09016 142.375317,142.97554 141.338398,141.254286 M36.3951154,148.40887 C36.0319551,150.382742 36.3573746,151.24316 37.371374,150.990126 C38.8923731,150.610574 39.6083469,148.702889 39.7447229,147.928258 C39.8810988,147.153627 39.5335437,150.610574 40.6616986,150.610574 C41.7898535,150.610574 41.9687197,147.936658 42.1198528,149.219395 C42.2709858,150.502131 43.6408519,156.113179 46.1597363,155.600238 C48.6786207,155.087296 48.6842182,151.358476 48.2577889,150.100942 C47.8313596,148.843407 50.2678453,153.796414 52.0959072,153.055894 C53.9239691,152.315374 53.4278628,150.609301 53.0724202,149.679133 C52.7169776,148.748965 57.4881009,154.735492 59.5777573,152.691361 C61.6674136,150.647231 60.0995989,146.153708 59.5777573,145.461301 C59.0559156,144.768893 61.8630724,147.934622 62.9235482,147.153627 C63.984024,146.372631 64.0346561,145.752774 63.6988048,143.883782 C63.3629536,142.01479 66.5522683,149.454864 69.3517921,147.593509 C71.2181413,146.352606 71.2181413,144.493033 69.3517921,142.01479 C71.581132,141.44593 72.3386632,140.599258 71.6243856,139.474774 M93.3003018,88.7695317 C90.9271323,86.9615866 90.1757136,85.5435073 91.0460456,84.5152939 C92.3515437,82.9729739 96.1940556,83.3236803 97.3272232,83.9194871 C98.4603907,84.5152939 95.6643179,80.5523335 96.4165031,79.2423675 C97.1686883,77.9324014 98.5559579,78.0344162 100.023447,78.6723869 C101.490936,79.3103576 97.5846808,73.6845855 100.023447,72.5077036 C102.462213,71.3308218 104.094337,71.778945 105.334191,73.9772334 C106.574046,76.1755218 103.857897,69.2828258 106.574046,67.9102106 C109.290194,66.5375953 110.102577,68.6789974 109.914835,69.9440039 C109.727092,71.2090104 111.004118,67.3924314 112.871307,67.3924314 C114.738496,67.3924314 115.350609,69.0015083 115.103407,70.2455673 C114.856205,71.4896263 116.568071,68.5264577 117.888097,69.4481343 C118.768115,70.0625853 119.095385,70.8534614 118.869907,71.8207625 M35.731034,91.3886628 C36.703243,89.9465681 37.5306325,89.4879 38.2132026,90.0126587 C39.2370577,90.7997967 38.7105293,93.7407104 37.7848319,95.0614812 C36.8591344,96.382252 39.8817991,92.1853193 41.1882559,92.4271994 C42.4947128,92.6690796 42.3824659,93.8636028 41.7785468,95.0614812 C41.1746278,96.2593596 43.3823879,92.6554445 45.1140146,93.782751 C46.8456413,94.9100575 43.0902624,98.0322005 43.4359918,97.82874 C43.7817211,97.6252795 47.6704282,97.82874 47.239438,99.6934047 C46.9521112,100.936514 45.8673484,101.523721 43.9851496,101.455025 M73.1072868,112.300402 C71.3905498,113.354033 70.8240638,114.240637 71.4078289,114.960216 C72.2834765,116.039585 74.1497803,114.758061 75.6454429,114.598888 C77.1411056,114.439716 73.8803249,116.142089 73.6266937,117.200591 C73.3730625,118.259093 74.9289171,118.833281 76.1445531,117.959874 C77.360189,117.086468 73.6266937,120.814479 75.6454429,121.777069 C77.6641922,122.739659 79.29773,119.507889 79.922976,117.959874 C80.548222,116.41186 78.2394175,121.966594 79.5207986,122.792754 C80.8021797,123.618914 81.7035854,122.058533 82.5603472,120.078906 C83.417109,118.099279 80.9306772,125.45783 82.9839464,125.896501 C85.0372157,126.335172 85.0994209,122.871683 85.1966716,121.777069 C85.2939224,120.682455 85.8204066,124.880308 87.2857781,124.741937 C88.7511496,124.603567 88.1299421,121.87298 88.071536,121.277717 C88.0131298,120.682455 88.6353675,122.772578 89.9027883,122.138568 C91.1702091,121.504558 89.3804994,119.314005 89.9027883,120.078906 C90.4250773,120.843807 93.5364085,122.258913 94.0194518,120.682455 C94.3414806,119.631483 93.7883993,118.432821 92.3602079,117.086468 M55.5045145,223.803851 L73.4336668,223.803851 L73.4336668,223.172682 L55.5045145,223.172682 L55.5045145,223.803851 Z M73.2213825,223.465195 C75.8060892,223.838221 79.2635135,226.372615 77.4918914,223.792306 C76.31081,222.0721 75.3408644,221.054105 74.5820546,220.738322 C76.2086779,220.561057 77.5396199,221.008099 78.5748807,222.07945 C80.1277718,223.686475 81.5225715,226.084934 80.3763713,223.09217 C79.6122379,221.096993 77.680799,219.566196 74.5820546,218.499779 C76.2498805,218.224981 77.4213688,218.305354 78.0965194,218.740897 C79.1092453,219.394212 81.3719167,221.528376 82.5096293,222.696576 C83.6870808,223.90558 81.6677652,221.158559 76.4516825,214.455514 C80.1413303,215.856824 82.5368531,217.285285 83.6382508,218.740897 C84.7396485,220.196509 82.8924047,217.970289 78.0965194,212.062236 C83.1297272,213.498134 86.0984193,215.861752 87.0025956,219.153093 C87.906772,222.444433 87.906772,223.990838 87.0025956,223.792306 M86.4469706,217.339328 C86.6846432,215.150175 86.6846432,213.573853 86.4469706,212.61036 C86.2092979,211.646868 85.42361,210.03812 84.0899068,207.784116 C88.5836511,209.912108 90.6268199,212.915854 90.2194134,216.795354 C89.9265971,219.583676 90.8058841,218.65005 92.3558346,215.453448 C92.7602049,214.619479 93.4242931,213.153404 94.3480992,211.055223 L94.3480992,218.38603 M91.2828122,224.784513 L95.9212097,215.553574 C95.3684089,219.328667 95.1871799,221.468532 95.3775225,221.973168 C95.5678652,222.477804 96.7612637,221.385876 98.957718,218.697385 C97.8536727,222.981242 97.5406823,225.139562 98.018747,225.172346 C98.4968117,225.20513 99.948481,223.272755 102.373755,219.375222 C103.190595,221.74871 103.549471,223.009491 103.450384,223.157567 C103.379459,223.263558 104.1092,222.533567 104.628344,220.567009 C104.765768,220.046434 104.849878,219.035422 104.880673,217.533974 L106.801819,221.479898 C107.557609,218.775451 108.334222,216.889382 109.131659,215.821692 C109.929097,214.754002 111.826401,213.059957 114.823573,210.739557 C113.962683,213.15985 113.420609,214.949462 113.197352,216.108395 C112.974094,217.267328 112.974094,218.291631 113.197352,219.181305 L119.203333,215.821692 C117.548681,217.304213 116.459011,218.382989 115.934323,219.058019 C113.793772,221.811921 113.197352,223.580798 113.197352,223.689066 C113.197352,223.79945 114.88054,222.885647 118.166721,222.326767 C118.914788,222.199543 120.215097,222.199543 122.06765,222.326767 C120.529141,223.348991 119.574369,224.07237 119.203333,224.496904 C118.832298,224.921437 118.380582,225.640874 117.848185,226.655214 M115.338755,220.099258 C123.194617,219.192501 128.171898,218.965812 130.270597,219.41919 C132.369296,219.872568 136.783083,220.458088 143.511958,221.175748 L148.209586,220.6516 M157.675833,60.2769162 C158.614333,59.250271 159.189958,57.3345489 158.221534,56.0532321 C157.25311,54.7719153 154.092553,58.1651502 154.598407,57.2029458 C155.10426,56.2407413 156.150044,53.5857671 155.278655,52.4631388 C154.407265,51.3405104 150.297327,53.917931 151.316857,52.8108685 C152.336387,51.7038059 155.198127,44.5867445 152.457191,44.0220514 C149.716254,43.4573583 146.218956,49.9564889 146.765708,48.7978207 C147.31246,47.6391525 146.914738,45.4283811 145.555215,45.5890601 C144.195691,45.7497391 141.637759,49.5055411 142.795123,47.3131169 C143.952487,45.1206926 144.253439,40.6751525 142.259212,40.4356256 C140.264986,40.1960988 138.414973,45.1655826 138.632781,44.3626511 C138.850589,43.5597196 139.003348,37.4344797 137.093412,36.7998934 C135.183476,36.1653072 133.710142,42.1787698 134.025279,39.6020984 C134.340417,37.0254271 133.886491,34.6272611 132.450446,34.0792899 C131.493083,33.7139758 130.416038,34.6208437 129.219313,36.7998934 C128.624057,33.6559135 127.738382,32.0028722 126.562286,31.8407695 C124.798143,31.5976154 124.122783,36.555394 124.04741,34.8225044 C123.972036,33.0896149 122.957478,31.2249273 120.336576,32.2538853 C117.715674,33.2828434 119.479688,42.7978606 119.01991,41.1263543 C118.560132,39.454848 115.781335,36.8912518 113.998349,37.6706384 C112.215363,38.450025 114.430411,44.3998017 113.6584,43.2407715 C112.886388,42.0817413 110.804532,38.2454395 107.748167,38.8125688 C104.691802,39.3796981 106.131235,47.6457679 105.158988,44.3626511 C104.18674,41.0795343 102.94824,39.9724474 100.682531,39.9810557 C98.4168214,39.989664 96.8015448,45.890076 96.5950267,45.0328833 C96.3885087,44.1756906 97.8662457,36.1670211 96.1399101,34.8225044 C94.4135745,33.4779878 93.1319973,39.9810557 93.1506421,37.1996164 C93.169287,34.418177 92.8014389,32.9904726 90.8485161,32.6221789 C88.8955933,32.2538853 88.3201912,36.7998934 88.3787155,34.9822116 C88.4372397,33.1645298 87.3902773,31.7300094 84.6827543,31.9919474 C81.9752314,32.2538853 83.5359641,38.0666544 82.6680615,36.7998934 C81.8001589,35.5331324 80.5250732,32.6221789 78.3365818,33.4506521 C76.8775875,34.0029675 76.6686683,35.9835959 77.7098242,39.3925373 C75.728373,37.4604989 74.1473553,37.0755757 72.9667712,38.2377677 C71.1958951,39.9810557 76.2960495,52.2247778 75.7127272,50.4875345 C75.129405,48.7502912 71.3429825,40.3254634 65.6474864,38.5626784 C61.8504889,37.3874884 60.9916155,39.7296156 63.0708661,45.5890601 C59.7592585,44.1635291 58.103057,44.6662314 58.1022617,47.097167 C58.1010687,50.7435704 63.0945606,53.9151975 63.9422558,54.8155284 C64.7899509,55.7158592 60.9504426,52.8031434 59.0285502,54.8155284 C57.7472886,56.1571184 57.8655064,57.7151274 59.3832036,59.4895555 C57.5486592,59.2268737 56.5877096,59.7782729 56.5003548,61.143753 C56.3693227,63.1919733 63.404261,65.1282177 60.7135822,64.5047722 C58.0229034,63.8813268 52.0223725,64.0782447 50.6146549,67.163663 C49.2069374,70.2490812 50.2043378,63.030516 48.6151199,61.8553383 C47.0259019,60.6801605 45.9816303,64.0378688 45.8898584,65.7676968 C45.7980864,67.4975247 44.8946873,63.141192 43.1279171,63.030516 C41.3611469,62.91984 41.0617381,69.836933 41.7618278,72.8753877 C42.4619175,75.9138423 39.5792103,67.6155124 37.0635743,68.0213738 C35.3864837,68.2919481 34.9448039,70.8173664 35.7385351,75.5976288 C33.2174533,73.557201 31.664817,73.1958584 31.0806262,74.5136012 C30.2043399,76.4902153 33.5657152,82.259685 32.7696941,81.0683791 C31.9736731,79.8770733 28.9342726,79.0754933 27.9757439,80.8655324 C27.0172153,82.6555715 30.3064847,87.9159649 29.0027666,86.291224 C27.6990486,84.666483 24.9617596,84.362337 24.0785734,85.543496 C23.1953871,86.7246549 22.8228918,87.4908014 24.4594988,89.9139221 C26.0961059,92.3370427 19.5628399,85.0295022 18.1006848,86.9038376 C16.6385297,88.778173 20.5944389,97.1021894 19.2824342,94.140943 C17.9704295,91.1796965 13.9182303,89.2104981 12.0974185,90.4385753 C10.2766066,91.6666525 13.2366845,96.1381222 14.7627315,97.5037758 C16.2887784,98.8694294 9.44712495,93.8589257 8.71078125,95.8289013 C7.97443756,97.798877 12.3482875,100.9525 12.3750308,102.042494 C12.4017741,103.132489 8.71078125,100.22223 8.71078125,102.980508 C8.71078125,104.100027 10.7789398,105.729691 9.96340414,105.122867 C8.44591583,103.993734 2.19688341,102.540898 2.04236455,105.122867 C1.92051829,107.158885 3.14077255,108.829498 5.70312734,110.134705 C3.47722089,110.262781 2.47363376,110.949537 2.69236595,112.194973 C3.02046423,114.063127 10.2618031,116.048518 8.39226437,115.660145 C6.52272566,115.271772 0.236031096,114.535963 0.168831803,117.762386 C0.124032274,119.913334 1.71674616,121.028449 4.94697345,121.10773 C3.95797942,122.27202 4.13312054,123.452986 5.47239682,124.650629 C7.48131124,126.447093 13.4890722,124.335773 13.4890722,125.002909 C13.4890722,125.670046 9.50648065,129.591118 9.96340414,132.693573 C10.4203276,135.796028 13.2499058,134.392781 14.0639365,133.479701 C14.8779672,132.56662 12.7903591,135.709996 14.0639365,136.517378 C15.3375139,137.32476 19.3866433,135.011836 17.8011907,136.315558 C16.2157381,137.619279 14.1381276,139.507124 15.9641616,142.085697 C17.7901956,144.664271 20.4173267,141.920294 20.9396355,139.998367 C21.4619442,138.07644 20.9210487,141.414385 22.3564855,141.596085 C23.7919222,141.777785 24.9137996,139.195595 24.8575607,139.998367 C24.8013218,140.801139 24.1052459,142.314472 26.3096158,142.985899 C28.5139857,143.657325 31.0806262,138.547094 31.0806262,136.315558" id="Combined-Shape"></path>
                <path d="M1.78753769,178.762298 L29.8056725,178.762298" id="Path-63"></path>
                <path d="M709.595471,178.620779 L727.894297,178.620779" id="Path-64"></path>
            </g>
        </g>
    </g>
</svg>