<?xml version="1.0" encoding="UTF-8"?>
<svg width="690px" height="500px" viewBox="0 0 690 500" version="1.1" xmlns="http://www.w3.org/2000/svg" xmlns:xlink="http://www.w3.org/1999/xlink">
    <!-- Generator: Sketch 47 (45396) - http://www.bohemiancoding.com/sketch -->
    <title>dom-3-690@3x</title>
    <desc>Created with Sketch.</desc>
    <defs></defs>
    <g id="Page-1" stroke="none" stroke-width="1" fill="none" fill-rule="evenodd">
        <g id="dom-3-690" stroke="#FFFFFF" stroke-width="0.693842151">
            <g id="dom-3" transform="translate(-110.000000, 83.000000)">
                <g id="дом3_белый" transform="translate(273.373807, 0.000000)">
                    <path d="M439.158509,77.8744346 L441.578762,306.193282 L130.026926,333.654457 L0.598018929,307.747846 L1.73796942,174.969125 M2.01961162,142.164112 L2.08911476,134.068551 M2.18539993,122.853484 L2.59855025,74.7307184 L130.968071,1.98573556 L439.882778,78.0132064 L439.882778,76.6904363 L130.968071,0.0624235499 L2.59855025,73.5235265 L2.59855025,74.9206687" id="Path-318"></path>
                    <path d="M44.850995,103.275234 L44.850995,172.812522 L52.9326041,171.139117 L52.9326041,100.014905 L44.850995,103.275234 Z" id="Rectangle-78"></path>
                    <path d="M222.240473,76.7593184 L222.240473,161.950057 L242.231623,163.738196 L242.231623,80.431988 L222.240473,76.7593184 Z" id="Rectangle-75"></path>
                    <path d="M247.313191,81.386579 L247.313191,164.216838 L264.170251,165.741304 L264.170251,84.4967639 L247.313191,81.386579 Z" id="Rectangle-76"></path>
                    <polyline id="Path-331" points="11.7174646 163.874596 12.2474984 94.7887239 130.837474 36.6003029 425.518775 99.3976553 425.518775 99.3976553 426.621376 183.56395 129.942503 157.059135 11.5792277 181.892727 11.5894097 180.565586"></polyline>
                    <polyline id="Path-332" points="30.3606743 177.640944 31.1088248 97.8735822 147.130995 45.3889383 415.844976 100.981105 416.563691 182.527425"></polyline>
                    <path d="M415.674427,101.103832 L425.485495,99.5656019" id="Path-333"></path>
                    <path d="M12.4113725,94.8663554 L31.1658474,97.824845" id="Path-334"></path>
                    <path d="M147.090514,45.1051749 L146.969396,158.443582" id="Path-335"></path>
                    <polygon id="Path-336" points="2.73340457 288.639051 3.20009166 198.43483 129.881757 178.536073 384.93876 196.451807 385.361067 291.286684 130.19171 306.504664"></polygon>
                    <polyline id="Path-337" points="0.754948481 298.515731 130.265636 320.820671 441.541214 298.426985"></polyline>
                    <path d="M385.588216,291.114225 L341.699186,288.682879 L238.477162,293.176246 M230.396874,293.527989 L218.359939,294.05197 M210.349518,294.400672 L197.774485,294.948077 M189.662399,295.301205 L176.284315,295.883568 M70.9852881,203.03699 L70.7520801,287.044482 L70.9852881,203.03699 Z" id="Path-338"></path>
                    <path d="M167.679397,296.258149 L166.412803,296.313285 L153.074911,295.073228 M144.537343,294.27947 L70.8304276,287.426756 L2.82965104,288.480855" id="Path"></path>
                    <path d="M3.38245088,198.435139 L71.0088526,203.023961 L144.463233,193.717106 M153.064203,192.627342 L166.447694,190.93162 L167.83584,190.999384 M176.265292,191.410874 L189.622103,192.062897 M197.818674,192.463019 L210.465706,193.080393 M218.365397,193.466023 L230.436389,194.055278 M238.437676,194.445867 L341.999393,199.501311 L384.838781,196.68464" id="Path-339"></path>
                    <path d="M341.762127,199.474952 L341.765378,288.814283" id="Path-340"></path>
                    <path d="M144.515048,181.898559 L144.515048,303.139902 L151.343021,303.617159 L151.343021,181.65222 L144.515048,181.898559 Z" id="Rectangle-72"></path>
                    <polyline id="Path-341" points="151.641341 303.670782 153.100412 303.508593 153.100412 181.722278 151.562869 181.605587"></polyline>
                    <path d="M167.707312,183.773858 L167.707312,301.897068 L174.535285,302.362121 L174.535285,183.533818 L167.707312,183.773858 Z" id="Rectangle-72"></path>
                    <polyline id="Path-341" points="174.833605 302.419195 176.292676 302.261169 176.292676 183.601213 174.755133 183.487516"></polyline>
                    <path d="M189.64594,185.027967 L189.64594,300.643404 L196.160504,301.106403 L196.160504,184.788987 L189.64594,185.027967 Z" id="Rectangle-72"></path>
                    <polyline id="Path-341" points="196.420661 301.159662 197.716469 301.071397 197.716469 184.958685 196.420661 184.7397"></polyline>
                    <path d="M210.330932,186.277464 L210.330932,299.530047 L216.845496,299.98364 L216.845496,186.043339 L210.330932,186.277464 Z" id="Rectangle-72"></path>
                    <polyline id="Path-341" points="217.105653 300.042847 218.401461 299.956376 218.401461 186.202546 217.105653 185.98801"></polyline>
                    <path d="M230.389106,188.152998 L230.389106,298.455639 L236.90367,298.897488 L236.90367,187.924934 L230.389106,188.152998 Z" id="Rectangle-72"></path>
                    <polyline id="Path-341" points="237.163827 298.964124 238.459635 298.879891 238.459635 188.071044 237.163827 187.862062"></polyline>
                    <polygon id="Path-344" points="81.1990606 206.66872 80.8680346 280.921478 116.473744 284.015363 116.729773 202.974315"></polygon>
                    <path d="M94.188747,279.550961 L104.815532,280.482341 M105.637333,280.554367 L116.487771,281.505349 L116.72589,205.481663 L105.771014,206.630661 M104.971125,206.71447 L94.3574256,207.827605 M93.629316,207.903967 L83.6807764,208.947342 L83.6807764,208.947342 L83.3729077,278.603011 L93.5362587,279.493774" id="Path-344"></path>
                    <path d="M144.440932,200.081907 L118.765168,202.731609 L118.765168,202.731609 L118.446959,284.185403 L144.510418,286.465207 M153.14139,287.220169 L162.121585,288.005678 L162.242254,198.244836 L153.07477,199.190907" id="Path-345"></path>
                    <path d="M135.712454,283.095986 L144.610434,283.894186 M153.127676,284.658232 L160.880115,285.353671 L160.991045,200.729572 L153.161111,201.558252" id="Path-345"></path>
                    <path d="M144.488328,202.476135 L135.864107,203.388879 M134.3665,203.547378 L121.023052,204.959581 L120.730526,281.75202 L134.410129,282.97916" id="Path"></path>
                    <path d="M93.3830154,207.80188 L93.2327777,279.508796" id="Path-346"></path>
                    <path d="M104.665738,206.54726 L104.510649,280.569664" id="Path-346"></path>
                    <path d="M33.5682721,107.79879 L33.5682721,175.192865 L42.903517,173.2353 L42.903517,104.052156 L33.5682721,107.79879 Z" id="Rectangle-77"></path>
                    <path d="M106.087321,206.384952 L105.932232,280.407356" id="Path-346"></path>
                    <path d="M94.6366513,207.80188 L94.4864136,279.508796" id="Path-346"></path>
                    <path d="M134.138147,203.229684 L134.138147,283.205001" id="Path-347"></path>
                    <path d="M136.019494,203.076058 L136.019494,283.035948" id="Path-347"></path>
                    <polyline id="Path-342" points="441.556377 299.43356 460.575824 298.010066 459.581855 187.605159 440.506877 185.808718 440.478554 184.631624 459.581855 186.463704 459.581855 187.605159"></polyline>
                    <path d="M441.56545,292.086881 L460.559516,290.919144" id="Path-343"></path>
                    <polyline id="Path-348" points="441.389626 277.267509 449.667341 276.796534 448.903962 211.737804 440.72919 211.279949"></polyline>
                    <polyline id="Path-348" points="441.2507 275.382798 447.78716 274.934216 447.184361 212.968706 440.72919 212.532619"></polyline>
                    <polyline id="Path-349" points="344.498939 288.622607 344.15508 213.710306 376.848342 212.11683 377.146307 290.602222"></polyline>
                    <path d="M346.425287,215.577972 L346.425287,223.232403 L374.490209,222.711994 L374.490209,214.29513 L346.425287,215.577972 Z" id="Rectangle-70"></path>
                    <path d="M346.582614,226.9303 L346.894732,285.822596 L355.99908,286.326995 L355.99908,226.733459 L346.582614,226.9303 Z" id="Rectangle-71"></path>
                    <path d="M358.259967,226.667976 L358.259967,286.433004 L373.863391,287.278598 L373.863391,226.309636 L358.259967,226.667976 Z" id="Rectangle-71"></path>
                    <path d="M337.637224,199.381166 L337.881234,288.792658" id="Path-350"></path>
                    <polyline id="Path-351" points="195.70193 162.866188 195.70193 68.0489514 267.482276 81.8064343 267.482276 169.292859"></polyline>
                    <path d="M199.048209,72.4346712 L199.048209,159.834883 L217.158905,161.47643 L217.158905,75.7876533 L199.048209,72.4346712 Z" id="Rectangle-74"></path>
                    <polyline id="Path-352" points="31.1759803 106.265519 63.3349637 92.8377662 62.9723715 171.012951"></polyline>
                    <polyline id="Path-355" points="63.2901537 95.7526796 54.8887526 99.1818549 54.8887526 170.748345 62.9764896 169.040928"></polyline>
                    <polyline id="Path-354" points="368.947999 178.308672 368.947999 101.125275 416.023381 110.125191"></polyline>
                    <path d="M370.796325,104.665538 L370.796325,175.43163 L382.012024,176.437575 L382.012024,106.803942 L370.796325,104.665538 Z" id="Rectangle-79"></path>
                    <path d="M385.839956,107.53638 L385.839956,176.78879 L398.936109,177.955712 L398.936109,110.036494 L385.839956,107.53638 Z" id="Rectangle-80"></path>
                    <path d="M402.764041,110.779721 L402.764041,178.296049 L412.726103,179.17954 L412.726103,112.690027 L402.764041,110.779721 Z" id="Rectangle-81"></path>
                    <path d="M440.36244,157.316589 L440.258531,158.700194 L453.536294,160.819241 L453.536294,185.833219 L455.036315,185.983262 L455.036315,159.611438 L440.36244,157.316589 Z" id="Rectangle-82"></path>
                    <path d="M440.072443,162.425988 L453.042264,160.775425" id="Path-353"></path>
                    <path d="M440.03193,160.896138 L448.256438,159.990953" id="Path-353"></path>
                    <path d="M130.926178,0.245111144 L130.926178,36.4931183" id="Path-10"></path>
                    <path d="M129.972117,157.107076 L129.972117,178.464205" id="Path-11"></path>
                    <path d="M130.146086,306.497708 L130.146086,333.76689" id="Path-12"></path>
                </g>
                <g id="дерево5" transform="translate(20.121422, 60.411642)">
                    <path d="M113.061505,249.877761 C113.061505,249.877761 113.514678,247.186874 115.408636,244.625598 C117.302593,242.064323 125.471886,239.764903 127.3402,234.250885 C129.208514,228.736867 130.283344,207.002691 130.452591,196.297284 C130.621838,185.591876 128.925702,166.135165 127.3402,158.521128 C125.754698,150.90709 115.152949,141.700538 111.21189,140.137891 C107.270831,138.575243 106.143238,138.050743 100.981103,138.050743 C95.8189694,138.050743 86.2555675,133.639046 81.9557806,128.351502 C81.139984,127.348298 78.723294,126.132149 76.9614869,126.132149 C75.1996797,126.132149 70.9605102,126.132149 67.7394381,125.576974 C64.518366,125.021798 61.8059847,121.187147 61.6365802,120.510907" id="Path-356"></path>
                    <path d="M115.161269,137.743909 C115.161269,137.743909 109.584353,133.383669 97.1375696,133.383669 C89.7549389,133.383669 85.3766705,128.2185 85.3766705,128.2185 C85.3766705,128.2185 81.1526624,119.187194 69.4173359,115.463055" id="Path-357"></path>
                    <path d="M165.009867,248.854089 C165.009867,248.854089 152.784345,239.370894 149.25107,232.29995 C145.717795,225.229006 141.700147,209.306523 141.700147,195.792645 C141.700147,188.575095 141.700147,198.986718 141.700147,179.441158 C141.700147,159.895599 143.312448,154.245912 142.386764,150.867729 C141.461081,147.489545 140.612157,145.892985 140.370026,141.911555 C140.127894,137.930124 140.887559,130.725922 140.999873,129.760727 C141.112187,128.795532 141.584768,125.992989 144.585868,120.201817" id="Path-359"></path>
                    <path d="M142.27908,150.54376 C142.27908,150.54376 142.915314,143.281823 148.041924,139.922815 C153.168534,136.563808 154.067617,137.765336 157.640336,136.069424 C161.213056,134.373512 165.292238,129.543375 171.869836,126.904307 C178.447434,124.265239 187.815802,118.831613 187.940841,118.203264" id="Path-360"></path>
                    <path d="M140.298798,141.082474 C140.298798,141.082474 140.812402,140.515167 140.999834,140.297345 C141.932048,139.213983 145.804606,136.357011 153.852978,132.584714 C161.901351,128.812416 170.714686,122.995228 171.965079,120.6075 C173.215472,118.219771 173.715097,116.96254 173.715097,116.96254" id="Path-361"></path>
                    <path d="M174.576005,117.429009 C174.576005,117.429009 174.576005,122.335993 172.756817,123.003748 C171.811693,123.350667 174.884299,122.925832 178.693256,121.276319 C182.502213,119.626806 186.669165,117.429009 186.669165,117.429009" id="Path-362"></path>
                    <path d="M132.60812,139.845745 C132.60812,139.845745 129.979058,131.771815 123.405235,127.427769 C116.831411,123.083723 113.770015,124.746126 110.984378,121.732844 C108.19874,118.719563 104.907856,107.241776 103.226659,105.174296 C101.545461,103.106816 93.4820697,93.6604919 92.8277254,91.3778446" id="Path-363"></path>
                    <path d="M89.1189954,93.2596254 C89.1189954,93.2596254 95.187104,101.396234 95.7362859,104.254221 C96.2854677,107.112208 98.1559576,113.942843 100.675183,117.570287 C103.194409,121.197732 107.550005,128.319311 107.550005,128.319311 C107.550005,128.319311 111.923829,134.362714 115.066084,137.173925" id="Path-364"></path>
                    <path d="M97.9622084,112.233947 C97.9622084,112.233947 94.8102315,104.181924 84.393509,101.149443" id="Path-365"></path>
                    <path d="M87.0656581,96.8648491 C87.0656581,96.8648491 93.2747259,99.1867473 95.5812514,103.810811" id="Path-366"></path>
                    <path d="M86.002878,97.3513083 C86.002878,97.3513083 88.3593543,98.6635835 90.4255888,100.207837 C92.4918233,101.752091 94.281148,103.539017 92.9278522,102.909908 C90.2264418,101.654098 83.4205012,99.4356055 83.4205012,99.4356055" id="Path-367"></path>
                    <path d="M131.660753,107.159847 C131.660753,107.159847 131.950465,133.618835 130.943648,136.172784" id="Path-368"></path>
                    <path d="M137.850967,112.607754 C137.850967,112.607754 138.686749,125.256011 137.86299,127.44511 C137.039231,129.634209 142.997909,115.231955 142.997909,115.231955" id="Path-369"></path>
                    <path d="M112.443109,123.00551 C112.443109,123.00551 113.099813,113.712122 112.049694,109.808619 C111.576508,108.049691 109.241138,102.107546 107.922813,99.7808222 C106.604487,97.454098 105.017426,95.0970262 104.839297,94.7866671 C104.392833,94.0087835 104.505277,92.0013841 104.642295,91.3819081" id="Path-370"></path>
                    <path d="M119.245904,125.189874 C119.245904,125.189874 115.6619,123.947313 114.982862,114.813746 C114.303824,105.680179 114.675942,104.891678 114.675942,102.764493 C114.675942,100.637309 114.912693,94.6757186 112.861214,90.4766444" id="Path-371"></path>
                    <path d="M106.166139,90.771799 C106.166139,90.771799 105.503843,92.7128078 106.049024,93.5071755 C106.594204,94.3015432 111.741084,99.6358535 111.471181,101.464057 C111.316299,102.513163 112.221783,98.2687859 112.055454,94.8872529 C111.889126,91.5057198 110.840649,90.4490311 110.840649,90.4490311" id="Path-372"></path>
                    <path d="M102.638749,51.7531597 C102.638749,51.7531597 100.804399,51.2687624 100.459576,48.9673271 C100.114753,46.6658919 103.3593,36.2614561 103.3593,36.2614561" id="Path-373"></path>
                    <path d="M101.016789,53.3128601 C101.016789,53.3128601 97.5945296,51.5493772 97.4219965,50.0053455 C97.2494634,48.4613138 97.1953131,46.2605847 96.8663683,45.4211606 C96.5374235,44.5817364 94.7861805,42.5313451 94.7861805,42.5313451" id="Path-374"></path>
                    <path d="M95.5822087,41.8829117 C95.5822087,41.8829117 98.617553,45.5246503 98.6977347,46.7487233 C98.7384558,47.3703814 99.3127443,44.5663709 100.111171,41.7102302 C100.909597,38.8540895 102.314365,35.870659 102.314365,35.870659" id="Path-375"></path>
                    <path d="M151.874093,82.1310216 C151.874093,82.1310216 155.005493,78.9898692 156.343519,77.1943251 C157.681544,75.398781 159.231668,72.2576286 159.231668,72.2576286" id="Path-379"></path>
                    <path d="M153.750213,82.5346257 C153.750213,82.5346257 154.822182,81.3976686 156.564565,80.217369 C158.306948,79.0370695 158.250257,77.9836419 159.685887,77.341169 C163.987751,75.4159994 171.897257,74.6769034 171.897257,74.6769034" id="Path-380"></path>
                    <path d="M161.028447,72.2940362 C161.028447,72.2940362 160.454004,75.2073372 160.045173,75.6147556 C159.859168,75.8001182 161.82588,74.9507508 164.411351,74.3716962 C166.996823,73.7926416 171.784167,73.7913825 171.784167,73.7913825" id="Path-381"></path>
                    <path d="M190.069206,83.4820867 L196.192632,79.9145186" id="Path-382"></path>
                    <path d="M189.322899,85.6623988 C189.322899,85.6623988 197.093089,81.397257 197.278385,80.9316819" id="Path-383"></path>
                    <path d="M213.144768,94.9354416 C213.144768,94.9354416 220.328832,95.7995392 222.084308,94.9354416 C223.839783,94.071344 227.995653,93.1022714 229.01968,93.1022714 C229.613245,93.1022714 231.893787,93.1338223 233.620955,92.5534106 C235.348124,91.9729988 235.778949,91.0867423 235.809697,90.9364205" id="Path-384"></path>
                    <path d="M216.407648,91.9927128 C216.407648,91.9927128 217.412067,92.4238271 218.948107,92.2082699 C220.484148,91.9927128 225.72723,90.3645088 227.409561,90.1424101 C228.388415,90.0131833 230.28626,90.1457797 231.825639,90.1424101 C233.365019,90.1390406 234.319882,89.7315225 234.319882,89.7315225" id="Path-385"></path>
                    <path d="M80.9474121,104.872116 C80.9627201,103.434886 81.3054249,102.485869 81.9755263,102.025066 C82.4305766,101.712146 83.7880092,102.000121 84.1972165,101.21423 C84.3890769,100.845759 84.1930971,100.30648 83.6092773,99.5963937 L83.6093143,99.5963633 C83.365967,99.3003855 83.4086323,98.8631762 83.7046101,98.6198288 C83.7967044,98.5441106 83.9067572,98.4934026 84.0241526,98.4725962 C85.2329009,98.2583653 86.0953574,97.79925 86.6115221,97.0952503 C87.1027957,96.4251998 87.2096029,95.7319426 86.9319437,95.0154787 L86.9319446,95.0154784 C86.7934744,94.6581737 86.9708748,94.2562688 87.3281794,94.1177985 C87.3868161,94.0950744 87.44827,94.0804273 87.5108529,94.0742597 C88.3327587,93.9932601 88.9285615,93.8112297 89.2982614,93.5281685 C89.7193055,93.2057955 90.207442,92.420653 90.7626709,91.1727412 L90.7626925,91.1727508 C90.9184597,90.8226542 91.3285433,90.6651191 91.6786399,90.8208863 C91.7432991,90.8496549 91.8031763,90.8881468 91.8561931,90.935026 C92.2678078,91.2989894 92.6768998,91.5462046 93.0834691,91.6766715 C93.7168449,91.8799199 95.120899,92.0491038 97.2956314,92.1842231" id="Path-389"></path>
                    <path d="M99.7171763,92.0896792 C99.7171763,92.0896792 100.731508,93.7296552 101.847007,93.3537717 C102.962506,92.9778882 105.956956,90.4609357 105.956956,90.4609357 C105.956956,90.4609357 106.95322,91.3065268 108.634958,91.3065268 C110.316697,91.3065268 112.408954,89.817748 112.408954,89.817748 C112.408954,89.817748 112.671433,90.175592 112.88627,90.7735932 C113.101107,91.3715943 113.659658,91.7899024 113.901204,92.0896792 C114.427897,92.743345 116.213797,92.9642845 116.213797,92.9642845 C116.213797,92.9642845 118.021939,93.3386843 118.798215,94.0255094 C119.574491,94.7123346 120.954718,95.7389745 121.772278,95.5741736" id="Path-390"></path>
                    <path d="M125.636635,94.2889424 C125.636635,94.2889424 130.569064,97.2968263 128.924921,99.6636271 C127.280778,102.030428 127.666397,104.205261 128.78632,104.204864 C129.906244,104.204467 131.594285,103.778768 131.234595,104.485794 C131.079259,104.79113 130.867448,106.342345 131.234595,106.974521 C131.601741,107.606697 134.719096,108.760895 134.719096,108.760895 C134.719096,108.760895 136.352019,111.890662 137.634027,112.772797 C138.916036,113.654933 143.023251,114.089845 143.023251,114.089845 C143.023251,114.089845 142.820116,120.70794 144.982013,120.404025 C145.632153,120.31263 144.823598,122.648638 144.665246,123.457607 C144.592061,123.831487 143.673157,126.844416 145.30476,128.882896 C146.936362,130.921376 149.157655,129.995611 149.713304,130.084999" id="Path-391"></path>
                    <path d="M159.584801,123.947052 C159.584801,123.947052 164.879796,126.26162 166.398394,124.092871 C167.916992,121.924123 165.275461,120.045442 165.915746,119.044191 C166.556032,118.04294 170.842656,116.937677 173.872629,117.15892 C176.902602,117.380163 176.492974,119.044191 176.492974,119.044191" id="Path-392"></path>
                    <path d="M177.787205,114.901939 C177.787205,114.901939 179.893821,113.003403 181.555475,114.246298 C183.217129,115.489193 182.325621,117.204884 183.408225,117.712369 C184.490828,118.219853 185.717574,117.032205 186.985896,117.48559 C188.254219,117.938976 187.619401,118.667847 188.861143,119.348173 C190.102884,120.028499 191.502571,120.783408 193.768896,119.836923 C196.035222,118.890438 196.184588,115.847827 196.184588,115.847827" id="Path-393"></path>
                    <path d="M201.376727,114.083089 C201.376727,114.083089 203.213073,112.212489 203.639601,111.28038 C204.066129,110.34827 207.541192,111.489709 208.040275,112.346473" id="Path-394"></path>
                    <path d="M209.86721,113.181969 C209.86721,113.181969 210.300417,116.588666 211.869918,116.995477" id="Path-395"></path>
                    <path d="M215.987353,115.222706 C215.987353,115.222706 213.699889,119.059 215.534414,122.3226 C217.368939,125.5862 222.243499,124.300751 222.243499,124.300751" id="Path-396"></path>
                    <path d="M221.938703,121.364987 C221.795911,123.072766 222.352262,124.477283 223.607757,125.578537 C225.491,127.230418 229.495375,129.067789 231.641804,128.583196 C233.918078,128.069289 235.105323,126.998808 235.203539,125.371753 C236.35838,126.568315 237.380093,126.72627 238.268678,125.845618 C239.157264,124.964967 238.930682,123.872784 237.588932,122.56907 C238.440722,121.714675 238.877623,120.995739 238.899633,120.412263 C238.932649,119.537048 238.033595,118.016489 237.588932,117.470675 C237.37912,117.213134 238.163559,116.056126 239.189236,115.695069 C239.873022,115.454364 240.728094,115.454364 241.754454,115.695069 C243.006706,116.909253 244.221402,117.136643 245.39854,116.377237 C247.164247,115.238129 245.23192,113.439588 245.23192,112.787338 C245.23192,112.135088 245.324637,111.378012 246.991226,111.73112 C248.657815,112.084228 252.011747,113.014655 251.613527,114.017878 C251.215307,115.021101 252.139961,115.695069 253.396497,115.695069 C254.103849,115.695069 254.697099,115.235265 255.176248,114.315658 L255.176283,114.315676 C255.349769,113.982713 255.756647,113.848164 256.094437,114.012057 C257.3412,114.616976 257.870754,115.769849 257.6831,117.470675 C257.355857,120.436679 255.429495,119.031684 255.700369,121.100363 C255.971243,123.169042 260.232542,123.005895 260.386389,123.10854" id="Path-397"></path>
                    <path d="M258.113596,123.198687 C257.64656,125.526895 258.554017,126.749749 260.835966,126.867251 C263.117914,126.984753 264.157681,125.286501 263.955266,121.772495 C264.46835,119.964961 265.44259,118.75675 266.877986,118.14786 C269.031081,117.234526 271.993387,118.028202 272.554314,116.850759 C272.928266,116.065796 273.129918,115.32018 273.15927,114.613912 C275.45199,114.740038 276.598351,113.809994 276.598351,111.823782 C276.598351,110.565219 275.741206,109.285904 274.839225,108.497753 C273.937244,107.709601 273.977368,105.595511 272.348308,104.581519 C270.719249,103.567527 268.370921,102.878416 266.550263,103.347346 C266.076808,103.469289 264.574042,103.555917 263.733507,102.878416 C262.892973,102.200916 262.496128,101.479695 262.496128,100.966855 C262.496128,99.153123 264.967655,99.4707283 264.999431,98.0768763 C265.031208,96.6830243 262.874896,97.0819563 261.74616,95.9332764 C260.993669,95.1674898 260.565994,94.0383313 260.463136,92.5458009" id="Path-398"></path>
                    <path d="M258.000562,94.0379775 C260.583096,93.016906 261.874363,91.6317468 261.874363,89.8824999 C261.874363,88.2584676 260.351941,86.8824245 257.307097,85.7543705 L257.307091,85.7543887 C256.94775,85.62126 256.764368,85.2220344 256.897497,84.8626933 C256.899964,84.8560351 256.902533,84.8494151 256.905202,84.8428357 C257.345313,83.7583018 257.157277,82.8480388 256.341096,82.1120468 C254.877843,80.7925568 249.693428,82.4040918 249.383443,80.204745 C249.073458,78.0053982 247.915469,76.689334 247.208558,75.8970611 C246.501648,75.1047882 245.324124,74.3931334 244.031848,74.2069231 C242.739572,74.0207129 241.027638,74.5005343 240.24069,74.5938569 C238.670744,74.7800338 239.480882,73.8362373 238.310786,73.8362373 C237.530722,73.8362373 236.848533,73.9597992 236.264219,74.2069231" id="Path-399"></path>
                    <path d="M248.886476,78.3658937 C248.886476,78.3658937 246.850572,73.4076842 250.519598,73.1127978 C254.188624,72.8179115 256.995586,74.7254668 258.77987,73.1391009 C260.564154,71.5527349 261.100316,69.9745522 259.940093,69.62969 C258.77987,69.2848279 256.161893,68.4207643 256.687498,67.6020174 C257.213102,66.7832706 260.323232,65.1038125 262.382022,64.8270461 C264.440811,64.5502796 265.510802,60.9336107 260.602118,60.9645899 C259.509264,60.9714869 258.971136,61.8324214 258.227891,62.0635759 C257.912211,62.1617546 256.405611,61.9318867 255.599637,62.3316703 C254.793664,62.731454 253.886068,63.9404034 253.086461,63.9397253 C251.298399,63.9382088 248.57766,60.1188198 247.529067,60.1779631 C246.480475,60.2371065 244.822263,61.1647975 244.376646,60.337064 C243.931028,59.5093305 243.860119,58.5567491 243.111161,58.664515 C242.362203,58.7722808 241.24919,60.0757891 240.436769,59.4345823 C239.624347,58.7933754 240.394154,54.9210271 238.225635,55.1699204 C236.057116,55.4188136 235.153509,55.995361 233.641846,56.6969855 C232.130184,57.39861 227.735524,54.8634755 227.627385,54.8633609" id="Path-400"></path>
                    <path d="M247.452761,60.1822498 C247.452761,60.1822498 250.276874,59.2876916 249.335503,58.1615686 C248.394132,57.0354457 247.287877,57.4318141 246.941326,56.9858996 C246.594776,56.5399851 247.077681,54.0337107 247.761342,53.439158 C248.445002,52.8446054 249.036991,49.7815676 245.816506,49.2846375 C242.596021,48.7877074 240.023325,50.5850115 239.775159,48.2189775 C239.526994,45.8529436 240.96522,41.70955 239.433224,40.8378753 C237.901228,39.9662007 228.474092,41.4620296 226.213543,37.5059033 C223.952994,33.549777 227.343703,32.1124784 226.935384,30.1474747 C226.527064,28.182471 224.093335,28.0740984 224.093335,27.3025656 C224.093335,26.5310328 227.733582,24.4477892 227.349062,22.4512512 C226.964542,20.4547133 227.751203,20.2279771 228.478078,19.3523136 C229.204953,18.4766501 229.302499,16.3438605 226.448703,15.0258515 C223.594906,13.7078425 221.21898,13.8111335 220.501965,15.5546926 C220.19113,16.3105484 218.79168,18.3837557 216.940384,18.7892521 C215.089087,19.1947485 213.556483,19.3523136 211.65591,17.5715949 C209.755337,15.7908762 209.210967,15.6663812 206.042087,15.8213176 C204.585926,15.8925138 204.334037,18.0745672 203.414849,19.9752082 C202.495661,21.8758493 201.05826,24.7345411 200.469591,25.0011934" id="Path-401"></path>
                    <path d="M210.476707,36.6921796 C210.476707,36.6921796 207.469802,37.9506931 207.264349,34.514209 C207.058897,31.0777249 205.831053,33.0732457 204.834705,30.3298674 C203.838357,27.586489 206.414332,26.9780295 204.001725,25.5307885 C201.589117,24.0835476 199.622625,25.4922667 198.431371,25.5307885 C195.512,25.6251928 196.371676,22.5256446 193.825118,20.5630941 C191.27856,18.6005436 187.512785,19.9548179 188.205286,15.6917467 C188.897787,11.4286756 185.886254,10.7086594 183.250233,11.9380556 C180.614212,13.1674517 182.054655,10.4427954 179.867297,8.58868315 C177.679938,6.73457086 176.038008,6.50492603 172.184591,7.1245047 C168.331175,7.74408337 168.722086,4.70218843 168.722086,4.70218843 C168.722086,4.70218843 169.096057,2.57039599 167.27574,1.44349233 C165.455422,0.316588671 162.384855,-0.830351112 160.568901,2.12549124 C159.98823,3.07065492 157.683395,1.44349233 156.449059,3.37954723 C155.214724,5.31560214 156.48613,6.54725291 156.112049,7.36159886 C155.737969,8.17594481 154.125649,7.24038646 152.871612,8.09209001 C152.358847,8.4403443 152.51987,10.6511091 150.273745,11.0472935 C148.027621,11.4434779 146.147779,10.9610518 143.846478,10.4197829" id="Path-402"></path>
                    <path d="M144.569319,12.5461774 C144.569319,12.5461774 143.921392,6.58828272 141.187223,5.10338702 C138.453053,3.61849133 137.36958,6.27240312 137.36958,6.27240312 C137.36958,6.27240312 135.572831,3.71789857 134.041068,4.69725611 C132.509306,5.67661366 130.171474,11.1682099 128.773349,11.1682099 C127.375224,11.1682099 124.406128,7.97198854 122.86391,8.50989944 C121.321692,9.04781035 121.05017,15.7788748 118.23889,17.0060964 C117.655998,17.2605488 117.093949,16.3224919 116.648095,16.550177 C116.202241,16.777862 114.192954,19.0628768 113.505065,17.3500978 C112.637241,15.1892982 114.375864,12.3258522 114.234024,10.5400476 C114.092185,8.75424311 113.972188,8.09792579 112.682658,6.99572162 C111.393127,5.89351745 107.769333,5.72184415 105.219565,6.27240312 C100.520375,7.2870764 95.0102131,4.09623469 93.412776,5.55562458 C91.8153389,7.01501447 90.5776437,9.15488618 90.5776437,9.15488618" id="Path-403"></path>
                    <path d="M92.861004,11.7490442 C92.861004,11.7490442 90.9968224,8.15983915 88.9026512,7.77163134 C86.80848,7.38342352 88.1501492,9.421533 86.8631244,9.57943287 C85.5760996,9.73733275 86.3143856,3.02638942 80.8251016,2.59649117 C75.3358176,2.16659293 74.4217268,6.3048081 72.7745625,6.15020598 C71.1273982,5.99560385 70.3161366,1.45997586 65.7433129,1.82205783 C61.1704891,2.1841398 58.7902309,5.14699387 60.9608026,7.62642448 C61.9433674,8.74880213 62.5525244,7.70381507 63.976497,9.57943287 C65.4004696,11.4550507 63.6198722,10.9357819 63.0560089,13.4478057 C62.8794032,14.2345877 62.4878415,13.1862625 61.5488725,13.1862625 C60.6099036,13.1862625 61.4669595,13.7365756 60.9608026,15.2029666 C60.3322171,17.0240469 58.1405788,13.6533886 58.6407462,14.6182291 C59.1409136,15.5830697 59.6012761,16.5284664 58.6407462,17.8847918 C57.6802162,19.2411172 54.7566892,20.038077 52.908605,18.9271706 C51.0605208,17.8162642 50.0526479,16.5505732 49.6897323,15.9946966 C49.3268167,15.43882 46.3769498,14.3230598 46.9312468,16.5197985 C47.1317937,17.3145876 47.9148179,17.2134921 48.1208613,18.1734533 C48.3269047,19.1334145 46.5837088,20.9834224 45.6664643,21.8951057 C44.3204232,23.2329857 42.8164699,23.2158887 42.3835857,22.3736739 C41.9507015,21.5314592 41.9433712,18.0305175 40.2900246,16.8358706 C38.636678,15.6412237 34.9330453,16.9901899 34.9330453,16.9901899 C34.9330453,16.9901899 29.596128,11.4787627 25.5440629,15.2029666 C21.4919977,18.9271706 30.0066915,19.953261 30.0066915,19.953261 C30.0066915,19.953261 31.3197606,20.1095766 30.4859235,20.2018965 C29.6520864,20.2942164 24.9979184,21.5755728 26.1642497,23.7397089 C27.3305809,25.9038449 32.360544,25.5271319 31.1222348,29.0350816 C29.8839257,32.5430312 25.5440629,30.8732236 28.4530281,35.0554682" id="Path-404"></path>
                    <path d="M85.1791775,127.861826 C85.1791775,127.861826 89.6377722,126.846979 89.6816818,123.658837 C89.7255914,120.470696 94.1255126,123.658837 93.6821206,125.329858 C93.2387286,127.000879 95.8216157,127.959814 98.4622292,126.283671 C99.4462578,125.659054 100.075504,124.24002 100.823193,124.007369 C101.570883,123.774717 103.584338,124.340449 105.140895,124.420225" id="Path-409"></path>
                    <path d="M117.176633,123.159891 C117.176633,123.159891 120.021708,123.96355 120.658196,121.5451 C121.294685,119.12665 120.111297,117.665812 120.111297,116.941726 C120.111297,116.21764 121.54455,119.160981 123.041664,118.536245 C124.538778,117.911509 124.214135,116.139691 124.538778,116.674437 C124.86342,117.209183 125.346084,118.536245 126.642635,118.536245 C127.939185,118.536245 126.40151,115.750571 127.939185,115.640806 C129.476861,115.531042 131.652012,116.674437 131.652012,116.674437" id="Path-410"></path>
                    <path d="M149.075975,127.342471 C149.075975,131.714507 150.902346,133.283503 154.555088,132.049458 C157.842555,130.938819 158.81836,129.269009 157.482502,127.04003 L157.966763,126.749806 C157.930062,126.688567 157.949954,126.60917 158.011193,126.572468 C158.038727,126.555967 158.071415,126.5503 158.102897,126.55657 C159.440468,126.822962 160.456618,126.791451 161.151346,126.462037 C162.033277,126.043858 162.596073,125.529755 162.839732,124.919728" id="Path-411"></path>
                    <path d="M160.259061,134.403417 C160.259061,134.403417 165.745697,132.402691 166.619704,135.397631 C167.493711,138.392571 165.459551,139.884674 166.698939,140.931812 C167.938326,141.97895 170.096907,140.978349 170.712058,140.606716 C171.327209,140.235083 172.157686,140.074688 172.157686,141.69116 C172.157686,143.307632 173.848778,143.089936 174.335088,142.460076 C174.773181,141.892667 174.958352,140.797782 177.255867,141.086855 C179.553383,141.375929 181.464658,142.915295 182.166991,143.140293 C183.159261,143.458173 182.468534,144.375578 184.219247,144.251609 C185.969961,144.127641 185.144411,147.274891 188.415903,146.223999 C191.687394,145.173108 188.903646,143.122721 189.570744,142.939868 C190.237842,142.757014 193.433463,144.805318 194.039916,143.248239 C194.646369,141.69116 192.602751,140.451717 193.670109,139.659352 C194.737466,138.866987 195.135403,137.01934 197.032697,137.201418 C197.975362,137.291884 200.629543,138.493832 201.877612,137.695226 C203.125681,136.896621 202.096968,134.684083 202.922776,132.937161 C203.748584,131.190238 205.656718,131.337968 206.748333,131.702125 C207.839949,132.066282 210.797375,133.100035 210.432987,135.397631 C210.068599,137.695226 212.344218,137.75674 214.210029,136.577185 C216.07584,135.397631 215.615968,132.802862 216.403582,131.190238 C217.191197,129.577615 223.03405,125.836091 223.640503,125.652463" id="Path-412"></path>
                    <path d="M144.529817,77.168714 C147.388396,74.8697707 149.357446,74.5459732 150.436965,76.1973215 C152.056245,78.6743438 149.689367,80.4947147 151.134577,81.8728931 C152.579788,83.2510714 154.489699,81.7756722 155.316801,82.6670968 C156.143903,83.5585214 156.628776,85.5607154 158.395354,85.8090298 C159.051827,85.9013052 159.483488,85.7152395 159.690335,85.2508327 L159.690371,85.2508488 C159.846274,84.900822 160.25641,84.7434531 160.606437,84.8993555 C160.704871,84.943198 160.79174,85.0093659 160.860158,85.0926144 C162.671532,87.2966195 164.231246,88.0552868 165.539298,87.3686164 C167.888756,86.1352532 170.565264,87.2426247 170.452096,85.4229264 C170.338928,83.6032281 170.935903,84.012904 172.110091,84.061675 C173.284278,84.1104459 176.58561,84.579119 178.396609,82.1587951 C179.603943,80.5452458 179.90762,79.3692337 179.30764,78.6307587" id="Path-413"></path>
                    <path d="M151.086612,74.8190159 C151.086612,74.8190159 154.513117,74.5379814 155.725202,72.8460393 C156.937288,71.1540971 160.735441,72.8555027 162.216879,72.5165407 C163.698316,72.1775787 163.541003,70.8093997 164.618126,71.2811361 C165.695248,71.7528725 173.601024,72.5586958 171.816709,75.4522038 C170.032393,78.3457117 175.201091,76.9617603 176.413177,76.9611868 C177.625262,76.9606133 176.912911,79.7115966 180.859209,77.9823743" id="Path-414"></path>
                    <path d="M186.276665,79.5143273 C186.276665,79.5143273 189.492102,79.6052769 190.294074,81.2576012 C191.096046,82.9099254 189.321795,83.8962472 189.321795,85.4617158 C189.321795,86.4714926 190.863068,85.7281285 191.165503,86.0355553 C191.165503,86.0355553 191.471263,87.6737382 193.399904,88.2265357 C195.328546,88.7793333 199.436115,87.3884233 199.436115,87.3884233" id="Path-415"></path>
                    <path d="M187.784281,78.6338114 C187.784281,78.6338114 191.394384,76.4866005 193.914706,77.5602059 C196.435028,78.6338114 197.785634,83.0913776 199.412654,83.3267923 C201.039674,83.5622069 199.961048,84.5389274 199.961048,84.5389274 C199.961048,84.5389274 198.686945,85.5093511 199.961048,87.8464679 C201.235151,90.1835847 204.139563,89.5182699 204.139563,89.5182699" id="Path-416"></path>
                    <path d="M202.631314,100.28051 C202.631314,100.28051 213.98719,99.5014055 213.139977,96.4688206 C212.292763,93.4362358 220.728284,90.0281545 218.597459,87.6587123 C216.466633,85.28927 221.551706,89.8174226 225.249266,89.5557721 C228.946827,89.2941215 231.195997,88.0209921 233.553549,85.2961336 C234.53352,84.1634827 235.0923,85.2961336 236.855283,85.2961336 C238.618265,85.2961336 240.458639,83.645561 240.458639,83.645561" id="Path-417"></path>
                    <path d="M212.243883,98.2897074 C212.243883,98.2897074 214.994492,103.032779 219.874901,101.872333 C224.755309,100.711888 224.737777,98.1335856 228.423386,98.2897074 C232.108994,98.4458292 233.758443,100.804909 236.298463,100.43354 C238.838483,100.062172 240.652499,100.375718 240.604284,99.064534 C240.55607,97.7533503 236.773634,95.2165211 237.077065,93.8901838 C237.380497,92.5638466 234.799634,88.5052787 231.1465,89.2308561" id="Path-418"></path>
                    <path d="M73.4081534,51.1545144 C73.4081534,51.1545144 80.413951,45.962594 87.1216886,50.8434501 C89.6558056,52.6873893 89.7903971,53.6358762 91.1324308,52.8061794 C92.4744646,51.9764825 91.9897675,51.6196836 91.6272319,51.1545144 C91.2646963,50.6893452 91.1304585,48.9292791 94.0038025,50.6848789 C96.8771464,52.4404788 100.228066,53.792084 101.653824,53.2380719 C103.079583,52.6840598 102.958216,51.0579614 102.958216,51.0579614 C102.958216,51.0579614 105.67982,52.1834504 108.524499,51.1545144 C109.676391,50.7378687 111.322753,50.9119165 112.157335,50.4859083 C112.991917,50.0599002 113.257567,48.8517752 112.481987,48.1437926 C111.178647,46.9540484 115.358487,48.8242669 115.649739,46.9298351 C115.940992,45.0354032 116.054469,43.221244 112.157335,42.1442761" id="Path-419"></path>
                    <path d="M107.909515,39.3998765 C107.909515,39.3998765 114.93548,37.6945458 113.565342,42.4897111" id="Path-420"></path>
                    <path d="M84.192859,47.4601528 C84.7716706,44.0391179 87.0309659,42.6746349 90.970745,43.366704 C94.6721751,44.0169042 96.4711476,42.5525743 96.3676624,38.9737144 L96.3676037,38.9737161 C96.3566199,38.5938618 96.6532168,38.2758354 97.0329136,38.2603364 C99.0379281,38.1784928 100.456761,37.2690056 101.289413,35.5318745 C101.815386,34.4345558 101.840996,36.4126203 104.331411,36.695336 C105.991687,36.883813 107.228319,36.7438977 108.041306,36.2755898" id="Path-421"></path>
                </g>
                <path d="M0.652327354,251.2025 L150.585142,251.2025 M161.829591,251.2025 L274.328475,251.2025 M733.512996,251.2025 L799.519432,251.2025" id="Path-6"></path>
            </g>
        </g>
    </g>
</svg>