<?xml version="1.0" encoding="UTF-8"?>
<svg width="510px" height="500px" viewBox="0 0 510 500" version="1.1" xmlns="http://www.w3.org/2000/svg" xmlns:xlink="http://www.w3.org/1999/xlink">
    <!-- Generator: Sketch 47 (45396) - http://www.bohemiancoding.com/sketch -->
    <title>dom-3-510@3x</title>
    <desc>Created with Sketch.</desc>
    <defs></defs>
    <g id="Page-1" stroke="none" stroke-width="1" fill="none" fill-rule="evenodd">
        <g id="dom-3-510" stroke="#FFFFFF" stroke-width="0.555073721">
            <g id="dom-3" transform="translate(-105.000000, 117.000000)">
                <g id="дом3_белый" transform="translate(218.699046, 0.000000)">
                    <path d="M351.326807,62.2529163 L353.263009,244.771276 L104.021541,266.723773 L0.478415143,246.013997 L1.39037554,139.870528 M1.6156893,113.646161 L1.67129181,107.174561 M1.74831994,98.2092224 L2.0788402,59.7398258 L104.774457,1.58739938 L351.906222,62.3638506 L351.906222,61.3064266 L104.774457,0.0499014605 L2.0788402,58.7747952 L2.0788402,59.8916723" id="Path-318"></path>
                    <path d="M35.880796,82.5585383 L35.880796,138.146333 L42.3460833,136.808611 L42.3460833,79.9522278 L35.880796,82.5585383 Z" id="Rectangle-78"></path>
                    <path d="M177.792378,61.3616954 L177.792378,129.462863 L193.785298,130.892303 L193.785298,64.2976319 L177.792378,61.3616954 Z" id="Rectangle-75"></path>
                    <path d="M197.850553,65.060733 L197.850553,131.27493 L211.336201,132.49359 L211.336201,67.5470185 L197.850553,65.060733 Z" id="Rectangle-76"></path>
                    <polyline id="Path-331" points="9.3739717 131.001549 9.79799869 75.7742194 104.669979 29.258326 340.41502 79.4586046 340.41502 79.4586046 341.297101 146.741241 103.954002 125.55326 9.26338217 145.405264 9.27152774 144.344346"></polyline>
                    <polyline id="Path-332" points="24.2885394 142.006383 24.8870599 78.2402588 117.704796 36.2839716 332.675981 80.724416 333.250953 145.912642"></polyline>
                    <path d="M332.539542,80.8225247 L340.388396,79.5928614" id="Path-333"></path>
                    <path d="M9.92909797,75.8362782 L24.9326779,78.2012983" id="Path-334"></path>
                    <path d="M117.672411,36.0571308 L117.575517,126.659989" id="Path-335"></path>
                    <polygon id="Path-336" points="2.18672365 230.738403 2.56007333 158.629041 103.905406 142.72195 307.951008 157.04381 308.288854 232.854924 104.153368 245.020195"></polygon>
                    <polyline id="Path-337" points="0.603958785 238.633833 104.212509 256.464429 353.232971 238.56289"></polyline>
                    <path d="M308.470573,232.71706 L273.359349,230.773439 L190.78173,234.365442 M184.317499,234.646626 L174.687951,235.065497 M168.279614,235.34425 L158.219588,235.781846 M151.729919,236.064137 L141.027452,236.529678 M56.7882305,162.308013 L56.6016641,229.463703 L56.7882305,162.308013 Z" id="Path-338"></path>
                    <path d="M134.143518,236.829119 L133.130242,236.873195 L122.459928,235.881892 M115.629874,235.247361 L56.6643421,229.769293 L2.26372083,230.611941" id="Path"></path>
                    <path d="M2.70596071,158.629288 L56.807082,162.297598 L115.570587,154.857687 M122.451363,153.986528 L133.158155,152.630966 L134.268672,152.685136 M141.012233,153.014082 L151.697683,153.53531 M158.254939,153.855168 L168.372565,154.348698 M174.692318,154.65697 L184.349111,155.128021 M190.750141,155.440259 L273.599514,159.481587 L307.871025,157.229937" id="Path-339"></path>
                    <path d="M273.409702,159.460515 L273.412302,230.878483" id="Path-340"></path>
                    <path d="M115.612038,145.410134 L115.612038,242.330193 L121.074417,242.711714 L121.074417,145.21321 L115.612038,145.410134 Z" id="Rectangle-72"></path>
                    <polyline id="Path-341" points="121.313073 242.754787 122.48033 242.625133 122.48033 145.269007 121.250295 145.175723"></polyline>
                    <path d="M134.16585,146.90925 L134.16585,241.33667 L139.628228,241.708435 L139.628228,146.717361 L134.16585,146.90925 Z" id="Rectangle-72"></path>
                    <polyline id="Path-341" points="139.866884 241.754267 141.034141 241.627941 141.034141 146.771029 139.804107 146.68014"></polyline>
                    <path d="M151.716752,147.911786 L151.716752,240.33449 L156.928403,240.704612 L156.928403,147.720745 L151.716752,147.911786 Z" id="Rectangle-72"></path>
                    <polyline id="Path-341" points="157.136528 240.747395 158.173175 240.676836 158.173175 147.856194 157.136528 147.681137"></polyline>
                    <path d="M168.264746,148.910635 L168.264746,239.444471 L173.476397,239.807074 L173.476397,148.723475 L168.264746,148.910635 Z" id="Rectangle-72"></path>
                    <polyline id="Path-341" points="173.684522 239.854612 174.721169 239.785486 174.721169 148.850539 173.684522 148.679038"></polyline>
                    <path d="M184.311285,150.409939 L184.311285,238.585588 L189.522936,238.938803 L189.522936,150.227625 L184.311285,150.409939 Z" id="Rectangle-72"></path>
                    <polyline id="Path-341" points="189.731062 238.992279 190.767708 238.924943 190.767708 150.344218 189.731062 150.177157"></polyline>
                    <polygon id="Path-344" points="64.9592485 165.211222 64.6944277 224.568966 93.1789949 227.042221 93.3838187 162.25791"></polygon>
                    <path d="M75.3509976,223.473373 L83.8524256,224.217919 M84.5098662,224.275497 L93.1902169,225.035713 L93.3807119,164.262287 L84.6168115,165.180798 M83.9769001,165.247794 L75.4859405,166.137636 M74.9034528,166.19868 L66.9446211,167.032755 L66.9446211,167.032755 L66.6983262,222.715581 L74.829007,223.427657" id="Path-344"></path>
                    <path d="M115.552745,159.945716 L95.0121344,162.063891 L95.0121344,162.063891 L94.7575672,227.178152 L115.608334,229.000629 M122.513112,229.604147 L129.697268,230.232084 L129.793803,158.477159 L122.459816,159.23345" id="Path-345"></path>
                    <path d="M108.569963,226.30727 L115.688347,226.945352 M122.502141,227.556132 L128.704092,228.112066 L128.792836,160.46346 L122.528889,161.125908" id="Path-345"></path>
                    <path d="M115.590662,161.859665 L108.691286,162.589313 M107.4932,162.716018 L96.8184418,163.844934 L96.5844211,225.232902 L107.528103,226.213879" id="Path"></path>
                    <path d="M74.7064123,166.117071 L74.5862222,223.439666" id="Path-346"></path>
                    <path d="M83.7325907,165.114127 L83.6085195,224.287725" id="Path-346"></path>
                    <path d="M26.8546176,86.1746747 L26.8546176,140.049183 L34.3228136,138.484303 L34.3228136,83.1796107 L26.8546176,86.1746747 Z" id="Rectangle-77"></path>
                    <path d="M84.8698571,164.984378 L84.7457859,224.157976" id="Path-346"></path>
                    <path d="M75.709321,166.117071 L75.5891309,223.439666" id="Path-346"></path>
                    <path d="M107.310518,162.462053 L107.310518,226.394417" id="Path-347"></path>
                    <path d="M108.815595,162.339244 L108.815595,226.259276" id="Path-347"></path>
                    <polyline id="Path-342" points="353.245101 239.367546 368.460659 238.229604 367.665484 149.971789 352.405502 148.535712 352.382844 147.594741 367.665484 149.059308 367.665484 149.971789"></polyline>
                    <path d="M353.25236,233.494602 L368.447612,232.561112" id="Path-343"></path>
                    <polyline id="Path-348" points="353.111701 221.647979 359.733873 221.271481 359.12317 169.263454 352.583352 168.897444"></polyline>
                    <polyline id="Path-348" points="353.00056 220.141339 358.229728 219.782742 357.747489 170.247439 352.583352 169.898831"></polyline>
                    <polyline id="Path-349" points="275.599151 230.725257 275.324064 170.840275 301.478674 169.566448 301.717045 232.307764"></polyline>
                    <path d="M277.14023,172.333496 L277.14023,178.452043 L299.592167,178.036027 L299.592167,171.307991 L277.14023,172.333496 Z" id="Rectangle-70"></path>
                    <path d="M277.266093,181.408561 L277.515785,228.486718 L284.799264,228.889935 L284.799264,181.251206 L277.266093,181.408561 Z" id="Rectangle-71"></path>
                    <path d="M286.607973,181.198859 L286.607973,228.974679 L299.090713,229.650648 L299.090713,180.912402 L286.607973,181.198859 Z" id="Rectangle-71"></path>
                    <path d="M270.109779,159.385543 L270.304987,230.861197" id="Path-350"></path>
                    <polyline id="Path-351" points="156.561544 130.195425 156.561544 54.3984132 213.985821 65.3961616 213.985821 135.332914"></polyline>
                    <path d="M159.238567,57.9045672 L159.238567,127.77199 L173.727124,129.084245 L173.727124,60.5849451 L159.238567,57.9045672 Z" id="Rectangle-74"></path>
                    <polyline id="Path-352" points="24.9407843 84.9487831 50.6679709 74.2146215 50.3778972 136.707958"></polyline>
                    <polyline id="Path-355" points="50.632123 76.5448068 43.9110021 79.2860936 43.9110021 136.496432 50.3811917 135.13152"></polyline>
                    <polyline id="Path-354" points="295.158399 142.540166 295.158399 80.8396656 332.818705 88.0342098"></polyline>
                    <path d="M296.63706,83.6699601 L296.63706,140.240048 L305.609619,141.044202 L305.609619,85.3794029 L296.63706,83.6699601 Z" id="Rectangle-79"></path>
                    <path d="M308.671965,85.9649154 L308.671965,141.324964 L319.148887,142.257802 L319.148887,87.9635091 L308.671965,85.9649154 Z" id="Rectangle-80"></path>
                    <path d="M322.211232,88.5576459 L322.211232,142.529868 L330.180883,143.236132 L330.180883,90.0847466 L322.211232,88.5576459 Z" id="Rectangle-81"></path>
                    <path d="M352.289938,125.759273 L352.206841,126.864923 L362.829035,128.558889 L362.829035,148.555091 L364.029052,148.675036 L364.029052,127.59378 L352.289938,125.759273 Z" id="Rectangle-82"></path>
                    <path d="M352.057955,129.84353 L362.433811,128.524067" id="Path-353"></path>
                    <path d="M352.025544,128.620566 L358.605151,127.896959" id="Path-353"></path>
                    <path d="M104.740942,0.195942142 L104.740942,29.1726425" id="Path-10"></path>
                    <path d="M103.977693,125.591584 L103.977693,142.6645" id="Path-11"></path>
                    <path d="M104.116869,245.014635 L104.116869,266.813652" id="Path-12"></path>
                </g>
                <g id="дерево5" transform="translate(16.097138, 48.293139)">
                    <path d="M90.4492038,199.752581 C90.4492038,199.752581 90.8117426,197.601483 92.3269084,195.553996 C93.8420742,193.50651 100.377509,191.668351 101.87216,187.260438 C103.366811,182.852526 104.226675,165.478199 104.362073,156.920284 C104.49747,148.362368 103.140562,132.80865 101.87216,126.721979 C100.603758,120.635309 92.122359,113.27558 88.969512,112.026398 C85.816665,110.777215 84.91459,110.357929 80.7848828,110.357929 C76.6551755,110.357929 69.004454,106.831214 65.5646244,102.604344 C64.9119872,101.802382 62.9786352,100.830191 61.5691895,100.830191 C60.1597438,100.830191 56.7684082,100.830191 54.1915505,100.386383 C51.6146928,99.9425751 49.4447878,96.8771502 49.3092642,96.3365634" id="Path-356"></path>
                    <path d="M92.1290153,110.112646 C92.1290153,110.112646 87.6674822,106.627065 77.7100557,106.627065 C71.8039511,106.627065 68.3013364,102.498023 68.3013364,102.498023 C68.3013364,102.498023 64.9221299,95.278386 55.5338687,92.3013046" id="Path-357"></path>
                    <path d="M132.007894,198.934257 C132.007894,198.934257 122.227476,191.35338 119.400856,185.700858 C116.574236,180.048337 113.360118,167.319885 113.360118,156.516875 C113.360118,150.747157 113.360118,159.07022 113.360118,143.445477 C113.360118,127.820733 114.649958,123.304367 113.909412,120.603843 C113.168865,117.903319 112.489726,116.627027 112.296021,113.444267 C112.102316,110.261506 112.710048,104.502459 112.799899,103.730881 C112.88975,102.959302 113.267815,100.718946 115.668694,96.0894767" id="Path-359"></path>
                    <path d="M113.823264,120.344862 C113.823264,120.344862 114.332251,114.539661 118.433539,111.854466 C122.534827,109.169271 123.254093,110.129775 126.112269,108.774061 C128.970445,107.418346 132.233791,103.557129 137.495869,101.447455 C142.757947,99.3377811 150.252642,94.994134 150.352673,94.4918306" id="Path-360"></path>
                    <path d="M112.239039,112.781499 C112.239039,112.781499 112.649921,112.327993 112.799867,112.153866 C113.545639,111.287824 116.643685,109.003958 123.082383,105.988379 C129.521081,102.9728 136.571749,98.3225324 137.572063,96.4137795 C138.572377,94.5050267 138.972077,93.4999943 138.972077,93.4999943" id="Path-361"></path>
                    <path d="M139.660804,93.8728907 C139.660804,93.8728907 139.660804,97.7955395 138.205454,98.3293433 C137.449354,98.6066706 139.907439,98.2670576 142.954605,96.9484347 C146.001771,95.6298117 149.335332,93.8728907 149.335332,93.8728907" id="Path-362"></path>
                    <path d="M106.086496,111.792856 C106.086496,111.792856 103.983246,105.338547 98.7241877,101.865911 C93.4651291,98.3932753 91.0160118,99.7222026 88.7875021,97.3133817 C86.5589924,94.9045608 83.9262848,85.7292041 82.5813268,84.0764583 C81.2363689,82.4237125 74.7856558,74.8723094 74.2621804,73.0475584" id="Path-363"></path>
                    <path d="M71.2951963,74.5518562 C71.2951963,74.5518562 76.1496832,81.056271 76.5890287,83.340949 C77.0283741,85.625627 78.5247661,91.0860449 80.5401465,93.9858285 C82.555527,96.8856122 86.0400039,102.578611 86.0400039,102.578611 C86.0400039,102.578611 89.5390633,107.409714 92.0528671,109.657" id="Path-364"></path>
                    <path d="M105.328602,85.6637099 C105.328602,85.6637099 105.560372,106.815057 104.754919,108.856686" id="Path-368"></path>
                    <path d="M110.280774,90.0187731 C110.280774,90.0187731 110.949399,100.129805 110.290392,101.879773 C109.631385,103.629742 114.398327,92.1165632 114.398327,92.1165632" id="Path-369"></path>
                    <path d="M89.9544875,98.3307521 C89.9544875,98.3307521 90.4798503,90.9016064 89.6397552,87.7811417 C89.2612061,86.375052 87.3929108,81.6248948 86.3382502,79.7649088 C85.2835896,77.9049227 84.0139408,76.0206766 83.8714373,75.7725752 C83.5142666,75.1507341 83.6042213,73.5460166 83.713836,73.0508068" id="Path-370"></path>
                    <path d="M95.3967232,100.076935 C95.3967232,100.076935 92.5295204,99.0836305 91.9862899,91.7822462 C91.4430595,84.4808619 91.7407533,83.8505329 91.7407533,82.1500591 C91.7407533,80.4495854 91.9301547,75.6838828 90.288971,72.3271379" id="Path-371"></path>
                    <path d="M84.932911,72.5630848 C84.932911,72.5630848 84.4030746,74.1147296 84.8392188,74.7497481 C85.2753631,75.3847666 89.3928671,79.6490206 89.1769451,81.1104883 C89.0530392,81.9491449 89.7774261,78.5561852 89.6443635,75.8529836 C89.5113008,73.149782 88.6725189,72.3050638 88.6725189,72.3050638" id="Path-372"></path>
                    <path d="M121.499275,65.655637 C121.499275,65.655637 124.004395,63.144596 125.074815,61.7092359 C126.145235,60.2738758 127.385335,57.7628348 127.385335,57.7628348" id="Path-379"></path>
                    <path d="M123.00017,65.9782787 C123.00017,65.9782787 123.857746,65.0693937 125.251652,64.1258609 C126.645558,63.182328 126.600206,62.3402167 127.748709,61.8266231 C131.190201,60.2876403 137.517806,59.696806 137.517806,59.696806" id="Path-380"></path>
                    <path d="M128.822757,57.7919391 C128.822757,57.7919391 128.363203,60.1208355 128.036139,60.4465261 C127.887334,60.5947052 129.460704,59.91572 131.529081,59.452823 C133.597458,58.9899261 137.427334,58.9889196 137.427334,58.9889196" id="Path-381"></path>
                    <path d="M152.055365,66.7356801 L156.954105,63.8837618" id="Path-382"></path>
                    <path d="M151.458319,68.4786242 C151.458319,68.4786242 157.674471,65.0690647 157.822708,64.6968834" id="Path-383"></path>
                    <path d="M170.515814,75.8915057 C170.515814,75.8915057 176.263066,76.5822664 177.667446,75.8915057 C179.071826,75.2007451 182.396522,74.4260673 183.215744,74.4260673 C183.690596,74.4260673 185.515029,74.4512891 186.896764,73.9873073 C188.278499,73.5233254 188.623159,72.8148509 188.647757,72.6946834" id="Path-384"></path>
                    <path d="M173.126119,73.5390848 C173.126119,73.5390848 173.929653,73.8837181 175.158486,73.7114014 C176.387319,73.5390848 180.581784,72.2374965 181.927648,72.0599506 C182.710732,71.9566465 184.229008,72.0626443 185.460511,72.0599506 C186.692015,72.057257 187.455905,71.7314865 187.455905,71.7314865" id="Path-385"></path>
                    <path d="M79.773741,73.6165998 C79.773741,73.6165998 80.5852065,74.9275986 81.4776056,74.6271169 C82.3700047,74.3266352 84.7655652,72.3145803 84.7655652,72.3145803 C84.7655652,72.3145803 85.562576,72.9905468 86.9079667,72.9905468 C88.2533573,72.9905468 89.9271635,71.8004153 89.9271635,71.8004153 C89.9271635,71.8004153 90.1371467,72.0864763 90.3090162,72.5645191 C90.4808858,73.0425619 90.9277267,73.3769579 91.1209635,73.6165998 C91.542318,74.1391411 92.9710379,74.3157604 92.9710379,74.3157604 C92.9710379,74.3157604 94.4175509,74.615056 95.0385718,75.1641049 C95.6595927,75.7131537 96.7637741,76.5338509 97.4178221,76.4021089" id="Path-390"></path>
                    <path d="M100.509308,75.3746935 C100.509308,75.3746935 104.455251,77.7791994 103.139937,79.6712228 C101.824622,81.5632462 102.133118,83.3018108 103.029056,83.3014931 C103.924995,83.3011754 105.275428,82.9608714 104.987676,83.5260687 C104.863407,83.7701545 104.693958,85.0101978 104.987676,85.5155602 C105.281393,86.0209225 107.775277,86.9435897 107.775277,86.9435897 C107.775277,86.9435897 109.081615,89.4455289 110.107222,90.1507093 C111.132829,90.8558897 114.418601,91.2035588 114.418601,91.2035588 C114.418601,91.2035588 114.256093,96.4940715 115.98561,96.251122 C116.505722,96.1780606 115.858878,98.045468 115.732197,98.6921589 C115.673649,98.9910394 114.938526,101.399578 116.243808,103.029142 C117.54909,104.658705 119.326124,103.918647 119.770643,103.990104" id="Path-391"></path>
                    <path d="M127.667841,99.0834218 C127.667841,99.0834218 131.903837,100.93369 133.118715,99.1999899 C134.333593,97.4662898 132.220368,95.9644699 132.732597,95.1640687 C133.244825,94.3636675 136.674125,93.480119 139.098103,93.6569811 C141.522081,93.8338431 141.194379,95.1640687 141.194379,95.1640687" id="Path-392"></path>
                    <path d="M142.229764,91.8527477 C142.229764,91.8527477 143.915057,90.3350559 145.24438,91.3286275 C146.573704,92.3221992 145.860497,93.6937249 146.72658,94.0994084 C147.592663,94.5050919 148.574059,93.5556848 149.588717,93.9181217 C150.603375,94.2805586 150.095521,94.8632187 151.088914,95.4070722 C152.082307,95.9509257 153.202056,96.5544008 155.015117,95.7977798 C156.828177,95.0411588 156.94767,92.608892 156.94767,92.608892" id="Path-393"></path>
                    <path d="M161.101381,91.1981582 C161.101381,91.1981582 162.570458,89.7027985 162.911681,88.9576688 C163.252903,88.2125391 166.032954,89.1250072 166.43222,89.8099048" id="Path-394"></path>
                    <path d="M167.893768,90.4778014 C167.893768,90.4778014 168.240334,93.2011194 169.495934,93.5263243" id="Path-395"></path>
                    <path d="M172.789883,92.1091692 C172.789883,92.1091692 170.959911,95.1759074 172.427531,97.7848329 C173.895151,100.393758 177.794799,99.3661691 177.794799,99.3661691" id="Path-396"></path>
                    <path d="M177.550962,97.0193156 C177.436729,98.3845169 177.88181,99.5072895 178.886206,100.387633 C180.3928,101.708149 183.5963,103.176945 185.313444,102.789561 C187.134462,102.378743 188.084258,101.522999 188.162831,100.22233 C189.086704,101.178862 189.904074,101.305132 190.614943,100.601138 C191.325811,99.8971441 191.144545,99.0240518 190.071146,97.981861 C190.752578,97.2988569 191.102098,96.7241389 191.119706,96.257707 C191.146119,95.5580592 190.426876,94.3425225 190.071146,93.9061982 C189.903296,93.7003196 190.530847,92.7754059 191.351389,92.4867763 C191.898417,92.2943566 192.582475,92.2943566 193.403563,92.4867763 C194.405365,93.4573971 195.377121,93.6391726 196.318832,93.032103 C197.731398,92.1214985 196.185536,90.6837429 196.185536,90.1623334 C196.185536,89.6409239 196.25971,89.0357164 197.592981,89.3179914 C198.926252,89.6002663 201.609398,90.3440508 201.290821,91.1460283 C200.972245,91.9480057 201.711969,92.4867763 202.717198,92.4867763 C203.283079,92.4867763 203.757679,92.1192089 204.140999,91.3840741 L204.14102,91.3840856 C204.279822,91.1178894 204.605123,91.0103003 204.875273,91.1412408 C205.872882,91.6247778 206.296617,92.5464302 206.14648,93.9061982 C205.884686,96.2772252 204.343596,95.1540709 204.560295,96.8077755 C204.776994,98.46148 208.186034,98.3310597 208.309111,98.4131141" id="Path-397"></path>
                    <path d="M206.490877,98.4851782 C206.117248,100.34635 206.843213,101.323901 208.668772,101.417832 C210.494331,101.511763 211.326145,100.154179 211.164213,97.3450786 C211.57468,95.9001338 212.354072,94.934288 213.502389,94.447541 C215.224865,93.7174205 217.594709,94.3518864 218.043451,93.4106364 C218.342613,92.7831364 218.503934,92.1870904 218.527416,91.6224983 C220.361592,91.7233235 221.27868,90.9798458 221.27868,89.3920655 C221.27868,88.3859685 220.592965,87.3632828 219.87138,86.7332335 C219.149795,86.1031841 219.181894,84.4131783 217.878647,83.6025916 C216.575399,82.7920049 214.696737,82.2411291 213.24021,82.6159918 C212.861447,82.7134732 211.659233,82.7827239 210.986806,82.2411291 C210.314378,81.6995344 209.996902,81.12299 209.996902,80.7130252 C209.996902,79.2631253 211.974124,79.5170194 211.999545,78.4027724 C212.024966,77.2885254 210.299917,77.6074321 209.396928,76.689176 C208.794935,76.0770053 208.452795,75.1743547 208.370509,73.9812241" id="Path-398"></path>
                    <path d="M206.400449,75.1740718 C208.466477,74.3578261 209.499491,73.2505281 209.499491,71.852178 C209.499491,70.5539759 208.281649,69.454001 205.845966,68.5522532 L205.845969,68.552246 C205.558484,68.4458123 205.411713,68.1264782 205.518147,67.8389933 C205.520139,67.8336126 205.522214,67.8282631 205.524372,67.8229468 C205.87619,66.9561971 205.725692,66.2287043 205.072877,65.6404686 C203.902274,64.5856667 199.754742,65.8739297 199.506754,64.1157692 C199.258766,62.3576087 198.332375,61.3055454 197.766847,60.6722015 C197.201318,60.0388576 196.259299,59.4699599 195.225478,59.3211032 C194.191657,59.1722465 192.82211,59.5558163 192.192552,59.6304185 C190.936595,59.7792486 191.584705,59.0247765 190.648628,59.0247765 C190.024577,59.0247765 189.478826,59.1235521 189.011375,59.3211032" id="Path-399"></path>
                    <path d="M199.109181,62.6457893 C199.109181,62.6457893 197.480458,58.6821907 200.415678,58.4464582 C203.350899,58.2107256 205.596469,59.7356277 207.023896,58.4674848 C208.451323,57.199342 208.880253,55.9377408 207.952074,55.6620576 C207.023896,55.3863744 204.929515,54.6956409 205.349998,54.0411337 C205.770481,53.3866265 208.258586,52.0440657 209.905617,51.8228183 C211.552649,51.6015708 212.408642,48.7104014 208.481694,48.7351661 C207.607411,48.7406797 207.176909,49.4289117 206.582313,49.6136969 C206.329769,49.6921811 205.124488,49.5084244 204.47971,49.8280119 C203.834931,50.1475995 203.108855,51.1140351 202.469169,51.1134929 C201.038719,51.1122807 198.862128,48.0590565 198.023254,48.1063358 C197.18438,48.1536151 195.857811,48.8952124 195.501317,48.2335212 C195.144823,47.5718301 195.088095,46.8103354 194.488929,46.8964835 C193.889762,46.9826317 192.999352,48.0246578 192.349415,47.5120762 C191.699478,46.9994947 192.315323,43.9039348 190.580508,44.1029004 C188.845693,44.301866 188.122807,44.7627586 186.913477,45.3236381 C185.704147,45.8845176 182.18842,43.857928 182.101908,43.8578364" id="Path-400"></path>
                    <path d="M197.962209,48.1097626 C197.962209,48.1097626 200.221499,47.3946517 199.468402,46.4944276 C198.715305,45.5942036 197.830301,45.911061 197.553061,45.5545964 C197.275821,45.1981318 197.662145,43.194613 198.209073,42.7193269 C198.756002,42.2440408 199.229593,39.7954448 196.653205,39.3981983 C194.076817,39.0009517 192.01866,40.4377188 191.820127,38.5463084 C191.621595,36.654898 192.772176,33.3426642 191.546579,32.6458464 C190.320982,31.9490287 182.779274,33.1447961 180.970835,29.982264 C179.162395,26.8197319 181.874962,25.6707537 181.548307,24.0999274 C181.221652,22.5291011 179.274668,22.4424679 179.274668,21.8257036 C179.274668,21.2089394 182.186866,19.543592 181.87925,17.9475571 C181.571634,16.3515223 182.200963,16.1702691 182.782463,15.4702627 C183.363962,14.7702562 183.441999,13.0653016 181.158962,12.0116837 C178.875925,10.9580657 176.975184,11.0406366 176.401572,12.4344399 C176.152904,13.0386719 175.033344,14.6959963 173.552307,15.0201506 C172.07127,15.3443049 170.845186,15.4702627 169.324728,14.046754 C167.804269,12.6232453 167.368774,12.5237239 164.83367,12.6475802 C163.668741,12.7044946 163.46723,14.4488306 162.731879,15.9682054 C161.996529,17.4875802 160.846608,19.7728218 160.375672,19.985984" id="Path-401"></path>
                    <path d="M168.381366,29.3317723 C168.381366,29.3317723 165.975841,30.3378295 165.81148,27.5907 C165.647118,24.8435705 164.664843,26.4387922 163.867764,24.2457323 C163.070686,22.0526724 165.131466,21.5662691 163.20138,20.4093429 C161.271294,19.2524168 159.6981,20.3785485 158.745097,20.4093429 C156.4096,20.4848098 157.097341,18.0070273 155.060095,16.4381621 C153.022848,14.8692968 150.010228,15.9519053 150.564228,12.5440011 C151.118229,9.13609696 148.709003,8.56051516 146.600187,9.54329592 C144.49137,10.5260767 145.643724,8.34798318 143.893837,6.8658036 C142.14395,5.38362401 140.830406,5.20004566 137.747673,5.69533759 C134.66494,6.19062952 134.977669,3.75893506 134.977669,3.75893506 C134.977669,3.75893506 135.276846,2.05477763 133.820592,1.1539295 C132.364338,0.253081363 129.907884,-0.663783674 128.455121,1.69912024 C127.990584,2.45468522 126.146716,1.1539295 125.159248,2.70161411 C124.171779,4.24929872 125.188904,5.23388182 124.889639,5.88487095 C124.590375,6.53586007 123.300519,5.78797361 122.29729,6.46882645 C121.887078,6.74722134 122.015896,8.51450936 120.218996,8.83121967 C118.422097,9.14792998 116.918223,8.76227796 115.077182,8.3295869" id="Path-402"></path>
                    <path d="M115.655456,10.0294292 C115.655456,10.0294292 115.137113,5.2666811 112.949778,4.0796537 C110.762443,2.8926263 109.895664,5.01416657 109.895664,5.01416657 C109.895664,5.01416657 108.458264,2.97209257 107.232855,3.75499216 C106.007445,4.53789176 104.137179,8.92788033 103.018679,8.92788033 C101.900179,8.92788033 99.5249021,6.37281718 98.2911278,6.80282381 C97.0573534,7.23283043 96.840136,12.6136514 94.5911118,13.5946938 C94.1247988,13.7981033 93.6751591,13.0482196 93.3184762,13.2302313 C92.9617932,13.412243 91.3543636,15.2388866 90.804052,13.869689 C90.1097926,12.1423432 91.500691,9.85330098 91.3872195,8.42572671 C91.273748,6.99815243 91.1777506,6.47349157 90.1461262,5.59238824 C89.1145018,4.71128491 86.2154661,4.57404906 84.1756518,5.01416657 C80.4162997,5.8252976 76.0081705,3.27453492 74.7302208,4.44117294 C73.4522711,5.60781097 72.4621149,7.31842698 72.4621149,7.31842698" id="Path-403"></path>
                    <path d="M93.7413066,98.4541646 C93.7413066,98.4541646 96.0173664,99.09661 96.5265571,97.1632982 C97.0357478,95.2299864 96.0890377,94.0621911 96.0890377,93.4833559 C96.0890377,92.9045207 97.2356402,95.2574313 98.4333311,94.7580163 C99.631022,94.2586013 99.3713083,92.8422078 99.631022,93.2696845 C99.8907357,93.6971613 100.276868,94.7580163 101.314108,94.7580163 C102.351348,94.7580163 101.121208,92.5311451 102.351348,92.4433992 C103.581489,92.3556532 105.32161,93.2696845 105.32161,93.2696845" id="Path-410"></path>
                    <path d="M119.26078,101.797724 C119.26078,105.292735 120.721877,106.546992 123.64407,105.560495 C126.274044,104.672648 127.054688,103.337801 125.986002,101.555952 L126.373694,101.323429 C126.344436,101.274646 126.360264,101.211381 126.409047,101.182123 C126.430986,101.168965 126.457038,101.164442 126.482129,101.169436 C127.552279,101.382431 128.365262,101.357254 128.921077,101.093904 C129.626622,100.759611 130.076858,100.348637 130.271786,99.8609802" id="Path-411"></path>
                    <path d="M128.207249,107.442253 C128.207249,107.442253 132.596558,105.84287 133.295763,108.237028 C133.994969,110.631187 132.367641,111.823976 133.359151,112.661059 C134.350661,113.498143 136.077525,112.698261 136.569646,112.401177 C137.061767,112.104093 137.726148,111.975874 137.726148,113.268083 C137.726148,114.560293 139.079023,114.386266 139.468071,113.882756 C139.818545,113.429168 139.966681,112.553915 141.804694,112.785001 C143.642707,113.016087 145.171726,114.246658 145.733593,114.426521 C146.527409,114.680636 145.974827,115.41401 147.375398,115.314909 C148.775969,115.215809 148.115529,117.731724 150.732722,116.89164 C153.349915,116.051557 151.122917,114.412475 151.656595,114.266301 C152.190274,114.120128 154.74677,115.757545 155.231933,114.512814 C155.717095,113.268083 154.082201,112.277271 154.936087,111.643853 C155.789973,111.010435 156.108322,109.533424 157.626158,109.678978 C158.38029,109.751296 160.503634,110.712135 161.50209,110.073729 C162.500545,109.435322 161.677574,107.666618 162.338221,106.270126 C162.998868,104.873634 164.525374,104.991729 165.398667,105.282836 C166.271959,105.573944 168.6379,106.400328 168.34639,108.237028 C168.05488,110.073729 169.875374,110.122903 171.368023,109.179966 C172.860672,108.237028 172.492774,106.162767 173.122866,104.873634 C173.752958,103.584501 178.42724,100.593522 178.912402,100.446729" id="Path-412"></path>
                    <path d="M115.623854,61.6887624 C117.910717,59.8509844 119.485956,59.5921403 120.349572,60.91223 C121.644996,62.8923647 119.751493,64.3475713 120.907662,65.4492888 C122.063831,66.5510062 123.591759,65.3715703 124.253441,66.0841762 C124.915123,66.796782 125.303021,68.3973384 126.716283,68.5958412 C127.241462,68.6696062 127.58679,68.5208651 127.752268,68.1496178 L127.752226,68.1495989 C127.877043,67.8695729 128.205234,67.7437514 128.48526,67.8685688 C128.5639,67.9036215 128.633309,67.9564861 128.687999,68.0229836 C130.137153,69.7849868 131.384966,70.3915177 132.431438,69.8425766 C134.311004,68.8566246 136.452211,69.7418587 136.361677,68.2871897 C136.271142,66.8325206 136.748723,67.1600161 137.688073,67.1990037 C138.627422,67.2379912 141.268488,67.612649 142.717288,65.6778392 C143.683154,64.387966 143.926096,63.4478605 143.446112,62.8575227" id="Path-413"></path>
                    <path d="M120.86929,59.8104109 C120.86929,59.8104109 123.610494,59.5857516 124.580162,58.233211 C125.54983,56.8806704 128.588353,58.2407761 129.773503,57.9698095 C130.958653,57.6988429 130.832803,56.6051189 131.694501,56.9822256 C132.556199,57.3593322 138.880819,58.0035084 137.453367,60.3165821 C136.025915,62.6296558 140.160873,61.5233234 141.130541,61.5228649 C142.10021,61.5224064 141.530329,63.7215458 144.687367,62.3392034" id="Path-414"></path>
                    <path d="M149.021332,63.5638485 C149.021332,63.5638485 151.593682,63.6365537 152.235259,64.9574237 C152.876837,66.2782937 151.457436,67.0667605 151.457436,68.3181979 C151.457436,69.1254148 152.690455,68.5311686 152.932402,68.7769259 C152.932402,68.7769259 153.17701,70.0864913 154.719923,70.5283983 C156.262837,70.9703053 159.548892,69.8584102 159.548892,69.8584102" id="Path-415"></path>
                    <path d="M150.227425,62.859963 C150.227425,62.859963 153.115507,61.1434801 155.131765,62.0017215 C157.148022,62.859963 158.228508,66.4233468 159.530123,66.6115375 C160.831739,66.7997283 159.968838,67.5805198 159.968838,67.5805198 C159.968838,67.5805198 158.949556,68.3562777 159.968838,70.2245716 C160.988121,72.0928656 163.311651,71.5610122 163.311651,71.5610122" id="Path-416"></path>
                    <path d="M162.105051,80.16436 C162.105051,80.16436 171.189752,79.5415427 170.511981,77.1172907 C169.83421,74.6930388 176.582627,71.9686145 174.877967,70.0744796 C173.173306,68.1803446 177.241365,71.8001552 180.199413,71.5909915 C183.157462,71.3818277 184.956798,70.3640865 186.842839,68.1858313 C187.626816,67.2803889 188.07384,68.1858313 189.484226,68.1858313 C190.894612,68.1858313 192.366911,66.8663616 192.366911,66.8663616" id="Path-417"></path>
                    <path d="M169.795106,78.5729098 C169.795106,78.5729098 171.995594,82.3645266 175.89992,81.4368652 C179.804247,80.5092038 179.790221,78.4481059 182.738708,78.5729098 C185.687196,78.6977137 187.006755,80.5835648 189.038771,80.2866925 C191.070787,79.9898203 192.521999,80.2404689 192.483427,79.1923071 C192.444856,78.1441453 189.418907,76.116201 189.661652,75.0559254 C189.904398,73.9956498 187.839708,70.7512258 184.9172,71.3312532" id="Path-418"></path>
                    <path d="M58.7265227,40.8929801 C58.7265227,40.8929801 64.3311608,36.7425527 69.6973509,40.6443149 C71.7246445,42.1183621 71.8323176,42.8765837 72.9059447,42.213323 C73.9795717,41.5500623 73.591814,41.2648369 73.3017855,40.8929801 C73.0117571,40.5211233 72.9043668,39.1141243 75.203042,40.5175529 C77.5017172,41.9209815 80.182453,43.0014564 81.3230595,42.5585785 C82.4636661,42.1157005 82.3665731,40.8157955 82.3665731,40.8157955 C82.3665731,40.8157955 84.5438557,41.7155127 86.8195988,40.8929801 C87.7411126,40.559913 89.0582027,40.699047 89.7258682,40.3584956 C90.3935337,40.0179442 90.6060536,39.0521676 89.9855894,38.4862055 C88.9429174,37.5351225 92.2867893,39.0301774 92.5197915,37.5157663 C92.7527938,36.0013553 92.8435753,34.5511142 89.7258682,33.6901847" id="Path-419"></path>
                    <path d="M86.3276116,31.4963085 C86.3276116,31.4963085 91.9483837,30.133065 90.8522737,33.966326" id="Path-420"></path>
                </g>
                <path d="M0.521861883,200.811579 L120.468113,200.811579 M129.463673,200.811579 L219.46278,200.811579 M586.810397,200.811579 L639.615546,200.811579" id="Path-6"></path>
            </g>
        </g>
    </g>
</svg>