<?xml version="1.0" encoding="UTF-8"?>
<svg width="510px" height="500px" viewBox="0 0 510 500" version="1.1" xmlns="http://www.w3.org/2000/svg" xmlns:xlink="http://www.w3.org/1999/xlink">
    <!-- Generator: Sketch 47 (45396) - http://www.bohemiancoding.com/sketch -->
    <title>dom-4-510</title>
    <desc>Created with Sketch.</desc>
    <defs></defs>
    <g id="Page-1" stroke="none" stroke-width="1" fill="none" fill-rule="evenodd">
        <g id="dom-4-510" stroke="#FFFFFF">
            <g id="home4" transform="translate(-56.000000, 180.000000)">
                <g id="дом-4" fill-rule="evenodd" transform="translate(130.980936, 0.000000)">
                    <path d="M356.542333,172.119097 L386.984275,170.488983 L386.712575,46.5031695 L205.774474,13.4174663 L191.564909,17.2869294 M290.02779,59.4237219 L290.02779,155.981457 L204.615801,158.811814 M196.328665,159.08643 L185.52547,159.444423 M177.252229,159.718579 L165.999203,160.091478 L165.999203,41.7166876 L177.178707,38.7064658 M185.25049,36.5330369 L205.855005,30.9850125 L334.756852,51.0262817 L335.217558,156.970312 L352.493489,158.240542 L352.405562,170.776645 L304.696689,174.07143 L293.56965,171.521416 M335.215211,158.736501 L117.174776,168.563124 L3.45820847,155.981457 L3.45820847,146.301188 M3.45820847,49.0616678 L3.45820847,46.829451 L1.17076031,47.4175606 M0.56573203,148.544781 L0.435796084,170.262875 L117.174776,187.877253 L293.56965,176.266759 L293.56965,171.086714 M352.493489,158.240542 L356.43491,158.38508 L356.43491,174.639163 L304.877832,178.450691 L293.56965,176.266759 M335.221606,157.084664 L335.215211,163.786823 L347.109809,164.787553 L347.109809,169.468353 L352.405562,170.488983 M166.137392,41.8593304 L177.239112,43.4354519 M185.26602,44.5750394 L196.288149,46.1398614 M204.326763,47.2811109 L290.018502,59.4468467 L334.855572,51.1502949 M3.56360878,155.867234 L11.034241,155.67548 M29.4266368,155.20339 L72.9001173,154.087528 L72.9001173,54.978888 M72.8349192,154.087926 L109.762302,156.466234 M118.081736,157.002048 L133.707063,158.008397 M142.09979,158.548931 L155.710314,159.425517 M164.029465,159.961312 L166.025797,160.089885 M0.728814929,164.713214 L116.875039,180.132631 L299.601063,169.955098 M356.604448,166.64654 L387.134939,165.181706 M386.753804,59.2886242 L418.776344,64.7005814 L418.776344,163.548829 L387.028449,165.481218 M386.942347,82.3480153 L409.272264,84.9432398 L409.272264,147.087321 L386.942347,147.670742 M397.874919,85.9929523 L406.747208,86.9351506 L406.747208,145.062209 L397.874919,145.257733 L397.874919,85.9929523 Z M386.994211,145.501555 L386.8035,84.7554976 L396.481015,85.806148 L396.650726,145.30575 L386.994211,145.501555 Z M207.381979,63.0317864 L265.092388,69.1701095 L265.092388,150.589159 L207.381979,151.688534 L207.381979,63.0317864 Z M208.953283,66.4672269 L225.706183,68.2494799 L225.706183,148.436373 L208.953283,148.761428 L208.953283,66.4672269 Z M227.525634,68.4516908 L244.616692,70.221952 L244.616692,148.083976 L227.525634,148.401446 L227.525634,68.4516908 Z M246.586293,70.4820551 L262.155984,72.1431088 L262.155984,147.734124 L246.586293,148.044954 L246.586293,70.4820551 Z M296.232974,156.127315 L295.729055,77.9829549 L328.80447,74.7424126 L328.80447,158.048576 M298.26816,80.1700822 L326.454614,77.3952884 L326.390905,86.4350579 L298.320032,88.5004471 L298.26816,80.1700822 Z M298.739412,153.211951 L307.328726,153.414629 L307.328726,91.8812853 L298.3461,92.3479199 L298.739412,153.211951 Z M310.075873,153.503562 L310.075873,91.7383713 L326.342739,90.8952407 L325.826148,154.216662 L310.075873,153.503562 Z M290.014885,155.960883 L335.284423,158.523386 L290.014885,155.960883 Z M79.3207876,154.472984 L79.3207876,76.781872 L109.793547,70.4275009 M117.928632,68.7311219 L133.723968,65.4373791 M141.772455,63.7590582 L153.420798,61.3300725 L153.420798,152.136648 L142.040668,151.62571 M133.708779,151.25163 L118.101346,150.550897 M109.791611,150.177812 L92.7394293,149.412214 L92.7394293,155.34912 M82.5678497,94.3343446 L90.2410925,93.1032253 L90.2410925,152.422568 L82.5678497,151.891859 L82.5678497,94.3343446 Z M82.5678497,78.5311854 L90.6414087,77.0139649 L90.6414087,90.8856495 L82.5678497,92.092941 L82.5678497,78.5311854 Z M152.115526,65.0284592 L141.890506,67.0175559 M133.741331,68.602834 L128.719406,69.5797606 L128.719406,146.570526 L133.740921,146.722435 M141.991407,146.972025 L151.86589,147.270744 L152.115526,65.0284592 M126.68274,69.9969607 L117.934804,71.6906786 M109.780052,73.2695481 L103.305195,74.5231675 L103.305195,145.750903 L109.791813,145.954416 M118.114674,146.21554 L126.407973,146.475737 L126.68274,69.9969607 M102.256618,74.7420055 L92.9217687,76.5272357 L92.7114899,145.430497 L102.171137,145.713793 L102.256618,74.7420055 Z M3.46885581,46.8521054 L117.91842,0.163207434 L117.91842,8.85260081 L5.4909884,52.118059 M118.097306,0.0427297914 L124.494182,0.811079674 L124.494182,9.44441971 L117.757317,8.92706146 M143.057889,4.31560659 L148.745379,5.07241998 L148.745379,13.2805369 L142.980828,12.9578258 M164.973896,8.76227542 L170.456766,9.60188585 L170.456766,17.113688 L164.973896,16.8643193 M185.989493,13.1340385 L191.472364,13.6702578 L191.472364,20.5318698 L185.989493,20.2825011 M11.0192171,51.0689371 L29.4029094,44.1572704 L29.4029094,156.998087 L11.0192171,156.068875 L11.0192171,136.565051 M11.0192171,113.601161 L11.0192171,110.511846 M11.0192171,56.4382243 L11.0192171,51.0689371 L11.0192171,51.0689371 M299.300717,166.041275 L335.221606,163.786823 M299.601063,166.410341 L306.228686,167.777952 L347.109809,165.042731 M299.536372,170.776645 L306.228686,172.119097 L347.205064,169.468353 M304.877832,178.450691 L304.877832,174.07143 L306.228686,172.422922 L306.372357,167.777952 M293.361503,171.315754 L299.536372,170.776645 L299.536372,165.896082" id="Combined-Shape"></path>
                    <path d="M206.029998,31.0104169 L206.029998,13.3703019 L206.029998,31.0104169 Z M109.804846,12.9513032 L117.780173,10.3249479 L118.073433,164.112432 L109.804846,164.112432 L109.804846,12.9513032 Z M133.752853,17.7427117 L141.72818,15.2080648 L142.02144,163.625521 L133.752853,163.625521 L133.752853,17.7427117 Z M155.74592,21.0858398 L163.721248,18.6262466 L164.014507,162.648897 L155.74592,162.648897 L155.74592,21.0858398 Z M177.250253,24.4378076 L185.22558,22.0444284 L185.51884,162.189883 L177.250253,162.189883 L177.250253,24.4378076 Z M196.310912,34.9888608 L204.286239,32.7872856 L204.579498,161.701571 L196.310912,161.701571 L196.310912,34.9888608 Z M124.337583,0.822548851 L204.391668,15.335676 L124.337583,0.822548851 Z M124.540137,3.77674987 L141.222283,6.87144823 L124.540137,3.77674987 Z M148.727963,8.18061989 L163.755036,10.897878 L148.727963,8.18061989 Z M170.373871,12.0943586 L184.840954,14.7172574 L170.373871,12.0943586 Z M191.420834,15.915732 L203.995797,18.1867453 L191.420834,15.915732 Z M124.479596,8.70735111 L140.762485,11.5942834 L124.479596,8.70735111 Z M148.735195,13.0564513 L162.906071,15.6169717 L148.735195,13.0564513 Z M170.373871,16.9774755 L183.673478,19.246044 L170.373871,16.9774755 Z M191.420834,20.7988489 L203.995797,23.0698622 L191.420834,20.7988489 Z" id="Combined-Shape"></path>
                    <g id="Group-2" transform="translate(8.308492, 3.906494)">
                        <path d="M0.209760835,48.8824666 L2.68773458,47.9902819" id="Path-2"></path>
                        <path d="M21.1391403,41.0875851 L101.458122,11.081326" id="Path-8"></path>
                        <path d="M109.536881,8.06915649 L116.296335,5.54902984" id="Path-9"></path>
                        <path d="M21.0788572,48.5653261 L101.549485,20.5816294" id="Path-13"></path>
                        <polyline id="Path-14" points="109.441509 17.817104 134.55366 9.11381173 134.55366 0.410519492 109.441509 9.68504121"></polyline>
                        <path d="M101.52416,12.5818078 L21.0834836,42.1394711" id="Path-15"></path>
                        <polyline id="Path-16" points="21.2497936 48.5385574 23.3257072 48.7176691 101.514535 22.4203395"></polyline>
                        <path d="M109.472956,19.8724298 L125.449233,14.5125452" id="Path-17"></path>
                        <path d="M133.353435,11.8601724 L140.592312,9.40355867" id="Path-18"></path>
                        <polyline id="Path-19" points="101.513601 23.5478903 32.0082492 46.9382921 32.0082492 52.6443257 35.1807683 52.6443257 101.513601 32.0693074"></polyline>
                        <path d="M32.1897275,52.6069079 L101.595396,30.5563203" id="Path-20"></path>
                        <path d="M109.48195,20.8507989 L125.45627,15.460142" id="Path-22"></path>
                        <polyline id="Path-23" points="133.538609 12.7190373 156.560769 4.98368127 156.560769 13.0151283 133.468669 20.3872731"></polyline>
                        <path d="M109.562606,28.0190372 L125.47036,22.9381609" id="Path-24"></path>
                        <path d="M109.477658,29.6076775 L125.540563,24.6193339" id="Path-25"></path>
                        <path d="M133.277284,22.2199984 L147.381525,17.8499401" id="Path-26"></path>
                        <path d="M155.393406,15.3629442 L162.221447,13.2304465" id="Path-27"></path>
                        <polyline id="Path-28" points="49.5349383 48.3083766 49.5349383 54.0818331 53.3624987 54.0818331 101.435262 40.3121269"></polyline>
                        <path d="M49.8613317,54.0734362 L101.508597,38.8474085" id="Path-29"></path>
                        <path d="M109.482095,36.52048 L125.528625,31.7775535" id="Path-30"></path>
                        <path d="M109.479288,37.9797801 L125.559236,33.2919273" id="Path-31"></path>
                        <path d="M133.413093,29.4568985 L147.465267,25.3141647" id="Path-32"></path>
                        <path d="M133.327499,31.078956 L147.526972,26.9727287" id="Path-32"></path>
                        <polyline id="Path-33" points="155.278284 23.0026471 177.588421 16.4168355 177.588421 9.267737 162.37937 13.0188128"></polyline>
                        <path d="M155.367605,24.6935313 L168.912071,20.7895536" id="Path-34"></path>
                        <path d="M176.865484,18.5001802 L183.238965,16.6357565" id="Path-35"></path>
                    </g>
                </g>
                <path d="M71.6503643,166.312156 C72.045493,162.387259 72.1924306,159.680762 72.0911772,158.192664 C71.8858084,155.174406 70.7181865,154.047761 70.7181865,151.418306 C70.7181865,146.834538 71.2721022,144.656442 70.2187333,141.28273 C69.5164874,139.033589 67.9084639,137.108621 65.3946628,135.507828 C62.9797708,134.504988 61.2875615,133.664599 60.3180348,132.986662 C58.8637448,131.969756 55.1582311,128.480323 53.7802535,127.835232 C52.402276,127.190142 52.0128758,126.54795 50.9853379,126.714961 C50.3419834,126.819529 46.6014242,128.913099 43.3398625,130.860268 C41.3921989,132.023032 39.354716,133.474548 38.9716148,133.474548 M82.2834203,170.375448 C82.1669232,164.580379 81.9892572,161.087743 81.7504223,159.897538 C81.3921699,158.112232 80.7273433,158.188657 80.2643331,157.217269 C79.9556597,156.569677 79.9556597,151.238271 80.2643331,141.223049 C82.3687187,135.660092 84.4560888,132.724045 86.5264436,132.414908 C89.6319756,131.951202 95.0164903,132.177497 96.2634594,132.414908 C96.598835,132.47876 98.291324,133.866857 100.239103,135.495818 C102.319544,137.235726 104.607826,138.966968 105.634336,139.735327 M87.6126169,122.785959 C86.1156205,124.698824 84.7578684,125.942392 83.5393606,126.516665 C81.7115988,127.378074 78.1183523,128.967764 76.9481213,132.459293 C75.7778903,135.950822 76.9075688,136.935645 75.4706426,136.181317 C74.0337165,135.42699 70.0330824,133.151811 68.6867788,130.876219 C67.3404752,128.600626 66.2120381,128.460676 65.317399,125.632103 C64.4227599,122.80353 63.70709,117.073205 64.5411072,113.36958 M92.7309292,121.356479 C91.2427606,125.195162 89.5956232,127.328806 87.7895171,127.757409 C85.9834109,128.186012 87.0911579,128.400313 91.1127579,128.400313 C94.3783425,128.173471 96.173207,128.252231 96.4973516,128.636596 C96.8214962,129.020961 97.4599232,129.542106 98.4126324,130.200032 M62.729837,111.700159 C62.3586418,114.793632 62.0087242,117.179212 61.6800842,118.856898 C61.1871241,121.373426 63.9397079,127.635673 64.0024678,128.328382 C64.0652276,129.02109 57.1959715,125.609534 55.1659309,122.085965 C53.8125705,119.736919 52.8740332,117.115435 52.350319,114.221511 M46.6005489,116.928836 C49.8519038,121.222469 51.1730796,123.681026 50.5640764,124.304508 C49.6505715,125.239732 44.5078494,125.750755 38.967446,132.341804 M82.8163738,86.5175109 C80.7566414,89.6628542 79.9507327,91.6442232 80.3986477,92.4616178 C81.0705203,93.6877098 83.3067551,91.9546083 83.6318643,92.1482226 C83.9569735,92.3418369 82.5327216,93.1717958 83.0822929,94.0598259 C83.6318643,94.947856 86.5404811,93.6784283 85.907758,94.3129114 C85.2750349,94.9473944 84.0608657,97.9133412 85.6211925,99.1050739 C86.6614104,99.8995624 87.648555,99.3735445 88.5826261,97.5270204 C89.1296359,98.5567752 89.6340265,99.082793 90.0957978,99.1050739 C90.7884547,99.1384952 91.0330301,98.5197541 91.5434082,97.5270204 C92.0537863,96.5342867 90.8419439,100.329608 92.363164,100.033525 C93.8843841,99.7374415 96.3065232,95.7941618 95.8465828,96.6605911 C95.3866425,97.5270204 93.2933761,105.020336 95.2145033,106.34975 C96.4952547,107.236026 98.0035181,106.703299 99.7392933,104.75157 C100.320757,105.817023 100.880489,106.34975 101.418487,106.34975 C102.225484,106.34975 103.554964,104.095164 103.539044,104.75157 C103.523125,105.407975 103.487858,106.97968 104.95246,106.34975 C106.417062,105.719819 105.647142,107.960159 107.106539,108.928129 C108.565936,109.896098 109.695112,109.419712 110.020752,108.261224 C110.346392,107.102737 109.079554,105.332546 109.553686,105.145732 C110.027819,104.958918 110.584126,107.367289 112.133099,107.428933 C113.682072,107.490577 113.872781,104.75157 113.916635,104.75157 C113.960489,104.75157 114.608338,108.635928 116.374118,108.583381 C118.139898,108.530834 118.527829,106.870818 118.701703,103.360487 C118.875578,99.8501551 119.694571,103.469632 121.228722,103.360487 C122.762874,103.251341 122.246288,100.401775 122.419303,100.735595 C122.592317,101.069416 124.700394,104.528891 126.395809,103.623221 C127.526086,103.019441 127.635991,101.513392 126.725524,99.1050739 C127.914509,99.3616558 128.655373,99.3616558 128.948115,99.1050739 C130.064722,98.1263924 129.125756,96.4083509 128.404964,95.8102044 C127.696121,95.2219737 132.623685,99.2216791 134.374873,97.7282658 C136.12606,96.2348526 133.527798,94.1891976 132.44098,93.0550941 C131.354162,91.9209907 135.01827,94.003694 135.978328,92.6870753 C136.938387,91.3704567 133.436195,89.1315634 134.121618,89.3854584 C134.80704,89.6393533 137.670257,91.7293216 138.657595,88.8305235 C139.644933,85.9317254 135.163726,84.5270028 135.462848,84.5907965 C135.761971,84.6545902 138.452308,84.8584535 138.515034,83.4586957 C138.57776,82.0589378 135.556736,80.7596356 136.421687,81.0127353 C137.286637,81.265835 141.65821,81.3609265 142.25806,79.1461472 C142.85791,76.9313679 138.52911,77.2031369 139.405502,76.8756857 C140.281894,76.5482344 143.963615,74.8542311 142.868198,73.5932655 C141.772781,72.3322999 139.405502,74.0492194 140.695401,73.1585982 C141.9853,72.267977 142.876276,71.1711802 142.25806,70.537597 C141.639844,69.9040138 140.200862,69.5812001 138.311274,70.7152084 C136.421687,71.8492167 141.842945,68.8905907 141.542981,66.9608956 C141.243017,65.0312004 137.464473,66.3837946 138.311274,65.8722722 C139.158075,65.3607498 141.47238,62.9497573 139.901164,61.8992483 C138.329948,60.8487394 134.374873,63.8246229 134.121618,64.1115468 C133.868363,64.3984706 137.066877,61.0374052 134.753928,60.719743 C132.44098,60.4020809 131.178476,62.5353167 131.93478,61.5094421 C132.691084,60.4835676 134.753928,58.3687658 133.922413,57.450055 C133.36807,56.8375812 132.397147,56.8375812 131.009644,57.450055 M22.313115,109.720423 C20.7486328,110.775914 20.1314503,111.815567 20.4615676,112.83938 C20.9567434,114.375099 22.4776427,113.795193 23.2284236,113.795193 C23.9792046,113.795193 21.1636485,115.232955 21.8490625,116.470321 C22.5344764,117.707686 23.9498408,117.405383 24.7493616,117.349522 C25.5488824,117.29366 23.3021358,118.222201 23.5512878,118.979345 C23.8004398,119.73649 27.5451003,119.244189 26.5582953,119.512914 C25.5714903,119.78164 23.2655634,120.483037 23.8004398,121.577583 C24.3353163,122.67213 27.2743334,121.469048 27.0540613,121.725884 C26.6044717,122.250102 25.6113837,123.585878 26.3572224,124.218797 C27.4684774,125.161808 28.2982645,123.79145 28.570189,123.516158 C28.8421135,123.240866 27.7840903,125.800132 29.2590989,125.733436 C30.242438,125.688972 30.8615632,125.184092 31.1164747,124.218797 M36.7950602,123.314673 C35.3964398,123.574258 34.6799366,123.973476 34.6455508,124.512327 C34.593972,125.320603 37.7799557,126.579969 37.0147122,126.244242 C36.2494687,125.908515 34.9323559,125.847463 34.9323559,126.828385 C34.9323559,127.809308 36.4077817,128.430982 35.7665689,128.156979 C35.1253561,127.882976 32.3581786,127.476423 32.6317673,128.783329 C32.9053559,130.090234 36.0088887,130.716813 34.9323559,130.439415 C33.855823,130.162017 32.6317673,131.022413 33.064587,131.899156 C33.3531336,132.483652 34.0184263,132.740341 35.0604653,132.669223 C34.2704142,133.63108 34.1951717,134.302356 34.8347379,134.683052 C35.9042962,135.319698 36.8989194,133.944963 36.8989194,134.267506 C36.8989194,134.590048 37.6056846,135.392977 38.583431,134.683052 C39.3671713,134.113993 38.8997015,132.621407 38.8997015,131.672662 M37.4700759,134.991524 C36.939886,135.816544 36.9102971,136.40344 37.3813091,136.752211 C38.087827,137.275369 39.4232048,136.131743 39.040133,136.752211 C38.6570612,137.37268 37.5082591,138.41853 38.374485,139.080349 C39.240711,139.742169 40.8236336,138.429836 41.0745493,138.024484 C41.325465,137.619133 40.7774934,139.19831 41.6115297,139.340947 C42.167554,139.436039 42.7512037,138.715832 43.362479,137.180329 C42.9138568,139.301868 43.1672919,140.309619 44.1227841,140.203584 C45.0782763,140.097548 45.6114974,139.45569 45.7224474,138.278009 M25.1289127,122.04149 C23.4821692,122.83427 22.695501,123.554589 22.7689082,124.202447 C22.879019,125.174233 25.3941821,125.226987 25.0022182,125.279331 C24.6102544,125.331675 22.3997853,126.271318 22.1848211,127.384975 C22.0415116,128.127414 22.5334655,128.665705 23.6606828,128.999851 C21.7426289,130.44814 21.0497572,131.569827 21.5820675,132.364911 C22.3805329,133.557537 24.0179163,132.866094 24.8173532,132.151074 C25.6167901,131.436054 20.0659055,135.75164 21.5820675,136.762978 C23.0982294,137.774316 25.0987821,136.202737 24.4593409,136.762978 C23.8198997,137.323219 22.145911,138.983076 23.1282886,140.007374 C23.783207,140.690239 24.7769419,140.417576 26.1094933,139.189383 C25.7820023,140.223452 25.9549015,140.755422 26.6281909,140.785294 C27.638125,140.830101 28.5503834,140.376126 29.6286023,138.90261 C30.7068212,137.429094 28.4179162,141.568852 30.0897363,142.155093 C31.7615564,142.741335 33.2067554,140.653253 33.3977393,140.204818 C33.5887232,139.756384 32.4450479,142.874012 34.2698159,143.248631 C36.0945839,143.623251 36.7519175,141.365769 37.1602758,140.785294 C37.5686341,140.204818 36.8022802,141.912202 37.4968719,142.326768 C38.1914637,142.741335 39.5949851,141.111772 39.1096548,141.537275 C38.6243245,141.962778 36.7959269,146.521152 39.3767142,146.325297 C41.9575016,146.129441 43.2689829,143.634136 43.3956601,142.741335 C43.5223373,141.848533 43.6873869,144.198111 44.5839074,143.997562 C45.480428,143.797013 46.2738192,142.882022 46.4650723,142.155093 C46.6563254,141.428165 46.7848013,143.480869 47.7501173,143.506234 C48.7154334,143.531598 49.4109916,141.48535 49.7871224,141.071766 C50.023186,140.812197 49.7834273,142.133194 50.1639727,142.493385 C50.5445181,142.853577 50.9539851,142.794118 51.2740553,142.326768 C52.1335587,141.071766 50.1879612,146.553353 53.0713323,144.769498 C55.9547035,142.985644 54.8863768,140.321251 55.2289487,142.155093 C55.5715207,143.988936 56.6904424,144.108212 57.302861,143.157231 C57.9152796,142.206251 57.3815396,140.084758 57.6428595,140.785294 C57.9041793,141.48583 59.1860782,142.406122 59.747859,141.705586 C60.1223795,141.238562 60.2866622,140.602786 60.2407072,139.798258 C61.1763175,140.256904 61.7841232,140.350468 62.0641241,140.07895 C62.4841256,139.671672 61.5724214,137.154753 61.9369844,137.907124 C62.3015475,138.659494 64.6499316,139.057168 65.1480581,137.744922 C65.4801424,136.870092 65.4086206,136.013863 64.9334925,135.176237 M114.208126,68.0805712 C111.449359,65.4121389 110.209359,63.5804601 110.488126,62.5855346 C110.906277,61.0931464 112.687577,60.4602548 113.621518,61.9706864 C114.555459,63.4811181 111.864716,59.374275 112.128756,58.5902139 C112.304783,58.0675064 113.196025,57.9779726 114.802483,58.3216122 C114.338042,56.1892556 114.308322,54.8405009 114.713323,54.275348 C115.118324,53.7101952 116.114592,53.7101952 117.702126,54.275348 C116.919064,50.259591 117.180969,48.3628455 118.487843,48.5851114 C120.448152,48.9185104 121.374822,51.8414098 121.466569,52.4284371 C121.558315,53.0154643 120.405988,47.1417927 122.283571,46.5482516 C123.535293,46.1525576 124.498808,46.3528716 125.174117,47.1491936 C126.287366,45.0377028 127.333009,44.2368764 128.311045,44.7467144 C129.7781,45.5114714 129.079526,47.3342176 129.130011,48.2312481 C129.180496,49.1282786 130.86298,46.7261335 131.670003,47.2715637 C132.477026,47.816994 132.716159,48.8829807 132.438443,50.4672666 C132.160726,52.0515525 134.098491,48.1298184 135.361696,49.1282786 C136.203834,49.7939187 136.551461,51.3039225 136.404578,53.6582899 C137.631539,52.3552011 138.556993,51.9452502 139.180939,52.4284371 C139.804885,52.911624 140.043445,54.6097594 139.896619,57.5228434 C140.549118,56.381793 141.245294,56.0245501 141.985145,56.4511146 C143.094921,57.0909612 141.621829,61.4027726 142.431726,59.1023854 C143.241623,56.8019982 145.843568,53.7837793 147.564066,55.2616296 C149.284565,56.7394799 147.184797,60.848904 145.600846,62.5855346 C144.016895,64.3221653 147.786532,60.4705293 148.979599,61.1995154 C149.774977,61.6855061 149.670624,62.827026 148.666541,64.6240751 C149.946652,63.9651357 150.816692,63.9045523 151.27666,64.4423248 C151.966612,65.2489836 152.113826,67.4845377 149.290707,69.5949277 C146.467588,71.7053176 151.217461,68.6205798 151.753136,68.9750312 C152.28881,69.3294826 152.248636,70.2946999 152.248636,70.6286674 C152.248636,70.9626348 155.863383,67.321395 157.193583,68.9750312 C158.523783,70.6286674 156.632043,72.3793733 155.624729,72.8504065 C154.617414,73.3214397 158.629873,71.6153368 158.853551,73.3214397 C159.07723,75.0275425 156.474211,77.4600778 154.361424,78.7177849 C152.248636,79.9754921 158.296289,76.5298761 159.391079,77.2850609 C160.485869,78.0402457 159.789351,79.9109378 158.024885,80.423468 C156.260419,80.9359983 160.28987,80.3545904 160.281277,81.3847637 C160.272684,82.414937 159.418499,83.7175337 158.024885,84.0392518 C156.631271,84.36097 160.550268,84.7643958 159.993723,86.655125 C159.622692,87.9156111 157.322057,88.4572541 153.091817,88.2800542 C155.765308,88.6302492 156.660455,89.3614853 155.777259,90.4737627 C154.452464,92.1421787 149.749533,91.8105066 151.808555,91.8286358 C153.867577,91.846765 156.26628,93.3477321 156.935935,95.7622738 C157.60559,98.1768155 149.834226,95.9916144 151.493358,96.7594162 C153.15249,97.5272181 153.934997,98.8004547 153.091817,99.8691504 C152.248636,100.937846 148.154959,99.3243592 149.432913,99.8691504 C150.710868,100.413942 152.904954,102.651057 151.753136,104.317747 C150.985256,105.428873 148.871692,104.986091 145.412444,102.989401 C146.321676,104.379992 146.384477,105.320196 145.600846,105.810015 C144.4254,106.544743 142.02324,104.794446 143.241623,105.739303 C144.460007,106.68416 146.462001,109.792318 144.57281,110.878067 C142.683619,111.963816 140.046491,108.554239 139.657821,108.072528 C139.269151,107.590816 140.203158,109.601388 139.180939,110.144263 C138.158721,110.687137 136.706116,110.144263 136.404578,109.601388 C136.203552,109.239471 135.855925,109.42043 135.361696,110.144263 M104.008015,121.868659 C102.530798,121.776708 101.964138,122.085867 102.308036,122.796137 C102.823883,123.861542 99.9446512,122.829278 99.8285551,123.861542 C99.712459,124.893805 103.327642,125.432333 101.918285,125.433818 C100.508928,125.435303 99.8285551,125.797312 99.8285551,126.347161 C99.8285551,126.713728 100.198621,127.146732 100.938752,127.646175 C98.3394159,129.431282 97.3706444,130.538224 98.0324379,130.967002 C99.0251282,131.610169 99.8551169,130.568518 100.300665,130.967002 C100.746213,131.365487 99.3564455,132.115261 99.8285551,132.573395 C100.300665,133.031529 101.918285,133.772828 101.918285,133.600297 C101.918285,133.427766 102.19194,133.875177 101.918285,134.44029 C101.762735,134.76151 103.115841,136.13464 103.876245,135.489034 C104.636649,134.843428 103.564229,136.705935 104.386547,137.233201 C105.208864,137.760466 105.916841,135.945357 106.019537,136.767642 C106.122233,137.589927 105.123612,138.414634 105.467266,139.415218 C105.810921,140.415801 106.921423,140.446928 107.91138,139.931073 C108.901338,139.415218 107.018221,141.458998 107.91138,141.573531 C108.80454,141.688065 110.468833,140.664848 111.584993,139.931073 C112.701152,139.197297 109.105804,141.688263 109.678968,142.654243 C110.061077,143.29823 110.696418,143.415459 111.584993,143.005931 C110.474763,145.584639 110.474763,146.830861 111.584993,146.744595 C113.250338,146.615197 115.399001,143.12666 114.464225,145.082885 C113.529449,147.03911 112.580346,150.488621 115.368848,150.801029 C118.157349,151.113437 120.222552,144.045017 120.453906,142.496622 C120.685259,140.948227 119.803751,147.504487 122.157435,147.842656 C124.511119,148.180825 124.515654,145.817446 124.612634,145.082885 C124.709613,144.348324 124.567372,148.312986 126.252613,148.740645 C127.937854,149.168304 128.427793,147.446602 128.543072,145.590975 C128.658351,143.735348 128.879506,148.892866 130.767441,148.740645 C132.026065,148.639165 132.442386,147.589275 132.016406,145.590975 C132.691155,146.394874 133.42148,146.680759 134.207378,146.44863 C135.386226,146.100435 135.348551,143.640053 134.569412,142.776813 C133.790274,141.913573 136.702805,145.057654 137.240197,143.548802 C137.777589,142.039951 136.542434,138.38949 134.087025,137.447623 M118.175686,106.433626 C118.040439,105.264733 118.191976,104.60402 118.630297,104.451487 C119.287779,104.222689 120.370012,104.04458 120.709533,105.889679 C121.049055,107.734778 121.251439,108.710826 121.088977,107.700108 C120.926514,106.689389 121.993352,104.081171 123.141992,105.044885 C124.290632,106.008598 124.260406,107.142684 124.709679,108.542858 C125.158952,109.943031 125.048649,106.716758 125.994458,107.108301 C126.940268,107.499844 127.633146,110.966958 127.347583,108.973225 C127.062019,106.979492 127.605832,103.698103 129.33425,104.092152 C131.062668,104.4862 131.590689,109.194268 131.212944,110.578221 C130.835198,111.962175 132.45563,108.313045 133.42564,108.313045 C134.395649,108.313045 135.797821,109.311351 135.277516,110.578221 C134.75721,111.845092 136.170038,110.354348 136.633709,111.180804 C137.09738,112.007259 136.670362,113.33224 136.633709,113.58253 C136.597056,113.832821 137.550207,112.217374 138.052913,112.766691 C138.555618,113.316007 138.843753,114.115287 138.685568,114.756351 C138.527383,115.397416 140.929292,112.681864 141.920563,113.442663 C142.58141,113.949862 142.520408,115.24096 141.737558,117.315958 C143.35125,116.190644 144.153766,116.257596 144.145106,117.516814 C144.132116,119.405642 141.122888,121.618852 140.666748,122.117607 C140.210607,122.616362 144.161604,119.572309 144.900169,120.803968 C145.638735,122.035627 144.203279,123.2365 143.913818,123.389001 C143.624358,123.541501 145.70975,122.806738 145.824687,124.322543 C145.939623,125.838347 139.600766,128.575515 141.436407,128.098992 C143.272048,127.622468 148.15324,126.858323 148.105827,129.407136 C148.058413,131.955948 145.36805,131.930004 143.129871,132.255656 C140.891693,132.581308 146.48874,133.911431 145.642139,135.670772 C145.077738,136.843667 143.090916,136.954861 139.681674,136.004355 C140.627346,137.331361 140.764174,138.134531 140.092158,138.413862 C139.420141,138.693194 138.044697,138.856246 135.965823,138.903019 M81.537765,138.347008 C82.0952324,139.722119 82.7701225,139.910407 83.5624353,138.91187 C84.3547481,137.913333 84.7448677,137.772011 84.7327939,138.487906 C84.913796,139.489517 85.3066294,139.899846 85.911294,139.718893 C86.8182909,139.447464 86.7680488,139.33159 87.4875013,138.347008 C88.2069537,137.362425 86.866707,140.662846 87.8934975,140.958009 C88.920288,141.253173 90.9105484,139.870351 91.6765472,138.91187 C92.4425461,137.953388 90.2419101,141.736198 91.8767723,141.649238 C93.5116345,141.562278 94.4803094,139.549554 95.2340744,139.447464 C95.9878394,139.345375 94.5496694,141.198533 95.5070278,141.157559 C96.1452667,141.130242 96.7178044,141.009467 97.2246408,140.795233 C96.0684139,144.29166 96.2417475,145.836723 97.7446416,145.430422 C99.9989828,144.82097 100.928187,142.437536 101.13744,141.697773 C101.346693,140.958009 101.627633,143.1985 102.536626,142.951004 C103.445618,142.703508 103.750578,141.966399 103.977465,141.277197 C104.204352,140.587995 103.662554,143.082367 104.903199,142.81661 C105.730296,142.639439 106.438064,141.837127 107.026503,140.409675 M60.3179059,100.783889 C58.2737994,104.482775 57.7079512,106.57537 58.6203611,107.061676 C59.5327711,107.547982 60.4271047,107.182476 61.303362,105.965156 C60.9030158,107.211343 60.9030158,107.88662 61.303362,107.990987 C61.7037081,108.095354 62.3427507,108.095354 63.2204896,107.990987 C62.4162413,111.567149 62.576039,113.380396 63.6998827,113.430729 C64.8237264,113.481062 65.6297527,112.67714 66.1179617,111.018963 C66.5587573,112.206378 67.1099371,112.765075 67.7715009,112.695052 C68.7638468,112.590019 69.4550277,111.754422 69.5472777,111.018963 C69.6395277,110.283503 69.3163043,113.570827 70.4649276,113.83978 C71.613551,114.108733 72.9008678,113.196317 73.8500137,110.768993 C74.7991596,108.341669 71.6134908,119.15257 73.8500137,119.763733 C76.0865366,120.374896 76.6791458,119.195564 77.467153,117.859665 C78.2551603,116.523766 77.5445506,119.923893 78.9155557,120.069581 C80.2865607,120.21527 80.8557671,118.440939 81.1111625,117.859665 C81.3665579,117.278392 81.2312639,119.835842 82.1274439,120.069581 C83.0236239,120.303321 84.0776885,116.337596 83.7699381,118.6815 C83.4621876,121.025404 84.5427488,124.261744 86.6869681,123.522131 C88.8311874,122.782519 87.830014,119.108163 87.4715103,117.859665 C87.1130065,116.611168 89.0771052,120.663141 90.1469623,120.663141 C91.2168194,120.663141 91.1497127,119.013944 91.3322134,118.6815 C91.514714,118.349057 92.6817148,123.42598 95.1442437,122.372095 C97.6067727,121.318211 96.9364002,116.746366 96.4370714,115.488314 C95.9377427,114.230261 98.0205954,117.615439 99.3509802,117.099973 C100.681365,116.584507 99.8976353,115.016418 99.6363656,114.41775 C99.375096,113.819082 103.282534,120.061818 105.366165,117.278392 C107.449795,114.494966 102.76615,111.553546 104.028177,112.288504 C105.290204,113.023462 107.405205,112.62637 106.416821,111.018963 C105.428437,109.411555 108.669594,112.459686 109.686507,111.870171 C110.364449,111.477161 110.301757,110.614821 109.498429,109.283151 M28.1962158,114.818385 C27.9148663,116.345495 28.166977,117.011169 28.952548,116.815406 C30.1309044,116.521761 30.6855874,115.045857 30.7912413,114.446553 C30.8968952,113.84725 30.6276355,116.521761 31.5016456,116.521761 C32.3756557,116.521761 32.5142279,114.453053 32.6313145,115.445458 C32.7484011,116.437863 33.8096709,120.778921 35.7611144,120.382077 C37.7125578,119.985233 37.7168943,117.100385 37.3865288,116.127478 C37.0561632,115.15457 38.9437703,118.986526 40.360016,118.413613 C41.7762618,117.840701 41.3919157,116.520776 41.1165453,115.80114 C40.841175,115.081504 44.5374848,119.713055 46.1563944,118.131588 C47.7753039,116.550121 46.5606782,113.073651 46.1563944,112.537961 C45.7521105,112.002271 47.9268858,114.451477 48.7484632,113.84725 C49.5700405,113.243024 49.6092665,112.763463 49.3490741,111.317494 C49.0888816,109.871525 51.5597244,115.627632 53.7285862,114.187571 C55.1744941,113.227531 55.1744941,111.788848 53.7285862,109.871525 C55.4557122,109.431419 56.0425907,108.77638 55.4892218,107.906409 M72.2821019,68.6776624 C70.4435475,67.2789229 69.8614045,66.1818081 70.5356727,65.3863179 C71.5470751,64.1930827 74.5239662,64.4644111 75.4018597,64.9253645 C76.2797533,65.3863179 74.113565,62.3203238 74.6963019,61.3068522 C75.2790387,60.2933805 76.3537916,60.3723056 77.4906925,60.8658796 C78.6275935,61.3594536 75.6013187,57.0070044 77.4906925,56.096495 C79.3800664,55.1859856 80.6445136,55.5326817 81.6050602,57.2334151 C82.5656068,58.9341485 80.4613382,53.6015278 82.5656068,52.5395868 C84.6698754,51.4776457 85.2992494,53.1343684 85.1538006,54.1130565 C85.0083517,55.0917446 85.9976958,52.1390004 87.4442542,52.1390004 C88.8908126,52.1390004 89.3650322,53.383883 89.1735186,54.3463648 C88.9820051,55.3088467 90.308231,53.0163541 91.3308887,53.7294208 C92.0126605,54.2047985 92.2662047,54.8166697 92.0915213,55.5650344 M27.6817351,70.7039861 C28.43493,69.5882914 29.0759296,69.2334371 29.6047339,69.6394232 C30.3979403,70.2484024 29.9900255,72.5236772 29.2728642,73.5455081 C28.555703,74.567339 30.8974378,71.3203293 31.9095829,71.5074629 C32.921728,71.6945966 32.8347675,72.6187544 32.3668962,73.5455081 C31.8990248,74.4722618 33.6094324,71.6840476 34.9509674,72.5562024 C36.2925023,73.4283572 33.3831154,75.8438424 33.6509607,75.6864326 C33.9188059,75.5290228 36.9314856,75.6864326 36.5975866,77.1290538 C36.3749873,78.0908013 35.5345941,78.5451012 34.0764071,78.4919536 M56.6380629,86.8826154 C55.3080633,87.6977701 54.8691923,88.3837031 55.3214499,88.9404143 C55.9998362,89.7754811 57.4457089,88.7840142 58.6044366,88.6608683 C59.7631643,88.5377224 57.236955,89.8547846 57.0404605,90.673708 C56.843966,91.4926315 58.0493259,91.936859 58.9911098,91.2611371 C59.9328937,90.5854152 57.0404605,93.4696382 58.6044366,94.2143579 C60.1684126,94.9590775 61.4339556,92.458778 61.9183495,91.2611371 C62.4027434,90.0634962 60.6140542,94.3609865 61.6067725,95.0001553 C62.5994908,95.6393241 63.2978327,94.4321161 63.9615877,92.9005528 C64.6253427,91.3689895 62.6990411,97.0620251 64.2897607,97.4014081 C65.8804803,97.7407912 65.9286722,95.0612197 66.0040148,94.2143579 C66.0793575,93.367496 66.4872381,96.6152178 67.6224984,96.5081656 C68.7577588,96.4011134 68.2764936,94.2885603 68.2312449,93.8280281 C68.1859962,93.367496 68.6680595,94.9845463 69.6499624,94.4940365 C70.6318653,94.0035267 69.2453319,92.3087773 69.6499624,92.9005528 C70.0545928,93.4923283 72.4650198,94.5871425 72.8392456,93.367496 C73.0887295,92.5543984 72.6602434,91.6270381 71.5537874,90.5854152 M43.0007502,173.148658 L56.8909177,173.148658 L56.8909177,172.660347 L43.0007502,172.660347 L43.0007502,173.148658 Z M56.7264557,172.886653 C58.7288933,173.175249 61.4074473,175.136015 60.0349269,173.139726 C59.1199133,171.808867 58.3684719,171.021283 57.7806028,170.776973 C59.0407889,170.63983 60.0719033,170.98569 60.873946,171.814554 C62.0770101,173.057849 63.1575966,174.913447 62.2696064,172.598057 C61.6776128,171.054464 60.1812783,169.870144 57.7806028,169.045096 C59.0727097,168.832496 59.9802912,168.894677 60.5033474,169.231641 C61.2879318,169.737086 63.0408805,171.388209 63.9222952,172.292001 C64.8344967,173.227362 63.2700818,171.102095 59.2290507,165.9162 C62.0875141,167.000341 63.9433862,168.105488 64.7966668,169.231641 C65.6499475,170.357793 64.218841,168.63545 60.5033474,164.064611 C64.4027008,165.175511 66.7026216,167.004154 67.4031098,169.550541 C68.1035981,172.096928 68.1035981,173.293323 67.4031098,173.139726 M66.972653,168.147299 C67.156784,166.453633 67.156784,165.234092 66.972653,164.488674 C66.788522,163.743256 66.1798297,162.498628 65.1465762,160.754789 C68.6279934,162.401137 70.2108879,164.725023 69.8952598,167.726447 C69.6684077,169.883667 70.3496135,169.161355 71.5503993,166.688264 C71.8636752,166.043053 72.3781611,164.908806 73.0938571,163.285522 L73.0938571,168.957093 M70.7191017,173.90736 L74.3125855,166.765728 C73.8843168,169.686376 73.7439141,171.34191 73.8913773,171.732327 C74.0388406,172.122745 74.9633966,171.277962 76.6650453,169.197977 C75.8097134,172.512237 75.5672319,174.182048 75.9376007,174.207412 C76.3079695,174.232775 77.4326144,172.737769 79.3115355,169.722394 C79.9443618,171.558672 80.2223922,172.534092 80.1456269,172.648653 C80.0906795,172.730654 80.6560283,172.165887 81.0582223,170.644435 C81.1646886,170.241685 81.2298506,169.459503 81.2537082,168.297889 L82.7420686,171.350703 C83.3275978,169.258374 83.9292599,167.799193 84.5470548,166.973161 C85.1648497,166.147129 86.6347396,164.83651 88.9567244,163.041303 C88.2897707,164.913793 87.8698123,166.298349 87.6968493,167.194972 C87.5238862,168.091595 87.5238862,168.88406 87.6968493,169.572368 L92.3498352,166.973161 C91.0679341,168.120132 90.2237391,168.95474 89.8172503,169.476986 C88.1589111,171.607577 87.6968493,172.97609 87.6968493,173.059853 C87.6968493,173.145253 89.0008583,172.438278 91.5467456,172.005894 C92.1262915,171.907466 93.1336741,171.907466 94.5688934,172.005894 C93.3769719,172.79675 92.6372858,173.356401 92.3498352,173.684847 C92.0623846,174.013293 91.7124287,174.569894 91.2999677,175.354651 M89.3558487,170.282553 C95.4419836,169.581029 99.2980088,169.405648 100.923924,169.75641 C102.549839,170.107172 105.969312,170.560167 111.182341,171.115394 L114.821712,170.70988 M122.155453,46.6339928 C122.882532,45.8397159 123.328484,44.3575934 122.578221,43.3662866 C121.827959,42.3749798 119.379396,45.0001985 119.771293,44.255777 C120.163191,43.5113554 120.973386,41.4573013 120.298298,40.5887658 C119.623211,39.7202303 116.439138,41.7142841 117.228993,40.8577912 C118.018849,40.0012984 120.235912,34.4950945 118.112439,34.0582126 C115.988966,33.6213307 113.279521,38.6494647 113.703104,37.7530465 C114.126686,36.8566282 113.818561,35.1462373 112.765304,35.2705486 C111.712047,35.3948599 109.730352,38.3005833 110.626991,36.6043867 C111.52363,34.9081901 111.756785,31.4688423 110.211807,31.2835293 C108.66683,31.0982163 107.233578,34.9429199 107.402319,34.3217218 C107.571061,33.7005238 107.689407,28.961655 106.209731,28.4706994 C104.730056,27.9797438 103.588626,32.6321346 103.832771,30.6386605 C104.076916,28.6451864 103.725249,26.7898151 102.612708,26.3658704 C101.871015,26.0832406 101.036601,26.7848502 100.109467,28.4706994 C99.648308,26.0383199 98.9621528,24.7594238 98.0510018,24.634011 C96.6842754,24.4458918 96.1610575,28.2815394 96.1026635,26.9408676 C96.0442695,25.6001959 95.2582657,24.1575569 93.2277868,24.9536232 C91.1973078,25.7496896 92.5639339,33.111102 92.2077324,31.8179202 C91.8515309,30.5247383 89.6987266,28.54138 88.3174021,29.1443622 C86.9360777,29.7473444 88.6521314,34.3504639 88.0540348,33.4537656 C87.4559382,32.5570673 85.8430717,29.5890643 83.4752284,30.027831 C81.1073851,30.4665977 82.2225501,36.8617464 81.4693255,34.3217218 C80.7161009,31.7816973 79.7566033,30.9251856 78.0013011,30.9318456 C76.245999,30.9385055 74.9946034,35.5034333 74.8346086,34.8402554 C74.6746139,34.1770775 75.8194541,27.9810698 74.4820183,26.9408676 C73.1445825,25.9006655 72.1517122,30.9318456 72.1661568,28.7799501 C72.1806015,26.6280547 71.8956202,25.5234932 70.3826416,25.2385582 C68.8696629,24.9536232 68.4238844,28.4706994 68.4692246,27.0644271 C68.5145648,25.6581548 67.7034566,24.54832 65.6058701,24.7509716 C63.5082837,24.9536232 64.7174227,29.450745 64.0450367,28.4706994 C63.3726506,27.4906539 62.3848095,25.2385582 60.6893299,25.8795169 C59.5590101,26.3068226 59.3971551,27.8391606 60.2037649,30.4765309 C58.6686846,28.9817851 57.4438302,28.6839845 56.5292019,29.5831289 C55.1572594,30.9318456 59.1084779,40.4043549 58.6565634,39.0603148 C58.2046489,37.7162747 55.2712117,31.1983009 50.8587669,29.8345002 C47.917137,28.9252997 47.2517461,30.7373158 48.862594,35.2705486 C46.2970079,34.1676686 45.0139068,34.5565906 45.0132907,36.4373144 C45.0123664,39.2584001 48.8809508,41.7121693 49.5376817,42.4087215 C50.1944125,43.1052738 47.2198484,40.8518147 45.7309098,42.4087215 C44.7382841,43.4466595 44.8298704,44.6520327 46.0056687,46.0248413 C44.5844008,45.8216142 43.8399289,46.2482111 43.7722529,47.304632 C43.670739,48.8892633 49.1208835,50.3872631 47.0363467,49.9049267 C44.9518098,49.4225903 40.3030468,49.5749383 39.2124524,51.9620108 C38.1218581,54.3490834 38.8945694,48.7643499 37.6633621,47.8551588 C36.4321548,46.9459678 35.6231312,49.543701 35.5520331,50.8820041 C35.4809351,52.2203072 34.781049,48.8499757 33.4122874,48.7643499 C32.0435259,48.678724 31.8115663,54.0302198 32.3539435,56.3809584 C32.8963207,58.7316969 30.6630146,52.3115899 28.7140878,52.6255896 C27.4148033,52.8349228 27.0726228,54.7887444 27.6875464,58.4870544 C25.7344007,56.9084518 24.5315341,56.6288946 24.0789466,57.6483828 C23.4000655,59.1776151 26.0042079,63.6412378 25.3875103,62.719569 C24.7708127,61.7979003 22.4161123,61.1777479 21.6735159,62.5626341 C20.9309195,63.9475203 23.4791997,68.0172897 22.4691764,66.7602885 C21.459153,65.5032873 19.3385061,65.2679809 18.6542794,66.1817993 C17.9700526,67.0956178 17.6814711,67.6883567 18.9493919,69.5630344 C20.2173128,71.437712 15.1558265,65.7841416 14.023058,67.2342447 C12.8902895,68.6843478 15.9550323,75.1243276 14.9385891,72.8333221 C13.9221459,70.5423167 10.7828048,69.0188216 9.37217584,69.9689389 C7.96154686,70.9190562 10.254794,74.3784649 11.4370612,75.43502 C12.6193284,76.491575 7.31892648,72.6151359 6.7484624,74.1392323 C6.17799833,75.6633287 9.56653041,78.1031686 9.58724912,78.9464565 C9.60796783,79.7897445 6.7484624,77.5381864 6.7484624,79.6721623 C6.7484624,80.5382925 8.35071713,81.7991022 7.71890101,81.3296252 C6.54326446,80.4560572 1.7019811,79.3320526 1.58227144,81.3296252 C1.48787406,82.9048164 2.43323588,84.1973069 4.4183569,85.2070968 C2.69389091,85.3061843 1.9163866,85.8375017 2.08584395,86.8010489 C2.34002998,88.2463698 7.95007822,89.7823928 6.50169932,89.4819232 C5.05332043,89.1814536 0.182859256,88.612185 0.130798265,91.1083476 C0.0960909377,92.7724561 1.33000664,93.6351786 3.83254536,93.6965153 C3.06634669,94.5972828 3.20203295,95.5109523 4.23960413,96.4375236 C5.79596091,97.8273806 10.4503251,96.1939313 10.4503251,96.7100697 C10.4503251,97.2262081 7.36491084,100.259795 7.71890101,102.660048 C8.07289117,105.060302 10.2650369,103.974662 10.8956871,103.268246 C11.5263373,102.561829 9.90901447,104.993742 10.8956871,105.618383 C11.8823597,106.243024 15.0193225,104.453602 13.7910324,105.462242 C12.5627422,106.470883 10.9531648,107.931438 12.3678395,109.926383 C13.7825142,111.921329 15.817819,109.798417 16.2224648,108.311494 C16.6271106,106.824571 16.2080652,109.407014 17.3201344,109.547588 C18.4322035,109.688163 19.3013502,107.690419 19.2577805,108.311494 C19.2142109,108.932569 18.6749433,110.103378 20.3827243,110.622835 C22.0905054,111.142293 24.0789466,107.188698 24.0789466,105.462242" id="Combined-Shape"></path>
                <path d="M1.38485063,138.301695 L23.0912078,138.301695" id="Path-63"></path>
                <path d="M549.741546,138.192208 L563.91811,138.192208" id="Path-64"></path>
            </g>
        </g>
    </g>
</svg>