<?xml version="1.0" encoding="UTF-8"?>
<svg width="1110px" height="500px" viewBox="0 0 1110 500" version="1.1" xmlns="http://www.w3.org/2000/svg" xmlns:xlink="http://www.w3.org/1999/xlink">
    <!-- Generator: Sketch 47 (45396) - http://www.bohemiancoding.com/sketch -->
    <title>dom-4-1110</title>
    <desc>Created with Sketch.</desc>
    <defs></defs>
    <g id="Page-1" stroke="none" stroke-width="1" fill="none" fill-rule="evenodd">
        <g id="dom-4-1110" stroke="#FFFFFF">
            <g id="home4" transform="translate(30.000000, 115.000000)">
                <g id="дом-4" fill-rule="evenodd" transform="translate(243.615251, 0.000000)">
                    <path d="M663.143453,320.434489 L719.763305,317.399702 L719.257962,86.5750496 L382.725927,24.9793255 L356.297145,32.1831133 M539.431121,110.629269 L539.431121,290.391011 L380.570877,295.660291 M365.157393,296.171545 L345.064217,296.838022 M329.676574,297.348419 L308.746745,298.042646 L308.746745,77.664046 L329.539829,72.0599097 M344.552772,68.0136326 L382.875709,57.6848637 L622.624004,94.9957372 L623.480884,292.231964 L655.61289,294.596754 L655.449352,317.935244 L566.714232,324.069152 L546.018728,319.321786 M623.476518,295.520082 L217.936773,313.814326 L6.43202248,290.391011 L6.43202248,272.369233 M6.43202248,91.3382113 L6.43202248,87.1824886 L2.17753115,88.2773734 M1.05222145,276.546135 L0.810549808,316.978757 L217.936773,349.771481 L546.018728,328.156201 L546.018728,318.5125 M655.61289,294.596754 L662.943654,294.86584 L662.943654,325.126102 L567.051144,332.222031 L546.018728,328.156201 M623.488412,292.444853 L623.476518,304.922278 L645.599627,306.785338 L645.599627,315.499594 L655.449352,317.399702 M309.003767,77.9296045 L329.652177,80.8638731 M344.581657,82.9854457 L365.082037,85.8986782 M380.033289,88.0233448 L539.413846,110.672321 L622.807615,95.2266128 M6.62805958,290.178361 L20.5229057,289.821373 M54.7314574,288.942482 L135.589048,286.865079 L135.589048,102.354313 M135.467784,286.865819 L204.150097,291.293521 M219.623654,292.291046 L248.685655,294.164569 M264.295532,295.170882 L289.610141,296.802824 M305.083172,297.800314 L308.796208,298.03968 M1.35554408,306.646941 L217.379284,335.353302 L557.236729,316.405767 M663.258982,310.246218 L720.04353,307.519134 M719.334646,110.377758 L778.894299,120.45321 L778.894299,304.479203 L719.845467,308.076736 M719.685322,153.307475 L761.217384,158.13901 L761.217384,273.832779 L719.685322,274.918934 M740.019131,160.093262 L756.520959,161.847355 L756.520959,270.062623 L740.019131,270.426631 L740.019131,160.093262 Z M719.781787,270.880554 L719.427077,157.78949 L737.426569,159.745488 L737.742219,270.516023 L719.781787,270.880554 Z M385.715773,117.346411 L493.053041,128.77414 L493.053041,280.352158 L385.715773,282.398866 L385.715773,117.346411 Z M388.638288,123.742178 L419.797493,127.060202 L419.797493,276.344312 L388.638288,276.949467 L388.638288,123.742178 Z M423.181543,127.436658 L454.969699,130.732357 L454.969699,275.688253 L423.181543,276.279288 L423.181543,127.436658 Z M458.633016,131.216592 L487.591538,134.308979 L487.591538,275.036933 L458.633016,275.615606 L458.633016,131.216592 Z M550.972323,290.662555 L550.035069,145.181033 L611.552994,139.148109 L611.552994,294.239371 M554.757624,149.252813 L607.182429,144.086973 L607.063935,160.916331 L554.854102,164.761471 L554.757624,149.252813 Z M555.63412,285.235015 L571.609633,285.612341 L571.609633,171.055584 L554.902587,171.924319 L555.63412,285.235015 Z M576.719132,285.777908 L576.719132,170.789521 L606.97435,169.219863 L606.013526,287.105487 L576.719132,285.777908 Z M539.407118,290.352707 L623.605247,295.123325 L539.407118,290.352707 Z M147.531039,287.582683 L147.531039,142.944974 L204.208211,131.115028 M219.338891,127.956876 L248.717097,121.824908 M263.686711,118.700374 L285.351804,114.178326 L285.351804,283.233122 L264.185569,282.281908 M248.688845,281.585482 L219.660127,280.280926 M204.204609,279.586352 L172.488761,278.161036 L172.488761,289.213787 M153.570345,175.62245 L167.842032,173.330473 L167.842032,283.765418 L153.570345,282.777397 L153.570345,175.62245 Z M153.570345,146.201675 L168.586592,143.377062 L168.586592,169.202007 L153.570345,171.449624 L153.570345,146.201675 Z M282.924089,121.063621 L263.906279,124.766726 M248.74939,127.718042 L239.408967,129.536788 L239.408967,272.870661 L248.748628,273.15347 M264.093946,273.618132 L282.459785,274.174258 L282.924089,121.063621 M235.620912,130.313491 L219.350372,133.466689 M204.183112,136.406074 L192.140336,138.73994 L192.140336,271.344767 L204.204985,271.723647 M219.684916,272.209782 L235.109866,272.694191 L235.620912,130.313491 M190.190057,139.147351 L172.8279,142.470918 L172.436796,270.748266 L190.031069,271.275678 L190.190057,139.147351 Z M6.45182579,87.2246643 L219.319898,0.303843627 L219.319898,16.4809058 L10.212849,97.0283013 M219.652614,0.0795501436 L231.550349,1.50998875 L231.550349,17.5826963 L219.020257,16.6195293 M266.077527,8.03437398 L276.655855,9.44333508 L276.655855,24.7244038 L265.934199,24.1236118 M306.839745,16.3127468 L317.037496,17.8758513 L317.037496,31.8605893 L306.839745,31.3963391 M345.927267,24.4516674 L356.125018,25.449948 L356.125018,38.2242257 L345.927267,37.7599755 M20.4949622,95.0751489 L54.6873261,82.2076842 L54.6873261,292.283673 L20.4949622,290.553756 L20.4949622,254.243446 M20.4949622,211.491523 L20.4949622,205.740138 M20.4949622,105.071162 L20.4949622,95.0751489 L20.4949622,95.0751489 M556.678108,309.119394 L623.488412,304.922278 M557.236729,309.806486 L569.563638,312.35257 L645.599627,307.260403 M557.116408,317.935244 L569.563638,320.434489 L645.776794,315.499594 M567.051144,332.222031 L567.051144,324.069152 L569.563638,321.000121 L569.830856,312.35257 M545.63159,318.938904 L557.116408,317.935244 L557.116408,308.849089" id="Combined-Shape"></path>
                    <path d="M383.201185,57.732159 L383.201185,24.8915195 L383.201185,57.732159 Z M204.229226,24.1114688 L219.062769,19.2219775 L219.608211,305.528464 L204.229226,305.528464 L204.229226,24.1114688 Z M248.77082,33.0316442 L263.604363,28.3128866 L264.149805,304.62198 L248.77082,304.62198 L248.77082,33.0316442 Z M289.676366,39.2555529 L304.509909,34.6765229 L305.055351,302.803798 L289.676366,302.803798 L289.676366,39.2555529 Z M329.6729,45.4959184 L344.506443,41.0401593 L345.051885,301.94925 L329.6729,301.94925 L329.6729,45.4959184 Z M365.124373,65.1388366 L379.957916,61.0401593 L380.503358,301.040159 L365.124373,301.040159 L365.124373,65.1388366 Z M231.259085,1.53134095 L380.154007,28.5504606 L231.259085,1.53134095 Z M231.635822,7.03118327 L262.66343,12.7925898 L231.635822,7.03118327 Z M276.623464,15.2298774 L304.572753,20.2886027 L276.623464,15.2298774 Z M316.883317,22.5160932 L343.791066,27.3991495 L316.883317,22.5160932 Z M356.029175,29.6303521 L379.417714,33.8583025 L356.029175,29.6303521 Z M231.523219,16.2104941 L261.808239,21.5851021 L231.523219,16.2104941 Z M276.636915,24.3072231 L302.993739,29.0741495 L276.636915,24.3072231 Z M316.883317,31.6070023 L341.619643,35.830401 L316.883317,31.6070023 Z M356.029175,38.7212612 L379.417714,42.9492116 L356.029175,38.7212612 Z" id="Combined-Shape"></path>
                    <g id="Group-2" transform="translate(15.453206, 7.272727)">
                        <path d="M0.390140276,91.0045922 L4.9989957,89.34361" id="Path-2"></path>
                        <path d="M39.3173017,76.4928446 L188.704912,20.6301282" id="Path-8"></path>
                        <path d="M203.73083,15.0223658 L216.302934,10.3306407" id="Path-9"></path>
                        <path d="M39.2051794,90.4141709 L188.874841,38.3168632" id="Path-13"></path>
                        <polyline id="Path-14" points="203.553445 33.1701404 250.260265 16.9672027 250.260265 0.764265012 203.553445 18.0306618"></polyline>
                        <path d="M188.827738,23.4235784 L39.2137842,78.451143" id="Path-15"></path>
                        <polyline id="Path-16" points="39.523109 90.3643356 43.384161 90.6977883 188.809836 41.7399937"></polyline>
                        <path d="M203.611933,36.9965448 L233.326675,27.0180363" id="Path-17"></path>
                        <path d="M248.027931,22.0801083 L261.491729,17.5066252" id="Path-18"></path>
                        <polyline id="Path-19" points="188.808098 43.8391575 59.5330734 87.3851183 59.5330734 98.0080532 65.4337339 98.0080532 188.808098 59.7034978"></polyline>
                        <path d="M59.8706102,97.9383925 L188.960231,56.8867666" id="Path-20"></path>
                        <path d="M203.628663,38.8179768 L233.339765,28.7821792" id="Path-22"></path>
                        <polyline id="Path-23" points="248.372343 23.6790589 291.191926 9.27813003 291.191926 24.230292 248.242259 37.9550296"></polyline>
                        <path d="M203.778678,52.1631011 L233.365972,42.7040229" id="Path-24"></path>
                        <path d="M203.620679,55.1206762 L233.496543,45.8338663" id="Path-25"></path>
                        <path d="M247.886297,41.3670182 L274.119183,33.2312715" id="Path-26"></path>
                        <path d="M289.020715,28.6012258 L301.720387,24.6311503" id="Path-27"></path>
                        <polyline id="Path-28" points="92.1314721 89.9358075 92.1314721 100.684264 99.250463 100.684264 188.662393 75.0491724"></polyline>
                        <path d="M92.7385406,100.668631 L188.798792,72.322303" id="Path-29"></path>
                        <path d="M203.628932,67.9902554 L233.474339,59.160339" id="Path-30"></path>
                        <path d="M203.62371,70.7070375 L233.531275,61.9796518" id="Path-31"></path>
                        <path d="M248.138891,54.8399707 L274.274937,47.1274343" id="Path-32"></path>
                        <path d="M247.979692,57.8597585 L274.389706,50.2151864" id="Path-32"></path>
                        <polyline id="Path-33" points="288.806596 42.824077 330.301868 30.5632576 330.301868 17.2537657 302.014112 24.2371515"></polyline>
                        <path d="M288.972726,45.9719998 L314.164472,38.7039561" id="Path-34"></path>
                        <path d="M328.957257,34.4418248 L340.81148,30.9708233" id="Path-35"></path>
                    </g>
                </g>
                <path d="M133.264596,309.623694 C133.999507,302.316706 134.272801,297.278015 134.084477,294.507619 C133.702505,288.888523 131.530811,286.791045 131.530811,281.895782 C131.530811,273.362172 132.561055,269.307205 130.601864,263.026359 C129.295736,258.839128 126.304927,255.255412 121.629435,252.275211 C117.137907,250.408222 113.990518,248.843669 112.187267,247.581551 C109.482391,245.688375 102.590398,239.19209 100.027457,237.991124 C97.4645168,236.790158 96.7402601,235.594587 94.8291125,235.905512 C93.6325188,236.100186 86.675344,239.997791 80.6090705,243.622839 C76.9865544,245.78756 73.1969807,248.489851 72.4844395,248.489851 M153.041326,317.188334 C152.82465,306.399642 152.494203,299.897393 152.049987,297.681587 C151.383664,294.357878 150.147133,294.500159 149.285967,292.691725 C148.711856,291.486102 148.711856,281.56061 149.285967,262.915251 C153.199975,252.558682 157.082335,247.092637 160.933048,246.517116 C166.709118,245.653834 176.723933,246.075127 179.043207,246.517116 C179.666982,246.63599 182.814892,249.220213 186.437623,252.252853 C190.307095,255.492044 194.563137,258.7151 196.472374,260.145555 M162.953254,228.590881 C160.168947,232.152065 157.643624,234.46722 155.377286,235.536345 C151.977779,237.140032 145.294595,240.099561 143.118048,246.599748 C140.941502,253.099935 143.042624,254.933381 140.370043,253.529048 C137.697462,252.124715 130.256566,247.88901 127.752537,243.652535 C125.248508,239.41606 123.149695,239.155514 121.48573,233.889554 C119.821764,228.623594 118.490669,217.955436 120.041882,211.060388 M172.472952,225.929615 C169.705064,233.0761 166.641505,237.048309 163.282276,237.84624 C159.923046,238.644171 161.983377,239.043136 169.463268,239.043136 C175.537023,238.620823 178.875344,238.767452 179.47823,239.483024 C180.081116,240.198597 181.268545,241.168814 183.040517,242.393677 M116.673048,207.952424 C115.982651,213.71155 115.331829,218.152788 114.720582,221.276139 C113.803711,225.961166 118.923322,237.619604 119.040051,238.909221 C119.15678,240.198838 106.380451,233.847537 102.604719,227.287701 C100.087565,222.914477 98.3419518,218.034054 97.3678806,212.646431 M86.6737159,217.686664 C92.7210055,225.680128 95.1782988,230.257229 94.045596,231.417968 C92.3465417,233.159076 82.7814433,234.110449 72.4766859,246.381018 M154.032582,161.069834 C150.201626,166.925526 148.702693,170.614245 149.535783,172.135991 C150.785418,174.418609 154.944656,171.19209 155.549336,171.552542 C156.154016,171.912994 153.505009,173.45813 154.527173,175.111378 C155.549336,176.764626 160.959157,174.401329 159.782337,175.582548 C158.605517,176.763766 156.347248,182.285476 159.249346,184.504127 C161.184077,185.983228 163.020096,185.003939 164.757402,181.566261 C165.774802,183.483358 166.712932,184.462647 167.571794,184.504127 C168.860087,184.566348 169.31498,183.414436 170.264247,181.566261 C171.213514,179.718087 168.959573,186.783845 171.788935,186.232626 C174.618296,185.681407 179.123303,178.340195 178.267846,179.953228 C177.41239,181.566261 173.519063,195.516582 177.092223,197.991555 C179.47433,199.641537 182.279593,198.649759 185.508012,195.01622 C186.589494,196.999777 187.630554,197.991555 188.631192,197.991555 C190.13215,197.991555 192.604888,193.794188 192.575279,195.01622 C192.54567,196.238252 192.480077,199.164298 195.204132,197.991555 C197.928188,196.818812 196.496192,200.989657 199.210567,202.791729 C201.924942,204.5938 204.025128,203.706911 204.630795,201.550152 C205.236463,199.393393 202.880234,196.097825 203.762087,195.750032 C204.64394,195.40224 205.678632,199.885911 208.559612,200.000674 C211.440591,200.115436 211.795297,195.01622 211.876862,195.01622 C211.958427,195.01622 213.163381,202.247739 216.447606,202.149912 C219.731831,202.052085 220.453355,198.961629 220.77675,192.426438 C221.100144,185.891246 222.623412,192.629634 225.476826,192.426438 C228.330239,192.223242 227.369426,186.918198 227.691221,187.539672 C228.013015,188.161146 231.933888,194.601659 235.087241,192.915571 C237.189476,191.791513 237.393891,188.987698 235.700486,184.504127 C237.911916,184.981806 239.28987,184.981806 239.834349,184.504127 C241.911158,182.682113 240.164748,179.483632 238.824126,178.370061 C237.505729,177.274951 246.670647,184.721211 249.927733,181.94092 C253.184818,179.16063 248.352234,175.35223 246.33083,173.240867 C244.309425,171.129504 251.124407,175.006877 252.910047,172.555725 C254.695687,170.104574 248.18186,165.936421 249.456697,166.409098 C250.731534,166.881775 256.056915,170.772673 257.893293,165.375975 C259.729671,159.979276 251.394944,157.364101 251.951291,157.482866 C252.507638,157.601631 257.511473,157.981164 257.628139,155.375231 C257.744805,152.769299 252.125916,150.350385 253.734662,150.821582 C255.343408,151.292778 263.474223,151.46981 264.589902,147.346551 C265.705581,143.223291 257.654321,143.729244 259.284347,143.119628 C260.914374,142.510011 267.762114,139.356281 265.724716,137.008739 C263.687318,134.661197 259.284347,137.857589 261.683468,136.199518 C264.082589,134.541447 265.73974,132.499538 264.589902,131.319994 C263.440064,130.140451 260.76366,129.539468 257.249161,131.650654 C253.734662,133.76184 263.817818,128.253759 263.259906,124.661242 C262.701994,121.068724 255.674171,123.586852 257.249161,122.634549 C258.824151,121.682247 263.128594,117.193697 260.206243,115.237962 C257.283893,113.282228 249.927733,118.822436 249.456697,119.356603 C248.985661,119.89077 254.934669,113.633467 250.63275,113.042075 C246.33083,112.450682 243.982663,116.422132 245.389334,114.512259 C246.796005,112.602386 250.63275,108.665255 249.086191,106.95489 C248.055152,105.814646 246.249304,105.814646 243.668646,106.95489 M41.5008114,204.266745 C38.5909855,206.231756 37.4430698,208.167278 38.0570645,210.073313 C38.9780565,212.932365 41.8068212,211.852754 43.2032206,211.852754 C44.5996199,211.852754 39.3628853,214.529438 40.6377066,216.833044 C41.9125279,219.136649 44.5450053,218.573851 46.0320573,218.469854 C47.5191093,218.365857 43.3403199,220.094522 43.803725,221.5041 C44.2671301,222.913679 51.2319331,221.99716 49.3965457,222.497447 C47.5611584,222.997734 43.2722979,224.303526 44.2671301,226.341245 C45.2619623,228.378965 50.7283257,226.139185 50.3186353,226.617337 C49.4824306,227.593275 47.6353573,230.080092 49.0225643,231.258398 C51.0894199,233.014004 52.632765,230.462806 53.1385252,229.950294 C53.6442855,229.437783 51.6764375,234.202373 54.4198489,234.078205 C56.2487898,233.995426 57.4003188,233.055491 57.8744361,231.258398 M68.4362024,229.57519 C65.8348676,230.058459 64.5022226,230.801684 64.4382673,231.804863 C64.3423344,233.309633 70.2680382,235.654197 68.8447395,235.029173 C67.4214408,234.40415 64.9717044,234.29049 64.9717044,236.116675 C64.9717044,237.94286 67.7158919,239.100233 66.5232815,238.590121 C65.3306711,238.080009 60.1839173,237.323128 60.6927728,239.756197 C61.2016283,242.189266 66.9739792,243.35577 64.9717044,242.839336 C62.9694297,242.322903 60.6927728,243.924706 61.4977869,245.55694 C62.034463,246.645096 63.2718603,247.122975 65.209979,246.990576 C63.7405399,248.781266 63.6005942,250.030982 64.7901419,250.739725 C66.7794446,251.924969 68.6293731,249.365623 68.6293731,249.966101 C68.6293731,250.566579 69.9439063,252.061393 71.7624452,250.739725 C73.2201467,249.680305 72.3506859,246.901555 72.3506859,245.135276 M69.6916837,251.314007 C68.7055682,252.849949 68.6505348,253.942574 69.5265837,254.591883 C70.840657,255.565846 73.324365,253.436755 72.6118786,254.591883 C71.8993922,255.74701 69.7627017,257.694072 71.3738205,258.926182 C72.9849393,260.158293 75.9290632,257.715119 76.3957486,256.960476 C76.862434,256.205832 75.8432457,259.14579 77.3944942,259.411338 C78.4286598,259.58837 79.5142069,258.24756 80.6511356,255.38891 C79.8167302,259.338584 80.2881013,261.214717 82.0652492,261.01731 C83.842397,260.819903 84.8341504,259.624955 85.0405094,257.432464 M46.7379955,227.204901 C43.6751693,228.680821 42.2120222,230.021841 42.3485544,231.227959 C42.5533527,233.037137 47.2313778,233.135349 46.5023527,233.232797 C45.7733277,233.330245 41.662012,235.079582 41.2621938,237.15288 C40.9956484,238.535079 41.9106478,239.537218 44.007192,240.159296 C40.4397478,242.85558 39.1510554,244.943826 40.1411149,246.424036 C41.626204,248.64435 44.671621,247.35709 46.1585168,246.025935 C47.6454127,244.694781 37.3211612,252.729117 40.1411149,254.611927 C42.9610686,256.494737 46.6819547,253.568926 45.4926394,254.611927 C44.3033241,255.654929 41.1898237,258.745088 43.0169765,260.652026 C44.2350783,261.923318 46.0833547,261.4157 48.5618058,259.129171 C47.9526957,261.054298 48.274276,262.044668 49.5265466,262.100281 C51.4049524,262.183699 53.1016884,261.338532 55.107099,258.595284 C57.1125097,255.852036 52.8553087,263.559033 55.9647755,264.65044 C59.0742424,265.741846 61.76221,261.854461 62.1174265,261.019609 C62.472643,260.184757 60.345488,265.988853 63.7394271,266.686282 C67.1333661,267.383711 68.35596,263.180952 69.1154775,262.100281 C69.874995,261.019609 68.449631,264.198248 69.7415225,264.970047 C71.0334139,265.741846 73.6438642,262.708085 72.7411842,263.500245 C71.8385042,264.292405 68.4378143,272.778741 73.2378958,272.414116 C78.0379772,272.049492 80.4772395,267.403977 80.7128501,265.741846 C80.9484606,264.079716 81.2554412,268.45393 82.9229058,268.080567 C84.5903704,267.707205 86.0660219,266.003765 86.4217391,264.65044 C86.7774563,263.297115 87.0164123,267.118639 88.8118317,267.16586 C90.607251,267.213082 91.90094,263.403576 92.6005167,262.633607 C93.0395782,262.150366 92.593644,264.60967 93.3014315,265.280239 C94.009219,265.950807 94.7707985,265.840114 95.3661065,264.970047 C96.9647217,262.633607 93.3460484,272.838689 98.7089142,269.517683 C104.07178,266.196678 102.084768,261.236372 102.721928,264.65044 C103.359087,268.064508 105.440202,268.286565 106.579257,266.516122 C107.718313,264.745679 106.725594,260.796091 107.21163,262.100281 C107.697667,263.40447 110.081908,265.117781 111.12678,263.813591 C111.823362,262.944132 112.128916,261.760506 112.043443,260.262714 C113.783612,261.116577 114.914087,261.290766 115.434869,260.785279 C116.216042,260.02705 114.520337,255.341296 115.198398,256.741986 C115.87646,258.142675 120.244288,258.883025 121.170768,256.440015 C121.788421,254.811341 121.655395,253.217299 120.771691,251.657887 M212.419014,126.745744 C207.287903,121.777918 204.981591,118.367878 205.500079,116.515623 C206.27781,113.737241 209.590901,112.558985 211.327965,115.370959 C213.065029,118.182933 208.060438,110.537214 208.551534,109.077526 C208.878931,108.1044 210.536579,107.937715 213.524477,108.57747 C212.660649,104.607657 212.605372,102.096677 213.358646,101.044531 C214.111919,99.9923846 215.964906,99.9923846 218.917606,101.044531 C217.461167,93.5683875 217.948293,90.0372123 220.378984,90.4510053 C224.025021,91.0716949 225.748562,96.513263 225.919203,97.6061329 C226.089845,98.6990028 223.946599,87.7639758 227.438769,86.6589791 C229.766883,85.9223146 231.558953,86.2952396 232.81498,87.777754 C234.885545,83.8467872 236.830366,82.355887 238.649444,83.3050534 C241.378061,84.7288032 240.078764,88.1222136 240.172663,89.7922172 C240.266561,91.4622208 243.395862,86.9901421 244.896868,88.0055708 C246.397873,89.0209995 246.842643,91.0055492 246.326111,93.9550177 C245.809578,96.9044861 249.413682,89.6033854 251.763155,91.4622208 C253.329471,92.7014443 253.976032,95.5126216 253.702841,99.8957525 C255.984902,97.4697893 257.70618,96.7065827 258.866676,97.6061329 C260.027171,98.505683 260.470876,101.667105 260.197789,107.0904 C261.411392,104.966104 262.706229,104.301024 264.082299,105.09516 C266.146404,106.286364 263.406558,114.313672 264.912909,110.031037 C266.419261,105.748401 271.258693,100.129376 274.458698,102.880693 C277.658703,105.63201 273.753283,113.282534 270.807247,116.515623 C267.861211,119.748712 274.872468,112.578113 277.091488,113.935268 C278.570835,114.840038 278.376746,116.965208 276.509222,120.310778 C278.890139,119.084029 280.508351,118.971241 281.363859,119.972413 C282.647121,121.474172 282.920928,125.636107 277.670127,129.565025 C272.419325,133.493942 281.253753,127.751079 282.25007,128.410962 C283.246386,129.070845 283.171665,130.867792 283.171665,131.48954 C283.171665,132.111288 289.894838,125.332384 292.368916,128.410962 C294.842993,131.48954 291.324492,134.748833 289.450958,135.625757 C287.577425,136.50268 295.040313,133.326425 295.456339,136.50268 C295.872365,139.678936 291.030936,144.207592 287.101301,146.549068 C283.171665,148.890544 294.419872,142.475833 296.456103,143.881762 C298.492333,145.287691 297.19686,148.770363 293.915079,149.724542 C290.633298,150.67872 298.127791,149.596312 298.111808,151.514188 C298.095826,153.432064 296.507103,155.857111 293.915079,156.456054 C291.323055,157.054997 298.612112,157.806056 297.576977,161.326031 C296.886887,163.67268 292.607868,164.681058 284.739922,164.351165 C289.712426,165.003123 291.377337,166.364467 289.734653,168.435196 C287.270629,171.54129 278.523511,170.923816 282.353146,170.957567 C286.182781,170.991318 290.644198,173.785672 291.889709,178.280829 C293.13522,182.775986 278.681034,178.707793 281.766902,180.137211 C284.852769,181.566629 286.308178,183.937017 284.739922,185.92661 C283.171665,187.916203 275.557716,184.912371 277.934621,185.92661 C280.311526,186.940849 284.392371,191.105692 282.25007,194.208571 C280.821869,196.277157 276.89079,195.452829 270.456833,191.735587 C272.14794,194.324452 272.264745,196.074833 270.807247,196.98673 C268.621001,198.354576 264.153154,195.096044 266.419261,196.855086 C268.685367,198.614127 272.408935,204.400591 268.895173,206.421933 C265.381412,208.443275 260.476542,202.095657 259.753643,201.198854 C259.030744,200.302052 260.76793,204.045137 258.866676,205.055808 C256.965422,206.066479 254.26368,205.055808 253.702841,204.045137 C253.328948,203.371356 252.682386,203.708246 251.763155,205.055808 M193.447531,226.883143 C190.700012,226.711956 189.646065,227.287518 190.285691,228.609829 C191.24513,230.593296 185.889963,228.671529 185.674032,230.593296 C185.458102,232.515062 192.182086,233.517641 189.560782,233.520406 C186.939477,233.523171 185.674032,234.197122 185.674032,235.220779 C185.674032,235.903217 186.362329,236.709342 187.738921,237.639156 C182.904339,240.962493 181.102493,243.02329 182.333382,243.821547 C184.179715,245.018932 185.723436,243.079687 186.552123,243.821547 C187.38081,244.563406 184.795942,245.959263 185.674032,246.812171 C186.552123,247.66508 189.560782,249.045159 189.560782,248.723957 C189.560782,248.402755 190.069761,249.235702 189.560782,250.287774 C189.271469,250.885791 191.78815,253.442148 193.202448,252.240223 C194.616746,251.038298 192.622121,254.50573 194.151573,255.487342 C195.681026,256.468953 196.997812,253.08976 197.18882,254.62061 C197.379827,256.15146 195.522463,257.686818 196.161636,259.549607 C196.800808,261.412396 198.866264,261.470345 200.707514,260.509976 C202.548765,259.549607 199.046301,263.354517 200.707514,263.567745 C202.368727,263.780972 205.464195,261.876048 207.540173,260.509976 C209.61615,259.143905 202.929058,263.781341 203.995101,265.579708 C204.705797,266.77862 205.887488,266.996865 207.540173,266.234445 C205.475224,271.035232 205.475224,273.355326 207.540173,273.194725 C210.637596,272.953823 214.633957,266.459207 212.89534,270.101116 C211.156723,273.743025 209.391459,280.164985 214.577874,280.746596 C219.764289,281.328207 223.60542,268.168915 224.035721,265.286265 C224.466022,262.403615 222.826481,274.609418 227.204165,275.238988 C231.58185,275.868557 231.590286,271.468649 231.770661,270.101116 C231.951036,268.733583 231.686478,276.114601 234.820906,276.910775 C237.955334,277.70695 238.866587,274.501653 239.080998,271.047028 C239.295408,267.592403 239.706741,277.194165 243.218166,276.910775 C245.559117,276.721849 246.333445,274.767266 245.541152,271.047028 C246.796138,272.543649 248.154489,273.075882 249.616205,272.643726 C251.808778,271.995492 251.738705,267.414992 250.289563,265.807896 C248.84042,264.200801 254.257522,270.054143 255.257033,267.245111 C256.256544,264.436078 253.959244,257.640007 249.392357,255.886532 M219.798395,198.147708 C219.546845,195.971577 219.828693,194.741526 220.643939,194.457556 C221.866809,194.031601 223.879686,193.700015 224.511171,197.13504 C225.142657,200.570065 225.519078,202.387176 225.216909,200.50552 C224.91474,198.623863 226.898982,193.768137 229.035371,195.562285 C231.17176,197.356433 231.115542,199.467764 231.951159,202.074469 C232.786775,204.681175 232.581619,198.674815 234.340757,199.403752 C236.099895,200.132688 237.3886,206.587421 236.857472,202.875685 C236.326345,199.163948 237.337798,193.05498 240.552532,193.788581 C243.767266,194.522182 244.74935,203.2872 244.04677,205.86371 C243.34419,208.44022 246.358077,201.646626 248.162227,201.646626 C249.966376,201.646626 252.574316,203.505174 251.606585,205.86371 C250.638854,208.222246 253.266613,205.446925 254.129008,206.985538 C254.991403,208.524152 254.19718,210.990873 254.129008,211.456839 C254.060837,211.922805 255.83363,208.915324 256.768627,209.937988 C257.703624,210.960651 258.239533,212.448672 257.94532,213.642143 C257.651108,214.835615 262.118489,209.780067 263.962182,211.196447 C265.19131,212.1407 265.077852,214.544341 263.621806,218.407369 C266.623159,216.312369 268.115782,216.437013 268.099675,218.781303 C268.075514,222.297737 262.478564,226.418076 261.630175,227.346609 C260.781786,228.275142 268.130359,222.608021 269.504038,224.901004 C270.877717,227.193987 268.207872,229.429655 267.669495,229.713565 C267.131119,229.997476 271.009802,228.629566 271.223576,231.451542 C271.437349,234.273518 259.647525,239.36931 263.061686,238.482165 C266.475848,237.595021 275.55452,236.17241 275.466334,240.91754 C275.378148,245.662669 270.374263,245.61437 266.211409,246.220637 C262.048556,246.826904 272.458668,249.303195 270.884049,252.578566 C269.834303,254.762146 266.138956,254.969157 259.798006,253.199598 C261.55689,255.670088 261.811381,257.165349 260.561478,257.685382 C259.311575,258.205415 256.753345,258.508969 252.886789,258.596045 M151.65446,257.560918 C152.69131,260.120967 153.946558,260.471502 155.420203,258.612523 C156.893849,256.753545 157.619444,256.490447 157.596987,257.823229 C157.933638,259.68793 158.66428,260.45184 159.788914,260.11496 C161.475864,259.609641 161.382417,259.393918 162.720548,257.560918 C164.058678,255.727919 161.565914,261.872319 163.475672,262.421826 C165.385429,262.971333 169.087172,260.396931 170.511876,258.612523 C171.936579,256.828116 167.843553,263.870582 170.88428,263.708688 C173.925008,263.546793 175.726675,259.799701 177.128624,259.609641 C178.530574,259.419581 175.855679,262.86961 177.636298,262.793327 C178.823377,262.742472 179.888257,262.517625 180.830937,262.118784 C178.680436,268.62809 179.002825,271.504538 181.798101,270.748126 C185.991016,269.613508 187.719269,265.176264 188.108465,263.799045 C188.497661,262.421826 189.02019,266.592951 190.710851,266.132188 C192.401513,265.671425 192.968717,264.299146 193.390711,263.016058 C193.812704,261.73297 192.804998,266.376746 195.11251,265.881987 C196.650851,265.552147 197.96725,264.058482 199.061706,261.400991 M112.187027,187.629581 C108.385134,194.515804 107.332696,198.411594 109.029714,199.31695 C110.726732,200.222307 112.390129,199.541843 114.019906,197.275557 C113.27529,199.595585 113.27529,200.85275 114.019906,201.04705 C114.764521,201.24135 115.953095,201.24135 117.585627,201.04705 C116.089782,207.704798 116.386995,211.080524 118.477264,211.174229 C120.567534,211.267934 122.066685,209.771271 122.974719,206.684239 C123.794568,208.894853 124.819723,209.934979 126.050185,209.804619 C127.895878,209.609078 129.181426,208.053445 129.353004,206.684239 C129.524582,205.315033 128.92341,211.43505 131.059768,211.935761 C133.196126,212.436471 135.590444,210.737825 137.355788,206.21887 C139.121132,201.699916 133.196014,221.826594 137.355788,222.964397 C141.515562,224.1022 142.617773,221.906636 144.083411,219.41959 C145.549048,216.932544 144.227365,223.262566 146.777337,223.533795 C149.327309,223.805024 150.385992,220.501748 150.86101,219.41959 C151.336027,218.337432 151.08439,223.098643 152.751221,223.533795 C154.418052,223.968948 156.378538,216.585949 155.806144,220.949601 C155.23375,225.313253 157.243517,231.338352 161.231613,229.961414 C165.219709,228.584476 163.357597,221.74392 162.690805,219.41959 C162.024014,217.09526 165.677098,224.638826 167.666956,224.638826 C169.656815,224.638826 169.532001,221.568512 169.871439,220.949601 C170.210878,220.330691 172.381416,229.78241 176.961545,227.82039 C181.541675,225.858371 180.294829,217.346959 179.366113,215.004839 C178.437397,212.662719 182.311356,218.964913 184.785777,218.005269 C187.260198,217.045625 185.802517,214.12631 185.316574,213.011768 C184.830631,211.897226 192.098189,223.519343 195.973593,218.337432 C199.848998,213.155521 191.137751,207.679473 193.485032,209.047746 C195.832313,210.416019 199.766064,209.676753 197.92774,206.684239 C196.089416,203.691725 202.117737,209.366437 204.009124,208.268936 C205.270049,207.537268 205.153445,205.931848 203.659313,203.452676 M52.4429617,213.757632 C51.9196715,216.600656 52.3885796,217.839942 53.8496859,217.47549 C56.0413453,216.928811 57.0730163,214.181116 57.2695251,213.065392 C57.4660339,211.949668 56.9652298,216.928811 58.5908266,216.928811 C60.2164235,216.928811 60.4741579,213.077491 60.6919307,214.925054 C60.9097035,216.772617 62.8835901,224.854374 66.5131365,224.115569 C70.1426828,223.376764 70.1507485,218.006036 69.536292,216.194772 C68.9218354,214.383508 72.4326508,221.517468 75.0667674,220.450876 C77.7008841,219.384283 76.9860275,216.926977 76.4738582,215.587229 C75.9616889,214.24748 82.836563,222.87005 85.84762,219.925829 C88.858677,216.981609 86.5995594,210.509457 85.84762,209.512161 C85.0956807,208.514866 89.1406084,213.074558 90.6686841,211.949668 C92.1967598,210.824778 92.2697174,209.931979 91.7857778,207.240015 C91.3018383,204.548052 95.8974306,215.264208 99.9313598,212.583244 C102.620646,210.795934 102.620646,208.117537 99.9313598,204.548052 C103.143692,203.728705 104.235244,202.509219 103.206017,200.889592 M134.439583,127.85735 C131.020002,125.253314 129.937258,123.210813 131.191349,121.729847 C133.072485,119.508399 138.609292,120.013531 140.242111,120.871689 C141.874931,121.729847 137.845975,116.021879 138.929824,114.135097 C140.013673,112.248315 142.012637,112.39525 144.127192,113.314138 C146.241747,114.233025 140.613091,106.130061 144.127192,104.434964 C147.641294,102.739867 149.993076,103.385312 151.779624,106.551571 C153.566173,109.71783 149.652383,99.7900784 153.566173,97.8130605 C157.479963,95.8360426 158.650554,98.9203666 158.38003,100.742392 C158.109505,102.564418 159.949615,97.067288 162.640111,97.067288 C165.330607,97.067288 166.212622,99.3848885 165.85642,101.176743 C165.500219,102.968598 167.966905,98.7006593 169.868976,100.028177 C171.137023,100.913189 171.608597,102.052311 171.283698,103.445543 M51.4860641,131.629761 C52.8869532,129.55267 54.0791669,128.892037 55.0627054,129.647862 C56.5380131,130.7816 55.7793204,135.017484 54.4454514,136.919829 C53.1115824,138.822174 57.4670429,132.777209 59.3495611,133.125596 C61.2320793,133.473983 61.0703389,135.19449 60.2001314,136.919829 C59.3299238,138.645168 62.5111606,133.454344 65.0063205,135.078036 C67.5014804,136.701729 62.0902271,141.198643 62.5884002,140.905593 C63.0865734,140.612543 68.689944,140.905593 68.0689155,143.591324 C67.6548965,145.381811 66.0918248,146.227582 63.3797005,146.128637 M105.34278,161.74955 C102.869075,163.267125 102.052806,164.544128 102.893973,165.580559 C104.155724,167.135204 106.844944,165.289388 109.000096,165.060127 C111.155247,164.830866 106.456677,167.282844 106.091211,168.807435 C105.725745,170.332027 107.967629,171.159046 109.71928,169.901053 C111.470932,168.64306 106.091211,174.012624 109.000096,175.39907 C111.90898,176.785517 114.2628,172.130704 115.163739,169.901053 C116.064677,167.671403 112.737842,175.672049 114.584228,176.861991 C116.430613,178.051933 117.72948,175.804471 118.964017,172.953157 C120.198554,170.101842 116.61577,180.700579 119.574395,181.332409 C122.533021,181.964239 122.622655,176.975675 122.762786,175.39907 C122.902918,173.822466 123.661547,179.868757 125.773051,179.669457 C127.884555,179.470158 126.989436,175.537213 126.905276,174.67984 C126.821117,173.822466 127.717721,176.832932 129.54399,175.919749 C131.37026,175.006566 128.791406,171.851447 129.54399,172.953157 C130.296574,174.054866 134.779797,176.093084 135.475831,173.822466 C135.939853,172.30872 135.1429,170.582252 133.08497,168.64306 M79.9783457,322.351226 L105.813072,322.351226 L105.813072,321.442135 L79.9783457,321.442135 L79.9783457,322.351226 Z M105.507184,321.86345 C109.231576,322.400729 114.213497,326.051092 111.660706,322.334597 C109.958846,319.856934 108.561218,318.390686 107.467823,317.935854 C109.81168,317.680534 111.72948,318.324423 113.221222,319.86752 C115.458836,322.182166 117.46865,325.636736 115.817052,321.32617 C114.715986,318.45246 111.932909,316.247608 107.467823,314.711615 C109.87105,314.315817 111.559088,314.43158 112.531935,315.058905 C113.991206,315.999893 117.251567,319.073792 118.890936,320.756385 C120.587566,322.497749 117.677865,318.541134 110.161834,308.886542 C115.478373,310.90489 118.930163,312.962345 120.517205,315.058905 C122.104246,317.155466 119.44249,313.948976 112.531935,305.439435 C119.784456,307.5076 124.062145,310.911989 125.365004,315.652603 C126.667862,320.393217 126.667862,322.620548 125.365004,322.334597 M124.564385,313.040184 C124.906855,309.887083 124.906855,307.61666 124.564385,306.228914 C124.221914,304.841168 123.08979,302.524041 121.168011,299.277533 C127.6432,302.342542 130.587272,306.668926 130.000226,312.256683 C129.578297,316.272784 130.845292,314.928055 133.078668,310.323896 C133.661339,309.122706 134.618246,307.011075 135.94939,303.989004 L135.94939,314.54778 M131.532514,323.763702 L138.216139,310.468111 C137.419589,315.905488 137.15845,318.987598 137.432721,319.714439 C137.706993,320.441281 139.426601,318.868546 142.591547,314.996234 C141.00069,321.166398 140.549692,324.27509 141.238552,324.322309 C141.927411,324.369528 144.019171,321.586273 147.513831,315.972542 C148.690843,319.391145 149.20796,321.207087 149.065182,321.420365 C148.962984,321.573026 150.014492,320.521599 150.762545,317.689107 C150.960564,316.939308 151.081761,315.483118 151.126134,313.320538 L153.894379,319.003968 C154.983422,315.108674 156.102471,312.392115 157.251526,310.854289 C158.40058,309.316464 161.134471,306.876481 165.453198,303.534342 C164.212712,307.02036 163.431619,309.597991 163.10992,311.267235 C162.788221,312.93648 162.788221,314.411814 163.10992,315.693238 L171.764144,310.854289 C169.379899,312.989607 167.809756,314.543399 167.053716,315.515666 C163.969322,319.48219 163.10992,322.029955 163.10992,322.185897 C163.10992,322.344887 165.535284,321.028709 170.270454,320.223738 C171.348368,320.040494 173.222029,320.040494 175.891435,320.223738 C173.674545,321.696078 172.298782,322.737981 171.764144,323.34945 C171.229506,323.960918 170.578613,324.997144 169.811465,326.458127 M166.195541,317.015392 C177.515321,315.709363 184.687254,315.382856 187.711341,316.03587 C190.735428,316.688884 197.095404,317.532225 206.79127,318.565892 L213.560241,317.810947 M227.200479,86.8186035 C228.552795,85.3398966 229.382233,82.580626 227.986798,80.735108 C226.591363,78.88959 222.03721,83.7769654 222.766111,82.3910742 C223.495012,81.005183 225.001918,77.1811461 223.746303,75.5641917 C222.490688,73.9472373 216.568538,77.6595714 218.037614,76.0650369 C219.50669,74.4705023 223.630268,64.2195908 219.680759,63.4062469 C215.731251,62.5929029 210.691875,71.9537907 211.479709,70.2849269 C212.267543,68.6160632 211.694451,65.4318247 209.735467,65.6632553 C207.776484,65.8946859 204.090673,71.3042774 205.758358,68.1464646 C207.426043,64.9886519 207.859694,58.5856106 204.986145,58.240613 C202.112596,57.8956155 199.44685,65.0533083 199.760697,63.8968226 C200.074544,62.7403369 200.29466,53.9179748 197.542568,53.0039617 C194.790476,52.0899486 192.667498,60.7513145 193.12159,57.0400595 C193.575683,53.3288045 192.921606,49.8746558 190.85236,49.085397 C189.472862,48.5592244 187.920912,49.8654127 186.19651,53.0039617 C185.338786,48.4755956 184.062586,46.0946719 182.367909,45.8611906 C179.825895,45.5109687 178.852747,52.6518021 178.744138,50.1558706 C178.63553,47.6599391 177.173618,44.9741751 173.397071,46.4562135 C169.620525,47.9382518 172.162352,61.643009 171.499843,59.2354897 C170.837333,56.8279703 166.83327,53.1355478 164.264104,54.2581211 C161.694939,55.3806944 164.886677,63.9503317 163.77426,62.2809466 C162.661842,60.6115615 159.662025,55.0860239 155.258005,55.9028768 C150.853984,56.7197298 152.928112,68.6255917 151.527167,63.8968226 C150.126223,59.1680535 148.341626,57.5734839 145.076888,57.5858827 C141.812151,57.5982815 139.484644,66.0968172 139.187065,64.8621776 C138.889486,63.6275379 141.018807,52.0924172 138.531272,50.1558706 C136.043736,48.219324 134.197067,57.5858827 134.223934,53.5796944 C134.2508,49.573506 133.720755,47.5171415 130.906722,46.9866775 C128.092689,46.4562135 127.263572,53.0039617 127.347902,50.3859015 C127.432231,47.7678413 125.923628,45.7016596 122.022266,46.0789365 C118.120903,46.4562135 120.369816,54.8285146 119.119226,53.0039617 C117.868636,51.1794089 116.031321,46.9866775 112.877849,48.1799516 C110.775535,48.9754677 110.474496,51.8282246 111.974733,56.7382224 C109.119592,53.9554511 106.84145,53.4010349 105.140306,55.074974 C102.588591,57.5858827 109.937577,75.2208734 109.097048,72.7186711 C108.256519,70.2164689 102.800534,58.0819431 94.5936995,55.5429524 C89.1224765,53.850292 87.8848965,57.2237262 90.8809595,65.6632553 C86.1091513,63.6100214 83.7226742,64.3340782 83.7215282,67.8354257 C83.7198092,73.087447 90.9151018,77.6556343 92.1365746,78.9524071 C93.3580474,80.2491799 87.825569,76.0539103 85.0562489,78.9524071 C83.2100354,80.8847384 83.3803794,83.1287843 85.567281,85.684545 C82.9238235,85.3061967 81.5391585,86.100393 81.413286,88.067134 C81.2244774,91.0172455 91.3613596,93.8060749 87.4842689,92.9081082 C83.6071781,92.0101415 74.9608087,92.2937681 72.9323805,96.7377862 C70.9039523,101.181804 72.3411406,90.7846939 70.0511823,89.092051 C67.761224,87.3994081 66.2564975,92.2356135 66.1242602,94.7271352 C65.9920229,97.218657 64.6902844,90.9441038 62.144485,90.7846939 C59.5986855,90.625284 59.1672572,100.588175 60.1760403,104.96455 C61.1848235,109.340925 57.0310324,97.3885982 53.4061669,97.9731722 C50.9895898,98.3628882 50.3531584,102.000322 51.4968727,108.885474 C47.8641601,105.946586 45.6269135,105.426134 44.785133,107.324117 C43.5224622,110.171092 48.3659824,118.481028 47.2189686,116.765155 C46.0719548,115.049282 41.692379,113.894743 40.3112024,116.472989 C38.9300259,119.051235 43.6696463,126.627933 41.7910745,124.287771 C39.9125027,121.947609 35.9682498,121.509539 34.6956366,123.210797 C33.4230234,124.912054 32.8862822,126.015558 35.2445251,129.505649 C37.602768,132.99574 28.1887625,122.470476 26.0818933,125.170136 C23.9750242,127.869796 29.6752286,139.85912 27.7847163,135.593951 C25.8942041,131.328781 20.0552522,128.492487 17.4315824,130.261322 C14.8079125,132.030158 19.0731896,138.470546 21.2721227,140.437537 C23.4710558,142.404528 13.6126842,135.187753 12.5516615,138.025167 C11.4906387,140.86258 17.7930681,145.404835 17.8316034,146.974786 C17.8701387,148.544737 12.5516615,144.353007 12.5516615,148.325834 C12.5516615,149.93831 15.5317416,152.285563 14.3566084,151.411536 C12.1700078,149.785213 3.16556414,147.692651 2.94291266,151.411536 C2.76734023,154.344073 4.52564617,156.750305 8.21783047,158.630233 C5.01044604,158.814705 3.56434316,159.803859 3.87952182,161.597697 C4.35228981,164.288454 14.7865816,167.148072 12.0926996,166.588687 C9.3988176,166.029302 0.340105247,164.969493 0.243275496,169.616605 C0.178722329,172.714679 2.47371802,174.320811 7.12826256,174.435002 C5.70318738,176.111963 5.95555419,177.812943 7.885363,179.537943 C10.7800762,182.125443 19.4368636,179.084447 19.4368636,180.045343 C19.4368636,181.006238 13.6982118,186.653874 14.3566084,191.12243 C15.015005,195.590987 19.0922406,193.569849 20.2652052,192.254713 C21.4381698,190.939576 18.4300642,195.467072 20.2652052,196.629968 C22.1003463,197.792864 27.9348747,194.461493 25.6503421,196.339281 C23.3658095,198.217069 20.3721097,200.936187 23.0033043,204.650182 C25.6344988,208.364176 29.4200216,204.411947 30.1726341,201.643739 C30.9252466,198.875531 30.1458518,203.683271 32.2142215,203.944979 C34.2825912,204.206686 35.8991425,200.487483 35.818106,201.643739 C35.7370695,202.799995 34.73407,204.979692 37.9104216,205.946768 C41.0867733,206.913843 44.785133,199.553427 44.785133,196.339281" id="Combined-Shape"></path>
                <path d="M2.57572395,257.476561 L42.9480088,257.476561" id="Path-63"></path>
                <path d="M1022.48029,257.272727 L1048.84769,257.272727" id="Path-64"></path>
            </g>
        </g>
    </g>
</svg>