<?xml version="1.0" encoding="UTF-8"?>
<svg width="930px" height="500px" viewBox="0 0 930 500" version="1.1" xmlns="http://www.w3.org/2000/svg" xmlns:xlink="http://www.w3.org/1999/xlink">
    <!-- Generator: Sketch 47 (45396) - http://www.bohemiancoding.com/sketch -->
    <title>dom-3-930@3x</title>
    <desc>Created with Sketch.</desc>
    <defs></defs>
    <g id="Page-1" stroke="none" stroke-width="1" fill="none" fill-rule="evenodd">
        <g id="dom-3-930" stroke="#FFFFFF" stroke-width="0.8065915">
            <g id="dom-3" transform="translate(0.000000, 56.000000)">
                <g id="дом3_белый" transform="translate(317.797051, 0.000000)">
                    <path d="M510.521766,90.4649121 L513.33531,355.697585 L151.156302,387.598591 L0.695197005,357.503486 L2.02038945,203.257547 M2.34779851,165.148729 L2.42859591,155.744305 M2.54052742,142.716024 L3.02081466,86.8129304 L152.250383,2.30678262 L511.36373,90.62612 L511.36373,89.0894889 L152.250383,0.0725159801 L3.02081466,85.4105637 L3.02081466,87.0335912" id="Path-318"></path>
                    <path d="M52.1392817,119.972692 L52.1392817,200.751991 L61.5341523,198.808035 L61.5341523,116.185245 L52.1392817,119.972692 Z" id="Rectangle-78"></path>
                    <path d="M258.35455,89.1697886 L258.35455,188.133315 L281.594262,190.210554 L281.594262,93.4362431 L258.35455,89.1697886 Z" id="Rectangle-75"></path>
                    <path d="M287.501584,94.5451691 L287.501584,190.766582 L307.097917,192.537517 L307.097917,98.1581982 L287.501584,94.5451691 Z" id="Rectangle-76"></path>
                    <polyline id="Path-331" points="13.6215526 190.369292 14.2377168 110.113847 152.098564 42.5177171 494.665576 115.467935 494.665576 115.467935 495.94735 213.241953 151.058159 182.451929 13.4608522 211.300533 13.4726887 209.758825"></polyline>
                    <polyline id="Path-332" points="35.2942839 206.361336 36.1640089 113.697455 171.039781 52.7272696 483.419785 117.307391 484.255291 212.037847"></polyline>
                    <path d="M483.221522,117.449961 L494.626888,115.663035" id="Path-333"></path>
                    <path d="M14.4282205,110.20403 L36.2302976,113.640838" id="Path-334"></path>
                    <path d="M170.992723,52.3976283 L170.851923,184.060209" id="Path-335"></path>
                    <polygon id="Path-336" points="3.17758281 335.305245 3.72010655 230.517108 150.987543 207.401186 447.491308 228.213476 447.982241 338.380938 151.347863 356.05931"></polygon>
                    <polyline id="Path-337" points="0.877627609 346.778754 151.433802 372.689881 513.291662 346.67566"></polyline>
                    <path d="M448.246301,338.180597 L397.225303,335.356159 L277.229701,340.575998 M267.836366,340.98461 L253.843429,341.593307 M244.531315,341.998386 L229.912838,342.634293 M220.482539,343.044514 L204.930517,343.721031 M82.5203975,235.863329 L82.2492932,333.452872 L82.5203975,235.863329 Z" id="Path-338"></path>
                    <path d="M194.927299,344.156173 L193.454883,344.220224 L177.949583,342.779679 M168.024661,341.857588 L82.3403721,333.89695 L3.28946933,335.121472" id="Path"></path>
                    <path d="M3.93209915,230.517467 L82.5477911,235.848194 L167.938509,225.036639 M177.937136,223.770685 L193.495444,221.800804 L195.109163,221.879523 M204.908401,222.357542 L220.435695,223.114982 M229.964209,223.579794 L244.666383,224.296984 M253.849774,224.744961 L267.882302,225.429484 M277.183799,225.883222 L397.574294,231.756014 L447.375083,228.483954" id="Path-339"></path>
                    <path d="M397.298473,231.725393 L397.302252,335.508807" id="Path-340"></path>
                    <path d="M167.998743,211.307594 L167.998743,352.150259 L175.936262,352.704679 L175.936262,211.021427 L167.998743,211.307594 Z" id="Rectangle-72"></path>
                    <polyline id="Path-341" points="176.283059 352.767256 177.979229 352.578845 177.979229 211.102527 176.191835 210.966969"></polyline>
                    <path d="M194.95975,213.486085 L194.95975,350.706489 L202.897269,351.24673 L202.897269,213.207235 L194.95975,213.486085 Z" id="Rectangle-72"></path>
                    <polyline id="Path-341" points="203.244065 351.313316 204.940236 351.129741 204.940236 213.285241 203.152842 213.153163"></polyline>
                    <path d="M220.463405,214.942953 L220.463405,349.250137 L228.036586,349.787991 L228.036586,214.665336 L220.463405,214.942953 Z" id="Rectangle-72"></path>
                    <polyline id="Path-341" points="228.339018 349.850146 229.845395 349.747611 229.845395 214.862185 228.339018 214.607795"></polyline>
                    <path d="M244.509708,216.394465 L244.509708,347.956776 L252.082889,348.483704 L252.082889,216.122487 L244.509708,216.394465 Z" id="Rectangle-72"></path>
                    <polyline id="Path-341" points="252.385321 348.552769 253.891698 348.452317 253.891698 216.30715 252.385321 216.057927"></polyline>
                    <path d="M267.827336,218.573229 L267.827336,346.708661 L275.400517,347.221947 L275.400517,218.308293 L267.827336,218.573229 Z" id="Rectangle-72"></path>
                    <polyline id="Path-341" points="275.702949 347.299641 277.209326 347.201789 277.209326 218.47774 275.702949 218.23497"></polyline>
                    <polygon id="Path-344" points="94.3939079 240.082225 94.0090902 326.339921 135.400727 329.934014 135.698362 235.790521"></polygon>
                    <path d="M109.494418,324.747823 L121.848056,325.829785 M122.803399,325.913456 L135.417034,327.01819 L135.693847,238.703249 L122.958804,240.038014 M122.028933,240.135372 L109.690507,241.428475 M108.84408,241.517183 L97.2789025,242.729248 L97.2789025,242.729248 L96.9210052,323.646612 L108.735901,324.68139" id="Path-344"></path>
                    <path d="M167.912583,232.430479 L138.064508,235.508576 L138.064508,235.508576 L137.69459,330.131547 L167.993361,332.779941 M178.026866,333.656963 L188.466343,334.56947 L188.606621,230.296396 L177.94942,231.395425" id="Path-345"></path>
                    <path d="M157.765728,328.865995 L168.109629,329.793246 M178.010923,330.680821 L187.023134,331.488696 L187.15209,233.182856 L178.049792,234.145514" id="Path-345"></path>
                    <path d="M167.967681,235.211798 L157.942025,236.272111 M156.201056,236.456236 L140.689298,238.096758 L140.349237,327.304742 L156.251775,328.730281" id="Path"></path>
                    <path d="M108.557755,241.398591 L108.383104,324.69884" id="Path-346"></path>
                    <path d="M121.673921,239.941128 L121.49363,325.931226" id="Path-346"></path>
                    <path d="M39.0231163,125.227602 L39.0231163,203.51718 L49.8753385,201.243123 L49.8753385,120.875224 L39.0231163,125.227602 Z" id="Rectangle-77"></path>
                    <path d="M123.326511,239.752579 L123.14622,325.742677" id="Path-346"></path>
                    <path d="M110.015107,241.398591 L109.840456,324.69884" id="Path-346"></path>
                    <path d="M155.935596,236.087178 L155.935596,328.992635" id="Path-347"></path>
                    <path d="M158.122661,235.908714 L158.122661,328.796251" id="Path-347"></path>
                    <polyline id="Path-342" points="513.309288 347.844974 535.419396 346.191334 534.263906 217.936532 512.089245 215.849649 512.05632 214.482246 534.263906 216.610531 534.263906 217.936532"></polyline>
                    <path d="M513.319836,339.310508 L535.400437,337.953976" id="Path-343"></path>
                    <polyline id="Path-348" points="513.115441 322.09519 522.738284 321.548069 521.850856 245.970862 512.347683 245.438983"></polyline>
                    <polyline id="Path-348" points="512.953939 319.905766 520.552574 319.384658 519.85182 247.400772 512.347683 246.894181"></polyline>
                    <polyline id="Path-349" points="400.480017 335.286142 400.080281 248.262272 438.086198 246.411168 438.432581 337.585814"></polyline>
                    <path d="M402.719396,250.432181 L402.719396,259.323584 L435.344868,258.719037 L435.344868,248.941933 L402.719396,250.432181 Z" id="Rectangle-70"></path>
                    <path d="M402.902291,263.619915 L403.265124,332.03315 L413.84893,332.619098 L413.84893,263.39125 L402.902291,263.619915 Z" id="Rectangle-71"></path>
                    <path d="M416.477211,263.315179 L416.477211,332.742247 L434.616192,333.724553 L434.616192,262.898905 L416.477211,263.315179 Z" id="Rectangle-71"></path>
                    <path d="M392.503273,231.616444 L392.786934,335.483687" id="Path-350"></path>
                    <polyline id="Path-351" points="227.503494 189.197847 227.503494 79.0508776 310.948146 95.0326243 310.948146 196.663561"></polyline>
                    <path d="M231.393543,84.1459468 L231.393543,185.676167 L252.447227,187.583114 L252.447227,88.0410278 L231.393543,84.1459468 Z" id="Rectangle-74"></path>
                    <polyline id="Path-352" points="36.2420772 123.446172 73.6268953 107.847465 73.2053819 198.661752"></polyline>
                    <polyline id="Path-355" points="73.5748037 111.233652 63.8081749 115.217245 63.8081749 198.354365 73.2101692 196.370898"></polyline>
                    <polyline id="Path-354" points="428.902048 207.13702 428.902048 117.47487 483.62718 127.929863"></polyline>
                    <path d="M431.050728,121.587791 L431.050728,203.794543 L444.088978,204.963126 L444.088978,124.071925 L431.050728,121.587791 Z" id="Rectangle-79"></path>
                    <path d="M448.538949,124.922782 L448.538949,205.371124 L463.763226,206.72671 L463.763226,127.827106 L448.538949,124.922782 Z" id="Rectangle-80"></path>
                    <path d="M468.213197,128.690496 L468.213197,207.122071 L479.794095,208.148403 L479.794095,130.909653 L468.213197,128.690496 Z" id="Rectangle-81"></path>
                    <path d="M511.921317,182.751287 L511.800565,184.358031 L527.235942,186.819675 L527.235942,215.877827 L528.979716,216.052128 L528.979716,185.417163 L511.921317,182.751287 Z" id="Rectangle-82"></path>
                    <path d="M511.584215,188.686478 L526.661632,186.769057" id="Path-353"></path>
                    <path d="M511.537118,186.909286 L521.098109,185.857754" id="Path-353"></path>
                    <path d="M152.201682,0.284739892 L152.201682,42.3932033" id="Path-10"></path>
                    <path d="M151.092586,182.507621 L151.092586,207.3177" id="Path-11"></path>
                    <path d="M151.294825,356.05123 L151.294825,387.729202" id="Path-12"></path>
                </g>
                <g id="дерево5" transform="translate(23.391154, 70.178794)">
                    <path d="M131.433999,290.277159 C131.433999,290.277159 131.960813,287.151218 134.162539,284.175845 C136.364264,281.200471 145.861068,278.529289 148.032982,272.123783 C150.204897,265.718277 151.454387,240.470192 151.651137,228.03397 C151.847887,215.597749 149.876129,192.995342 148.032982,184.150292 C146.189836,175.305243 133.865303,164.610206 129.283822,162.794915 C124.702341,160.979623 123.391514,160.370324 117.390533,160.370324 C111.389552,160.370324 100.272097,155.245359 95.2735949,149.102942 C94.3252313,147.937544 91.5158293,146.524772 89.4677285,146.524772 C87.4196277,146.524772 82.4915931,146.524772 78.7470968,145.879838 C75.0026005,145.234903 71.8494572,140.780278 71.6525245,139.994706" id="Path-356"></path>
                    <path d="M133.874975,160.013883 C133.874975,160.013883 127.39181,154.948694 112.922425,154.948694 C104.340116,154.948694 99.2503795,148.948438 99.2503795,148.948438 C99.2503795,148.948438 94.33997,138.45698 80.697653,134.130735" id="Path-357"></path>
                    <path d="M73.1424023,139.508092 C73.1424023,139.508092 74.6388761,143.389821 78.3126928,144.06307 C81.9865096,144.736318 83.0437748,143.4512 90.349693,144.625069 C91.901781,144.874449 92.2350294,143.865507 89.1783103,140.696347 C86.1215912,137.527188 79.3028301,134.942565 79.3028301,134.942565" id="Path-358"></path>
                    <path d="M191.82397,289.087984 C191.82397,289.087984 177.611801,278.071578 173.504369,269.857427 C169.396937,261.643276 164.726421,243.146499 164.726421,227.447743 C164.726421,219.063284 164.726421,231.158223 164.726421,208.452603 C164.726421,185.746983 166.60072,179.183874 165.524614,175.259517 C164.448507,171.33516 163.461632,169.480474 163.180155,164.855339 C162.898677,160.230204 163.781788,151.861251 163.912353,150.740006 C164.042918,149.618762 164.592293,146.363113 168.081071,139.635644" id="Path-359"></path>
                    <path d="M165.39943,174.88317 C165.39943,174.88317 166.139052,166.447147 172.098737,162.545067 C178.058421,158.642986 179.103604,160.038774 183.256891,158.068672 C187.410177,156.098571 192.152227,150.487514 199.798685,147.42177 C207.445142,144.356026 218.33587,138.04391 218.481228,137.313971" id="Path-360"></path>
                    <path d="M163.097353,163.892216 C163.097353,163.892216 163.694417,163.233189 163.912307,162.980149 C164.996006,161.721632 169.497854,158.402756 178.854087,154.020566 C188.21032,149.638376 198.455823,142.880684 199.909404,140.106916 C201.362986,137.333147 201.9438,135.872651 201.9438,135.872651" id="Path-361"></path>
                    <path d="M202.944606,136.414538 C202.944606,136.414538 202.944606,142.114866 200.8298,142.890581 C199.731093,143.293589 203.302997,142.800069 207.73091,140.883868 C212.158823,138.967666 217.002905,136.414538 217.002905,136.414538" id="Path-362"></path>
                    <path d="M154.156939,162.455536 C154.156939,162.455536 151.100655,153.07624 143.458585,148.029863 C135.816516,142.983486 132.257642,144.914661 129.019339,141.414203 C125.781036,137.913744 121.955383,124.580267 120.000991,122.178524 C118.046599,119.776781 108.672906,108.803206 107.912231,106.151508" id="Path-363"></path>
                    <path d="M103.600832,108.337529 C103.600832,108.337529 110.655008,117.789637 111.293432,121.109694 C111.931856,124.42975 114.106301,132.364739 117.0349,136.578657 C119.9635,140.792575 125.026881,149.065547 125.026881,149.065547 C125.026881,149.065547 130.111451,156.086026 133.764323,159.351745" id="Path-364"></path>
                    <path d="M113.881067,130.379555 C113.881067,130.379555 110.216894,121.025708 98.1074542,117.502946" id="Path-365"></path>
                    <path d="M101.213828,112.525633 C101.213828,112.525633 108.431869,115.222928 111.113205,120.594595" id="Path-366"></path>
                    <path d="M99.9783456,113.090741 C99.9783456,113.090741 102.717749,114.615181 105.119747,116.409105 C107.521745,118.203028 109.601834,120.278858 108.028628,119.548037 C104.888239,118.089192 96.9763327,115.512021 96.9763327,115.512021" id="Path-367"></path>
                    <path d="M153.055625,124.485092 C153.055625,124.485092 153.392415,155.22188 152.221991,158.188743" id="Path-368"></path>
                    <path d="M160.251749,130.813798 C160.251749,130.813798 161.223346,145.506983 160.265726,148.050008 C159.308106,150.593033 166.235069,133.862272 166.235069,133.862272" id="Path-369"></path>
                    <path d="M130.715115,142.892629 C130.715115,142.892629 131.478532,132.096716 130.257769,127.562109 C129.70769,125.518802 126.992823,118.615952 125.46027,115.913051 C123.927716,113.21015 122.082758,110.471994 121.875682,110.111458 C121.356669,109.207808 121.487384,106.875859 121.646668,106.156229" id="Path-370"></path>
                    <path d="M138.623363,145.430153 C138.623363,145.430153 134.456959,143.986699 133.667578,133.376448 C132.878196,122.766196 133.310782,121.850213 133.310782,119.379112 C133.310782,116.908012 133.586006,109.982571 131.201161,105.104605" id="Path-371"></path>
                    <path d="M123.418136,105.447479 C123.418136,105.447479 122.648218,107.702304 123.28199,108.625102 C123.915762,109.5479 129.89901,115.744644 129.585248,117.868425 C129.405198,119.087147 130.457822,114.156554 130.264466,110.228306 C130.071109,106.300058 128.852254,105.072527 128.852254,105.072527" id="Path-372"></path>
                    <path d="M119.317546,60.120437 C119.317546,60.120437 117.185113,59.557724 116.784257,56.8842004 C116.3834,54.2106768 120.155186,42.1240868 120.155186,42.1240868" id="Path-373"></path>
                    <path d="M117.432017,61.9323045 C117.432017,61.9323045 113.453641,59.8837077 113.253071,58.0900421 C113.052501,56.2963765 112.989551,53.7398409 112.607153,52.7647015 C112.224755,51.7895621 110.188935,49.4076704 110.188935,49.4076704" id="Path-374"></path>
                    <path d="M111.114318,48.6544004 C111.114318,48.6544004 114.642905,52.8849231 114.736117,54.3069001 C114.783455,55.0290659 115.451065,51.7717123 116.379236,48.4538003 C117.307406,45.1358884 118.94045,41.6701069 118.94045,41.6701069" id="Path-375"></path>
                    <path d="M67.0635533,113.020416 C67.0635533,113.020416 65.2363913,109.827939 62.8610481,108.836833 C60.4857049,107.845727 58.8917074,108.052167 59.4105393,106.187687 C59.9293711,104.323207 58.6027791,98.0308742 58.6027791,98.0308742" id="Path-376"></path>
                    <path d="M64.5145803,113.680732 C64.5145803,113.680732 62.2783637,112.810447 61.2147627,112.218339 C60.1511616,111.62623 58.8035755,111.582203 58.4914347,110.957874 C58.1729504,110.320857 57.4895721,109.322911 56.9319841,108.231089 C56.3743961,107.139266 55.4657949,105.024138 55.2363062,104.577272 C54.8448024,103.814926 50.3761611,100.194088 50.104829,100.194088" id="Path-377"></path>
                    <path d="M55.669249,93.7007387 C55.669249,93.7007387 56.4179376,97.3607328 56.7308187,100.170861 C57.0436999,102.980989 56.7308187,103.051366 56.7308187,103.323715 C56.7308187,103.620852 55.4791466,102.564838 54.0473047,101.322438 C52.6154628,100.080038 49.9724694,97.9538412 49.9724694,97.9538412" id="Path-378"></path>
                    <path d="M176.553634,95.4096897 C176.553634,95.4096897 180.193886,91.7606863 181.749341,89.6748447 C183.304795,87.589003 185.106815,83.9399997 185.106815,83.9399997" id="Path-379"></path>
                    <path d="M178.734622,95.8785473 C178.734622,95.8785473 179.980786,94.5577707 182.006307,93.1866443 C184.031827,91.8155178 183.965924,90.5917756 185.634843,89.8454299 C190.63576,87.6090053 199.830561,86.7504148 199.830561,86.7504148" id="Path-380"></path>
                    <path d="M187.195569,83.9822935 C187.195569,83.9822935 186.52778,87.3666073 186.052514,87.8398957 C185.836283,88.0552271 188.122586,87.0685369 191.128196,86.3958627 C194.133806,85.7231885 199.699094,85.7217258 199.699094,85.7217258" id="Path-381"></path>
                    <path d="M220.955452,96.9791905 L228.073934,92.8348299" id="Path-382"></path>
                    <path d="M220.08787,99.5120081 C220.08787,99.5120081 229.120716,94.5572926 229.336122,94.0164448" id="Path-383"></path>
                    <path d="M247.780792,110.284285 C247.780792,110.284285 256.132268,111.288087 258.173008,110.284285 C260.213748,109.280484 265.044946,108.154734 266.235378,108.154734 C266.925397,108.154734 269.576527,108.191386 271.58436,107.517136 C273.592194,106.842885 274.093029,105.813341 274.128772,105.638716" id="Path-384"></path>
                    <path d="M251.573891,106.865786 C251.573891,106.865786 252.741527,107.366602 254.527175,107.116194 C256.312822,106.865786 262.407905,104.97434 264.363614,104.716333 C265.501533,104.566213 267.707777,104.720247 269.497306,104.716333 C271.286834,104.712418 272.396862,104.239014 272.396862,104.239014" id="Path-385"></path>
                    <path d="M37.0547815,143.739518 C37.0547815,143.739518 37.8862014,148.98068 43.9907964,148.291536 C50.0953915,147.602391 47.5616745,137.903634 47.5616745,137.903634 C47.5616745,137.903634 51.0177039,138.893663 52.6734978,137.752135" id="Path-386"></path>
                    <path d="M52.6812401,137.55548 C52.6812401,137.55548 53.0637434,139.684033 56.1437646,140.183584 C59.2237859,140.683135 59.2045311,138.349058 59.2045311,138.349058 C59.2045311,138.349058 60.0551206,141.13991 61.6099426,140.804778 C62.0320462,140.713796 64.1804769,138.85149 63.8181901,139.246778 C63.4559033,139.642065 64.3600422,141.979232 66.3480098,141.212484 C67.0792577,140.930445 67.4062619,139.905473 67.5407479,139.401961" id="Path-387"></path>
                    <path d="M67.1300872,139.328534 C67.1300872,139.328534 71.1335321,140.626745 73.7996403,139.328534 C76.4657485,138.030323 74.3122812,135.538267 74.3122812,135.538267 C74.3122812,135.538267 78.160684,136.038222 80.0562463,134.620826 C81.9518087,133.203429 81.0573047,131.316866 80.4757181,130.401335 C79.8834946,129.469059 85.7149884,133.063813 88.7852399,130.586834 C91.8554913,128.109855 90.1533833,123.423486 90.1533833,123.423486" id="Path-388"></path>
                    <path d="M94.1013666,121.827488 C94.1191622,120.157891 94.5175564,119.055441 95.2965493,118.520137 C95.8255453,118.156624 97.4035607,118.491158 97.8792642,117.578208 C98.1022167,117.150327 97.8746493,116.524174 97.1965622,115.69975 L97.196588,115.699728 C96.913624,115.355698 96.9631279,114.847419 97.3071581,114.564455 C97.4142522,114.47637 97.542247,114.417384 97.6787853,114.39319 C99.083584,114.144269 100.085954,113.610967 100.685894,112.793285 C101.256823,112.015144 101.381086,111.210061 101.058684,110.378036 L101.058628,110.378058 C100.897662,109.962653 101.103926,109.495411 101.519332,109.334445 C101.587501,109.30803 101.658945,109.291005 101.731701,109.283838 C102.686993,109.189726 103.379503,108.978276 103.809229,108.649489 C104.298693,108.274996 104.866151,107.362914 105.511605,105.913244 L105.511579,105.913233 C105.692778,105.506265 106.169581,105.323243 106.576549,105.504442 C106.651573,105.537846 106.721055,105.58251 106.782593,105.636892 C107.261173,106.059811 107.73682,106.347064 108.209533,106.498648 C108.945832,106.734757 110.578045,106.931294 113.106172,107.088259" id="Path-389"></path>
                    <path d="M115.921217,106.97843 C115.921217,106.97843 117.100378,108.883552 118.397146,108.446896 C119.693913,108.010241 123.174962,105.086356 123.174962,105.086356 C123.174962,105.086356 124.333118,106.06866 126.288139,106.06866 C128.24316,106.06866 130.675409,104.33918 130.675409,104.33918 C130.675409,104.33918 130.980541,104.754879 131.230289,105.449563 C131.480037,106.144247 132.129353,106.630186 132.41015,106.97843 C133.022431,107.737778 135.09854,107.994438 135.09854,107.994438 C135.09854,107.994438 137.200504,108.42937 138.102925,109.227239 C139.005346,110.025107 140.609859,111.217731 141.560273,111.026286" id="Path-390"></path>
                    <path d="M146.052588,109.533262 C146.052588,109.533262 151.786537,113.027451 149.875221,115.776908 C147.963904,118.526365 148.412186,121.052819 149.714098,121.052357 C151.016009,121.051895 152.978356,120.557371 152.560216,121.378707 C152.379639,121.733408 152.133408,123.535418 152.560216,124.269803 C152.987024,125.004187 156.610949,126.344992 156.610949,126.344992 C156.610949,126.344992 158.509222,129.980769 159.999557,131.005525 C161.489892,132.030282 166.264529,132.535509 166.264529,132.535509 C166.264529,132.535509 166.028385,140.223595 168.54159,139.870544 C169.297378,139.764373 168.357432,142.478058 168.173348,143.417819 C168.088271,143.852147 167.020045,147.352196 168.916783,149.720251 C170.813521,152.088305 173.395774,151.012866 174.041715,151.116706" id="Path-391"></path>
                    <path d="M185.517332,143.986396 C185.517332,143.986396 191.672763,146.675175 193.438133,144.155791 C195.203503,141.636406 192.132723,139.453986 192.877055,138.290856 C193.621387,137.127727 198.604587,135.843768 202.126931,136.100781 C205.649275,136.357794 205.173082,138.290856 205.173082,138.290856" id="Path-392"></path>
                    <path d="M206.677626,133.478899 C206.677626,133.478899 209.126567,131.273415 211.05824,132.717256 C212.989913,134.161098 211.953534,136.154177 213.212061,136.74371 C214.470588,137.333242 215.89668,135.953579 217.371105,136.480267 C218.845529,137.006954 218.107554,137.853666 219.551078,138.643985 C220.994603,139.434304 222.621738,140.311264 225.256342,139.211755 C227.890945,138.112246 228.064584,134.577716 228.064584,134.577716" id="Path-393"></path>
                    <path d="M234.100445,132.527661 C234.100445,132.527661 236.235197,130.354629 236.731036,129.271818 C237.226875,128.189008 241.266636,129.514992 241.84682,130.510274" id="Path-394"></path>
                    <path d="M243.970632,131.48085 C243.970632,131.48085 244.474235,135.438331 246.298779,135.910913" id="Path-395"></path>
                    <path d="M251.085298,133.851527 C251.085298,133.851527 248.426121,138.30806 250.558756,142.099308 C252.691392,145.890555 258.358068,144.39728 258.358068,144.39728" id="Path-396"></path>
                    <path d="M258.003742,140.986871 C257.837746,142.970759 258.484505,144.602353 259.944018,145.881654 C262.133287,147.800606 266.788374,149.935036 269.283598,149.372096 C271.929765,148.775102 273.309937,147.53155 273.424114,145.641438 C274.766616,147.031455 275.954358,147.214948 276.987338,146.191916 C278.020319,145.168884 277.756918,143.90012 276.197134,142.385626 C277.18734,141.393095 277.695236,140.557925 277.720823,139.880114 C277.759204,138.863397 276.714054,137.096999 276.197134,136.46294 C275.953227,136.16376 276.865137,134.819691 278.057487,134.400259 C278.852388,134.120638 279.846409,134.120638 281.039553,134.400259 C282.495296,135.810749 283.907379,136.074903 285.275803,135.192719 C287.328437,133.869444 285.082107,131.780121 285.082107,131.022417 C285.082107,130.264713 285.189891,129.385236 287.1273,129.795433 C289.06471,130.20563 292.963656,131.286486 292.500725,132.451906 C292.037794,133.617327 293.112705,134.400259 294.573428,134.400259 C295.395725,134.400259 296.085378,133.866116 296.642388,132.797831 L296.642421,132.797847 C296.844116,132.411018 297.316835,132.254673 297.709403,132.44496 C299.159037,133.14763 299.774771,134.486957 299.556604,136.46294 C299.176184,139.908477 296.936788,138.276328 297.251679,140.679464 C297.566569,143.0826 302.52033,142.893076 302.699177,143.012316" id="Path-397"></path>
                    <path d="M300.057055,143.117038 C299.514126,145.821662 300.569044,147.242223 303.22181,147.378723 C305.874575,147.515222 307.083304,145.542402 306.847997,141.460264 C307.444457,139.360494 308.577011,137.956943 310.245659,137.24961 C312.748632,136.188611 316.192312,137.110606 316.84439,135.742797 C317.279109,134.830925 317.513529,133.964761 317.547651,133.144305 C320.212939,133.290822 321.545583,132.210413 321.545583,129.903076 C321.545583,128.441033 320.549152,126.954883 319.500599,126.039306 C318.452046,125.123728 318.49869,122.66784 316.604909,121.489908 C314.711127,120.311977 311.981195,119.511454 309.86468,120.056198 C309.31429,120.197856 307.567323,120.29849 306.590202,119.511454 C305.613081,118.724417 305.151748,117.886592 305.151748,117.290838 C305.151748,115.183867 308.024899,115.552822 308.061839,113.933617 C308.098779,112.314411 305.592067,112.777841 304.279911,111.443447 C303.40514,110.55385 302.907968,109.242133 302.788395,107.508296" id="Path-398"></path>
                    <path d="M299.925653,109.241722 C302.927849,108.055567 304.428947,106.44646 304.428947,104.414401 C304.428947,102.527875 302.659271,100.92941 299.11992,99.6190046 L299.119914,99.6190192 C298.702151,99.4643471 298.488874,99.0002966 298.643546,98.5825334 C298.646439,98.5747189 298.649453,98.5669496 298.652587,98.5592284 C299.163844,97.2996645 298.945156,96.2424708 297.996525,95.3876472 C296.295493,93.8548265 290.26861,95.7269091 289.908252,93.1719792 C289.547895,90.6170494 288.201733,89.0882083 287.379949,88.1678434 C286.558166,87.2474785 285.189294,86.4207657 283.687023,86.2044496 C282.184752,85.9881335 280.194629,86.5455309 279.279802,86.6539415 C277.45474,86.8702189 278.396525,85.7738325 277.036288,85.7738325 C276.129464,85.7738325 275.336419,85.9173716 274.657155,86.2044496" id="Path-399"></path>
                    <path d="M289.330528,91.0358287 C289.330528,91.0358287 286.96379,85.2759924 291.229032,84.9334298 C295.494275,84.5908672 298.757369,86.8068297 300.831599,84.9639855 C302.905829,83.1211412 303.529117,81.2878031 302.180358,80.8871848 C300.831599,80.4865665 297.788201,79.482804 298.399216,78.5316849 C299.010231,77.5805658 302.625757,75.6295786 305.0191,75.3080655 C307.412443,74.9865523 308.656308,70.7851526 302.949962,70.8211403 C301.67952,70.8291525 301.053945,71.82928 300.189923,72.0978067 C299.822946,72.2118587 298.071522,71.9448264 297.134578,72.4092458 C296.197635,72.8736651 295.142555,74.2780734 294.213011,74.2772856 C292.134389,74.2755239 288.971529,69.8386289 287.752541,69.9073344 C286.533552,69.9760399 284.605881,71.0537169 284.087851,70.0921582 C283.56982,69.1305995 283.487388,68.0240079 282.616725,68.149197 C281.746061,68.2743861 280.452183,69.7886413 279.507743,69.0437662 C278.563304,68.2988912 279.458204,63.8004746 276.937301,64.0896081 C274.416397,64.3787416 273.365954,65.0485032 271.608646,65.863564 C269.851338,66.6786248 264.742547,63.7336183 264.616835,63.7334851" id="Path-400"></path>
                    <path d="M287.663834,69.9123142 C287.663834,69.9123142 290.946866,68.8731268 289.852522,67.564936 C288.758178,66.2567453 287.472157,66.7171972 287.069292,66.1991888 C286.666427,65.6811803 287.227804,62.7696998 288.02256,62.0790219 C288.817315,61.388344 289.505502,57.8300846 285.761688,57.2528125 C282.017874,56.6755404 279.027115,58.7634265 278.738623,56.0148601 C278.45013,53.2662937 280.122068,48.4530101 278.341123,47.4404061 C276.560177,46.427802 265.601132,48.1654715 262.973244,43.569732 C260.345356,38.9739924 264.287054,37.3043162 263.812383,35.0216173 C263.337712,32.7389184 260.508502,32.6130245 260.508502,31.7167528 C260.508502,30.8204812 264.740289,28.4004258 264.293285,26.0810942 C263.846281,23.7617627 264.760774,23.4983686 265.605766,22.4811308 C266.450758,21.4638929 266.564155,18.986281 263.246617,17.4551808 C259.929079,15.9240805 257.167065,16.0440712 256.333534,18.0695232 C255.972188,18.9475832 254.345328,21.3559797 252.193196,21.8270354 C250.041064,22.2980911 248.259411,22.4811308 246.049995,20.4125114 C243.840579,18.3438921 243.20775,18.1992692 239.523926,18.3792552 C237.831139,18.4619621 237.538319,20.9968026 236.469762,23.2047329 C235.401206,25.4126633 233.730227,28.7335388 233.045899,29.0433025" id="Path-401"></path>
                    <path d="M244.679172,42.6244481 C244.679172,42.6244481 241.183644,44.0864339 240.944806,40.0943506 C240.705968,36.1022672 239.278599,38.4204172 238.120345,35.2334986 C236.96209,32.0465801 239.956661,31.3397468 237.152005,29.6585208 C234.347349,27.9772948 232.061302,29.6137709 230.676469,29.6585208 C227.2827,29.7681881 228.282074,26.1675153 225.3217,23.8876662 C222.361326,21.6078171 217.983612,23.1810459 218.788644,18.2287357 C219.593677,13.2764255 216.092771,12.4399996 213.028396,13.8681604 C209.964022,15.2963212 211.638537,12.1311516 209.095732,9.97727264 C206.552928,7.8233937 204.644184,7.55662066 200.164587,8.27637073 C195.684991,8.9961208 196.139425,5.46242249 196.139425,5.46242249 C196.139425,5.46242249 196.574167,2.98596899 194.458048,1.67687133 C192.341928,0.367773666 188.772394,-0.964599496 186.661348,2.46913353 C185.986317,3.56710811 183.306947,1.67687133 181.872032,3.9259411 C180.437117,6.17501087 181.915126,7.60579081 181.480257,8.55179748 C181.045389,9.49780415 179.171067,8.41098787 177.713249,9.40039199 C177.11716,9.80495087 177.304349,12.3731447 174.693229,12.8333829 C172.082109,13.2936211 169.896793,12.7331979 167.22153,12.1044184" id="Path-402"></path>
                    <path d="M168.061834,14.5746013 C168.061834,14.5746013 167.308618,7.65345418 164.130146,5.92848552 C160.951674,4.20351687 159.692137,7.28650423 159.692137,7.28650423 C159.692137,7.28650423 157.603416,4.31899594 155.822742,5.45669273 C154.042069,6.59438952 151.324338,12.9738486 149.699018,12.9738486 C148.073698,12.9738486 144.622123,9.26087291 142.829295,9.88575145 C141.036467,10.51063 140.720823,18.3299503 137.452709,19.7555851 C136.775098,20.0511764 136.121716,18.9614576 135.603411,19.2259541 C135.085106,19.4904505 132.74931,22.1448988 131.949638,20.1552034 C130.940792,17.6450531 132.961942,14.3186546 132.797053,12.2441272 C132.632165,10.1695998 132.492669,9.40717127 130.99359,8.12676643 C129.49451,6.84636159 125.281849,6.64693272 122.317744,7.28650423 C116.854936,8.46522648 110.449373,4.75850018 108.592352,6.45383933 C106.735331,8.14917849 105.296511,10.6350175 105.296511,10.6350175" id="Path-403"></path>
                    <path d="M107.950917,13.6485903 C107.950917,13.6485903 105.783806,9.47909458 103.349332,9.02812263 C100.914858,8.57715068 102.474548,10.9447749 100.978382,11.1282035 C99.4822158,11.3116321 100.340473,3.51568591 93.9591806,3.01628316 C87.577888,2.51688041 86.5152574,7.32414834 84.6004289,7.14455066 C82.6856004,6.96495298 81.7425088,1.69601986 76.4266012,2.11664203 C71.1106936,2.5372642 68.3436435,5.97914258 70.8669331,8.85943921 C72.0091646,10.1632791 72.7173096,8.94934205 74.3726777,11.1282035 C76.0280459,13.3070649 73.9581015,12.7038424 73.3026103,15.6220018 C73.0973063,16.5359882 72.6421157,15.3181732 71.5505643,15.3181732 C70.4590129,15.3181732 71.4553404,15.9574591 70.8669331,17.6609313 C70.1362024,19.7764377 67.5884228,15.8608227 68.1698674,16.9816554 C68.751312,18.1024882 69.2864834,19.2007335 68.1698674,20.776345 C67.0532514,22.3519565 63.6546512,23.277766 61.5062533,21.987252 C59.3578554,20.6967381 58.1862032,19.2264144 57.7643138,18.5806655 C57.3424244,17.9349167 53.9132041,16.6387641 54.5575744,19.1906642 C54.7907101,20.113952 55.7009758,19.9965117 55.9405013,21.1116763 C56.1800267,22.2268408 54.1535615,24.3759518 53.0872647,25.435033 C51.5224919,26.9892169 49.7741463,26.9693557 49.2709184,25.9909745 C48.7676905,25.0125934 48.759169,20.9456311 46.8371536,19.5578377 C44.9151381,18.1700443 40.6096652,19.7371069 40.6096652,19.7371069 C40.6096652,19.7371069 34.4054988,13.3346105 29.6949731,17.6609313 C24.9844474,21.987252 34.8827788,23.1792373 34.8827788,23.1792373 C34.8827788,23.1792373 36.4092217,23.3608255 35.4398861,23.4680714 C34.4705505,23.5753173 29.0600802,25.0638391 30.4159402,27.5778654 C31.7718003,30.0918917 37.6191324,29.654273 36.179598,33.7293762 C34.7400637,37.8044794 29.6949731,35.8647028 33.0766451,40.7231188" id="Path-404"></path>
                    <path d="M39.4062627,35.2898511 C39.4062627,35.2898511 43.4751018,30.2812311 52.8114821,35.5317329" id="Path-405"></path>
                    <path d="M42.1384087,39.4067692 C42.1384087,39.4067692 30.9220905,38.9878361 30.9095804,43.046369 C30.8970702,47.1049019 31.7696728,44.3852044 31.7696728,44.3852044 C31.7696728,44.3852044 22.6543988,46.1354685 23.473085,49.3681978 C24.2917711,52.6009271 32.0256426,52.2685897 29.7019218,53.6582875 C27.3782011,55.0479853 30.0027545,59.5041025 27.585222,61.0535922 C25.1676895,62.603082 29.4191313,63.9123678 30.9095804,64.3874537 C32.4000294,64.8625396 35.1502935,65.9710611 35.5325629,67.4139611 C35.9148323,68.856861 31.7696728,75.3378284 31.7696728,75.3378284" id="Path-406"></path>
                    <path d="M35.4665011,68.2040451 C35.392453,68.748138 35.110089,69.2225404 34.619409,69.6272524 C33.883389,70.2343205 28.9317164,74.0606289 26.1438375,74.1704941 C22.1911382,74.3262627 21.6790393,74.9337831 22.098965,76.576101 C22.5188907,78.2184189 25.2195893,80.8417816 23.4996322,83.0852153 C21.7796751,85.3286491 20.6890946,83.7368242 20.6890946,82.18937 C20.6890946,80.6419158 16.63858,82.1525322 14.7387752,86.5191453 C12.8389704,90.8857584 9.93423138,90.870641 11.2030267,92.9370395 C12.471822,95.003438 17.5200513,95.1305947 15.7504861,97.9790683 C13.980921,100.827542 6.72575958,101.837975 9.3183207,104.572871 C11.9108818,107.307766 13.1961096,105.826826 14.2942622,106.712549 C15.3924147,107.598272 16.274293,108.796078 15.9135711,109.892318 C15.5528492,110.988559 13.5679472,110.864319 11.5724159,110.373973 C6.62758981,109.15892 -2.59989682,113.859434 3.35921194,120.075794 C7.2502849,124.134842 7.41350283,125.888286 3.84886573,125.336127 L3.84886846,125.336109 C3.69338822,125.312025 3.53425883,125.333939 3.3910752,125.39915 C0.744785286,126.604382 0.0677556761,128.253684 1.35998637,130.347058 C3.35295748,133.57561 3.33153698,133.627075 2.59775558,134.357803 C1.86397418,135.088531 -2.29102111,139.872687 3.51364979,141.124919 C7.38343039,141.95974 8.59455466,142.517077 7.14702258,142.796931 C5.88406762,143.124447 5.48620615,144.067169 5.95343816,145.625097 C6.65428618,147.961989 12.9182063,148.000674 15.7504861,146.958058" id="Path-407"></path>
                    <path d="M10.135787,147.639497 C9.52823674,151.085352 10.7251217,152.800716 13.726442,152.785588 C18.2284223,152.762895 19.3214197,147.792494 21.3762703,147.541724 C23.4311209,147.290954 27.3839104,150.59558 28.8176523,154.475209 C29.6778974,156.802985 30.5546872,157.035763 31.4480217,155.173542 L31.8061515,155.345342 C31.7770949,155.405912 31.7633908,155.472703 31.7662479,155.539821 C31.980595,160.575138 33.918246,162.630419 37.5792008,161.705666 C43.4427278,160.224544 36.6305045,161.502534 37.1566647,163.711636 C37.3968904,164.720232 39.9142781,165.16856 44.7088278,165.056618 C44.5378332,166.11892 44.8222038,166.741307 45.5619398,166.92378 C46.6715438,167.197489 48.5338741,164.836778 48.4367554,168.070995 C48.3987142,169.33783 47.8640424,172.4198 48.7490954,174.271187 C49.6341485,176.122574 55.0349265,178.167875 56.2435155,174.271187 C56.9326667,172.049251 56.7939694,172.513635 57.1045496,173.184107 C57.4151299,173.85458 58.7914035,175.266982 61.2778896,174.271187 C62.935547,173.607323 63.7653855,172.602241 63.7674051,171.25594 C63.8163146,169.935105 62.9589919,168.647333 61.195437,167.392623 C59.431882,166.137913 61.1160795,165.113339 66.2480295,164.318899 C66.8049216,165.771669 67.6910038,166.257815 68.9062762,165.777336 C70.7291848,165.056618 71.0026211,167.150925 73.8509157,165.777336 C75.5598925,164.953183 76.0034556,163.926643 75.1816051,162.697715 L75.5174543,162.473115 C75.5654865,162.544938 75.6353531,162.599401 75.7167265,162.628453 C77.3847793,163.22399 78.8433238,163.24247 80.0923601,162.683892 C81.4048082,162.096956 81.4342337,161.009199 80.1806365,159.42062 L80.4206232,159.231239 C80.4642466,159.28652 80.5190363,159.33198 80.5814168,159.364654 C83.0788856,160.672799 84.3005276,160.244194 84.2463427,158.078841 C84.1561669,154.475209 85.5233484,155.39615 87.6429644,155.281724 C89.7625804,155.167299 92.652693,155.110266 94.2749227,153.4748 C95.3564092,152.38449 95.8971524,151.192153 95.8971524,149.897791" id="Path-408"></path>
                    <path d="M99.0207938,148.534097 C99.0207938,148.534097 104.20391,147.355173 104.254955,143.651583 C104.306,139.947994 109.420908,143.651583 108.905465,145.59277 C108.390022,147.533956 111.392628,148.647927 114.462341,146.700791 C115.606275,145.975188 116.337774,144.32673 117.206962,144.056464 C118.076151,143.786198 120.416793,144.443396 122.22629,144.536069" id="Path-409"></path>
                    <path d="M136.217836,143.07197 C136.217836,143.07197 139.525236,144.005561 140.265153,141.196104 C141.005071,138.386647 139.629383,136.689626 139.629383,135.848472 C139.629383,135.007318 141.29554,138.426529 143.035934,137.700788 C144.776329,136.975046 144.398932,134.916766 144.776329,135.537969 C145.153725,136.159171 145.714823,137.700788 147.222063,137.700788 C148.729303,137.700788 146.941755,134.464735 148.729303,134.337224 C150.516851,134.209713 153.045464,135.537969 153.045464,135.537969" id="Path-410"></path>
                    <path d="M173.300821,147.930775 C173.300821,153.009667 175.423977,154.832333 179.67029,153.398772 C183.916602,151.965212 184.84525,149.729708 182.456234,146.692261 C184.685792,147.321873 186.313194,147.393785 187.338439,146.907996 C188.363685,146.422207 189.017935,145.824985 189.301189,145.116331" id="Path-411"></path>
                    <path d="M186.301158,156.133311 C186.301158,156.133311 192.679373,153.809114 193.695406,157.288266 C194.711439,160.767418 192.346729,162.500759 193.787517,163.717195 C195.228305,164.933631 197.737654,163.771255 198.452767,163.339538 C199.16788,162.907821 200.133309,162.721494 200.133309,164.599312 C200.133309,166.477129 202.099205,166.224237 202.66454,165.492544 C203.173823,164.833397 203.389084,163.561495 206.059946,163.897305 C208.730808,164.233115 210.952665,166.021361 211.769127,166.282735 C212.922641,166.65201 212.11967,167.717737 214.154875,167.573726 C216.19008,167.429714 215.230378,171.085801 219.033487,169.865005 C222.836596,168.64421 219.600488,166.262323 220.37599,166.049906 C221.151492,165.83749 224.866401,168.216957 225.571402,166.408134 C226.276404,164.599312 223.900698,163.15948 225.141501,162.239008 C226.382304,161.318535 226.844905,159.172167 229.050511,159.383684 C230.146358,159.488775 233.231844,160.88505 234.682724,159.957329 C236.133605,159.029607 234.937725,156.459354 235.897727,154.429995 C236.857729,152.400636 239.075935,152.57225 240.344938,152.995283 C241.613941,153.418316 245.051949,154.619203 244.628348,157.288266 C244.204747,159.957329 246.850153,160.028788 249.019158,158.658527 C251.188164,157.288266 250.653562,154.273983 251.569164,152.400636 C252.484767,150.527289 259.277083,146.180849 259.982085,145.967532" id="Path-412"></path>
                    <path d="M168.015912,89.645093 C171.339011,86.9744642 173.62803,86.5983162 174.882972,88.5166489 C176.765384,91.3941479 174.013889,93.5088302 175.693946,95.1098279 C177.374004,96.7108255 179.594275,94.9968886 180.555781,96.0324358 C181.517288,97.0679829 182.080953,99.393885 184.134599,99.6823459 C184.897749,99.7895402 185.399555,99.573392 185.640015,99.0339015 L185.639959,99.0338765 C185.821326,98.6269641 186.298222,98.444124 186.705134,98.6254918 C186.819417,98.6764294 186.920283,98.7532537 186.999759,98.8498908 C189.105556,101.410395 190.918781,102.291792 192.439434,101.494081 C195.170678,100.061312 198.282119,101.34772 198.150561,99.2338187 C198.019003,97.1199176 198.712987,97.5958287 200.07798,97.6524847 C201.442973,97.7091408 205.280771,98.2535874 207.386058,95.4419536 C208.789583,93.5675311 209.142608,92.2013852 208.445132,91.3435161" id="Path-413"></path>
                    <path d="M175.638187,86.9155035 C175.638187,86.9155035 179.621499,86.5890323 181.030548,84.6235426 C182.439597,82.6580529 186.854951,84.634536 188.577122,84.2407718 C190.299293,83.8470076 190.116416,82.257626 191.368571,82.8056312 C192.620726,83.3536364 201.811191,84.2897425 199.736924,87.6510631 C197.662657,91.0123837 203.671269,89.4046797 205.080318,89.4040134 C206.489367,89.4033471 205.661259,92.5991002 210.24883,90.5903031" id="Path-414"></path>
                    <path d="M216.546623,92.3699371 C216.546623,92.3699371 220.284569,92.4755912 221.216861,94.3950577 C222.149153,96.3145242 220.086586,97.4603112 220.086586,99.2788794 C220.086586,100.451914 221.878317,99.5883649 222.229897,99.9454954 C222.229897,99.9454954 222.585343,101.848534 224.827389,102.490706 C227.069434,103.132878 231.844484,101.517091 231.844484,101.517091" id="Path-415"></path>
                    <path d="M218.299227,91.3470623 C218.299227,91.3470623 222.495971,88.8526976 225.425845,90.09988 C228.35572,91.3470623 229.9258,96.5253129 231.817211,96.7987886 C233.708621,97.0722644 232.454718,98.2068977 232.454718,98.2068977 C232.454718,98.2068977 230.973573,99.3342162 232.454718,102.04919 C233.935863,104.764164 237.312242,103.991284 237.312242,103.991284" id="Path-416"></path>
                    <path d="M235.558903,116.493527 C235.558903,116.493527 248.760109,115.588459 247.775223,112.065576 C246.790337,108.542693 256.59663,104.583605 254.119546,101.831079 C251.642461,99.0785532 257.553858,104.338802 261.852272,104.034849 C266.150686,103.730896 268.765346,102.251931 271.506001,99.0865264 C272.645217,97.7707524 273.294799,99.0865264 275.344266,99.0865264 C277.393733,99.0865264 279.533168,97.1690948 279.533168,97.1690948" id="Path-417"></path>
                    <path d="M246.733514,114.180858 C246.733514,114.180858 249.931097,119.690773 255.604572,118.34271 C261.278047,116.994648 261.257665,113.999495 265.542186,114.180858 C269.826706,114.362221 271.744191,117.102708 274.696964,116.671299 C277.649737,116.239889 279.75853,116.604127 279.702481,115.080956 C279.646431,113.557784 275.249349,110.610809 275.602089,109.070034 C275.954828,107.529259 272.954575,102.814515 268.707807,103.657402" id="Path-418"></path>
                    <path d="M85.3369783,59.4250048 C85.3369783,59.4250048 93.481218,53.393672 101.278963,59.0636486 C104.224874,61.2057098 104.381337,62.3075449 105.941451,61.3437054 C107.501565,60.3798659 106.938105,59.9653809 106.516657,59.4250048 C106.095209,58.8846286 105.939158,56.8400009 109.27942,58.8794402 C112.619683,60.9188795 116.515127,62.4890078 118.172571,61.8454249 C119.830015,61.201842 119.688927,59.3128414 119.688927,59.3128414 C119.688927,59.3128414 122.85279,60.6202957 126.15973,59.4250048 C127.498804,58.9409971 129.412701,59.1431844 130.382902,58.6483007 C131.353104,58.153417 131.661922,56.7499665 130.76031,55.9275196 C129.245177,54.5454215 134.104241,56.7180106 134.442822,54.5172934 C134.781403,52.3165762 134.91332,50.2091097 130.382902,48.9580213" id="Path-419"></path>
                    <path d="M125.444811,45.7699164 C125.444811,45.7699164 133.612495,43.7888735 132.01971,49.3593052" id="Path-420"></path>
                    <path d="M97.8741986,55.1333511 C98.5470671,51.1592148 101.173498,49.5741268 105.753491,50.3780872 C110.056236,51.1333802 112.147546,49.4324645 112.027422,45.27534 L112.027438,45.2753396 C112.014679,44.8338036 112.359446,44.4641428 112.8008,44.4461377 C115.131609,44.3510522 116.78099,43.2945226 117.748942,41.2765489 C118.360386,40.0018193 118.390158,42.2996907 121.285265,42.6281148 C123.215337,42.8470643 124.652921,42.6845278 125.598018,42.1405055" id="Path-421"></path>
                    <path d="M46.7137286,113.608654 C46.7137286,113.608654 57.9190031,111.635918 57.0158933,118.427006 C56.9089089,119.231493 56.9089089,119.092635 56.9089089,119.092635 C56.9089089,119.092635 60.0244253,116.049067 65.4394332,117.186016" id="Path-422"></path>
                    <path d="M62.6025708,115.262925 C62.6025708,115.262925 64.2910682,112.173515 68.116629,113.076771 C71.9421898,113.980027 72.7769592,115.53693 74.3697069,116.433147" id="Path-423"></path>
                    <path d="M71.7249872,114.133272 C72.1960898,112.999087 73.5708463,112.778263 75.8492568,113.470801 C78.1276672,114.163338 80.6754332,113.423112 83.4925549,111.250121 C89.388314,110.289502 90.313689,108.367832 86.2686798,105.485113 C80.201166,101.161033 81.7452317,105.576607 80.8210794,107.416421 C79.8969272,109.256234 75.1667693,109.504175 76.947753,106.767976 C78.7287366,104.031777 72.3157715,110.681949 71.7249872,106.767976 C71.134203,102.854003 71.418375,102.495794 68.5969379,101.833754 C65.7755008,101.171715 65.420124,101.47684 65.3685545,100.458318 C65.3169849,99.4397956 64.3919695,103.426921 61.6212389,101.833754 C59.7740852,100.771643 58.2984911,98.4283945 57.1944568,94.8040094 C56.5156375,93.4871236 55.1909401,93.1447391 53.2203647,93.7768558 C51.6699424,94.2741967 51.3393716,94.8788471 52.2286521,95.590807 L52.2286436,95.5908176 C52.5763877,95.8692224 52.6325984,96.3768163 52.3541937,96.7245604 C52.2968279,96.7962138 52.2276525,96.8575497 52.1496474,96.9059258 C50.516547,97.9187194 49.2924181,98.3021306 48.4772605,98.0561592 C47.0005157,97.6105557 50.5853548,99.8217414 50.5853548,101.833754 C50.5853548,103.845767 49.0141017,105.984232 47.7408301,105.118272 C47.1843362,104.739797 49.7682255,106.951396 48.7545278,109.622212 C48.0787293,111.402755 45.9478351,112.685618 42.3618453,113.470801" id="Path-424"></path>
                </g>
                <path d="M0.758330549,291.816077 L175.055227,291.816077 M188.126899,291.816077 L318.906852,291.816077 M852.708858,291.816077 L929.44134,291.816077" id="Path-6"></path>
            </g>
        </g>
    </g>
</svg>