<?xml version="1.0" encoding="UTF-8"?>
<svg width="1110px" height="500px" viewBox="0 0 1110 500" version="1.1" xmlns="http://www.w3.org/2000/svg" xmlns:xlink="http://www.w3.org/1999/xlink">
    <!-- Generator: Sketch 47 (45396) - http://www.bohemiancoding.com/sketch -->
    <title>dom-3-1110@3x</title>
    <desc>Created with Sketch.</desc>
    <defs></defs>
    <g id="Page-1" stroke="none" stroke-width="1" fill="none" fill-rule="evenodd">
        <g id="dom-3-1110" stroke="#FFFFFF">
            <g id="dom-3" transform="translate(0.000000, 10.000000)">
                <g id="дом3_белый" transform="translate(394.000000, 0.000000)">
                    <path d="M632.9372,112.148512 L636.42539,440.954995 L187.401308,480.502377 L0.861894782,443.193755 L2.50484843,251.976495 M2.91076525,204.733347 L3.01093665,193.07477 M3.14970765,176.92373 L3.74516054,107.621184 L188.757732,2.85969702 L633.981054,112.34836 L633.981054,110.443413 L188.757732,0.0898973877 L3.74516054,105.882683 L3.74516054,107.894735" id="Path-318"></path>
                    <path d="M64.6414966,148.729069 L64.6414966,248.870344 L76.2891156,246.46044 L76.2891156,144.033805 L64.6414966,148.729069 Z" id="Rectangle-78"></path>
                    <path d="M320.304082,110.542997 L320.304082,233.227087 L349.116327,235.802221 L349.116327,115.832081 L320.304082,110.542997 Z" id="Rectangle-75"></path>
                    <path d="M356.440136,117.206806 L356.440136,236.491523 L380.735374,238.686936 L380.735374,121.685845 L356.440136,117.206806 Z" id="Rectangle-76"></path>
                    <polyline id="Path-331" points="16.8877959 235.999044 17.651707 136.507114 188.56951 52.7088194 613.278934 143.144527 613.278934 143.144527 614.868058 264.354071 187.279632 226.183963 16.6885619 261.947311 16.7032367 260.036069"></polyline>
                    <polyline id="Path-332" points="43.7573218 255.824233 44.8355938 140.94968 212.052546 65.365507 599.336572 145.424884 600.37242 262.861352"></polyline>
                    <path d="M599.090768,145.601627 L613.230969,143.386391" id="Path-333"></path>
                    <path d="M17.8878906,136.618913 L44.9177775,140.879492" id="Path-334"></path>
                    <path d="M211.994204,64.9568537 L211.819642,228.177734" id="Path-335"></path>
                    <polygon id="Path-336" points="3.93951933 415.674801 4.6121321 285.769921 187.192082 257.113326 554.792987 282.914129 555.401638 419.487709 187.638802 441.403423"></polygon>
                    <polyline id="Path-337" points="1.0880695 429.898404 187.745348 462.020188 636.371275 429.770599"></polyline>
                    <path d="M555.729017,419.239349 L492.473951,415.737918 L343.70521,422.208904 M332.059495,422.715458 L314.711262,423.470053 M303.166243,423.972226 L285.042476,424.760554 M273.350932,425.269101 L254.06977,426.107773 M102.307547,292.397581 L101.971435,413.378431 L102.307547,292.397581 Z" id="Path-338"></path>
                    <path d="M241.667931,426.647215 L239.842452,426.726617 L220.619215,424.940787 M208.314446,423.797679 L102.084354,413.92895 L4.07823456,415.44698" id="Path"></path>
                    <path d="M4.87495733,285.770365 L102.341509,292.378818 L208.207635,278.975833 M220.603783,277.406442 L239.892739,274.964399 L241.893404,275.061986 M254.042351,275.654582 L273.292856,276.593573 M285.106164,277.169796 L303.333699,278.05889 M314.719128,278.614242 L332.116446,279.46284 M343.648301,280.025335 L492.906625,287.305781 L554.648893,283.249437" id="Path-339"></path>
                    <path d="M492.564666,287.26782 L492.569351,415.927155" id="Path-340"></path>
                    <path d="M208.282313,261.956102 L208.282313,436.557371 L218.123129,437.24468 L218.123129,261.601343 L208.282313,261.956102 Z" id="Rectangle-72"></path>
                    <polyline id="Path-341" points="218.553082 437.322294 220.655969 437.088722 220.655969 261.701844 218.439985 261.533794"></polyline>
                    <path d="M241.708163,264.656756 L241.708163,434.767542 L251.54898,435.437274 L251.54898,264.31107 L241.708163,264.656756 Z" id="Rectangle-72"></path>
                    <polyline id="Path-341" points="251.978933 435.519859 254.08182 435.292283 254.08182 264.407734 251.865836 264.243998"></polyline>
                    <path d="M273.327211,266.462823 L273.327211,432.962116 L282.716327,433.62889 L282.716327,266.118663 L273.327211,266.462823 Z" id="Rectangle-72"></path>
                    <polyline id="Path-341" points="283.091277 433.70598 284.958861 433.578869 284.958861 266.362657 283.091277 266.047292"></polyline>
                    <path d="M303.139456,268.262248 L303.139456,431.358748 L312.528571,432.011976 L312.528571,267.92508 L303.139456,268.262248 Z" id="Rectangle-72"></path>
                    <polyline id="Path-341" points="312.903522 432.097634 314.771106 431.973104 314.771106 268.153966 312.903522 267.845008"></polyline>
                    <path d="M332.048299,270.963242 L332.048299,429.811472 L341.437415,430.447788 L341.437415,270.634803 L332.048299,270.963242 Z" id="Rectangle-72"></path>
                    <polyline id="Path-341" points="341.812366 430.544142 343.679949 430.422837 343.679949 270.844827 341.812366 270.543867"></polyline>
                    <polygon id="Path-344" points="117.028146 297.627707 116.551055 404.560572 167.867783 409.016136 168.236786 292.307321"></polygon>
                    <path d="M135.749532,402.586863 L151.065386,403.928161 M152.249806,404.031888 L167.888,405.401416 L168.231189,295.918203 L152.442474,297.572898 M151.289634,297.693592 L135.99264,299.29664 M134.943252,299.406611 L120.604919,300.909196 L120.604919,300.909196 L120.161203,401.221702 L134.809133,402.504506" id="Path-344"></path>
                    <path d="M208.175493,288.141908 L171.170298,291.957796 L171.170298,291.957796 L170.71168,409.261015 L208.27564,412.544205 M220.715028,413.631441 L233.657735,414.762668 L233.831649,285.496305 L220.619012,286.858761" id="Path-345"></path>
                    <path d="M195.595575,407.692123 L208.419788,408.841627 M220.695263,409.941945 L231.868466,410.943461 L232.028344,289.074623 L220.743452,290.268022" id="Path-345"></path>
                    <path d="M208.243803,291.589883 L195.814144,292.904344 M193.655718,293.132601 L174.424474,295.166342 L174.002871,405.756651 L193.718598,407.52388" id="Path"></path>
                    <path d="M134.588271,299.259593 L134.371741,402.52614" id="Path-346"></path>
                    <path d="M150.849495,297.45279 L150.625973,404.053917" id="Path-346"></path>
                    <path d="M48.3802721,155.243532 L48.3802721,252.298323 L61.8346939,249.479196 L61.8346939,149.847929 L48.3802721,155.243532 Z" id="Rectangle-77"></path>
                    <path d="M152.898352,297.219048 L152.67483,403.820174" id="Path-346"></path>
                    <path d="M136.395074,299.259593 L136.178544,402.52614" id="Path-346"></path>
                    <path d="M193.326605,292.675084 L193.326605,407.849118" id="Path-347"></path>
                    <path d="M196.038095,292.453844 L196.038095,407.605662" id="Path-347"></path>
                    <polyline id="Path-342" points="636.393128 431.220187 663.804907 429.170185 662.372348 270.173897 634.880537 267.586807 634.839717 265.89165 662.372348 268.530065 662.372348 270.173897"></polyline>
                    <path d="M636.406205,420.640089 L663.781402,418.958409" id="Path-343"></path>
                    <polyline id="Path-348" points="636.152799 399.298418 648.083056 398.620158 646.982836 304.927796 635.200945 304.26843"></polyline>
                    <polyline id="Path-348" points="635.952572 396.58421 645.373244 395.938197 644.504461 306.700442 635.200945 306.072425"></polyline>
                    <polyline id="Path-349" points="496.509096 415.651119 496.013509 307.768435 543.132673 305.473639 543.562114 418.502002"></polyline>
                    <path d="M499.285445,310.458489 L499.285445,321.481003 L539.734014,320.731552 L539.734014,308.611042 L499.285445,310.458489 Z" id="Rectangle-70"></path>
                    <path d="M499.512195,326.807201 L499.96203,411.618377 L513.083673,412.344772 L513.083673,326.523726 L499.512195,326.807201 Z" id="Rectangle-71"></path>
                    <path d="M516.342177,326.429423 L516.342177,412.497438 L538.830612,413.715194 L538.830612,325.913371 L516.342177,326.429423 Z" id="Rectangle-71"></path>
                    <path d="M486.619649,287.132757 L486.971328,415.896014" id="Path-350"></path>
                    <polyline id="Path-351" points="282.055407 234.546815 282.055407 97.9986395 385.50883 117.811063 385.50883 243.801991"></polyline>
                    <path d="M286.878231,104.314987 L286.878231,230.180983 L312.980272,232.545008 L312.980272,109.143683 L286.878231,104.314987 Z" id="Rectangle-74"></path>
                    <polyline id="Path-352" points="44.9323817 153.035074 91.2815164 133.697502 90.7589305 246.279131"></polyline>
                    <polyline id="Path-355" points="91.2169341 137.895326 79.1084147 142.833749 79.1084147 245.898066 90.7648657 243.439181"></polyline>
                    <polyline id="Path-354" points="531.746303 256.785842 531.746303 145.632506 599.593698 158.593464"></polyline>
                    <path d="M534.410204,150.731294 L534.410204,252.642166 L550.57483,254.090848 L550.57483,153.810852 L534.410204,150.731294 Z" id="Rectangle-79"></path>
                    <path d="M556.091837,154.865652 L556.091837,254.59664 L574.966667,256.277146 L574.966667,158.466115 L556.091837,154.865652 Z" id="Rectangle-80"></path>
                    <path d="M580.483673,159.536451 L580.483673,256.767272 L594.841497,258.039606 L594.841497,162.28752 L580.483673,159.536451 Z" id="Rectangle-81"></path>
                    <path d="M634.67234,226.555112 L634.522639,228.546904 L653.659184,231.59858 L653.659184,267.621701 L655.821088,267.837781 L655.821088,229.859974 L634.67234,226.555112 Z" id="Rectangle-82"></path>
                    <path d="M634.254409,233.912876 L652.947163,231.535867" id="Path-353"></path>
                    <path d="M634.196019,231.709708 L646.049592,230.406133" id="Path-353"></path>
                    <path d="M188.697354,0.352989402 L188.697354,52.5544608" id="Path-10"></path>
                    <path d="M187.322313,226.253004 L187.322313,257.009829" id="Path-11"></path>
                    <path d="M187.573047,441.393406 L187.573047,480.664294" id="Path-12"></path>
                </g>
                <g id="дерево5" transform="translate(29.000000, 87.000000)">
                    <path d="M162.949894,359.853901 C162.949894,359.853901 163.60303,355.978701 166.332696,352.290158 C169.062362,348.601615 180.836356,345.290175 183.529063,337.349329 C186.22177,329.408483 187.770869,298.108666 188.014797,282.691597 C188.258724,267.274529 185.814168,239.254535 183.529063,228.289409 C181.243958,217.324283 165.964187,204.065745 160.284136,201.815345 C154.604086,199.564945 152.978941,198.809603 145.539015,198.809603 C138.09909,198.809603 124.315837,192.456232 118.118769,184.841534 C116.943002,183.396801 113.459947,181.6454 110.920743,181.6454 C108.381538,181.6454 102.271835,181.6454 97.6294652,180.845881 C92.987095,180.046362 89.0778755,174.524005 88.8337212,173.550139" id="Path-356"></path>
                    <path d="M165.976179,198.367725 C165.976179,198.367725 157.938448,192.088458 139.999522,192.088458 C129.359306,192.088458 123.049126,184.649996 123.049126,184.649996 C123.049126,184.649996 116.961275,171.643834 100.047735,166.280627" id="Path-357"></path>
                    <path d="M90.6808494,172.946887 C90.6808494,172.946887 92.536155,177.759031 97.0908977,178.593651 C101.64564,179.428271 102.956422,177.835121 112.014189,179.290356 C113.938445,179.59951 114.351601,178.348734 110.561927,174.419956 C106.772252,170.491178 98.3184549,167.287046 98.3184549,167.287046" id="Path-358"></path>
                    <path d="M237.820471,358.379691 C237.820471,358.379691 220.200437,344.722755 215.108104,334.539749 C210.015772,324.356742 204.225337,301.426459 204.225337,281.964857 C204.225337,271.570721 204.225337,286.564704 204.225337,258.416758 C204.225337,230.268812 206.549065,222.132586 205.214924,217.267597 C203.880783,212.402608 202.657271,210.103371 202.308299,204.369634 C201.959328,198.635897 203.054195,188.260984 203.216068,186.870987 C203.37794,185.480991 204.059048,181.444993 208.384382,173.105012" id="Path-359"></path>
                    <path d="M205.059723,216.801044 C205.059723,216.801044 205.976696,206.342984 213.365423,201.505611 C220.75415,196.668238 222.049953,198.398583 227.199135,195.956267 C232.348317,193.51395 238.227439,186.557975 247.707402,182.757401 C257.187364,178.956827 270.689525,171.131755 270.869738,170.226856" id="Path-360"></path>
                    <path d="M202.205643,203.175659 C202.205643,203.175659 202.945874,202.358669 203.21601,202.044979 C204.559565,200.484807 210.140888,196.370427 221.740605,190.937867 C233.340322,185.505306 246.042542,177.127858 247.84467,173.689243 C249.646799,170.250629 250.366883,168.440065 250.366883,168.440065" id="Path-361"></path>
                    <path d="M251.607668,169.111837 C251.607668,169.111837 251.607668,176.178481 248.985762,177.140128 C247.623603,177.639732 252.051995,177.02792 257.541655,174.652423 C263.031315,172.276927 269.036935,169.111837 269.036935,169.111837" id="Path-362"></path>
                    <path d="M191.121453,201.39462 C191.121453,201.39462 187.332317,189.767195 177.857794,183.511248 C168.383272,177.255301 163.971034,179.649361 159.956234,175.309875 C155.941435,170.970388 151.198447,154.441001 148.775422,151.463582 C146.352396,148.486164 134.731033,134.882325 133.787959,131.59504" id="Path-363"></path>
                    <path d="M128.442752,134.305029 C128.442752,134.305029 137.188414,146.02272 137.979922,150.138564 C138.77143,154.254407 141.467274,164.091339 145.098108,169.315294 C148.728942,174.539249 155.006444,184.795176 155.006444,184.795176 C155.006444,184.795176 161.310219,193.498399 165.838993,197.54688" id="Path-364"></path>
                    <path d="M141.188033,161.630324 C141.188033,161.630324 136.645246,150.034447 121.632145,145.667312" id="Path-365"></path>
                    <path d="M125.48338,139.496983 C125.48338,139.496983 134.432199,142.840795 137.756479,149.5" id="Path-366"></path>
                    <path d="M123.951648,140.197543 C123.951648,140.197543 127.347919,142.087376 130.32588,144.311287 C133.30384,146.535198 135.882704,149.108585 133.932267,148.202592 C130.038859,146.394076 120.229797,143.19918 120.229797,143.19918" id="Path-367"></path>
                    <path d="M189.75606,154.323013 C189.75606,154.323013 190.173607,192.427124 188.722533,196.105117" id="Path-368"></path>
                    <path d="M198.677707,162.168651 C198.677707,162.168651 199.882277,180.383656 198.695035,183.536221 C197.507792,186.688786 206.095736,165.947816 206.095736,165.947816" id="Path-369"></path>
                    <path d="M162.058631,177.142666 C162.058631,177.142666 163.005105,163.759074 161.491621,158.137562 C160.809642,155.604495 157.443791,147.047095 155.543754,143.696334 C153.643717,140.345572 151.356365,136.951107 151.099636,136.504152 C150.456171,135.383907 150.61823,132.493011 150.815708,131.600892" id="Path-370"></path>
                    <path d="M171.863159,180.288411 C171.863159,180.288411 166.697714,178.498975 165.71905,165.345545 C164.740387,152.192114 165.276701,151.056578 165.276701,147.993178 C165.276701,144.929777 165.617919,136.344373 162.661224,130.297204" id="Path-371"></path>
                    <path d="M153.011948,130.722261 C153.011948,130.722261 152.057414,133.517547 152.843155,134.661531 C153.628896,135.805516 161.046837,143.487561 160.65784,146.120393 C160.434616,147.631231 161.739644,141.51882 161.499924,136.649008 C161.260203,131.779195 159.749085,130.257437 159.749085,130.257437" id="Path-372"></path>
                    <path d="M147.928097,74.530748 C147.928097,74.530748 145.284339,73.8331578 144.787363,70.5188154 C144.290387,67.204473 148.966591,52.2208395 148.966591,52.2208395" id="Path-373"></path>
                    <path d="M145.590447,76.7769033 C145.590447,76.7769033 140.658116,74.2372768 140.409452,72.0136862 C140.160789,69.7900956 140.082745,66.6207821 139.608653,65.4119109 C139.134562,64.2030396 136.610583,61.2502306 136.610583,61.2502306" id="Path-374"></path>
                    <path d="M137.757858,60.3164087 C137.757858,60.3164087 142.132548,65.5609484 142.24811,67.3237602 C142.306799,68.2190224 143.134493,64.1809113 144.285225,60.0677267 C145.435957,55.954542 147.460579,51.6580449 147.460579,51.6580449" id="Path-375"></path>
                    <path d="M83.1443838,140.110361 C83.1443838,140.110361 80.8790959,136.152677 77.9341811,134.924012 C74.9892664,133.695347 73.0130523,133.951268 73.6562922,131.63989 C74.2995321,129.328512 72.6548433,121.527965 72.6548433,121.527965" id="Path-376"></path>
                    <path d="M79.9842055,140.928949 C79.9842055,140.928949 77.2117778,139.850064 75.8931412,139.116033 C74.5745046,138.382002 72.9037877,138.327422 72.5168002,137.553447 C72.1219482,136.763743 71.274706,135.526599 70.5834168,134.173077 C69.8921276,132.819554 68.7656575,130.19745 68.4811409,129.643474 C67.9957604,128.698401 62.4556062,124.209681 62.1192127,124.209681" id="Path-377"></path>
                    <path d="M69.0178968,116.159936 C69.0178968,116.159936 69.9461097,120.697197 70.334015,124.180887 C70.7219204,127.664577 70.334015,127.751822 70.334015,128.089451 C70.334015,128.457809 68.7822107,127.148679 67.0070347,125.608486 C65.2318588,124.068294 61.9551152,121.432468 61.9551152,121.432468" id="Path-378"></path>
                    <path d="M218.888537,118.278507 C218.888537,118.278507 223.401667,113.754871 225.330097,111.169073 C227.258526,108.583274 229.492642,104.059639 229.492642,104.059639" id="Path-379"></path>
                    <path d="M221.592494,118.859745 C221.592494,118.859745 223.13747,117.222391 225.648679,115.522618 C228.159889,113.822846 228.078183,112.305784 230.147284,111.380546 C236.347346,108.608071 247.746922,107.543684 247.746922,107.543684" id="Path-380"></path>
                    <path d="M232.082249,104.11207 C232.082249,104.11207 231.254334,108.307572 230.665106,108.894304 C230.397026,109.161248 233.23155,107.938057 236.95786,107.104149 C240.68417,106.270241 247.583931,106.268428 247.583931,106.268428" id="Path-381"></path>
                    <path d="M273.937243,120.224203 L282.762631,115.086477" id="Path-382"></path>
                    <path d="M272.861628,123.364113 C272.861628,123.364113 284.060415,117.221798 284.327472,116.551314" id="Path-383"></path>
                    <path d="M307.194896,136.718405 C307.194896,136.718405 317.54893,137.962809 320.079008,136.718405 C322.609087,135.474001 328.598735,134.078421 330.074614,134.078421 C330.930089,134.078421 334.21692,134.123858 336.706202,133.287995 C339.195483,132.452133 339.816411,131.175817 339.860725,130.959336" id="Path-384"></path>
                    <path d="M311.897523,132.480524 C311.897523,132.480524 313.345141,133.10138 315.55896,132.790952 C317.772779,132.480524 325.32937,130.135715 327.754029,129.815866 C329.164804,129.629764 331.900072,129.820719 334.118703,129.815866 C336.337333,129.811013 337.71353,129.224139 337.71353,129.224139" id="Path-385"></path>
                    <path d="M45.9399602,178.192547 C45.9399602,178.192547 46.9707421,184.689967 54.5391272,183.835641 C62.1075122,182.981315 58.9662481,170.957856 58.9662481,170.957856 C58.9662481,170.957856 63.2509813,172.185185 65.3038097,170.770044" id="Path-386"></path>
                    <path d="M65.3134085,170.526252 C65.3134085,170.526252 65.7876302,173.165 69.6061942,173.784288 C73.4247582,174.403577 73.4008865,171.510044 73.4008865,171.510044 C73.4008865,171.510044 74.4554344,174.969837 76.3830793,174.554377 C76.906397,174.441587 79.5699891,172.132904 79.1208314,172.622938 C78.6716736,173.112972 79.7926114,176.010337 82.2572637,175.059806 C83.1638539,174.710165 83.5692688,173.439517 83.7360025,172.815317" id="Path-387"></path>
                    <path d="M83.2268715,172.72429 C83.2268715,172.72429 88.1902823,174.333671 91.4956831,172.72429 C94.8010839,171.11491 92.1312476,168.025532 92.1312476,168.025532 C92.1312476,168.025532 96.9024394,168.645322 99.2525291,166.888188 C101.602619,165.131055 100.493626,162.7923 99.7725838,161.657325 C99.038354,160.501591 106.268152,164.957974 110.074604,161.887286 C113.881055,158.816599 111.770807,153.006951 111.770807,153.006951" id="Path-388"></path>
                    <path d="M116.665458,151.028406 C116.665458,151.028406 116.698552,147.923731 118.147227,146.928314 C118.803069,146.477671 120.759468,146.892389 121.349238,145.760613 C121.939008,144.628837 119.838044,142.722197 119.838044,142.722197 C119.451646,142.326149 119.583192,141.974942 120.133897,141.914327 C120.133897,141.914327 123.331542,141.869382 124.828856,139.828789 C126.326171,137.788196 125.027079,136.396221 125.027079,136.396221 C124.746755,135.927943 124.959124,135.537726 125.509146,135.506785 C125.509146,135.506785 127.577095,135.551699 128.701119,134.691764 C129.825143,133.831828 131.003053,130.835369 131.003053,130.835369 C131.217597,130.33157 131.691097,130.253604 132.085046,130.646998 C132.085046,130.646998 132.787271,131.586333 134.15655,132.025386 C135.525829,132.464439 140.227329,132.756321 140.227329,132.756321" id="Path-389"></path>
                    <path d="M143.71738,132.620167 C143.71738,132.620167 145.179286,134.981929 146.786999,134.440611 C148.394712,133.899294 152.710464,130.274581 152.710464,130.274581 C152.710464,130.274581 154.146328,131.492333 156.570134,131.492333 C158.993939,131.492333 162.009406,129.348314 162.009406,129.348314 C162.009406,129.348314 162.387703,129.863652 162.697337,130.724845 C163.006971,131.586038 163.811983,132.188452 164.160111,132.620167 C164.919207,133.561524 167.493136,133.879703 167.493136,133.879703 C167.493136,133.879703 170.099119,134.418884 171.217927,135.407994 C172.336735,136.397105 174.325987,137.875589 175.504295,137.638256" id="Path-390"></path>
                    <path d="M181.0738,135.787369 C181.0738,135.787369 188.182663,140.119082 185.813042,143.527559 C183.443421,146.936035 183.999195,150.068056 185.613284,150.067484 C187.227374,150.066911 189.660263,149.453855 189.14186,150.472056 C188.917982,150.911777 188.61271,153.145712 189.14186,154.056121 C189.67101,154.966531 194.163897,156.628714 194.163897,156.628714 C194.163897,156.628714 196.517348,161.135953 198.365042,162.406334 C200.212736,163.676715 206.13226,164.30304 206.13226,164.30304 C206.13226,164.30304 205.839493,173.833889 208.955326,173.396216 C209.892341,173.264596 208.72701,176.628727 208.498786,177.79374 C208.393308,178.332172 207.068938,182.671151 209.420485,185.606806 C211.772032,188.542461 214.973471,187.209248 215.774299,187.337978" id="Path-391"></path>
                    <path d="M230.001595,178.498599 C230.001595,178.498599 237.633006,181.831854 239.821685,178.708596 C242.010364,175.585339 238.203258,172.879813 239.126069,171.437892 C240.048881,169.99597 246.226978,168.404259 250.593926,168.722876 C254.960875,169.041493 254.370499,171.437892 254.370499,171.437892" id="Path-392"></path>
                    <path d="M256.235809,165.472553 C256.235809,165.472553 259.271969,162.738434 261.666829,164.528351 C264.061688,166.318269 262.776801,168.78907 264.337104,169.519908 C265.897407,170.250746 267.665454,168.540391 269.493423,169.19332 C271.321392,169.84625 270.406462,170.895911 272.196122,171.875662 C273.985782,172.855413 276.00308,173.942572 279.269422,172.579521 C282.535763,171.21647 282.751038,166.834746 282.751038,166.834746" id="Path-393"></path>
                    <path d="M290.234207,164.293311 C290.234207,164.293311 292.880842,161.599424 293.495575,160.257074 C294.110308,158.914724 299.118743,160.558534 299.838046,161.792375" id="Path-394"></path>
                    <path d="M302.471117,162.99559 C302.471117,162.99559 303.095476,167.901642 305.357519,168.487498" id="Path-395"></path>
                    <path d="M311.291773,165.934496 C311.291773,165.934496 307.994965,171.459219 310.638974,176.159193 C313.282983,180.859168 320.308443,179.007968 320.308443,179.007968" id="Path-396"></path>
                    <path d="M319.869155,174.780115 C319.869155,174.780115 319.560457,178.469227 322.27468,180.848133 C324.988903,183.227039 330.76021,185.873073 333.853751,185.175202 C338.774769,184.06507 338.9871,180.550339 338.9871,180.550339 C338.9871,180.550339 341.483722,183.135127 343.404732,181.232761 C345.325743,179.330396 342.425049,176.514139 342.425049,176.514139 C342.425049,176.514139 344.266512,174.668493 344.314096,173.408079 C344.36168,172.147665 343.065919,169.957878 342.425049,169.17184 C342.122656,168.80095 343.253229,167.13472 344.731487,166.614754 C346.209745,166.094789 348.428607,166.614754 348.428607,166.614754 C348.428607,166.614754 351.13582,169.237612 353.680646,167.597159 C356.225471,165.956707 353.440504,163.366593 353.440504,162.427275 C353.440504,161.487956 353.574134,160.397676 355.976105,160.906194 C358.378076,161.414712 363.21193,162.754638 362.637996,164.199399 C362.064061,165.64416 363.396719,166.614754 365.207702,166.614754 C367.018685,166.614754 367.688177,164.710228 367.688177,164.710228 C367.936475,164.223376 368.560024,163.991735 369.041149,164.239202 C369.041149,164.239202 371.857407,164.900439 371.385768,169.17184 C370.914129,173.443241 368.13776,171.419881 368.528157,174.399026 C368.918553,177.378172 375.060152,177.14322 375.281883,177.291041" id="Path-397"></path>
                    <path d="M372.00622,177.420864 C372.00622,177.420864 370.996547,182.45021 375.929835,182.704035 C380.863123,182.95786 380.425363,176.3564 380.425363,176.3564 C380.425454,175.809957 380.570241,174.938093 380.772942,174.431791 C380.772942,174.431791 381.534751,171.462379 384.637898,170.147068 C387.741045,168.831758 392.010468,169.974747 392.818905,168.279086 C393.627342,166.583426 393.690798,165.057759 393.690798,165.057759 C393.690798,165.057759 398.647373,165.330214 398.647373,161.039639 C398.647373,159.227157 397.412013,157.38479 396.112033,156.249758 C394.812053,155.114725 394.869881,152.070183 392.522,150.609912 C390.174118,149.149642 386.789589,148.15724 384.165566,148.832555 C383.4832,149.008167 381.317338,149.132922 380.105917,148.15724 C378.894497,147.181558 378.322544,146.142915 378.322544,145.404364 C378.322544,142.792372 381.884633,143.249761 381.930431,141.242448 C381.976228,139.235134 378.868444,139.809644 377.241653,138.155407 C375.614861,136.50117 375.392495,133.277037 375.392495,133.277037" id="Path-398"></path>
                    <path d="M371.843309,135.42595 C371.843309,135.42595 377.426426,133.220252 377.426426,129.441564 C377.426426,125.662877 370.726092,123.477653 370.726092,123.477653 C370.208924,123.284088 369.990676,122.729314 370.19434,122.218409 C370.19434,122.218409 371.560519,120.151405 369.451605,118.251181 C367.342691,116.350958 359.870653,118.671761 359.423887,115.504438 C358.977121,112.337115 357.308169,110.441825 356.289335,109.300857 C355.2705,108.15989 353.573394,107.135021 351.710901,106.866856 C349.848408,106.598691 347.381083,107.289692 346.246895,107.424087 C343.984209,107.692204 345.151821,106.333024 343.46542,106.333024 C341.779019,106.333024 340.515806,106.866856 340.515806,106.866856" id="Path-399"></path>
                    <path d="M358.707633,112.856272 C358.707633,112.856272 355.773387,105.715857 361.06137,105.291185 C366.349354,104.866513 370.394888,107.613621 372.966488,105.329064 C375.538087,103.044508 376.31083,100.771735 374.638659,100.275093 C372.966488,99.7784497 369.193329,98.5340946 369.950856,97.3550011 C370.708383,96.1759076 375.190858,93.7572869 378.158089,93.35871 C381.125319,92.9601331 382.667444,87.7516969 375.592802,87.7963105 C374.017727,87.8062432 373.242149,89.0460919 372.170948,89.3789821 C371.715975,89.5203712 369.544586,89.1893338 368.382977,89.7650701 C367.221369,90.3408065 365.913296,92.0818385 364.760862,92.0808618 C362.183817,92.0786779 358.262552,86.5783003 356.751268,86.6634738 C355.239985,86.7486473 352.850087,88.0846336 352.207841,86.8925982 C351.565595,85.7005628 351.463397,84.3287315 350.383961,84.4839272 C349.304525,84.639123 347.700395,86.5163311 346.529493,85.5929164 C345.35859,84.6695017 346.468075,79.0928564 343.342697,79.4512925 C340.217319,79.8097286 338.914995,80.6400258 336.736311,81.6504492 C334.557627,82.6608725 328.223825,79.0099752 328.067968,79.0098101" id="Path-400"></path>
                    <path d="M356.641291,86.6696472 C356.641291,86.6696472 360.711544,85.3813763 359.354793,83.7596243 C357.998042,82.1378723 356.403652,82.7086903 355.904186,82.0665201 C355.404721,81.4243498 356.100707,77.8150144 357.086034,76.9587875 C358.07136,76.1025605 358.924563,71.6914193 354.283039,70.9757804 C349.641515,70.2601415 345.933617,72.8484746 345.575948,69.4411024 C345.21828,66.0337301 347.291123,60.0667471 345.083134,58.8114312 C342.875145,57.5561154 329.288286,59.7102882 326.030269,54.0129925 C322.772253,48.3156968 327.659111,46.2458147 327.070621,43.4159741 C326.482132,40.5861334 322.974519,40.4300638 322.974519,39.3189642 C322.974519,38.2078645 328.221025,35.2077443 327.666836,32.3324905 C327.112647,29.4572368 328.246422,29.1307095 329.29403,27.8696492 C330.341638,26.6085889 330.482226,23.5371164 326.369193,21.6390257 C322.256159,19.7409349 318.831855,19.8896862 317.798457,22.4006202 C317.350465,23.4891431 315.333509,26.4748098 312.665328,27.0587732 C309.997147,27.6427366 307.788281,27.8696492 305.04908,25.305201 C302.309879,22.7407528 301.525307,22.5614651 296.958158,22.7845921 C294.859466,22.8871232 294.496432,26.0295413 293.171652,28.7666921 C291.846872,31.5038429 289.775217,35.6207015 288.926797,36.0047127" id="Path-401"></path>
                    <path d="M303.349554,52.8411329 C303.349554,52.8411329 299.015851,54.6535431 298.719744,49.7045944 C298.423636,44.7556457 296.654005,47.6294347 295.218019,43.6786413 C293.782032,39.727848 297.494657,38.8515933 294.017486,36.767393 C290.540315,34.6831927 287.706109,36.711917 285.989214,36.767393 C281.78167,36.9033465 283.020679,32.439626 279.350452,29.6133182 C275.680225,26.7870104 270.252801,28.7373275 271.250868,22.5979945 C272.248935,16.4586616 267.908564,15.421752 264.109399,17.1922297 C260.310233,18.9627074 262.386272,15.0388761 259.233741,12.3687323 C256.081211,9.69858858 253.714778,9.36787252 248.161042,10.26014 C242.607306,11.1524075 243.170707,6.77171448 243.170707,6.77171448 C243.170707,6.77171448 243.709693,3.70167805 241.08616,2.07880183 C238.462627,0.455925601 234.037173,-1.19580505 231.419929,3.06096193 C230.583036,4.42211083 227.261193,2.07880183 225.482207,4.86695275 C223.703221,7.65510368 225.535634,9.4288283 224.996491,10.601584 C224.457347,11.7743397 222.133592,10.4270236 220.326211,11.6535787 C219.587189,12.1551066 219.819263,15.3388727 216.582036,15.9094257 C213.344808,16.4799787 210.635486,15.7852273 207.318736,15.0057352" id="Path-402"></path>
                    <path d="M208.360532,18.0679979 C208.360532,18.0679979 207.426706,9.48791613 203.486084,7.3494885 C199.545463,5.21106086 197.983907,9.03301168 197.983907,9.03301168 C197.983907,9.03301168 195.394342,5.3542192 193.18669,6.76461135 C190.979038,8.1750035 187.609637,16.0835597 185.594589,16.0835597 C183.579541,16.0835597 179.300331,11.4806182 177.07761,12.2552743 C174.854888,13.0299305 174.463557,22.7234693 170.4118,24.4908155 C169.571708,24.8572573 168.761654,23.5063431 168.119067,23.8342369 C167.476481,24.1621307 164.580596,27.4528256 163.589175,24.9862187 C162.338423,21.8744086 164.844214,17.7507033 164.639788,15.1789309 C164.435362,12.6071585 164.262416,11.6619829 162.40388,10.0746769 C160.545345,8.48737094 155.322551,8.24014082 151.647698,9.03301168 C144.87499,10.4942627 136.93347,5.89906852 134.631163,8.00076474 C132.328857,10.102461 130.545029,13.1841325 130.545029,13.1841325" id="Path-403"></path>
                    <path d="M133.835922,16.9200307 C133.835922,16.9200307 131.14917,11.7511456 128.130946,11.1920799 C125.112722,10.6330141 127.046403,13.5681358 125.191478,13.7955306 C123.336554,14.0229253 124.400608,4.3583632 116.489178,3.73925825 C108.577747,3.1201533 107.260314,9.07967874 104.886338,8.85703316 C102.512363,8.63438758 101.343132,2.10254008 94.7525497,2.62398148 C88.1619674,3.14542289 84.7314203,7.41228758 87.8597568,10.9829646 C89.2758783,12.5993228 90.1538258,11.0944163 92.2061263,13.7955306 C94.2584267,16.4966448 91.6921409,15.7488356 90.8794728,19.3664507 C90.6249399,20.4995111 90.0606015,18.9897972 88.7073125,18.9897972 C87.3540235,18.9897972 88.5892553,19.782314 87.8597568,21.8940927 C86.9538079,24.5166663 83.7951091,19.6625147 84.5159754,21.0520006 C85.2368417,22.4414866 85.9003391,23.8029711 84.5159754,25.7562421 C83.1316117,27.7095131 78.9180783,28.8572306 76.2545269,27.2573924 C73.5909756,25.6575541 72.1383788,23.8348075 71.6153267,23.0342787 C71.0922746,22.2337498 66.8407789,20.6269215 67.6396594,23.7904883 C67.9286976,24.9350797 69.0572313,24.7894901 69.3541913,26.1719492 C69.6511514,27.5544083 67.1387704,30.2186413 65.8167916,31.5315744 C63.8768099,33.4582818 61.7092373,33.43366 61.0853429,32.22077 C60.4614485,31.0078799 60.4508837,25.9661046 58.0679979,24.24567 C55.6851121,22.5252354 50.3472516,24.4679083 50.3472516,24.4679083 C50.3472516,24.4679083 42.6554195,16.5307929 36.8153806,21.8940927 C30.9753418,27.2573924 43.2471441,28.7350854 43.2471441,28.7350854 C43.2471441,28.7350854 45.139605,28.9601987 43.9378373,29.0931504 C42.7360695,29.2261021 36.0282499,31.0714087 37.7092248,34.1880238 C39.3901997,37.3046389 46.639634,36.7621271 44.854921,41.8139947 C43.070208,46.8658623 36.8153806,44.4611394 41.0079267,50.4840725" id="Path-404"></path>
                    <path d="M48.8552912,43.748501 C48.8552912,43.748501 53.8997767,37.5393612 65.4748804,44.0483596" id="Path-405"></path>
                    <path d="M52.2425648,48.8522062 C52.2425648,48.8522062 38.3367423,48.3328587 38.3212324,53.3641843 C38.3057225,58.3955098 39.3875621,55.0239261 39.3875621,55.0239261 C39.3875621,55.0239261 28.0865826,57.1937123 29.1015774,61.2012968 C30.1165721,65.2088813 39.7049096,64.7968857 36.8239956,66.5196812 C33.9430816,68.2424766 37.1969633,73.7666837 34.1997429,75.6875718 C31.2025225,77.6084599 36.4733962,79.2315694 38.3212324,79.8205289 C40.1690687,80.4094885 43.5788047,81.7837124 44.0527366,83.572462 C44.5266685,85.3612117 39.3875621,93.3956068 39.3875621,93.3956068" id="Path-406"></path>
                    <path d="M43.9708342,84.5519219 C43.9708342,84.5519219 43.8331287,85.5636822 42.9206221,86.3162588 C42.0081156,87.0688354 35.8691065,91.8122745 32.4127362,91.9484734 C27.5122391,92.1415782 26.8773465,92.8947156 27.3979641,94.9306819 C27.9185817,96.9666482 31.2668672,100.218807 29.1344902,102.999971 C27.0021133,105.781135 25.650028,103.807764 25.650028,101.889399 C25.650028,99.9710348 20.628261,101.843732 18.2729116,107.256982 C15.9175622,112.670231 12.3163105,112.65149 13.8893438,115.213186 C15.4623771,117.774881 21.7210958,117.932516 19.5272156,121.463742 C17.3333353,124.994968 8.33849548,126.247593 11.5527137,129.638018 C14.766932,133.028442 16.3603381,131.192535 17.7218111,132.290557 C19.083284,133.38858 20.1766235,134.873489 19.7294059,136.232488 C19.2821883,137.591487 16.8213367,137.437468 14.347307,136.82959 C8.21678607,135.3233 -3.22331295,141.150483 4.16470039,148.856847 C11.5527137,156.563211 5.4759132,155.403253 5.4759132,155.403253 C4.92996959,155.363436 4.08624273,155.52854 3.61536249,155.799216 C3.61536249,155.799216 -0.784764944,157.587633 1.68609063,161.590038 C4.15694621,165.592444 4.13038939,165.656246 3.22065826,166.562122 C2.31092712,167.467998 -2.84037348,173.398872 4.35617012,174.951253 C11.5527137,176.503633 8.86077101,177.02403 8.86077101,177.02403 C8.86077101,177.02403 6.51208218,177.633058 7.38098301,180.530082 C8.24988384,183.427106 16.0157977,183.475063 19.5272156,182.18254" id="Path-407"></path>
                    <path d="M12.5661961,183.027315 C12.5661961,183.027315 11.4363487,189.435007 17.0178361,189.406875 C22.5993235,189.378744 23.9544053,183.216984 26.5019781,182.906107 C29.0495509,182.595229 33.9501599,186.691944 35.7276915,191.501483 C37.5052231,196.311022 38.9299805,192.377083 38.9299805,192.377083 C39.1667693,191.893502 39.3706786,191.948361 39.4045715,192.505003 C39.4045715,192.505003 39.320615,202.301146 46.5901275,200.465013 C53.85964,198.62888 45.4139481,200.213192 46.0662736,202.951796 C46.5130158,204.827317 55.4293317,204.619158 55.4293317,204.619158 C55.4293317,204.619158 55.1113368,206.594547 56.4870071,206.933861 C57.8626774,207.273176 60.1715664,204.346625 60.0511602,208.356053 C60.0039973,209.926537 59.3411193,213.747226 60.4383947,216.042373 C61.5356701,218.337521 68.2314734,220.873062 69.7298639,216.042373 C70.5842632,213.28786 70.4123082,213.863553 70.797361,214.694731 C71.1824137,215.525909 72.888697,217.276852 75.971405,216.042373 C79.054113,214.807895 79.0578689,212.304399 79.0578689,212.304399 C79.0578689,212.304399 79.1488249,209.848259 75.8691815,207.515082 C72.5895381,205.181904 82.1333097,203.704614 82.1333097,203.704614 C82.1333097,203.704614 83.1689494,206.406093 85.428964,205.512626 C87.6889786,204.619158 88.0279808,207.215451 91.5592536,205.512626 C95.0905264,203.809801 93.311919,202.015515 93.311919,202.015515 C93.0354224,201.552817 93.2224,201.344974 93.7473762,201.530722 C93.7473762,201.530722 96.5853798,202.89041 99.2973023,201.677712 C102.009225,200.465013 99.433092,197.729396 99.433092,197.729396 C99.0998857,197.300505 99.2231127,197.173899 99.7107215,197.421294 C99.7107215,197.421294 104.559146,200.436262 104.447348,195.968873 C104.335549,191.501483 106.03056,192.643165 108.658428,192.501313 C111.286296,192.359461 114.869414,192.288758 116.88063,190.261286 C118.891846,188.233814 118.891846,185.8269 118.891846,185.8269" id="Path-408"></path>
                    <path d="M122.76449,184.136342 C122.76449,184.136342 129.190439,182.674841 129.253724,178.083535 C129.317009,173.492229 135.658395,178.083535 135.019356,180.490006 C134.380318,182.896476 138.102904,184.277456 141.908688,181.86361 C143.326919,180.964086 144.23382,178.920509 145.311427,178.585462 C146.389035,178.250415 149.290928,179.065138 151.534314,179.180024" id="Path-409"></path>
                    <path d="M168.880823,177.364993 C168.880823,177.364993 172.981287,178.522357 173.898625,175.0395 C174.815964,171.556642 173.110407,169.452861 173.110407,168.410091 C173.110407,167.36732 175.176083,171.606084 177.333798,170.706389 C179.491513,169.806694 179.023623,167.255063 179.491513,168.025162 C179.959404,168.795261 180.655044,170.706389 182.523698,170.706389 C184.392351,170.706389 182.176176,166.694685 184.392351,166.53661 C186.608526,166.378536 189.743462,168.025162 189.743462,168.025162" id="Path-410"></path>
                    <path d="M214.855749,183.38841 C214.855749,183.38841 214.855749,192.832792 222.75252,190.167035 C230.649291,187.501277 226.7362,182.698355 226.7362,182.698355 C226.44365,182.231497 226.633415,181.962844 227.180611,182.087318 C227.180611,182.087318 230.352751,183.023821 232.259377,182.120479 C234.166003,181.217137 234.692764,179.899369 234.692764,179.899369" id="Path-411"></path>
                    <path d="M230.973371,193.557017 C230.973371,193.557017 238.880986,190.675731 240.140648,194.988804 C241.400311,199.301876 238.468579,201.450683 240.254846,202.958687 C242.041113,204.466692 245.152167,203.025706 246.038753,202.49051 C246.92534,201.955314 248.122264,201.724327 248.122264,204.05224 C248.122264,206.380153 250.559552,206.066645 251.260446,205.159571 C251.891847,204.342433 252.158724,202.765667 255.470019,203.181968 C258.781313,203.598269 261.535938,205.815141 262.548176,206.139164 C263.978286,206.59695 262.982774,207.918122 265.50599,207.739593 C268.029207,207.561063 266.839382,212.09348 271.55442,210.580071 C276.269457,209.066662 272.257379,206.113859 273.218835,205.850528 C274.18029,205.587197 278.785979,208.537001 279.660029,206.29462 C280.534079,204.05224 277.588715,202.267293 279.127044,201.126192 C280.665373,199.985092 281.238899,197.324259 283.973375,197.586474 C285.33199,197.716755 289.157329,199.447704 290.956109,198.297616 C292.754888,197.147528 291.272254,193.96121 292.462451,191.445432 C293.652647,188.929655 296.402745,189.142402 297.976036,189.666833 C299.549326,190.191263 303.811717,191.679991 303.286543,194.988804 C302.761369,198.297616 306.041104,198.386204 308.730204,196.687504 C311.419304,194.988804 310.756513,191.252025 311.891663,188.929655 C313.026813,186.607284 321.447824,181.219042 322.321875,180.954595" id="Path-412"></path>
                    <path d="M208.303599,111.13219 C208.303599,111.13219 214.48349,106.166059 216.817276,109.733268 C219.151063,113.300477 215.739799,115.922029 217.82271,117.906771 C219.90562,119.891513 222.658278,117.766761 223.850339,119.05052 C225.042401,120.334278 225.741224,123.217677 228.287304,123.575279 C230.833384,123.932882 230.305701,121.401838 230.305701,121.401838 C230.275492,120.859678 230.511747,120.781422 230.850194,121.226827 C230.850194,121.226827 235.197357,127.597462 238.583513,125.821271 C241.969669,124.04508 245.827187,125.639828 245.664083,123.019244 C245.500979,120.398661 246.361371,120.988643 248.053668,121.058879 C249.745966,121.129115 254.50401,121.804061 257.114113,118.318504 C259.724217,114.832948 258.427136,113.237709 258.427136,113.237709" id="Path-413"></path>
                    <path d="M217.75358,107.748343 C217.75358,107.748343 222.69203,107.34362 224.438948,104.907021 C226.185866,102.470421 231.659955,104.920649 233.795077,104.432503 C235.930199,103.944357 235.703471,101.974016 237.255874,102.653373 C238.808277,103.33273 250.202476,104.493212 247.630831,108.66021 C245.059187,112.827208 252.508573,110.834152 254.255491,110.833326 C256.002409,110.8325 254.975733,114.794245 260.663334,112.303958" id="Path-414"></path>
                    <path d="M268.471243,114.510154 C268.471243,114.510154 273.105493,114.641132 274.261334,117.020677 C275.417176,119.400222 272.860036,120.820643 272.860036,123.075106 C272.860036,124.529305 275.081397,123.458772 275.517281,123.901503 C275.517281,123.901503 275.957958,126.260683 278.737612,127.056777 C281.517267,127.852872 287.437301,125.849795 287.437301,125.849795" id="Path-415"></path>
                    <path d="M270.644095,113.242106 C270.644095,113.242106 275.847155,110.149865 279.47957,111.695985 C283.111984,113.242106 285.058546,119.661535 287.403488,120.00056 C289.74843,120.339585 288.19386,121.74618 288.19386,121.74618 C288.19386,121.74618 286.357559,123.143706 288.19386,126.509434 C290.030162,129.875162 294.216145,128.917029 294.216145,128.917029" id="Path-416"></path>
                    <path d="M292.042381,144.415944 C292.042381,144.415944 308.409038,143.29394 307.187991,138.926655 C305.966944,134.559369 318.12464,129.651324 315.053587,126.239044 C311.982535,122.826763 319.311396,129.347845 324.640505,128.971037 C329.969614,128.594229 333.211231,126.76077 336.609052,122.836647 C338.021436,121.205495 338.826778,122.836647 341.367676,122.836647 C343.908575,122.836647 346.561013,120.459625 346.561013,120.459625" id="Path-417"></path>
                    <path d="M305.896496,141.54895 C305.896496,141.54895 309.860812,148.37954 316.8947,146.70836 C323.928589,145.03718 323.90332,141.324116 329.215204,141.54895 C334.527088,141.773784 336.904357,145.171141 340.56516,144.636326 C344.225964,144.101511 346.840414,144.553054 346.770925,142.664793 C346.701436,140.776531 341.25,137.123193 341.687321,135.213109 C342.124642,133.303025 338.404973,127.458201 333.139894,128.503119" id="Path-418"></path>
                    <path d="M105.799501,73.668627 C105.799501,73.668627 115.896607,66.1916398 125.564134,73.2206572 C129.21643,75.8761505 129.41041,77.2420853 131.344616,76.0472224 C133.278822,74.8523595 132.580252,74.3385264 132.057748,73.668627 C131.535244,72.9987277 131.341773,70.4640218 135.48298,72.9922957 C139.624187,75.5205697 144.4537,77.4670431 146.508574,76.6691994 C148.563449,75.8713556 148.388529,73.5295792 148.388529,73.5295792 C148.388529,73.5295792 152.31104,75.1504181 156.410933,73.668627 C158.071098,73.0686072 160.443918,73.319257 161.646759,72.7057542 C162.849601,72.0922515 163.232468,70.3524069 162.114663,69.3328271 C160.236225,67.619453 166.260419,70.3127915 166.680187,67.5845828 C167.099955,64.8563741 167.263504,62.2437675 161.646759,60.6928047" id="Path-419"></path>
                    <path d="M155.524588,56.7405408 C155.524588,56.7405408 165.65076,54.2846602 163.676049,61.1902726" id="Path-420"></path>
                    <path d="M121.342958,68.3483038 C121.342958,68.3483038 122.594276,60.9582539 131.111586,62.4532473 C139.628896,63.9482408 138.839023,56.0950266 138.839023,56.0950266 C138.832368,55.5417781 139.277778,55.0909712 139.825648,55.0537761 C139.825648,55.0537761 143.977972,55.350655 145.983366,51.1701546 C146.741425,49.5898842 146.778336,52.438534 150.367646,52.8456784 C153.956956,53.2528228 155.714532,52.2411936 155.714532,52.2411936" id="Path-421"></path>
                    <path d="M57.9149775,140.839594 C57.9149775,140.839594 71.8071081,138.394012 70.6874462,146.81286 C70.5548086,147.810176 70.5548086,147.638034 70.5548086,147.638034 C70.5548086,147.638034 74.4173789,143.864951 81.1308242,145.274416" id="Path-422"></path>
                    <path d="M77.6137249,142.890379 C77.6137249,142.890379 79.7070985,139.060466 84.4499712,140.180224 C89.1928439,141.299982 90.2277785,143.23006 92.2024431,144.341092" id="Path-423"></path>
                    <path d="M88.9235594,141.489958 C88.9235594,141.489958 89.7996583,139.380901 94.0367667,140.668699 C98.2738751,141.956498 103.512813,137.915742 103.512813,137.915742 C103.512813,137.915742 114.477023,136.129437 106.954611,130.768916 C99.4321982,125.408394 101.346508,130.88234 100.200758,133.16314 C99.0550076,135.44394 93.1906291,135.75131 95.3986658,132.359269 C97.6067024,128.967228 89.6560048,137.211386 88.9235594,132.359269 C88.191114,127.507153 88.5434262,127.063084 85.0454509,126.24236 C81.5474757,125.421636 81.1068849,125.799897 81.0429498,124.537244 C80.9790146,123.274592 79.8321945,128.217395 76.3970844,126.24236 C72.9619743,124.267326 70.9088265,117.527651 70.9088265,117.527651 C70.9088265,117.527651 69.6464416,115.078854 65.981807,116.254298 C62.3171723,117.429742 65.1435885,118.715986 65.1435885,118.715986 C65.6065238,119.010851 65.6111036,119.500438 65.1392874,119.802485 C65.1392874,119.802485 61.9322239,122.111721 60.1013778,121.559311 C58.2705318,121.0069 62.7149614,123.748087 62.7149614,126.24236 C62.7149614,128.736634 60.7669455,131.387669 59.1883624,130.314147 C58.4984297,129.844955 61.7018968,132.586654 60.4451296,135.897638 C59.1883624,139.208623 52.5195781,140.668699 52.5195781,140.668699" id="Path-424"></path>
                </g>
                <path d="M0.940166798,361.761684 L217.030836,361.761684 M233.236898,361.761684 L395.375915,361.761684 M1057.17561,361.761684 L1152.30738,361.761684" id="Path-6"></path>
            </g>
        </g>
    </g>
</svg>