<svg id="Слой_1" data-name="Слой 1" xmlns="http://www.w3.org/2000/svg" viewBox="0 0 1108.04 497.31"><defs><style>.cls-1{fill:#fff;}</style></defs><title>d1_w</title><path class="cls-1" d="M1174,772.38a4.74,4.74,0,0,0-.42.88c-.62,5.85-.62,5.78-6.7,6.31q-47,4.14-93.89,8.31-17.73,1.56-35.47,3a12.43,12.43,0,0,1-3.89-.37,63.49,63.49,0,0,1-8.57-2.34c-14-5.48-28.37-4.3-42.85-3.2-21.91,1.66-43.85,3-65.78,4.41l-76.31,5-63.81,4.18-77,5.07q-32.23,2.11-64.48,4.19c-25.32,1.67-50.69,2.92-76,5.19-15.32,1.38-30.19-.5-45.18-2.83-28.54-4.43-57.11-8.64-85.66-12.94l-85-12.8-77.18-11.63c-11.7-1.76-23.4-3.56-35.41-5.39v-3.74q.94-159.27,1.8-318.54c0-3,1.07-3.82,3.77-4.79,10.42-3.75,20.71-7.85,31-12Q403.22,372.83,539.4,317.19c5.21-2.12,10.25-.4,15.19.39,17.33,2.76,34.59,6,51.86,9.12q68.5,12.38,137,24.81c2,.37,4.13.65,6.14,1.19a39.25,39.25,0,0,0,22.89-.63c3-1,6.87.31,10.27.93q82.74,15,165.45,30.19,69.46,12.71,138.93,25.45,73.21,13.38,146.43,26.68c5.73,1,11.42,2.25,17.17,3.12,2.25.34,2.87,1.21,2.85,3.38-.09,9,0,18,0,27v3.89c7.74,1.34,15.28,2.67,22.82,4l59.45,10c1.88.31,2.8,1,2.55,2.93a16.68,16.68,0,0,0,0,2v258.1l-84.22,5.15v13.21ZM1116.24,451v4.52q.45,122.51.91,245c0,9.34.15,18.68.16,28,0,1.82.36,2.76,2.49,2.89,12.61.81,25.21,1.79,37.81,2.66,5.21.37,10.43.63,16,1v21.66l78.84-3.77V440l-476.7-87v45.11ZM421.93,723.5V462.62c-13.34,2.14-25.48,9.6-39.66,7.67v-15c-1.34.37-2.37.63-3.38.94-10.48,3.25-20.91,6.68-31.47,9.64-3.55,1-7.44.8-11.42,1.17,0-5.1.16-9.39-.06-13.66-.13-2.36.79-3.28,2.92-3.83,2.54-.66,5-1.65,7.49-2.49l170.3-57.34a25.16,25.16,0,0,0,3.09-1.5l-.36-.88c-1.21.34-2.42.64-3.61,1q-97.49,32.76-195,65.5c-3.85,1.29-7.9,2-12.26,3.11V726.4ZM771.57,736l224.63-7.42V474.23L771.57,442.37ZM231.81,751.6c18.91,2.53,37.3,5,55.7,7.44q41,5.43,82,10.81,36.24,4.8,72.49,9.66l77.73,10.3c10,1.31,19.94,3,30.15,2.08s20.18-1.24,30.28-1.8q38-2.12,76-4.19l88.87-5c25.57-1.43,51.14-2.78,76.7-4.21q50.21-2.79,100.39-5.66,44.43-2.47,88.88-4.87c3.47-.19,6.94-.49,10.73-.76V755.11l94.21-5.94v-12c-5,.24-9.81.49-14.61.7L991,742.73q-69.33,3.12-138.65,6.33-73.29,3.32-146.57,6.59L558.89,762.2c-6.7.3-13.47,1.22-20.09.59-22.41-2.13-44.77-4.82-67.15-7.3l-74.34-8.28q-37.17-4.14-74.31-8.16c-26.86-3-53.7-6.07-80.57-8.87-3.42-.35-4-1.45-4-4.55q.12-140,.07-280v-4.1c-3.87-.26-4.94,1.28-5,4.84q-.74,150.69-1.69,301.39ZM307,434.34c-1.24.43-2.26.74-3.26,1.12-13.55,5.09-27.08,10.26-40.67,15.24-2.51.92-3.48,2-3.48,4.87q.14,134.66.08,269.33v3.84L307,731.12Zm714,333.37v-.53c-2.63,0-5.26-.12-7.87,0q-27.5,1.5-55,3.07l-75.38,4.17-90.2,5-75.71,4.19q-45.11,2.5-90.2,5c-21.94,1.23-43.88,2.53-65.83,3.67-8.55.44-17.17,1.24-25.66.56-12.46-1-24.83-3.19-37.24-4.83q-43.61-5.77-87.21-11.5l-83-11-77.4-10.32c-6.06-.8-12.13-1.55-18.41-2.35V766.4l34.37,5.17q40,6,80.11,12.06,42.84,6.47,85.66,13c28.67,4.33,57.32,8.73,86,12.9,9.85,1.44,19.61,4,29.74,2.89,5.24-.57,10.52-.82,15.78-1.17L659,805.07q52.63-3.45,105.26-7c31.8-2.09,63.6-4.09,95.4-6.17q65-4.24,129.94-8.54c5.44-.36,10.89-.8,16.58-1.22V769.71ZM997.73,474.27V723.76a10.06,10.06,0,0,0,.07,3c.24.73,1,1.78,1.66,1.83,4.34.37,8.7.52,13.51.77-.44-69.15-.87-138-1.31-207.09l88.81-8.69V734.31l15.64.79c-.39-94.3-.78-188.18-1.17-282.49ZM1313,540.63V706.16l-58.51,1.58v45.83l82.5-5V488.14l-83-14a11.07,11.07,0,0,0-.28,1.61q.06,27.87.1,55.73c0,1.86.78,2.45,2.49,2.64,11.79,1.31,23.57,2.68,35.36,4Zm-202.49-88.48a3.41,3.41,0,0,0-.07-.84l-36-5.59q-45.4-7-90.8-14.09-49.78-7.74-99.57-15.52c-32.21-5-64.45-9.86-96.63-15.1-8.37-1.37-16.32-1.61-24.54,1.1-9.47,3.12-19.24,5.33-28.87,7.93l-13.15,3.54v20.31l27.79,3.94v-3.94c0-7.47,0-14.95,0-22.42,0-1.06.43-2.86,1.05-3.05,6.89-2.09,13.85-3.93,21.42-6v38.64c5.83.82,11.15,1.56,16.47,2.32L882.82,457q50.71,7.2,101.43,14.34c5.39.75,11.06,1.91,16.28,1,26.83-4.55,53.56-9.71,80.33-14.65ZM251.35,729.28v.57c3.48.38,7,.74,10.45,1.13q31.44,3.48,62.88,7,31.27,3.46,62.56,6.9L456,752.49c21,2.32,41.91,4.76,62.89,6.93,9.37,1,18.8,1.76,28.21,2,8,.17,16-.64,24-1l78.73-3.51,97.49-4.4,79-3.54q40.84-1.83,81.69-3.7,33.42-1.51,66.86-3l65.54-2.91,64.53-2.91a42,42,0,0,0-7.74-1q-33.08-1.91-66.16-3.74c-11.85-.65-23.72-1.8-35.55-1.59-27.8.5-55.59,1.7-83.39,2.6L782,736.81c-3.37.11-6.74.36-10.12.54-.12,2.62-.22,4.89-.32,7.28H748.78c-.12-2.24-.24-4.28-.33-6h-27.3v7.25H698.39c-.13-2.08-.25-4-.34-5.62H664.4V747h-23c0-1.9-.14-3.56,0-5.18.25-2.39-.58-3.24-3.08-3.32-5.7-.17-11.4-.71-17.1-1.07-4.89-.3-9.79-.56-15.09-.86v13.07h-23c0-3.94-.15-7.66.06-11.37.14-2.56-.75-3.44-3.28-3.55-8.23-.38-16.46-1-24.68-1.46l-12.44-.77V751h-23c0-5.53-.19-10.9.07-16.25.15-3.22-1-4-4.07-4.14-19.31-1.09-38.6-2.51-57.9-3.63-14.59-.84-29.2-2.14-43.78-2-34,.42-67.91,1.6-101.86,2.48-1.19,0-2.38.12-3.65.19-.18,1.69-.34,3.16-.52,4.86ZM423.56,461.79V723.54l15.54,1V519.25c1.17-.32,2-.59,2.87-.77q37.06-7.71,74.15-15.35c2.68-.55,3.72-1.48,3.7-4.43-.15-20.23-.07-40.45-.08-60.67,0-1.13-.13-2.27-.22-3.72ZM698,738.71V431.92l-28-4V738.71Zm-156.9,11V344.61c-6,2-11.2,3.88-16.56,5.36-2.85.79-3.65,2.12-3.65,5q.12,195.5.07,391v3.75Zm180-314.54V736.86h27.5V444.1a8.79,8.79,0,0,0-.07-2.94c-.36-.91-1.19-2.16-2-2.28-8.43-1.34-16.91-2.48-25.39-3.68ZM604.32,748.51V357.57c-6.11,1.93-11.4,3.74-16.78,5.21-2.64.72-3.27,2-3.27,4.64q.11,188.77.07,377.54c0,1.16.11,2.32.18,3.55Zm38.28-2.64h20.11V366.54c-5.93,1.82-11.2,3.63-16.59,5-2.68.7-3.6,1.79-3.59,4.66q.12,183,.07,365.93Zm76.88-1.11V375.62c-6,1.76-11.25,3.54-16.67,4.85-2.87.7-3.41,2.12-3.41,4.81q.09,177.9.06,355.79v3.69Zm30.33-1.1c6,0,11.46-.16,16.92.06,3,.12,3.88-.74,3.87-3.82q-.51-165.84-.85-331.68v-4.15c-5.62,1.53-10.65,3.1-15.77,4.21-3.22.7-4.27,2-4.27,5.48q.18,162.71.1,325.41ZM239.71,455.4c1.52-.53,2.64-.9,3.75-1.33l238.93-92q28.11-10.81,56.18-21.68c1-.4,2.52-1.5,2.54-2.31.21-6.56.12-13.14.12-20.1-1.46.53-2.59.91-3.68,1.35l-240.4,98q-27.43,11.19-54.83,22.43c-1,.42-2.44,1.53-2.49,2.39C239.57,446.48,239.71,450.75,239.71,455.4Zm391.41,34c-7.27,1.42-14.46,3-21.71,4.13-3.15.49-3.71,1.79-3.7,4.7q.3,100.89.4,201.79a10,10,0,0,0,.1,2.94c.25.73,1.13,1.74,1.74,1.75,7.54.12,15.09.08,23.17.08ZM1099,734.2V514.94c-5.92.56-11.6,1.08-17.28,1.64-21.53,2.11-43.06,4.31-64.61,6.26-3.35.3-4.3,1.25-4.28,4.66q.81,99.24,1.37,198.49c0,1.07.09,2.13.16,3.43ZM240,457.71v270h18.32V454.88c-3.11,1-6,2.27-8.91,2.73s-6.2.1-9.51.1ZM641.11,737.53V399.32c-1.12.25-2,.4-2.8.63-9.81,2.82-19.59,5.75-29.43,8.41-2.65.71-3.34,1.91-3.32,4.56.15,22.63.15,45.27.19,67.91v3.49L636,478.08V719.55l-29.56-1.29v17.06ZM542.49,506.65v3.49q.12,94.13.26,188.24a5.65,5.65,0,0,0,.07,2.28c.39.8,1.18,2,1.83,2,6.22.15,12.45.09,19.19.09V502.53Zm-23.2-2.79c-.62,0-1.24.07-1.85.15-24.49,5.11-49,10.3-73.47,15.27-3.05.62-3.72,1.78-3.72,4.72q.13,98.39.07,196.78v3.85l34.42,2.21V711.13l45,1.94v-5.76c0-4.21,0-4.24-4.32-4.29s-8.46,0-12.73,0V513.15l12.69-2.55C520.32,509.61,520.42,509.45,519.29,503.86Zm759,40.18-23.93-2.58V700.3h23.93ZM519.71,361.21c-1.42.48-2.44.8-3.44,1.16L387.15,409.76l-76,28c-1.1.4-2.67,1.57-2.73,2.46-.27,4.58-.12,9.18-.12,14.07,1.35-.43,2.39-.74,3.4-1.09l145.48-50.54q29.83-10.38,59.65-20.82c1.07-.38,2.69-1.4,2.72-2.18C519.82,373.64,519.71,367.61,519.71,361.21Zm-.15,149.9c-4.22.81-8,1.82-11.76,2.17-3.45.33-4.12,1.87-4.12,5.07q.15,89.35.07,178.7a12.05,12.05,0,0,0,.1,3c.14.58.85,1.44,1.33,1.45,4.78.11,9.57.07,14.38.07ZM582.92,416c-1,.25-1.71.41-2.42.61-11.69,3.38-23.36,6.85-35.09,10.1-2.53.7-3.09,1.92-3.08,4.37.13,21,.11,42,.14,62.95v3.53l40.45-8.44Zm-63.21-25.84c-1.59.47-2.54.71-3.47,1l-122,41.06-54,18.19c-1.11.38-2.85,1.27-2.9,2-.29,4.11-.14,8.24-.14,12.65,1.55-.4,2.61-.63,3.63-1l123-39.07q26.51-8.43,53-16.9c1.07-.35,2.68-1.38,2.72-2.15.28-5.06.16-10.21.16-15.79ZM668.47,739.34V509.41q0-39.9-.07-79.8c0-2.61.87-3.58,3.25-4.18,8.09-2.05,16.1-4.35,24.19-6.4,1.85-.47,2.45-1.25,2.41-3.13-.12-5.5,0-11,0-16.49V382.75c-1.35.35-2.3.57-3.23.84-9.18,2.64-18.31,5.43-27.55,7.84-2.88.75-3.72,1.89-3.71,4.84q.45,169.49.73,339V739Zm-85.63-35.78V498.8a66.7,66.7,0,0,1-8.05,1.5c-3.11.21-3.88,1.52-3.88,4.55q.14,97.44.07,194.88v3.83ZM770.38,356.63v1.44c-7.65-3.68-14.48-.35-21.56,2.08L769.37,364a1.91,1.91,0,0,1-1.87.76c-6-1-11.94-1.89-17.82-3.25a20.19,20.19,0,0,0-12.36,1.3V371l32,5.86a3,3,0,0,1-2.55.76c-4-.7-8-1.51-12-2.18-10.35-1.75-20.7-5.5-31.11-.24a1.66,1.66,0,0,1-.62.19c-2.09.23-2.51,1.47-2.49,3.41.1,10.33.06,20.66.08,31a21.54,21.54,0,0,0,.23,2.27c.64-.11,1.07-.14,1.48-.25,16.42-4.41,32.83-8.88,49.28-13.2,2.14-.56,2.73-1.51,2.72-3.61-.08-13.19,0-26.37-.05-39.56,0-.84-.16-1.67-.27-2.75l-8.86,2.41ZM383.55,469.13c1.83-.47,3.31-.81,4.75-1.24q27.45-8.07,54.89-16.17,36.75-10.85,73.48-21.74c1.14-.34,2.87-1.44,2.92-2.27.27-4.9.13-9.82.13-15.11-1.59.47-2.74.79-3.87,1.14l-56.54,17.52q-36.43,11.3-72.86,22.65c-1.11.34-2.71,1.52-2.77,2.4C383.38,460.44,383.55,464.61,383.55,469.13Zm870.48,71L1279.5,543V701.82h-25.16v4.67l57.47-1.53c.11-1,.25-1.78.25-2.52V544.56c0-2.26-.73-3-3-3.22-10.81-1.14-21.59-2.49-32.39-3.73-7.5-.86-15-1.68-22.73-2.54Zm-81.94,195.93h-9.27v32.77L1037.35,779v10.63c4.61-.36,9-.66,13.35-1q59.38-5.21,118.79-10.38c2.37-.2,2.86-1.12,2.84-3.27-.08-12.08,0-24.17,0-36.25,0-.73-.15-1.52-.24-2.68ZM542.64,505.32c6.43-1.22,12.56-2.39,18.7-3.54,4.26-.8,4.27-.79,4.26,3.69q-.33,97.74-.67,195.47c0,1.07-.09,2.15-.14,3.28h-21.7v9.94l40,1.77c0-2.93-.14-5.44,0-7.93s-.89-3-3.08-3c-3.35.12-6.71,0-10.16,0V500c3.71-.74,7.24-1.54,10.81-2.11,1.74-.28,2.54-1,2.41-2.76-.1-1.48,0-3,0-4.85l-40.5,8.45ZM242.45,455.84l.19,1a85,85,0,0,0,8.86-1.07c3.4-.76,5.95-3.75,8.79-5,15.14-6.39,30.69-11.85,46.1-17.61a5.17,5.17,0,0,1,1.49-.37c1.23,3.14,3.12.8,4.39.33q102.08-38,204.09-76.15c2.33-.87,3.85-1.75,3.46-4.56a2.76,2.76,0,0,1,1.07-2.34c6.89-2.42,13.83-4.67,20.91-7,.31,1.55.53,2.68.81,4.1l12.45-4.73-.24-.81c-5.81.41-11.47-1.75-17.47.56q-142.28,55-284.66,109.63C249.26,453.14,245.86,454.5,242.45,455.84Zm299.79-83.49c.74.16.87.23,1,.2q31.26-10.77,62.51-21.6a2.52,2.52,0,0,0,1.42-1.77c.1-6.65.06-13.3.06-20.34l-10.31,3.81,6.26,1.53L603,335l-3.35-.47c-2-.26-4.11-1.2-5.8-.66-6.61,2.12-13.08,4.71-20.48,7.45L602,346.56l-.16.93a28.25,28.25,0,0,1-2.84-.26c-8.76-1.54-17.51-3.13-26.27-4.63a6.68,6.68,0,0,0-3.17.17q-12.7,4.58-25.32,9.35c-.83.32-1.91,1.4-1.93,2.16C542.17,360.3,542.24,366.32,542.24,372.35Zm499,400.58,106.12-8.67V753.75l-106.12,7.11ZM660.46,357.16l-.18,1.06c-2.4-.4-4.79-.78-7.18-1.2-7.78-1.35-15.58-3.89-23.32-3.71-6.09.14-12.1,3.6-18.13,5.61-6.21,2.08-6.2,2.09-6.18,8.72V380c19.86-6.34,39-12.43,58.07-18.6.74-.24,1.74-1.23,1.75-1.89.14-6,.08-12,.08-18.52L658,343.47l4.81,1.47-.09.9c-10.93-3.45-19.48,3.72-29.15,6.37ZM605.92,493c7.62-1.47,15-2.92,22.43-4.32,4.53-.86,4.55-.83,4.53,3.68q-.32,105.48-.64,210.95c0,1.06-.1,2.12-.15,3H606.35V717l28.53,1.27V479.56l-29,6Zm646.87,261.15-79.07,3.78v13.22l79.07-4.23ZM715.64,366.79v.83a7.49,7.49,0,0,1-1.77.09c-6.71-1.13-13.39-2.38-20.1-3.43-4.41-.68-9-1.91-13.27-1.39-5,.61-9.88,2.81-14.77,4.42-.72.23-1.81,1-1.82,1.49-.13,5.84-.08,11.69-.08,17.91,19-5.62,37.39-11,55.75-16.5.61-.18,1.48-.92,1.49-1.41.1-5.42.06-10.85.06-16.61L715,353.68l3.79,1.49c-11.92-2.41-22,4.32-33,5.46l.06,1Zm445.88,399.88v-31l-43.88-3.21V749.2l31.16,2.72v12.36ZM542.31,399.46c.59.13.71.19.8.16q19.27-6,38.54-12.1A2.3,2.3,0,0,0,583,386c.1-5.65.06-11.3.06-17.37-13.43,4.52-26.3,8.83-39.12,13.26a3.1,3.1,0,0,0-1.6,2.35C542.23,389.26,542.31,394.3,542.31,399.46Zm40.81-6.56C569.71,397,557,401,544.21,405c-.7.22-1.72,1-1.74,1.57-.13,5.19-.08,10.39-.08,16,13.47-4,26.38-7.8,39.25-11.69a2.48,2.48,0,0,0,1.42-1.8C583.17,403.82,583.12,398.59,583.12,392.9Zm0,340.91c0-4.83-.13-9.2,0-13.56.11-2.45-.73-3.22-3.14-3.3-11.29-.39-22.58-.94-33.87-1.42H543v15.71ZM519.5,714.34l-43.41-1.93v14.53l43.41,2.75Zm86-310.45c11.85-3.5,23.08-6.81,34.29-10.18.59-.18,1.4-1,1.41-1.47.11-5.64.07-11.29.07-17.41-11.86,3.69-23.15,7.17-34.4,10.76a2.46,2.46,0,0,0-1.31,1.88c-.09,5.25,0,10.53,0,16.42ZM312.24,454.35l.29.93c2.92-.95,5.86-1.87,8.78-2.85l195-65.51c2.07-.7,4.53-1.12,2.9-4.52Zm207-97.15-211,78.8.39,1.1c1-.32,2-.59,3-1l158.19-58.09,47.26-17.35c1.42-.52,3.42-.71,2.11-3.51ZM1140.78,753v-.85c-9.74-.49-19.51-1.73-29.21-1.3-23.93,1-47.83,2.85-71.74,4.36-4.42.28-8.84.61-13.26.92a5.52,5.52,0,0,1-.08,1.15c5.65.76,11.33,2.26,17,2.12,11.85-.3,23.68-1.46,35.52-2.25Zm-102.42,23.29.48,1.41,118.48-9.7v-1.41c-4.91-.26-9.85-.94-14.74-.69-9.53.49-19,1.52-28.54,2.3-23.63,1.94-47.25,3.84-70.87,5.88-1.63.19-3.17,1.43-4.81,2.16ZM558.45,319.18l-15.79-1.87v22.25l15.79,1.2ZM737.08,357.7c7.5,3.49,13.81-.45,20.47-2.36l-75.8-13.75v6.46c8.73,1.59,17.24,3.26,25.79,4.64a14.93,14.93,0,0,0,7.06-.35c7.51-2.61,14.87-.92,22.48-.14ZM519.23,408.76l-176.58,56.1.24.85c1.56-.36,3.16-.62,4.69-1.09q58.94-18.25,117.85-36.56l51.54-16C518.4,411.65,520.51,411.53,519.23,408.76ZM1035.69,778.9l-28-7.49c-1.41,10.29-1.26,10.54,7.8,13,.21.06.41.16.63.22l19.6,5.1ZM622.83,351c0-6.45.06-12.47-.08-18.47a2.64,2.64,0,0,0-1.73-1.84c-4-.78-8.14-1.34-12.38-2v21.5Zm-3.94,1.75v-1.12c-4.33.22-9-.48-12.93.83-20.32,6.67-40.45,13.9-60.7,20.81-2.64.9-3.59,2.14-2.47,5.06,7.18-2.38,14.46-4.45,21.46-7.23,6.84-2.71,14-4.42,20.63-8.11a51.31,51.31,0,0,1,22.28-6.42c3.93-.24,7.84-2.57,11.73-3.87ZM680,360.6V342.4l-13.41-2c0,6.46,0,12.47.07,18.48a2.26,2.26,0,0,0,1.44,1.64C672.05,360.66,676,360.6,680,360.6Zm-75-32.29.09-.62-44.83-8.1c-1,6.2-1,6.25,4.18,7.22q14.07,2.65,28.16,5.18a6.12,6.12,0,0,0,2.85-.2C598.62,330.71,601.78,329.48,605,328.31Zm-45,10.82c3.75.54,7.77,2.21,11.2,1.39,6.73-1.61,13.12-4.6,19.66-7l-.06-.56-30.8-5.7ZM390.1,468.65l.2.92c1.81-.37,3.65-.62,5.41-1.12q41.12-11.71,82.21-23.48,19.44-5.57,38.87-11.17c1.35-.39,3.62-.3,2.5-3.22ZM624.49,331.22c-1,6.22-1,6.24,4.36,7.25,6.79,1.26,13.66,2.15,20.34,3.84,6.17,1.55,11.13-1.24,16.46-3.63Zm111.09,38.43V353.18l-13-1.2v17.67Zm-59.64-6.89-.13-.46c-3.65,0-7.56-.87-10.9.14-19.11,5.77-38.07,12-57.09,18-2.17.68-2.85,1.76-1.6,4.28,11.81-5.49,24.93-6.7,36.67-13,6.44-3.45,14.06-6.18,22.2-5.82,3.57.16,7.23-2,10.85-3.14Zm55.43,8.55c-4,0-7.77-.79-11.06.13-18.15,5.06-36.17,10.55-54.26,15.84-2.15.63-2.88,1.62-1.78,3.86ZM624.09,338.9c0,3.66-.06,6.93.06,10.19,0,.57.72,1.55,1.18,1.59a21.79,21.79,0,0,0,6.4.11,74.92,74.92,0,0,0,8.75-2.82c3.46-1.17,6.91-2.38,10.36-3.57l-.11-.67Zm415.73,434c0-3.74,0-7.11-.06-10.47a2.11,2.11,0,0,0-1.1-1.67c-5.08-1.15-10.2-2.15-15.74-3.29,0,3.31-.09,6.13.07,8.94a2.56,2.56,0,0,0,1.45,1.81c5,1.58,10,3,15.38,4.66ZM681.7,360.56l24.42-6v-.79l-24.37-4.39Zm-8.5,65.83.08.75L698,430.66v-11Zm-89.71-36.93-1-.89c-12.83,4.1-25.66,8.17-38.46,12.37-.83.27-1.34,1.54-2.31,2.73a6.8,6.8,0,0,0,1.55.21c12.68-3.89,25.36-7.76,38-11.79.94-.29,1.49-1.73,2.22-2.63Zm58.14,6.07-.78-.75c-11.33,3.35-22.67,6.66-34,10.12-.68.21-1,1.59-1.48,2.42,12-2.63,23.26-5.83,34.48-9.2.8-.23,1.2-1.7,1.78-2.59Zm397.11,378.56c-13.69-5.35-17.28-5.8-28.29-3.47,1.14.41,1.91.75,2.72,1,6.66,1.8,13.38,3.4,20,5.42C1036.18,777.94,1037.61,776.9,1038.74,774.09ZM542.15,425.31l.76.94c12.9-3.78,25.8-7.52,38.67-11.39.74-.22,1.19-1.38,2-2.43a7.33,7.33,0,0,0-1.54-.28c-12.7,3.72-25.41,7.44-38.09,11.25C543.26,423.62,542.76,424.65,542.15,425.31Zm-.23-75.06.92,1,25.24-9.35c-4.12-.91-6.74-1.65-10.08.58-4,2.64-9.09,3.56-13.64,5.41-1,.4-1.63,1.55-2.44,2.36Zm41,17.09-.36-1.07-40.12,13.49.39,1.12Zm22.78-8.85.27,1,20.29-6.82-.33-1Z" transform="translate(-230.4 -316.17)"/><path class="cls-1" d="M931.5,715.45l-153.32,2.92V482.6L931.5,498.88Zm-152.14,1.67,150.93-2.88V500L779.36,484Z" transform="translate(-230.4 -316.17)"/><path class="cls-1" d="M1092.46,725l-42.59-1.87V558.58l44-2.27C1093.4,612.66,1092.93,668.54,1092.46,725Zm-1.22-1.27c.46-55.67.92-110.77,1.39-166.17l-41.48,2.15V722Z" transform="translate(-230.4 -316.17)"/><path class="cls-1" d="M1018.59,560.17l24.75-1.2V722.43H1019.6C1019.26,668.21,1018.93,614.41,1018.59,560.17Zm1.88,1.16V721.16h21.67V560.25Z" transform="translate(-230.4 -316.17)"/><path class="cls-1" d="M1018.34,551.28c0-7.5-.08-14.61.12-21.72,0-.65,1.75-1.7,2.77-1.81,11-1.2,22.06-2.26,33.1-3.33q18.69-1.81,37.39-3.57c.64-.06,1.28,0,2.13,0v24.88Zm1.22-1.33,73-5.37V522c-5.79.55-11.25,1.06-16.71,1.59-18,1.77-36,3.51-54.07,5.39a3,3,0,0,0-2.11,2c-.19,6.17-.11,12.31-.11,19Z" transform="translate(-230.4 -316.17)"/><path class="cls-1" d="M500.76,513.53V702H475V518.47ZM499.47,515c-6.64,1.28-13.06,2.75-19.56,3.69-3.05.43-3.6,1.69-3.61,4.45q-.15,86.85-.46,173.7v3.93h23.63Z" transform="translate(-230.4 -316.17)"/><path class="cls-1" d="M469.14,562.09V720.3l-21.48-1.45v-4q0-72.71-.06-145.4c0-2.91.5-4.24,3.74-4.58C457.22,564.26,463,563.07,469.14,562.09ZM467.83,719V563.56l-18.69,3V717.72Z" transform="translate(-230.4 -316.17)"/><path class="cls-1" d="M447.83,523.71l22.5-4.22V525c0,9.88-.06,19.75,0,29.63,0,2.21-.7,3-2.92,3.29-5.44.64-10.85,1.6-16.27,2.4-1,.15-2.11.15-3.35.23ZM468.89,521c-6.24,1.14-12.17,2.14-18,3.41a3.55,3.55,0,0,0-1.87,2.68c-.19,4.38-.08,8.78-.08,13.16v19.09l20-3Z" transform="translate(-230.4 -316.17)"/><path class="cls-1" d="M1306.32,700.94h-24.16V543.35l24.16,2.54Zm-22.93-156.23v155h21.95V551.36c0-.77.25-1.67-.07-2.28-.45-.88-1.23-2.14-2-2.23-6.53-.85-13.09-1.44-19.88-2.14Z" transform="translate(-230.4 -316.17)"/><path class="cls-1" d="M782.29,491.68l45.1,4.78V710h-45.1Zm1.2,1.41V708.74h42.64c.1-1.37.2-2.12.2-2.87q0-102.66.06-205.33c0-2.44-.81-3.16-3.15-3.37-7.76-.69-15.5-1.62-23.25-2.43C794.56,494.17,789.12,493.65,783.49,493.09Z" transform="translate(-230.4 -316.17)"/><path class="cls-1" d="M877.45,709.16h-46V496.94l46,4.73Zm-1.32-1.28V502.77l-43.47-4.47V707.88Z" transform="translate(-230.4 -316.17)"/><path class="cls-1" d="M881.79,502.33c7.86.8,15.49,1.57,23.11,2.38,5.35.56,10.69,1.31,16.05,1.68,2.45.16,3.15,1,3.13,3.38-.1,12-.05,24-.05,35.93V708.11H881.79ZM883,707.47h3.38c10.88-.21,21.76-.53,32.64-.58,3,0,3.86-.87,3.85-3.9q-.12-95.79-.07-191.59c0-1.15-.14-2.3-.22-3.53L883,503.67Z" transform="translate(-230.4 -316.17)"/></svg>