<svg id="Слой_1" data-name="Слой 1" xmlns="http://www.w3.org/2000/svg" viewBox="0 0 1201.97 597.1"><defs><style>.cls-1{fill:#fff;}</style></defs><title>d3_w</title><path class="cls-1" d="M1206.73,790.87V752.8l-202.37,29.94V795.2c-4.42.78-8.73,1.57-13.06,2.29-31.8,5.29-63.59,10.63-95.41,15.75-3.7.59-7.62,0-11.42-.18q-62.55-3.87-125.08-7.8c-31.9-2-63.79-3.86-95.69-5.83q-52.47-3.24-105-6.57c-20.65-1.29-41.28-2.92-61.94-3.65-9.13-.32-18.34,1.15-27.5,1.93-15.14,1.28-30.26,3.06-45.43,3.82-8.52.43-17.13-.75-25.69-1.25Q368.61,792,339,790.21l-80.21-4.73-22.61-1.36a14.3,14.3,0,0,1-1.45-.29V773.08l-11.19-.63c-.13-2.36-.24-4.49-.37-6.94L183.5,763V505.63l3.8-1V367.27l-2.54-.4a10.26,10.26,0,0,1-.13-1.23c0-12.2.07-24.41-.08-36.61,0-2.55.7-3.55,3.19-4.13q45.1-10.5,90.17-21.19c26-6.14,52.06-12.33,78.12-18.35a15.25,15.25,0,0,1,7.17.15q92.49,25.85,184.92,51.85a11.25,11.25,0,0,0,4.86.32Q610.79,327.39,668.59,317q52.76-9.47,105.53-18.89,49.41-8.85,98.8-17.73l95.12-17,85-15.27,77.38-13.87,75.2-13.52c8.12-1.46,16.23-3,24.36-4.32a4,4,0,0,1,2.93,1q75.15,67.48,150.25,135a6.37,6.37,0,0,1,2.3,5.31q-.07,198.14,0,396.27c0,2.86-.84,3.82-3.55,4.43q-74.54,16.64-149,33.44a19.12,19.12,0,0,1-5.23.21C1220.78,791.67,1213.9,791.26,1206.73,790.87Zm24.15-302.52v-271L551.81,339.09v39L479,390.1l.11.65,642.3-103.18V425c0,11.27-.11,22.55.07,33.82,0,2.91-.94,3.72-3.67,3.75-3.3,0-6.59.48-9.89.77l-68.27,6c-9,.79-17.89,1.6-26.21,2.35.47,1.29,1.23,2.42,1.25,3.56.1,7.66,0,15.31,0,23v6.14Zm-869.37-1.17c-.35,82.31-.69,164.06-1,246.17l102.18-4.17v-144l72.07,5.65V726.29l15.18-.75v-4.19l.39-81.6q.36-61.28.83-122.55c0-2.49-.4-3.65-3.24-3.93-6.47-.64-12.89-1.75-19.33-2.66L455.8,500.38,382.75,490.1C375.82,489.13,368.88,488.19,361.51,487.18Zm642.92,273.67c11.55-1.26,22.83-2.48,34.1-3.73,23.42-2.59,46.83-5.27,70.26-7.74,2.88-.3,3.49-1.28,3.49-4q-.22-106.43-.25-212.83c0-2.54-.71-3.56-3.19-4.14-21.92-5.14-43.8-10.42-65.69-15.65l-29.58-7.1c0-9.82-.08-19.43,0-29,0-2.32-.76-3.14-3-3.73-23.54-6.27-47-12.67-70.57-19-1-.28-2.09-.43-3.17-.65V744.69l67.5,1.7ZM947.92,321.06V454.79l3.61,1V316L800,340.38v85.14h-.88V340.76c-1.28.08-2.11.07-2.92.2l-27.84,4.47-90.88,14.64q-45.45,7.31-90.89,14.57l-91.2,14.66-81.1,13c-1.57.24-2.08.85-2.05,2.38.07,4.55,0,9.1,0,13.65v9.19l5.33.92c0-7.5.15-14.72-.08-21.92-.09-2.95,1-3.77,3.74-4.2,26.53-4.18,53-8.5,79.57-12.77,7.62-1.23,15.25-2.42,23.31-3.69v63.46l20.94,4.15V512H557.3V468.71l-7,.39V451.45c5.56,0,11,.27,16.36-.07,6.06-.38,12.09-1.27,18.12-2,10.43-1.28,20.86-2.62,31.29-3.92,14.22-1.76,28.43-3.54,42.66-5.26,14.85-1.8,29.72-3.46,44.56-5.33,5.83-.74,11.6-2,17.43-2.79,4.18-.54,8.43-.51,12.63-.91q8.77-.82,17.52-2c8.48-1.09,16.92-2.51,25.42-3.4,5.49-.57,11.22-1.39,16.54-.42,10,1.83,19.82,4.87,29.71,7.41l9,2.26V341.48c-7.17,1.19-14.06,2.54-21,3.39-3.15.38-3.67,1.67-3.66,4.52q.17,37.5,0,75.09c0,1.07-.18,2.15-.27,3.22l-.74-.09V344.54ZM359.31,733.19c.35-82.18.69-163.93,1-246.06l-175.62,19.3V746.14l38.64,1.9V738ZM794.71,741l140.63,3.59V452.94l-26.73,2.21v19.12L794.94,445.34c-.84,2.05-.14,2.89,1.67,3.26,2,.41,4,1,6,1.54,14.49,3.77,29,7.52,43.45,11.35,1.06.28,2.77,1.12,2.79,1.76.22,5.51.13,11,.13,16.87l-54.14-12.87v76l88.95-5.59v184.9l-89.08-2.14Zm512-225v-3.53q0-112.14.06-224.3a6.39,6.39,0,0,0-2.45-5.25q-34.65-31-69.22-62.21c-.72-.65-1.52-1.21-2.79-2.22v3q0,132-.06,264c0,2.29.8,3.16,2.86,3.9,9.81,3.53,19.55,7.25,29.32,10.89ZM953,456.06c.44.15.81.31,1.19.41q26.16,7.09,52.31,14.14a10.25,10.25,0,0,0,3.36.17q12.67-1,25.33-2.12c4.8-.42,9.6-.91,14.75-1.41v-167L953,315.8ZM462,764.47c72,5.38,143.83,7.76,215.53,11.52s143.67,7.23,215.83,10.84V759.65L224.47,739.57c0,3.95.21,7.37-.06,10.74-.25,3.05.89,3.79,3.8,3.89,21.29.71,42.57,1.61,63.86,2.42,2.55.1,5.11,0,8,0v-6.45a6.78,6.78,0,0,1,1.17-.33c16-.42,32.07-1.58,48.06-1.08,32.76,1,65.49,3,98.24,4.43,4.71.22,9.45,0,14.4,0Zm651.56-234.79V748.79l44.59-4.95V635.61q0-46.08.06-92.16c0-2.46-.78-3.42-3.08-3.92-6-1.32-12-2.86-18.08-4.29l-23.57-5.56ZM246.41,738.58v.35c.77.09,1.53.23,2.3.26L360,742.48l91.18,2.71,115.36,3.49,91.17,2.71,115.36,3.5,94.58,2.86c9.29.27,18.66,1.1,27.88.32,19.45-1.63,38.84-4.15,58.25-6.32q17.38-1.93,34.78-3.91v-.68l-194.12-5V754h-11.1V741.88l-49.63-1.32v11h-11v-11.3l-47.22-1.16v9.66H664.22v-9.85l-3.78-.41V724.63l-39.8-1.43v24.17h-11V723.45l-41.11,2v20.28H557.42v-19ZM893.16,788l-414.9-20.66V777.9h16.21v9.88L893.16,812.4Zm448.33-471.49c-.06,1.35-.12,2-.12,2.72V526.41c0,2,.65,2.83,2.5,3.5,10.58,3.82,21.11,7.79,31.65,11.71l8.79,3.24v-187a5.73,5.73,0,0,0-1.2-3.84c-13.69-12.49-27.4-24.76-41.62-37.54ZM609.58,522.57l-40.72-6v207.7l40.72-2Zm92.18,195.86V549.11l20.65-1.38V485.67l-29.9-6.1v14.82l-16.94-2.95V737.93l46.85,1.16V718.43ZM621,521.78V722l39.27,1.4V517.82ZM360.22,330.9,550.7,376.8v-3.43c0-10.24-.15-20.47,0-30.71,0-2.77-1-3.63-3.44-4.31Q466.07,315.6,384.87,292.7c-8.14-2.29-16.27-4.55-24.65-6.89Zm659.12,174.34v.67l187.48,44.89V492.93c11,.38,21.88-3.41,32.92.78v57.88l32.83-1.66v-36.4l20.77-.93c-1.27-.62-1.77-.93-2.32-1.13q-28.73-10.71-57.48-21.37a9.64,9.64,0,0,0-3.92-.42q-26.3,1.88-52.59,3.85l-62.48,4.59q-36.19,2.67-72.38,5.38ZM185.92,365.82c1.12-.18,1.83-.27,2.53-.41l74.66-15.19q46.29-9.42,92.58-18.78c2.5-.5,3.32-1.41,3.26-4-.18-8.27,0-16.54,0-24.82V285.83l-173,40.8Zm973.51,174.83V743.7l47.12-5.23v-31l-15.62.93V581.13l15.68,2.07V552ZM1308,286.34c-.08,1.17-.14,1.66-.14,2.16V514a2.94,2.94,0,0,0,2.32,3.31c9.32,3.37,18.58,6.89,27.87,10.34.72.21,1.44.39,2.18.53v-3.94q0-102.07.08-204.13a9.63,9.63,0,0,0-3.64-8.16C1327.11,303.73,1317.83,295.2,1308,286.34Zm38.39,462.55V538c0-2.13,0-4-3.26-3.83V749.56l-43.93,8.67v-4.51q0-117.62.07-235.21c0-3.31-1.11-4.49-4.43-4.32V759.1l-56.5,11.3v-276l-6.63-1.61v298.1l152.51-34.34V550.2a3.62,3.62,0,0,0,0-1.23c-.47-1-1.06-1.9-1.6-2.84l-.89.4V741.87Zm-116.23,42.05V492.74l-22,1.44V789.83Zm-353.4-78.56V546l-38,2.37v164Zm-44.35-.51V548.73l-37.65,2.38V711.87ZM546.7,377.71l.1-.65L376.09,335.92c.08,1.5.19,2.69.19,3.88v59.86c0,5.43.35,5.75,5.75,5.2a5.88,5.88,0,0,0,.93-.1q23-3.76,46.16-7.62l96.57-15.92Q536.21,379.48,546.7,377.71ZM215.08,438.63a4.9,4.9,0,0,0,.93.1l127.76-19c1.76-.26,2.17-1,2.15-2.63-.08-4.76-.13-9.52,0-14.27.06-2.07-.65-2.75-2.69-3.16Q290,389,236.72,378.11l-21.64-4.36ZM750.59,553.88V711.26h32.68V551.86ZM215.09,372.54l130.8,26.51V338.16c0-2.22.39-3.32,2.92-3.57,3.53-.35,7-1.26,10.5-1.93l-.17-.8-161,32.75v.5l16.67,2.69ZM1273.91,514.37V756.13l19.52,1.5V514.37ZM1322,746.86V548.61l-21.37,1V750.8Zm19.88,1.23V534.3h-18.33V747ZM879.62,333.53c-.06.78-.13,1.29-.13,1.79V445.14c0,1.76.52,2.56,2.24,3,7.42,1.83,14.79,3.88,22.22,5.62,1.89.45,4,.07,5.88.07V328.55Zm66.92,121.32V322.47c-8,1.34-15.83,2.79-23.69,3.86-2.81.39-3.68,1.28-3.67,4.19q.15,59.52.07,119.06v3.47C928.57,452.54,937.56,450.23,946.54,454.85ZM734,488.18v58.88l49.36-3.14v-61l-43.55-10v16.19Zm524.13,63.7v4.4q0,92.76,0,185.51c0,2.49-.41,3.64-3.24,3.9-5.1.46-10.15,1.48-15.14,2.25v14.11l32.53-6V551.12ZM1004.46,781.56l202-29.9v-12l-202,22.39Zm235.29-46.82c4.7-.52,9.2-1.25,13.72-1.44,2.87-.13,3.53-1.15,3.52-3.89q-.1-87-.06-174.07v-3.46l-17.18.92Zm124.74-188.28V738.3l15.8,1.82V546.46ZM1120,461.16V289l-68.69,11V467.19Zm-250.39-126c-8.84,1.48-17.27,3.07-25.75,4.21-3,.41-3.56,1.54-3.55,4.31.1,29.47,0,58.94.09,88.41,0,6.61-1,4.94,5.06,6.61,7.95,2.17,16,4.11,24.15,6.2ZM1363,738.63V546.52l-15.22.75V742Zm-1089.19-281-63-9.47v54.26l63-6.93ZM894.6,786.8c1.7-.18,3.14-.29,4.57-.48l53.77-7.17c16-2.12,32-4.19,47.94-6.35.8-.11,2.13-1,2.14-1.5.14-7.83.1-15.66.1-23.9L894.6,759.52ZM793.24,446.39l-8.33-.4V752.85h8.33Zm-60.81,304V454.31l-8.39-.43V750.42ZM665.7,459V747.58H674V459Zm-54.61,6.36v281h8.35v-281Zm283.53,347c1.5-.21,2.82-.36,4.13-.58l62-10.35c13.34-2.23,26.69-4.46,40-6.79.84-.15,2.19-1.11,2.21-1.73.16-6.27.1-12.55.1-19.16L894.62,788.06ZM567.26,744.65V470.26H559V744.65ZM361.05,334V485.57l14.06,2v-147a5.18,5.18,0,0,0-.06-1.84c-.21-.57-.69-1.31-1.19-1.45C369.7,336.08,365.5,335.07,361.05,334ZM791,443.13l116.25,29.6V455.86L791,425.88ZM710.3,556.47V710.61h12.08v-155ZM278.63,435.69c0,5.52.08,10.68,0,15.83,0,2.12.74,2.75,2.8,3,16,2.33,32.05,4.81,48.08,7.22,5.37.81,10.75,1.55,16.26,2.34V425.59Zm68.62-99.55v151a74.09,74.09,0,0,1,8.79-.86c3,.05,3.74-1.09,3.73-4q-.12-72.46-.06-144.92v-3.53Zm142,56.47v49.93L522.61,449V387.24Zm33.35,116V454L489,447.85v48.22c0,7.68,0,7.68,7.73,8.86a7.27,7.27,0,0,1,.91.17ZM882.55,721.38V538.86l-87.74,5.54v5.52l83.08-5.18V714l-83.1-1v6.22Zm-460.87,64L236.12,773.3V783l185.56,10.87ZM418.91,435v59l27.85,3.9c0-19,0-37.59-.1-56.17,0-.73-1.39-1.87-2.3-2.08-4.43-1-8.91-1.73-13.38-2.54Zm-30.63,54.7L411,492.91V433.49L381.26,428v41.38l7,1.31ZM744.05,711V554.26L734,555V711ZM672.93,441.28c0,4.13.11,8.26,0,12.37-.08,2.13.47,3,2.72,3.5,10,2.11,19.94,4.48,29.9,6.75l17.19,3.94v-15.2l11.13.61v17.17l49.44,11.29V464.49c-10.61-2.54-21-5.1-31.49-7.52-11.32-2.62-22.48-6.54-34.41-4.7-.38.06-1,.05-1.17-.19-2.42-2.63-5.59-2.25-8.58-2-6.48.61-12.93,1.48-19.4,2.22-2.23.25-4.47.42-6.71.63l-.08-.95,24-2.93c-6-2.58-19.48-5.06-24.62-4.69C680.54,442.53,678.51,441.7,672.93,441.28ZM423.55,771l-154.66-9.33v9.73l154.66,10.16Zm109.59-44.64V591.9L464,586.5V729.12ZM568.92,470.1v40.73l40.66-3.53V478.56ZM199.59,366.6V503.45l5-.74V440.53l9.08-1.53V368.75ZM198,503.6v-137l-9.15,1.06v137ZM557.29,725.43V514.8l-5.1-.6c-.39,70.56-.78,140.84-1.17,211.23ZM709,712.07V555.42l13.43-1V549L703,550.2V717.14h19.51v-5.07Zm74.3,8.06-49.42-1.21V739.4l49.42,1.3ZM481.79,502.87a4,4,0,0,0,.31-.66c.06-18,.13-35.91.09-53.87a2.73,2.73,0,0,0-1.68-2c-5-1.08-10.09-1.95-15.34-2.93V500.5Zm840.36,30.48c7.09-.28,13.78-.69,20.47-.77,3.9-.05,5,1.28,5,5.15V546l31.48-1.14.1-.62L1300.59,515v33.46l21.56-1.07Zm-976.26-45.8c0-6,.08-11.6-.1-17.17a3.14,3.14,0,0,0-2-2.19c-5-.93-10-1.62-15-2.36-7.32-1.1-14.65-2.16-22.13-3.27v29.3ZM540.55,511.1v-51c0-1-.66-2.77-1.29-2.92-4.9-1.11-9.87-1.9-15.17-2.85v13.63q0,19.06.06,38.12c0,1,.71,2.72,1.32,2.84C530.27,509.78,535.18,510.36,540.55,511.1ZM301.35,758.49l124.24,8.06c0-2.11-.09-3.75,0-5.38.15-1.95-.78-2.45-2.55-2.54-15.07-.8-30.14-1.68-45.21-2.53l-70.28-4c-2-.11-4.05-.27-6.23-.42ZM765.24,442.12c-8.63-2.21-16.75-6.58-26-5.33l2.71-1.28-10.63-2.71c0,5.43.1,10.49,0,15.54-.06,2.09.72,2.77,2.69,3.22,11.17,2.55,22.29,5.27,33.43,7.92l16.07,3.82V448c0-.6-.39-1.64-.78-1.74-4.88-1.16-9.82-3.19-14.69-3-8.74.29-17.43,1.92-26.14,3a13.58,13.58,0,0,1-2.3-.1l0-.78Zm82.62,36.54c0-4.64-.1-8.85,0-13.06.07-2-.67-2.67-2.48-3.13-11.19-2.83-22.36-5.78-33.53-8.69l-17.14-4.46V466Zm63.57-150.33V453.78l6.49-.69V327.21ZM878.12,446.84v-113L870.91,335V439.2C870.91,445.94,870.91,445.94,878.12,446.84ZM446.41,434.16V400c-.34-.12-.54-.25-.71-.23-8.47,1.3-16.94,2.57-25.38,4a2.77,2.77,0,0,0-1.54,2.12q-.16,10.53,0,21.08a2.57,2.57,0,0,0,1.31,2C428.77,430.75,437.47,432.41,446.41,434.16ZM302.65,492.27V461.94l-23.58-3.53v36.48ZM621,506.32l39.41-3.42V488.78L621,480.56ZM205.8,441.44v61.25l3.59-.58V445l7.76-1.14q62.94-9.53,125.89-19c3-.44,3.24-1.68,2.45-4.24ZM722.5,469l-46.87-10.68v16.55l46.87,9.63Zm-498,286.11c0,4.66.14,8.88,0,13.08-.12,2.53.66,3.45,3.26,3.42,12.41-.17,24.82-.18,37.23-.27a24.3,24.3,0,0,0,2.7-.35V760.6l31.42-2.05V758Zm973.37-52.89V586.61l-5.53-.61V702.75ZM650.33,455.5l.06-.44c-.61-.24-1.24-.45-1.87-.63q-7.26-1.59-14.53-3.13c-4.55-1-9.35-.57-13.66-2.91-1.56-.85-3.6-.8-5.53-1.18v15.23l49.32,10.77V457.65c-1.62.1-3,.22-4.46.28-.6,0-1.64.1-1.74-.15-1.12-2.68-3.35-1.54-5-1.37-5.75.56-11.48,1.4-17.23,2.1-3.26.39-6.52.72-9.78,1.08a8.73,8.73,0,0,0-.11-1Zm-107.73,56,1.16-.33v-56.8L376.54,421.71v4.1c.88.24,1.57.48,2.28.61L537.89,455.6c2.84.51,3.91,1.31,3.87,4.43-.19,16-.1,32.06,0,48.09a14.38,14.38,0,0,0,.84,3.42Zm19.94-44,47,9.76V463.72c-2,.15-3.84.34-5.67.39a7.17,7.17,0,0,1-2.25-.42c-.85-.25-1.69-1-2.49-.9-4.32.38-8.61,1-12.93,1.44-3.55.39-7.12.68-10.69,1l-.09-1,25.78-3a7.38,7.38,0,0,1,0-1.05c-8.94-1.13-17.38-5.21-27.19-3.52l1.3-1.94-12.79-2.63Zm638.91,119.58v115l5.1-.58V587.75ZM662.78,488.93l-1.07.65v245.7c0,1.75.24,3,2.6,1.73V493a3.94,3.94,0,0,0,0-1.53A24.09,24.09,0,0,0,662.78,488.93ZM411.14,427.27v-26l-29.73,4.92v15.3Zm36.79-28v35.15l5.44,1v-19l29.7-2.25v27.16l4.71.84V392.86Zm216.19,89.11v-14L620.94,465v14.36ZM837.27,712.13V548.45l-3.28.35V712.13ZM423.15,794l69.93-6.1v-8.44l-69.93,5.94Zm58.52-352.94V415.4l-27,2.08v18.28ZM839.05,340.49c-6.18.32-6.17.32-6.17,6v84c0,5.42,0,5.42,5.4,6.32a2.69,2.69,0,0,0,.75-.14ZM745.67,554.3V711H749V554ZM184.67,762l38.43,2.32V749.2l-38.43-1.88Zm240.38,19.5,51.6-3.92V766.3l-51.6,4.6ZM620.94,520.61l39.43-4V504.08l-39.43,3.43Zm-401.63-76v.55l54.11,8.13V436.47Zm230.1,310c-46.48-.87-92.84-7.11-139.48-3.73q16.83,1.11,33.68,2.06c20.23,1.17,40.47,2.16,60.68,3.55,15.1,1.11,30.13,1.42,45.12-1.81Zm-24.55,14.26-.36-1.25c-1.93-.14-3.87-.3-5.8-.43l-52.29-3.37c-21-1.36-42.07-2.88-63.12-4-6.29-.34-12.64.42-19,.68a2.58,2.58,0,0,0,2,1q17.18,1,34.36,2,28.62,1.72,57.25,3.49c14.55.88,29.09,1.78,43.64,2.6a12.53,12.53,0,0,0,3.32-.65ZM568.75,515.35l40.75,6V508.48L568.75,512ZM417.46,493.41V434.72l-5.24-.93V489C412.22,493.63,412.25,493.66,417.46,493.41Zm35.73,5v-57.1l-5.54-1.06v53.52c0,4.84.13,5,5.54,4.65Zm1.41-56.92V499l5.43.68V442.59ZM733.84,717.75,783.31,719v-6.31H733.84ZM460.71,755.29c-11,1.14-21.64,2.23-32.28,3.43a2.44,2.44,0,0,0-1.6,1.7,53.81,53.81,0,0,0-.08,6.09l34-2.39Zm27.15-251.95V447.65l-4.78-.82v52.31c0,4.33.12,4.44,4.78,4.2ZM423.39,782.7l-12-.79-71.77-4.74c-20.63-1.36-41.25-2.88-61.88-4-8.08-.45-16.21-.07-25-.07C273.54,775.78,420.5,784.5,423.39,782.7ZM783.32,545.09,734,548.22v5.51l49.35-3.05ZM730,432.48l-12.79,1.38v16.8H730Zm559,326.63v-.79c-6.06-.29-12.21-1.35-18.17-.68-9.31,1-18.46,3.42-27.73,4.88-3.11.49-4,1.77-3.55,4.59.09.5.1,1,.17,1.82ZM691.27,479.29,675.42,476v12.54c0,.59.47,1.6.87,1.68,4.9,1,9.83,1.84,14.94,2.77Zm98.17-36.36V425.59c-3.73.35-7.23.6-10.7,1.05-.71.09-1.88.9-1.9,1.4-.14,5-.08,10-.08,14.89ZM658.85,456.76l12.69-.67V440.53l-12.69,1Zm56.78-22.83L673.74,439l-.11,1.09c4.55.83,9.1,2.31,13.66,2.34,5.63,0,11.27-1.12,16.9-1.78,3.84-.45,7.68-.95,11.44-1.42ZM735,431.56v.95c5.22,1,10.13,3.52,15.77,2.62,3.36-.53,6.76-.79,10.15-1.2,4.87-.58,9.73-1.19,14.48-1.78v-5.48Zm521.8,302.52-17,1.86V746.7l17-2.56ZM618,445.78c13.18,5.91,26.2.72,39.26.3V441Zm-15.14,2.52V463l10.32-.71V446.82Zm-226.4-21.16v41.59l3.45.51V427.85Zm184.67,24.58-9.67,1.43v14.74l9.67-.64Zm-284-15.61c-2.89-.18-2.38,1.69-2.37,3.15q.21,26.52.47,53.05c0,.9.12,1.8.17,2.66,2.66.59,2.38-1.09,2.37-2.54q-.21-26.83-.44-53.67c0-.76-.16-1.61-.24-2.65Zm185.39,64.38,1.1-.48c.05-.09.13-.18.13-.27.05-18.28.11-36.56.05-54.84,0-.76-1-1.51-1.59-2.26l-.85.47v21.34q0,16.43.05,32.85c0,1.07.69,2.13,1.07,3.19Zm838.07,251.56v4.76l35.84-7.13c-12.26-3.14-23.88.16-35.88,2.37Zm-954.9-284.9c.08-.56.17-1.11.26-1.67-22.29-3.54-44.63-6.81-67-10.09l-.27,1.71q33.46,5.16,67,10ZM570,451.62c10.44,4.89,20.85,2,31.27,1v-4.77Zm120.77-8.3-.18.78c8.38.85,16.18,5.31,25,3.84v-7.45Zm84.65-9.93-23.59,2.76c17.74,5.38,18.4,6.43,23.59,4.27ZM210.71,446.93l63.28,9.5C272.54,453.88,215.37,445.05,210.71,446.93Zm1137,300.54,29.71-5.94c-10.64-3.57-20.09-.55-29.71,1.77ZM635.32,449.66l-.09.72,22,4.62v-7.84ZM733.9,472V487l4.69.64V476.42C738.57,472.19,738.56,472.19,733.9,472Zm465.47,229.59.42.08V587.34h-.42ZM478.84,779.5l-.07-.89-54.6,4.11.11,1.39ZM466.75,766l.05-1c-12.95.88-25.91,1.73-38.87,2.68-.73.05-1.42.84-2.13,1.28l.34.67ZM376.67,470.06l-.55.75c.43.38.81,1,1.31,1.09a27.92,27.92,0,0,0,4.27.68c2.06.17,3.06.91,2.92,3.26-.21,3.81,0,7.63-.05,11.45,0,1.77.65,2.46,2.58,1.57,0-5.17.06-10.31-.08-15.45a2.7,2.7,0,0,0-1.63-2C382.55,470.78,379.6,470.47,376.67,470.06Zm3.27,18.52V473.66l-3.5-.65v14.93Zm-.16-67.48v-15l-3.35-.24V420.4ZM304.3,491.78h.7V462.52h-.69Zm888.13,212.1-.87.83c.63.8,1.27,2.31,1.88,2.3,4.37-.1,8.73-.5,13.32-.83-.09-1.29-.15-2.24-.22-3.29ZM587.2,455.39l.06.81,14,2.93v-5.27Zm605.11,127.35c-.14.56-.27,1.12-.41,1.68a144.18,144.18,0,0,0,14.63,2.05C1206.24,584.26,1200.06,582.76,1192.31,582.74ZM382.15,473.62l-1,.49c0,4.41,0,8.83.07,13.25,0,.55,1,1.08,1.51,1.62a72.4,72.4,0,0,0,.66-13.16C383.34,475.08,382.57,474.35,382.15,473.62Z" transform="translate(-183.5 -216.39)"/><path class="cls-1" d="M967,539.8l70.7,13V715.73L967,720.61Zm69.57,174.86V553.78l-68.4-12.58V719.36Z" transform="translate(-183.5 -216.39)"/><path class="cls-1" d="M326,715.54l-115.1-3.65V568.22L326,560.15Zm-24.08-147V708h21.51V567.1ZM274,570.21V707.1h20.8V569Zm-28.52,1.92v134H265.6V570.8Zm-27.27,1.67V705.37H238.3V572.74ZM212,569.3V710.77l112.8,3.58v-4.41L217,706.37V572.6l108.06-7-.19-4.16Zm60.45,1-5.28.28V706.7h5.28Zm27.83,137.32V568.55l-4,.21V707.64ZM239.9,572.4V705.69h4V572.18Z" transform="translate(-183.5 -216.39)"/><path class="cls-1" d="M1057.3,461.08V307.85l55.48-8.92v157.5Zm54.32-5.71V300.3l-53,8.52v151Z" transform="translate(-183.5 -216.39)"/><path class="cls-1" d="M467.17,609,530,613V722.21l-62.87,3.08Zm32,113.55,29.68-1.49v-107l-29.44-1.86a12.61,12.61,0,0,0-.22,1.5q0,23.74.05,47.48c0,1,1,2.07,1.58,3.11l.8-.26c0,2.16.06,4.32,0,6.48a4.38,4.38,0,0,1-.8,1.72c-.51.91-1.53,1.78-1.54,2.69-.14,6.82-.08,13.65-.08,20.47ZM468.26,724l25.67-1.24c.25-.58.4-.77.4-1V674.34c0-.64-.41-1.8-.68-1.82-2.48-.15-1.91-1.93-1.93-3.38v-5.22l1.07.27c.53-1.21,1.51-2.41,1.52-3.62.11-15.3.07-30.6.06-45.91,0-.88-.14-1.76-.23-2.82l-25.91-1.63Zm29.59-111.75c-2.88-.69-2.27,1.37-2.27,2.69V719.75c0,.52-.18,1.17.07,1.52a13.17,13.17,0,0,0,2.22,2Z" transform="translate(-183.5 -216.39)"/><path class="cls-1" d="M530.17,594.56V609l-63-3.81V589.6ZM529,595.62l-60.66-4.77V604L529,607.71Z" transform="translate(-183.5 -216.39)"/><path class="cls-1" d="M485.46,394.48c0,3.66.08,7-.08,10.43a2.41,2.41,0,0,1-1.7,1.58c-10.86,1.35-21.73,2.58-33.2,3.92,0-3.35-.05-6.57.08-9.78,0-.42.95-1.07,1.54-1.16C463.1,397.78,474.11,396.16,485.46,394.48Zm-33.37,14.59,32-3.79v-9.46l-25.59,3.9c-7.5,1.14-7.5,1.13-6.79,8.65A4.74,4.74,0,0,0,452.09,409.07Z" transform="translate(-183.5 -216.39)"/><path class="cls-1" d="M969.87,545.6c9.63,1.76,19.07,3.46,28.51,5.2,9.75,1.8,19.49,3.68,29.25,5.41,1.83.32,2.66.86,2.66,2.9q-.07,74.61,0,149.23c0,.5-.1,1-.19,1.92L969.87,714Zm40.59,164.7v-156l-19.52-3.62v160.9ZM971,712.79l14.67-1V549.67L971,547Zm58-3.64V557.67l-13.82-2.52V710ZM988,549.73l-.76.67V711.56c3.27.46,2.29-1.86,2.29-3.23q.06-77.26,0-154.53a4.75,4.75,0,0,0,0-1.84A14.2,14.2,0,0,0,988,549.73Zm24,160.32,1,.22a16.7,16.7,0,0,0,.67-3.29q.09-74.43.1-148.86a6.47,6.47,0,0,0-.07-2.15c-.2-.57-.84-1-1.75-2Z" transform="translate(-183.5 -216.39)"/></svg>