<svg id="Слой_1" data-name="Слой 1" xmlns="http://www.w3.org/2000/svg" viewBox="0 0 900.48 652.65"><defs><style>.cls-1{fill:#fff;}</style></defs><title>d4_w</title><g id="Слой_2" data-name="Слой 2"><path class="cls-1" d="M1235.1,736.45l-37.2,2.84v13.16c-4.65.48-9.18,1-13.71,1.39q-47.54,4.14-95.06,8.24c-31.73,2.78-63.37,5.69-95.05,8.48l-103.41,9q-55.67,4.89-111.34,9.92-47.54,4.18-95.13,8.23-47,4.13-94,8.32a13,13,0,0,1-3.58-.19q-83.37-16.64-166.76-33.31l-81.38-16.28c-1.18-.24-2.34-.53-3.71-.84,0-1.15-.16-2.22-.15-3.28q1.9-226.21,3.77-452.43a4.52,4.52,0,0,1,2.61-4.53q123.3-70.41,246.58-140.9a7.48,7.48,0,0,1,5-.68q167.61,41.4,335.07,83l262.12,65c4.88,1.21,4.86,1.18,3.56,6.08a9.75,9.75,0,0,0-.06,2.53q.76,73.38,1.47,146.69c0,2.54.66,3.56,3.33,3.89,7.67,1,15.28,2.46,23,3.45,2.69.36,3.3,1.43,3.28,4-.12,14.65-.06,29.29-.06,43.94v4.08l8.93,1.11Q1234.15,626.78,1235.1,736.45Zm-66.45-223.52L589.23,461.3v40.57l498.18,34.93V723.25L589.34,753v26.64l607-43.57c-1.51-143.52-3-289.63-4.52-432.72L591,154.5v69.85c1.13.31,2.15.67,3.21.9q91.57,19.51,183.23,39l202.81,43.16q91.32,19.43,182.63,38.81c3,.65,3.78,1.81,3.8,4.74q.9,79,2,157.94v4h0Zm-22.31-145.1c0-4.39-.28-8.15.08-11.9s-1.17-5.05-4.8-5.78c-32.22-6.49-64.4-13.19-96.58-19.83L843,288.54q-97.63-20.21-195.26-40.32c-8.36-1.73-16.72-3.42-25.4-5.2V462.8L716,471.13V285.58l141.74,27.09v171.1l196.86,17.55v-151Zm-153,349.4V543.57l-192-9.32V725.58ZM620.5,462.57V243.47c-1.37.57-2.59,1-3.77,1.57L469.79,311.48q-35.7,16.14-71.33,32.3c-1.22.55-2.81,1.91-2.9,3-.33,4.29-.14,8.62-.14,13.41l62.68-26V486.68c.7-.07,1.3-.06,1.87-.18,37.25-7.82,74.52-15.5,111.72-23.59,10.62-2.31,21.1-3.57,31.92-1.84,5.45.87,11,1,16.93,1.49h0ZM587.75,779.46c0-8.56,0-16.86-.11-25.19,0-.6-1.62-1.53-2.57-1.67q-39.32-5.57-78.66-11Q424.71,730.09,343,718.7c-3.18-.45-4.19-1.26-4.17-4.56q.62-84.79,1-169.58v-3.9l247.66-38.87V461.24L356,509.78v-5.2q.66-81.16,1.24-162.3c0-3.11,1-4.58,3.76-5.95Q473.67,281.22,586.27,226c2.48-1.22,3.48-2.54,3.46-5.44-.17-19.37-.08-38.74-.1-58.09,0-1.13-.12-6.22-.21-7.7-1.36.71-2.31,1.19-3.25,1.71-81.1,45.93-162.93,93-244.06,138.84-2.35,1.32-3,2.81-3,5.4-1.08,128.4-1.48,259.65-2.63,388.08-.13,14.76-.17,29.52-.32,44.29,0,2,.19,3.21,2.72,3.64,28.13,4.71,56.24,9.6,84.35,14.44L539,771.1Zm-247.12-63,131.06-2V550.8L340.63,542Zm855.48,21.09L589,781.07v23.59l607.08-53.37ZM348.2,540.65a12.45,12.45,0,0,0,1.57.5q53.22,3.63,106.45,7.2c6.39.43,12.9,1.22,19.18.68,12-1,24-2.89,36-4.43l84.21-10.66c6.69-.85,13.38-1.74,20.31-2.64V508.17h18.21V529l27.14-3.42V511.89h18.27v14.87l24.6,1.18V514.21h17.21v14.66L744.5,530V516.72h17.32v14.13l22,1V520.39H801v12.23c1.55.15,2.73.33,4,.38q40,2,80.13,3.87l84.1,4.1c11.72.56,23.47,1.73,35.16,1.37,18-.57,36-2.19,54-3.4,5.5-.36,11-.83,16.51-1.25-6.09-1-12.13-1.38-18.15-1.81l-79-5.54-66.26-4.64L833,520.17l-66.61-4.64q-39.5-2.74-78.94-5.52c-22.44-1.57-44.88-3.39-67.34-4.67-14.88-.85-29.67-3.17-44.79-.56-33,5.74-66.13,10.55-99.17,15.74l-104.3,16.36c-7.58,1.18-15.17,2.41-23.63,3.75h0Zm813.1-193.17c-12.59-2.7-25.09-5.4-37.6-8.07L839,278.86Q715.63,252.61,592.3,226.3a7.93,7.93,0,0,0-4.82.66q-112.07,54.82-224,109.81c-.75.36-1.42.9-2.62,1.65,11.18,1.79,21.67,3.53,32.19,5.07a9.19,9.19,0,0,0,4.84-.91q111-50.13,222-100.31a5.77,5.77,0,0,1,3.33-.38q50.58,10.37,101.16,20.82l198.12,41q104.57,21.62,209.1,43.29c9.86,2,19.58,4.31,29.65.44ZM801,738.38l-17.37-1.1v-9.5l-21.93,1v11.66l-17.3-1.09v-9.92l-23.18,1.06v12.1l-17.16-1v-9.52H679.38v13.12L661.1,744V733.35l-27-2.46v16.68l-18.18-1.07v-17c-1.2-.23-2.12-.51-3.06-.6-14-1.31-27.94-2.56-41.91-3.86q-33.6-3.1-67.2-6.25c-10.91-1-21.92-2.74-32.88-2.73-30.86,0-61.72.82-92.57,1.23-9.65.13-19.31,0-29,0v.93c.45.08.9.18,1.34.25l43.83,6.13,90.87,12.75,85.48,11.91c7.17,1,14.43,2.45,21.58,2.16,22.48-.91,44.93-2.57,67.43-3.9q39.31-2.34,78.63-4.63,51.81-3.1,103.61-6.25,45.63-2.71,91.3-5.36,53.28-3.15,106.53-6.36c11.66-.7,23.32-1.46,35-2.2-8.23-.86-16.44-1.36-24.65-1.77-24.51-1.22-49-3-73.59-1.74-55.12,2.8-110.25,5-165.38,7.32-3.34.15-6.67.4-10.24.6ZM441,487.73c-.1-1.12-.23-2-.23-2.78q0-67.69-.07-135.4c0-2.25.84-3.15,2.78-3.86,3.75-1.37,7.36-3.09,11.1-4.45,2.58-.94,3.3-2.38,2.14-5.07-1.27.46-2.4.83-3.5,1.29-18.27,7.62-36.53,15.31-54.86,22.81-2.53,1-3.33,2.3-3.36,5-.24,21.5-.64,43-1,64.46h0V345.17l-35.2-5.5c-.44,56.39-.89,112.19-1.33,168a11.22,11.22,0,0,0,1.64,0l59.22-12.43c11.9-2.51,23.89-5,35.8-7.64,1-.22,1.79-1.31,2.67-2l-.74-.91Zm706.4-136.1v88.26c-.86-22.36-.9-44.73-.8-67.11,0-2.79-.74-4-3.65-4.46-20-3.67-39.89-7.57-59.84-11.36-8.92-1.71-17.94-3.38-27-5.07V501.46l111.07,9.92c-.7-54.39-1.41-108.3-2.1-162.49ZM615.71,532.84l-142.18,18v4.81l-.24,110q-.06,22.7-.2,45.38c0,1.84-.3,3.5,2.53,3.74,16.15,1.37,32.28,2.9,48.42,4.38l66.82,6.23c8.24.77,16.49,1.49,24.8,2.24v-13.9l-50.15-4.35V549.09l50.2-5.21ZM856,483.6V313.86L717.63,287.37V471.28Zm340,33.71v48.25l16.24,1c.51,43,1,85.63,1.5,128.34l-15.93,1.1v27.44l35.71-2.26c-.59-67-1.18-133.62-1.76-200.49ZM336.11,737.62c0,5.35-.14,10.06.12,14.75.06.87,1.65,2.14,2.71,2.36,19.05,4,38.1,7.77,57.18,11.59q88.45,17.7,176.93,35.37c4.79,1,9.58,1.82,14.58,2.77V780.91Zm670.29-20.76V570.36l65.34-3.17V720.67l14.23.79V538.55L1003.18,544V716.86ZM679.62,730c6.85,0,13.49-.15,20.11.06,3.45.13,4.46-1,4.46-4.48q-.15-96-.08-192v-4.16l-24.49-1.22Zm64.6-1.66v-197l-22.75-1.08v198h22.75Zm39.21-2v-193l-21.44-1V727.28Zm-166-217v236l11.75.79V509.34Zm45.2,3.66V742.87l11.82.81V513Zm42.87,2.57V740.46l11.16.64v-226ZM746,518V738.32l11.28.66V518Zm39.2,3.69V736.21l11.28.6V521.61ZM600.91,551.41V706l14.77,1.35V549.83Zm33.33-9.52,17.15-1.56V716.85l-17.15-1.41v14l26.7,2.38V527.14l-26.7,3.35Zm0,6.07V709l13.43,1.2V546.6Zm435.83,20.74-62.09,3V717.18l62.09,3.44ZM457.27,341.44c-4.35,1.75-7.94,3.4-11.73,4.66-2.71.92-3.58,2.31-3.57,5.24q.16,65.3.07,130.6v4.32a106.39,106.39,0,0,1,10.74-2.18c3.43-.35,4-1.9,4-5q.17-66.94.53-133.88ZM1196,569.52c.44,40.74.87,80.93,1.3,121.37l11.3-.92c-.37-40-.75-79.7-1.12-119.54ZM599.42,707.37v-157l16.51-1.82c-.14-1.3-.25-2.27-.36-3.35l-48.78,5V708.3l49.14,4.28c-.12-1.53-.2-2.54-.29-3.66ZM995.26,543.74v173h6V544.08ZM1195,513.57l24.66,2.37v-47.6c-7.87,1-15.4,1.88-22.91,3a2.87,2.87,0,0,0-1.68,2.16c-.1,13.17-.07,26.44-.07,40Zm-562.81,233V508.94c-2.19,2.29-2.32,234.76,0,237.6Zm601.22-23.8L1197.9,725v12.83l35.53-2.65Zm-583.08-7.11v-174c-5,.47-9.71.83-14.46,1.49-.83.12-1.46,1.56-2.18,2.39l.72.89L649.12,545V711.82l-14.88-1.27v3.55Zm26,27.76c2.26-3,2-228.42,0-230.79Zm42.27-1.65c1.85-4.39,1.48-224.44,0-226.24Zm40.46-2.28c1.88-4,1.58-219.49,0-221.42Zm39.17-2.16c1.88-4,1.59-213.67,0-215.61Zm398.42-170.11-.06.77,12.31,1.14c.39,40.79.76,81.39,1.14,122.26-2,.13-3.51.19-5,.32s-2.9.21-4.33.42a28.71,28.71,0,0,0-3.37,1.08l.41,1.33,14.56-.94c-.5-42-1-83.73-1.48-125.69ZM1195.5,461.8c-.06.34-.12.67-.17,1l26.48,4.38v48.34h.76V465.93Zm-.43,6.52c.07.58.13,1.16.19,1.75l17.85-2.28-.12-1.12Zm8-2.62-8-1.33c.35,3,.35,3,8,1.33Zm-6.36,49.47v.74l17,1.57a2.32,2.32,0,0,1,.07-.69Z" transform="translate(-334.62 -153.43)"/><path class="cls-1" d="M399,496.58V492.5q0-62.56-.09-125.16c0-3,1-4.23,3.65-5.18,5.21-1.87,10.3-4,16-6.34v4.3q0,64.23.07,128.43c0,3.15-.83,4.43-4,4.88C409.55,494.16,404.54,495.43,399,496.58Zm18.44-139c-5,2-9.3,4-13.74,5.44-2.71.92-3.59,2.24-3.58,5.18q.18,61.35.08,122.69v4.18c4.81-1,9-2,13.3-2.63,3.12-.44,4-1.73,4-4.91q-.13-62.77-.08-125.61v-4.34Z" transform="translate(-334.62 -153.43)"/><path class="cls-1" d="M438.19,347.94v4.59c0,43.79-.05,87.58.09,131.37,0,3.62-1,5.14-4.59,5.56-4.06.48-8,1.56-12.54,2.46V488.2q0-64.95-.07-129.91c0-2.8.89-4.06,3.42-5C428.93,351.8,433.23,349.92,438.19,347.94Zm-1.34,1.9c-3.92,1.55-7.42,3.12-11,4.31-2.71.89-3.61,2.28-3.6,5.22q.18,63.47.09,127c0,1.27.13,2.53.2,4.06l14.35-3.05Z" transform="translate(-334.62 -153.43)"/><path class="cls-1" d="M1058.43,357.25c7.29,1.36,14.41,2.65,21.49,4.08.59.12,1.22,1,1.44,1.67a8.19,8.19,0,0,1,.08,2.52V499l-23-2.06Zm1.27,1.46v137l20.52,1.85v-131a5.37,5.37,0,0,0-.07-2.15c-.39-.83-1.05-2-1.78-2.15-6.11-1.26-12.27-2.33-18.67-3.55Z" transform="translate(-334.62 -153.43)"/><path class="cls-1" d="M1141.58,504.32,1121,502.49V369.2c6.31,1.21,12.59,2.34,18.85,3.67.71.16,1.4,1.31,1.73,2.14a7.17,7.17,0,0,1,.07,2.53V504.32Zm-19.39-133.68V501.37l17.85,1.55V374.08Z" transform="translate(-334.62 -153.43)"/><path class="cls-1" d="M1114.43,367.89v134c-8.47-.72-16.75-1.39-25-2.21-.64-.06-1.4-1.07-1.7-1.81a7.05,7.05,0,0,1-.09-2.51V366.86c0-1.18.1-2.36.18-4Zm-25.4-3.54v134l24.08,2.17V368.86Z" transform="translate(-334.62 -153.43)"/><path class="cls-1" d="M492.14,556.76l70.41-7.3V709.12L492.14,703Zm50,1.11v143.2l9.21.78,9.68.81V555.88Zm-48.9,0v144l67.64,5.85c.78-2.89-.13-3.68-2.36-3.82-5.89-.4-11.76-1-17.85-1.52V556.64l20.93-2.35c-.16-1.36-.29-2.35-.42-3.42Z" transform="translate(-334.62 -153.43)"/><path class="cls-1" d="M807.87,474.09,768,470.54V302.69l13.07,2.4c8.21,1.5,16.4,3,24.62,4.44,1.87.32,2.67.93,2.67,3q-.11,80.21-.08,160.42A6.75,6.75,0,0,1,807.87,474.09ZM769.49,304.42V469.23l37.07,3.27V311.23Z" transform="translate(-334.62 -153.43)"/><path class="cls-1" d="M758.93,469.67l-36.13-3.28V294.25l36.13,6.66ZM724.22,296V465.1l33.55,3V306.42a5.56,5.56,0,0,0-.06-2.15c-.47-.92-1.16-2.24-2-2.4-10.41-2.09-20.86-3.93-31.53-5.87h0Z" transform="translate(-334.62 -153.43)"/><path class="cls-1" d="M851.16,478.06,817.22,475V311.79q10.66,1.88,21.26,3.86c3.32.6,6.62,1.42,10,1.82,2.18.27,3,1.16,2.72,3.27a19.64,19.64,0,0,0,0,2.17V478.06ZM818.6,313.49V473.65l30.83,2.78V319.15Z" transform="translate(-334.62 -153.43)"/><path class="cls-1" d="M1033.82,595.46h31.43v120l-19.21-1c-3.14-.17-6.28-.48-9.42-.45-2.42,0-3-1-3-3.25q.09-56.28,0-112.56C1033.64,597.56,1033.73,596.85,1033.82,595.46Zm1.49,1.46V712.44l28.48,1.56V597Z" transform="translate(-334.62 -153.43)"/><path class="cls-1" d="M1030.31,713.61l-18.74-1V596.25h18.74ZM1029,712.1V597.72h-16V711.24Z" transform="translate(-334.62 -153.43)"/><path class="cls-1" d="M1010.83,574.06l55.71-2.54v18h-55.71Zm1.39,14h52.89V573l-52.89,2.46Z" transform="translate(-334.62 -153.43)"/><path class="cls-1" d="M569.86,704.61V553.47l26.84-2.9V707Zm25.48,1V551.94l-24.19,2.62V703.5Z" transform="translate(-334.62 -153.43)"/><path class="cls-1" d="M518.39,558.85,539,556.73V702.21c-6.11-.49-11.73-1.06-17.38-1.35-3-.15-3.72-1.36-3.7-4.26.2-32.17.26-64.34.36-96.51q.06-18.51.09-37v-4.23Zm1.4,1.31v139l17.85,1.5V558.38Z" transform="translate(-334.62 -153.43)"/><path class="cls-1" d="M516.9,700.32c-6.62-.56-12.52-1-18.41-1.64-.8-.08-1.67-1.26-2.12-2.13a5.86,5.86,0,0,1-.06-2.5q.27-64.21.55-128.42v-4.49l20-2.09V700.32ZM498.21,562.48V697.23l17.32,1.53V560.66Z" transform="translate(-334.62 -153.43)"/></g></svg>