<?xml version="1.0" encoding="utf-8"?>
<!-- Generator: Adobe Illustrator 16.0.0, SVG Export Plug-In . SVG Version: 6.00 Build 0)  -->
<!DOCTYPE svg PUBLIC "-//W3C//DTD SVG 1.1//EN" "http://www.w3.org/Graphics/SVG/1.1/DTD/svg11.dtd">
<svg version="1.1" id="Слой_1" xmlns="http://www.w3.org/2000/svg" xmlns:xlink="http://www.w3.org/1999/xlink" x="0px" y="0px"
	 width="272.129px" height="158.74px" viewBox="0 0 272.129 158.74" enable-background="new 0 0 272.129 158.74"
	 xml:space="preserve">
<title>VIRTINA 05</title>
<path d="M213.892,127.423l-6.429,0.492v2.275c-0.805,0.083-1.587,0.172-2.371,0.24c-5.477,0.477-10.953,0.951-16.431,1.424
	c-5.485,0.48-10.954,0.983-16.431,1.465c-5.959,0.525-11.918,1.029-17.875,1.555c-6.414,0.564-12.83,1.137-19.246,1.715
	c-5.478,0.482-10.959,0.957-16.445,1.422c-5.415,0.475-10.831,0.953-16.248,1.438c-0.207,0.018-0.415,0.008-0.619-0.033
	c-9.608-1.916-19.216-3.836-28.825-5.758l-14.067-2.814c-0.204-0.041-0.406-0.092-0.643-0.145c0-0.199-0.027-0.384-0.025-0.567
	c0.219-26.069,0.437-52.138,0.651-78.206c-0.031-0.33,0.15-0.644,0.451-0.783c14.209-8.114,28.417-16.233,42.625-24.356
	c0.264-0.136,0.566-0.178,0.857-0.118c19.314,4.772,38.622,9.555,57.92,14.348l45.309,11.23c0.844,0.209,0.84,0.204,0.615,1.051
	c-0.023,0.145-0.026,0.292-0.01,0.437c0.088,8.457,0.172,16.91,0.254,25.357c0,0.44,0.114,0.615,0.575,0.673
	c1.327,0.172,2.642,0.425,3.969,0.596c0.466,0.063,0.571,0.248,0.567,0.687c-0.02,2.532-0.009,5.062-0.009,7.594v0.706l1.543,0.192
	C213.669,102.159,213.781,114.767,213.892,127.423z M202.407,88.786l-100.159-8.924v7.013l86.116,6.038v32.228l-86.097,5.144v4.605
	l104.926-7.532c-0.261-24.808-0.521-50.065-0.782-74.8L102.551,26.829v12.073c0.195,0.055,0.372,0.116,0.555,0.156
	c10.553,2.249,21.111,4.497,31.673,6.742c11.686,2.487,23.372,4.974,35.058,7.46c10.522,2.239,21.046,4.476,31.569,6.709
	c0.515,0.112,0.652,0.312,0.657,0.819c0.103,9.1,0.218,18.2,0.343,27.302c-0.002,0.203-0.004,0.41-0.004,0.695H202.407z
	 M198.549,63.704c0-0.758-0.048-1.409,0.014-2.057c0.063-0.648-0.202-0.873-0.83-0.998c-5.568-1.123-11.132-2.28-16.694-3.429
	l-34.916-7.222c-11.251-2.328-22.502-4.651-33.752-6.97c-1.445-0.298-2.89-0.591-4.39-0.898v37.99l16.183,1.44V49.487l24.501,4.683
	v29.575l34.028,3.034V60.685L198.549,63.704z M172.109,124.101V94.083l-33.202-1.612v33.073L172.109,124.101z M107.653,80.081
	V42.208c-0.236,0.098-0.447,0.171-0.651,0.271l-25.4,11.485c-4.114,1.86-8.224,3.722-12.329,5.583
	c-0.211,0.096-0.487,0.331-0.502,0.514c-0.058,0.741-0.024,1.49-0.024,2.318l10.834-4.499v26.369
	c0.122-0.012,0.225-0.011,0.324-0.031c6.438-1.353,12.882-2.68,19.311-4.078c1.837-0.399,3.648-0.617,5.518-0.319
	c0.943,0.151,1.906,0.172,2.926,0.258H107.653z M101.992,134.858c0-1.48,0.01-2.914-0.019-4.354c0-0.104-0.279-0.264-0.444-0.288
	c-4.53-0.642-9.063-1.277-13.597-1.908c-9.416-1.322-18.833-2.64-28.253-3.953c-0.55-0.077-0.725-0.218-0.722-0.788
	c0.071-9.771,0.128-19.541,0.171-29.314c0-0.223,0-0.445,0-0.674l42.811-6.718v-7.009l-40.016,8.389c0-0.361,0-0.631,0-0.898
	c0.075-9.353,0.147-18.705,0.214-28.055c0-0.538,0.171-0.792,0.649-1.028c12.99-6.351,25.973-12.709,38.95-19.075
	c0.429-0.211,0.602-0.439,0.599-0.941c-0.029-3.348-0.014-6.696-0.018-10.042c0-0.195-0.021-1.074-0.036-1.331
	c-0.235,0.124-0.399,0.206-0.561,0.296c-14.02,7.939-28.165,16.067-42.188,24c-0.406,0.229-0.515,0.485-0.515,0.933
	c-0.187,22.195-0.257,44.884-0.456,67.083c-0.022,2.552-0.029,5.104-0.055,7.657c0,0.353,0.033,0.554,0.47,0.628
	c4.864,0.815,9.722,1.66,14.582,2.497l20.016,3.445L101.992,134.858z M59.275,123.962l22.656-0.344V95.333l-22.656-1.529V123.962z
	 M207.153,127.606l-104.944,7.531v4.077l104.938-9.226L207.153,127.606z M60.584,93.577c0.088,0.035,0.179,0.064,0.271,0.088
	c6.133,0.418,12.268,0.832,18.402,1.244c1.104,0.074,2.229,0.21,3.315,0.117c2.081-0.172,4.15-0.5,6.223-0.765l14.556-1.843
	c1.157-0.147,2.313-0.3,3.511-0.456v-3.999h3.147v3.6l4.692-0.592v-2.365h3.158v2.571l4.253,0.204v-2.373h2.974v2.533l4.003,0.188
	v-2.288h2.993v2.442l3.799,0.172v-1.98h2.975v2.115c0.268,0.026,0.473,0.056,0.686,0.066c4.615,0.229,9.232,0.451,13.852,0.668
	c4.846,0.236,9.692,0.473,14.538,0.709c2.026,0.097,4.056,0.299,6.077,0.237c3.113-0.098,6.219-0.379,9.329-0.587
	c0.951-0.063,1.903-0.144,2.854-0.217c-1.053-0.172-2.096-0.238-3.137-0.313l-13.648-0.958l-11.453-0.801l-13.574-0.956
	l-11.515-0.803c-4.552-0.316-9.1-0.635-13.646-0.953c-3.879-0.272-7.757-0.586-11.64-0.807c-2.571-0.148-5.129-0.549-7.742-0.097
	c-5.702,0.991-11.431,1.823-17.143,2.721l-18.029,2.827c-1.31,0.205-2.621,0.416-4.085,0.648H60.584z M201.135,60.186
	c-2.176-0.466-4.336-0.933-6.498-1.394c-16.404-3.488-32.811-6.977-49.216-10.467c-14.215-3.025-28.429-6.053-42.642-9.085
	c-0.283-0.049-0.574-0.01-0.833,0.113c-12.914,6.319-25.818,12.646-38.711,18.982c-0.13,0.063-0.247,0.156-0.453,0.286
	c1.932,0.309,3.746,0.61,5.564,0.876c0.288,0.024,0.577-0.03,0.836-0.158c12.792-5.776,25.582-11.555,38.37-17.338
	c0.181-0.079,0.382-0.103,0.576-0.067c5.829,1.195,11.657,2.396,17.485,3.6l34.247,7.094c12.051,2.49,24.1,4.984,36.146,7.482
	c1.704,0.355,3.384,0.746,5.124,0.076H201.135z M138.852,127.757l-3.003-0.19v-1.642l-3.791,0.171v2.015l-2.991-0.188v-1.714
	l-4.006,0.182v2.093l-2.967-0.175v-1.646h-4.263v2.268l-3.16-0.2v-1.843l-4.669-0.426v2.884l-3.141-0.185v-2.947
	c-0.208-0.041-0.367-0.088-0.53-0.104c-2.414-0.226-4.829-0.443-7.244-0.668c-3.872-0.357-7.744-0.718-11.616-1.08
	c-1.886-0.172-3.79-0.473-5.684-0.471c-5.335,0-10.668,0.141-16.001,0.212c-1.668,0.022-3.338,0-5.007,0v0.161
	c0.079,0.014,0.156,0.031,0.233,0.043l7.575,1.06l15.708,2.204c4.924,0.686,9.85,1.371,14.777,2.058
	c1.239,0.171,2.493,0.423,3.729,0.374c3.886-0.158,7.767-0.444,11.657-0.674c4.53-0.271,9.061-0.538,13.591-0.801
	c5.971-0.357,11.941-0.717,17.91-1.08c5.258-0.313,10.519-0.621,15.783-0.926c6.139-0.363,12.276-0.73,18.413-1.101
	c2.017-0.12,4.032-0.252,6.048-0.379c-1.423-0.149-2.842-0.235-4.262-0.306c-4.237-0.212-8.465-0.514-12.721-0.301
	c-9.527,0.484-19.057,0.857-28.586,1.265c-0.578,0.026-1.153,0.069-1.77,0.104L138.852,127.757z M76.633,84.431
	c-0.017-0.195-0.04-0.343-0.04-0.482c0-7.8-0.004-15.602-0.012-23.404c0-0.389,0.144-0.545,0.481-0.667
	c0.648-0.237,1.272-0.535,1.918-0.77c0.446-0.163,0.571-0.411,0.37-0.877c-0.219,0.081-0.415,0.144-0.605,0.223
	c-3.159,1.318-6.315,2.648-9.483,3.943c-0.437,0.18-0.576,0.399-0.581,0.868c-0.041,3.716-0.111,7.433-0.171,11.143h-0.01V59.787
	l-6.085-0.95c-0.077,9.747-0.154,19.393-0.23,29.041c0.094,0.008,0.189,0.008,0.283,0c3.408-0.715,6.821-1.43,10.238-2.148
	c2.057-0.434,4.128-0.867,6.188-1.321c0.171-0.038,0.309-0.226,0.461-0.343l-0.128-0.158L76.633,84.431z M198.74,60.904v15.257
	c-0.149-3.866-0.155-7.733-0.139-11.601c0-0.483-0.128-0.686-0.63-0.771c-3.451-0.634-6.896-1.308-10.344-1.964
	c-1.542-0.296-3.101-0.583-4.66-0.876v25.855l19.199,1.714c-0.121-9.401-0.243-18.72-0.363-28.088L198.74,60.904z M106.825,92.228
	l-24.576,3.111v0.831c-0.014,6.338-0.027,12.676-0.041,19.013c-0.007,2.616-0.019,5.23-0.036,7.845c0,0.317-0.051,0.604,0.438,0.646
	c2.791,0.237,5.58,0.501,8.369,0.758c3.85,0.359,7.701,0.719,11.552,1.077c1.424,0.132,2.849,0.257,4.286,0.386v-2.4l-8.669-0.752
	V95.036l8.677-0.9V92.228z M148.368,83.716V54.376l-23.924-4.579v31.79L148.368,83.716z M207.139,89.544v8.34l2.807,0.172
	c0.088,7.435,0.172,14.803,0.26,22.186l-2.754,0.19v4.743l6.172-0.391c-0.102-11.583-0.203-23.098-0.304-34.657L207.139,89.544z
	 M58.495,127.626c0,0.924-0.024,1.738,0.021,2.55c0.009,0.149,0.285,0.37,0.468,0.407c3.292,0.686,6.586,1.343,9.883,2.003
	c10.194,2.04,20.389,4.078,30.585,6.114c0.827,0.172,1.656,0.316,2.519,0.48v-4.071L58.495,127.626z M174.36,124.038V98.714
	l11.295-0.549v26.53l2.459,0.137V93.214l-14.311,0.943v29.881H174.36z M117.873,126.313c1.185,0,2.332-0.025,3.477,0.012
	c0.595,0.021,0.771-0.172,0.77-0.775c-0.017-11.061-0.022-22.123-0.014-33.184v-0.719l-4.233-0.211V126.313z M129.04,126.026V91.979
	l-3.933-0.186v34.232H129.04z M135.818,125.674v-33.36l-3.706-0.172v33.697L135.818,125.674z M107.125,88.166v40.789l2.031,0.136
	V88.166H107.125z M114.937,88.8v39.733l2.042,0.14V88.798L114.937,88.8z M122.346,89.244v38.872l1.929,0.111V89.155L122.346,89.244z
	 M129.343,89.655v38.092l1.949,0.114V89.655H129.343z M136.118,90.294v37.088l1.951,0.104V90.286L136.118,90.294z M104.267,95.437
	v26.729l2.553,0.232V95.165L104.267,95.437z M110.029,93.792l2.964-0.27v30.514l-2.964-0.244v2.417l4.615,0.411V91.243l-4.615,0.578
	V93.792z M110.029,94.841v27.842l2.321,0.209V94.606L110.029,94.841z M185.366,98.427l-10.733,0.527v25.139l10.733,0.594V98.427z
	 M79.438,59.142c-0.752,0.303-1.372,0.589-2.028,0.807c-0.468,0.158-0.619,0.399-0.617,0.905c0.019,7.525,0.023,15.051,0.012,22.576
	v0.746c0.686-0.145,1.264-0.316,1.856-0.377c0.593-0.061,0.686-0.328,0.686-0.857c0.019-7.714,0.05-15.428,0.091-23.142
	C79.438,59.627,79.438,59.444,79.438,59.142z M207.139,98.569c0.076,7.041,0.15,13.988,0.224,20.979l1.954-0.159
	c-0.064-6.912-0.129-13.777-0.193-20.664L207.139,98.569z M104.01,122.397V95.249l2.854-0.314c-0.024-0.225-0.043-0.393-0.063-0.58
	l-8.431,0.869v27.328l8.494,0.741c-0.021-0.266-0.034-0.44-0.05-0.633L104.01,122.397z M172.434,94.112v29.896h1.029V94.171
	L172.434,94.112z M206.967,88.897l4.262,0.41v-8.229c-1.361,0.172-2.663,0.326-3.961,0.514c-0.152,0.068-0.262,0.208-0.289,0.373
	c-0.018,2.276-0.012,4.57-0.012,6.916V88.897z M109.679,129.167v-41.07C109.295,88.493,109.274,128.676,109.679,129.167z
	 M213.606,125.054l-6.143,0.381v2.218l6.141-0.458L213.606,125.054z M112.816,123.824V93.749c-0.857,0.081-1.68,0.143-2.5,0.258
	c-0.143,0.02-0.252,0.269-0.377,0.412l0.125,0.154l2.537-0.244v28.837l-2.572-0.22v0.615L112.816,123.824z M117.308,128.624
	c0.391-0.523,0.343-39.486,0-39.895V128.624z M124.614,128.338c0.32-0.759,0.257-38.796,0-39.107V128.338z M131.608,127.944
	c0.326-0.701,0.274-37.941,0-38.275V127.944z M138.379,127.571c0.326-0.695,0.275-36.936,0-37.271V127.571z M207.25,98.165
	l-0.011,0.133l2.129,0.197c0.066,7.052,0.131,14.07,0.196,21.135c-0.343,0.021-0.606,0.033-0.872,0.055
	c-0.252,0.012-0.502,0.036-0.75,0.073c-0.197,0.05-0.393,0.111-0.582,0.186l0.071,0.229l2.517-0.161
	c-0.086-7.267-0.172-14.474-0.256-21.728L207.25,98.165z M207.047,79.948c-0.01,0.059-0.021,0.116-0.029,0.171l4.578,0.758v8.355
	h0.131v-8.571L207.047,79.948z M206.973,81.075c0.012,0.1,0.022,0.201,0.033,0.303l3.086-0.395l-0.021-0.193L206.973,81.075z
	 M208.364,80.622l-1.382-0.229C207.034,80.913,207.034,80.913,208.364,80.622z M207.266,89.173l-0.01,0.128l2.939,0.272
	c0-0.041,0-0.08,0.013-0.119L207.266,89.173z"/>
<path d="M69.363,85.96v-0.705c0-7.211-0.005-14.423-0.014-21.635c0-0.514,0.171-0.732,0.631-0.895
	c0.9-0.324,1.779-0.699,2.772-1.097v0.744c0,7.401,0.004,14.801,0.012,22.2c0,0.545-0.144,0.765-0.696,0.844
	C71.189,85.542,70.323,85.761,69.363,85.96z M72.552,61.931c-0.866,0.343-1.608,0.686-2.375,0.941
	c-0.469,0.158-0.622,0.386-0.62,0.895c0.021,7.069,0.025,14.139,0.014,21.208v0.722c0.831-0.171,1.56-0.343,2.3-0.454
	c0.538-0.076,0.696-0.3,0.694-0.849c-0.016-7.235-0.021-14.473-0.014-21.713V61.931z"/>
<path d="M76.14,60.267v0.793c0,7.57-0.009,15.139,0.016,22.708c0,0.626-0.172,0.889-0.794,0.962
	c-0.701,0.083-1.39,0.268-2.168,0.425v-0.643c0-7.485-0.004-14.971-0.012-22.457c0-0.483,0.154-0.701,0.592-0.857
	C74.539,60.933,75.283,60.609,76.14,60.267z M75.908,60.594c-0.677,0.269-1.282,0.54-1.908,0.746
	c-0.468,0.153-0.624,0.393-0.622,0.902c0.021,7.314,0.026,14.632,0.016,21.955c0,0.219,0.021,0.437,0.034,0.702l2.48-0.528V60.594z"
	/>
<path d="M183.354,61.875c1.259,0.235,2.49,0.459,3.715,0.706c0.102,0.021,0.211,0.171,0.249,0.288
	c0.026,0.144,0.032,0.291,0.014,0.436v23.064l-3.978-0.355V61.875z M183.573,62.128v23.689l3.547,0.32v-22.64
	c0.021-0.123,0.017-0.25-0.011-0.372c-0.069-0.144-0.183-0.343-0.308-0.371C185.745,62.531,184.68,62.339,183.573,62.128z"/>
<path d="M197.727,87.298l-3.566-0.316v-23.04c1.091,0.208,2.176,0.404,3.258,0.634c0.123,0.027,0.242,0.226,0.3,0.37
	c0.028,0.144,0.033,0.291,0.012,0.436v21.916H197.727z M194.375,64.19v22.598l3.086,0.268V64.784L194.375,64.19z"/>
<path d="M193.034,63.714v23.161c-1.465-0.125-2.895-0.241-4.322-0.382c-0.111-0.011-0.242-0.186-0.293-0.313
	c-0.031-0.143-0.037-0.289-0.016-0.434c0-7.404,0-14.808,0-22.21c0-0.204,0.018-0.408,0.031-0.694L193.034,63.714z M188.643,63.102
	v23.172l4.162,0.375V63.882L188.643,63.102z"/>
<path d="M85.465,96.362l12.171-1.262v27.6l-12.171-1.051V96.362z M94.104,96.554v24.754l1.592,0.134l1.673,0.141V96.211
	L94.104,96.554z M85.65,96.554v24.896l11.693,1.01c0.135-0.499-0.022-0.635-0.408-0.66c-1.019-0.068-2.033-0.172-3.086-0.262V96.341
	l3.619-0.406c-0.029-0.234-0.051-0.406-0.074-0.591L85.65,96.554z"/>
<path d="M140.042,82.073l-6.896-0.615V52.444l2.259,0.415c1.418,0.259,2.834,0.526,4.255,0.768c0.324,0.055,0.462,0.16,0.462,0.515
	c-0.012,9.243-0.016,18.486-0.014,27.729C140.092,81.939,140.071,82.008,140.042,82.073z M133.408,52.744v28.489l6.408,0.564V53.92
	L133.408,52.744z"/>
<path d="M131.582,81.308l-6.245-0.566V50.985l6.245,1.152V81.308z M125.582,51.289v29.229l5.8,0.514V53.09
	c0.021-0.123,0.018-0.25-0.011-0.372c-0.081-0.16-0.2-0.388-0.343-0.415c-1.8-0.362-3.606-0.679-5.45-1.015H125.582z"/>
<path d="M147.525,82.759l-5.866-0.531V54.018c1.229,0.216,2.454,0.438,3.674,0.667c0.574,0.104,1.145,0.245,1.725,0.315
	c0.377,0.046,0.514,0.2,0.471,0.564c-0.008,0.125-0.008,0.25,0,0.375v26.819H147.525z M141.897,54.311v27.686l5.33,0.48V55.29
	L141.897,54.311z"/>
<path d="M179.1,103.053h5.432v20.742l-3.32-0.171c-0.543-0.029-1.085-0.082-1.629-0.078c-0.418,0-0.514-0.171-0.514-0.562
	c0.01-6.485,0.01-12.972,0-19.457C179.069,103.415,179.084,103.292,179.1,103.053z M179.358,103.305v19.968l4.922,0.27v-20.229
	L179.358,103.305z"/>
<path d="M178.493,123.475l-3.24-0.171v-20.115h3.24V123.475z M178.261,123.214v-19.771h-2.76v19.623L178.261,123.214z"/>
<path d="M175.125,99.353l9.63-0.439v3.109h-9.63V99.353z M175.366,101.774h9.143v-2.6l-9.143,0.424V101.774z"/>
<path d="M98.901,121.92V95.794l4.639-0.502v27.041L98.901,121.92z M103.304,122.102V95.53l-4.181,0.453v25.744L103.304,122.102z"/>
<path d="M90.003,96.724l3.565-0.367v25.148c-1.056-0.084-2.029-0.184-3.005-0.233c-0.514-0.027-0.643-0.235-0.64-0.737
	c0.036-5.561,0.046-11.121,0.062-16.683c0.007-2.133,0.012-4.265,0.017-6.397V96.724z M90.245,96.95v24.021l3.085,0.259V96.642
	L90.245,96.95z"/>
<path d="M89.746,121.179c-1.145-0.098-2.165-0.171-3.182-0.284c-0.139-0.015-0.29-0.218-0.367-0.368
	c-0.034-0.143-0.038-0.289-0.01-0.432c0.031-7.4,0.062-14.801,0.094-22.2c0-0.245,0-0.49,0-0.776l3.464-0.36V121.179z
	 M86.514,97.351v23.293l2.995,0.264V97.036L86.514,97.351z"/>
</svg>
