<svg id="Слой_1" data-name="Слой 1" xmlns="http://www.w3.org/2000/svg" viewBox="0 0 128 98.02"><defs><style>.cls-1,.cls-2{fill:none;}.cls-2{stroke:#fff;stroke-linecap:round;stroke-linejoin:round;stroke-width:2px;}</style></defs><title>1</title><rect class="cls-1" y="0.01" width="128" height="98"/><path class="cls-2" d="M110.86,59.37a48,48,0,1,1-3.27-30.45" transform="translate(0 0.01)"/><path class="cls-2" d="M85.91,91.71a21.35,21.35,0,0,1,25-32.34" transform="translate(0 0.01)"/><path class="cls-2" d="M101.77,65.29C94,68,87.47,79,85.91,91.71" transform="translate(0 0.01)"/><path class="cls-2" d="M53.75,29.39a14,14,0,0,1,19.79-.63q.33.3.63.63" transform="translate(0 0.01)"/><path class="cls-2" d="M49.51,25.15a20,20,0,0,1,28.28-.62l.62.62" transform="translate(0 0.01)"/><path class="cls-2" d="M45.27,20.91A26,26,0,0,1,82,20.28c.22.21.42.42.63.63" transform="translate(0 0.01)"/><line class="cls-2" x1="94" y1="71.21" x2="94.06" y2="64.01"/><line class="cls-2" x1="89.2" y1="79.34" x2="95.47" y2="76.04"/><polyline class="cls-2" points="35 79.01 35 37.01 93 37.01 93 60.64"/><line class="cls-2" x1="62" y1="61.01" x2="62" y2="74.01"/><polyline class="cls-2" points="89 55.01 89 42.01 40 42.01 40 56.01 93 56.01"/><line class="cls-2" x1="40" y1="61.01" x2="40" y2="78.01"/><line class="cls-2" x1="35" y1="60.01" x2="50" y2="60.01"/><line class="cls-2" x1="68" y1="73.01" x2="68" y2="60.01"/><polyline class="cls-2" points="82.38 74.01 55 74.01 55 60.01 89 60.01 89 63.01"/><line class="cls-2" x1="50" y1="79.01" x2="50" y2="56.01"/><line class="cls-2" x1="65" y1="55.01" x2="65" y2="42.01"/><line class="cls-2" x1="84" y1="55.01" x2="84" y2="42.01"/><line class="cls-2" x1="78" y1="55.01" x2="78" y2="42.01"/><line class="cls-2" x1="79" y1="73.01" x2="79" y2="61.01"/><line class="cls-2" x1="45" y1="55.01" x2="45" y2="42.01"/><line class="cls-2" x1="27" y1="79.01" x2="82" y2="79.01"/><polygon class="cls-2" points="102.48 29.98 113.03 27.88 116.02 42.9 105.46 44.99 102.48 29.98 102.48 29.98"/><line class="cls-2" x1="108.91" y1="49.01" x2="108.01" y2="44.72"/><line class="cls-2" x1="113.28" y1="43.65" x2="114.18" y2="48.18"/><line class="cls-2" x1="103.38" y1="34.01" x2="109.86" y2="32.73"/></svg>