<?xml version="1.0" encoding="utf-8"?>
<!-- Generator: Adobe Illustrator 22.0.0, SVG Export Plug-In . SVG Version: 6.00 Build 0)  -->
<svg version="1.1" id="Слой_1" xmlns="http://www.w3.org/2000/svg" xmlns:xlink="http://www.w3.org/1999/xlink" x="0px" y="0px"
	 viewBox="0 0 128 98" style="enable-background:new 0 0 128 98;" xml:space="preserve">
<style type="text/css">
	.st0{fill:none;}
	.st1{fill:none;stroke:#FFFFFF;stroke-width:2.0001;stroke-linecap:round;stroke-linejoin:round;}
	.st2{fill:none;stroke:#FFFFFF;stroke-width:2.0001;stroke-linecap:round;stroke-linejoin:round;stroke-dasharray:2.0001,6.0004;}
</style>
<title>ic_</title>
<rect class="st0" width="128" height="98"/>
<path class="st1" d="M90.4,8.9c-1.1-0.7-1.9-1.2-3.1-1.9C64.1-5.9,34.9,2.5,22,25.7S17.5,78,40.7,90.9s52.4,4.5,65.3-18.7
	c4-7.1,6-15.1,6-23.3 M114.3,9.7c-0.5,2.9,3.6,8,6,7.9c-0.2,6.5-2.1,18.8-3.8,22.2s-7,9.7-15.7,13c-5.5-2.1-12.9-7-15.8-13
	c-1.7-3.5-3.5-15.7-3.8-22.2c2.3,0.1,6.4-5,6-7.9c0,0,8.9-2.8,13.5-2.8S114.4,9.7,114.3,9.7L114.3,9.7z M22,70h85 M22,70h85"/>
<path class="st2" d="M101,51v18.9c0,5-4,9.1-9,9.1H36c-5-0.1-9-4.1-9-9.1V30.1c0-5,4.1-10.1,9-10.1h46"/>
<path class="st1" d="M101,25v10.5c0,1.3,0.2,2.6,0.6,3.8c14.2-5.7,0.5-21.8-0.1-23.3c-6.8,6.5-12.4,19.5-1.7,25.3
	c0.8,0.4,1.2,1.3,1.2,2.2V45"/>
<path class="st1" d="M110.8,13.2c-0.5,2.9,5,6.9,5,6.9c-0.5,14.8-1.6,21.5-15,28.2c-13.4-6.7-14.4-13.4-15-28.2c0,0,5.4-4,5-6.9
	c3.2-1.3,6.6-2.1,10-2.3C104.2,11.1,107.6,11.9,110.8,13.2z"/>
<polyline class="st1" points="35,70 35,28 82,28 "/>
<line class="st1" x1="62" y1="51" x2="62" y2="65"/>
<line class="st1" x1="93" y1="49" x2="93" y2="70"/>
<line class="st1" x1="40" y1="51" x2="40" y2="69"/>
<line class="st1" x1="35" y1="51" x2="50" y2="51"/>
<line class="st1" x1="68" y1="65" x2="68" y2="51"/>
<polygon class="st1" points="89,51 89,65 55,65 55,51 88.7,51 "/>
<line class="st1" x1="50" y1="70" x2="50" y2="47"/>
<line class="st1" x1="65" y1="47" x2="65" y2="33"/>
<line class="st1" x1="89" y1="47" x2="89" y2="46"/>
<line class="st1" x1="84" y1="47" x2="84" y2="37"/>
<polyline class="st1" points="83,33 40,33 40,47 91,47 "/>
<line class="st1" x1="78" y1="47" x2="78" y2="33"/>
<line class="st1" x1="79" y1="65" x2="79" y2="51"/>
<line class="st1" x1="45" y1="47" x2="45" y2="33"/>
</svg>
