<?xml version="1.0" encoding="utf-8"?>
<!-- Generator: Adobe Illustrator 22.0.0, SVG Export Plug-In . SVG Version: 6.00 Build 0)  -->
<svg version="1.1" id="Слой_1" xmlns="http://www.w3.org/2000/svg" xmlns:xlink="http://www.w3.org/1999/xlink" x="0px" y="0px"
	 viewBox="0 0 128 98" style="enable-background:new 0 0 128 98;" xml:space="preserve">
<style type="text/css">
	.st0{fill:none;}
	.st1{fill:none;stroke:#FFFFFF;stroke-width:2.0001;stroke-linecap:round;stroke-linejoin:round;}
</style>
<title>ic_</title>
<rect class="st0" width="128" height="98"/>
<circle class="st1" cx="64" cy="49" r="41"/>
<line class="st1" x1="49" y1="54" x2="49" y2="70"/>
<line class="st1" x1="42" y1="54" x2="42" y2="71"/>
<line class="st1" x1="79" y1="66" x2="79" y2="55"/>
<line class="st1" x1="77" y1="50" x2="77" y2="39"/>
<polyline class="st1" points="65,55 85,55 85,66 "/>
<polyline class="st1" points="64,66 54,66 54,54 "/>
<line class="st1" x1="67" y1="66" x2="64" y2="66"/>
<polyline class="st1" points="85,66 68,66 68,55 "/>
<polyline class="st1" points="30,71 95.9,71 98,71 "/>
<polyline class="st1" points="64,34 90,34 90,70 "/>
<polyline class="st1" points="65,50 73.8,50 89,50 "/>
<line class="st1" x1="37" y1="70" x2="37" y2="54"/>
<polyline class="st1" points="85,50 85,39 64,39 "/>
<line class="st1" x1="95" y1="50" x2="100" y2="50"/>
<line class="st1" x1="42" y1="54" x2="37" y2="54"/>
<line class="st1" x1="53" y1="54" x2="49" y2="54.1"/>
<line class="st1" x1="64" y1="74" x2="64" y2="27"/>
<path class="st1" d="M47.6,3.9C22.7,13,9.8,40.5,18.9,65.4s36.6,37.7,61.5,28.7s37.7-36.6,28.7-61.5c-1-2.6-2.1-5.2-3.5-7.6l0,0"/>
<line class="st1" x1="100.1" y1="17.2" x2="94.8" y2="22.5"/>
<line class="st1" x1="90.5" y1="18.3" x2="95.8" y2="13"/>
<path class="st1" d="M72,5H56c-1.1,0-2-0.9-2-2l0,0c0-1.1,0.9-2,2-2h16c1.1,0,2,0.9,2,2l0,0C74,4.1,73.1,5,72,5z"/>
<line class="st1" x1="57" y1="5" x2="57" y2="9"/>
<line class="st1" x1="71" y1="9" x2="71" y2="5"/>
<path class="st1" d="M102,19.6c-2.6-3.3-5.6-6.3-8.9-8.8"/>
<polygon class="st1" points="36,44 60,44 60,49 36,49 36,44 "/>
<line class="st1" x1="38.2" y1="23" x2="41.1" y2="28.1"/>
<line class="st1" x1="45.6" y1="23" x2="48.6" y2="28.1"/>
<polyline class="st1" points="33,23 52.6,23 56,28 31,28 "/>
<line class="st1" x1="48" y1="44" x2="48" y2="28"/>
<line class="st1" x1="64" y1="81" x2="64" y2="86"/>
<line class="st1" x1="64" y1="19" x2="64" y2="14"/>
</svg>
