<?xml version="1.0" encoding="utf-8"?>
<!-- Generator: Adobe Illustrator 22.0.0, SVG Export Plug-In . SVG Version: 6.00 Build 0)  -->
<svg version="1.1" id="Слой_1" xmlns="http://www.w3.org/2000/svg" xmlns:xlink="http://www.w3.org/1999/xlink" x="0px" y="0px"
	 viewBox="0 0 128 98" style="enable-background:new 0 0 128 98;" xml:space="preserve">
<style type="text/css">
	.st0{fill:none;stroke:#FFFFFF;stroke-width:2.0001;stroke-linecap:round;stroke-linejoin:round;}
	.st1{fill:none;stroke:#FFFFFF;stroke-width:2.0001;stroke-miterlimit:22.9256;}
	.st2{fill:none;}
</style>
<title>ic_</title>
<polyline class="st0" points="101.5,90.9 90.8,80.5 90,76.9 94.2,72.6 97.9,73.4 99.8,75.3 115.9,91 "/>
<line class="st0" x1="87.1" y1="72.7" x2="90.7" y2="76.2"/>
<line class="st0" x1="89.9" y1="69.8" x2="93.5" y2="73.3"/>
<path class="st0" d="M73.5,80.6c17.4-5.3,27.3-23.7,22.1-41.1S71.9,12.1,54.5,17.4S27.1,41.1,32.4,58.5c0,0,0,0,0,0
	C37.7,76,56.1,85.9,73.5,80.6z"/>
<path class="st0" d="M46,56h3.6c1.4,3.5,1.5,5.9,4.9,7.7c2.1,1.1,2.5,0.7,3.5-1.4c2.5,2.1,4.4,2.1,5.1-1.3c2.6,1.3,4,1.7,5.1-1.3
	c2.4,1.3,5.6,0.7,5.6-1.3c-1.7-5.7-4.3-10.1-6.5-15.1"/>
<line class="st0" x1="58" y1="62" x2="54.7" y2="55.7"/>
<line class="st0" x1="63.1" y1="60.8" x2="59.8" y2="53.8"/>
<line class="st0" x1="68.2" y1="59.5" x2="64.9" y2="51.2"/>
<polyline class="st0" points="81,56 77.2,56 74.5,57.6 "/>
<path class="st0" d="M40,40h3.2c0.7,0,1.8,0.7,1.8,1.4l-0.1,13.5c0.1,1-0.6,1.9-1.6,2.1c0,0-0.1,0-0.1,0H40"/>
<path class="st0" d="M90,57h-7.2c-0.7,0-1.8-0.5-1.8-1.2V39.4c0-0.7,1.7-1.4,2.4-1.4h5"/>
<path class="st0" d="M80,41h-4.8c-1.5-1.9-2.9-5.3-5.5-5.2c-0.7,0-2.5,0-3,0c-4.6,0-6.1,4.5-9.4,8.1l-0.1,2.4l2.7,1.4l7.5-4.3"/>
<path class="st0" d="M45,41h6.6c2.7-2.3,1.7-3,6-3H61"/>
<path class="st0" d="M51.4,72.6c12.7,7.2,28.9,2.7,36.1-10c5.8-10.2,4.2-22.9-3.9-31.4"/>
<path class="st0" d="M77.9,26.6c-12.6-7.4-28.9-3.3-36.3,9.3c-6,10.2-4.6,23.1,3.5,31.7"/>
<path class="st1" d="M95.8,85c-19.9,17.5-50.2,15.7-67.8-4.2S12.3,30.6,32.2,13S82.4-2.6,100,17.2c13.2,15,15.8,36.6,6.4,54.3"/>
<rect class="st2" width="128" height="98"/>
</svg>
