<?xml version="1.0" encoding="utf-8"?>
<!-- Generator: Adobe Illustrator 22.0.0, SVG Export Plug-In . SVG Version: 6.00 Build 0)  -->
<svg version="1.1" id="Слой_1" xmlns="http://www.w3.org/2000/svg" xmlns:xlink="http://www.w3.org/1999/xlink" x="0px" y="0px"
	 viewBox="0 0 128 98" style="enable-background:new 0 0 128 98;" xml:space="preserve">
<style type="text/css">
	.st0{fill:none;}
	.st1{fill:none;stroke:#FFFFFF;stroke-width:2.0001;stroke-linecap:round;stroke-linejoin:round;}
	.st2{fill:none;stroke:#FFFFFF;stroke-width:2.0001;stroke-linecap:round;stroke-linejoin:round;stroke-dasharray:4.0003,4.0003;}
</style>
<title>ic_</title>
<rect class="st0" width="128" height="98"/>
<path class="st1" d="M89.6,6h23.8c3.2,0.1,5.7,2.8,5.6,5.9c0,0,0,0,0,0.1v35c0.2,3.1-2.3,5.8-5.4,6c0,0-0.1,0-0.1,0H89.6
	c-3.2-0.1-5.7-2.8-5.6-6c0,0,0,0,0,0V12C83.9,8.8,86.4,6.1,89.6,6C89.6,6,89.6,6,89.6,6z"/>
<polyline class="st1" points="97.5,18.3 93.4,22.9 89.9,20 "/>
<polyline class="st1" points="97.8,39.9 93.4,45 89.6,41.8 "/>
<line class="st1" x1="113" y1="32" x2="103" y2="32"/>
<line class="st1" x1="113" y1="21" x2="103" y2="21"/>
<line class="st1" x1="113" y1="43" x2="103" y2="43"/>
<path class="st1" d="M73.1,84.3C80.4,83,83.3,81.7,73.1,84.3z"/>
<polyline class="st1" points="63.9,87 58.9,83 61.9,67.5 56,61.8 "/>
<polyline class="st1" points="63.9,87 68.9,83 65.9,67.5 72.3,61.8 "/>
<polyline class="st1" points="56.3,63 45.4,69 42.4,80.9 41.3,85 "/>
<path class="st1" d="M53.6,48.4c2.3,5.7,1.6,13.1,10.3,13.1c8.9,0,8.1-7.3,10.3-13.1c2.6-9.1-4.4-14.2-10.8-14.2
	C57.3,34.3,51.9,38.7,53.6,48.4z"/>
<path class="st1" d="M53.5,46.4c10.7,1.5,14.3-3.8,14.7-4c2.5,2.2,3.6,4.3,6.2,5"/>
<polyline class="st1" points="70.8,63.2 81.3,69 84.4,80.9 85.4,85 "/>
<path class="st1" d="M36.1,9.6C49.2,0.5,65.9-1.5,80.7,4.2"/>
<path class="st1" d="M112,53.8c-2.8,26.4-26.4,45.6-52.9,42.9C34.7,94.1,16.1,73.6,16,49c0-1.4,0-2.7,0.2-4.1"/>
<path class="st1" d="M40.9,82.3c-5.7-3.8-10.2-9-13.3-15.1"/>
<path class="st1" d="M103.5,53.8c-1.4,12-8.2,22.8-18.5,29.3"/>
<path class="st1" d="M109,6v2c0,1.1-0.9,2-2,2H96c-1.1,0-2-0.9-2-2V6"/>
<path class="st2" d="M38,32v-7h1c2.1,0,0.8,1,3,1c2.6,0,2.9-1.5,3-2.9S44.8,20,42,20c-2.3,0-0.8,1-3,1h-1v-8h-6v-1c0-2.1,1-0.8,1-3
	c0-2.6-1.5-3-2.9-3S27,6.2,27,9c0,2.3,1,0.8,1,3v1h-7v7h-1c-2.2,0-0.7-1-3-1c-2.8,0-3.1,1.6-3,3.1s0.4,2.9,3,2.9c2.2,0,0.9-1,3-1h1
	v8"/>
<path class="st1" d="M38,51h-5v1c0,2.2,1,0.7,1,3c0,2.8-2.1,3.1-3.6,3s-2.9-0.4-2.9-3c0-2.2,1.5-0.9,1.5-3v-1h-8v-7h-1
	c-2.1,0-0.8,1-3,1c-2.6,0-2.9-1.5-3-2.9s0.3-3.1,3-3.1c2.3,0,0.8,1,3,1h1v-8h7v1c0,2.1-1,0.8-1,3c0,2.6,1.5,3,2.9,3s3.1-0.3,3.1-3
	c0-2.3-1-0.8-1-3v-1h6 M97.5,29.2l-4.1,4.7L89.9,31 M27,20v-1l2-2h2l2,2v1l-1,1l-2,2v1 M30,27v1 M74,13c2.8,0,5,2.2,5,5s-2.2,5-5,5
	s-5-2.2-5-5S71.2,13,74,13z M63.5,23c1.7,0,3,1.3,3,3s-1.3,3-3,3s-3-1.3-3-3S61.8,23,63.5,23z M38,51v-7h1c2.1,0,0.8,1,3,1
	c2.6,0,3-1.5,3-2.9S44.8,39,42,39c-2.3,0-0.8,1-3,1h-1v-8"/>
</svg>
