<?xml version="1.0" encoding="utf-8"?>
<!-- Generator: Adobe Illustrator 22.0.0, SVG Export Plug-In . SVG Version: 6.00 Build 0)  -->
<svg version="1.1" id="Слой_1" xmlns="http://www.w3.org/2000/svg" xmlns:xlink="http://www.w3.org/1999/xlink" x="0px" y="0px"
	 viewBox="0 0 128 98" style="enable-background:new 0 0 128 98;" xml:space="preserve">
<style type="text/css">
	.st0{fill:none;}
	.st1{fill:none;stroke:#FFFFFF;stroke-width:2.0001;stroke-linecap:round;stroke-linejoin:round;}
</style>
<title>ic_</title>
<rect class="st0" width="128" height="98"/>
<rect class="st0" width="128" height="98"/>
<rect x="56" y="61" class="st1" width="29" height="12"/>
<line class="st1" x1="76" y1="72" x2="76" y2="62"/>
<polyline class="st1" points="38,77 38,41 88,41 88,77 "/>
<line class="st1" x1="62" y1="62" x2="62" y2="73"/>
<polyline class="st1" points="85,56 85,45 43,45 43,57 88,57 "/>
<line class="st1" x1="43" y1="62" x2="43" y2="76"/>
<line class="st1" x1="38" y1="61" x2="51" y2="61"/>
<line class="st1" x1="67" y1="72" x2="67" y2="61"/>
<line class="st1" x1="51" y1="77" x2="51" y2="57"/>
<line class="st1" x1="64" y1="56" x2="64" y2="45"/>
<line class="st1" x1="81" y1="56" x2="81" y2="45"/>
<line class="st1" x1="75" y1="56" x2="75" y2="45"/>
<line class="st1" x1="47" y1="56" x2="47" y2="45"/>
<line class="st1" x1="34" y1="77" x2="94" y2="77"/>
<polyline class="st1" points="107.1,60 113.6,53 106,45 112.5,38 "/>
<path class="st1" d="M76,21.3c0.8-1.8,3.3-2.5,4.3-2.3c4.5,0.7,5.4,6.4,3.9,9.7c-2.6,5.5-11.4,2.6-11.4,2.6
	c-1.8,1.4-5.7,1.3-6.5-0.4"/>
<path class="st1" d="M77.7,28c-0.7-2,0.2-4,2.7-3.9"/>
<path class="st1" d="M65.4,20.6c0.9-1.5,4.8-1.3,4.7,2.5"/>
<path class="st1" d="M56.8,26.9c-1.1-3.3,1.3-3.9,3.2-3.6"/>
<path class="st1" d="M79,18.6c0.3-3.5-2.9-5.9-5.7-6.7c-1-0.3-2-0.3-2.9-0.1c-1.7,0.2-2.9,1-2.8,3.4"/>
<path class="st1" d="M65.3,26.6c1.6,1.8,1,3.2,0.9,4.3s-3.9,2.3-7.4,2.1c-3.3-0.1-6.8-1.5-7.6-3.3c-0.4-0.9,0.3-2.6,1.1-4"/>
<path class="st1" d="M51.4,30.9c-9.6-0.6-5.1-10-2.9-10.2c0.1-4.1,2.5-7.4,7.7-7.3"/>
<path class="st1" d="M56.7,17.5c-0.9-1.2-0.6-2.7,0.1-4.1c1.7-3.3,9-3.8,11.6-1.4"/>
<path class="st1" d="M109,65.7C99.8,90.6,72.1,103.2,47.3,94S9.8,57.1,19,32.3S55.9-5.2,80.7,4c13.5,5,24,15.8,28.7,29.5"/>
<path class="st1" d="M101.8,65c-8.9,20.8-33,30.5-53.8,21.7s-30.5-33-21.7-53.8c3.6-8.5,9.9-15.5,18-19.9"/>
<path class="st1" d="M83,12.7c9.7,5.1,17,13.9,20.2,24.3"/>
</svg>
