<?xml version="1.0" encoding="utf-8"?>
<!-- Generator: Adobe Illustrator 22.0.0, SVG Export Plug-In . SVG Version: 6.00 Build 0)  -->
<svg version="1.1" id="Слой_1" xmlns="http://www.w3.org/2000/svg" xmlns:xlink="http://www.w3.org/1999/xlink" x="0px" y="0px"
	 viewBox="0 0 128 98" style="enable-background:new 0 0 128 98;" xml:space="preserve">
<style type="text/css">
	.st0{fill:none;stroke:#FFFFFF;stroke-width:2.0001;stroke-linecap:round;stroke-linejoin:round;}
	.st1{fill:none;}
	.st2{fill:none;stroke:#FFFFFF;stroke-width:2;stroke-linecap:round;stroke-linejoin:round;}
	.st3{fill:none;stroke:#FFFFFF;stroke-width:2.0001;stroke-linecap:round;stroke-linejoin:round;stroke-dasharray:4;}
</style>
<title>ic_</title>
<path class="st0" d="M78.1,3.1c25.3,7.8,39.6,34.6,31.8,60c-0.9,2.8-2,5.6-3.4,8.2"/>
<path class="st0" d="M98.2,82.7c-18.6,18.9-49,19.2-67.9,0.6s-19.2-49-0.6-67.9C38.2,6.7,49.6,1.6,61.7,1.1"/>
<rect class="st1" width="128" height="98"/>
<path class="st2" d="M76.1,17.1L43.5,49.6c-2,2-5.3,2-7.4,0L32,45.4c-2-2-2-5.3,0-7.4L64.5,5.5c2-2,5.3-2,7.4,0l4.2,4.2
	C78.1,11.7,78.1,15,76.1,17.1z"/>
<path class="st2" d="M64,43.1L60,39L42.7,56.4c-2,2-5.3,2-7.4,0l-0.7-0.7c-2-2-2-5.3,0-7.4"/>
<line class="st2" x1="75" y1="54" x2="70" y2="49"/>
<path class="st2" d="M102.6,86.9L79.1,64.4c0,0-6.2,2.6-10.3-2.5l6.7-6.7l0.5-0.5l6.6-6.6c5.8,5.8,2.1,10.6,2.1,10.6l2.1,2.1
	l21.4,20.4c1.2,1.2,1.1,3.1-0.1,4.3c0,0,0,0,0,0l-1.9,1.9C105.3,88.5,103.7,87.9,102.6,86.9z"/>
<path class="st3" d="M92.4,77.1C77.9,91.8,54.7,93,38.7,80L95,23.7c11,13.5,12.1,32.6,2.5,47.2"/>
<path class="st3" d="M60.9,9.1c-22,1.7-38.5,20.9-36.8,43c0.6,8.1,3.7,15.9,8.9,22.2L89.3,18c-4-3.3-8.6-5.8-13.6-7.3"/>
<line class="st0" x1="67.3" y1="9.1" x2="49.3" y2="26.9"/>
<line class="st0" x1="84.8" y1="58.7" x2="82.5" y2="61.3"/>
</svg>
