<?xml version="1.0" encoding="utf-8"?>
<!-- Generator: Adobe Illustrator 22.0.0, SVG Export Plug-In . SVG Version: 6.00 Build 0)  -->
<svg version="1.1" id="Слой_1" xmlns="http://www.w3.org/2000/svg" xmlns:xlink="http://www.w3.org/1999/xlink" x="0px" y="0px"
	 viewBox="0 0 128 98" style="enable-background:new 0 0 128 98;" xml:space="preserve">
<style type="text/css">
	.st0{fill:none;}
	.st1{fill:none;stroke:#FFFFFF;stroke-width:2.0001;stroke-linecap:round;stroke-linejoin:round;}
	.st2{fill:none;stroke:#FFFFFF;stroke-width:2;stroke-linecap:round;stroke-linejoin:round;}
</style>
<title>ic_</title>
<rect class="st0" width="128" height="98"/>
<circle class="st1" cx="64" cy="49" r="48"/>
<path class="st1" d="M29.7,23.1c1.4-1.9,3-3.6,4.6-5.2"/>
<path class="st1" d="M105.6,59.8c-6,23-29.4,36.8-52.4,30.8c-23-6-36.8-29.4-30.8-52.4c0.8-3,1.9-6,3.3-8.8c0.4-0.7,0.8-1.4,1.2-2.1
	"/>
<path class="st1" d="M80.3,9.2c10,4.1,18.1,11.8,22.7,21.7"/>
<path class="st2" d="M55,73l-4.3,5.2c-0.6,0.8-1.8,1.1-2.7,0.7l-4.4-1.8C42.6,76.9,42,76,42,75V65"/>
<path class="st2" d="M76,73l4.3,5.2c0.6,0.8,1.7,1.1,2.7,0.8l4.4-1.8c1-0.3,1.7-1.2,1.6-2.3V64"/>
<path class="st2" d="M75.8,22C87,25.9,95,35.7,95,47.1C95,62,81.5,74,64.9,74c-12.5,0-23.2-6.8-27.8-16.4l-0.1-0.1h-2.6
	c-3,0-5.5-2.5-5.5-5.5v-9.6c0-3,2.5-5.5,5.5-5.5l2.6-0.1l0,0c3.6-7.6,11-13.5,20.1-15.6"/>
<path class="st2" d="M34.6,48c0.1-3.9,1-7.7,2.5-11.3"/>
<path class="st2" d="M54.7,27.2c6.9-3.1,14.8-3,21.5,0.5"/>
<path class="st2" d="M44.3,27.5c0,0,1.2-6.4-3.8-8.9c1.7-0.8,9.9-2.5,11.9,4"/>
<path class="st1" d="M62,56V38h5.5c2,0,6.5-0.5,6.5,4.5S69.3,47,67.5,47H59"/>
<line class="st1" x1="70" y1="52" x2="59" y2="52"/>
<path class="st1" d="M58.8,24.6c-3-4.2-1.9-10,2.3-13s10-1.9,13,2.3c2.4,3.5,2.2,8.1-0.5,11.3"/>
<path class="st1" d="M61.3,21.4c-0.2-0.6-0.3-1.2-0.3-1.7c0-3,2.5-5.5,5.5-5.5s5.5,2.5,5.5,5.5c0,0.7-0.1,1.5-0.4,2.2"/>
<path class="st2" d="M95,47c0,0,10-4,10,2.5c0,1.4-1.1,2.5-2.5,2.5c-5.7,0-3.3-11.6,1.5-13"/>
</svg>
