<svg id="Слой_1" data-name="Слой 1" xmlns="http://www.w3.org/2000/svg" width="128" height="98" viewBox="0 0 128 98"><title>ic_</title><rect width="128" height="98" style="fill:none"/><path d="M90.36,8.89C89.27,8.16,88.45,7.68,87.31,7A48,48,0,1,0,112,49m2.32-39.27c-.48,2.92,3.62,8,6,7.94-.22,6.52-2.12,18.79-3.77,22.24s-7,9.71-15.65,13c-5.54-2.11-12.9-7-15.76-13-1.65-3.45-3.54-15.72-3.77-22.24,2.33.06,6.43-5,6-7.94,0,0,8.87-2.82,13.52-2.82s13.52,2.82,13.52,2.82ZM22,70h85M22,70h85" style="fill:none;stroke:#161616;stroke-linecap:round;stroke-linejoin:round;stroke-width:2.00013px"/><path d="M101,51V69.86A9.12,9.12,0,0,1,92,79H36a9.11,9.11,0,0,1-9-9.14V30.14c0-5,4.06-10.14,9-10.14H82" style="fill:none;stroke:#161616;stroke-linecap:round;stroke-linejoin:round;stroke-width:2.00013px;stroke-dasharray:2.0001299381256104,6.00039005279541"/><path d="M101,25V35.5a11.67,11.67,0,0,0,.58,3.81c14.21-5.73.49-21.79-.11-23.31-6.81,6.48-12.41,19.45-1.65,25.32A2.33,2.33,0,0,1,101,43.5V45" style="fill:none;stroke:#161616;stroke-linecap:round;stroke-linejoin:round;stroke-width:2.00013px"/><path d="M110.81,13.23c-.48,2.92,5,6.94,5,6.94-.51,14.81-1.59,21.46-15,28.2-13.38-6.74-14.45-13.38-15-28.2,0,0,5.45-4,5-6.94a30.68,30.68,0,0,1,10-2.32,30.68,30.68,0,0,1,10,2.32Z" style="fill:none;stroke:#161616;stroke-linecap:round;stroke-linejoin:round;stroke-width:2.00013px"/><polyline points="35 70 35 28 82 28.02" style="fill:none;stroke:#161616;stroke-linecap:round;stroke-linejoin:round;stroke-width:2.00013px"/><line x1="62" y1="51" x2="62" y2="65" style="fill:none;stroke:#161616;stroke-linecap:round;stroke-linejoin:round;stroke-width:2.00013px"/><line x1="93" y1="49" x2="93" y2="70" style="fill:none;stroke:#161616;stroke-linecap:round;stroke-linejoin:round;stroke-width:2.00013px"/><line x1="40" y1="51" x2="40" y2="69" style="fill:none;stroke:#161616;stroke-linecap:round;stroke-linejoin:round;stroke-width:2.00013px"/><line x1="35" y1="51" x2="50" y2="51" style="fill:none;stroke:#161616;stroke-linecap:round;stroke-linejoin:round;stroke-width:2.00013px"/><line x1="68" y1="65" x2="68" y2="51" style="fill:none;stroke:#161616;stroke-linecap:round;stroke-linejoin:round;stroke-width:2.00013px"/><polygon points="89 51 89 65 55 65 55 51 88.73 51 89 51" style="fill:none;stroke:#161616;stroke-linecap:round;stroke-linejoin:round;stroke-width:2.00013px"/><line x1="50" y1="70" x2="50" y2="47" style="fill:none;stroke:#161616;stroke-linecap:round;stroke-linejoin:round;stroke-width:2.00013px"/><line x1="65" y1="47" x2="65" y2="33" style="fill:none;stroke:#161616;stroke-linecap:round;stroke-linejoin:round;stroke-width:2.00013px"/><line x1="89" y1="47" x2="89" y2="46" style="fill:none;stroke:#161616;stroke-linecap:round;stroke-linejoin:round;stroke-width:2.00013px"/><line x1="84" y1="47" x2="84" y2="37" style="fill:none;stroke:#161616;stroke-linecap:round;stroke-linejoin:round;stroke-width:2.00013px"/><polyline points="83 33 40 33 40 47 91 47" style="fill:none;stroke:#161616;stroke-linecap:round;stroke-linejoin:round;stroke-width:2.00013px"/><line x1="78" y1="47" x2="78" y2="33" style="fill:none;stroke:#161616;stroke-linecap:round;stroke-linejoin:round;stroke-width:2.00013px"/><line x1="79" y1="65" x2="79" y2="51" style="fill:none;stroke:#161616;stroke-linecap:round;stroke-linejoin:round;stroke-width:2.00013px"/><line x1="45" y1="47" x2="45" y2="33" style="fill:none;stroke:#161616;stroke-linecap:round;stroke-linejoin:round;stroke-width:2.00013px"/></svg>