<svg id="Слой_1" data-name="Слой 1" xmlns="http://www.w3.org/2000/svg" width="128" height="98" viewBox="0 0 128 98"><title>ic_</title><rect width="128" height="98" style="fill:none"/><circle cx="64" cy="49" r="41" style="fill:none;stroke:#161616;stroke-linecap:round;stroke-linejoin:round;stroke-width:2.00013px"/><line x1="49" y1="54" x2="49" y2="70" style="fill:none;stroke:#161616;stroke-linecap:round;stroke-linejoin:round;stroke-width:2.00013px"/><line x1="42" y1="54" x2="42" y2="71" style="fill:none;stroke:#161616;stroke-linecap:round;stroke-linejoin:round;stroke-width:2.00013px"/><line x1="79" y1="66" x2="79" y2="55" style="fill:none;stroke:#161616;stroke-linecap:round;stroke-linejoin:round;stroke-width:2.00013px"/><line x1="77" y1="50" x2="77" y2="39" style="fill:none;stroke:#161616;stroke-linecap:round;stroke-linejoin:round;stroke-width:2.00013px"/><polyline points="65 55 85 55 85 66" style="fill:none;stroke:#161616;stroke-linecap:round;stroke-linejoin:round;stroke-width:2.00013px"/><polyline points="64 66 54 66 54 54" style="fill:none;stroke:#161616;stroke-linecap:round;stroke-linejoin:round;stroke-width:2.00013px"/><line x1="67" y1="66" x2="64" y2="66" style="fill:none;stroke:#161616;stroke-linecap:round;stroke-linejoin:round;stroke-width:2.00013px"/><polyline points="85 66 68 66 68 55" style="fill:none;stroke:#161616;stroke-linecap:round;stroke-linejoin:round;stroke-width:2.00013px"/><polyline points="30 71 95.89 71 98 71" style="fill:none;stroke:#161616;stroke-linecap:round;stroke-linejoin:round;stroke-width:2.00013px"/><polyline points="64 34 90 34 90 70" style="fill:none;stroke:#161616;stroke-linecap:round;stroke-linejoin:round;stroke-width:2.00013px"/><polyline points="65 50 73.81 50 89 50" style="fill:none;stroke:#161616;stroke-linecap:round;stroke-linejoin:round;stroke-width:2.00013px"/><line x1="37" y1="70" x2="37.03" y2="54" style="fill:none;stroke:#161616;stroke-linecap:round;stroke-linejoin:round;stroke-width:2.00013px"/><polyline points="85 50 85 39 64 39" style="fill:none;stroke:#161616;stroke-linecap:round;stroke-linejoin:round;stroke-width:2.00013px"/><line x1="95" y1="50" x2="100" y2="50" style="fill:none;stroke:#161616;stroke-linecap:round;stroke-linejoin:round;stroke-width:2.00013px"/><line x1="42" y1="54" x2="37" y2="54" style="fill:none;stroke:#161616;stroke-linecap:round;stroke-linejoin:round;stroke-width:2.00013px"/><line x1="53" y1="54" x2="49" y2="54.07" style="fill:none;stroke:#161616;stroke-linecap:round;stroke-linejoin:round;stroke-width:2.00013px"/><line x1="64" y1="74" x2="64" y2="27" style="fill:none;stroke:#161616;stroke-linecap:round;stroke-linejoin:round;stroke-width:2.00013px"/><path d="M47.58,3.89a48,48,0,1,0,58,21.11h0" style="fill:none;stroke:#161616;stroke-linecap:round;stroke-linejoin:round;stroke-width:2.00013px"/><line x1="100.07" y1="17.2" x2="94.79" y2="22.52" style="fill:none;stroke:#161616;stroke-linecap:round;stroke-linejoin:round;stroke-width:2.00013px"/><line x1="90.54" y1="18.29" x2="95.81" y2="12.97" style="fill:none;stroke:#161616;stroke-linecap:round;stroke-linejoin:round;stroke-width:2.00013px"/><path d="M72,5H56a2,2,0,0,1-2-2h0a2,2,0,0,1,2-2H72a2,2,0,0,1,2,2h0a2,2,0,0,1-2,2Z" style="fill:none;stroke:#161616;stroke-linecap:round;stroke-linejoin:round;stroke-width:2.00013px"/><line x1="57" y1="5" x2="57" y2="9" style="fill:none;stroke:#161616;stroke-linecap:round;stroke-linejoin:round;stroke-width:2.00013px"/><line x1="71" y1="9" x2="71" y2="5" style="fill:none;stroke:#161616;stroke-linecap:round;stroke-linejoin:round;stroke-width:2.00013px"/><path d="M102,19.65a48,48,0,0,0-8.89-8.83" style="fill:none;stroke:#161616;stroke-linecap:round;stroke-linejoin:round;stroke-width:2.00013px"/><polygon points="36 44 60 44 60 49 36 49 36 44 36 44" style="fill:none;stroke:#161616;stroke-linecap:round;stroke-linejoin:round;stroke-width:2.00013px"/><line x1="38.16" y1="23.01" x2="41.12" y2="28.08" style="fill:none;stroke:#161616;stroke-linecap:round;stroke-linejoin:round;stroke-width:2.00013px"/><line x1="45.61" y1="23.01" x2="48.57" y2="28.08" style="fill:none;stroke:#161616;stroke-linecap:round;stroke-linejoin:round;stroke-width:2.00013px"/><polyline points="33 23 52.62 23 55.95 28 31 28" style="fill:none;stroke:#161616;stroke-linecap:round;stroke-linejoin:round;stroke-width:2.00013px"/><line x1="48" y1="44" x2="47.98" y2="28" style="fill:none;stroke:#161616;stroke-linecap:round;stroke-linejoin:round;stroke-width:2.00013px"/><line x1="64" y1="81" x2="64" y2="86" style="fill:none;stroke:#161616;stroke-linecap:round;stroke-linejoin:round;stroke-width:2.00013px"/><line x1="64" y1="19" x2="64" y2="14" style="fill:none;stroke:#161616;stroke-linecap:round;stroke-linejoin:round;stroke-width:2.00013px"/></svg>