<svg id="Слой_1" data-name="Слой 1" xmlns="http://www.w3.org/2000/svg" width="128" height="98" viewBox="0 0 128 98"><title>ic_</title><polyline points="101.52 90.9 90.81 80.5 90 76.92 94.18 72.61 97.91 73.39 99.85 75.33 115.86 91" style="fill:none;stroke:#161616;stroke-linecap:round;stroke-linejoin:round;stroke-width:2.00013px"/><line x1="87.11" y1="72.72" x2="90.7" y2="76.2" style="fill:none;stroke:#161616;stroke-linecap:round;stroke-linejoin:round;stroke-width:2.00013px"/><line x1="89.9" y1="69.85" x2="93.49" y2="73.33" style="fill:none;stroke:#161616;stroke-linecap:round;stroke-linejoin:round;stroke-width:2.00013px"/><path d="M73.53,80.59A33,33,0,1,0,32.41,58.53,33,33,0,0,0,73.53,80.59Z" style="fill:none;stroke:#161616;stroke-linecap:round;stroke-linejoin:round;stroke-width:2.00013px"/><path d="M46,56h3.64c1.41,3.46,1.55,5.94,4.89,7.69,2.11,1.11,2.47.71,3.52-1.44,2.53,2.13,4.39,2.07,5.09-1.27,2.55,1.27,4,1.74,5.09-1.27,2.41,1.27,5.59.69,5.59-1.27-1.68-5.72-4.32-10.08-6.47-15.12" style="fill:none;stroke:#161616;stroke-linecap:round;stroke-linejoin:round;stroke-width:2.00013px"/><line x1="58.05" y1="62.03" x2="54.73" y2="55.67" style="fill:none;stroke:#161616;stroke-linecap:round;stroke-linejoin:round;stroke-width:2.00013px"/><line x1="63.14" y1="60.76" x2="59.82" y2="53.84" style="fill:none;stroke:#161616;stroke-linecap:round;stroke-linejoin:round;stroke-width:2.00013px"/><line x1="68.23" y1="59.49" x2="64.91" y2="51.17" style="fill:none;stroke:#161616;stroke-linecap:round;stroke-linejoin:round;stroke-width:2.00013px"/><polyline points="81 56 77.19 56 74.46 57.63" style="fill:none;stroke:#161616;stroke-linecap:round;stroke-linejoin:round;stroke-width:2.00013px"/><path d="M40,40h3.22c.68,0,1.78.74,1.78,1.4l-.08,13.54A1.85,1.85,0,0,1,43.22,57H40" style="fill:none;stroke:#161616;stroke-linecap:round;stroke-linejoin:round;stroke-width:2.00013px"/><path d="M90,57H82.78c-.69,0-1.78-.5-1.78-1.22V39.41c0-.72,1.66-1.44,2.37-1.4h5" style="fill:none;stroke:#161616;stroke-linecap:round;stroke-linejoin:round;stroke-width:2.00013px"/><path d="M80,41H75.15c-1.49-1.92-2.94-5.3-5.5-5.2-.7,0-2.47,0-3,0-4.57,0-6.14,4.47-9.37,8.08l-.1,2.39,2.65,1.42,7.53-4.3" style="fill:none;stroke:#161616;stroke-linecap:round;stroke-linejoin:round;stroke-width:2.00013px"/><path d="M45,41h6.63c2.72-2.29,1.72-3,6-3H61" style="fill:none;stroke:#161616;stroke-linecap:round;stroke-linejoin:round;stroke-width:2.00013px"/><path d="M51.44,72.59A26.51,26.51,0,0,0,83.68,31.22" style="fill:none;stroke:#161616;stroke-linecap:round;stroke-linejoin:round;stroke-width:2.00013px"/><path d="M77.92,26.65a26.51,26.51,0,0,0-32.78,41" style="fill:none;stroke:#161616;stroke-linecap:round;stroke-linejoin:round;stroke-width:2.00013px"/><path d="M95.77,85a48,48,0,1,1,10.61-13.45" style="fill:none;stroke:#161616;stroke-miterlimit:22.925600000000003;stroke-width:2.00013px"/><rect width="128" height="98" style="fill:none"/></svg>