<svg id="Слой_1" data-name="Слой 1" xmlns="http://www.w3.org/2000/svg" width="128" height="98" viewBox="0 0 128 98"><title>ic_</title><rect width="128" height="98" style="fill:none"/><path d="M89.59,6h23.85A5.75,5.75,0,0,1,119,12V47a5.71,5.71,0,0,1-5.5,6H89.64A5.82,5.82,0,0,1,84,47V12a5.78,5.78,0,0,1,5.59-6Z" style="fill:none;stroke:#161616;stroke-linecap:round;stroke-linejoin:round;stroke-width:2.00013px"/><polyline points="97.47 18.27 93.38 22.94 89.88 20.02" style="fill:none;stroke:#161616;stroke-linecap:round;stroke-linejoin:round;stroke-width:2.00013px"/><polyline points="97.78 39.94 93.36 45 89.57 41.84" style="fill:none;stroke:#161616;stroke-linecap:round;stroke-linejoin:round;stroke-width:2.00013px"/><line x1="113" y1="32" x2="103" y2="32" style="fill:none;stroke:#161616;stroke-linecap:round;stroke-linejoin:round;stroke-width:2.00013px"/><line x1="113" y1="21" x2="103" y2="21" style="fill:none;stroke:#161616;stroke-linecap:round;stroke-linejoin:round;stroke-width:2.00013px"/><line x1="113" y1="43" x2="103" y2="43" style="fill:none;stroke:#161616;stroke-linecap:round;stroke-linejoin:round;stroke-width:2.00013px"/><path d="M73.05,84.32c7.33-1.35,10.24-2.65,0,0Z" style="fill:none;stroke:#161616;stroke-linecap:round;stroke-linejoin:round;stroke-width:2.00013px"/><polyline points="63.89 87 58.89 83 61.89 67.5 55.99 61.85" style="fill:none;stroke:#161616;stroke-linecap:round;stroke-linejoin:round;stroke-width:2.00013px"/><polyline points="63.89 87 68.89 83 65.89 67.5 72.31 61.85" style="fill:none;stroke:#161616;stroke-linecap:round;stroke-linejoin:round;stroke-width:2.00013px"/><polyline points="56.31 63 45.44 69 42.36 80.91 41.31 85" style="fill:none;stroke:#161616;stroke-linecap:round;stroke-linejoin:round;stroke-width:2.00013px"/><path d="M53.56,48.4c2.25,5.66,1.58,13.09,10.25,13.1,8.88,0,8.13-7.3,10.31-13.1,2.6-9.14-4.42-14.19-10.84-14.15-6,0-11.37,4.49-9.72,14.15Z" style="fill:none;stroke:#161616;stroke-linecap:round;stroke-linejoin:round;stroke-width:2.00013px"/><path d="M53.48,46.39c10.69,1.49,14.26-3.76,14.66-3.95,2.48,2.17,3.64,4.35,6.22,5" style="fill:none;stroke:#161616;stroke-linecap:round;stroke-linejoin:round;stroke-width:2.00013px"/><polyline points="70.79 63.19 81.32 69 84.4 80.91 85.45 85" style="fill:none;stroke:#161616;stroke-linecap:round;stroke-linejoin:round;stroke-width:2.00013px"/><path d="M36.09,9.6A48,48,0,0,1,80.72,4.2" style="fill:none;stroke:#161616;stroke-linecap:round;stroke-linejoin:round;stroke-width:2.00013px"/><path d="M112,53.8A48.13,48.13,0,0,1,16,49a37.59,37.59,0,0,1,.17-4.06" style="fill:none;stroke:#161616;stroke-linecap:round;stroke-linejoin:round;stroke-width:2.00013px"/><path d="M40.94,82.35a40.26,40.26,0,0,1-13.33-15.1" style="fill:none;stroke:#161616;stroke-linecap:round;stroke-linejoin:round;stroke-width:2.00013px"/><path d="M103.48,53.8A40.26,40.26,0,0,1,85,83.07" style="fill:none;stroke:#161616;stroke-linecap:round;stroke-linejoin:round;stroke-width:2.00013px"/><path d="M109,6V8a2,2,0,0,1-2,2H96a2,2,0,0,1-2-2V6" style="fill:none;stroke:#161616;stroke-linecap:round;stroke-linejoin:round;stroke-width:2.00013px"/><path d="M38,32V25h1c2.08,0,.78,1,3,1,2.59,0,2.94-1.45,3-2.92S44.75,20,42,20c-2.3,0-.82,1-3,1H38V13H32V12c0-2.08,1-.78,1-3C33,6.39,31.55,6,30.08,6S27,6.24,27,9c0,2.3,1,.82,1,3v1H21v7H20c-2.18,0-.7-1-3-1-2.75,0-3.07,1.56-3,3.08S14.4,25,17,25c2.22,0,.92-1,3-1h1v8" style="fill:none;stroke:#161616;stroke-linecap:round;stroke-linejoin:round;stroke-width:2.00013px;stroke-dasharray:4.000259876251221,4.000259876251221"/><path d="M38,51H33v1c0,2.18,1,.7,1,3,0,2.75-2.06,3.07-3.58,3s-2.92-.41-2.92-3c0-2.22,1.5-.92,1.5-3V51H21V44H20c-2.08,0-.78,1-3,1-2.59,0-2.94-1.45-3-2.92S14.25,39,17,39c2.3,0,.82,1,3,1h1V32h7v1c0,2.08-1,.78-1,3,0,2.59,1.45,2.95,2.92,3S33,38.75,33,36c0-2.3-1-.82-1-3V32h6m59.47-2.8-4.09,4.67L89.88,31M27,20V19l2-2h2l2,2v1l-1,1-2,2v1m0,3v1M74,13a5,5,0,1,1-5,5,5,5,0,0,1,5-5ZM63.5,23a3,3,0,1,1-3,3,3,3,0,0,1,3-3ZM38,51V44h1c2.08,0,.78,1,3,1,2.59,0,2.95-1.45,3-2.92S44.75,39,42,39c-2.3,0-.82,1-3,1H38V32" style="fill:none;stroke:#161616;stroke-linecap:round;stroke-linejoin:round;stroke-width:2.00013px"/></svg>