<svg id="Слой_1" data-name="Слой 1" xmlns="http://www.w3.org/2000/svg" width="128" height="98" viewBox="0 0 128 98"><title>ic_</title><rect width="128" height="98" style="fill:none"/><rect width="128" height="98" style="fill:none"/><rect x="56" y="61" width="29" height="12" style="fill:none;stroke:#161616;stroke-linecap:round;stroke-linejoin:round;stroke-width:2.00013px"/><line x1="76" y1="72" x2="76" y2="62" style="fill:none;stroke:#161616;stroke-linecap:round;stroke-linejoin:round;stroke-width:2.00013px"/><polyline points="38 77 38 41 88 41 88 77" style="fill:none;stroke:#161616;stroke-linecap:round;stroke-linejoin:round;stroke-width:2.00013px"/><line x1="62" y1="62" x2="62" y2="73" style="fill:none;stroke:#161616;stroke-linecap:round;stroke-linejoin:round;stroke-width:2.00013px"/><polyline points="85 56 85 45 43 45 43 57 88 57" style="fill:none;stroke:#161616;stroke-linecap:round;stroke-linejoin:round;stroke-width:2.00013px"/><line x1="43" y1="62" x2="43" y2="76" style="fill:none;stroke:#161616;stroke-linecap:round;stroke-linejoin:round;stroke-width:2.00013px"/><line x1="38" y1="61" x2="51" y2="61" style="fill:none;stroke:#161616;stroke-linecap:round;stroke-linejoin:round;stroke-width:2.00013px"/><line x1="67" y1="72" x2="67" y2="61" style="fill:none;stroke:#161616;stroke-linecap:round;stroke-linejoin:round;stroke-width:2.00013px"/><line x1="51" y1="77" x2="51" y2="57" style="fill:none;stroke:#161616;stroke-linecap:round;stroke-linejoin:round;stroke-width:2.00013px"/><line x1="64" y1="56" x2="64" y2="45" style="fill:none;stroke:#161616;stroke-linecap:round;stroke-linejoin:round;stroke-width:2.00013px"/><line x1="81" y1="56" x2="81" y2="45" style="fill:none;stroke:#161616;stroke-linecap:round;stroke-linejoin:round;stroke-width:2.00013px"/><line x1="75" y1="56" x2="75" y2="45" style="fill:none;stroke:#161616;stroke-linecap:round;stroke-linejoin:round;stroke-width:2.00013px"/><line x1="47" y1="56" x2="47" y2="45" style="fill:none;stroke:#161616;stroke-linecap:round;stroke-linejoin:round;stroke-width:2.00013px"/><line x1="34" y1="77" x2="94" y2="77" style="fill:none;stroke:#161616;stroke-linecap:round;stroke-linejoin:round;stroke-width:2.00013px"/><polyline points="107.07 60 113.58 53 106.03 45 112.54 38" style="fill:none;stroke:#161616;stroke-linecap:round;stroke-linejoin:round;stroke-width:2.00013px"/><path d="M76,21.31c.76-1.81,3.26-2.49,4.28-2.34,4.51.66,5.38,6.44,3.87,9.69-2.58,5.55-11.39,2.59-11.39,2.59-1.82,1.43-5.69,1.3-6.48-.39" style="fill:none;stroke:#161616;stroke-linecap:round;stroke-linejoin:round;stroke-width:2.00013px"/><path d="M77.73,28c-.68-2,.15-4,2.73-3.88" style="fill:none;stroke:#161616;stroke-linecap:round;stroke-linejoin:round;stroke-width:2.00013px"/><path d="M65.38,20.65c.88-1.53,4.77-1.28,4.68,2.51" style="fill:none;stroke:#161616;stroke-linecap:round;stroke-linejoin:round;stroke-width:2.00013px"/><path d="M56.78,26.86C55.69,23.6,58.09,23,60,23.25" style="fill:none;stroke:#161616;stroke-linecap:round;stroke-linejoin:round;stroke-width:2.00013px"/><path d="M79,18.6c.33-3.54-2.86-5.91-5.68-6.73a6.81,6.81,0,0,0-2.94-.14c-1.67.2-2.88,1-2.77,3.37" style="fill:none;stroke:#161616;stroke-linecap:round;stroke-linejoin:round;stroke-width:2.00013px"/><path d="M65.35,26.57c1.63,1.76,1,3.23.9,4.28S62.34,33.17,58.83,33c-3.31-.12-6.81-1.53-7.56-3.29-.39-.91.26-2.59,1.09-4" style="fill:none;stroke:#161616;stroke-linecap:round;stroke-linejoin:round;stroke-width:2.00013px"/><path d="M51.38,30.88c-9.6-.65-5.06-10-2.9-10.21.09-4.09,2.51-7.42,7.67-7.31" style="fill:none;stroke:#161616;stroke-linecap:round;stroke-linejoin:round;stroke-width:2.00013px"/><path d="M56.68,17.49c-.91-1.23-.61-2.69.11-4.12,1.66-3.27,9-3.75,11.59-1.41" style="fill:none;stroke:#161616;stroke-linecap:round;stroke-linejoin:round;stroke-width:2.00013px"/><path d="M109,65.73a48,48,0,1,1,.44-32.24" style="fill:none;stroke:#161616;stroke-linecap:round;stroke-linejoin:round;stroke-width:2.00013px"/><path d="M101.78,65A41,41,0,1,1,44.32,13" style="fill:none;stroke:#161616;stroke-linecap:round;stroke-linejoin:round;stroke-width:2.00013px"/><path d="M83,12.66A41.11,41.11,0,0,1,103.22,37" style="fill:none;stroke:#161616;stroke-linecap:round;stroke-linejoin:round;stroke-width:2.00013px"/></svg>