<svg id="Слой_1" data-name="Слой 1" xmlns="http://www.w3.org/2000/svg" width="128" height="98" viewBox="0 0 128 98"><title>ic_</title><path d="M78.1,3.1a48,48,0,0,1,28.42,68.19" style="fill:none;stroke:#161616;stroke-linecap:round;stroke-linejoin:round;stroke-width:2.00013px"/><path d="M98.22,82.66A48,48,0,1,1,61.66,1.06" style="fill:none;stroke:#161616;stroke-linecap:round;stroke-linejoin:round;stroke-width:2.00013px"/><rect width="128" height="98" style="fill:none"/><rect x="25.81" y="19.37" width="56.43" height="16.37" rx="5.21" ry="5.21" transform="translate(111.71 8.84) rotate(135)" style="fill:none;stroke:#161616;stroke-linecap:round;stroke-linejoin:round;stroke-width:2px"/><path d="M64,43.07,60,39,42.73,56.37a5.22,5.22,0,0,1-7.37,0l-.68-.68a5.22,5.22,0,0,1,0-7.37" style="fill:none;stroke:#161616;stroke-linecap:round;stroke-linejoin:round;stroke-width:2px"/><line x1="75" y1="54" x2="70" y2="49" style="fill:none;stroke:#161616;stroke-linecap:round;stroke-linejoin:round;stroke-width:2px"/><path d="M102.62,86.88,79.11,64.37S72.88,67,68.85,61.9l6.71-6.71.5-.5,6.58-6.58c5.84,5.79,2.12,10.61,2.12,10.61l2.12,2.12,21.38,20.38a3.05,3.05,0,0,1-.11,4.36l-1.86,1.86C105.27,88.46,103.65,87.9,102.62,86.88Z" style="fill:none;stroke:#161616;stroke-linecap:round;stroke-linejoin:round;stroke-width:2px"/><path d="M92.44,77.13A40,40,0,0,1,38.69,80L95,23.69a40,40,0,0,1,2.5,47.23" style="fill:none;stroke:#161616;stroke-linecap:round;stroke-linejoin:round;stroke-width:2.00013px;stroke-dasharray:4"/><path d="M60.88,9.12A40,40,0,0,0,33,74.31L89.31,18a39.92,39.92,0,0,0-13.61-7.29" style="fill:none;stroke:#161616;stroke-linecap:round;stroke-linejoin:round;stroke-width:2.00013px;stroke-dasharray:4"/><line x1="67.34" y1="9.12" x2="49.34" y2="26.92" style="fill:none;stroke:#161616;stroke-linecap:round;stroke-linejoin:round;stroke-width:2.00013px"/><line x1="84.77" y1="58.71" x2="82.47" y2="61.27" style="fill:none;stroke:#161616;stroke-linecap:round;stroke-linejoin:round;stroke-width:2.00013px"/></svg>