<svg id="Слой_1" data-name="Слой 1" xmlns="http://www.w3.org/2000/svg" width="128" height="98" viewBox="0 0 128 98"><title>ic_</title><rect width="128" height="98" style="fill:none"/><circle cx="64" cy="49" r="48" style="fill:none;stroke:#161616;stroke-linecap:round;stroke-linejoin:round;stroke-width:2.00013px"/><path d="M29.7,23.06a43.25,43.25,0,0,1,4.64-5.19" style="fill:none;stroke:#161616;stroke-linecap:round;stroke-linejoin:round;stroke-width:2.00013px"/><path d="M105.64,59.75A43,43,0,1,1,25.74,29.36q.56-1.09,1.18-2.15" style="fill:none;stroke:#161616;stroke-linecap:round;stroke-linejoin:round;stroke-width:2.00013px"/><path d="M80.34,9.22A43.16,43.16,0,0,1,103,30.87" style="fill:none;stroke:#161616;stroke-linecap:round;stroke-linejoin:round;stroke-width:2.00013px"/><path d="M55,73l-4.31,5.24a2.36,2.36,0,0,1-2.74.74l-4.36-1.75A2.21,2.21,0,0,1,42,75V65" style="fill:none;stroke:#161616;stroke-linecap:round;stroke-linejoin:round;stroke-width:2px"/><path d="M76,73l4.31,5.24A2.36,2.36,0,0,0,83,79l4.36-1.75A2.21,2.21,0,0,0,89,75V64" style="fill:none;stroke:#161616;stroke-linecap:round;stroke-linejoin:round;stroke-width:2px"/><path d="M75.77,22C87,25.92,95,35.68,95,47.11,95,62,81.52,74,64.89,74c-12.47,0-23.17-6.77-27.75-16.43l-.06-.12H34.52A5.54,5.54,0,0,1,29,51.92V42.3a5.54,5.54,0,0,1,5.52-5.53l2.63-.1,0,0c3.59-7.63,11-13.47,20.1-15.6" style="fill:none;stroke:#161616;stroke-linecap:round;stroke-linejoin:round;stroke-width:2px"/><path d="M34.56,48A29.06,29.06,0,0,1,37.11,36.7" style="fill:none;stroke:#161616;stroke-linecap:round;stroke-linejoin:round;stroke-width:2px"/><path d="M54.68,27.23a24.7,24.7,0,0,1,21.48.47" style="fill:none;stroke:#161616;stroke-linecap:round;stroke-linejoin:round;stroke-width:2px"/><path d="M44.33,27.5s1.19-6.42-3.77-8.9c1.65-.83,9.91-2.48,11.94,4" style="fill:none;stroke:#161616;stroke-linecap:round;stroke-linejoin:round;stroke-width:2px"/><path d="M62,56V38h5.5c2,0,6.5-.54,6.5,4.5S69.33,47,67.5,47H59" style="fill:none;stroke:#161616;stroke-linecap:round;stroke-linejoin:round;stroke-width:2.00013px"/><line x1="70" y1="52" x2="59" y2="52" style="fill:none;stroke:#161616;stroke-linecap:round;stroke-linejoin:round;stroke-width:2.00013px"/><path d="M58.78,24.63a9.34,9.34,0,1,1,14.82.62" style="fill:none;stroke:#161616;stroke-linecap:round;stroke-linejoin:round;stroke-width:2.00013px"/><path d="M61.26,21.41A5.83,5.83,0,0,1,61,19.67a5.5,5.5,0,1,1,11,0,5.8,5.8,0,0,1-.42,2.18" style="fill:none;stroke:#161616;stroke-linecap:round;stroke-linejoin:round;stroke-width:2.00013px"/><path d="M95,47s10-4,10,2.5a2.5,2.5,0,0,1-2.5,2.5c-5.69,0-3.3-11.64,1.5-13" style="fill:none;stroke:#161616;stroke-linecap:round;stroke-linejoin:round;stroke-width:2px"/></svg>