<svg id="Слой_1" data-name="Слой 1" xmlns="http://www.w3.org/2000/svg" width="144mm" height="77.22mm" viewBox="0 0 408.19 218.89">
  <defs>
    <style>
      .cls-1 {
        fill: #fff;
      }

      .cls-2 {
        fill: none;
      }
    </style>
  </defs>
  <title>VIRTINA каталог 02</title>
  <g>
    <path class="cls-1" d="M74.43,114.89v-1.37q0-21,0-42.06a1.56,1.56,0,0,1,1.23-1.74c1.75-.63,3.46-1.36,5.39-2.13V69c0,14.38,0,28.77,0,43.15,0,1.06-.28,1.49-1.35,1.64C78,114.08,76.29,114.5,74.43,114.89Zm6.21-46.71C79,68.86,77.52,69.51,76,70a1.52,1.52,0,0,0-1.21,1.74c0,13.74,0,27.49,0,41.23v1.4c1.62-.33,3-.68,4.48-.88,1-.15,1.35-.59,1.35-1.65q-.06-21.1,0-42.21Z"/>
    <path class="cls-1" d="M87.6,64.94v1.55q0,22.07,0,44.14c0,1.22-.32,1.73-1.54,1.87s-2.7.52-4.22.83v-1.26c0-14.55,0-29.1,0-43.65A1.47,1.47,0,0,1,83,66.76C84.49,66.24,85.94,65.61,87.6,64.94Zm-.45.64c-1.32.52-2.49,1-3.71,1.45a1.54,1.54,0,0,0-1.21,1.75q.06,21.35,0,42.68c0,.43,0,.85.07,1.37l4.82-1Z"/>
    <path class="cls-1" d="M296,68.07c2.45.46,4.84.89,7.22,1.37.2,0,.42.34.49.56a3,3,0,0,1,0,.85v44.84L296,115Zm.43.49v46.06l6.89.62v-44a2,2,0,0,0,0-.73c-.13-.28-.35-.66-.6-.72C300.67,69.34,298.6,69,296.45,68.56Z"/>
    <path class="cls-1" d="M324,117.49l-6.93-.61V72.08c2.12.4,4.23.78,6.33,1.23.24,0,.47.44.58.72a2.4,2.4,0,0,1,0,.85v42.61Zm-6.51-44.92V116.5l6,.52V73.72Z"/>
    <path class="cls-1" d="M314.84,71.64v45c-2.85-.24-5.63-.47-8.4-.74-.22,0-.47-.36-.57-.61a2.34,2.34,0,0,1,0-.84V71.3c0-.39,0-.79.06-1.35Zm-8.54-1.18v45l8.09.73V72Z"/>
    <path class="cls-1" d="M105.73,135.11l23.65-2.45v53.65l-23.65-2Zm16.79.37V183.6l3.1.27,3.25.27V134.8Zm-16.43,0v48.39l22.73,2c.27-1,0-1.23-.79-1.28-2-.13-4-.33-6-.51v-49l7-.8-.14-1.14Z"/>
    <path class="cls-1" d="M211.83,107.34l-13.41-1.2V49.74l4.39.81c2.76.5,5.51,1,8.27,1.49.63.1.9.31.9,1q0,27,0,53.91A2.05,2.05,0,0,1,211.83,107.34Zm-12.89-57V105.7l12.46,1.1V52.61Z"/>
    <path class="cls-1" d="M195.38,105.85l-12.14-1.09V46.9l12.14,2.24ZM183.71,47.49v56.82l11.27,1V51c0-.25.08-.53,0-.72s-.39-.76-.65-.81C190.81,48.77,187.29,48.15,183.71,47.49Z"/>
    <path class="cls-1" d="M226.37,108.67l-11.4-1V52.8l7.14,1.29c1.12.2,2.23.47,3.35.61.74.09,1,.39.92,1.1a5.9,5.9,0,0,0,0,.73v52.14Zm-10.94-55.3v53.82l10.36.93V55.27Z"/>
    <path class="cls-1" d="M287.75,148.12h10.56v40.34l-6.45-.34c-1.06-.05-2.11-.15-3.17-.15-.81,0-1-.32-1-1.09q0-18.91,0-37.82C287.69,148.82,287.72,148.59,287.75,148.12Zm.5.49v38.81l9.57.53V148.61Z"/>
    <path class="cls-1" d="M286.57,187.82l-6.3-.33V148.38h6.3Zm-.45-.51V148.88h-5.37V187Z"/>
    <path class="cls-1" d="M280,140.93l18.73-.86v6H280Zm.47,4.7h17.77v-5l-17.77.82Z"/>
    <path class="cls-1" d="M131.85,184.8V134l9-1V185.6Zm8.56.35V133.5l-8.13.88v50Z"/>
    <path class="cls-1" d="M114.55,135.82l6.93-.72V184c-2-.17-3.94-.36-5.84-.46-1-.05-1.25-.45-1.24-1.43.07-10.81.09-21.62.12-32.43l0-12.44Zm.47.44V183l6,.51V135.65Z"/>
    <path class="cls-1" d="M114.05,183.35c-2.22-.18-4.21-.33-6.18-.55-.27,0-.57-.42-.72-.71a2.18,2.18,0,0,1,0-.85q.09-21.57.19-43.15v-1.51l6.73-.7ZM107.77,137v45.3l5.82.51V136.42Z"/>
    <path class="cls-2" d="M72.91,191.5l30.53,4.29c9.58,1.34,19.15,2.7,28.73,4a41.54,41.54,0,0,0,7.25.73c7.55-.31,15.1-.86,22.65-1.31,8.8-.53,17.61-1,26.42-1.56l34.81-2.1c10.23-.61,20.46-1.19,30.69-1.8l35.79-2.14c3.92-.23,7.84-.49,11.76-.73-2.77-.29-5.53-.46-8.29-.6-8.24-.41-16.46-1-24.73-.58-18.52.94-37,1.65-55.57,2.46-1.12.05-2.24.13-3.44.2v3.77l-5.84-.37v-3.19l-7.36.35v3.92l-5.82-.37v-3.32l-7.79.35v4.07l-5.77-.37V194h-8.28v4.42l-6.14-.39v-3.59l-9.08-.83v5.61l-6.11-.36v-5.73c-.4-.08-.71-.17-1-.2l-14.08-1.3-22.58-2.09c-3.68-.34-7.37-.92-11-.92-10.37,0-20.74.27-31.11.41-3.24,0-6.48,0-9.73,0v.31l.45.08Z"/>
    <path class="cls-2" d="M137,200.92q-13.22-1.87-26.43-3.71-27.47-3.84-54.93-7.68c-1.06-.15-1.41-.42-1.4-1.53q.21-28.49.33-57v-1.31l83.22-13.07V103L60,119.33c0-.71,0-1.23,0-1.75q.21-27.27.41-54.54a1.91,1.91,0,0,1,1.26-2Q99.53,42.53,137.36,24a1.72,1.72,0,0,0,1.16-1.83c-.05-6.51,0-13,0-19.52,0-.38,0-.76-.07-1.26-.45.24-.78.4-1.09.58Q96.45,25.08,55.56,48.21a1.78,1.78,0,0,0-1,1.82Q54,114.74,53.43,179.47c0,5,0,9.93-.1,14.89,0,.69.06,1.08.91,1.22,9.45,1.59,18.9,3.23,28.35,4.85l38.91,6.7L137.86,210c0-2.88,0-5.68,0-8.47C137.82,201.28,137.28,201,137,200.92Z"/>
    <path class="cls-2" d="M153.55,131.64l4.93-.48v56.06l-5-.43V188l5.41.5V130c-1.66.16-3.26.28-4.86.5-.28,0-.49.53-.73.81Z"/>
    <path class="cls-2" d="M93.85,61c-.43.15-.81.27-1.18.43C86.53,64,80.39,66.57,74.24,69.09a1.55,1.55,0,0,0-1.13,1.69C73,78,72.89,85.22,72.77,92.45h0V64L60.91,62.16c-.15,19-.29,37.7-.44,56.46a4.71,4.71,0,0,0,.55,0l19.91-4.17c4-.85,8-1.69,12-2.57.33-.08.6-.45.89-.68l-.25-.3-5,1c0-.38-.07-.66-.07-.94q0-22.74,0-45.5a1.17,1.17,0,0,1,.94-1.29c1.26-.46,2.47-1,3.73-1.5C94,62.38,94.24,61.89,93.85,61Z"/>
    <path class="cls-2" d="M98.86,133.12l-44-3v58.63l44-.68Z"/>
    <path class="cls-2" d="M147.84,119.18v79.29l3.94.27V119.18Z"/>
    <path class="cls-2" d="M152.8,198.88V119.05C152.06,119.82,152,197.93,152.8,198.88Z"/>
    <path class="cls-2" d="M88.9,111.44a36.72,36.72,0,0,1,3.6-.74c1.12-.11,1.33-.63,1.34-1.66q0-22.49.17-45V62.77c-1.46.59-2.68,1.15-3.94,1.57a1.55,1.55,0,0,0-1.2,1.76Q88.93,88,88.9,110Z"/>
    <path class="cls-2" d="M153.48,188.44v4.7l9,.8V125.16l-9,1.12v3.84l5.76-.53v59.32Z"/>
    <path class="cls-2" d="M147.21,131.21l-16.39,1.69V186l16.51,1.45c0-.52-.07-.86-.1-1.23l-5.45-.54V133l5.55-.61C147.28,131.9,147.25,131.57,147.21,131.21Z"/>
    <path class="cls-2" d="M147.24,185.72V132.79l-5,.52v52Z"/>
    <path class="cls-2" d="M99.4,171.71q0,7.64-.07,15.25c0,.62-.1,1.18.85,1.26,5.42.46,10.85,1,16.27,1.47l22.45,2.09c2.77.26,5.55.5,8.33.75v-4.65l-16.85-1.48V132.54l16.87-1.76v-3.7l-47.77,6v1.63Q99.44,153.23,99.4,171.71Z"/>
    <path class="cls-2" d="M53.33,200.84c0,.29.55.73.91.8q9.6,2,19.21,3.89l59.46,11.89c1.61.32,3.22.61,4.89.93v-7.91L53.29,195.89C53.29,197.69,53.24,199.27,53.33,200.84Z"/>
    <path class="cls-2" d="M350.92,121.26h.26V104.61l-9.1-1.41-.06.34,8.9,1.48Z"/>
    <path class="cls-2" d="M344.64,104.51l-2.69-.44C342.05,105.08,342.05,105.08,344.64,104.51Z"/>
    <path class="cls-2" d="M350.21,121.37v-16c-2.65.33-5.18.63-7.7,1a1,1,0,0,0-.56.73c0,4.45,0,8.91,0,13.47Z"/>
    <path class="cls-2" d="M348,105.22c0-.13,0-.25,0-.38l-6,.56.06.58Z"/>
    <path class="cls-2" d="M94.92,111.51c12.52-2.63,25-5.21,37.54-7.93a28.53,28.53,0,0,1,10.73-.62c1.83.29,3.7.34,5.69.5V29.84c-.46.19-.87.35-1.27.53L98.23,52.7q-12,5.41-24,10.85c-.41.19-1,.65-1,1-.11,1.44-.05,2.89-.05,4.5l21.05-8.76v51.26A5.4,5.4,0,0,0,94.92,111.51Z"/>
    <path class="cls-2" d="M138.78.55l.08,0,0-.08Z"/>
    <path class="cls-2" d="M138.83.71Q240,25.61,341.12,50.45l0-.35L200.61,15.27,138.86.57Z"/>
    <path class="cls-2" d="M348.2,121.91a1.64,1.64,0,0,0,0-.23l-5.71-.55a2.28,2.28,0,0,0,0,.26Z"/>
    <path class="cls-2" d="M222.28,41.73q-41.46-8.82-82.9-17.65a2.68,2.68,0,0,0-1.62.22Q100.13,42.72,62.51,61.2c-.25.13-.48.3-.88.56,3.76.6,7.28,1.19,10.82,1.7a3.07,3.07,0,0,0,1.62-.3l74.59-33.71a2,2,0,0,1,1.12-.13q17,3.48,34,7l66.57,13.76q35.14,7.27,70.27,14.55c3.31.69,6.58,1.44,10,.15-4.23-.91-8.43-1.82-12.63-2.71Z"/>
    <path class="cls-2" d="M331.89,65.25l-6,.94V95.85c-.29-7.51-.3-15-.27-22.55,0-.94-.25-1.32-1.22-1.5C317.73,70.57,311,69.26,304.33,68l-9.06-1.7v50.25l37.32,3.32C332.36,101.58,332.12,83.46,331.89,65.25Z"/>
    <path class="cls-2" d="M294.73,116.48V65.75l30.84,5.87c0-1.47-.1-2.73,0-4s-.39-1.7-1.61-1.94c-10.83-2.18-21.64-4.43-32.46-6.67L223.65,45,158,31.42l-8.53-1.75v73.87l31.46,2.8V44l47.63,9.12v57.48Z"/>
    <path class="cls-2" d="M228,110.53v-57l-46.51-8.9v61.8Z"/>
    <path class="cls-2" d="M299.94,139.13l-20.86,1V189l20.86,1.15Z"/>
    <path class="cls-2" d="M268.91,126.24l-22.26-1.56-26.4-1.86q-11.19-.78-22.38-1.56l-26.52-1.86c-7.55-.53-15.08-1.14-22.63-1.57-5-.29-10-1.07-15.05-.19-11.08,1.93-22.22,3.55-33.34,5.29l-35,5.51-7.94,1.26a5.33,5.33,0,0,0,.52.17q17.9,1.22,35.78,2.42a42.11,42.11,0,0,0,6.44.22c4.05-.34,8.07-1,12.1-1.48l28.3-3.58,6.82-.89v-7.77h6.12v7l9.12-1.15V120h6.14v5l8.27.4v-4.62h5.78v4.91l7.79.37v-4.44h5.81v4.73l7.39.36v-3.86h5.78V127c.52,0,.92.11,1.32.13l26.93,1.3q14.13.69,28.26,1.38c3.94.19,7.89.58,11.82.46,6-.19,12.09-.74,18.13-1.14,1.85-.12,3.7-.28,5.55-.42-2-.34-4.07-.47-6.1-.61Z"/>
    <path class="cls-2" d="M138.29,214.52v3.89l204-17.93v-4.63l-204,14.64Z"/>
    <path class="cls-2" d="M274.16,130.68l-64.54-3.13v64.29L274.16,189Z"/>
    <path class="cls-2" d="M274.8,130.71v58.15h2v-58Z"/>
    <path class="cls-2" d="M305.27,129l-27.83,1.83v58.09h1.09V139.68l22-1.06v51.57l4.79.27Z"/>
    <path class="cls-2" d="M138.93,1.25V23.41c.38.11.73.23,1.08.3l61.58,13.11,68.15,14.5q30.69,6.54,61.37,13.05c1,.21,1.27.6,1.28,1.59q.3,26.54.66,53.07c0,.4,0,.8,0,1.36L138.35,103v13.63L305.76,128.4v62.67L138.39,201v9l204-14.65q-.76-72.33-1.52-144.46Z"/>
    <path class="cls-2" d="M342.9,195.94l11.93-.89v-4.17l-11.93.75Z"/>
    <path class="cls-2" d="M354.26,123l-12-1.14v16.2l5.46.35c.17,14.45.33,28.77.5,43.13l-5.35.36v9.23l12-.76C354.65,167.86,354.46,145.47,354.26,123Z"/>
    <path class="cls-2" d="M346.12,139.69l-3.86-.3c.15,13.68.29,27.19.44,40.78l3.79-.31C346.37,166.42,346.24,153.08,346.12,139.69Z"/>
    <path class="cls-2" d="M347.23,138.85l-4.74-.23,0,.25,4.13.39c.13,13.71.26,27.35.38,41.08l-1.69.11c-.49,0-1,.06-1.46.14a8.74,8.74,0,0,0-1.13.36c0,.15.09.3.14.45l4.89-.31C347.56,167,347.4,153,347.23,138.85Z"/>
    <path class="cls-2" d="M195.43,196.51c.63-1.36.53-73.76,0-74.4Z"/>
    <path class="cls-2" d="M177,126l-8.23-.41v67.8c2.3,0,4.53-.05,6.76,0,1.15,0,1.5-.33,1.5-1.51q-.06-32.25,0-64.51Z"/>
    <path class="cls-2" d="M181.83,197.28c.63-1.48.5-75.42,0-76Z"/>
    <path class="cls-2" d="M177.42,121.28v75.56l3.75.22v-76Z"/>
    <path class="cls-2" d="M167.63,197.83c.76-1,.68-76.76,0-77.55Z"/>
    <path class="cls-2" d="M163,120.41v77.24l4,.27V120.41Z"/>
    <path class="cls-2" d="M204.2,123.3v72.11l3.79.21V123.3Z"/>
    <path class="cls-2" d="M196.41,126.91v65.5l7.21-.32V127.24Z"/>
    <path class="cls-2" d="M208.6,195.78c.64-1.35.54-71.8,0-72.45Z"/>
    <path class="cls-2" d="M182.79,126.23v66.55h7.65V126.59Z"/>
    <path class="cls-2" d="M153.49,132.16v54.12l4.51.41v-55Z"/>
    <path class="cls-2" d="M191,122.06v74.05l3.79.22V122.06Z"/>
    <path class="cls-1" d="M354.74,121.85l-3-.38V120.1c0-4.92,0-9.84,0-14.76,0-.85-.2-1.21-1.11-1.33-2.57-.34-5.13-.83-7.71-1.16-.9-.12-1.11-.46-1.12-1.31,0-3.58-.45-48.49-.49-49.29,0-.19-.21-1.8-.22-1.8h0L138.83.71,54.09,48.41c0,.1,0,.21,0,.32q-.62,76-1.27,152c0,.36,0,.71.05,1.1l1.25.28,27.36,5.47q28,5.61,56,11.19a4.46,4.46,0,0,0,1.21.07q15.8-1.4,31.58-2.79c10.65-.94,21.31-1.84,32-2.78L239.65,210c11.58-1,23.16-2,34.74-3,10.65-.94,21.3-1.92,31.95-2.85s21.29-1.84,31.94-2.77c1.52-.13,3-.31,4.61-.47v-4.42l12.5-1Q355.06,158.59,354.74,121.85ZM342.08,103.2l9.1,1.41v16.64h-.26V105l-8.9-1.48Zm2.56,1.31c-2.59.57-2.59.57-2.69-.44Zm3.33.33c0,.13,0,.25,0,.38l-6,.76-.06-.58Zm-6,2.26a1,1,0,0,1,.56-.73c2.52-.36,5.05-.66,7.7-1v16l-8.29-.8C341.92,116,341.91,111.55,342,107.1Zm6.27,14.58a1.64,1.64,0,0,1,0,.23l-5.71-.52a2.28,2.28,0,0,1,0-.26ZM181,44v62.35l-31.46-2.8V29.67L158,31.42,223.65,45,291.52,59c10.82,2.24,21.63,4.49,32.46,6.67,1.22.24,1.74.65,1.61,1.94s0,2.51,0,4l-30.84-5.87v50.73l-66.14-5.89V53.11Zm47,9.5v57l-46.51-4.14V44.59Zm67.26,12.79,9.06,1.7c6.7,1.28,13.4,2.59,20.11,3.82,1,.18,1.23.56,1.22,1.5,0,7.52,0,15,.27,22.55V66.19l6-.94c.23,18.21.47,36.33.7,54.6l-37.32-3.32Zm25.35-1.64q-35.13-7.32-70.27-14.55L183.78,36.33q-17-3.51-34-7a2,2,0,0,0-1.12.13L74.07,63.16a3.07,3.07,0,0,1-1.62.3c-3.54-.51-7.06-1.1-10.82-1.7.4-.26.63-.43.88-.56q37.62-18.47,75.25-36.9a2.68,2.68,0,0,1,1.62-.22q41.46,8.81,82.9,17.65L318,62.08c4.2.89,8.4,1.8,12.63,2.71C327.2,66.08,323.93,65.33,320.62,64.64ZM73.24,69.07c0-1.61-.06-3.06.05-4.5,0-.37.57-.83,1-1q12-5.44,24-10.85l49.38-22.33c.4-.18.81-.34,1.27-.53v73.62c-2-.16-3.86-.21-5.69-.5a28.53,28.53,0,0,0-10.73.62c-12.5,2.72-25,5.3-37.54,7.93a5.4,5.4,0,0,1-.63.06V60.31Zm15.63-3a1.55,1.55,0,0,1,1.2-1.76c1.26-.42,2.48-1,3.94-1.57v1.29q-.09,22.48-.17,45c0,1-.22,1.55-1.34,1.66a36.72,36.72,0,0,0-3.6.74V110Q88.9,88,88.87,66.1Zm4.26-3.41c-1.26.46-2.47,1-3.73,1.5a1.17,1.17,0,0,0-.94,1.29q0,22.76,0,45.5c0,.28,0,.56.07.94l5-1,.25.3c-.29.23-.56.6-.89.68-4,.88-8,1.72-12,2.57L61,118.62a4.71,4.71,0,0,1-.55,0c.15-18.76.29-37.51.44-56.46L72.75,64V92.45h0c.12-7.23.26-14.45.34-21.67a1.55,1.55,0,0,1,1.13-1.69c6.15-2.52,12.29-5.11,18.43-7.67.37-.16.75-.28,1.18-.43C94.24,61.89,94,62.38,93.13,62.69ZM137.8,218.35c-1.67-.32-3.28-.61-4.89-.93L73.45,205.53q-9.61-1.92-19.21-3.89c-.36-.07-.89-.51-.91-.8-.09-1.57,0-3.15,0-5l84.51,14.55Zm.06-8.4-16.36-2.82-38.91-6.7c-9.45-1.62-18.9-3.26-28.35-4.85-.85-.14-.92-.53-.91-1.22.05-5,.06-9.93.1-14.89Q54,114.74,54.55,50a1.78,1.78,0,0,1,1-1.82Q96.47,25.09,137.33,1.93c.31-.18.64-.34,1.09-.58,0,.5.07.88.07,1.26,0,6.51,0,13,0,19.52A1.72,1.72,0,0,1,137.36,24Q99.5,42.49,61.65,61a1.91,1.91,0,0,0-1.26,2q-.16,27.27-.41,54.54c0,.52,0,1,0,1.75L137.75,103v13.62L54.53,129.71V131q-.15,28.48-.33,57c0,1.11.34,1.38,1.4,1.53q27.48,3.79,54.93,7.68,13.22,1.86,26.43,3.71c.32.05.86.36.86.56C137.88,204.27,137.86,207.07,137.86,210Zm-80.12-20.9c3.25,0,6.49,0,9.73,0,10.37-.14,20.74-.4,31.11-.41,3.68,0,7.37.58,11,.92l22.58,2.09,14.08,1.3c.32,0,.63.12,1,.2v5.73l6.11.36v-5.61l9.08.83V198l6.14.39V194h8.28v3.2l5.77.37v-4.07l7.79-.35v3.32l5.82.37v-3.92l7.36-.35v3.19l5.84.37v-3.77c1.2-.07,2.32-.15,3.44-.2,18.53-.81,37.05-1.52,55.57-2.46,8.27-.43,16.49.17,24.73.58,2.76.14,5.52.31,8.29.6-3.92.24-7.84.5-11.76.73L254,193.76c-10.23.61-20.46,1.19-30.69,1.8l-34.81,2.1c-8.81.53-17.62,1-26.42,1.56-7.55.45-15.1,1-22.65,1.31a41.54,41.54,0,0,1-7.25-.73c-9.58-1.31-19.15-2.67-28.73-4L72.91,191.5l-14.73-2.06-.45-.08Zm-2.92-.28V130.14l44,3v55Zm44.66-55.65,47.77-6v3.7l-16.87,1.76V186.4l16.85,1.48v4.65c-2.78-.25-5.56-.49-8.33-.75l-22.45-2.09c-5.42-.5-10.85-1-16.27-1.47-1-.08-.85-.64-.85-1.26q0-7.62.07-15.25,0-18.48.08-37Zm42.3-.17V185.7l5.45.54c0,.37.06.71.1,1.23L130.82,186V132.9l16.39-1.69c0,.36.07.69.12,1.13Zm5.46-.16v52.93l-5-.45v-52Zm.6,65.68V119.18h3.94v79.56Zm5-79.42v79.83C152,197.93,152.06,119.82,152.8,119.05Zm.68,11.07v-3.84l9-1.12v68.78l-9-.8v-4.7l5.76.47V129.59Zm.56.41c1.6-.22,3.2-.34,4.86-.5v58.46l-5.41-.5v-1.2l5,.43V131.16l-4.93.48-.24-.3C153.55,131.06,153.76,130.57,154,130.53Zm-.55,55.75V132.16l4.51-.46v55ZM163,197.65V120.41h4v77.51Zm4.61.18V120.28C168.31,121.07,168.39,196.82,167.63,197.83Zm9.36-6c0,1.18-.35,1.55-1.5,1.51-2.23-.07-4.46,0-6.76,0v-67.8L177,126v1.39Q177,159.6,177,191.85Zm.43,5V121.28l3.75-.18v76Zm4.41.44v-76C182.33,121.86,182.46,195.8,181.83,197.28Zm1-4.5V126.23l7.65.36v66.19Zm8.24,3.33V122.06h3.79v74.27Zm4.4.4v-74.4C196,122.75,196.06,195.15,195.43,196.51Zm1-4.1v-65.5l7.21.33v64.85Zm7.79,3V123.3H208v72.32Zm4.4.37V123.33C209.14,124,209.24,194.43,208.6,195.78Zm1-3.94V127.55l64.54,3.13V189Zm65.18-3V130.71l2,.14v58Zm4.28.16V140.15l20.86-1v51Zm21.4,1.17V138.62l-22,1.06v49.23h-1.09V130.82L305.27,129v61.47ZM296,129.13c-6,.4-12.08,1-18.13,1.14-3.93.12-7.88-.27-11.82-.46q-14.13-.67-28.26-1.38l-26.93-1.3c-.4,0-.8-.08-1.32-.13v-4.11h-5.78v3.86l-7.39-.36v-4.73h-5.81v4.44l-7.79-.37v-4.91H177v4.62l-8.27-.4v-5h-6.14v4.6l-9.12,1.15v-7h-6.12v7.77l-6.82.89L112.2,131c-4,.51-8,1.14-12.1,1.48a42.11,42.11,0,0,1-6.44-.22q-17.89-1.18-35.78-2.42a5.33,5.33,0,0,1-.52-.17l7.94-1.26,35-5.51c11.12-1.74,22.26-3.36,33.34-5.29,5.08-.88,10-.1,15.05.19,7.55.43,15.08,1,22.63,1.57l26.52,1.86q11.19.8,22.38,1.56l26.4,1.86,22.26,1.56,26.52,1.86c2,.14,4.05.27,6.1.61C299.68,128.85,297.83,129,296,129.13Zm46.31,71.35-204,17.93v-7.92l204-14.64ZM138.39,210v-9l167.37-10V128.4L138.35,116.67V103l194.7,17.35c0-.56,0-1,0-1.36q-.35-26.53-.66-53.07c0-1-.26-1.38-1.28-1.59q-30.69-6.48-61.37-13.05l-68.15-14.5L140,23.71c-.35-.07-.7-.19-1.08-.3V1.25L340.85,50.89q.75,72.21,1.52,144.46Zm203.87-70.61,3.86.3c.12,13.39.25,26.73.37,40.17l-3.79.31C342.55,166.58,342.41,153.07,342.26,139.39ZM342.7,181a8.74,8.74,0,0,1,1.13-.36c.48-.08,1-.1,1.46-.14l1.69-.11c-.12-13.73-.25-27.37-.38-41.08l-4.13-.39,0-.25,4.74.23c.17,14.1.33,28.11.5,42.24l-4.89.31C342.79,181.25,342.74,181.1,342.7,181Zm.17,10.19v-9.23l5.35-.36c-.17-14.36-.33-28.68-.5-43.13l-5.46-.35v-16.2l12,1.14c.2,22.46.39,44.85.59,67.37Zm12,3.91-11.93.89v-4.31l11.93-.75Z"/>
    <path class="cls-1" d="M138.88.49l.64-.36L139,0C139,.16,138.93.33,138.88.49Z"/>
  </g>
</svg>
