<svg xmlns="http://www.w3.org/2000/svg" width="16" height="16" viewBox="0 0 16 16">
    <path fill="#00C277" fill-rule="evenodd" d="M13.127.984c.483 0 .898.174 1.244.52.346.346.52.761.52 1.244v10.254c0 .483-.174.898-.52 1.244-.346.346-.761.52-1.244.52H2.873c-.483 0-.898-.174-1.244-.52a1.697 1.697 0 0 1-.52-1.244V2.748c0-.483.174-.898.52-1.244.346-.346.761-.52 1.244-.52h10.254zm-2.174 2.16v1.258c0 .137.053.258.157.363a.498.498 0 0 0 .363.157h1.257a.49.49 0 0 0 .37-.157c.1-.105.15-.226.15-.363V3.145a.502.502 0 0 0-.15-.37.502.502 0 0 0-.37-.15h-1.257a.509.509 0 0 0-.363.15.49.49 0 0 0-.157.37zM8 4.923c-.41 0-.793.077-1.148.232-.356.155-.67.365-.944.63a2.97 2.97 0 0 0-.861 2.091c0 .401.077.782.232 1.142a2.945 2.945 0 0 0 1.572 1.572c.356.15.739.225 1.149.225a2.917 2.917 0 0 0 2.092-.86 2.97 2.97 0 0 0 .861-2.079c0-.41-.077-.795-.232-1.155a2.97 2.97 0 0 0-.63-.937 3.164 3.164 0 0 0-.943-.629A2.842 2.842 0 0 0 8 4.922zm5.592 7.984V6.891h-1.436c.037.155.066.314.09.478a4.179 4.179 0 0 1-.3 2.16 4.286 4.286 0 0 1-2.278 2.277A4.179 4.179 0 0 1 8 12.14a4.145 4.145 0 0 1-1.654-.335A4.286 4.286 0 0 1 4.07 9.53a4.179 4.179 0 0 1-.336-1.669 4.454 4.454 0 0 1 .11-.97H2.422v6.015c0 .146.055.274.164.383.11.11.237.164.383.164h10.076a.525.525 0 0 0 .383-.164.525.525 0 0 0 .164-.383z"/>
</svg>
