<svg xmlns="http://www.w3.org/2000/svg" width="16" height="16" viewBox="0 0 16 16">
    <path fill="#00C277" fill-rule="evenodd" d="M15.477 5.062s-.11-.312-.79-.226l-2.25.016a.512.512 0 0 0-.296.046s-.133.07-.196.243c-.367.945-.836 1.757-.836 1.757-1 1.704-1.406 1.797-1.57 1.688-.383-.242-.281-.984-.281-1.516 0-1.656.25-2.343-.492-2.523-.243-.055-.422-.094-1.055-.102-.805-.008-1.484 0-1.867.188-.258.125-.453.406-.336.422.148.023.484.093.664.336 0 0 .195.32.226 1.023.086 1.945-.312 2.188-.312 2.188-.305.164-.836-.11-1.617-1.72 0 0-.453-.796-.805-1.671-.062-.164-.187-.25-.187-.25s-.141-.11-.344-.14l-2.14.015c-.329 0-.446.148-.446.148s-.117.125-.008.383c1.672 3.93 3.578 5.899 3.578 5.899s1.742 1.82 3.719 1.695h.898c.274-.024.414-.172.414-.172s.125-.14.118-.398c-.016-1.204.547-1.383.547-1.383.546-.172 1.25 1.164 2 1.68 0 0 .57.39 1 .304l2-.031c1.054-.008.554-.883.554-.883-.039-.07-.289-.61-1.492-1.726-1.25-1.165-1.086-.977.43-2.993.922-1.226 1.289-1.976 1.172-2.297z"/>
</svg>
