<svg id="Слой_1" data-name="Слой 1" xmlns="http://www.w3.org/2000/svg" width="144mm" height="77.22mm" viewBox="0 0 408.19 218.89">
  <defs>
    <style>
      .cls-1 {
        fill: #fff;
      }
    </style>
  </defs>
  <title>VIRTINA каталог 02</title>
  <g>
    <path class="cls-1" d="M347,202.87V190l-68.51,10.14v4.21c-1.5.27-3,.54-4.43.78-10.76,1.79-21.52,3.6-32.3,5.33a17.83,17.83,0,0,1-3.86-.06q-21.18-1.31-42.35-2.64c-10.79-.67-21.59-1.31-32.39-2l-35.53-2.22c-7-.44-14-1-21-1.24a78.9,78.9,0,0,0-9.31.66c-5.13.43-10.24,1-15.38,1.29a79.42,79.42,0,0,1-8.7-.42l-20-1.19L26.13,201l-7.65-.46a4.24,4.24,0,0,1-.49-.1v-3.64l-3.79-.21-.12-2.35L.63,193.44V106.3L1.92,106V59.46l-.86-.13A3.19,3.19,0,0,1,1,58.91c0-4.13,0-8.26,0-12.4,0-.86.23-1.2,1.08-1.39q15.27-3.55,30.52-7.18c8.82-2.07,17.63-4.17,26.45-6.21a5.12,5.12,0,0,1,2.43.05q31.31,8.76,62.6,17.56a3.84,3.84,0,0,0,1.65.1q19.56-3.48,39.13-7L200.58,36,234,30l32.2-5.76L295,19.1l26.2-4.7,25.46-4.57c2.74-.5,5.49-1,8.24-1.47a1.44,1.44,0,0,1,1,.33q25.44,22.86,50.86,45.71a2.17,2.17,0,0,1,.78,1.8q0,67.08,0,134.15c0,1-.29,1.3-1.21,1.5q-25.23,5.64-50.45,11.32a7,7,0,0,1-1.77.08C351.79,203.14,349.46,203,347,202.87Zm8.17-102.42V8.72L125.32,49.92V63.11l-24.66,4.08,0,.22L318.14,32.48V79c0,3.81,0,7.63,0,11.45,0,1-.31,1.26-1.24,1.27-1.11,0-2.23.16-3.35.26l-23.11,2-8.87.79A4.07,4.07,0,0,1,282,96c0,2.59,0,5.18,0,7.77v2.08Zm-294.31-.4c-.12,27.87-.24,55.55-.36,83.34L95.13,182V133.25l24.4,1.91V181l5.14-.25v-1.42c0-9.21.08-18.42.14-27.62q.12-20.75.28-41.49c0-.85-.14-1.24-1.1-1.33-2.19-.22-4.36-.6-6.55-.9l-24.62-3.47L68.09,101ZM278.55,192.7l11.54-1.26c7.93-.88,15.86-1.78,23.79-2.62,1-.1,1.18-.43,1.18-1.34q-.07-36-.08-72c0-.86-.24-1.21-1.08-1.4-7.42-1.74-14.83-3.53-22.24-5.3l-10-2.4c0-3.33,0-6.58,0-9.83,0-.79-.26-1.07-1-1.26-8-2.13-15.92-4.3-23.89-6.45-.35-.09-.71-.14-1.07-.22v98.66l22.85.58ZM259.42,43.82V89.09l1.22.33V42.11l-51.3,8.25V79.18H209V50.49c-.43,0-.71,0-1,.06l-9.42,1.52q-15.39,2.48-30.77,5L137.09,62l-30.87,5-27.46,4.4c-.53.08-.7.29-.69.81,0,1.54,0,3.08,0,4.62v3.11l1.8.31c0-2.54.05-5,0-7.42,0-1,.33-1.28,1.26-1.42Q94.59,69.2,108.06,67L116,65.75V87.24l7.09,1.4v19.8h4.14V93.8l-2.38.14V88c1.88,0,3.72.09,5.54,0,2-.13,4.09-.44,6.13-.69l10.59-1.32q7.23-.9,14.44-1.78c5-.61,10.07-1.17,15.09-1.81,2-.25,3.93-.69,5.9-.94,1.42-.18,2.86-.17,4.28-.31,2-.19,4-.4,5.93-.66,2.87-.37,5.73-.85,8.61-1.15a20.19,20.19,0,0,1,5.59-.14c3.4.62,6.71,1.65,10.06,2.5l3,.77V50.73c-2.42.4-4.76.86-7.11,1.15-1.07.13-1.24.56-1.24,1.53,0,8.47,0,17,0,25.42,0,.36-.06.73-.09,1.09l-.26,0V51.77ZM60.15,183.34c.12-27.82.23-55.5.35-83.3L1.05,106.57v81.15l13.08.65V185ZM207.55,186l47.61,1.21V88.46l-9,.75v6.47l-38.48-9.79c-.28.7,0,1,.56,1.1s1.36.35,2,.53q7.36,1.91,14.72,3.84c.35.09.93.38.94.59.08,1.87,0,3.74,0,5.71l-18.33-4.35V119l30.12-1.9v62.61L207.55,179Zm173.32-76.19v-1.19q0-38,0-75.93a2.19,2.19,0,0,0-.83-1.78Q368.33,20.39,356.62,9.85c-.24-.22-.51-.41-.94-.75v1q0,44.69,0,89.38a1.19,1.19,0,0,0,1,1.32c3.32,1.19,6.61,2.45,9.92,3.68ZM261.12,89.52c.15,0,.28.11.41.14l17.7,4.79a3.62,3.62,0,0,0,1.14,0q4.29-.33,8.58-.71l5-.48V36.77L261.12,42ZM94.89,193.93c24.39,1.82,48.69,2.63,73,3.9s48.63,2.45,73.06,3.67v-9.2L14.5,185.5c0,1.34.07,2.49,0,3.64s.3,1.28,1.29,1.31c7.2.24,14.41.55,21.62.82.86,0,1.73,0,2.7,0v-2.19a1.76,1.76,0,0,1,.4-.11c5.42-.14,10.85-.54,16.27-.37,11.09.35,22.17,1,33.25,1.5,1.6.08,3.2,0,4.88,0Zm220.58-79.49v74.18l15.09-1.68V150.3q0-15.6,0-31.19c0-.84-.26-1.16-1-1.33-2.05-.45-4.08-1-6.12-1.45ZM21.93,185.17v.11c.26,0,.52.08.78.09l37.69,1.11,30.87.92,39.05,1.18,30.87.92,39,1.18q16,.49,32,1a85,85,0,0,0,9.44.11c6.59-.55,13.15-1.4,19.72-2.14l11.77-1.32v-.23l-65.72-1.68v4h-3.75v-4.11l-16.81-.44v3.72h-3.73v-3.82l-16-.4v3.27h-3.8v-3.33l-1.29-.14v-4.7L148.62,180v8.18H144.9V180l-13.92.68v6.87h-3.76v-6.45Zm219,16.71-140.46-7v3.59h5.49v3.34l135,8.34ZM392.66,42.27c0,.45,0,.69,0,.92q0,35.07,0,70.14a1.06,1.06,0,0,0,.85,1.18c3.58,1.29,7.14,2.64,10.71,4l3,1.09V77.24q0-10.5,0-21a1.9,1.9,0,0,0-.41-1.3C402.11,50.75,397.47,46.59,392.66,42.27ZM144.88,112l-13.79-2v70.33l13.79-.68Zm31.2,66.31V121l7-.47v-21L173,97.48v5l-5.73-1v83.44l15.86.4v-7Zm-27.33-66.57v67.8L162,180V110.43ZM60.46,47.15l64.48,15.54c0-.48,0-.82,0-1.17,0-3.46,0-6.93,0-10.39,0-.94-.34-1.23-1.16-1.46Q96.29,42,68.8,34.22l-8.34-2.34Zm223.14,59v.23l63.47,15.19V102c3.73.13,7.4-1.15,11.14.27v19.59l11.11-.56V109l7-.32c-.43-.21-.6-.31-.79-.38q-9.72-3.63-19.46-7.24a3.29,3.29,0,0,0-1.33-.14L337,102.2l-21.15,1.56-24.5,1.82ZM1.45,59c.38-.06.62-.09.86-.14l25.27-5.14q15.68-3.19,31.35-6.36c.84-.17,1.12-.48,1.1-1.36-.06-2.8,0-5.6,0-8.4V31.88L1.45,45.7ZM331,118.16V186.9l16-1.77v-10.5l-5.29.32V131.86l5.3.7V122Zm50.3-86.1c0,.4-.05.57-.05.74q0,38.17,0,76.35a1,1,0,0,0,.79,1.12c3.16,1.14,6.29,2.33,9.44,3.49a6.5,6.5,0,0,0,.73.18v-1.33q0-34.54,0-69.1A3.28,3.28,0,0,0,391,40.74C387.79,38,384.65,35.06,381.32,32.06Zm13,156.6V187.1q0-34.92,0-69.86c0-.72,0-1.35-1.1-1.29v72.93l-14.87,2.94v-1.53q0-39.81,0-79.63c0-1.12-.38-1.52-1.5-1.46v82.91l-19.13,3.83V102.5L355.5,102V202.87l51.63-11.62V121.39c0-.14.05-.3,0-.42-.16-.33-.35-.64-.54-1l-.3.14v66.13ZM355,202.89V101.94l-7.45.49V202.51ZM235.32,176.3V120l-12.85.8V176.3Zm-15-.18V120.89l-12.74.81v54.42ZM123.59,63l0-.22L65.83,48.85c0,.51.07.91.07,1.31V70.43c0,1.83.12,1.94,1.95,1.76l.31,0,15.62-2.58,32.7-5.39ZM11.32,83.62a1.64,1.64,0,0,0,.32,0l43.25-6.43c.6-.08.74-.34.73-.89,0-1.61,0-3.22,0-4.83,0-.7-.22-.93-.91-1.07q-18-3.62-36.06-7.3l-7.33-1.48Zm181.29,39v53.28h11.07V122ZM11.33,61.25l44.28,9V68.93c0-6.44,0-12.88,0-19.32,0-.75.14-1.13,1-1.21,1.2-.12,2.37-.43,3.56-.66l-.06-.27L5.6,58.56v.17l5.65.91Zm358.45,48V191.1l6.61.51V109.26ZM386.06,188V120.85l-7.23.36V189.3Zm6.73.41V116h-6.2v72ZM236.3,48c0,.26-.05.43-.05.6q0,18.6,0,37.18c0,.6.17.87.76,1,2.51.62,5,1.32,7.52,1.91a8.82,8.82,0,0,0,2,0V46.35ZM259,89.11V44.29c-2.71.46-5.36,1-8,1.31-1,.13-1.24.43-1.24,1.42q0,20.15,0,40.31V88.5C252.87,88.33,255.91,87.55,259,89.11Zm-72,11.28v19.94l16.71-1.07V98.61L189,95.25v5.47ZM364.43,122v1.49q0,31.39,0,62.8c0,.84-.14,1.23-1.09,1.32-1.73.16-3.44.5-5.13.76v4.78l11-2V121.7Zm-85.87,77.75L347,189.59v-4.06l-68.39,7.58Zm79.65-15.85c1.6-.17,3.12-.42,4.65-.48,1,0,1.19-.39,1.19-1.32q0-29.46,0-58.93V122l-5.82.31Zm42.24-63.74v64.95l5.34.62V120.12ZM317.67,91.25V33l-23.26,3.74v56.6ZM232.9,48.59c-3,.5-5.84,1-8.72,1.43-1,.14-1.2.52-1.2,1.46,0,10,0,20,0,29.93,0,2.24-.35,1.67,1.71,2.24,2.7.73,5.41,1.39,8.18,2.1Zm167,136.59v-65l-5.16.26v65.91ZM31.19,90,9.85,86.83V105.2l21.34-2.35ZM241.37,201.49c.57-.06,1.06-.1,1.54-.16q9.1-1.22,18.21-2.43c5.41-.72,10.82-1.42,16.23-2.15.27,0,.72-.33.72-.51.05-2.65,0-5.3,0-8.09l-36.73,4.1ZM207.05,86.25l-2.82-.14V190h2.82ZM186.47,189.17V88.93l-2.84-.15V189.17ZM163.88,90.5v97.71h2.82V90.5Zm-18.49,2.16v95.12h2.83V92.66Zm96,117.47,1.4-.2,21-3.5c4.52-.76,9-1.51,13.55-2.3.28,0,.74-.38.74-.59.06-2.12,0-4.25,0-6.48l-36.74,4.86ZM130.55,187.22V94.33h-2.81v92.89Zm-69.81-139V99.51l4.76.67V50.4a1.82,1.82,0,0,0,0-.62.82.82,0,0,0-.4-.5C63.67,48.9,62.25,48.56,60.74,48.18Zm145.55,37,39.36,10V89.45L206.29,79.3ZM179,123.51v52.18h4.09V123.23ZM32.84,82.62c0,1.87,0,3.62,0,5.36,0,.72.26.93,1,1,5.43.79,10.85,1.63,16.28,2.45l5.5.79v-13Zm23.23-33.7V100a26.68,26.68,0,0,1,3-.3c1,0,1.27-.36,1.27-1.35q0-24.52,0-49.06V48.14ZM104.15,68v16.9l11.28,2.2V66.22Zm11.29,39.27V88.82l-11.39-2.08v16.33c0,2.6,0,2.6,2.62,3a2.84,2.84,0,0,0,.31.06Zm121.85,72V117.55l-29.71,1.88v1.86l28.13-1.75v57.3l-28.13-.33v2.11ZM81.26,201l-62.81-4.09v3.29l62.81,3.68ZM80.33,82.39v20l9.43,1.32c0-6.43,0-12.72,0-19,0-.24-.47-.63-.78-.7-1.5-.33-3-.58-4.53-.86ZM70,100.91l7.7,1.09V81.88L67.58,80V94l2.38.44ZM190.4,175.82V122.76L187,123v52.82Zm-24.08-91.3c0,1.4,0,2.79,0,4.19,0,.71.16,1,.92,1.18,3.38.71,6.75,1.51,10.12,2.29l5.82,1.33V88.36l3.77.21v5.81l16.74,3.82V92.37c-3.59-.86-7.12-1.72-10.66-2.54-3.84-.89-7.61-2.22-11.65-1.59a.52.52,0,0,1-.4-.07c-.82-.89-1.89-.76-2.9-.66-2.2.2-4.38.5-6.57.75-.75.08-1.51.14-2.27.21l0-.32,8.11-1A25.7,25.7,0,0,0,169,85.57C168.9,84.94,168.21,84.66,166.32,84.52ZM81.9,196.12,29.54,193v3.3L81.9,199.7ZM119,181v-45.5l-23.41-1.83V182Zm12.11-86.74v13.79l13.77-1.19V97.14Zm-125-35v46.33l1.68-.25v-21l3.08-.51V60ZM5.54,105.6V59.21l-3.1.36V106Zm121.64,75.11v-71.3l-1.73-.21c-.13,23.89-.27,47.68-.4,71.51Zm51.37-4.52v-53l4.54-.34V121l-6.6.43v56.52h6.61v-1.72Zm25.15,2.73L187,178.51v6.93l16.73.44ZM101.61,105.37c.08-.16.11-.19.11-.23q0-9.12,0-18.23a.92.92,0,0,0-.57-.67c-1.7-.36-3.41-.66-5.19-1v19.32Zm284.5,10.32c2.4-.1,4.66-.24,6.93-.26,1.32,0,1.67.43,1.67,1.74V120l10.66-.38,0-.22-26.6-9.88V120.8l7.3-.36ZM55.61,100.18c0-2,0-3.93,0-5.81a1,1,0,0,0-.68-.74c-1.69-.32-3.38-.55-5.08-.8l-7.49-1.11v9.92Zm65.9,8v-4.89c0-4.12,0-8.25,0-12.38,0-.34-.22-.94-.44-1-1.65-.37-3.34-.64-5.13-1v4.61c0,4.3,0,8.61,0,12.91,0,.33.24.92.45,1C118,107.71,119.69,107.9,121.51,108.15Zm-81,83.75,42.06,2.73c0-.71,0-1.27,0-1.82s-.27-.83-.86-.86c-5.11-.27-10.21-.57-15.31-.85l-23.79-1.34-2.11-.15ZM197.58,84.8c-2.93-.75-5.68-2.23-8.81-1.8l.92-.44-3.6-.91c0,1.83,0,3.55,0,5.26,0,.71.25.93.92,1.09,3.78.86,7.54,1.78,11.31,2.68L203.74,92c0-1.83,0-3.5,0-5.18,0-.2-.13-.55-.26-.59-1.65-.39-3.33-1.08-5-1-3,.1-5.9.65-8.85,1a5.09,5.09,0,0,1-.78,0v-.26Zm28,12.37c0-1.57,0-3,0-4.42,0-.66-.23-.9-.84-1.06-3.79-1-7.57-2-11.35-2.94l-5.8-1.51v5.65Zm21.51-50.89V88.75l2.2-.24V45.9ZM235.79,86.4V48.14l-2.44.4V83.81C233.35,86.09,233.35,86.09,235.79,86.4ZM89.64,82.11V70.54c-.12,0-.18-.08-.24-.07-2.87.43-5.74.86-8.6,1.35a.91.91,0,0,0-.51.71q-.06,3.57,0,7.14a.88.88,0,0,0,.45.67C83.66,81,86.61,81.52,89.64,82.11ZM41,101.78V91.51l-8-1.19v12.35Zm107.76,4.76,13.34-1.16V100.6l-13.34-2.79ZM8.18,84.57v20.74l1.22-.2V85.76L12,85.37Q33.33,82.16,54.64,79c1-.15,1.1-.57.83-1.43ZM183.1,93.9l-15.86-3.62v5.61l15.86,3.26ZM14.52,190.76c0,1.58,0,3,0,4.43,0,.86.22,1.17,1.1,1.15,4.2-.05,8.4-.06,12.61-.09a7.39,7.39,0,0,0,.91-.11v-3.52l10.64-.7v-.18ZM344,172.85V133.72l-1.87-.21V173ZM158.67,89.33l0-.15c-.21-.07-.41-.16-.63-.21l-4.92-1.06c-1.54-.33-3.16-.19-4.63-1a7,7,0,0,0-1.87-.4v5.16l16.7,3.65V90.06l-1.51.09c-.2,0-.55,0-.59-.05-.38-.9-1.13-.52-1.71-.46-1.95.19-3.89.47-5.83.71-1.1.13-2.21.24-3.31.36l0-.33Zm-36.47,19,.39-.11V89L66,77.89v1.39c.3.08.53.16.77.21q26.93,5,53.86,9.87c1,.18,1.32.45,1.31,1.5-.07,5.43,0,10.86,0,16.28A4.84,4.84,0,0,0,122.2,108.3ZM129,93.42l15.9,3.3V92.11c-.68,0-1.3.12-1.91.14a2.57,2.57,0,0,1-.77-.15c-.29-.08-.57-.33-.84-.3-1.46.13-2.92.33-4.38.49-1.2.13-2.41.23-3.62.34l0-.33,8.73-1,0-.36c-3-.38-5.89-1.76-9.21-1.19l.44-.66L129,88.2Zm216.3,40.48v38.93l1.72-.19V134.1ZM162.89,100.65l-.36.22v78.35c0,1.61,0,3.22,0,4.84,0,.59.08,1,.88.58V102c0-.18.06-.38,0-.52A7.27,7.27,0,0,0,162.89,100.65ZM77.7,79.77V71L67.63,72.63v5.18Zm12.45-9.48v11.9l1.85.35V76.09l10-.76v9.2l1.59.28V68.12Zm73.19,30.17V95.73l-14.62-3.19V97.4ZM222,176.21V120.8l-1.11.12v55.29ZM81.76,203.92l23.68-2.06V199l-23.68,2ZM101.57,84.44V75.75l-9.15.71v6.19Zm121-34c-2.09.11-2.09.11-2.09,2q0,14.22,0,28.43c0,1.84,0,1.84,1.83,2.14a1,1,0,0,0,.25,0ZM191,122.78v53h1.13V122.67ZM1,193.08l13,.79v-5.11l-13-.64Zm81.38,6.61,17.46-1.33v-3.81l-17.46,1.56Zm66.31-88.32L162.07,110v-4.25l-13.35,1.16Zm-136-25.72v.19l18.32,2.75v-5.7Zm77.9,105c-15.73-.29-31.43-2.4-47.22-1.26q5.7.38,11.41.7c6.84.4,13.7.73,20.54,1.2A54,54,0,0,0,90.65,190.61Zm-8.31,4.83-.12-.42-2-.15-17.71-1.14c-7.12-.46-14.24-1-21.36-1.35-2.13-.12-4.28.14-6.42.22a.86.86,0,0,0,.67.34l11.63.69,19.38,1.18q7.38.45,14.77.88A4.11,4.11,0,0,0,82.34,195.44Zm48.72-85.85,13.79,2v-4.35l-13.79,1.2Zm-51.22-7.42V82.3L78.06,82v18.68C78.06,102.24,78.07,102.25,79.84,102.17Zm12.09,1.69V84.53l-1.87-.36v18.12C90.06,103.92,90.1,104,91.93,103.86Zm.48-19.27v19.48l1.84.23V85Zm94.53,93.52,16.75.41v-2.13H186.94ZM94.48,190.82c-3.72.39-7.33.75-10.93,1.16a.83.83,0,0,0-.54.58,19.7,19.7,0,0,0,0,2.06l11.5-.81Zm9.19-85.29V86.67l-1.62-.27v17.71C102.05,105.57,102.09,105.61,103.67,105.53ZM81.84,200.1l-4-.27-24.3-1.6c-7-.46-14-1-21-1.37-2.73-.15-5.48,0-8.47,0C31.11,197.76,80.87,200.71,81.84,200.1ZM203.7,119.66,187,120.72v1.87l16.71-1Zm-18-38.12-4.33.46v5.69h4.33ZM374.88,192.11v-.26a38.48,38.48,0,0,0-6.15-.23c-3.15.35-6.25,1.15-9.39,1.65-1.05.16-1.36.6-1.2,1.55a6.19,6.19,0,0,1,.06.62ZM172.53,97.39l-5.36-1.11c0,1.52,0,2.88,0,4.25,0,.19.16.54.29.56,1.66.34,3.33.63,5.06.94Zm33.24-12.31V79.2c-1.26.12-2.45.21-3.63.36-.24,0-.63.3-.64.48-.05,1.69,0,3.4,0,5Zm-44.21,4.68,4.29-.23V84.26l-4.29.34ZM180.78,82,166.6,83.74l0,.37a26.61,26.61,0,0,0,4.62.8,46.42,46.42,0,0,0,5.73-.61c1.3-.15,2.6-.32,3.87-.48Zm6.56-.81v.33c1.77.35,3.43,1.19,5.34.89,1.14-.19,2.29-.27,3.43-.41l4.91-.6V79.57ZM364,183.64l-5.75.63v3.64l5.75-.86ZM147.73,86c4.46,2,8.87.24,13.29.1V84.43Zm-5.13.85v5l3.5-.24V86.39ZM66,79.73V93.81l1.16.17V80Zm62.52,8.32-3.28.49v5l3.28-.22ZM32.32,82.77c-1-.06-.81.57-.81,1.06q.07,9,.16,18c0,.31,0,.61.06.9.9.2.81-.37.8-.86q-.06-9.08-.14-18.17C32.38,83.39,32.34,83.12,32.32,82.77Zm62.76,21.79.37-.16s0-.06,0-.09c0-6.19,0-12.38,0-18.57,0-.25-.35-.51-.54-.76l-.28.16v7.22c0,3.71,0,7.42,0,11.12A3.88,3.88,0,0,0,95.08,104.56ZM378.8,189.73v1.6l12.13-2.41C386.79,187.86,382.86,189,378.8,189.73ZM55.53,93.27l.09-.56c-7.55-1.2-15.11-2.3-22.67-3.42l-.1.58Q44.19,91.63,55.53,93.27ZM131.47,88c3.54,1.65,7.06.66,10.59.33V86.74Zm40.89-2.81-.07.26c2.84.29,5.48,1.8,8.48,1.3V84.25ZM201,81.84l-8,.94c6,1.82,6.23,2.17,8,1.45ZM9.85,86.43l21.42,3.22C30.77,88.78,11.42,85.79,9.85,86.43Zm384.9,101.74,10.06-2c-3.6-1.21-6.8-.18-10.06.6ZM153.59,87.35l0,.25L161,89.16V86.51ZM187,94.91V100l1.59.21c0-1.35,0-2.56,0-3.78C188.54,95,188.54,95,187,94.91Zm157.58,77.72.15,0V134h-.15ZM100.62,199l0-.31-18.48,1.4,0,.47Zm-4.09-4.58v-.33l-13.16.9c-.25,0-.48.29-.72.44l.12.23ZM66,94.26l-.19.25c.15.13.28.33.44.37a8.93,8.93,0,0,0,1.45.23c.7.06,1,.31,1,1.11-.07,1.28,0,2.58,0,3.87,0,.6.22.83.88.53,0-1.75,0-3.49,0-5.23a.93.93,0,0,0-.55-.68C68,94.5,67,94.4,66,94.26Zm1.11,6.27v-5L66,95.26v5Zm-.06-22.85V72.61L66,72.53v4.92ZM41.53,101.61h.23v-9.9h-.23ZM342.2,173.42l-.3.28c.21.27.43.78.64.78,1.48,0,2.95-.17,4.51-.28l-.08-1.12ZM137.3,89.29l0,.28,4.75,1V88.78Zm204.85,43.12L342,133a46.07,46.07,0,0,0,5,.7C346.87,132.92,344.78,132.41,342.15,132.41ZM67.88,95.47l-.34.16c0,1.5,0,3,0,4.48,0,.19.33.37.51.55a23.56,23.56,0,0,0,.22-4.45C68.29,96,68,95.71,67.88,95.47Z"/>
    <path class="cls-1" d="M265.86,117.87l23.94,4.4v55.16l-23.94,1.65Zm23.55,59.19V122.6l-23.14-4.26v60.32Z"/>
    <path class="cls-1" d="M48.87,177.36l-39-1.23V127.49l39-2.73Zm-8.15-49.78V174.8H48V127.11Zm-9.44.58v46.35h7V127.76Zm-9.65.65v45.35h6.8v-45.8Zm-9.23.57v44.54h6.79V129Zm-2.09-1.53v47.9L48.5,177v-1.49L12,174.26V129l36.59-2.38-.07-1.41Zm20.46.35-1.79.1v46.07h1.79Zm9.42,46.49V127.6l-1.34.07v47ZM19.73,128.91V174H21.1v-45.2Z"/>
    <path class="cls-1" d="M296.45,91.22V39.35l18.78-3V89.64Zm18.39-1.93V36.79l-18,2.88V90.79Z"/>
    <path class="cls-1" d="M96.67,141.31,118,142.66v37l-21.28,1Zm10.83,38.44,10-.51V143l-10-.63c0,.24-.07.38-.07.51,0,5.36,0,10.71,0,16.07,0,.35.34.7.53,1.05l.27-.09c0,.74,0,1.47,0,2.2a1.39,1.39,0,0,1-.27.58c-.17.31-.52.61-.52.91,0,2.31,0,4.62,0,6.93Zm-10.46.5,8.69-.42c.08-.2.13-.26.13-.33q0-8,0-16.06c0-.22-.14-.61-.23-.62-.84,0-.65-.65-.66-1.14s0-1.18,0-1.77l.36.09c.18-.41.52-.81.52-1.22,0-5.18,0-10.36,0-15.54,0-.3,0-.6-.08-1L97,141.73Zm10-37.83c-1-.24-.76.46-.76.91q0,17.73,0,35.47c0,.18-.06.4,0,.52a5.83,5.83,0,0,0,.75.66Z"/>
    <path class="cls-1" d="M118,136.41v4.87L96.67,140v-5.26Zm-.41.36-20.53-1.62v4.47l20.53,1.24Z"/>
    <path class="cls-1" d="M102.86,68.67c0,1.24,0,2.39,0,3.53,0,.2-.36.51-.58.54-3.67.45-7.35.87-11.23,1.32,0-1.13,0-2.22,0-3.31,0-.14.33-.36.52-.39C95.29,69.79,99,69.24,102.86,68.67Zm-11.3,4.94,10.83-1.28v-3.2l-8.67,1.32c-2.54.38-2.54.38-2.3,2.92C91.42,73.4,91.46,73.43,91.56,73.61Z"/>
    <path class="cls-1" d="M266.85,119.83l9.65,1.76c3.3.61,6.6,1.25,9.9,1.83.62.11.9.29.9,1q0,25.28,0,50.53c0,.17,0,.34-.07.65l-20.37,1.27Zm13.74,55.76V122.77L274,121.54V176Zm-13.37.84,5-.33V121.21l-5-.91Zm19.62-1.23V123.92l-4.68-.85V175.5Zm-13.87-54-.26.23V176c1.11.15.78-.63.78-1.1q0-26.14,0-52.31a1.65,1.65,0,0,0,0-.63A4.52,4.52,0,0,0,273,121.23Zm8.14,54.27.35.08a5.44,5.44,0,0,0,.23-1.12q0-25.19,0-50.39a2.22,2.22,0,0,0,0-.73c-.07-.19-.29-.33-.59-.67Z"/>
  </g>
</svg>
