<svg id="Layer_1" data-name="Layer 1" xmlns="http://www.w3.org/2000/svg" width="50" height="17.22" viewBox="0 0 50 17.22"><defs><style>.cls-1{fill:#fff;}</style></defs><title>arrow</title><path class="cls-1" d="M328.73,668.07h16.63l-5.72,5.72a1.06,1.06,0,0,0,0,1.51,1.08,1.08,0,0,0,1.51,0l7.54-7.55h0a1,1,0,0,0,.13-.16l.05-.08a.31.31,0,0,1,.05-.1l0-.11,0-.09a1.49,1.49,0,0,0,0-.21h0a1.49,1.49,0,0,0,0-.21l0-.09,0-.11-.06-.1a.2.2,0,0,0,0-.08.7.7,0,0,0-.13-.16l-7.54-7.55a1.08,1.08,0,0,0-1.51,0,1.06,1.06,0,0,0,0,1.51l5.72,5.72H328.73a1.07,1.07,0,0,0,0,2.14Z" transform="translate(-299 -658.39)"/><path class="cls-1" d="M319.27,665.93H302.64l5.72-5.72a1.06,1.06,0,0,0,0-1.51,1.08,1.08,0,0,0-1.51,0l-7.54,7.55h0a1,1,0,0,0-.13.16l-.05.08a.31.31,0,0,1-.05.1l0,.11,0,.09a1.49,1.49,0,0,0,0,.21h0a1.49,1.49,0,0,0,0,.21l0,.09,0,.11.06.1a.2.2,0,0,0,0,.08,1,1,0,0,0,.13.16l7.54,7.55a1.08,1.08,0,0,0,1.51,0,1.06,1.06,0,0,0,0-1.51l-5.72-5.72h16.63a1.07,1.07,0,0,0,0-2.14Z" transform="translate(-299 -658.39)"/></svg>