<?xml version="1.0" encoding="UTF-8"?>
<svg width="124px" height="23px" viewBox="0 0 124 23" version="1.1" xmlns="http://www.w3.org/2000/svg" xmlns:xlink="http://www.w3.org/1999/xlink">
    <!-- Generator: Sketch 47 (45396) - http://www.bohemiancoding.com/sketch -->
    <title>logo / dark_без подписи </title>
    <desc>Created with Sketch.</desc>
    <defs></defs>
    <g id="Symbols" stroke="none" stroke-width="1" fill="none" fill-rule="evenodd">
        <g id="logo-/-dark_без-подписи-" fill-rule="nonzero" fill="#161616">
            <g id="Ресурс-1">
                <polygon id="Shape" points="10.2691511 22.8154865 0 0.71884058 2.65971014 0.71884058 10.7980124 18.5281159 18.6847205 0.71884058 20.5383023 0.71884058"></polygon>
                <polygon id="Shape" points="113.546004 0 123.815155 22.0940787 121.150311 22.0940787 113.012008 4.2873706 105.1253 22.0940787 103.27942 22.0940787"></polygon>
                <polygon id="Shape" points="61.3581781 2.05383023 61.3581781 22.0786749 58.9474948 22.0786749 58.9474948 2.05383023 52.7500621 2.17962733 52.7500621 0.71884058 67.5530435 0.71884058 67.5530435 2.18989648"></polygon>
                <polygon id="Shape" points="72.7261284 22.0940787 72.7261284 0.71884058 75.167619 0.71884058 75.167619 22.0940787"></polygon>
                <polygon id="Shape" points="24.5869151 22.0940787 24.5869151 0.71884058 27.0284058 0.71884058 27.0284058 22.0940787"></polygon>
                <polygon id="Shape" points="84.0761077 5.28861284 84.3328364 22.0940787 82.7359834 22.0940787 82.7359834 0 97.8829814 17.5576812 97.6262526 0.721407867 99.2231056 0.721407867 99.2231056 22.8154865"></polygon>
                <path d="M42.1728364,12.926294 C46.1161905,12.926294 49.1507246,10.3281988 49.1507246,7.02153209 C49.1507246,3.53772257 46.0699793,0.813830228 41.8005797,0.734244306 L41.8005797,2.07950311 C44.3293582,2.23097308 46.5834369,3.80215321 46.5834369,7.00869565 C46.5834369,10.3898137 44.0803313,11.9532919 41.3872464,11.9532919 L38.1678675,11.9532919 L47.4306418,22.0940787 L50.652588,22.0940787 L42.1728364,12.926294 Z" id="Shape"></path>
                <polygon id="Shape" points="39.7390476 0.71884058 34.6609524 0.71884058 34.6609524 22.0940787 37.0716356 22.0940787 37.0716356 2.06666667 39.7390476 2.06666667"></polygon>
            </g>
        </g>
    </g>
</svg>