<?xml version="1.0" encoding="UTF-8"?>
<svg width="19px" height="18px" viewBox="0 0 19 18" version="1.1" xmlns="http://www.w3.org/2000/svg" xmlns:xlink="http://www.w3.org/1999/xlink">
    <!-- Generator: Sketch 47 (45396) - http://www.bohemiancoding.com/sketch -->
    <title>icon / телефон / dark</title>
    <desc>Created with Sketch.</desc>
    <defs></defs>
    <g id="Symbols" stroke="none" stroke-width="1" fill="none" fill-rule="evenodd">
        <g id="icon-/-телефон-/-dark" fill="#161616">
            <g id="Group-3">
                <path d="M18.2904039,14.0607774 C18.3853263,14.1398793 18.4565169,14.2348002 18.5039781,14.345543 C18.5514393,14.4562857 18.5751695,14.5749369 18.5751695,14.7015 C18.5909899,14.8438835 18.5712147,14.9823099 18.5158434,15.1167832 C18.460472,15.2512565 18.3853263,15.3738627 18.2904039,15.4846055 L16.7479234,17.0508164 C16.5897195,17.2248407 16.3089118,17.3988624 15.9054918,17.5728867 C15.5020718,17.746911 14.9839618,17.841832 14.3511461,17.8576524 C14.3195053,17.8734727 14.28391,17.8813828 14.244359,17.8813828 L14.1375719,17.8813828 C13.6471397,17.8813828 13.0894793,17.8141472 12.4645738,17.6796738 C11.8396684,17.5452005 11.1396265,17.2960331 10.3644273,16.9321641 C9.60504854,16.5682951 8.77449044,16.0699602 7.87272812,15.4371445 C6.9709658,14.8043289 5.99802631,13.9895909 4.95388047,12.9929063 C3.13453543,11.2526632 1.88474324,9.69437798 1.2044664,8.31800391 C0.524189565,6.94162985 0.136595785,5.78675858 0.0416734353,4.85335548 C-0.0532489143,3.90413198 0.0139867414,3.18035992 0.24338242,2.68201759 C0.472778098,2.18367525 0.595384294,1.92659774 0.611204685,1.91077735 L0.919700779,1.55482032 L2.05876328,0.320835946 C2.24860798,0.115170855 2.47009014,0.00838481392 2.7232164,0.000474618123 C2.97634267,-0.00743557768 3.20573491,0.0835303095 3.4114,0.273375009 C3.45886117,0.305015792 4.0362968,0.862676231 5.14372422,1.94637306 L6.80485703,3.57191016 C6.82067742,3.57191016 6.8285875,3.5758652 6.8285875,3.5837754 L6.8285875,3.59564063 C6.95515063,3.70638337 7.11730721,3.88831515 7.31506211,4.14144141 C7.512817,4.39456768 7.51677204,4.6635103 7.32692734,4.94827735 C7.31110695,4.94827735 7.29924183,4.95618743 7.29133164,4.97200782 C7.28342144,4.98782821 7.27155633,5.00364837 7.25573594,5.01946876 L5.99802109,6.25345313 L5.59460312,6.5856797 C5.43639921,6.759704 5.41662401,6.98909624 5.53527695,7.27386329 C5.65392989,7.55863034 5.92682755,7.9541342 6.35397812,8.46038673 C6.79694909,8.96663926 7.28341883,9.4728842 7.81340195,9.97913673 C8.34338507,10.4853893 8.89313543,10.9520838 9.46266953,11.3792344 C10.2536891,11.9804093 10.8113495,12.3561379 11.1356676,12.5064316 C11.4599856,12.6567254 11.709153,12.6448603 11.8831773,12.4708359 L13.3781969,10.8808945 C13.5680416,10.6752294 13.8053439,10.5684434 14.0901109,10.5605332 C14.374878,10.552623 14.6200904,10.6435889 14.8257555,10.8334336 L14.8257555,10.8571641 L18.2904039,14.0607774 Z M1.75026719,1.6497422 C1.9084711,1.80794611 2.17741372,2.06897866 2.55710312,2.43284766 C2.93679252,2.79671667 3.33229638,3.18431045 3.74362656,3.59564063 C4.17077713,4.00697082 4.57023603,4.3945646 4.94201523,4.7584336 C5.31379443,5.12230261 5.5866921,5.38333516 5.7607164,5.54153907 L6.78112656,4.56858985 C6.78112656,4.55276946 6.76530641,4.50926404 6.73366562,4.43807227 C6.70202484,4.36688051 6.58337368,4.24427432 6.37770859,4.07025001 C6.3618882,4.07025001 6.35002308,4.06629497 6.34211289,4.05838477 C6.33420269,4.05047458 6.33024765,4.03860946 6.33024765,4.02278907 C5.6816116,3.4057938 5.15163643,2.89559382 4.74030625,2.49217384 C4.32897607,2.08875385 3.99675283,1.76048565 3.74362656,1.50735938 C3.49050029,1.27005351 3.30856852,1.09603181 3.19782578,0.985289071 L2.96052109,0.747984384 C2.92888031,0.716343601 2.89724,0.692613369 2.86559922,0.676792977 C2.83395843,0.660972586 2.79440805,0.653062509 2.74694687,0.653062509 C2.71530609,0.653062509 2.68366578,0.660972586 2.652025,0.676792977 C2.62038421,0.692613369 2.58083383,0.724253678 2.53337265,0.771714852 L1.75026719,1.6497422 Z M14.3274156,17.1931992 C14.8969497,17.1773788 15.339914,17.0982781 15.6563219,16.9558945 C15.9727297,16.813511 16.1704816,16.6948599 16.2495836,16.5999375 L16.2970445,16.5524766 C15.9489959,16.2202483 15.3082797,15.6032623 14.3748766,14.7015 C13.4414735,13.7997377 12.7928471,13.1827517 12.4289781,12.8505234 L12.3577867,12.9217149 C11.9464565,13.3646858 11.4639418,13.4398316 10.9102281,13.1471543 C10.3565144,12.8544771 9.7395284,12.439198 9.05925156,11.9013047 C8.47389707,11.4583337 7.90437152,10.9797741 7.35065781,10.4656113 C6.7969441,9.95144861 6.29860924,9.42542848 5.85563828,8.88753516 C5.57087123,8.57112733 5.2702883,8.14398317 4.95388047,7.60608985 C4.63747263,7.06819654 4.69284317,6.56986168 5.11999375,6.11107032 L5.26237656,5.99241798 C4.59792011,5.34378192 4.0323496,4.79403156 3.56564804,4.3431504 C3.09894649,3.89226924 2.70739767,3.51654057 2.39098984,3.21595313 C2.0904024,2.91536569 1.85310009,2.68201842 1.67907578,2.51590431 C1.50505147,2.34979019 1.37849024,2.227184 1.29938828,2.14808204 L1.10954453,2.33792579 C0.935520221,2.57523166 0.793138833,2.98260064 0.682396092,3.56004493 C0.57165335,4.13748922 0.634933967,4.86126128 0.872239842,5.73138282 C1.09372532,6.60150436 1.5525098,7.60608416 2.24860703,8.74515235 C2.94470426,9.88422055 4.0046546,11.1419228 5.42848984,12.5182969 C6.50427647,13.5624427 7.50885627,14.3969559 8.44225937,15.0218613 C9.37566248,15.6467668 10.2141307,16.1253265 10.9576891,16.4575547 C11.7012475,16.7739625 12.3577839,16.9796245 12.927318,17.0745469 C13.4968521,17.1694692 13.9635466,17.2090196 14.3274156,17.1931992 Z M17.8157945,15.0099961 C17.8474353,14.9783553 17.8711655,14.9388049 17.8869859,14.8913438 C17.9028063,14.8438826 17.9107164,14.788512 17.9107164,14.7252305 C17.9107164,14.6935897 17.9028063,14.6619494 17.8869859,14.6303086 C17.8711655,14.5986678 17.8553454,14.5749376 17.839525,14.5591172 L14.3748766,11.3317734 L14.3630113,11.3317734 C14.3551011,11.3317734 14.3511461,11.3238634 14.3511461,11.308043 C14.2878645,11.2605818 14.2087638,11.2368516 14.1138414,11.2368516 C14.0189191,11.2368516 13.9398183,11.2684919 13.8765367,11.3317734 L12.9035875,12.3521836 C12.9826895,12.4312856 13.1092507,12.5538918 13.283275,12.7200059 C13.4572993,12.88612 13.6946016,13.1194673 13.9951891,13.4200547 C14.2957765,13.7048217 14.6715052,14.0647303 15.1223863,14.499791 C15.5732675,14.9348518 16.1230178,15.4608719 16.7716539,16.0778672 L17.8157945,15.0099961 Z" id="icon720---Tonicons"></path>
            </g>
        </g>
    </g>
</svg>