<svg id="Layer_1" data-name="Layer 1" xmlns="http://www.w3.org/2000/svg" viewBox="0 0 631.92 666.36"><defs><style>.cls-1{fill:#665cac;}.cls-2{fill:none;stroke:#665cac;stroke-linecap:round;stroke-linejoin:round;stroke-width:16.86px;}</style></defs><title>Untitled-1</title><path class="cls-1" d="M614.7,401.7c-16.6-15.2-83.5-63.8-232.5-64.5,0,0-175.8-10.6-261.5,68C73,452.9,56.2,522.7,54.5,609.3S50.4,858,206.8,902h.1l-.1,67.1s-1,27.2,16.9,32.7c21.6,6.7,34.3-13.9,55-36.2,11.3-12.2,27-30.2,38.8-43.9,106.9,9,189.2-11.6,198.5-14.6,21.6-7,143.8-22.7,163.6-184.8C700.1,555.2,669.6,449.4,614.7,401.7Zm18.1,308.6C616,845.7,516.9,854.3,498.7,860.1c-7.8,2.5-80,20.5-170.8,14.5,0,0-67.7,81.6-88.8,102.9-3.3,3.3-7.2,4.7-9.8,4-3.6-.9-4.6-5.2-4.6-11.5.1-9,.6-111.5.6-111.5h0c-132.2-36.7-124.5-174.8-123-247.1s15.1-131.5,55.4-171.3c72.5-65.6,221.8-55.8,221.8-55.8,126.1.6,186.5,38.5,200.5,51.2C626.4,475.4,650.1,570.7,632.8,710.3Z" transform="translate(-54.1 -336.72)"/><path class="cls-2" d="M443.5,605.6c-1.6-33.1-18.4-50.4-50.4-52.1" transform="translate(-54.1 -336.72)"/><path class="cls-2" d="M486.7,620.1q1.05-46.2-27.4-77.2c-19-20.7-45.3-32.2-79.1-34.6" transform="translate(-54.1 -336.72)"/><path class="cls-2" d="M531,637.4c-.4-53.5-16.4-95.5-47.9-126.3s-70.8-46.3-117.7-46.6" transform="translate(-54.1 -336.72)"/><path class="cls-1" d="M394.8,718.5s11.9,1,18.2-6.9L425.4,696c6-7.8,20.5-12.7,34.7-4.8,7.9,4.5,22.1,13.2,30.9,19.7,9.4,6.9,28.7,23,28.7,23,9.2,7.7,11.3,19.1,5.1,31.1a.35.35,0,0,1-.1.2,129.3,129.3,0,0,1-25.9,31.9l-.2.2c-8.9,7.4-17.7,11.7-26.3,12.7a14.74,14.74,0,0,1-3.8.2,35.83,35.83,0,0,1-11.2-1.7l-.3-.4c-13.3-3.7-35.4-13.1-72.3-33.4A425.79,425.79,0,0,1,324,734.6a321.1,321.1,0,0,1-27.3-24.2l-.9-.9-.9-.9h0l-.9-.9-.9-.9a321.1,321.1,0,0,1-24.2-27.3,431.56,431.56,0,0,1-40.1-60.7c-20.3-36.9-29.7-59-33.4-72.3l-.4-.3a33.14,33.14,0,0,1-1.7-11.2,14.74,14.74,0,0,1,.2-3.8c1-8.6,5.3-17.4,12.7-26.3l.2-.2a127.5,127.5,0,0,1,31.9-25.9.35.35,0,0,0,.2-.1c12-6.2,23.4-4.1,31.1,5.1.1.1,16.1,19.3,23,28.7a362.64,362.64,0,0,1,19.7,30.9c7.9,14.2,3,28.7-4.8,34.7l-15.6,12.4c-7.9,6.4-6.9,18.2-6.9,18.2S308.2,696.4,394.8,718.5Z" transform="translate(-54.1 -336.72)"/></svg>