<svg id="Layer_1" data-name="Layer 1" xmlns="http://www.w3.org/2000/svg" width="22.85" height="22.86" viewBox="0 0 22.85 22.86"><defs><style>.cls-1{fill:#fff;}.cls-2{fill:#00c086;}</style></defs><title>rotateplz</title><g id="Layer_1-2" data-name="Layer_1"><path class="cls-1" d="M22.4,14.63v0a2.77,2.77,0,0,0,.19-.83A11.32,11.32,0,0,0,13.81.27,9.33,9.33,0,0,0,11.52,0V2.29a12.6,12.6,0,0,1,1.83.18,9.11,9.11,0,0,1,5.76,4,12.93,12.93,0,0,1,1,1.92l-3.57.92ZM9.06,22.58A11.32,11.32,0,0,1,.28,9.05a2.69,2.69,0,0,1,.18-.82L2.38,10h0l3.84,3.47-3.38,1a6.1,6.1,0,0,0,.91,1.92,9.08,9.08,0,0,0,5.76,4,10.28,10.28,0,0,0,1.65.18l-.09,2.29A7.73,7.73,0,0,1,9.06,22.58ZM5.76,9.42,9.33,5.85a.79.79,0,0,1,1.19,0l6.31,6.31a.79.79,0,0,1,0,1.19l-3.57,3.56a.78.78,0,0,1-1.19,0l-6.31-6.3A.79.79,0,0,1,5.76,9.42Zm7.77,3.1a1,1,0,0,1,1,1,.94.94,0,0,1-1,.91.94.94,0,0,1-1-.91A1,1,0,0,1,13.53,12.52Z" transform="translate(-0.01)"/></g><circle class="cls-2" cx="13.53" cy="13.48" r="1.01"/></svg>