<svg xmlns="http://www.w3.org/2000/svg" width="56" height="56" viewBox="0 0 56 56">
    <g fill="none" fill-rule="evenodd">
        <circle cx="28" cy="28" r="28" fill="#161616" fill-rule="nonzero"/>
        <path fill="#FFF" d="M21.8 25.9h12.4v5.3H21.8v-5.3zm14.1 0H43v5.3h-7.1v-5.3zM27.1 17v7.1H13v-6.5c0-.5.4-.6.9-.6h13.2zM43 24.1H28.9V17h13.2c.5 0 .9.1.9.6v6.5zM28.9 40v-7H43v4.8c0 .2 0 .4-.1.5l-.5 1.1c-.2.3-.5.6-.8.6H28.9zM514 15h37v27h-37V15zM13 32.9h14.1V40h-12c-.2 0-.4-.3-.6-.4l-1.2-1.2c-.2-.2-.3-.4-.3-.7v-4.8zm0-7h7.1v5.3H13v-5.3z"/>
    </g>
</svg>
