<svg xmlns="http://www.w3.org/2000/svg" width="56" height="56" viewBox="0 0 56 56">
    <g fill="none" fill-rule="nonzero">
        <circle cx="28" cy="28" r="28" fill="#161616"/>
        <path fill="#FFF" d="M27.618 11c.678 0 1.214.536 1.214 1.214 0 .678-.536 1.215-1.214 1.215a1.205 1.205 0 0 1-1.214-1.215c0-.678.536-1.214 1.214-1.214zm-7.412 1.214h14.821l3.209 13.896c-.419-.253-.839-.543-1.39-.543-.719 0-1.187.449-1.546.754-.36.305-.61.465-.762.465-.076 0-.176-.04-.303-.117a4.038 4.038 0 0 1-.46-.344c-.36-.301-.826-.747-1.542-.747-.715 0-1.184.443-1.544.745-.36.301-.611.461-.764.462-.154 0-.406-.159-.766-.457-.36-.3-.829-.738-1.541-.738-.178 0-.341.028-.491.074-.45.138-.78.44-1.05.664a4.07 4.07 0 0 1-.46.342c-.128.076-.23.116-.307.116-.154 0-.406-.159-.766-.457-.36-.3-.829-.738-1.541-.738-.713 0-1.18.441-1.54.74-.36.299-.612.456-.766.455-.15 0-.403-.159-.763-.462-.36-.304-.827-.75-1.544-.75-.551 0-.971.29-1.39.541l3.206-13.9zm7.412 14.59c.127 0 .34.133.607.34v2.032h-1.214v-2.032c.105-.081.218-.173.3-.223.128-.076.23-.117.307-.117zm-1.58 3.625h3.166c.599.373.924.764 1.068 1.254.153.522.13 1.184-.022 1.971-.275 1.433-.936 3.293-1.304 5.275h-2.673c-.355-1.978-.984-3.833-1.245-5.268-.143-.788-.165-1.456-.014-1.983.14-.492.457-.88 1.024-1.25zm-.242 9.714h3.644c.346 0 .606.26.606.607s-.26.607-.607.607h-3.643a.593.593 0 0 1-.607-.607c0-.347.26-.607.607-.607zm-1.821 2.428h7.286c.683 0 1.214.532 1.214 1.215V45h-9.714v-1.214c0-.683.53-1.215 1.214-1.215z"/>
    </g>
</svg>
