<svg xmlns="http://www.w3.org/2000/svg" width="56" height="56" viewBox="0 0 56 56">
    <g fill="none" fill-rule="evenodd">
        <circle cx="28" cy="28" r="28" fill="#000" fill-rule="nonzero"/>
        <path fill="#FFF" d="M41.091 40h-9.61A3.189 3.189 0 0 0 29 37.52v-2.61h8.272a.636.636 0 0 0 .636-.637V23.082l2.732 2.732a.635.635 0 0 0 .9 0 .636.636 0 0 0 0-.9L28.814 12.187a.636.636 0 0 0-.9 0L15.187 24.914a.636.636 0 1 0 .9.9l2.731-2.732v11.19c0 .353.285.637.637.637h8.272v2.61A3.19 3.19 0 0 0 25.247 40h-9.61a.636.636 0 1 0 0 1.273h9.61a3.187 3.187 0 0 0 3.117 2.545 3.186 3.186 0 0 0 3.117-2.545h9.61a.636.636 0 1 0 0-1.273zM22.964 25.692a.635.635 0 0 1-.45-1.087 8.216 8.216 0 0 1 5.85-2.423c2.21 0 4.288.86 5.85 2.423a.636.636 0 1 1-.9.9 6.956 6.956 0 0 0-4.95-2.05c-1.87 0-3.627.728-4.95 2.05a.636.636 0 0 1-.45.187zm2.25 2.513a.636.636 0 0 1 0-.9 4.459 4.459 0 0 1 6.3 0 .636.636 0 1 1-.9.9 3.185 3.185 0 0 0-4.5 0 .637.637 0 0 1-.9 0zm2.25 1.35a1.272 1.272 0 1 1 1.8 1.8 1.272 1.272 0 0 1-1.8-1.8z"/>
    </g>
</svg>
