<svg xmlns="http://www.w3.org/2000/svg" width="56" height="56" viewBox="0 0 56 56">
    <g fill="none" fill-rule="evenodd">
        <circle cx="28" cy="28" r="28" fill="#161616" fill-rule="nonzero"/>
        <path fill="#FFF" d="M42.425 20.4l-4.8-4.8c-.3-.3-.9-.3-1.2 0-.3.3-.3.9 0 1.2l1.7 1.7-1.5 1.5c-1.1-.9-2.4-1.7-3.8-2.2.9-.4 1.6-1.3 1.6-2.3 0-1.4-1.1-2.5-2.5-2.5h-6.7c-1.4 0-2.5 1.1-2.5 2.5 0 1 .6 1.8 1.4 2.3-1.7.4-3 1.1-4.1 2l-1.4-1.4 1.7-1.6c.3-.4.3-.9 0-1.2-.3-.3-.9-.3-1.2 0l-4.9 4.8c-.3.3-.3.9 0 1.2.2.2.4.2.6.2.2 0 .5 0 .6-.2l2-2 1.3 1.3c-2.2 2.3-3.6 5.5-3.6 9 0 7.2 5.8 13 13 13s13-5.8 13-13c0-3.4-1.3-6.5-3.4-8.8l1.5-1.5 2 2c.2.2.4.2.6.2.2 0 .4-.1.6-.2.3-.3.3-.9 0-1.2zm-11.6-5.8h.8c.5 0 .8.4.8.8s-.4.8-.8.8h-.8v-1.6zm-3.3 0h1.7v1.7h-1.7v-1.7zm-2.6 0h.8v1.7h-.8c-.5 0-.8-.4-.8-.8s.4-.9.8-.9zm10.3 11.6l-8.2 12.6c-.2.2-.4.4-.7.4-.1 0-.2 0-.3-.1-.4-.2-.6-.6-.5-1l1.7-6.3-3.7.8c-.3.1-.6 0-.8-.2-.2-.2-.3-.5-.2-.7l1.4-8.7c.1-.3.3-.6.7-.7l6.2-1.4c.3-.1.6 0 .8.3.2.2.3.6.2.8l-1.5 3.9 4-1c.3-.1.7 0 .9.3.2.3.2.7 0 1z"/>
    </g>
</svg>
