<?xml version="1.0" encoding="utf-8"?>
<!-- Generator: Adobe Illustrator 21.1.0, SVG Export Plug-In . SVG Version: 6.00 Build 0)  -->
<svg version="1.1" id="Слой_1" xmlns="http://www.w3.org/2000/svg" xmlns:xlink="http://www.w3.org/1999/xlink" x="0px" y="0px"
	 width="50px" height="50px" viewBox="0 0 50 50" enable-background="new 0 0 50 50" xml:space="preserve">
<circle fill="#040404" cx="25" cy="25" r="25"/>
<path fill="#FFFFFF" d="M32.544,14.241c-1.041-3.582-1.275-6.186-1.275-6.186c-0.325,0.343-2.125,1.974-4.567,3.044
	c-4.532,1.986-10.937,4.469-11.842,10.32c-0.48,3.1,0.908,6.082,3.195,8.217c0.488-2.171,1.245-3.676,1.317-3.816
	c0.314-0.606,1.058-0.845,1.667-0.531c0.212,0.109,0.36,0.281,0.474,0.472c-0.931,2.265-2.604,7.812,0.949,13.208
	c0.565,0.858,2.225,0.58,1.354-0.677c-1.274-1.84-1.296-4.76-1.126-5.976c4.135,1.27,9.375,0.361,11.881-5.325
	C36.336,22.988,33.841,18.706,32.544,14.241z"/>
</svg>
