<svg xmlns="http://www.w3.org/2000/svg" width="56" height="56" viewBox="0 0 56 56">
    <g fill="none" fill-rule="evenodd">
        <circle cx="28" cy="28" r="28" fill="#161616" fill-rule="nonzero"/>
        <path fill="#FFF" d="M39.409 25.514l.644.645a3.503 3.503 0 0 1 0 4.949L25.452 45.71a3.475 3.475 0 0 1-2.475 1.024 3.478 3.478 0 0 1-2.475-1.024L10.025 35.233A3.476 3.476 0 0 1 9 32.758c0-.935.364-1.814 1.025-2.475L24.627 15.68a3.477 3.477 0 0 1 2.475-1.025c.935 0 1.814.364 2.475 1.025l.645.645a6.487 6.487 0 0 1 4.098-1.444c.455 0 .903.048 1.339.139.235-.27.48-.539.745-.804 2.927-2.927 6.235-4.035 7.692-2.578 1.58 1.58-.376 5.491-3.093 8.209a.682.682 0 0 1-.303.167c.099.455.154.924.154 1.4 0 1.51-.509 2.94-1.445 4.099zm-3.521-2.531c-.419.418-.975.649-1.567.649s-1.15-.23-1.568-.65a2.22 2.22 0 0 1 0-3.135c.15-.148.32-.265.5-.364-.17 1.002.002 1.857.573 2.427a.698.698 0 0 0 .99 0 .7.7 0 0 0 0-.99c-.276-.276-.314-.883-.076-1.681.433.082.83.29 1.149.609a2.22 2.22 0 0 1-.001 3.135zm1.217-7.474c.094-.1.187-.2.288-.302 2.569-2.569 5.058-3.233 5.713-2.578.601.602-.46 3.482-2.879 6.005a6.527 6.527 0 0 0-1.287-1.839 6.52 6.52 0 0 0-1.835-1.286z"/>
    </g>
</svg>
